<?xml version="1.0" standalone="no"?>
<!DOCTYPE svg PUBLIC "-//W3C//DTD SVG 1.1//EN" "http://www.w3.org/Graphics/SVG/1.1/DTD/svg11.dtd" >
<svg xmlns="http://www.w3.org/2000/svg" xmlns:xlink="http://www.w3.org/1999/xlink" version="1.1">
<metadata>
Created by FontForge 20170731 at Tue Mar 15 18:31:41 2011
 By Aleksey,,,
(c)1995 by Three Islands Press, 215 Cedar St., Rockland ME 04841
</metadata>
<defs>
<font id="Marydale" horiz-adv-x="636" >
  <font-face 
    font-family="Marydale"
    font-weight="400"
    font-stretch="normal"
    units-per-em="1000"
    panose-1="0 0 4 0 0 0 0 0 0 0"
    ascent="800"
    descent="-200"
    x-height="384"
    cap-height="689"
    bbox="-348 -540 1425 1054"
    underline-thickness="48"
    underline-position="-236"
    unicode-range="U+0020-F002"
  />
<missing-glyph horiz-adv-x="500" 
d="M438 0h-375v700h375v-700zM125 638v-575h250v575h-250z" />
    <glyph glyph-name=".notdef" horiz-adv-x="500" 
d="M438 0h-375v700h375v-700zM125 638v-575h250v575h-250z" />
    <glyph glyph-name=".null" horiz-adv-x="0" 
 />
    <glyph glyph-name="nonmarkingreturn" horiz-adv-x="333" 
 />
    <glyph glyph-name="space" unicode=" " horiz-adv-x="390" 
 />
    <glyph glyph-name="exclam" unicode="!" horiz-adv-x="249" 
d="M187 669q0 -64 -17 -219q-6 -57 -23 -157q-15 -90 -12 -100q0 -7 4 -26q5 -23 5 -29q-2 -30 -21 -30q-4 0 -6 1q-30 6 -30 55q0 15 1 24l35 401q2 74 8 133q11 12 28 12q28 0 28 -65zM131 -82q2 -45 -25 -47q-12 -2 -20 16q-8 14 -8 28q0 32 13 35q38 1 40 -32z" />
    <glyph glyph-name="quotedbl" unicode="&#x22;" horiz-adv-x="237" 
d="M238 669q-15 -24 -63 -136q-4 -13 -6 -38q-1 -21 -7 -31.5t-18 -4.5q-16 7 -16 49q0 21 6 45q7 36 28 83q27 62 51 62q12 0 19.5 -8.5t5.5 -20.5zM141 714q-31 -73 -45 -158q2 -20 1 -46q-6 -32 -25 -32q-24 0 -24 46q0 26 7 60q16 54 43 155q4 25 12.5 36.5t22.5 7.5
q14 -5 14 -34q0 -18 -6 -35z" />
    <glyph glyph-name="numbersign" unicode="#" 
d="M531 375q-36 -12 -148 -46q-5 -69 1 -88q1 -3 13 -26q10 -16 10 -26q0 -11 -9.5 -21.5t-20.5 -10.5q-10 0 -18 11q-12 17 -19 56q-9 44 -7 91l-86 -28l-7 -106l4 -41q0 -19 -17 -27q-7 -3 -16 -3q-33 0 -33 26q0 6 3 12q8 18 10 62q0 19 0.5 34.5t0.5 22.5l1 7
q-37 -10 -115 -20q-28 -1 -47 10.5t-19 24.5q0 15 6 19q13 8 49 5q8 -1 23 -1q40 0 109 19l4 123q-99 -40 -132 -40q-17 0 -31 11.5t-14 23.5q0 6 5 9q26 13 177 55q4 81 14 196q4 7 19 7q19 0 23 -13q4 -16 -3 -170l86 24q1 40 3 73q4 74 11 80q7 7 18 7q29 0 30 -25
q3 -27 -5 -115q174 38 183 31q22 -13 22 -19q0 -4 -8 -7l-80 -21q-75 -19 -125 -41q0 -3 -1 -12t-2 -26.5t-2 -34.5q-1 -7 -2 -30t-2 -38q91 20 197 46q66 20 99 20q10 0 10 -3q0 -16 -162 -67zM337 366l5 132l-85 -24l-7 -128z" />
    <glyph glyph-name="dollar" unicode="$" 
d="M595 202q-1 -76 -67 -136q-45 -40 -135 -84q-2 -1 -17 -7q3 -50 10 -70q5 -12 5 -25q0 -36 -28 -36q-13 0 -24.5 12.5t-11.5 27.5q0 7 3 13q2 11 -1 61q-32 -10 -55 -13q3 -139 9 -148q7 -10 7 -26q0 -35 -33 -35q-21 0 -26 60q-4 58 -6 145q-88 -3 -111 44q-6 13 -6 27
q0 20 14.5 34t33.5 14q10 0 20 -5t10 -13t-19 -18q-18 -10 -18 -18q0 -4 4 -8q19 -21 71 -16q0 115 17 355q-105 18 -148 35q-60 26 -63 75q-2 35 52 72q46 32 171 88q1 0 5.5 2t7.5 3q0 51 -1 62q0 5 -2.5 25.5t-2.5 24.5q0 22 27 22q32 0 31 -73q0 -12 -1 -21v-19
q8 2 26 8q0 17 -1 39q0 10 -2 30.5t-2 21.5q0 14 17 16q21 1 29 -14q4 -10 6 -48q1 -19 1 -32q29 6 51 6q35 0 51 -11.5t14 -33.5q-1 -9 -9 -16.5t-16 -7.5q-11 0 -14 15q-2 9 -29 9q-19 0 -48 -6l-12 -250q109 -29 163 -68.5t53 -88.5zM538 203q0 63 -161 107
q-2 -49 -4 -156q-1 -93 0 -126q6 2 9 4q158 84 156 171zM262 564q-2 0 -7 -3t-8 -4q-83 -39 -123 -67.5t-37 -45.5q4 -21 50 -34q19 -6 108 -22q1 9 3.5 35t3.5 39q5 55 10 102zM328 322q-5 1 -19 3.5t-21 3.5q-14 -183 -15 -337q29 6 53 16q-3 56 -2 139q2 118 4 175z
M341 595q-11 -3 -26 -9l-16 -144q0 -6 -1.5 -15.5t-3 -23t-2.5 -24.5q34 -6 38 -7q6 110 11 223z" />
    <glyph glyph-name="percent" unicode="%" 
d="M575 665q-28 -14 -43 -23q-31 -23 -55 -75q-323 -681 -325 -772q-2 -48 -39 -48q-13 0 -17 6q-11 24 -11 34q0 15 10 28l76 192q100 251 245 563q37 81 64 111q23 26 54 38q8 3 14 3q15 0 24.5 -12.5t9.5 -27.5q0 -13 -7 -17zM295 565q33 -18 33 -62q0 -45 -44 -89
q-30 -28 -69 -51q-46 -25 -84 -25q-35 0 -58 24q-11 13 -11 32q0 31 22 69q20 35 36 42q2 1 15 21q16 21 35 31q38 22 73 22q26 0 52 -14zM478 66q4 -12 4 -29q0 -49 -45 -95q-31 -33 -66 -33q-42 0 -56 32q-6 13 -6 33q0 40 27 90q44 81 60 81q13 0 20 -24q12 -1 24 -8
q27 -14 38 -47zM242 531q-18 0 -39.5 -12.5t-30.5 -27.5q-10 -25 -22 -46q-6 2 -17 4q-20 -28 -20 -44q0 -19 25 -19q39 0 97 49q42 36 42 61q0 15 -10 25t-25 10zM434 49q-10 25 -21 25q-18 0 -46 -61q-12 -25 -12 -42q0 -23 22 -16q20 8 38 27q22 23 22 48q0 10 -3 19z
" />
    <glyph glyph-name="ampersand" unicode="&#x26;" horiz-adv-x="486" 
d="M471 216q6 -14 -54 -73q-67 -67 -143 -96q-98 -39 -180 5q-58 31 -58 106q0 46 27 84q36 50 78 84q14 11 71 48q-20 2 -30 4q-34 7 -52 24q-13 12 -13 27q0 52 124 121q44 25 77 25q44 0 44 -34q0 -5 -1 -7q-8 -11 -14 -11q-3 0 -12 4.5t-11 4.5q-15 3 -73 -34
q-62 -38 -62 -57t43 -19q11 0 20 1h20q38 0 43 -23q1 -4 -12 -14.5t-43 -32.5q-70 -51 -106 -87q-57 -59 -57 -107q0 -18 8 -36q18 -39 81 -39q67 0 146 47q41 25 84 62q36 30 45 30q6 0 10 -7zM262 -125q10 -97 12 -102q-2 -24 -26 -20q-16 1 -22 18q-6 21 -16 93
q-20 132 -7 145t22 13q16 0 25 -45q2 -11 12 -102zM299 681q0 -12 1.5 -27t2.5 -26t1 -12q0 -16 -24 -22q-11 -3 -19 24t-14 85q-8 68 -9 68q1 25 35 22q17 -1 21 -30q4 -22 5 -82z" />
    <glyph glyph-name="quotesingle" unicode="'" horiz-adv-x="169" 
d="M168 742q0 -18 -22 -103l-18 -74q-6 -21 -13 -31.5t-14 -9.5q-15 2 -15 42q0 36 11 75q6 23 19 86q6 27 15 34q6 6 16 6q21 0 21 -25z" />
    <glyph glyph-name="parenleft" unicode="(" horiz-adv-x="336" 
d="M315 695q-89 -107 -132 -186q-108 -190 -108 -380q0 -16 2 -50q11 -128 48 -185q27 -38 61 -38q37 0 54 -12.5t13 -38.5q-2 -12 -18.5 -20.5t-32.5 -5.5q-30 6 -68 44q-44 43 -60 71q-33 60 -45 174q-4 29 -4 67q0 151 67 310q50 120 128 229q66 90 81 87q30 -6 30 -30
q0 -17 -16 -36z" />
    <glyph glyph-name="parenright" unicode=")" horiz-adv-x="384" 
d="M342 247q3 -29 3 -56q0 -152 -85 -279q-63 -93 -160 -164l-97 -60q-1 -1 -5.5 -6t-6.5 -6.5t-7 -5t-9 -5t-10.5 -3t-14.5 -1.5q-30 0 -30 30q0 13 6 20t36 15q29 6 31 8l81 50q86 65 140 147q74 116 74 254q0 25 -3 50q-23 233 -101 369q-59 100 -113 113q-48 13 -48 31
q0 6 1 11q4 19 26 19q18 0 42 -10q54 -20 122 -123q104 -159 128 -398z" />
    <glyph glyph-name="asterisk" unicode="*" horiz-adv-x="492" 
d="M479 565q1 -24 -22 -24q-11 0 -22 11q-5 6 -26 6q-41 0 -133 -21l-16 -44q14 -39 37 -78q25 -16 25 -36q0 -18 -20 -18q-18 0 -37 30q-3 5 -24 45q-33 -92 -33 -98q0 -45 -29 -42q-23 3 -23 20t10 24q6 8 31 97q9 31 17 62l-6 19q-86 -24 -102 -40q-22 -21 -40 -21
q-21 0 -21 21q0 27 50 44q15 5 98 32l-32 81q-17 36 -17 44q0 7 6 8q9 4 11 4q11 0 34 -35q15 -28 41 -89l23 66q26 68 34 72q11 6 23 6q22 0 23 -18q0 -13 -16 -45q-23 -46 -30 -66q71 12 112 10q34 -1 51 -4q21 -6 23 -23z" />
    <glyph glyph-name="plus" unicode="+" 
d="M614 362q1 -9 -7 -17t-23 -8q-7 0 -12 1q-17 6 -152 -30q-49 -13 -154 -49l3 -188q2 -13 -2 -23q-6 -18 -21 -18q-24 0 -31 39q0 110 -3 172q-150 -52 -161 -61q-6 -4 -17 6.5t-11 22.5q0 7 3 13q6 10 185 72l-4 134q0 13 5.5 30.5t10.5 19.5q9 3 15 3q25 0 25 -51
q0 -60 1 -119q86 29 140 43q168 42 190 35q9 0 16 -9t4 -18z" />
    <glyph glyph-name="comma" unicode="," horiz-adv-x="237" 
d="M148 35q2 -13 -49 -104q-46 -84 -55 -101q-1 -3 -1 -7t4 -4q1 0 9 2t10 2q7 0 9 -5q7 -14 -18 -36q-28 -23 -65 -22q-10 1 -10 15q0 29 57 146l47 99q16 33 29 36q29 6 33 -21z" />
    <glyph glyph-name="hyphen" unicode="-" horiz-adv-x="471" 
d="M455 275q0 -14 -17 -20q-11 -4 -53 -4q-128 0 -216 -19q-86 -19 -112 -19q-30 0 -31 16q-6 34 46 47q29 8 131 16q123 9 182 9q70 0 70 -26z" />
    <glyph glyph-name="hyphen" unicode="&#x2010;" horiz-adv-x="471" 
d="M455 275q0 -14 -17 -20q-11 -4 -53 -4q-128 0 -216 -19q-86 -19 -112 -19q-30 0 -31 16q-6 34 46 47q29 8 131 16q123 9 182 9q70 0 70 -26z" />
    <glyph glyph-name="period" unicode="." horiz-adv-x="201" 
d="M138 21q0 -42 -39 -42q-36 0 -36 41q0 17 14 31q10 10 22 12q17 2 28 -10.5t11 -31.5z" />
    <glyph glyph-name="slash" unicode="/" horiz-adv-x="357" 
d="M392 687q-5 -23 -26 -46q-30 -32 -40 -54l-56 -104q-62 -126 -149 -350q-58 -146 -83 -244q-5 -15 -12 -73q-1 -4 -2 -14t-2.5 -15t-3.5 -11.5t-6 -9.5t-9 -3q-36 0 -36 30q0 7 3 18q19 82 25 107q33 118 91 260q130 325 217 482q35 62 56 62q38 0 33 -35z" />
    <glyph glyph-name="zero" unicode="0" 
d="M589 531q34 -52 34 -113q0 -114 -115 -229q-80 -82 -178 -136q-99 -54 -175 -54q-51 0 -86 26q-63 49 -63 139q0 102 77 245q72 133 130 178q26 20 39 20q4 0 16 -4.5t15 -4.5q70 21 136 21q112 0 170 -88zM514 535q-37 34 -104 34q-54 0 -114 -23q-56 -21 -84 -48
q-48 -44 -48 -78q0 -15 14 -26q16 -14 33 -18l11 -4q0 -4 -16.5 -10.5t-27.5 -4.5q-24 5 -45 24q-71 -130 -71 -218q0 -59 36 -88q26 -21 65 -21q103 0 278 144q57 48 91 107.5t34 114.5q0 69 -52 115z" />
    <glyph glyph-name="one" unicode="1" 
d="M445 638q1 -8 -35 -281q-36 -270 -31 -303q1 -5 5 -15q5 -15 5 -26q-6 -30 -29 -30q-3 0 -11 2q-24 8 -28 15q-4 4 -4 24q0 7 1.5 13.5t3 10.5t1.5 5q-1 7 33 285l31 221l-97 -106q-100 -107 -111 -108q-17 -2 -17 32q0 10 5 18q7 12 111 117q23 25 80 92q43 51 50 52
q10 2 22.5 -3.5t14.5 -14.5z" />
    <glyph glyph-name="two" unicode="2" 
d="M573 91q0 -29 -27 -34q-11 -2 -23 3q-15 6 -17 7q-14 3 -98 -15q-89 -20 -134 -37q-129 -50 -144 -50q-4 0 -10 2q-22 16 -15 43q1 5 47 62q72 90 116 150q158 214 158 288q0 28 -18 44q-35 32 -91 32q-45 0 -89.5 -19.5t-67.5 -49.5q-1 -1 -3 -5.5t-3 -6.5t-3.5 -6
t-3.5 -5.5t-3.5 -4.5t-4 -4.5t-4 -3.5t-5 -2.5t-4.5 -0.5q-30 0 -30 24q0 22 30 55q29 32 68 52q60 29 125 29q84 0 129 -49q31 -32 31 -78q0 -83 -126 -259l-154 -207l124 40q44 13 187 40q63 12 63 -34z" />
    <glyph glyph-name="three" unicode="3" 
d="M547 121q-1 -108 -76 -216q-53 -77 -139 -148l-78 -60q-41 -36 -64 -36q-14 0 -27.5 14t-13.5 28q0 22 28 29q5 2 25 0q15 -2 23 6l83 68q77 68 121 136q62 94 62 182q-2 71 -79 110q-53 28 -148 40q-27 3 -92 11q-16 9 -26.5 22.5t-6.5 24.5q2 5 70 60q93 77 181 163
q-242 -25 -276 -24q-12 0 -22.5 10.5t-10.5 23.5q0 15 21 26q44 -2 146 7q109 10 149 10q52 0 59 -12q5 -8 5 -17q0 -37 -115 -140q-42 -35 -119 -107q97 -5 161 -26q161 -53 159 -185z" />
    <glyph glyph-name="four" unicode="4" 
d="M556 332q-64 8 -137 2q-37 -290 -36 -303q11 -24 11 -44q0 -31 -26 -31q-8 0 -19 3q-34 10 -34 43q0 11 5 29q3 8 44 296q-38 -5 -162 -27q-87 -16 -117 -16q-9 0 -15 2q-22 7 -22 30q0 7 5 14l57 55q36 37 84 105q24 33 67 123q39 82 52 98q6 6 13 6q11 0 21 -14t10 -30
q0 -11 -6 -20q-22 -35 -101 -178q-34 -61 -105 -128q86 15 225 32q18 128 31 211q6 18 8 22q7 22 14 24q14 5 29 -14q15 -16 10 -30q0 -11 -9 -50q-12 -52 -14 -69q-2 -9 -6.5 -40t-7.5 -53q68 -1 126 -13q25 -4 25 -19q0 -18 -20 -16z" />
    <glyph glyph-name="five" unicode="5" 
d="M700 597q2 -18 -4 -23t-25 -5q-9 0 -21.5 4t-18.5 4q-145 0 -245 -17q-42 -7 -98 -9q-58 -2 -70 4q-23 9 -23 28q0 3 2 9q4 8 89 10q39 0 74 5q61 9 167 14q81 4 93 4q17 3 32 3q45 0 48 -31zM482 226q-22 -100 -111 -168q-79 -61 -164 -61q-70 0 -103 47q-15 22 -15 38
q0 20 21 24q10 2 14 2q18 0 25 -22q7 -24 15 -29q24 -11 48 -11q72 0 141 70q69 69 77 151q7 73 -78 107q-63 25 -172 25q-47 0 -95 -5q-14 -2 -25.5 9.5t-11.5 24.5q0 5 1 7q5 14 54 77t60 63q13 0 25 -13.5t9 -27.5q-2 -10 -22 -34q-37 -46 -39 -48q107 2 176 -14
q176 -39 176 -164q0 -22 -6 -48z" />
    <glyph glyph-name="six" unicode="6" 
d="M489 349q43 -19 43 -89q0 -80 -70 -151q-123 -124 -222 -124q-34 0 -63 18q-54 34 -54 161q0 131 50 248q41 96 102 186q60 88 87 95q14 5 31 -9q18 -12 18 -27q0 -7 -3 -12q-4 -7 -10.5 -10.5t-12.5 -5t-8 -2.5q-27 -22 -70 -89q-59 -88 -105 -204q-26 -63 -26 -173
q0 -51 7 -89q0 28 7 52q18 61 65 117q99 116 193 116q20 0 41 -8zM446 302q-68 0 -149 -101q-59 -74 -59 -128q0 -27 21 -27q25 0 68 27q47 28 83 64q27 26 47 65q20 42 20 68q0 32 -31 32z" />
    <glyph glyph-name="seven" unicode="7" 
d="M565 617q3 -6 3 -13q0 -17 -17 -32l-40 -14q-38 -20 -84 -94q-10 -12 -51 -89q76 6 117 6q27 0 31 -3q15 -14 15 -26q0 -16 -24 -18q-21 0 -73 -4q-24 0 -86 -6q-12 -26 -58 -182q-28 -99 -28 -144l3 -28q1 -4 1 -11q0 -31 -33 -26q-14 2 -23 17t-5 25q2 32 32 179
q19 84 49 170q-44 -10 -68 -10q-30 0 -30 24q0 12 13 19q16 9 107 16q13 30 47 88q51 83 80 115q-37 0 -202 -11q-30 -2 -116 -13q-47 -6 -57 -6q-8 0 -14 2q-21 8 -21 33q0 11 7 15q28 15 218 25q122 7 204 7q92 0 103 -11z" />
    <glyph glyph-name="eight" unicode="8" 
d="M587 338q28 -38 28 -78q0 -91 -155 -186q-140 -85 -266 -85q-166 0 -166 139q0 55 24 92q35 56 104 104q-27 4 -50 12q-54 18 -70 46q-12 22 -12 54q0 75 57 133q34 35 57 43l52 8q25 10 42 13q60 15 118 16q114 2 160 -61q18 -24 18 -51q0 -42 -43 -85q-8 -8 -80 -56
q141 1 182 -58zM546 302q-34 48 -138 48q-100 0 -176 -39q-156 -79 -156 -178q0 -26 12 -52q19 -40 99 -40q49 0 109 15q53 14 91 35q86 49 120 77q55 46 55 88q0 24 -16 46zM466 561q-32 41 -119 41q-71 0 -123 -21q-107 -43 -100 -103q2 -16 12 -27q9 -8 40 -27
q-28 -8 -57 5q-22 10 -37 42q-6 -18 -6 -35q0 -28 18 -40q43 -27 94 -27q62 0 144 41q144 74 144 125q0 15 -10 26z" />
    <glyph glyph-name="nine" unicode="9" 
d="M517 135q-47 -112 -131 -210q-63 -75 -141 -136q-62 -48 -78 -52q-12 -2 -16 -2q-25 0 -25 20q0 9 6 13q86 64 146 126q120 119 179 244q40 84 56 221q-4 -13 -21 -28q-38 -35 -128 -71q-105 -41 -168 -41q-55 0 -96 26q-58 36 -58 109q0 91 82 163q103 91 220 91
q70 0 126 -35q100 -64 100 -205q0 -103 -53 -233zM506 430q3 27 -22 58q-22 26 -48 40q-50 24 -95 24q-50 0 -105 -29q-58 -31 -95 -73q-41 -47 -41 -92q0 -22 11 -44q21 -43 80 -43q55 0 160 41q115 47 155 118z" />
    <glyph glyph-name="colon" unicode=":" horiz-adv-x="231" 
d="M141 375q-5 -59 -31 -59q-11 0 -20.5 15.5t-9.5 34.5q0 52 33 54q14 1 22 -12t6 -33zM137 28q0 -19 -11 -35t-23 -14q-31 6 -31 39q0 44 31 51q17 4 25.5 -6t8.5 -35z" />
    <glyph glyph-name="semicolon" unicode=";" horiz-adv-x="237" 
d="M157 375q-5 -59 -31 -59q-11 0 -20.5 15.5t-9.5 34.5q0 52 33 54q14 1 22 -12t6 -33zM147 35q2 -12 -48 -104q-48 -88 -55 -102q-1 -2 -1 -6t4 -4q1 0 8.5 2t10.5 2q6 0 9 -5q7 -13 -18 -35q-27 -25 -65 -23q-10 1 -10 15q0 29 57 146l47 99q16 33 29 36q28 6 32 -21z
" />
    <glyph glyph-name="less" unicode="&#x3c;" 
d="M512 67q-14 0 -83 20q-76 24 -111 31l-118 21q-66 13 -88 40q-19 22 -19 33q0 7 11 24q9 14 104 123q96 110 108 119q14 11 29 11q24 0 20 -22q-3 -11 -97 -123q-93 -113 -92 -123q2 -18 117 -48q137 -34 155 -44q75 -39 75 -55q0 -7 -11 -7z" />
    <glyph glyph-name="equal" unicode="=" 
d="M577 240q15 -8 15 -25q0 -14 -20 -17q-5 0 -47 -2q-11 0 -212 -37q-34 -6 -142 -29q-56 -13 -75 -13q-15 0 -21 8q-8 14 -8 24q0 12 10 18q15 9 42 10q56 4 168 26q221 43 264 43q17 0 26 -6zM582 345q-1 -25 -61 -25q-45 0 -102 -10q-33 -5 -101 -17q-120 -20 -172 -32
q-53 -11 -59 -11q-8 0 -12 1q-32 8 -32 20q0 29 51 32l54 3q210 39 398 65q16 2 26.5 -6t9.5 -20z" />
    <glyph glyph-name="greater" unicode="&#x3e;" 
d="M541 286q2 -21 -53 -59q-6 -4 -27 -17.5t-71.5 -45t-95.5 -59.5q-91 -57 -118 -81q-10 -8 -13 -21q-8 -35 -34 -35q-10 0 -19 4q-14 6 -14 18q0 15 19 35q35 41 195 147q147 98 147 109q1 13 -48 36q-169 77 -172 78q-23 11 -45.5 22t-33 16t-12.5 6q-46 24 -51 36
q-2 6 -2 11q0 30 30 31q8 1 17 -8.5t10 -16.5q2 -10 102 -48q141 -53 187 -75q101 -50 102 -83z" />
    <glyph glyph-name="question" unicode="?" horiz-adv-x="567" 
d="M537 674q4 -15 4 -35q0 -88 -97 -182q-68 -67 -178 -134l-96 -58q0 -34 27 -76q33 -51 42 -82q2 -10 2 -16q0 -25 -10 -36t-29 -7q-28 4 -28 31q0 2 2 16q1 5 1 9q-9 24 -28 56q-22 36 -29 57q-13 35 -11 86q36 15 72 33q85 42 152 92q151 114 151 199q0 16 -5 34
q-12 40 -91 40q-72 0 -159 -32q-85 -31 -102 -66q-13 -28 -40 -28q-18 0 -23 17q-8 23 45 61q44 32 119 66q74 33 162 33q129 0 147 -78zM252 -105q0 -18 -11 -32.5t-25 -14.5q-36 0 -36 38t30 42q16 2 29 -8t13 -25z" />
    <glyph glyph-name="at" unicode="@" horiz-adv-x="579" 
d="M552 522q0 -99 -63 -180q-79 -102 -185 -122q-18 -22 -56 -57q-46 -28 -66 -28q-33 0 -33 53q0 42 18 82t53 66q34 25 62 25q11 0 16 -4q29 -18 29 -52q0 -21 -9 -40q58 30 93 65q91 87 82 199q-6 87 -69 87q-51 0 -119 -52q-65 -50 -105 -109q-86 -131 -86 -260
q0 -57 21 -96q27 -48 79 -48q84 0 233 105q0 12 10 23t23 11q14 0 24 -16q5 -8 5 -15q0 -15 -25 -31l-101 -69q-103 -61 -176 -61q-38 0 -67 17q-32 20 -55 67q-25 53 -25 124q0 124 81 260q51 86 133 148q81 60 150 60q57 0 92.5 -42.5t35.5 -109.5zM268 243q-12 3 -12 22
q0 8 4 22.5t4 17.5q-19 -4 -33 -17q-35 -30 -36 -93q0 -5 5 -5q10 0 33 17t35 36z" />
    <glyph glyph-name="A" unicode="A" horiz-adv-x="609" 
d="M635 344q1 -17 -8 -26t-28 -9q-9 0 -15 3l-129 -38l67 -285q23 -20 23 -36t-20 -27q-6 -2 -10 -2q-15 0 -29 12.5t-11 24.5l-71 296q-20 -6 -169 -52q-10 -4 -25.5 -9.5t-40.5 -14.5t-43 -16q-19 -37 -41 -102q-2 -11 -6 -35q-5 -20 -28 -20q-20 0 -26 17q-7 22 38 132
q-30 5 -30 33q0 5 2 15q5 15 59 30l205 448q14 32 38 32q18 0 26 -38q2 -25 23 -121q2 -6 59 -237l140 42q13 6 26 6q22 0 24 -23zM393 302q-2 9 -7 28t-13.5 52t-16.5 63q-16 54 -40 131l-85 -164q-27 -53 -75 -167q55 10 143 31q73 19 94 26z" />
    <glyph glyph-name="B" unicode="B" horiz-adv-x="633" 
d="M625 259q-1 -60 -63 -138q-79 -98 -215 -155q-32 -12 -48 -19q-8 -5 -21 -5q-24 0 -33 18q-5 10 -5 18q0 14 12.5 26.5t27.5 15.5q31 4 82 12q62 21 130 87q76 76 76 145q0 38 -72 67q-77 31 -199 31q-35 0 -84 -10q-51 -10 -85 -25v-109q0 -41 13 -92q11 -47 11 -54
q0 -10 -5 -28q-3 -9 -23 -9q-41 0 -45 19q-9 50 -9 57q0 9 2 31q3 14 -2 173l3 224q-12 2 -18 4q-17 7 -19 24q-2 29 34 55q2 14 4 19q8 19 21 24q10 2 14 2q17 0 24 -22q203 62 313 62q83 0 83 -41q0 -20 -18 -52q-16 -27 -31 -42q-65 -62 -115 -98l-86 -59q103 -2 174 -16
q86 -18 129.5 -53t42.5 -87zM440 658q-59 0 -175 -32q-114 -32 -129 -55q-19 -30 -12 -178q56 28 172 97q175 115 175 156q0 12 -31 12z" />
    <glyph glyph-name="C" unicode="C" horiz-adv-x="729" 
d="M764 237q4 -7 4 -15q0 -30 -58 -36q-11 -1 -112 -48q-109 -51 -198 -83q-126 -44 -206 -44q-71 0 -109 31q-73 57 -73 146q0 132 145 292q131 146 269 202q30 13 53 13q21 0 29 -15q4 -9 4 -18q0 -24 -53 -35q-65 -13 -159 -90q-94 -76 -159 -170q-73 -103 -73 -182
q0 -66 55 -102q31 -20 82 -20q107 0 294 84l184 91q39 17 51 17q20 0 30 -18z" />
    <glyph glyph-name="D" unicode="D" horiz-adv-x="663" 
d="M679 465q2 -113 -186 -260q-94 -74 -319 -209q-4 -1 -15 -22q-11 -20 -30 -21q-2 0 -5 2l-6 4l-2 2q-3 -1 -12 1q-18 18 -9 49q4 9 7 25q-15 207 -11 294q4 81 18 295l-75 -26q-13 -2 -26.5 9.5t-13.5 24.5q0 14 13 21q30 18 94 31q65 14 135 16q169 4 306 -67
q135 -70 137 -169zM619 461q0 81 -123 139q-111 52 -229 51q-67 -2 -91 -10q-23 -194 -31 -366q-4 -99 17 -220q117 66 194 118q204 138 250 238q13 26 13 50z" />
    <glyph glyph-name="E" unicode="E" horiz-adv-x="648" 
d="M686 233q-84 -21 -215 -78q-149 -65 -282 -135q-90 -46 -96 -45q-14 5 -31 28q-14 20 -17 31q-4 19 4 81q4 28 9 160q5 145 5 197q0 32 -1 35q-4 12 -10 27q-6 16 -6 26q0 11 13.5 19.5t28.5 8.5q14 0 25 -7l300 112q97 31 127 31q36 0 36 -22q0 -12 -10 -22
q-13 -16 -40 -16q-14 0 -24 7q-78 -23 -83 -25q-87 -27 -135 -52q-27 -14 -161 -69q4 -78 0 -100q-2 -47 -8 -98q277 121 307 115q24 -4 24 -21q0 -11 -12 -23q-5 -5 -21 -8.5t-19 -5.5l-103 -39q-112 -45 -178 -87q-1 -15 -10 -124q-1 -16 0 -42q2 -42 2 -44q16 9 82 41
q99 46 261 110q201 79 253 79q9 0 15 -3q27 -9 27 -22q0 -3 -2 -5t-55 -15z" />
    <glyph glyph-name="F" unicode="F" horiz-adv-x="582" 
d="M687 744q15 -9 15 -23q0 -17 -21 -25q-9 -4 -49 -5q-42 -2 -78 -13q-131 -43 -135 -44q-96 -33 -215 -87q-1 -32 -17 -137l-11 -74q33 16 63 30q77 35 125 47q111 31 158 31q26 0 26 -18q0 -25 -27 -34q-23 -2 -102 -18q-126 -31 -251 -115q-11 -115 -11 -172
q0 -25 1 -34q0 -3 3.5 -18t3.5 -20q0 -28 -33 -28q-15 0 -24 9q-3 3 -3 29q0 31 4 100t4 112q-22 10 -22 30q0 14 7 21q2 3 21 21q3 24 10 108q2 24 4.5 59t3.5 44q-111 -42 -126 -40q-26 5 -26 30q0 12 6 21q4 6 59 21q67 17 88 27q-1 49 20 58q8 2 11 2q29 0 33 -36
q117 43 321 112q117 32 150 32q9 0 14 -3z" />
    <glyph glyph-name="G" unicode="G" horiz-adv-x="699" 
d="M355 331q-31 -15 -44 -15q-16 0 -25 15q-4 5 -4 13q0 23 43 30q147 36 262 36q35 0 56 -17.5t21 -48.5q0 -57 -36.5 -125.5t-94.5 -127t-138 -98.5t-159 -40q-90 0 -145 69.5t-55 176.5q0 130 82 246.5t231 202.5q91 52 115 52q36 0 36 -27q0 -7 -1 -12l-92 -48
q-145 -76 -230 -182t-85 -220q0 -90 41 -145.5t111 -55.5q73 0 156 47t140 121t57 143q0 38 -33 38q-72 0 -209 -28z" />
    <glyph glyph-name="H" unicode="H" horiz-adv-x="690" 
d="M685 439l-28 6q-6 2 -14 2q-15 0 -58 -8q-69 -12 -71 -13q-3 -168 -1 -252q3 -114 21 -151q13 -17 13 -31q0 -16 -22 -22q-11 -3 -17 -3q-20 0 -30 22q-5 15 -5 28v1q0 2 -0.5 6t-1 9.5t-1.5 14t-2 17.5l-2.5 22.5t-2.5 26.5q-9 100 -9 131v170l-166 -33q-19 -3 -135 -28
l-23 -194q-6 -50 -6 -111v-10q0 -39 -4 -47q-8 -12 -20 -12q-13 0 -32 13q-5 5 -5 28q0 38 12 134q13 109 15 112q0 3 2.5 29.5t4.5 50.5q-10 2 -14 5q-12 7 -14 25q-1 22 33 34q7 148 2 193q-7 46 0 59q7 10 32 10q18 0 22 -7q5 -5 10 -42q4 -31 4 -60q0 -3 -11 -142
q31 6 147 24q74 16 146 29q0 53 1 74q1 76 8 86q14 24 35 24q25 0 25 -31q0 -6 -5 -61q-5 -50 -3 -82q128 20 168 20q11 0 17 -2q19 -12 19 -30q0 -13 -10 -23.5t-24 -10.5z" />
    <glyph glyph-name="I" unicode="I" horiz-adv-x="234" 
d="M165 684q14 -5 14 -46q0 -35 -10 -105q-14 -104 -15 -124q-2 -25 -13 -308q0 -11 -2 -39q18 -25 18 -46q0 -14 -11.5 -22.5t-27.5 -8.5q-21 0 -30 20q-4 9 -4 74q0 97 9 276q9 170 13 198l10 93q7 43 31 43q6 0 18 -5z" />
    <glyph glyph-name="J" unicode="J" horiz-adv-x="639" 
d="M321 684q241 55 306 55q37 0 37 -26q-2 -10 -9 -15.5t-13.5 -7t-19 -2.5t-16.5 -2q-7 -1 -34.5 -6.5t-40.5 -7.5q1 -11 1 -39q0 -145 -18 -262q-31 -192 -95 -271q-104 -128 -252 -128q-22 0 -55.5 5t-56.5 10.5t-23 6.5q-50 0 -50 31q0 16 9 25t22 9t90 -31q15 -5 49 -5
q157 0 237.5 129.5t80.5 404.5l-1 104q-82 -15 -130 -32l-6 -2q-21 -7 -36 -7q-13 0 -20.5 11.5t-7.5 25.5q0 24 52 27z" />
    <glyph glyph-name="K" unicode="K" horiz-adv-x="645" 
d="M626 2q-52 0 -142 42q-117 54 -212 143q-83 78 -128 138l-16 -238q0 -20 1 -32q1 -15 1 -27q0 -32 -19 -48q-7 -7 -16 -7q-12 0 -26 13q-6 8 -6 51q0 74 22 325q-1 -1 -6 -1t-10 7t-5 19q0 5 2 21q3 16 27 30q3 25 6 101q1 21 1 65q2 40 9 51q17 21 33 21q8 0 16 -6
q12 -8 12 -32q0 -11 -3 -44q-4 -37 -6 -64q-2 -45 -5 -65q21 13 52 27q70 33 221 86q165 58 213 58q18 0 18 -20q0 -23 -41 -43q-12 -6 -45 -8q-14 -1 -30 -6q-272 -84 -387 -153q13 -24 31 -46q51 -64 150 -156q67 -61 148 -105q32 -17 114 -54q46 -19 46 -31t-20 -12z" />
    <glyph glyph-name="L" unicode="L" horiz-adv-x="570" 
d="M593 200l-208 -69q-195 -68 -268 -116q-41 -27 -53 -27q-11 0 -21 7q-19 10 -19 27q0 7 9 29.5t9 28.5q19 346 45 475q3 18 5 76q0 41 5 58q7 24 35 24q31 0 31 -65q0 -66 -22 -138q-13 -40 -23 -131q-12 -94 -7 -129q1 -7 1 -24q0 -23 -4 -66q-4 -48 -3 -75
q79 31 130 49q153 54 283 85q22 5 40 5q44 0 44 -15q0 -5 -9 -9z" />
    <glyph glyph-name="M" unicode="M" horiz-adv-x="858" 
d="M806 -48q-44 -3 -44 35q0 7 3 33q2 27 1 35l-27 219l-25 187q-6 49 -6 100l-134 -251q-135 -251 -137 -267q-1 -18 -15 -31t-32 -13q-37 0 -49 55q-6 37 -37 140q-39 134 -78 224l-63 171q-87 -518 -85 -556q2 -21 -10.5 -40.5t-31.5 -19.5q-36 0 -36 32q0 20 20 51
q9 12 40 233q35 238 38 246q10 30 10 74q0 32 8 40l29 32q20 21 28 17q9 -5 45 -101l83 -228q53 -137 92 -284l286 536q1 2 5 8.5t5.5 9t5 7.5t7 7t8 4.5t10 3.5t11.5 0q28 -1 34 -47l9 -148q7 -128 31 -275q26 -154 26 -181q0 -57 -25 -58z" />
    <glyph glyph-name="N" unicode="N" horiz-adv-x="612" 
d="M536 103q0 -22 -8 -33q2 -16 2 -24q0 -23 -7.5 -33t-22.5 -8q-30 5 -30 45q0 14 3 28q-1 1 -53 34q-46 27 -174 228q-47 73 -95 186q-51 -346 -51 -442q0 -24 4 -28q9 -10 9 -49q0 -60 -31 -60q-12 0 -25 9q-6 4 -6 49q0 78 13 225q10 134 18 174q6 38 9 156q3 97 11 110
q10 18 27 18q14 0 23 -14q23 -37 50 -122q30 -90 65 -151q106 -187 162 -226q13 -9 40 -21q-6 312 0 391q1 11 1 34t-3 53q0 8 -0.5 17.5t-1 14.5t-0.5 7q0 34 31 34q35 0 35 -115q0 -31 -5 -106q-4 -59 -4 -77q0 -15 -3 -59t-3 -74q0 -67 10 -140q10 -19 10 -31z" />
    <glyph glyph-name="O" unicode="O" horiz-adv-x="696" 
d="M702 389q-5 -69 -88 -163q-81 -93 -196 -159q-123 -72 -222 -72q-45 0 -84 17q-97 45 -97 171q0 147 111 308q111 163 216 164q72 1 100 -33q269 -51 260 -233zM643 391q5 120 -140 161q-58 16 -145 16q-5 -2 -27 -19q-19 -13 -33 -12q-8 1 -14.5 4t-10 6t-6.5 6t-4 5
l-1 1q-82 -66 -139 -178q-52 -104 -52 -194q0 -86 52 -114q37 -20 83 -20q88 0 194 63q96 56 169 138q73 83 74 137z" />
    <glyph glyph-name="P" unicode="P" horiz-adv-x="567" 
d="M625 695q11 -16 11 -32q0 -75 -208 -193q-121 -69 -299 -145q-10 -133 -10 -212l6 -74q0 -45 -35 -45q-18 0 -24.5 13t-2.5 51q0 17 1.5 48t4 88.5t4.5 101.5q-6 14 -6 19q0 13 6 20q1 12 3.5 43t5 64t4.5 66q6 130 -3 154q-2 6 -2 10q0 16 12 30t26 14q9 0 24 -9t22 -9
q1 0 13.5 1t44 4t63.5 6q123 13 204 13q116 0 135 -27zM564 652q0 21 -84 21q-57 0 -143 -9q-56 -6 -92 -13q-27 -6 -94 -11l-15 -251q120 48 213 95q213 106 215 168z" />
    <glyph glyph-name="Q" unicode="Q" horiz-adv-x="655" 
d="M473 -78l-82 80q-57 -19 -113 -19q-48 0 -93 13q-81 23 -125.5 83t-44.5 146q0 92 41.5 177.5t103.5 142t132 90t130 33.5q16 0 45.5 -6.5t29.5 -15.5q85 -25 129 -92.5t44 -144.5q0 -121 -64.5 -227.5t-167.5 -159.5q35 -35 67 -60q1 -1 2 -1q31 -20 31 -37
q0 -10 -9 -20.5t-18 -10.5q-19 0 -38 29zM615 420q0 71 -52 126t-145 55l-26 -1q-13 -30 -50 -30q-21 0 -34 5q-166 -76 -216 -253q-14 -48 -14 -95q0 -85 52 -137.5t144 -52.5q37 0 75 8q-70 74 -70 95q0 19 20 19q5 0 9 -1.5t9 -6.5l6.5 -6.5t6.5 -8.5l6 -8l63 -66
q100 42 158 142t58 216z" />
    <glyph glyph-name="R" unicode="R" horiz-adv-x="675" 
d="M730 14q-4 -16 -29 -16q-30 0 -43 16l-115 49q-136 60 -266 144q-42 27 -152 117q-6 -63 -16 -251q-1 -12 6 -34q7 -20 7 -31q0 -15 -11.5 -26t-27.5 -11q-17 0 -28 12q-4 4 -4 30q0 41 10 155q12 157 14 199l-8 16l9 6q14 152 11 177q-4 24 -4 37q0 37 30 46q10 2 14 2
q24 0 33 -31q175 78 283 78q99 0 105 -76q5 -59 -88.5 -126.5t-284.5 -142.5q21 -21 102 -83q137 -90 273 -151q102 -45 135 -49q15 -1 29 -12q18 -14 18 -31q0 -3 -2 -13zM489 615q0 24 -55 24q-57 0 -144 -23q-83 -23 -103 -41q-6 -5 -14 -3q-9 3 -12 12q-1 -35 -10 -77
t-17 -105q16 3 81 23q274 115 274 190z" />
    <glyph glyph-name="S" unicode="S" horiz-adv-x="621" 
d="M595 207q2 -63 -75 -125q-51 -42 -141 -86q-76 -37 -78 -41q-5 -32 -46 -32q-37 0 -44 18q-3 7 -3 16q0 18 16 31q15 12 29 13q67 9 171 75q113 71 113 119q0 71 -132 108l-246 55q-132 34 -132 97q0 70 78 133q65 51 162 87q87 32 140 30q50 -2 72 -19q6 -6 32 -42
q2 -4 2 -7q0 -8 -10.5 -15t-23.5 -7q-12 0 -28 16t-30 16q-79 1 -200 -55q-129 -60 -129 -121q0 -46 130 -77q232 -55 241 -59q130 -46 132 -128z" />
    <glyph glyph-name="T" unicode="T" 
d="M786 645q0 -9 -27 -22q-27 -12 -43 -12q-7 0 -10 16q-1 16 -10 16q-105 -4 -154 -7q-146 -11 -236 -45q-22 -255 -20 -374q1 -34 0 -85q0 -48 1 -57q2 -25 8 -35q4 -7 4 -15q0 -18 -12 -32.5t-28 -14.5q-11 0 -21 7q-9 6 -9 140q0 212 7 285q7 63 3 166
q-205 -45 -225 -38q-26 9 -26 35q0 14 13 24q9 6 66 8q73 1 168 30q1 0 12.5 14t22.5 16q4 1 9.5 0t10 -3t8 -4t6.5 -4l2 -1q21 8 196 22q160 13 233 13q17 0 18 -1q33 -13 33 -42z" />
    <glyph glyph-name="U" unicode="U" horiz-adv-x="660" 
d="M677 625q-27 -207 -132 -393q-136 -241 -320 -238q-71 2 -123 128q-51 121 -52 262q-2 161 2 220q1 26 13 38.5t35 10.5q18 -2 22 -10.5t2 -40.5q-5 -62 -12 -265q-1 -95 41 -191q45 -102 98 -97q112 12 203 139q71 98 120 247q38 119 41 179q0 3 -2 25.5t-2 29.5
q0 38 26 40q45 1 47 -34v-3q-1 -2 -2 -8.5t-2 -15.5t-3 -23z" />
    <glyph glyph-name="V" unicode="V" horiz-adv-x="622" 
d="M632 723q17 -9 17 -28q0 -25 -18 -41q-11 -11 -26 -61q-20 -68 -53 -139l-213 -450q-11 -11 -35 -11q-13 0 -23 5q-3 2 -60 168q-69 204 -138 359q-4 9 -28 42q-19 25 -19 43q0 15 12.5 29t26.5 14q26 0 55 -65q18 -40 53 -149q37 -118 58 -165l73 -183q77 148 207 422
q20 46 35 98q11 42 11 50q0 17 14 40q15 26 36 26q8 0 15 -4z" />
    <glyph glyph-name="W" unicode="W" horiz-adv-x="840" 
d="M863 647q-5 -5 -36 -117q-41 -150 -96 -295q-91 -241 -141 -240q-31 2 -37 8q-7 7 -16 45q-16 62 -34 112q-29 82 -44 200q-7 54 -18 195l-51 -82q-54 -92 -81 -160q-63 -162 -94 -251q-16 -49 -26 -54q-11 -7 -25 -7q-24 0 -35 14q-7 10 -7 19l2 16q1 17 1 27q0 8 -2 34
q-26 203 -48 331q-18 94 -31 144l-6 22t-4 16l-1 4q0 12 12 24.5t25 12.5t27 -10q16 -9 20 -67q14 -133 39 -277q7 -40 25 -172q11 34 29 82q34 92 68 153l104 182q50 86 57 112q4 16 34 16q19 0 26 -10t7 -33q0 -1 -1 -33t-1 -51q0 -90 13 -198q9 -79 29 -154
q11 -41 43 -135q27 39 50 89q64 132 125 347q14 50 31 131q10 51 18 65q11 17 38 14q31 -3 31 -27q0 -23 -19 -42z" />
    <glyph glyph-name="X" unicode="X" horiz-adv-x="545" 
d="M520 686q4 -10 -57 -87q-100 -125 -166 -216q135 -290 153 -305q33 -27 33 -40q0 -11 -14 -25q-7 -5 -13 -5q-16 0 -40 27q-18 19 -32 46q-68 129 -124 250l-1 -1l-2.5 -5t-3.5 -5l-128 -183q-93 -142 -89 -180q1 -15 -13 -31.5t-29 -16.5q-12 0 -21 13.5t-9 28.5t23 59
l30 59q13 26 67 107l147 216q-42 90 -46 97q-25 54 -51 93l-26 36q-16 23 -16 39q0 19 24 30q8 4 17 4q24 0 42 -36q3 -8 12 -30.5t14 -34.5q2 -4 67 -146q102 141 168 221q31 43 57 43q17 0 27 -22z" />
    <glyph glyph-name="Y" unicode="Y" horiz-adv-x="526" 
d="M568 680q0 -10 -18 -22q-21 -13 -22 -16q-24 -46 -269 -257q6 -46 3 -136q-5 -132 7 -228q0 -2 7 -21.5t7 -26.5q0 -15 -14 -24q-10 -5 -19 -5q-18 0 -29 14.5t-7 35.5q2 12 -4 59q-7 53 -15 271q-10 4 -26 17q-11 34 -25 85q-27 83 -64 142q-14 22 -38 33q-18 9 -18 24
q0 23 27 23q21 0 43 -13t34 -34q26 -46 80 -181l109 86q121 101 170 163l19 25q13 16 28 16q10 0 22 -10t12 -20z" />
    <glyph glyph-name="Z" unicode="Z" horiz-adv-x="690" 
d="M783 39q-9 0 -23 6q-12 4 -17 7q-15 4 -108 4q-151 0 -285 -16q-92 -13 -175 -29q-99 -19 -130 -32q-19 -8 -33 -8q-39 0 -39 35q0 9 5 16q68 105 254 363q91 116 196 230q-65 -8 -127 -20q-135 -26 -166 -54q-28 -25 -42 -25q-13 0 -25 16q-5 7 -5 13q0 22 69 64
q21 14 187 49q167 35 207 35q7 0 9 -2q24 -15 15 -44l-75 -66q-97 -91 -219 -252q-36 -47 -104 -148q-72 -104 -85 -132q72 12 281 40q129 13 276 13q148 0 162 -12q21 -14 21 -27q0 -24 -24 -24z" />
    <glyph glyph-name="bracketleft" unicode="[" horiz-adv-x="282" 
d="M280 -185q1 -3 -6 -8t-22.5 -12t-38.5 -15.5t-55 -19.5q-29 -10 -49 -19q-27 -10 -42 -10q-8 0 -12 4q-24 29 -24 154q0 188 53 551q9 63 9 113q0 14 -1 29.5t-2.5 27.5t-3.5 22.5t-3 16.5l-1 6q0 6 4 9q12 12 25 12q1 0 11 -1.5t23.5 -2.5t22.5 -1q18 1 57 16
q37 15 44 15t7 -8q0 -18 -59 -50q-19 -10 -65 -17q0 -54 -6 -108q-62 -513 -62 -639q0 -60 13 -80q2 -2 8 -2q14 0 70 13q60 12 83 12q19 0 22 -8z" />
    <glyph glyph-name="backslash" unicode="\" horiz-adv-x="318" 
d="M292 61q16 -31 16 -52q0 -24 -25 -24q-7 0 -12 1q-37 8 -203 528l-52 158q-20 62 -15 72q9 20 25 20q11 0 24 -7q16 -6 32 -67l77 -280q62 -210 133 -349z" />
    <glyph glyph-name="bracketright" unicode="]" horiz-adv-x="312" 
d="M250 684q0 -12 -9 -136q-41 -579 -41 -668q0 -2 4.5 -8.5t4.5 -12.5q0 -3 -2 -15q-4 -21 -80 -75q-74 -55 -101 -55q-14 0 -14 18q0 16 28 38l44 32q43 38 62 57q8 79 18 354q8 186 26 361q4 31 5 89q-28 -9 -114 -13q-28 -1 -28 19q0 27 20 30q30 -1 84 2q65 18 71 18
q16 0 20 -10q2 -6 2 -25z" />
    <glyph glyph-name="asciicircum" unicode="^" horiz-adv-x="330" 
d="M263 334q-20 0 -26 13q-12 25 -32 120l-17 76.5t-13 57t-5 21.5q-21 -41 -95 -217q-5 -12 -23 -12q-28 0 -28 26q0 12 7 26q7 13 78 172q47 107 59 112q6 2 10 2q23 0 40 -65q10 -50 26 -137q12 -55 31 -109q18 -49 18 -61q0 -25 -30 -25z" />
    <glyph glyph-name="underscore" unicode="_" horiz-adv-x="490" 
d="M500 -75v-47h-500v47h500z" />
    <glyph glyph-name="grave" unicode="`" horiz-adv-x="357" 
d="M325 474q0 -22 -19 -22q-2 0 -12 2q-23 7 -118 90q-98 84 -129 129q-5 8 -5 18q0 20 23 20q9 0 19 -3q7 -1 31 -30q47 -52 79 -82l43 -42q27 -27 47 -37l15 -1q10 0 18 -13.5t8 -28.5z" />
    <glyph glyph-name="a" unicode="a" horiz-adv-x="369" 
d="M287 5q-5 -5 -15 -4q-21 1 -27 31q-76 -50 -133 -50q-36 0 -57.5 21.5t-21.5 57.5q0 51 37 100q38 50 85 57q74 11 109 -94q16 39 16 91q0 69 -33 129q-23 41 -67 41q-28 0 -54 -15q-25 -13 -27 -26q1 -2 -1.5 -3.5t-6.5 -1.5q-27 0 -29 23q-1 25 38 47q41 23 85 23
q33 0 56 -14q89 -56 89 -201q0 -66 -20 -144q-15 -63 -23 -68zM230 85q-29 90 -62 84q-43 -7 -68 -43q-20 -29 -20 -61q0 -21 8.5 -28t25.5 -7q46 0 116 55z" />
    <glyph glyph-name="b" unicode="b" horiz-adv-x="381" 
d="M372 299q5 -12 5 -24q0 -62 -106 -168l-121 -108l-16 -20q-4 -6 -17 -4q-29 5 -29 32q0 8 1 11q-30 -2 -38 15q-6 16 1 141q6 117 12 160q-7 4 -16 27q-2 19 29 32q34 127 34 210q0 3 -4 23t-4 26q0 24 24 25q13 1 27 -21q13 -25 13 -59q0 -38 -10 -81q-23 -99 -25 -112
q192 2 240 -105zM154 351q-12 0 -32 -2q-9 -40 -20 -135q-1 -17 -1 -49q0 -75 9 -129q210 150 210 234q0 42 -66 65q-45 16 -100 16z" />
    <glyph glyph-name="c" unicode="c" horiz-adv-x="510" 
d="M547 183q-1 -7 -72 -52q-85 -53 -162 -86q-106 -45 -179 -45q-71 0 -106 44q-19 23 -19 59q0 83 86 190q83 102 152 113q6 1 17 1q34 0 34 -24q0 -15 -13 -31.5t-27 -16.5q-3 0 -16 2.5t-17 2.5q-5 0 -8 -1q-28 -8 -85 -83q-68 -88 -68 -144q0 -36 30 -55q19 -11 47 -11
q80 0 231 79l145 82q6 2 9 2q10 0 16.5 -8.5t4.5 -17.5z" />
    <glyph glyph-name="d" unicode="d" horiz-adv-x="519" 
d="M493 635q-6 -17 -24 -171q-20 -165 -24 -265q14 -2 19 -4q20 -8 23 -20q2 -10 2 -14q0 -17 -17 -25l-44 -15q6 -33 6 -59q0 -47 -21 -44q-30 5 -36 25l-9 43q-152 -100 -251 -100q-54 0 -81 36q-24 33 -24 75q0 86 88 174q85 84 157 84q52 0 86 -34q20 -20 52 -78
q45 372 40 393q-6 26 -6 42q0 28 17 26q22 -1 36.5 -15.5t14.5 -34.5q0 -11 -4 -19zM361 146q-5 39 -15 67q-22 70 -62 87q-13 5 -26 5q-60 0 -127 -76q-67 -74 -67 -136q0 -55 60 -55q41 0 112 37z" />
    <glyph glyph-name="e" unicode="e" horiz-adv-x="486" 
d="M477 219q15 -11 15 -27q0 -21 -23 -38l-114 -84q-113 -75 -182 -75q-64 0 -112 65q-43 61 -43 127q0 92 88 161q83 65 176 65q51 0 86 -23q4 -1 4 -7q0 -17 -50 -58q-43 -35 -92 -65q-69 -42 -151 -46q-3 -12 -3 -29q0 -44 27 -86q34 -55 84 -53t146 66q80 55 95 75
q21 37 34 37q7 0 15 -5zM295 365q-55 0 -110 -28q-48 -24 -82 -67q18 2 36 6q82 21 156 89z" />
    <glyph glyph-name="f" unicode="f" horiz-adv-x="390" 
d="M427 661q-5 -18 -21 -18q-8 0 -21 6l-15 8q-22 8 -40 8q-68 0 -102 -99q-31 -86 -29 -231v-23q1 -9 1 -23q43 7 104 7q39 0 47 5q8 6 17 6q14 0 24 -9.5t10 -23.5q-1 -28 -46 -30q-45 1 -155 -7q0 -163 -14 -264q-8 -60 -34 -183q-17 -81 -14 -88q3 -14 -6.5 -27
t-26.5 -13q-11 0 -20 4q-17 8 -17 28q0 16 11 29q7 7 22 76q20 79 30 171q14 121 14 255q-24 -5 -34 -12t-25 -28q-11 -15 -26 -15q-13 0 -23.5 10.5t-10.5 23.5q0 11 10 21q41 41 108 54v27q1 13 1 30q0 377 189 377q9 0 29 -2q34 -5 49.5 -17.5t13.5 -32.5z" />
    <glyph glyph-name="g" unicode="g" horiz-adv-x="375" 
d="M129 12q-39 0 -64.5 32.5t-25.5 95.5q0 56 18 122t59 120t93 54q30 0 45 -17q7 12 24 12q6 0 11.5 -4.5t5.5 -11.5q0 -17 4 -191t5 -312q40 16 83 24q17 3 28 3q43 0 43 -33q0 -12 -9 -23t-31 -11q-18 0 -27 17q-38 -7 -86 -27v-63q0 -35 -0.5 -58.5t-4 -62t-9 -65
t-17.5 -58t-28.5 -50.5t-42 -32t-57.5 -13q-60 0 -87.5 37t-27.5 97q0 83 63 162.5t159 131.5q0 20 -1 88.5t-2 126.5q-46 -91 -121 -91zM226 389q-50 0 -90 -80t-40 -165q0 -77 37 -77q68 0 116 117v207q-6 -2 -23 -2zM87 -397q0 -45 14.5 -67.5t49.5 -22.5q28 0 48.5 22
t30.5 51t15.5 74.5t6.5 75t1 69.5v29q-73 -44 -119.5 -106t-46.5 -125z" />
    <glyph glyph-name="h" unicode="h" horiz-adv-x="474" 
d="M436 69q0 -7 0.5 -18t1 -20t0.5 -10q0 -21 -26 -23q-25 -1 -31 27q-3 14 0 46q3 37 3 90q0 160 -29 177q-7 4 -16 4q-42 0 -118 -69q-74 -66 -95 -113q-33 -68 -25 -142q6 -61 -37 -61q-16 0 -25 9t-9 24t13 42q4 8 7 112q5 147 19 280l16 189q3 32 10 47.5t18 14.5
q35 -2 35 -36q0 -12 -8 -63q-8 -45 -14 -98q-12 -139 -14 -162q-3 -31 -5 -95q143 176 239 176q15 0 27 -4q66 -23 66 -227q0 -43 -3 -97z" />
    <glyph glyph-name="i" unicode="i" horiz-adv-x="234" 
d="M154 371v-6q-25 -224 -25 -256q0 -19 3.5 -35.5t6.5 -25.5t3 -10q0 -33 -27 -33q-11 0 -16.5 2t-12.5 19.5t-7 52.5q0 39 10 216q5 80 9.5 97t23.5 17q14 0 23 -10.5t9 -27.5zM138 567q-31 0 -31 40q0 20 5.5 27.5t18.5 7.5q30 0 30 -30q0 -45 -23 -45z" />
    <glyph glyph-name="j" unicode="j" horiz-adv-x="261" 
d="M196 675q5 -44 -20 -44q-29 0 -34 38q-1 21 2.5 27t15.5 8q33 5 36 -29zM197 -228q-45 -150 -145 -226q-84 -63 -185 -63q-83 0 -134 39q-81 62 -81 161q0 56 19 81q4 6 9 4q6 -2 6 -11q0 -1 -0.5 -9.5t-1 -20.5t-0.5 -20q0 -149 151 -173q20 -2 30 -2q97 0 180 86
q82 85 100 203q9 53 9 125q0 107 -18 248q-4 23 -10.5 67t-9.5 64q0 4 -5.5 16t-5.5 19q1 19 27 19q14 0 25 -11q15 -13 36 -149q23 -152 23 -276q0 -110 -19 -171z" />
    <glyph glyph-name="k" unicode="k" horiz-adv-x="588" 
d="M650 76q2 -12 -9 -22.5t-34 -18.5q-21 -10 -40 -17q-32 -12 -81 -14q-164 -4 -381 183q-13 -60 -11 -155q0 -17 6 -44q7 -25 7 -36q0 -26 -38 -26q-31 0 -27 151q6 192 45 387q33 167 50 175q7 4 16 4q14 0 22.5 -12t8.5 -27q0 -3 -14 -42q-18 -42 -32 -120l-23 -135
l160 48q169 48 225 54q10 1 15 -4.5t5 -16.5q0 -14 -13 -23l-115 -27q-136 -32 -275 -90q24 -27 59 -54q82 -64 185 -110q73 -32 131 -32q40 0 72 15q20 10 28 23q7 13 28 13q27 0 30 -27z" />
    <glyph glyph-name="l" unicode="l" horiz-adv-x="213" 
d="M177 713q8 -10 8 -27q0 -16 -12 -95q-17 -123 -30 -226q-17 -144 -17 -270q0 -49 3 -88q5 -65 -24 -65q-11 0 -24 9q-12 7 -12 82q0 113 33 456l14 158q6 61 14 69q13 12 22 12q12 0 25 -15z" />
    <glyph glyph-name="m" unicode="m" horiz-adv-x="630" 
d="M117 69v-52q-2 -26 -8.5 -34t-21.5 -8q-21 0 -27 8.5t-6 43.5q0 39 16 202q1 11 1 175q0 33 31 33q16 0 24 -57t5 -105q6 17 16 42t26 58.5t36 56t38 22.5t31 -13.5t20.5 -36t13 -52.5t7 -63t2 -67t-0.5 -65q64 143 114.5 219.5t80.5 76.5q18 0 36.5 -20.5t23.5 -39.5
q11 -46 11 -214q0 -66 -1 -83l10 -51q0 -24 -29 -24q-19 0 -26 24t-7 100l3 130q0 116 -25 116q-10 0 -53 -72.5t-71 -140.5q-25 -62 -51 -159q-12 -46 -28 -46q-13 0 -22.5 10t-11.5 22q0 118 -6.5 206.5t-13 122t-10.5 33.5q-21 0 -65 -105t-62 -193z" />
    <glyph glyph-name="n" unicode="n" horiz-adv-x="384" 
d="M277 436q32 0 44.5 -49.5t12.5 -178.5v-43q0 -131 3 -141q17 -36 17 -49q0 -25 -23 -25q-16 0 -30.5 13.5t-14.5 31.5l3 23v2q0 2 -0.5 7t-1.5 12t-1.5 17t-1.5 22q-5 53 -5 102l1 82q0 104 -13 104q-21 0 -83.5 -132t-80.5 -213q-8 -36 -32 -36q-28 0 -28 53l1 16
q1 15 3 41t4 58.5t4 68.5t4 69.5t3 63.5t1 49q0 28 27 28q25 0 26.5 -69.5t-9.5 -176.5q27 91 84.5 170.5t85.5 79.5z" />
    <glyph glyph-name="o" unicode="o" horiz-adv-x="366" 
d="M342 264q2 -22 2 -34q0 -99 -77 -171q-69 -63 -141 -63q-21 0 -37 8q-29 15 -50 56t-21 88q0 40 17 79q77 173 166 180q38 3 78 -28q53 -39 63 -115zM281 302q-11 23 -23 35q-17 14 -47 18l1 -5q-26 -6 -48 -24q-55 -44 -86 -138q-6 -16 -6 -39q0 -35 14 -65
q20 -36 51 -36q33 0 74 32q39 28 54 59q29 60 29 103q0 33 -13 60z" />
    <glyph glyph-name="p" unicode="p" horiz-adv-x="348" 
d="M336 244q4 -38 -44 -100q-34 -45 -92 -97q-50 -43 -60 -45q-11 -3 -24 6t-16 19q-5 -40 -13 -226q-3 -175 4 -188q5 -12 5 -19q0 -14 -9.5 -22.5t-20.5 -5.5q-29 8 -29 41q0 11 4 18q1 1 1 10l-3 59q-3 56 -3 110q0 29 2 87q6 128 17 240l29 220q-28 10 -25 34
q5 18 32 30q21 10 39 10q63 -2 125 -47q74 -56 81 -134zM281 236q8 38 -38 84q-47 47 -92 50q-17 -86 -25 -136q-9 -57 -24 -184q44 22 80 51q84 66 99 135z" />
    <glyph glyph-name="q" unicode="q" horiz-adv-x="320" 
d="M202 -428q-24 76 -24 277q0 115 29 280q-86 -117 -130 -117q-38 0 -38 78q0 56 20 136q23 83 68 149q44 63 73 67q14 3 36 -11q20 -13 19 -25q-3 -21 -18 -21h-12q-46 0 -96 -113q-43 -99 -43 -156q0 -20 4 -32q2 -3 4 -3q14 0 70 75q52 72 74 119q6 11 6 24q0 4 -1 13.5
t-1 11.5q0 19 29 19q21 0 30 -15q3 -4 3 -11q0 -8 -17 -62q-2 -5 -9.5 -28t-13.5 -43q-10 -39 -24 -138q-16 -116 -16 -201q2 -172 10 -224q6 -34 17 -49q7 -9 9 -21t-3.5 -21.5t-18.5 -9.5q-30 0 -38 33q-2 13 2 19z" />
    <glyph glyph-name="r" unicode="r" horiz-adv-x="323" 
d="M112 54q-5 -57 -9 -61q-9 -11 -22 -11q-35 0 -35 40q0 5 7.5 69t8.5 89q2 50 2 68q0 41 -5 80.5t-10 59t-7 19.5q1 9 11.5 15.5t18.5 6.5q20 0 29.5 -26t12.5 -90q79 119 187 119q60 0 60 -34q0 -9 -7.5 -17t-19.5 -8q-11 0 -26 4.5t-16 4.5q-83 0 -176 -133q1 -22 1 -73
q0 -72 -5 -122z" />
    <glyph glyph-name="s" unicode="s" horiz-adv-x="342" 
d="M323 476q4 -22 -21 -22q-9 0 -23 6t-15 6q-24 -2 -45 -20l-79 -73q-37 -34 -55 -74t-14 -63q8 -41 45 -62l86 -33q67 -26 80 -33q34 -21 39 -60q3 -27 -84 -81q-82 -51 -96 -49q-36 2 -36 27q0 7 6 15l80 38q74 38 71 57q-3 17 -63 37q-81 25 -112 43q-62 35 -68 93
q-9 77 64 160q27 31 127 115q29 25 64 10q9 -5 29 -17q19 -13 20 -20z" />
    <glyph glyph-name="t" unicode="t" horiz-adv-x="396" 
d="M453 426q1 -10 -5 -15t-19 -5q-4 0 -18 1.5t-16 1.5q-70 0 -167 -22q-22 -179 -22 -306q0 -34 1 -49l1 -6q2 -6 3 -13t1 -11q0 -25 -28 -24q-18 2 -28 20q-8 18 -7 35q0 46 11 209q1 10 16 134q-27 -7 -85 -28q-22 -10 -47 -29q-16 -12 -22 -10q-31 7 -31 29q0 26 63 50
q42 17 130 43q8 41 24 192q2 6 0 20q-2 24 -2 25q0 39 23 39q31 0 31 -72q0 -23 -3 -54q-6 -37 -21 -141q82 16 158 12q30 -2 37 -4q20 -4 22 -22z" />
    <glyph glyph-name="u" unicode="u" horiz-adv-x="342" 
d="M312 347q0 -45 -6 -96t-21 -110.5t-46.5 -98t-74.5 -38.5q-27 0 -47 10.5t-33.5 34.5t-22 53.5t-12.5 78t-5.5 97t-1.5 121.5q0 32 20 32q35 0 35 -38l-1 -42q0 -49 0.5 -74t2 -65.5t6 -61.5t12 -44t19.5 -33t29 -10q14 0 25 7.5t19.5 22.5t15 30.5t11 41l7.5 42.5
t5 45.5t2.5 41t1.5 38t1 27.5q1 36 32 36q12 0 19.5 -14.5t7.5 -33.5z" />
    <glyph glyph-name="v" unicode="v" horiz-adv-x="441" 
d="M492 467q0 -45 -55 -91q-30 -25 -125 -166q-89 -131 -105 -164q-23 -54 -52 -54q-7 0 -14 4q-13 8 -21 30q-2 9 -11 38q-25 105 -52 203q-24 67 -24 79q0 19 19 19q16 0 33 -23t26 -57q5 -34 27 -130q2 -7 8.5 -31t10.5 -41l121 173l145 197q21 50 43 50q11 0 18.5 -11.5
t7.5 -24.5z" />
    <glyph glyph-name="w" unicode="w" horiz-adv-x="708" 
d="M732 423q18 -9 18 -26q0 -24 -25 -46q-25 -23 -164 -218l-64 -87q-40 -54 -48 -55q-11 -2 -21 -1q-15 1 -20 9q-18 31 -60 213q-6 28 -26 113l-49 -57q-53 -67 -76 -112l-42 -102q-16 -32 -31 -47.5t-29 -14.5q-25 2 -30 57q-1 50 -5 157q-1 37 -8 107q-3 36 -1 46
q6 20 26 20q13 0 21 -7q13 -10 14 -26l2 -45q0 -47 3 -140l3 -34q4 8 8.5 17.5t10.5 21t9 17.5q34 63 68 102q14 16 83 98q7 12 33 12q17 0 27 -7q6 -4 16 -52q5 -23 19 -92q18 -80 47 -170l235 306q15 48 38 48q6 0 18 -5z" />
    <glyph glyph-name="x" unicode="x" horiz-adv-x="270" 
d="M251 409q1 -3 -84 -199l54 -145q23 -54 22 -62q2 -9 -8 -15t-24 -3q-24 4 -30 55q0 5 -40 109q-83 -198 -82 -201q2 -17 -3 -31q-7 -25 -34 -22q-12 0 -20 12t-8 27q0 14 6 18t114 267l-57 145q-6 17 -6 28q0 21 22 21q23 0 67 -128l1 -2q63 152 74 157q6 2 10 2
q21 0 26 -33z" />
    <glyph glyph-name="y" unicode="y" horiz-adv-x="356" 
d="M348 -106q-18 -4 -27 -7v-88q0 -35 -0.5 -58.5t-4 -62t-9 -65t-17.5 -58t-28.5 -50.5t-42 -32t-57.5 -13q-60 0 -87.5 37t-27.5 97q0 89 62 183.5t159 139.5q-2 156 -3 241q-15 -67 -45 -109.5t-74 -42.5q-48 0 -77.5 68t-29.5 195q0 68 7 141q2 20 8.5 26.5t19.5 6.5
q27 0 27 -35q0 -5 -4.5 -65t-4.5 -103q0 -76 13.5 -127.5t42.5 -51.5q72 0 117 293v14q0 37 29 37q6 0 11.5 -4.5t5.5 -11.5q0 -16 4 -170.5t5 -282.5q16 4 24 5q16 3 28 3q43 0 43 -33q0 -12 -9 -23t-31 -11q-18 0 -27 17zM103 -397q0 -45 14.5 -67.5t49.5 -22.5
q28 0 48.5 22t30.5 51t15.5 74.5t6.5 75t1 69.5v60q-73 -41 -119.5 -117.5t-46.5 -144.5z" />
    <glyph glyph-name="z" unicode="z" horiz-adv-x="462" 
d="M566 98q-5 -3 -23 -5h-27q-31 -3 -212 -48q-171 -43 -243 -43q-17 0 -49 22q-6 4 -6 10q0 9 58 58q91 77 157 151q56 62 56 85q0 3 -2 5q-6 6 -54 3q-40 -3 -62 -8q-1 -1 -43 -13q-27 -8 -39 -8q-24 0 -24 19t43 35q32 13 77 19q25 4 60 4q43 0 76.5 -6t35.5 -14
q2 -6 2 -11q0 -41 -62 -115q-28 -33 -105 -107q-68 -65 -68 -69t109 12q97 15 156 27l104 24q57 14 64 11t16 -14t9 -18q0 -5 -4 -6z" />
    <glyph glyph-name="braceleft" unicode="{" horiz-adv-x="420" 
d="M529 727q-6 -22 -20 -22q-8 0 -22 8l-15 10q-35 13 -64 13q-59 0 -86.5 -63.5t-30.5 -201.5q-3 -114 -66 -158q-45 -30 -161 -39q98 -32 125 -45q43 -22 81 -71q57 -74 57 -174q0 -10 -1 -17v-15q0 -45 10 -69q13 -34 54 -61q13 -9 37 -4q26 5 35 -2q17 -12 17 -33
q0 -29 -21 -33q-19 -6 -38 -6q-66 0 -106 63q-39 60 -36 152q1 65 -7 104q-10 40 -45 82q-45 55 -136 82q-54 11 -162 35q-20 5 -28.5 12t-6.5 17q7 33 44 33q12 0 39 -6q28 -5 38 -5q128 1 178 39q45 35 46 118q5 180 52 253q39 59 119 59q19 0 57 -5q72 -11 63 -50z" />
    <glyph glyph-name="bar" unicode="|" horiz-adv-x="201" 
d="M113 5q-23 0 -27 15q-28 99 -22 227q9 183 19 341q8 135 7 137q-1 12 13.5 26.5t31.5 15.5q25 1 25 -21q0 -12 -14 -29q-12 -15 -26 -422q-3 -89 11 -183q13 -81 15 -83q-2 -24 -33 -24z" />
    <glyph glyph-name="braceright" unicode="}" horiz-adv-x="360" 
d="M392 273q-13 -10 -29 -12q-19 -3 -60 -24q-18 -9 -36 -38.5t-23 -60.5q-10 -49 -11 -118q-1 -74 -5 -101q-12 -103 -31 -148q-26 -62 -71 -62q-32 0 -72 25q-49 30 -49 50q0 5 5 15q9 11 20 11q15 0 36 -25q22 -25 40 -25q50 0 70 176q2 17 4 100q1 75 12.5 128.5
t44.5 92.5q-51 19 -71 38q-27 27 -34 75q-2 15 2 75q5 88 5 122q0 154 -51 154q-6 0 -20 -5t-18 -5q-27 0 -31 30q-1 10 6 17.5t19 6.5q15 2 70 4q76 -6 76 -220q0 -34 -1 -60v-55q0 -72 11 -86q41 -50 95 -50q11 0 20 3q14 5 28 16q11 10 22 10q7 0 14 -3q24 -8 24 -31
q0 -12 -11 -20z" />
    <glyph glyph-name="asciitilde" unicode="~" 
d="M562 271q0 -17 -15 -19q-5 -1 -42 -22q-101 -62 -113 -68q-76 -40 -118 -40q-35 0 -47 35q-4 11 -7 64q-3 35 -17 35q-19 0 -56 -33q-36 -32 -38 -47q-2 -14 -18 -14q-28 0 -28 23q0 34 58 77t94 39q18 -1 33 -23q21 -28 20 -74q-1 -31 10 -34q23 -5 120 46q93 48 111 69
q17 18 29 18q9 0 16.5 -10t7.5 -22z" />
    <glyph glyph-name="nbspace" unicode="&#xa0;" horiz-adv-x="498" 
 />
    <glyph glyph-name="exclamdown" unicode="&#xa1;" horiz-adv-x="309" 
d="M192 625q3 -31 -10 -35q-39 -4 -42 29q-4 45 21 48q11 2 20.5 -12t10.5 -30zM202 352l-7 -402q3 -56 1 -133q-12 -15 -29 -15q-12 0 -20 11q-20 23 -9 272q2 43 12 159q7 85 5 100q-4 14 -13 54q0 15 7.5 25t17.5 6q36 -5 35 -77z" />
    <glyph glyph-name="cent" unicode="&#xa2;" 
d="M545 232q0 -20 -24 -25q-15 -3 -63 -31q-56 -33 -87 -46q-37 -16 -94 -35q-24 -129 -24 -157q0 -5 1.5 -10t2.5 -8l1 -4q0 -9 -15.5 -20t-30.5 -11q-29 0 -29 24q0 9 7 30q15 47 34 147q-52 -4 -81 20q-35 28 -33 93q2 52 50 114q44 58 108 104q15 123 45 248
q12 50 36 50q12 0 24.5 -14.5t9.5 -23.5q-16 -53 -53 -220q52 27 86 27q15 0 29.5 -9t14.5 -21q0 -11 -23 -11q-13 0 -20 1q-28 4 -98 -47q-6 -60 -35 -255q54 16 124 55q57 32 70 47q17 20 32 20q12 0 23.5 -10t11.5 -22zM260 347q-100 -94 -100 -161q0 -22 13 -36
q16 -22 59 -19q12 73 28 216z" />
    <glyph glyph-name="sterling" unicode="&#xa3;" 
d="M589 24q0 -16 -16 -20q-25 -12 -75 -26q-14 -2 -21 -2q-37 0 -65 21q-18 13 -45 45q-25 31 -41 42q-37 25 -76 25q-30 0 -46 -16q-37 -30 -102 -100q-9 -11 -24 -11q-30 0 -30 22q0 23 59 79l79 70q34 34 40 146q-26 0 -90 -3q-17 -1 -30 9.5t-13 22.5q0 20 25 21
q20 -1 108 1q2 190 54 270q40 58 114 58q23 0 50 -4q34 -5 49.5 -17.5t13.5 -32.5q-4 -19 -20 -19q-9 0 -22 7l-15 8q-26 10 -49 10q-123 0 -122 -279q30 1 90 1q39 2 46 6q7 6 18 6q13 0 23 -9.5t10 -23.5q-2 -19 -11 -20q-17 0 -25 -1q-78 -3 -109 -7q-34 -2 -40 -2
q-2 -96 -22 -137q88 -5 146 -86q39 -54 79 -54q24 0 55 17q13 16 24 16q10 0 18 -10.5t8 -22.5z" />
    <glyph glyph-name="currency" unicode="&#xa4;" horiz-adv-x="420" 
d="M371 159q1 -5 -8 -9.5t-22 -4.5q-43 0 -52 42q-2 8 -22 38q-64 -64 -125 -64q-7 0 -19 2q-8 -30 -50 -28q-28 1 -28 27q0 16 13 22l9 9q-18 20 -18 52q0 85 77 195l-44 64q-9 14 -9 22q0 15 30 15q21 0 59 -53q62 77 76 77q13 0 15 -39q13 0 50 -15q23 27 37 27
q21 0 25 -25q1 -1 -25 -37q19 -31 19 -69q0 -71 -55 -141l38 -60q7 -7 19 -23q11 -16 10 -24zM270 469q-13 8 -26 8q-28 0 -56 -30q16 -27 31 -48q35 50 51 70zM301 424l-53 -70l31 -49q28 40 28 81q0 19 -6 38zM185 352l-31 47q-50 -83 -50 -138q0 -7 2 -17zM243 263
l-29 45l-70 -96q42 -2 99 51z" />
    <glyph glyph-name="yen" unicode="&#xa5;" 
d="M597 653q0 -12 -16 -29q-6 -7 -19.5 -9.5t-15.5 -4.5q-20 -16 -100 -126l-99 -140q-20 -26 -20 -45q0 -9 4 -36l139 59q60 22 73 22q23 0 23 -24q0 -14 -18 -24.5t-40 -10.5q-34 0 -174 -66q1 -7 1 -37q45 16 68 22q74 20 104 25q12 2 20.5 4.5t12 3.5t7 1.5t7.5 0.5
q38 0 30 -33q-2 -11 -21 -26q-19 -14 -33 -14q-16 0 -17 18q-1 6 -9 6q-14 0 -128 -39q-10 -3 -39 -17q2 -45 14 -125q8 -14 8 -24q0 -21 -22 -25q-19 -3 -32 9.5t-10 31.5q1 4 -8 45q-8 35 -11 58q-7 -4 -21.5 -11.5t-20.5 -11.5q-30 -18 -107 -57q-8 -2 -11 -2
q-12 0 -18 10.5t-4 22.5q2 14 29 29q66 36 151 73l-1 32l-113 -53q-47 -22 -55 -31q-11 -11 -23 -11q-16 0 -25 18q-3 4 -3 9q0 25 75 57l142 60q-3 39 -9 48l-108 186q-8 16 -40 62q-17 26 -17 39q0 26 20 26q27 0 66 -56q23 -33 58 -115q14 -33 24.5 -49.5t16.5 -14.5
q13 4 194 220q29 29 59 65q6 30 31 30q10 0 20.5 -8.5t10.5 -17.5z" />
    <glyph glyph-name="brokenbar" unicode="&#xa6;" horiz-adv-x="201" 
d="M135 731q2 -6 2 -10q0 -5 -6 -47q-8 -55 -11 -100q-6 -102 -3 -119q0 -1 6.5 -9t6.5 -14q0 -13 -11 -28t-23 -15q-14 0 -21 18q-7 17 -7 113q0 150 17 216q5 21 23 21q15 0 27 -26zM133 293q-21 -192 -22 -224q-1 -14 -0.5 -25.5t2.5 -21t4 -15.5t3.5 -10t1.5 -5
q0 -7 -3 -17q-5 -14 -22 -14q-13 0 -23 9q-11 9 -11 59q0 12 10 199q3 68 4 71q5 33 25 35q15 0 24 -11.5t7 -29.5z" />
    <glyph glyph-name="section" unicode="&#xa7;" horiz-adv-x="420" 
d="M359 330q29 -47 29 -96q0 -71 -65 -144q-13 -13 -19 -18q13 -35 13 -79q0 -105 -86 -155q-54 -31 -110 -29q-30 1 -36 3q-11 5 -9 23q0 31 39 31q5 0 19 -2q32 -8 76 24q54 40 54 111q0 30 -8 57q-23 11 -17 32q-23 30 -83 64q-68 39 -90 60q-42 41 -42 101q0 13 1 20
q7 85 109 138q-24 48 -24 85q0 61 62 114q56 47 108 47q14 0 26 -5q26 -14 26 -30q0 -11 -13 -19t-23 -6q-27 6 -71 -14q-58 -27 -58 -84q0 -35 17 -67q32 5 38 -21q2 -14 -3 -22q1 0 73 -53q46 -32 67 -66zM334 248q-8 45 -37 74q-17 16 -63 45q-45 29 -68 55
q-86 -33 -86 -102q0 -22 7 -43q12 -38 81 -76q81 -47 108 -78q2 0 3 1q13 4 32 26q26 32 26 73q0 11 -3 25z" />
    <glyph glyph-name="dieresis" unicode="&#xa8;" horiz-adv-x="371" 
d="M349 621q-2 -9 -10 -24q-23 -48 -28 -80q-2 -12 -8 -22q-11 -9 -19 -9q-18 0 -18 34q0 31 17 68q8 18 11 28l8 25q7 13 21 13q12 0 19.5 -9.5t6.5 -23.5zM198 625q-2 -4 -9 -25q-9 -26 -9 -67q-2 -19 -6 -27q-7 -10 -26 -7q-14 3 -14 41q0 24 4 49q1 4 11 56q8 20 21 20
q6 0 13 -3q22 -12 15 -37z" />
    <glyph glyph-name="copyright" unicode="&#xa9;" horiz-adv-x="714" 
d="M653 411q2 -89 -54 -191q-56 -103 -140 -168q-93 -72 -187 -72q-72 0 -131 58q-75 72 -75 196q0 116 81 220q47 61 97 92l18 18q9 10 30 18q22 8 33 13q36 17 57 25q30 11 61 13q15 0 26.5 -5t17.5 -11t8 -6q43 -6 84 -40q71 -56 74 -160zM608 419q-4 134 -155 142
q-73 3 -129 -27q-62 -33 -62 -90q0 -14 3 -27q6 -25 6 -24q0 -9 -8 -9q-20 -3 -34 23q-11 24 -11 49q-18 -16 -27 -25q-31 -36 -50 -78q-27 -59 -27 -116q0 -109 60 -164q46 -45 107 -43q119 5 226 136q106 128 101 253zM461 276q7 -8 7 -17q0 -11 -19 -27l-46 -36
q-41 -33 -93 -33q-40 0 -61 31q-13 17 -13 49q0 59 37 114q41 60 95 60q7 0 17 -2q1 0 7 18q7 19 23 19q30 -2 30 -36q0 -5 -2 -13l-5 -56q-3 -31 -29 -33q-23 -2 -29 23q-4 24 -10 24q-20 2 -48 -25q-36 -35 -38 -92q-2 -30 25 -30q23 0 60 21q32 19 44 33q19 22 27 22
q10 0 21 -14z" />
    <glyph glyph-name="ordfeminine" unicode="&#xaa;" horiz-adv-x="402" 
d="M305 424q-6 -6 -16 -4q-19 1 -26 23q-65 -38 -116 -38q-33 0 -52.5 18.5t-19.5 47.5q0 41 33 82q35 42 78 46q65 8 96 -70q11 31 11 61q0 50 -27 87q-18 25 -49 25q-27 0 -52 -15t-24 -24t-12 -9q-24 0 -28 19q-5 24 36 48q40 25 85 25q20 0 35 -6q86 -36 86 -149
q0 -79 -38 -167zM341 360q18 -8 18 -20q0 -11 -15.5 -21t-29.5 -10q-7 0 -14 6l-8 6q-55 12 -185 -6q-27 -3 -34 0q-25 10 -25 25q0 18 23 23q43 8 121 8q119 0 149 -11zM246 490q-11 34 -23 50t-25 14q-35 -6 -58 -33q-18 -24 -18 -48t28 -24q38 0 96 41z" />
    <glyph glyph-name="guillemotleft" unicode="&#xab;" horiz-adv-x="540" 
d="M500 221q7 -4 7 -18q0 -28 -18 -28q-9 0 -40 22q-39 27 -75 43q-87 38 -90 39q-43 22 -43 42q0 7 3 11q4 9 83 36q123 41 128 43q7 3 15 3q19 0 19 -23q0 -21 -11 -24q-80 -19 -160 -51q18 -10 103 -50q60 -29 79 -45zM289 221q7 -4 7 -18q0 -28 -18 -28q-9 0 -40 22
q-39 27 -75 43q-87 38 -90 39q-43 22 -43 42q0 7 3 11q4 9 83 36q123 41 128 43q8 3 15 3q19 0 19 -23q0 -21 -11 -24q-80 -19 -160 -51q18 -10 103 -50q60 -29 79 -45z" />
    <glyph glyph-name="logicalnot" unicode="&#xac;" horiz-adv-x="1395" 
d="M1379 342q0 -8 -11 -24q0 -8 -14 -97q23 -5 23 -18q0 -29 -30 -30l-9 -35q-3 -11 -19 -11q-25 0 -25 40q-20 -1 -96 -6l-149 -11q-13 -11 -21 -11q-4 0 -7.5 0.5t-6 1.5t-4.5 1.5t-3 1.5l-2 2h-1q-1 0 -89 -8q-22 -2 -45 -4t-32 -3t-10 -1q1 0 -2.5 -6t-10 -12.5
t-14.5 -6.5q-17 0 -24 10l-7 10q-24 -1 -86 -9q-53 -7 -61 -7q1 0 -7 -15q-8 -14 -24 -14q-9 0 -16.5 7.5t-7.5 17.5q-42 -5 -163 -18q1 0 -2.5 -6t-10 -12.5t-13.5 -6.5q-20 -2 -30 20q-58 -4 -140 -16q-2 -17 -8 -27q-9 -14 -22 -13q-19 3 -23 18q-4 14 -3 15
q-23 0 -82 -13q-16 -4 -24 8t-8 38q0 4 0.5 10t1 17.5t0.5 20.5q2 50 2 60q0 19 1 26l1 8q-39 10 -36 31q0 17 22 17q3 0 14.5 -3t17.5 -3q21 0 72 6q53 6 57 6q1 0 7 5.5t8 5.5q20 0 23 -7q1 0 83 11q21 3 42.5 6t29.5 4t9 1q2 0 8 7.5t11 7.5q25 0 27 -8l177 18q5 5 17 11
q9 1 17.5 -3t10.5 -4q8 0 78 3l74 3q1 0 8 6.5t16 6.5q15 0 21 -11l170 7l6 8q8 8 19 8q17 0 25 -17l230 2l8 8q10 8 24 8l22 -14q16 0 16 -19zM574 153l31 139q-9 -1 -23.5 -2.5t-37 -4t-41.5 -4.5l-2 -1q-2 0 -7.5 -0.5t-12.5 -1.5t-18 -2.5t-23 -2.5q-9 -44 -15 -75.5
t-8.5 -46.5t-1.5 -15q8 0 80 8q69 9 79 9zM1020 315l-161 -10l-22 -125l166 16q17 113 17 119zM159 108l22 135q-9 -1 -51 -6q-30 -3 -45 -3l-6 -116q5 -1 19 -5q9 -6 12 -12q49 4 49 7z" />
    <glyph glyph-name="minus" unicode="&#xad;" 
d="M554 275q0 -14 -17 -20q-11 -4 -53 -4q-128 0 -216 -19q-100 -20 -118 -20q-29 0 -32 15q-8 35 48 48q37 10 136 17q123 9 182 9q70 0 70 -26z" />
    <glyph glyph-name="minus" unicode="&#x2212;" 
d="M554 275q0 -14 -17 -20q-11 -4 -53 -4q-128 0 -216 -19q-100 -20 -118 -20q-29 0 -32 15q-8 35 48 48q37 10 136 17q123 9 182 9q70 0 70 -26z" />
    <glyph glyph-name="registered" unicode="&#xae;" horiz-adv-x="747" 
d="M690 320q0 -96 -80 -181q-67 -70 -173 -117q-98 -41 -166 -40q-126 2 -179 115q-31 64 -32 143q-1 100 60 194q52 80 136 135q78 50 131 49q30 -2 42 -14q5 -5 13 -10q118 -2 186 -84q63 -77 62 -190zM641 340q-11 170 -143 198q-38 9 -45 4l-2 -2q-7 -6 -15 -1l-1 1
q-1 1 -9 1q-54 0 -74 -15q-4 -3 -3 -6q6 -12 3 -22q-5 -11 -17 -12q-13 -1 -30 19l-14 20q-9 1 -50 -31q-51 -40 -84 -93q-46 -71 -47 -152q-3 -108 47 -167q40 -49 112 -54q52 -3 138 34q102 44 162 107q78 79 72 171zM511 208q1 -9 -8.5 -14.5t-17.5 -4.5q-11 7 -42 18
q-7 1 -87 1q-9 0 -20.5 1.5t-20 3t-9.5 1.5q-8 0 -12 -28q0 -6 -8 -11t-16 -4q-22 1 -24 21l6 96v57q0 27 6.5 35t17.5 5l11 -2q6 6 22 17q25 19 57 19q61 -1 61 -55q0 -30 -22 -55q-12 -15 -40 -35q-22 -16 -22 -19q2 -6 50 -7q57 -3 77 -8q1 0 7 -2t8 -2.5t7 -2.5t7 -4
l5 -5t4.5 -7t2.5 -9zM381 363q0 16 -16 16q-17 0 -34 -16q-13 -13 -19 -43v-27q13 4 40 27q29 27 29 43z" />
    <glyph glyph-name="overscore" unicode="&#xaf;" horiz-adv-x="360" 
d="M332 529q-18 -9 -91 -18q-74 -9 -136 -9q-43 0 -62 4.5t-19 21.5q0 14 24 28q4 4 34 1q41 -3 105 -1q72 3 92 9l9 7q8 8 15 8q14 0 29 -10t15 -21t-15 -20z" />
    <glyph glyph-name="overscore" unicode="&#x2c9;" horiz-adv-x="360" 
d="M332 529q-18 -9 -91 -18q-74 -9 -136 -9q-43 0 -62 4.5t-19 21.5q0 14 24 28q4 4 34 1q41 -3 105 -1q72 3 92 9l9 7q8 8 15 8q14 0 29 -10t15 -21t-15 -20z" />
    <glyph glyph-name="degree" unicode="&#xb0;" horiz-adv-x="285" 
d="M242 615q2 -14 2 -20q0 -58 -62 -117q-38 -36 -75 -36q-23 0 -40 13q-22 14 -22 45q0 50 40 112q15 23 43 56q27 30 36 30q11 0 16 -23q14 -1 27 -8q27 -16 35 -52zM168 629q-28 0 -59 -64q-16 -33 -16 -56q0 -28 28 -18q23 7 48 34q28 29 28 59q0 16 -8.5 30.5
t-20.5 14.5z" />
    <glyph glyph-name="plusminus" unicode="&#xb1;" 
d="M562 436q1 -9 -7.5 -17t-22.5 -8q-8 0 -12 1q-16 6 -115 -20l-90 -28l3 -188q2 -13 -2 -23q-6 -18 -21 -18q-24 0 -31 39q0 110 -3 172q-150 -52 -161 -61q-6 -4 -17 6.5t-11 22.5q0 7 3 13q6 10 185 72l-4 134q0 13 5.5 30.5t10.5 19.5q9 3 15 3q25 0 25 -51
q0 -60 1 -119q55 17 76 22q106 26 143 26q8 0 10 -1q8 0 15.5 -9t4.5 -18zM558 84q0 -14 -18 -20q-11 -4 -49 -4h-1h-6.5h-10t-14.5 0.5t-19 0.5q-50 2 -94 0q-66 -3 -111 -10q-116 -17 -120 -17q-31 0 -31 20q0 29 55 42q34 7 130 15q75 6 172 4q93 -1 105 -12
q12 -9 12 -19z" />
    <glyph glyph-name="twosuperior" unicode="&#xb2;" horiz-adv-x="300" 
d="M331 319q0 -24 -22 -28q-8 -1 -16 2l-6 2t-5 2l-2 1q-6 1 -61 -10q-58 -12 -86 -24q-91 -35 -102 -32q-9 2 -14 14t-2 22q1 4 32 43q38 46 75 97q101 137 101 183q0 16 -9 25q-20 19 -56 19q-28 0 -58 -14q-32 -15 -45 -39q-12 -24 -34 -14q-12 4 -12 18q0 20 25 44
q21 21 42 31q42 20 84 20q57 0 88 -34q22 -22 22 -55q0 -56 -83 -172l-89 -119l63 20q25 8 122 26q48 9 48 -28z" />
    <glyph glyph-name="threesuperior" unicode="&#xb3;" horiz-adv-x="300" 
d="M282 425q-2 -94 -88 -161q-29 -23 -86 -53q-21 -12 -46 6q-17 14 -17 22q0 15 33 8q8 -2 9 -1l32 20q119 74 118 160q0 42 -58 60q-31 9 -93 16l-13 2q-27 14 -21 34q2 5 40 36q40 32 78 69q-101 -10 -124 -10q-8 0 -16.5 8.5t-8.5 17.5q0 13 17 21q20 -2 111 6
q75 6 84 -7q3 -5 3 -11q0 -25 -63 -82q-6 -5 -49 -44q56 -4 96 -24q63 -32 62 -93z" />
    <glyph glyph-name="acute" unicode="&#xb4;" horiz-adv-x="462" 
d="M355 695q-1 -7 -25 -35q-42 -48 -71 -90q-29 -40 -66 -99l2 -17q0 -8 -12 -19q-17 -12 -31 -12q-23 0 -19 28q4 25 73 131q70 108 109 144q8 8 21 8q24 0 19 -39z" />
    <glyph glyph-name="mu" unicode="&#xb5;" horiz-adv-x="420" 
d="M372 1q10 -10 10 -33q0 -33 -42 -30q-34 1 -34 27q0 23 16 40q1 1 -16 139q-36 -117 -69 -132q-18 -8 -32 -8q-59 0 -91 122q-23 -171 -24 -325q-3 -175 4 -188q5 -12 5 -19q0 -14 -9.5 -22.5t-20.5 -5.5q-29 8 -29 41q0 11 4 18q1 1 1 10l-3 59q-3 56 -3 109q0 30 2 88
q7 185 44 462q0 27 -1 43q-1 20 6 28.5t19 6.5q18 -5 33 -28q12 -21 12 -33q-5 -133 11 -217q17 -89 41 -89q19 0 44 67q32 81 39 177q5 42 6 50q6 34 21 39q8 2 12 2q17 0 26.5 -15t7.5 -33q-11 -174 -11 -225q0 -104 21 -125z" />
    <glyph glyph-name="mu" unicode="&#x3bc;" horiz-adv-x="420" 
d="M372 1q10 -10 10 -33q0 -33 -42 -30q-34 1 -34 27q0 23 16 40q1 1 -16 139q-36 -117 -69 -132q-18 -8 -32 -8q-59 0 -91 122q-23 -171 -24 -325q-3 -175 4 -188q5 -12 5 -19q0 -14 -9.5 -22.5t-20.5 -5.5q-29 8 -29 41q0 11 4 18q1 1 1 10l-3 59q-3 56 -3 109q0 30 2 88
q7 185 44 462q0 27 -1 43q-1 20 6 28.5t19 6.5q18 -5 33 -28q12 -21 12 -33q-5 -133 11 -217q17 -89 41 -89q19 0 44 67q32 81 39 177q5 42 6 50q6 34 21 39q8 2 12 2q17 0 26.5 -15t7.5 -33q-11 -174 -11 -225q0 -104 21 -125z" />
    <glyph glyph-name="paragraph" unicode="&#xb6;" horiz-adv-x="450" 
d="M370 310q0 -8 -38 -34q-23 -14 -50 -31q-6 -20 -8 -39q-2 -16 -3 -75q-1 -69 5 -69q4 0 7 1q31 6 25 -23q-3 -15 -11 -26q-4 -5 -8 -10.5t-6 -7.5l-2 -3q-10 -19 -30 -19q-17 0 -27 21q-4 6 -2 22q4 20 4 42q-1 90 11 162q-33 -14 -68 -20q-11 -43 -7 -103q0 -1 1.5 -9
t1.5 -12q0 -15 -21 -27q-5 -4 -12 -4q-10 0 -17 10.5t-7 22.5q2 29 14 118q-15 0 -31 8q-30 18 -36 63q-12 93 111 203l10 59l10 82q6 43 19 44q15 2 28.5 -4t13.5 -18q2 -38 -14 -99q-3 -15 -7 -26q36 14 58 7q2 8 7 43l-1 49q0 26 12 31q5 4 14 4q32 0 35 -39
q3 -42 -12 -97q-5 -18 -9 -34t-6 -23.5t-2 -8.5q-1 -28 -8 -66q-3 -15 -12 -51q22 14 36 14q12 0 22 -8.5t10 -19.5zM270 441q0 16 -11 16q-18 0 -51 -30q-1 -7 -4.5 -26.5t-10.5 -64.5t-14 -85q37 11 69 30q9 45 22 160zM149 370q-41 -47 -41 -91q0 -25 21 -32q6 40 20 123
z" />
    <glyph glyph-name="middot" unicode="&#xb7;" horiz-adv-x="207" 
d="M144 261q0 -42 -39 -42q-36 0 -36 41q0 17 14 31q10 10 22 12q17 2 28 -10.5t11 -31.5z" />
    <glyph glyph-name="middot" unicode="&#x2219;" horiz-adv-x="207" 
d="M144 261q0 -42 -39 -42q-36 0 -36 41q0 17 14 31q10 10 22 12q17 2 28 -10.5t11 -31.5z" />
    <glyph glyph-name="cedilla" unicode="&#xb8;" horiz-adv-x="321" 
d="M264 -117q-12 -37 -54 -78q-24 -22 -49.5 -38t-40 -21t-20.5 -5q-25 0 -25 25q0 9 6.5 18t15.5 9q2 0 5 -1h8q20 0 53 27q56 47 56 85q0 14 -11 25q-49 42 -50 87q0 5 -2.5 21.5t-2.5 20.5q0 23 31 22q16 -1 23.5 -5t6.5 -12q0 -1 -2 -16.5t-2 -22.5q0 -9 2 -17
t7.5 -16.5t9 -13t12.5 -14.5t12 -13q15 -20 15 -41q0 -14 -4 -26z" />
    <glyph glyph-name="onesuperior" unicode="&#xb9;" horiz-adv-x="300" 
d="M237 667q1 -6 -23 -184q-23 -178 -20 -196q1 -2 3 -8q4 -9 4 -20q-4 -25 -25 -25q-3 0 -9 2q-16 5 -20.5 10.5t-4.5 20.5q0 7 4 18q-1 13 21 187l18 124q-115 -124 -126 -126q-7 -1 -12 8.5t-5 20.5q0 13 34 47l42 42q42 50 88 96q8 2 17 -3q13 -4 14 -14z" />
    <glyph glyph-name="ordmasculine" unicode="&#xba;" horiz-adv-x="402" 
d="M346 611q2 -18 2 -27q0 -78 -64 -133q-59 -50 -120 -50q-21 0 -37 8q-25 13 -43.5 44.5t-18.5 68.5q0 32 15 62q65 134 143 139q34 3 68 -22q44 -31 55 -90zM341 360q18 -8 18 -20q0 -11 -15.5 -21t-29.5 -10q-7 0 -14 6l-8 6q-55 12 -185 -6q-27 -3 -34 0q-25 10 -25 25
q0 18 23 23q43 8 121 8q119 0 149 -11zM287 636q-17 35 -57 38q-16 1 -40 -18q-39 -30 -68 -105q-5 -13 -5 -28q0 -28 12 -49q15 -26 40 -26q26 0 60 25q31 21 46 43q24 36 24 67q0 23 -12 53z" />
    <glyph glyph-name="guillemotright" unicode="&#xbb;" horiz-adv-x="540" 
d="M518 332q2 -6 2 -11q0 -20 -43 -42q-1 -1 -89 -39q-36 -16 -75 -43q-31 -22 -40 -22q-18 0 -18 28q0 13 6 18q20 16 79 45q91 43 104 50q-40 16 -161 51q-11 3 -11 24q0 23 20 23q6 0 13 -3q2 -1 15 -5.5t48 -16t66 -21.5q80 -27 84 -36zM281 332q3 -4 3 -11
q0 -20 -43 -42q-3 -1 -90 -39q-36 -16 -75 -43q-31 -22 -40 -22q-18 0 -18 28q0 13 6 18q21 16 80 45q92 44 103 50q-37 15 -160 51q-11 3 -11 24q0 23 19 23q7 0 14 -3q5 -2 128 -43q79 -27 84 -36z" />
    <glyph glyph-name="onequarter" unicode="&#xbc;" horiz-adv-x="786" 
d="M722 187q-40 5 -83 2l-16 -121q-7 -57 -7 -69q8 -16 8 -30q0 -27 -22 -27q-8 0 -15 3q-27 9 -27 34q0 10 4 21q2 6 27 183q-2 0 -13 -2t-41 -7t-57 -10q-63 -10 -75 -6q-19 7 -19 25q0 9 6 13q26 26 91 104q16 23 32 57l30 61q17 32 28 32q10 0 18 -11t8 -24q0 -9 -4 -16
q-15 -23 -66 -116q-18 -33 -56 -71q43 8 124 18q11 84 19 132q1 3 2.5 8.5t1.5 7.5q6 16 15 19q13 3 24.5 -10.5t8.5 -25.5q0 -7 -6 -33q-9 -43 -17 -98q41 -1 76 -8q21 -4 21 -18q0 -19 -20 -17zM552 652q-34 -16 -58 -66q-242 -512 -243 -578q0 -28 -21 -36q-20 -8 -27 3
q-1 1 -2.5 5t-3 7.5t-2.5 7.5q-3 16 8 30l48 121l8 23q71 178 184 422q44 96 90 113q6 3 12 3q29 0 29 -33q0 -4 -1 -7t-2.5 -4.5t-4.5 -3.5l-4.5 -3t-5 -2.5t-4.5 -1.5zM229 667q1 -4 -22 -184q-23 -176 -21 -196q1 -2 3 -8q4 -9 4 -20q-4 -25 -25 -25q-3 0 -9 2
q-16 5 -20 10.5t-5 20.5q0 7 4 18q0 13 21 187l18 124q-115 -124 -126 -126q-6 -1 -11.5 8.5t-5.5 20.5q0 13 34 47q15 14 42 42q42 50 88 96q10 1 20 -3.5t11 -13.5z" />
    <glyph glyph-name="onehalf" unicode="&#xbd;" horiz-adv-x="786" 
d="M746 35q0 -25 -22 -29q-7 -1 -16 2q-12 5 -13 5q-9 2 -61 -10q-57 -12 -86 -24q-91 -35 -102 -32q-9 2 -14 14t-2 22q1 4 32 43q38 46 75 97q102 137 102 183q0 16 -10 25q-20 19 -55 19q-29 0 -59 -14q-31 -14 -45 -39q-12 -24 -34 -14q-12 5 -12 18q0 20 25 45
q19 20 42 30q42 20 84 20q57 0 88 -34q22 -22 22 -55q0 -56 -83 -172l-89 -119q48 17 63 20q25 8 122 26q48 9 48 -27zM554 652q-34 -16 -58 -66q-243 -512 -243 -578q-2 -29 -22 -36q-19 -7 -26 3q-1 1 -2.5 5t-3 7.5t-2.5 7.5q-3 16 8 30l47 120l9 24q71 178 184 422
q44 96 90 113q6 3 12 3q29 0 29 -33q0 -4 -1 -7t-2.5 -4.5t-4.5 -3.5l-4.5 -3t-5 -2.5t-4.5 -1.5zM231 667q1 -6 -23 -184q-23 -178 -20 -196q1 -2 3 -8q4 -9 4 -20q-4 -25 -25 -25q-3 0 -9 2q-16 5 -20.5 10.5t-4.5 20.5q0 7 4 18q-1 13 21 187l18 124q-115 -124 -126 -126
q-7 -1 -12 8.5t-5 20.5q0 13 34 47l42 42q42 50 88 96q8 2 17 -3q13 -4 14 -14z" />
    <glyph glyph-name="threequarters" unicode="&#xbe;" horiz-adv-x="786" 
d="M722 187q-40 5 -83 2l-16 -121q-7 -57 -7 -69q8 -16 8 -30q0 -27 -22 -27q-8 0 -15 3q-27 9 -27 34q0 10 4 21q2 6 27 183q-2 0 -13 -2t-41 -7t-57 -10q-63 -10 -75 -6q-19 7 -19 25q0 9 6 13q26 26 91 104q16 23 32 57l30 61q17 32 28 32q10 0 18 -11t8 -24q0 -9 -4 -16
q-15 -23 -66 -116q-18 -33 -56 -71q43 8 124 18q11 84 19 132q1 3 2.5 8.5t1.5 7.5q6 16 15 19q12 3 24 -10.5t9 -25.5q0 -7 -6 -33q-9 -43 -17 -98q41 -1 76 -8q21 -4 21 -18q0 -19 -20 -17zM279 425q-2 -94 -87 -161q-29 -23 -86 -53q-22 -12 -46 6q-17 14 -17 22
q0 15 33 8q7 -2 8 -1l32 20q119 74 118 160q0 42 -58 60q-32 9 -92 16l-13 2q-28 13 -22 34q1 4 41 36t78 69q-103 -10 -124 -10q-9 0 -17.5 8.5t-8.5 17.5q0 13 18 21q19 -1 110 6q75 6 84 -7q4 -4 4 -11q0 -25 -63 -82q-16 -13 -50 -44q57 -4 96 -24q63 -32 62 -93z
M552 652q-34 -16 -58 -66q-242 -512 -243 -578q0 -28 -21 -36q-20 -8 -27 3q-1 1 -2.5 5t-3 7.5t-2.5 7.5q-3 16 8 30l47 121l9 23q71 178 184 422q44 96 90 113q6 3 12 3q29 0 29 -33q0 -4 -1 -7t-2.5 -4.5t-4.5 -3.5l-4.5 -3t-5 -2.5t-4.5 -1.5z" />
    <glyph glyph-name="questiondown" unicode="&#xbf;" horiz-adv-x="567" 
d="M505 -53q6 -24 -47 -60q-45 -31 -121 -61q-66 -28 -150 -28q-140 0 -157 83q-3 15 -3 30q0 88 99 181q68 64 185 129l100 56q1 32 -25 77q-32 52 -39 84q-1 4 -1 14q0 44 32 44q5 0 8 -1q27 -6 27 -30q0 -5 -2 -15.5t-2 -11.5q9 -26 26 -57q19 -33 27 -58q12 -39 8 -86
q-35 -13 -73 -30q-89 -41 -155 -87q-158 -111 -158 -197q0 -16 4 -31q12 -43 99 -43q75 0 156 28q83 29 99 61q14 26 39 26q19 0 24 -17zM414 656q-2 -38 -31 -41q-17 -1 -29.5 9t-11.5 26q0 18 11.5 32t25.5 14q37 -2 35 -40z" />
    <glyph glyph-name="Agrave" unicode="&#xc0;" horiz-adv-x="609" 
d="M635 344q1 -17 -8 -26t-28 -9q-9 0 -15 3l-129 -38l67 -285q23 -20 23 -36t-20 -27q-6 -2 -10 -2q-15 0 -29 12.5t-11 24.5l-71 296q-20 -6 -169 -52q-10 -4 -25.5 -9.5t-40.5 -14.5t-43 -16q-19 -37 -41 -102q-2 -11 -6 -35q-5 -20 -28 -20q-20 0 -26 17q-7 22 38 132
q-30 5 -30 33q0 5 2 15q5 15 59 30l205 448q14 32 38 32q18 0 26 -38q2 -25 23 -121q2 -6 59 -237l140 42q13 6 26 6q22 0 24 -23zM393 302q-2 9 -7 28t-13.5 52t-16.5 63q-16 54 -40 131l-85 -164q-27 -53 -75 -167q55 10 143 31q73 19 94 26zM462 753q0 -22 -19 -22
q-2 0 -12 2q-23 7 -118 90q-97 84 -129 129q-5 8 -5 18q0 20 23 20q8 0 19 -3q7 -1 31 -30q47 -52 79 -82l43 -42q27 -27 47 -37l15 -1q10 0 18 -13.5t8 -28.5z" />
    <glyph glyph-name="Aacute" unicode="&#xc1;" horiz-adv-x="609" 
d="M635 344q1 -17 -8 -26t-28 -9q-9 0 -15 3l-129 -38l67 -285q23 -20 23 -36t-20 -27q-6 -2 -10 -2q-15 0 -29 12.5t-11 24.5l-71 296q-20 -6 -169 -52q-10 -4 -25.5 -9.5t-40.5 -14.5t-43 -16q-19 -37 -41 -102q-2 -11 -6 -35q-5 -20 -28 -20q-20 0 -26 17q-7 22 38 132
q-30 5 -30 33q0 5 2 15q5 15 59 30l205 448q14 32 38 32q18 0 26 -38q2 -25 23 -121q2 -6 59 -237l140 42q13 6 26 6q22 0 24 -23zM393 302q-2 9 -7 28t-13.5 52t-16.5 63q-16 54 -40 131l-85 -164q-27 -53 -75 -167q55 10 143 31q73 19 94 26zM475 1015q-1 -7 -25 -35
q-42 -48 -71 -90q-29 -40 -66 -99l2 -17q0 -8 -12 -19q-17 -12 -31 -12q-23 0 -19 28q4 25 73 131q70 108 109 144q8 8 21 8q24 0 19 -39z" />
    <glyph glyph-name="Acircumflex" unicode="&#xc2;" horiz-adv-x="609" 
d="M635 344q1 -17 -8 -26t-28 -9q-9 0 -15 3l-129 -38l67 -285q23 -20 23 -36t-20 -27q-6 -2 -10 -2q-15 0 -29 12.5t-11 24.5l-71 296q-20 -6 -169 -52q-10 -4 -25.5 -9.5t-40.5 -14.5t-43 -16q-19 -37 -41 -102q-2 -11 -6 -35q-5 -20 -28 -20q-20 0 -26 17q-7 22 38 132
q-30 5 -30 33q0 5 2 15q5 15 59 30l205 448q14 32 38 32q18 0 26 -38q2 -25 23 -121q2 -6 59 -237l140 42q13 6 26 6q22 0 24 -23zM393 302q-2 9 -7 28t-13.5 52t-16.5 63q-16 54 -40 131l-85 -164q-27 -53 -75 -167q55 10 143 31q73 19 94 26zM441 774q8 -6 8 -22
q0 -25 -20 -25q-26 0 -49 44q-16 30 -23 45q-6 2 -53 -36q-46 -37 -49 -48q-8 -23 -27 -23q-9 0 -17.5 11.5t-8.5 23.5q0 13 13 23q42 42 135 116l12 9q6 3 19 -1q23 -6 24 -30q5 -61 36 -87z" />
    <glyph glyph-name="Atilde" unicode="&#xc3;" horiz-adv-x="609" 
d="M635 344q1 -17 -8 -26t-28 -9q-9 0 -15 3l-129 -38l67 -285q23 -20 23 -36t-20 -27q-6 -2 -10 -2q-15 0 -29 12.5t-11 24.5l-71 296q-20 -6 -169 -52q-10 -4 -25.5 -9.5t-40.5 -14.5t-43 -16q-19 -37 -41 -102q-2 -11 -6 -35q-5 -20 -28 -20q-20 0 -26 17q-7 22 38 132
q-30 5 -30 33q0 5 2 15q5 15 59 30l205 448q14 32 38 32q18 0 26 -38q2 -25 23 -121q2 -6 59 -237l140 42q13 6 26 6q22 0 24 -23zM393 302q-2 9 -7 28t-13.5 52t-16.5 63q-16 54 -40 131l-85 -164q-27 -53 -75 -167q55 10 143 31q73 19 94 26zM588 825q-1 -2 -15 -7
q-22 -8 -68 -53q-53 -53 -92 -53q-26 0 -33 19q-8 38 -13 57q-10 43 -30 46q-21 4 -62 -23q-38 -25 -58 -57q-18 -31 -28 -31q-22 0 -22 21q0 14 12 33q19 32 63 67q55 45 103 45q24 0 44 -32q19 -30 26 -71q4 -16 15 -16q18 0 55 40q55 58 77 56q28 -3 28 -28q0 -3 -2 -13z
" />
    <glyph glyph-name="Adieresis" unicode="&#xc4;" horiz-adv-x="609" 
d="M635 344q1 -17 -8 -26t-28 -9q-9 0 -15 3l-129 -38l67 -285q23 -20 23 -36t-20 -27q-6 -2 -10 -2q-15 0 -29 12.5t-11 24.5l-71 296q-20 -6 -169 -52q-10 -4 -25.5 -9.5t-40.5 -14.5t-43 -16q-19 -37 -41 -102q-2 -11 -6 -35q-5 -20 -28 -20q-20 0 -26 17q-7 22 38 132
q-30 5 -30 33q0 5 2 15q5 15 59 30l205 448q14 32 38 32q18 0 26 -38q2 -25 23 -121q2 -6 59 -237l140 42q13 6 26 6q22 0 24 -23zM393 302q-2 9 -7 28t-13.5 52t-16.5 63q-16 54 -40 131l-85 -164q-27 -53 -75 -167q55 10 143 31q73 19 94 26zM469 871q-2 -9 -10 -24
q-23 -48 -28 -80q-2 -12 -8 -22q-11 -9 -19 -9q-18 0 -18 34q0 31 17 68q8 18 11 28l8 25q7 13 21 13q12 0 19.5 -9.5t6.5 -23.5zM318 875q-2 -4 -9 -25q-9 -26 -9 -67q-2 -19 -6 -27q-7 -10 -26 -7q-14 3 -14 41q0 24 4 49q1 4 11 56q8 20 21 20q6 0 13 -3q22 -12 15 -37z
" />
    <glyph glyph-name="Aring" unicode="&#xc5;" horiz-adv-x="609" 
d="M635 344q1 -17 -8 -26t-28 -9q-9 0 -15 3l-129 -38l67 -285q23 -20 23 -36t-20 -27q-6 -2 -10 -2q-15 0 -29 12.5t-11 24.5l-71 296q-20 -6 -169 -52q-10 -4 -25.5 -9.5t-40.5 -14.5t-43 -16q-19 -37 -41 -102q-2 -11 -6 -35q-5 -20 -28 -20q-20 0 -26 17q-7 22 38 132
q-30 5 -30 33q0 5 2 15q5 15 59 30l205 448q14 32 38 32q18 0 26 -38q2 -25 23 -121q2 -6 59 -237l140 42q13 6 26 6q22 0 24 -23zM393 302q-2 9 -7 28t-13.5 52t-16.5 63q-16 54 -40 131l-85 -164q-27 -53 -75 -167q55 10 143 31q73 19 94 26zM452 924q13 -10 13 -32
q0 -31 -32 -68q-53 -59 -97 -59q-12 0 -24 4q-31 7 -31 51q0 28 14 61q30 64 92 64q39 0 65 -21zM393 901q-29 0 -47 -18q-6 -6 -13 -25t-7 -33q0 -21 18 -18q19 5 48 32q31 28 31 46q0 16 -30 16z" />
    <glyph glyph-name="AE" unicode="&#xc6;" horiz-adv-x="819" 
d="M885 111q-51 -12 -189 -67q-114 -48 -194 -85q15 -15 15 -29q0 -15 -20 -26q-6 -2 -10 -2q-14 0 -27.5 12t-12.5 24q-30 10 -30 32q0 10 9 18l8 6l-62 257l-271 -110q-36 -85 -39 -103l-4 -33q-5 -20 -29 -20q-19 0 -25 17q-8 30 37 130l12 26q-6 10 -1 23q2 5 16 12
l157 348q-11 9 -11 24q0 16 10 23q4 4 26 10l24 53q13 31 37 31q20 0 26 -37q1 -6 3 -22q18 6 25 9q127 53 174 67q98 30 125 30q35 0 35 -22q0 -11 -10 -21q-13 -16 -39 -16q-14 0 -24 7q-65 -18 -140 -49l-137 -57q4 -19 11 -47q0 -1 49 -201q324 121 351 114
q24 -6 24 -21q0 -10 -14 -21q-4 -4 -14 -4q-22 -2 -32 -4q-26 -5 -303 -116l61 -256l193 73q174 64 202 64q1 0 14 -6q26 -11 26 -22q0 -3 -2 -5zM359 304l-29 112q-12 45 -39 129q-49 -91 -84 -162q-16 -29 -73 -162z" />
    <glyph glyph-name="Ccedilla" unicode="&#xc7;" horiz-adv-x="729" 
d="M764 237q4 -7 4 -15q0 -30 -58 -36q-11 -1 -110 -47q-109 -51 -194 -82q-10 -48 10 -73q3 -3 10 -11l10.5 -12t9 -11.5t8.5 -13t5 -12.5t2 -14q0 -12 -5 -27q-12 -37 -54 -78q-23 -22 -48.5 -38t-40 -21t-20.5 -5q-25 0 -25 25q0 9 6.5 18t14.5 9q3 0 6 -1h7q21 0 54 27
q56 47 56 85q0 14 -12 25q-48 43 -49 87q0 7 -3 22q-90 -27 -154 -27q-71 0 -109 31q-73 57 -73 146q0 132 145 292q131 146 269 202q30 13 53 13q21 0 29 -15q4 -9 4 -18q0 -24 -53 -35q-65 -13 -159 -90q-94 -76 -159 -170q-73 -103 -73 -182q0 -66 55 -102q31 -20 82 -20
q107 0 294 84l184 91q39 17 51 17q20 0 30 -18z" />
    <glyph glyph-name="Egrave" unicode="&#xc8;" horiz-adv-x="648" 
d="M686 233q-84 -21 -215 -78q-149 -65 -282 -135q-90 -46 -96 -45q-14 5 -31 28q-14 20 -17 31q-4 19 4 81q4 28 9 160q5 145 5 197q0 32 -1 35q-4 12 -10 27q-6 16 -6 26q0 11 13.5 19.5t28.5 8.5q14 0 25 -7l300 112q97 31 127 31q36 0 36 -22q0 -12 -10 -22
q-13 -16 -40 -16q-14 0 -24 7q-78 -23 -83 -25q-87 -27 -135 -52q-27 -14 -161 -69q4 -78 0 -100q-2 -47 -8 -98q277 121 307 115q24 -4 24 -21q0 -11 -12 -23q-5 -5 -21 -8.5t-19 -5.5l-103 -39q-112 -45 -178 -87q-1 -15 -10 -124q-1 -16 0 -42q2 -42 2 -44q16 9 82 41
q99 46 261 110q201 79 253 79q9 0 15 -3q27 -9 27 -22q0 -3 -2 -5t-55 -15zM402 733q0 -22 -19 -22q-2 0 -12 2q-23 7 -118 90q-97 84 -129 129q-5 8 -5 18q0 20 23 20q8 0 19 -3q7 -1 31 -30q47 -52 79 -82l43 -42q27 -27 47 -37l15 -1q10 0 18 -13.5t8 -28.5z" />
    <glyph glyph-name="Eacute" unicode="&#xc9;" horiz-adv-x="648" 
d="M686 233q-84 -21 -215 -78q-149 -65 -282 -135q-90 -46 -96 -45q-14 5 -31 28q-14 20 -17 31q-4 19 4 81q4 28 9 160q5 145 5 197q0 32 -1 35q-4 12 -10 27q-6 16 -6 26q0 11 13.5 19.5t28.5 8.5q14 0 25 -7l300 112q97 31 127 31q36 0 36 -22q0 -12 -10 -22
q-13 -16 -40 -16q-14 0 -24 7q-78 -23 -83 -25q-87 -27 -135 -52q-27 -14 -161 -69q4 -78 0 -100q-2 -47 -8 -98q277 121 307 115q24 -4 24 -21q0 -11 -12 -23q-5 -5 -21 -8.5t-19 -5.5l-103 -39q-112 -45 -178 -87q-1 -15 -10 -124q-1 -16 0 -42q2 -42 2 -44q16 9 82 41
q99 46 261 110q201 79 253 79q9 0 15 -3q27 -9 27 -22q0 -3 -2 -5t-55 -15zM435 935q-1 -7 -25 -35q-42 -48 -71 -90q-29 -40 -66 -99l2 -17q0 -8 -12 -19q-17 -12 -31 -12q-23 0 -19 28q4 25 73 131q70 108 109 144q8 8 21 8q24 0 19 -39z" />
    <glyph glyph-name="Ecircumflex" unicode="&#xca;" horiz-adv-x="648" 
d="M686 233q-84 -21 -215 -78q-149 -65 -282 -135q-90 -46 -96 -45q-14 5 -31 28q-14 20 -17 31q-4 19 4 81q4 28 9 160q5 145 5 197q0 32 -1 35q-4 12 -10 27q-6 16 -6 26q0 11 13.5 19.5t28.5 8.5q14 0 25 -7l300 112q97 31 127 31q36 0 36 -22q0 -12 -10 -22
q-13 -16 -40 -16q-14 0 -24 7q-78 -23 -83 -25q-87 -27 -135 -52q-27 -14 -161 -69q4 -78 0 -100q-2 -47 -8 -98q277 121 307 115q24 -4 24 -21q0 -11 -12 -23q-5 -5 -21 -8.5t-19 -5.5l-103 -39q-112 -45 -178 -87q-1 -15 -10 -124q-1 -16 0 -42q2 -42 2 -44q16 9 82 41
q99 46 261 110q201 79 253 79q9 0 15 -3q27 -9 27 -22q0 -3 -2 -5t-55 -15zM417 796q8 -6 8 -22q0 -25 -20 -25q-26 0 -49 44q-16 30 -23 45q-6 2 -53 -36q-46 -37 -49 -48q-8 -23 -27 -23q-9 0 -17.5 11.5t-8.5 23.5q0 13 13 23q42 42 135 116l12 9q6 3 19 -1q23 -6 24 -30
q5 -61 36 -87z" />
    <glyph glyph-name="Edieresis" unicode="&#xcb;" horiz-adv-x="648" 
d="M686 233q-84 -21 -215 -78q-149 -65 -282 -135q-90 -46 -96 -45q-14 5 -31 28q-14 20 -17 31q-4 19 4 81q4 28 9 160q5 145 5 197q0 32 -1 35q-4 12 -10 27q-6 16 -6 26q0 11 13.5 19.5t28.5 8.5q14 0 25 -7l300 112q97 31 127 31q36 0 36 -22q0 -12 -10 -22
q-13 -16 -40 -16q-14 0 -24 7q-78 -23 -83 -25q-87 -27 -135 -52q-27 -14 -161 -69q4 -78 0 -100q-2 -47 -8 -98q277 121 307 115q24 -4 24 -21q0 -11 -12 -23q-5 -5 -21 -8.5t-19 -5.5l-103 -39q-112 -45 -178 -87q-1 -15 -10 -124q-1 -16 0 -42q2 -42 2 -44q16 9 82 41
q99 46 261 110q201 79 253 79q9 0 15 -3q27 -9 27 -22q0 -3 -2 -5t-55 -15zM444 869q-2 -9 -10 -24q-23 -48 -28 -80q-2 -12 -8 -22q-10 -9 -19 -9q-18 0 -18 34q0 31 17 68q8 18 11 28l8 25q7 13 21 13q12 0 19.5 -9.5t6.5 -23.5zM293 873q-2 -4 -9 -25q-9 -26 -9 -67
q-1 -19 -6 -27q-7 -10 -26 -7q-14 3 -14 41q0 24 4 49q1 4 11 56q8 20 21 20q5 0 13 -3q22 -12 15 -37z" />
    <glyph glyph-name="Igrave" unicode="&#xcc;" horiz-adv-x="234" 
d="M273 714q0 -22 -19 -22q-2 0 -12 2q-23 7 -118 90q-98 84 -129 129q-5 8 -5 18q0 20 23 20q9 0 19 -3q7 -1 31 -30q47 -52 79 -82l43 -42q27 -27 47 -37l15 -1q10 0 18 -13.5t8 -28.5zM165 684q14 -5 14 -46q0 -35 -10 -105q-14 -104 -15 -124q-2 -25 -13 -308
q0 -11 -2 -39q18 -25 18 -46q0 -14 -11.5 -22.5t-27.5 -8.5q-21 0 -30 20q-4 9 -4 74q0 97 9 276q9 170 13 198l10 93q7 43 31 43q6 0 18 -5z" />
    <glyph glyph-name="Iacute" unicode="&#xcd;" horiz-adv-x="234" 
d="M280 972q-1 -7 -25 -35q-42 -48 -71 -90q-28 -41 -66 -99l2 -17q0 -9 -12 -19q-16 -12 -31 -12q-23 0 -19 28q4 25 73 131q70 108 109 144q8 8 21 8q23 0 19 -39zM165 684q14 -5 14 -46q0 -35 -10 -105q-14 -104 -15 -124q-2 -25 -13 -308q0 -11 -2 -39q18 -25 18 -46
q0 -14 -11.5 -22.5t-27.5 -8.5q-21 0 -30 20q-4 9 -4 74q0 97 9 276q9 170 13 198l10 93q7 43 31 43q6 0 18 -5z" />
    <glyph glyph-name="Icircumflex" unicode="&#xce;" horiz-adv-x="234" 
d="M262 767q8 -6 8 -22q0 -25 -20 -25q-26 0 -49 44q-16 30 -23 45q-6 2 -53 -36q-46 -37 -49 -48q-8 -23 -27 -23q-9 0 -17.5 11.5t-8.5 23.5q0 13 13 23q42 42 135 116l12 9q6 3 19 -1q22 -6 24 -30q4 -62 36 -87zM165 684q14 -5 14 -46q0 -35 -10 -105q-14 -104 -15 -124
q-2 -25 -13 -308q0 -11 -2 -39q18 -25 18 -46q0 -14 -11.5 -22.5t-27.5 -8.5q-21 0 -30 20q-4 9 -4 74q0 97 9 276q9 170 13 198l10 93q7 43 31 43q6 0 18 -5z" />
    <glyph glyph-name="Idieresis" unicode="&#xcf;" horiz-adv-x="234" 
d="M281 866q-2 -9 -10 -24q-23 -48 -28 -80q-2 -12 -8 -22q-10 -9 -19 -9q-18 0 -18 34q0 31 17 68q8 18 11 28l8 25q7 13 21 13q12 0 19.5 -9.5t6.5 -23.5zM130 870q-2 -4 -9 -25q-9 -26 -9 -67q-2 -20 -6 -27q-7 -10 -26 -7q-14 3 -14 41q0 24 4 49q1 4 11 56q8 20 21 20
q6 0 13 -3q22 -12 15 -37zM165 684q14 -5 14 -46q0 -35 -10 -105q-14 -104 -15 -124q-2 -25 -13 -308q0 -11 -2 -39q18 -25 18 -46q0 -14 -11.5 -22.5t-27.5 -8.5q-21 0 -30 20q-4 9 -4 74q0 97 9 276q9 170 13 198l10 93q7 43 31 43q6 0 18 -5z" />
    <glyph glyph-name="Eth" unicode="&#xd0;" horiz-adv-x="663" 
d="M679 465q2 -113 -186 -260q-94 -74 -319 -209q-4 -1 -15 -22q-11 -20 -30 -21q-2 0 -5 2l-6 4l-2 2q-3 -1 -12 1q-18 18 -9 49q4 9 7 25q-14 171 -12 267q-51 -14 -85 -19q-10 0 -19.5 6t-9.5 15q0 13 16 29q3 3 27 8q40 6 73 15q3 69 17 268l-75 -26q-13 -2 -26.5 9.5
t-13.5 24.5q0 14 13 21q30 18 94 31q65 14 135 16q169 4 306 -67q135 -70 137 -169zM619 461q0 81 -123 139q-111 52 -229 51q-67 -2 -91 -10q-18 -158 -26 -267q49 14 65 24l8 13q5 8 22 8q40 1 40 -24q0 -8 -11 -19q-20 -19 -127 -55l-2 -46q-4 -99 17 -220
q117 66 194 118q204 138 250 238q13 26 13 50z" />
    <glyph glyph-name="Ntilde" unicode="&#xd1;" horiz-adv-x="612" 
d="M536 103q0 -22 -8 -33q2 -16 2 -24q0 -23 -7.5 -33t-22.5 -8q-30 5 -30 45q0 14 3 28q-1 1 -53 34q-46 27 -174 228q-47 73 -95 186q-51 -346 -51 -442q0 -24 4 -28q9 -10 9 -49q0 -60 -31 -60q-12 0 -25 9q-6 4 -6 49q0 78 13 225q10 134 18 174q6 38 9 156q3 97 11 110
q10 18 27 18q14 0 23 -14q23 -37 50 -122q30 -90 65 -151q106 -187 162 -226q13 -9 40 -21q-6 312 0 391q1 11 1 34t-3 53q0 8 -0.5 17.5t-1 14.5t-0.5 7q0 34 31 34q35 0 35 -115q0 -31 -5 -106q-4 -59 -4 -77q0 -15 -3 -59t-3 -74q0 -67 10 -140q10 -19 10 -31zM544 843
q-1 -2 -15 -7q-23 -8 -68 -53q-53 -53 -92 -53q-26 0 -33 19q-8 38 -13 57q-10 43 -30 46q-21 4 -62 -23q-38 -25 -58 -57q-18 -31 -28 -31q-22 0 -22 21q0 14 12 33q19 32 63 67q55 45 103 45q24 0 44 -32q19 -30 26 -71q4 -16 15 -16q18 0 55 40q55 58 77 56q28 -3 28 -28
q0 -3 -2 -13z" />
    <glyph glyph-name="Ograve" unicode="&#xd2;" horiz-adv-x="696" 
d="M702 389q-5 -69 -88 -163q-81 -93 -196 -159q-123 -72 -222 -72q-45 0 -84 17q-97 45 -97 171q0 147 111 308q111 163 216 164q72 1 100 -33q269 -51 260 -233zM643 391q5 120 -140 161q-58 16 -145 16q-5 -2 -27 -19q-19 -13 -33 -12q-8 1 -14.5 4t-10 6t-6.5 6t-4 5
l-1 1q-82 -66 -139 -178q-52 -104 -52 -194q0 -86 52 -114q37 -20 83 -20q88 0 194 63q96 56 169 138q73 83 74 137zM513 706q0 -22 -19 -22q-2 0 -12 2q-23 7 -118 90q-98 84 -129 129q-5 8 -5 18q0 20 23 20q9 0 19 -3q7 -1 31 -30q47 -52 79 -82l43 -42q27 -27 47 -37
l15 -1q10 0 18 -13.5t8 -28.5z" />
    <glyph glyph-name="Oacute" unicode="&#xd3;" horiz-adv-x="696" 
d="M702 389q-5 -69 -88 -163q-81 -93 -196 -159q-123 -72 -222 -72q-45 0 -84 17q-97 45 -97 171q0 147 111 308q111 163 216 164q72 1 100 -33q269 -51 260 -233zM643 391q5 120 -140 161q-58 16 -145 16q-5 -2 -27 -19q-19 -13 -33 -12q-8 1 -14.5 4t-10 6t-6.5 6t-4 5
l-1 1q-82 -66 -139 -178q-52 -104 -52 -194q0 -86 52 -114q37 -20 83 -20q88 0 194 63q96 56 169 138q73 83 74 137zM576 967q-1 -7 -25 -35q-42 -48 -71 -90q-28 -40 -66 -99l2 -17q0 -8 -12 -19q-17 -12 -31 -12q-23 0 -19 28q4 25 73 131q70 108 109 144q8 8 21 8
q23 0 19 -39z" />
    <glyph glyph-name="Ocircumflex" unicode="&#xd4;" horiz-adv-x="696" 
d="M702 389q-5 -69 -88 -163q-81 -93 -196 -159q-123 -72 -222 -72q-45 0 -84 17q-97 45 -97 171q0 147 111 308q111 163 216 164q72 1 100 -33q269 -51 260 -233zM643 391q5 120 -140 161q-58 16 -145 16q-5 -2 -27 -19q-19 -13 -33 -12q-8 1 -14.5 4t-10 6t-6.5 6t-4 5
l-1 1q-82 -66 -139 -178q-52 -104 -52 -194q0 -86 52 -114q37 -20 83 -20q88 0 194 63q96 56 169 138q73 83 74 137zM495 772q8 -6 8 -22q0 -25 -20 -25q-26 0 -49 44q-16 30 -23 45q-6 2 -53 -36q-46 -37 -49 -48q-8 -23 -27 -23q-9 0 -17.5 11.5t-8.5 23.5q0 13 13 23
q42 42 135 116l12 9q6 3 19 -1q23 -6 24 -30q5 -61 36 -87z" />
    <glyph glyph-name="Otilde" unicode="&#xd5;" horiz-adv-x="696" 
d="M702 389q-5 -69 -88 -163q-81 -93 -196 -159q-123 -72 -222 -72q-45 0 -84 17q-97 45 -97 171q0 147 111 308q111 163 216 164q72 1 100 -33q269 -51 260 -233zM643 391q5 120 -140 161q-58 16 -145 16q-5 -2 -27 -19q-19 -13 -33 -12q-8 1 -14.5 4t-10 6t-6.5 6t-4 5
l-1 1q-82 -66 -139 -178q-52 -104 -52 -194q0 -86 52 -114q37 -20 83 -20q88 0 194 63q96 56 169 138q73 83 74 137zM634 805q-1 -2 -15 -7q-23 -8 -68 -53q-53 -53 -92 -53q-26 0 -33 19q-8 38 -13 57q-10 43 -30 46q-21 4 -62 -23q-38 -25 -58 -57q-18 -31 -28 -31
q-22 0 -22 21q0 14 12 33q19 32 63 67q56 45 103 45q24 0 44 -32q19 -30 26 -71q4 -16 15 -16q18 0 55 40q55 58 77 56q28 -3 28 -28q0 -3 -2 -13z" />
    <glyph glyph-name="Odieresis" unicode="&#xd6;" horiz-adv-x="696" 
d="M702 389q-5 -69 -88 -163q-81 -93 -196 -159q-123 -72 -222 -72q-45 0 -84 17q-97 45 -97 171q0 147 111 308q111 163 216 164q72 1 100 -33q269 -51 260 -233zM643 391q5 120 -140 161q-58 16 -145 16q-5 -2 -27 -19q-19 -13 -33 -12q-8 1 -14.5 4t-10 6t-6.5 6t-4 5
l-1 1q-82 -66 -139 -178q-52 -104 -52 -194q0 -86 52 -114q37 -20 83 -20q88 0 194 63q96 56 169 138q73 83 74 137zM555 852q-2 -9 -10 -24q-23 -48 -28 -80q-2 -12 -8 -22q-11 -9 -19 -9q-18 0 -18 34q0 31 17 68q8 18 11 28l8 25q7 13 21 13q12 0 19.5 -9.5t6.5 -23.5z
M404 856q-2 -4 -9 -25q-9 -25 -9 -67q-2 -20 -6 -27q-7 -10 -26 -7q-14 3 -14 41q0 24 4 49q1 4 11 56q8 20 21 20q6 0 13 -3q22 -12 15 -37z" />
    <glyph glyph-name="multiply" unicode="&#xd7;" 
d="M485 6q1 -4 -4.5 -8t-15.5 -5.5t-22 -0.5q-33 5 -40 42q-1 8 -75 120q-91 -124 -90 -127q3 -12 -5 -26q-12 -20 -46 -19q-28 0 -28 26q0 16 13 23q10 4 127 168l-103 152q-9 13 -9 21q0 16 30 16q24 0 65 -62l51 -80q95 134 110 137q8 2 11 2q20 0 25 -26q1 -1 -117 -158
l94 -148q30 -37 29 -47z" />
    <glyph glyph-name="Oslash" unicode="&#xd8;" horiz-adv-x="696" 
d="M702 389q-5 -69 -88 -163q-81 -93 -196 -159q-123 -72 -222 -72q-25 0 -50 5q-14 -29 -12 -43q2 -15 -11.5 -31t-28.5 -16q-12 0 -21 13.5t-9 28.5q0 12 29 70q-78 48 -78 161q0 147 111 308q111 163 216 164q72 1 100 -33q27 -4 52 -12l29 36q35 42 57 42q16 0 25 -21
q5 -11 -48 -77q152 -62 145 -201zM643 391q4 111 -122 155q-70 -87 -133 -174l-95 -133q-74 -105 -119 -183q17 -3 32 -3q88 0 194 63q96 57 168 138q74 83 75 137zM457 562q-51 8 -99 6q-5 -2 -27 -19q-19 -13 -33 -12q-8 1 -14.5 4t-10 6t-6.5 6t-4 5l-1 1
q-82 -66 -139 -178q-52 -104 -52 -194q0 -85 49 -113q13 24 61 96q127 191 179 261z" />
    <glyph glyph-name="Ugrave" unicode="&#xd9;" horiz-adv-x="660" 
d="M677 625q-27 -207 -132 -393q-136 -241 -320 -238q-71 2 -123 128q-51 121 -52 262q-2 161 2 220q1 26 13 38.5t35 10.5q18 -2 22 -10.5t2 -40.5q-5 -62 -12 -265q-1 -95 41 -191q45 -102 98 -97q112 12 203 139q71 98 120 247q38 119 41 179q0 3 -2 25.5t-2 29.5
q0 38 26 40q45 1 47 -34v-3q-1 -2 -2 -8.5t-2 -15.5t-3 -23zM516 695q0 -22 -19 -22q-2 0 -12 2q-23 7 -118 90q-97 84 -129 129q-5 8 -5 18q0 20 23 20q8 0 19 -3q7 -1 31 -30q47 -52 79 -82l43 -42q27 -27 47 -37l15 -1q10 0 18 -13.5t8 -28.5z" />
    <glyph glyph-name="Uacute" unicode="&#xda;" horiz-adv-x="660" 
d="M677 625q-27 -207 -132 -393q-136 -241 -320 -238q-71 2 -123 128q-51 121 -52 262q-2 161 2 220q1 26 13 38.5t35 10.5q18 -2 22 -10.5t2 -40.5q-5 -62 -12 -265q-1 -95 41 -191q45 -102 98 -97q112 12 203 139q71 98 120 247q38 119 41 179q0 3 -2 25.5t-2 29.5
q0 38 26 40q45 1 47 -34v-3q-1 -2 -2 -8.5t-2 -15.5t-3 -23zM534 980q-1 -7 -25 -35q-42 -48 -71 -90q-28 -41 -66 -99l2 -17q0 -9 -12 -19q-16 -12 -31 -12q-23 0 -19 28q4 25 73 131q70 108 109 144q8 8 21 8q23 0 19 -39z" />
    <glyph glyph-name="Ucircumflex" unicode="&#xdb;" horiz-adv-x="660" 
d="M677 625q-27 -207 -132 -393q-136 -241 -320 -238q-71 2 -123 128q-51 121 -52 262q-2 161 2 220q1 26 13 38.5t35 10.5q18 -2 22 -10.5t2 -40.5q-5 -62 -12 -265q-1 -95 41 -191q45 -102 98 -97q112 12 203 139q71 98 120 247q38 119 41 179q0 3 -2 25.5t-2 29.5
q0 38 26 40q45 1 47 -34v-3q-1 -2 -2 -8.5t-2 -15.5t-3 -23zM496 787q8 -6 8 -22q0 -25 -20 -25q-26 0 -49 44q-16 30 -23 45q-6 2 -53 -36q-46 -37 -49 -48q-8 -23 -27 -23q-9 0 -17.5 11.5t-8.5 23.5q0 13 13 23q42 42 135 116l12 9q6 3 19 -1q22 -6 24 -30q4 -62 36 -87z
" />
    <glyph glyph-name="Udieresis" unicode="&#xdc;" horiz-adv-x="660" 
d="M677 625q-27 -207 -132 -393q-136 -241 -320 -238q-71 2 -123 128q-51 121 -52 262q-2 161 2 220q1 26 13 38.5t35 10.5q18 -2 22 -10.5t2 -40.5q-5 -62 -12 -265q-1 -95 41 -191q45 -102 98 -97q112 12 203 139q71 98 120 247q38 119 41 179q0 3 -2 25.5t-2 29.5
q0 38 26 40q45 1 47 -34v-3q-1 -2 -2 -8.5t-2 -15.5t-3 -23zM501 847q-2 -9 -10 -24q-23 -48 -28 -80q-2 -12 -8 -22q-11 -9 -19 -9q-18 0 -18 34q0 31 17 68q8 18 11 28l8 25q7 13 21 13q12 0 19.5 -9.5t6.5 -23.5zM350 851q-2 -4 -9 -25q-9 -26 -9 -67q-2 -19 -6 -27
q-7 -10 -26 -7q-14 3 -14 41q0 24 4 49q1 4 11 56q8 20 21 20q6 0 13 -3q22 -12 15 -37z" />
    <glyph glyph-name="Yacute" unicode="&#xdd;" horiz-adv-x="526" 
d="M568 680q0 -10 -18 -22q-21 -13 -22 -16q-24 -46 -269 -257q6 -46 3 -136q-5 -132 7 -228q0 -2 7 -21.5t7 -26.5q0 -15 -14 -24q-10 -5 -19 -5q-18 0 -29 14.5t-7 35.5q2 12 -4 59q-7 53 -15 271q-10 4 -26 17q-11 34 -25 85q-27 83 -64 142q-14 22 -38 33q-18 9 -18 24
q0 23 27 23q21 0 43 -13t34 -34q26 -46 80 -181l109 86q121 101 170 163l19 25q13 16 28 16q10 0 22 -10t12 -20zM443 856q-1 -7 -25 -35q-42 -48 -71 -90q-29 -41 -66 -99l2 -17q0 -9 -12 -19q-17 -12 -31 -12q-23 0 -19 28q4 25 73 131q70 108 109 144q8 8 21 8
q24 0 19 -39z" />
    <glyph glyph-name="Thorn" unicode="&#xde;" horiz-adv-x="576" 
d="M621 582q11 -16 11 -32q0 -75 -208 -193q-121 -69 -299 -145q-5 -63 -5 -100q0 -24 3 -46t3 -27q0 -45 -35 -45q-18 0 -24.5 13t-2.5 51q0 7 1.5 47.5t3.5 77.5q-6 14 -6 19q0 12 6 20q1 12 3.5 43t5 64t4.5 66q1 30 3 143q-3 68 -5 206q10 16 32 16q18 0 28 -15
q1 -24 1.5 -77t0.5 -80q4 -1 19 -3q1 0 13.5 1t44 4t63.5 6q123 13 204 13q116 0 135 -27zM560 539q0 21 -84 21q-58 0 -143 -9q-56 -6 -92 -13q-27 -6 -94 -11l-15 -251q120 48 213 95q213 106 215 168z" />
    <glyph glyph-name="germandbls" unicode="&#xdf;" horiz-adv-x="498" 
d="M467 150q6 -53 -53 -124q-48 -57 -102 -90q-49 -30 -95 -49l-44 -18q-7 -4 -18 -4q-23 0 -30 16q-4 7 -4 16q0 13 11 24.5t24 13.5q23 2 74 11q58 19 115 73q70 64 70 123q0 9 -1 14q-3 16 -57 34q-74 22 -101 38q-55 31 -61 84q-8 63 51 134q22 27 107 102q58 51 58 68
q0 11 -28 11q-53 0 -158 -29q-103 -28 -117 -50q-11 -30 -11 -157q0 -59 1 -93l14 -415q1 -43 10 -85q11 -47 11 -50q0 -31 -28 -31q-26 0 -34 14q-12 25 -6 79q2 22 -4 177q-6 157 -8 298q-2 167 0 235q-21 -3 -22 -3q-11 0 -26 20q-2 4 -2 7q0 21 25 37l22 13q3 33 22 39
q10 2 13 2q16 0 22 -20q169 54 277 54q42 0 61 -7.5t19 -27.5q0 -37 -45 -85q-36 -36 -115 -107q-31 -28 -49 -65q-17 -39 -13 -58q6 -37 40 -55q2 -2 78 -30q65 -26 71 -30q31 -20 36 -54z" />
    <glyph glyph-name="agrave" unicode="&#xe0;" horiz-adv-x="369" 
d="M287 5q-5 -5 -15 -4q-21 1 -27 31q-76 -50 -133 -50q-36 0 -57.5 21.5t-21.5 57.5q0 51 37 100q38 50 85 57q74 11 109 -94q16 39 16 91q0 69 -33 129q-23 41 -67 41q-28 0 -54 -15q-25 -13 -27 -26q1 -2 -1.5 -3.5t-6.5 -1.5q-27 0 -29 23q-1 25 38 47q41 23 85 23
q33 0 56 -14q89 -56 89 -201q0 -66 -20 -144q-15 -63 -23 -68zM230 85q-29 90 -62 84q-43 -7 -68 -43q-20 -29 -20 -61q0 -21 8.5 -28t25.5 -7q46 0 116 55zM355 474q0 -22 -19 -22q-2 0 -12 2q-23 7 -118 90q-98 84 -129 129q-5 8 -5 18q0 20 23 20q9 0 19 -3q7 -1 31 -30
q47 -52 79 -82l43 -42q27 -27 47 -37l15 -1q10 0 18 -13.5t8 -28.5z" />
    <glyph glyph-name="aacute" unicode="&#xe1;" horiz-adv-x="369" 
d="M287 5q-5 -5 -15 -4q-21 1 -27 31q-76 -50 -133 -50q-36 0 -57.5 21.5t-21.5 57.5q0 51 37 100q38 50 85 57q74 11 109 -94q16 39 16 91q0 69 -33 129q-23 41 -67 41q-28 0 -54 -15q-25 -13 -27 -26q1 -2 -1.5 -3.5t-6.5 -1.5q-27 0 -29 23q-1 25 38 47q41 23 85 23
q33 0 56 -14q89 -56 89 -201q0 -66 -20 -144q-15 -63 -23 -68zM230 85q-29 90 -62 84q-43 -7 -68 -43q-20 -29 -20 -61q0 -21 8.5 -28t25.5 -7q46 0 116 55zM385 735q-1 -7 -25 -35q-42 -48 -71 -90q-29 -40 -66 -99l2 -17q0 -8 -12 -19q-17 -12 -31 -12q-23 0 -19 28
q4 25 73 131q70 108 109 144q8 8 21 8q24 0 19 -39z" />
    <glyph glyph-name="acircumflex" unicode="&#xe2;" horiz-adv-x="369" 
d="M287 5q-5 -5 -15 -4q-21 1 -27 31q-76 -50 -133 -50q-36 0 -57.5 21.5t-21.5 57.5q0 51 37 100q38 50 85 57q74 11 109 -94q16 39 16 91q0 69 -33 129q-23 41 -67 41q-28 0 -54 -15q-25 -13 -27 -26q1 -2 -1.5 -3.5t-6.5 -1.5q-27 0 -29 23q-1 25 38 47q41 23 85 23
q33 0 56 -14q89 -56 89 -201q0 -66 -20 -144q-15 -63 -23 -68zM230 85q-29 90 -62 84q-43 -7 -68 -43q-20 -29 -20 -61q0 -21 8.5 -28t25.5 -7q46 0 116 55zM337 572q8 -6 8 -22q0 -25 -20 -25q-26 0 -49 44q-16 30 -23 45q-6 2 -53 -36q-46 -37 -49 -48q-8 -23 -27 -23
q-9 0 -17.5 11.5t-8.5 23.5q0 13 13 23q42 42 135 116l12 9q6 3 19 -1q23 -6 24 -30q5 -61 36 -87z" />
    <glyph glyph-name="atilde" unicode="&#xe3;" horiz-adv-x="369" 
d="M444 611q-1 -2 -15 -7q-22 -8 -68 -53q-53 -53 -92 -53q-26 0 -33 19q-8 38 -13 57q-10 43 -30 46q-21 4 -62 -23q-38 -25 -58 -57q-18 -31 -28 -31q-22 0 -22 21q0 14 12 33q19 32 63 67q56 45 103 45q24 0 44 -32q19 -30 26 -71q4 -16 15 -16q18 0 55 40q55 58 77 56
q28 -3 28 -28q0 -3 -2 -13zM287 5q-5 -5 -15 -4q-21 1 -27 31q-76 -50 -133 -50q-36 0 -57.5 21.5t-21.5 57.5q0 51 37 100q38 50 85 57q74 11 109 -94q16 39 16 91q0 69 -33 129q-23 41 -67 41q-28 0 -54 -15q-25 -13 -27 -26q1 -2 -1.5 -3.5t-6.5 -1.5q-27 0 -29 23
q-1 25 38 47q41 23 85 23q33 0 56 -14q89 -56 89 -201q0 -66 -20 -144q-15 -63 -23 -68zM230 85q-29 90 -62 84q-43 -7 -68 -43q-20 -29 -20 -61q0 -21 8.5 -28t25.5 -7q46 0 116 55z" />
    <glyph glyph-name="adieresis" unicode="&#xe4;" horiz-adv-x="369" 
d="M287 5q-5 -5 -15 -4q-21 1 -27 31q-76 -50 -133 -50q-36 0 -57.5 21.5t-21.5 57.5q0 51 37 100q38 50 85 57q74 11 109 -94q16 39 16 91q0 69 -33 129q-23 41 -67 41q-28 0 -54 -15q-25 -13 -27 -26q1 -2 -1.5 -3.5t-6.5 -1.5q-27 0 -29 23q-1 25 38 47q41 23 85 23
q33 0 56 -14q89 -56 89 -201q0 -66 -20 -144q-15 -63 -23 -68zM230 85q-29 90 -62 84q-43 -7 -68 -43q-20 -29 -20 -61q0 -21 8.5 -28t25.5 -7q46 0 116 55zM339 621q-2 -9 -10 -24q-23 -48 -28 -80q-2 -12 -8 -22q-11 -9 -19 -9q-18 0 -18 34q0 31 17 68q8 18 11 28l8 25
q7 13 21 13q12 0 19.5 -9.5t6.5 -23.5zM188 625q-2 -4 -9 -25q-9 -26 -9 -67q-2 -19 -6 -27q-7 -10 -26 -7q-14 3 -14 41q0 24 4 49q1 4 11 56q8 20 21 20q6 0 13 -3q22 -12 15 -37z" />
    <glyph glyph-name="aring" unicode="&#xe5;" horiz-adv-x="369" 
d="M287 5q-5 -5 -15 -4q-21 1 -27 31q-76 -50 -133 -50q-36 0 -57.5 21.5t-21.5 57.5q0 51 37 100q38 50 85 57q74 11 109 -94q16 39 16 91q0 69 -33 129q-23 41 -67 41q-28 0 -54 -15q-25 -13 -27 -26q1 -2 -1.5 -3.5t-6.5 -1.5q-27 0 -29 23q-1 25 38 47q41 23 85 23
q33 0 56 -14q89 -56 89 -201q0 -66 -20 -144q-15 -63 -23 -68zM230 85q-29 90 -62 84q-43 -7 -68 -43q-20 -29 -20 -61q0 -21 8.5 -28t25.5 -7q46 0 116 55zM320 659q13 -10 13 -32q0 -31 -32 -68q-53 -59 -97 -59q-12 0 -24 4q-31 7 -31 51q0 28 14 61q30 64 92 64
q39 0 65 -21zM261 636q-29 0 -47 -18q-6 -6 -13 -25t-7 -33q0 -21 18 -18q19 5 48 32q31 28 31 46q0 16 -30 16z" />
    <glyph glyph-name="ae" unicode="&#xe6;" horiz-adv-x="747" 
d="M738 219q15 -11 15 -27q0 -21 -23 -38l-113 -84q-113 -75 -183 -75q-73 0 -122 82q-16 -67 -25 -72q-5 -5 -15 -4q-21 1 -27 31q-76 -50 -133 -50q-36 0 -57.5 21.5t-21.5 57.5q0 51 37 100q38 50 85 57q74 11 109 -94q16 39 16 91q0 69 -33 129q-23 41 -67 41
q-28 0 -54 -15q-25 -13 -27 -26q1 -2 -1.5 -3.5t-6.5 -1.5q-27 0 -29 23q-1 25 38 47q41 23 85 23q50 0 89 -41q33 -35 47 -91q38 50 102 82q63 31 126 31q54 0 92 -26q2 -2 2 -3q0 -11 -47 -46q-49 -37 -99 -65q-30 -17 -154 -57q-5 -15 -5 -34q0 -42 26 -83q34 -55 84 -53
q51 2 147 66q79 53 94 75q21 37 35 37q6 0 14 -5zM554 367q-16 0 -32 -3q-85 -15 -155 -91q25 5 43 12q49 15 71 30q36 24 73 52zM230 85q-29 90 -62 84q-43 -7 -68 -43q-20 -29 -20 -61q0 -21 8.5 -28t25.5 -7q46 0 116 55z" />
    <glyph glyph-name="ccedilla" unicode="&#xe7;" horiz-adv-x="510" 
d="M547 183q-2 -9 -91 -63q-105 -64 -195 -95q-7 -48 10 -70l30 -34q15 -19 15 -41q0 -14 -4 -26q-12 -38 -54 -78q-24 -22 -49.5 -38t-40 -21t-20.5 -5q-25 0 -25 25q0 9 6.5 18t14.5 9q3 0 6 -1h7q21 0 54 27q56 47 56 84q0 15 -11 26q-49 42 -50 87q0 7 -3 22
q-37 -9 -69 -9q-71 0 -106 44q-19 23 -19 59q0 83 86 190q83 102 152 113q6 1 17 1q34 0 34 -24q0 -15 -13 -31.5t-27 -16.5q-3 0 -16 2.5t-17 2.5q-5 0 -8 -1q-28 -8 -85 -83q-68 -88 -68 -144q0 -36 30 -55q19 -11 47 -11q80 0 231 79l145 82q6 2 9 2q10 0 16.5 -8.5
t4.5 -17.5z" />
    <glyph glyph-name="egrave" unicode="&#xe8;" horiz-adv-x="486" 
d="M477 219q15 -11 15 -27q0 -21 -23 -38l-114 -84q-113 -75 -182 -75q-64 0 -112 65q-43 61 -43 127q0 92 88 161q83 65 176 65q51 0 86 -23q4 -1 4 -7q0 -17 -50 -58q-43 -35 -92 -65q-69 -42 -151 -46q-3 -12 -3 -29q0 -44 27 -86q34 -55 84 -53t146 66q80 55 95 75
q21 37 34 37q7 0 15 -5zM295 365q-55 0 -110 -28q-48 -24 -82 -67q18 2 36 6q82 21 156 89zM405 474q0 -22 -19 -22q-2 0 -12 2q-23 7 -118 90q-98 84 -129 129q-5 8 -5 18q0 20 23 20q9 0 19 -3q7 -1 31 -30q47 -52 79 -82l43 -42q27 -27 47 -37l15 -1q10 0 18 -13.5
t8 -28.5z" />
    <glyph glyph-name="eacute" unicode="&#xe9;" horiz-adv-x="486" 
d="M477 219q15 -11 15 -27q0 -21 -23 -38l-114 -84q-113 -75 -182 -75q-64 0 -112 65q-43 61 -43 127q0 92 88 161q83 65 176 65q51 0 86 -23q4 -1 4 -7q0 -17 -50 -58q-43 -35 -92 -65q-69 -42 -151 -46q-3 -12 -3 -29q0 -44 27 -86q34 -55 84 -53t146 66q80 55 95 75
q21 37 34 37q7 0 15 -5zM295 365q-55 0 -110 -28q-48 -24 -82 -67q18 2 36 6q82 21 156 89zM385 695q-1 -7 -25 -35q-42 -48 -71 -90q-29 -40 -66 -99l2 -17q0 -8 -12 -19q-17 -12 -31 -12q-23 0 -19 28q4 25 73 131q70 108 109 144q8 8 21 8q24 0 19 -39z" />
    <glyph glyph-name="ecircumflex" unicode="&#xea;" horiz-adv-x="486" 
d="M477 219q15 -11 15 -27q0 -21 -23 -38l-114 -84q-113 -75 -182 -75q-64 0 -112 65q-43 61 -43 127q0 92 88 161q83 65 176 65q51 0 86 -23q4 -1 4 -7q0 -17 -50 -58q-43 -35 -92 -65q-69 -42 -151 -46q-3 -12 -3 -29q0 -44 27 -86q34 -55 84 -53t146 66q80 55 95 75
q21 37 34 37q7 0 15 -5zM295 365q-55 0 -110 -28q-48 -24 -82 -67q18 2 36 6q82 21 156 89zM397 572q8 -6 8 -22q0 -25 -20 -25q-26 0 -49 44q-16 30 -23 45q-6 2 -53 -36q-46 -37 -49 -48q-8 -23 -27 -23q-9 0 -17.5 11.5t-8.5 23.5q0 13 13 23q42 42 135 116l12 9
q6 3 19 -1q23 -6 24 -30q5 -61 36 -87z" />
    <glyph glyph-name="edieresis" unicode="&#xeb;" horiz-adv-x="486" 
d="M477 219q15 -11 15 -27q0 -21 -23 -38l-114 -84q-113 -75 -182 -75q-64 0 -112 65q-43 61 -43 127q0 92 88 161q83 65 176 65q51 0 86 -23q4 -1 4 -7q0 -17 -50 -58q-43 -35 -92 -65q-69 -42 -151 -46q-3 -12 -3 -29q0 -44 27 -86q34 -55 84 -53t146 66q80 55 95 75
q21 37 34 37q7 0 15 -5zM295 365q-55 0 -110 -28q-48 -24 -82 -67q18 2 36 6q82 21 156 89zM399 621q-2 -9 -10 -24q-23 -48 -28 -80q-2 -12 -8 -22q-11 -9 -19 -9q-18 0 -18 34q0 31 17 68q8 18 11 28l8 25q7 13 21 13q12 0 19.5 -9.5t6.5 -23.5zM248 625q-2 -4 -9 -25
q-9 -26 -9 -67q-2 -19 -6 -27q-7 -10 -26 -7q-14 3 -14 41q0 24 4 49q1 4 11 56q8 20 21 20q6 0 13 -3q22 -12 15 -37z" />
    <glyph glyph-name="igrave" unicode="&#xec;" horiz-adv-x="234" 
d="M290 474q0 -22 -19 -22q-2 0 -12 2q-23 7 -118 90q-97 84 -129 129q-5 8 -5 18q0 20 23 20q8 0 19 -3q7 -1 31 -30q47 -52 79 -82l43 -42q27 -27 47 -37l15 -1q10 0 18 -13.5t8 -28.5zM154 365q-21 -193 -24 -243q-1 -23 2 -42.5t6 -30.5l4 -11q0 -8 -3 -18
q-5 -15 -24 -15q-12 0 -24 9q-12 10 -12 65q0 13 10 216q5 76 5 77q6 35 27 37q15 1 25 -11.5t8 -32.5z" />
    <glyph glyph-name="iacute" unicode="&#xed;" horiz-adv-x="234" 
d="M266 695q-1 -7 -25 -35q-42 -48 -71 -90q-28 -40 -66 -99l2 -17q0 -8 -12 -19q-16 -12 -31 -12q-23 0 -19 28q4 25 73 131q70 108 109 144q8 8 21 8q23 0 19 -39zM154 365q-21 -193 -24 -243q-1 -23 2 -42.5t6 -30.5l4 -11q0 -8 -3 -18q-5 -15 -24 -15q-12 0 -24 9
q-12 10 -12 65q0 13 10 216q5 76 5 77q6 35 27 37q15 1 25 -11.5t8 -32.5z" />
    <glyph glyph-name="icircumflex" unicode="&#xee;" horiz-adv-x="234" 
d="M252 572q8 -6 8 -22q0 -25 -20 -25q-26 0 -49 44q-16 30 -23 45q-6 2 -53 -36q-46 -37 -49 -48q-8 -23 -27 -23q-9 0 -17.5 11.5t-8.5 23.5q0 13 13 23q42 42 135 116l12 9q6 3 19 -1q22 -6 24 -30q4 -61 36 -87zM154 365q-21 -193 -24 -243q-1 -23 2 -42.5t6 -30.5
l4 -11q0 -8 -3 -18q-5 -15 -24 -15q-12 0 -24 9q-12 10 -12 65q0 13 10 216q5 76 5 77q6 35 27 37q15 1 25 -11.5t8 -32.5z" />
    <glyph glyph-name="idieresis" unicode="&#xef;" horiz-adv-x="234" 
d="M269 631q-2 -9 -10 -24q-23 -48 -28 -80q-2 -12 -8 -22q-11 -9 -19 -9q-18 0 -18 34q0 31 17 68q8 18 11 28l8 25q7 13 21 13q12 0 19.5 -9.5t6.5 -23.5zM118 635q-2 -4 -9 -25q-9 -26 -9 -67q-2 -19 -6 -27q-7 -10 -26 -7q-14 3 -14 41q0 24 4 49q1 4 11 56q8 20 21 20
q6 0 13 -3q22 -12 15 -37zM154 365q-21 -193 -24 -243q-1 -23 2 -42.5t6 -30.5l4 -11q0 -8 -3 -18q-5 -15 -24 -15q-12 0 -24 9q-12 10 -12 65q0 13 10 216q5 76 5 77q6 35 27 37q15 1 25 -11.5t8 -32.5z" />
    <glyph glyph-name="eth" unicode="&#xf0;" horiz-adv-x="483" 
d="M505 606q-14 -13 -85 -40q14 -29 19 -64q7 -49 7 -77q0 -27 -15 -86q39 -19 61 -31q8 -18 8 -28q0 -20 -19 -24q-3 -1 -10 -1q-15 0 -25 12q-14 17 -15 18q-4 3 -19 3q-11 -24 -32 -61q-45 -77 -98 -135q-37 -42 -88 -76q-64 -42 -109 -42q-31 0 -52 21.5t-21 56.5
q0 46 35 102q31 51 78 90q102 84 251 97q19 45 19 106q0 62 -22 102q-90 -31 -137 -35q-11 0 -20 6t-9 15q0 13 16 29q3 3 30 8q35 6 89 20q-47 47 -105 47q-77 0 -130 -44q-4 -4 -14 -4q-13 0 -24 7.5t-11 16.5q0 30 71 53q58 19 95 18q105 -1 170 -79q36 11 51 21l8 13
q6 8 22 9q41 0 41 -25q0 -8 -11 -19zM356 286q-35 -4 -70 -15q-83 -26 -140 -77q-30 -27 -55 -67q-29 -46 -29 -73q0 -29 24 -29q30 0 86 40q54 37 76 67l55 69q36 47 53 85z" />
    <glyph glyph-name="ntilde" unicode="&#xf1;" horiz-adv-x="384" 
d="M428 611q-1 -2 -15 -7q-23 -8 -68 -53q-53 -53 -92 -53q-26 0 -33 19q-8 38 -13 57q-10 43 -30 46q-21 4 -62 -23q-38 -25 -58 -57q-18 -31 -28 -31q-22 0 -22 21q0 14 12 33q19 32 63 67q56 45 103 45q24 0 44 -32q19 -30 26 -71q4 -16 15 -16q18 0 55 40q55 58 77 56
q28 -3 28 -28q0 -3 -2 -13zM277 436q32 0 44.5 -49.5t12.5 -178.5v-43q0 -131 3 -141q17 -36 17 -49q0 -25 -23 -25q-16 0 -30.5 13.5t-14.5 31.5l3 23v2q0 2 -0.5 7t-1.5 12t-1.5 17t-1.5 22q-5 53 -5 102l1 82q0 104 -13 104q-21 0 -83.5 -132t-80.5 -213q-8 -36 -32 -36
q-28 0 -28 53l1 16q1 15 3 41t4 58.5t4 68.5t4 69.5t3 63.5t1 49q0 28 27 28q25 0 26.5 -69.5t-9.5 -176.5q27 91 84.5 170.5t85.5 79.5z" />
    <glyph glyph-name="ograve" unicode="&#xf2;" horiz-adv-x="366" 
d="M342 264q2 -22 2 -34q0 -99 -77 -171q-69 -63 -141 -63q-21 0 -37 8q-29 15 -50 56t-21 88q0 40 17 79q77 173 166 180q38 3 78 -28q53 -39 63 -115zM281 302q-11 23 -23 35q-17 14 -47 18l1 -5q-26 -6 -48 -24q-55 -44 -86 -138q-6 -16 -6 -39q0 -35 14 -65
q20 -36 51 -36q33 0 74 32q39 28 54 59q29 60 29 103q0 33 -13 60zM375 474q0 -22 -19 -22q-2 0 -12 2q-23 7 -118 90q-98 84 -129 129q-5 8 -5 18q0 20 23 20q9 0 19 -3q7 -1 31 -30q47 -52 79 -82l43 -42q27 -27 47 -37l15 -1q10 0 18 -13.5t8 -28.5z" />
    <glyph glyph-name="oacute" unicode="&#xf3;" horiz-adv-x="366" 
d="M342 264q2 -22 2 -34q0 -99 -77 -171q-69 -63 -141 -63q-21 0 -37 8q-29 15 -50 56t-21 88q0 40 17 79q77 173 166 180q38 3 78 -28q53 -39 63 -115zM281 302q-11 23 -23 35q-17 14 -47 18l1 -5q-26 -6 -48 -24q-55 -44 -86 -138q-6 -16 -6 -39q0 -35 14 -65
q20 -36 51 -36q33 0 74 32q39 28 54 59q29 60 29 103q0 33 -13 60zM395 715q-1 -7 -25 -35q-42 -48 -71 -90q-29 -40 -66 -99l2 -17q0 -9 -12 -19q-17 -12 -31 -12q-23 0 -19 28q4 25 73 131q70 108 109 144q8 8 21 8q24 0 19 -39z" />
    <glyph glyph-name="ocircumflex" unicode="&#xf4;" horiz-adv-x="366" 
d="M342 264q2 -22 2 -34q0 -99 -77 -171q-69 -63 -141 -63q-21 0 -37 8q-29 15 -50 56t-21 88q0 40 17 79q77 173 166 180q38 3 78 -28q53 -39 63 -115zM281 302q-11 23 -23 35q-17 14 -47 18l1 -5q-26 -6 -48 -24q-55 -44 -86 -138q-6 -16 -6 -39q0 -35 14 -65
q20 -36 51 -36q33 0 74 32q39 28 54 59q29 60 29 103q0 33 -13 60zM347 572q8 -6 8 -22q0 -25 -20 -25q-26 0 -49 44q-16 30 -23 45q-6 2 -53 -36q-46 -37 -49 -48q-8 -23 -27 -23q-9 0 -17.5 11.5t-8.5 23.5q0 13 13 23q42 42 135 116l12 9q6 3 19 -1q23 -6 24 -30
q5 -61 36 -87z" />
    <glyph glyph-name="otilde" unicode="&#xf5;" horiz-adv-x="366" 
d="M342 264q2 -22 2 -34q0 -99 -77 -171q-69 -63 -141 -63q-21 0 -37 8q-29 15 -50 56t-21 88q0 40 17 79q77 173 166 180q38 3 78 -28q53 -39 63 -115zM281 302q-11 23 -23 35q-17 14 -47 18l1 -5q-26 -6 -48 -24q-55 -44 -86 -138q-6 -16 -6 -39q0 -35 14 -65
q20 -36 51 -36q33 0 74 32q39 28 54 59q29 60 29 103q0 33 -13 60zM441 611q-1 -2 -15 -7q-22 -8 -68 -53q-53 -53 -92 -53q-26 0 -33 19q-8 38 -13 57q-10 43 -30 46q-21 4 -62 -23q-38 -25 -58 -57q-18 -31 -28 -31q-22 0 -22 21q0 14 12 33q19 32 63 67q56 45 103 45
q24 0 44 -32q19 -30 26 -71q4 -16 15 -16q18 0 55 40q55 58 77 56q28 -3 28 -28q0 -3 -2 -13z" />
    <glyph glyph-name="odieresis" unicode="&#xf6;" horiz-adv-x="366" 
d="M342 264q2 -22 2 -34q0 -99 -77 -171q-69 -63 -141 -63q-21 0 -37 8q-29 15 -50 56t-21 88q0 40 17 79q77 173 166 180q38 3 78 -28q53 -39 63 -115zM281 302q-11 23 -23 35q-17 14 -47 18l1 -5q-26 -6 -48 -24q-55 -44 -86 -138q-6 -16 -6 -39q0 -35 14 -65
q20 -36 51 -36q33 0 74 32q39 28 54 59q29 60 29 103q0 33 -13 60zM349 641q-2 -9 -10 -24q-23 -48 -28 -80q-2 -12 -8 -22q-11 -9 -19 -9q-18 0 -18 34q0 31 17 68q8 18 11 28l8 25q7 13 21 13q12 0 19.5 -9.5t6.5 -23.5zM198 645q-2 -4 -9 -25q-9 -26 -9 -67
q-2 -19 -6 -27q-7 -10 -26 -7q-14 3 -14 41q0 24 4 49q1 4 11 56q8 20 21 20q6 0 13 -3q22 -12 15 -37z" />
    <glyph glyph-name="divide" unicode="&#xf7;" 
d="M364 363q-8 -24 -33 -24q-18 0 -33.5 14.5t-15.5 33.5q0 20 19 32q16 8 22 8q10 0 25 -6q21 -9 21 -32q0 -8 -5 -26zM544 260q0 -14 -17 -20q-11 -4 -53 -4q-128 0 -216 -19q-100 -20 -118 -20q-29 0 -32 15q-8 34 48 48q37 10 136 17q123 9 182 9q70 0 70 -26zM361 122
q2 -56 -37 -56q-19 0 -34 15t-15 34q0 29 39 37q16 2 31.5 -7t15.5 -23z" />
    <glyph glyph-name="oslash" unicode="&#xf8;" horiz-adv-x="366" 
d="M476 518q0 -6 -17 -28q-17 -21 -26 -22q-24 -5 -117 -130q28 -46 28 -108q0 -99 -77 -171q-69 -63 -141 -63q-12 0 -23 3l-24 -45q-6 -22 -28 -69q-8 -11 -22 -11q-31 0 -31 26q0 29 60 130q-40 49 -40 118q0 40 17 79q77 173 166 180q43 3 86 -34l44 54q52 59 95 115
q6 13 26 13q28 0 24 -37zM258 337q-17 14 -47 18l1 -5q-26 -6 -48 -24q-55 -44 -86 -138q-6 -16 -6 -39q0 -39 16 -67q92 154 170 255zM284 294q-104 -155 -155 -245q34 -5 78 28q41 29 58 62q29 60 29 103q0 28 -10 52z" />
    <glyph glyph-name="ugrave" unicode="&#xf9;" horiz-adv-x="342" 
d="M312 347q0 -45 -6 -96t-21 -110.5t-46.5 -98t-74.5 -38.5q-27 0 -47 10.5t-33.5 34.5t-22 53.5t-12.5 78t-5.5 97t-1.5 121.5q0 32 20 32q35 0 35 -38l-1 -42q0 -49 0.5 -74t2 -65.5t6 -61.5t12 -44t19.5 -33t29 -10q14 0 25 7.5t19.5 22.5t15 30.5t11 41l7.5 42.5
t5 45.5t2.5 41t1.5 38t1 27.5q1 36 32 36q12 0 19.5 -14.5t7.5 -33.5zM335 474q0 -22 -19 -22q-2 0 -12 2q-23 7 -118 90q-98 84 -129 129q-5 8 -5 18q0 20 23 20q9 0 19 -3q7 -1 31 -30q47 -52 79 -82l43 -42q27 -27 47 -37l15 -1q10 0 18 -13.5t8 -28.5z" />
    <glyph glyph-name="uacute" unicode="&#xfa;" horiz-adv-x="342" 
d="M312 347q0 -45 -6 -96t-21 -110.5t-46.5 -98t-74.5 -38.5q-27 0 -47 10.5t-33.5 34.5t-22 53.5t-12.5 78t-5.5 97t-1.5 121.5q0 32 20 32q35 0 35 -38l-1 -42q0 -49 0.5 -74t2 -65.5t6 -61.5t12 -44t19.5 -33t29 -10q14 0 25 7.5t19.5 22.5t15 30.5t11 41l7.5 42.5
t5 45.5t2.5 41t1.5 38t1 27.5q1 36 32 36q12 0 19.5 -14.5t7.5 -33.5zM385 695q-1 -7 -25 -35q-42 -48 -71 -90q-29 -40 -66 -99l2 -17q0 -8 -12 -19q-17 -12 -31 -12q-23 0 -19 28q4 25 73 131q70 108 109 144q8 8 21 8q24 0 19 -39z" />
    <glyph glyph-name="ucircumflex" unicode="&#xfb;" horiz-adv-x="342" 
d="M312 347q0 -45 -6 -96t-21 -110.5t-46.5 -98t-74.5 -38.5q-27 0 -47 10.5t-33.5 34.5t-22 53.5t-12.5 78t-5.5 97t-1.5 121.5q0 32 20 32q35 0 35 -38l-1 -42q0 -49 0.5 -74t2 -65.5t6 -61.5t12 -44t19.5 -33t29 -10q14 0 25 7.5t19.5 22.5t15 30.5t11 41l7.5 42.5
t5 45.5t2.5 41t1.5 38t1 27.5q1 36 32 36q12 0 19.5 -14.5t7.5 -33.5zM317 572q8 -6 8 -22q0 -25 -20 -25q-26 0 -49 44q-16 30 -23 45q-6 2 -53 -36q-46 -37 -49 -48q-8 -23 -27 -23q-9 0 -17.5 11.5t-8.5 23.5q0 13 13 23q42 42 135 116l12 9q6 3 19 -1q23 -6 24 -30
q5 -61 36 -87z" />
    <glyph glyph-name="udieresis" unicode="&#xfc;" horiz-adv-x="342" 
d="M312 347q0 -45 -6 -96t-21 -110.5t-46.5 -98t-74.5 -38.5q-27 0 -47 10.5t-33.5 34.5t-22 53.5t-12.5 78t-5.5 97t-1.5 121.5q0 32 20 32q35 0 35 -38l-1 -42q0 -49 0.5 -74t2 -65.5t6 -61.5t12 -44t19.5 -33t29 -10q14 0 25 7.5t19.5 22.5t15 30.5t11 41l7.5 42.5
t5 45.5t2.5 41t1.5 38t1 27.5q1 36 32 36q12 0 19.5 -14.5t7.5 -33.5zM329 621q-2 -9 -10 -24q-23 -48 -28 -80q-2 -12 -8 -22q-11 -9 -19 -9q-18 0 -18 34q0 31 17 68q8 18 11 28l8 25q7 13 21 13q12 0 19.5 -9.5t6.5 -23.5zM178 625q-2 -4 -9 -25q-9 -26 -9 -67
q-2 -19 -6 -27q-7 -10 -26 -7q-14 3 -14 41q0 24 4 49q1 4 11 56q8 20 21 20q6 0 13 -3q22 -12 15 -37z" />
    <glyph glyph-name="yacute" unicode="&#xfd;" horiz-adv-x="393" 
d="M348 -106q-18 -4 -27 -7v-88q0 -35 -0.5 -58.5t-4 -62t-9 -65t-17.5 -58t-28.5 -50.5t-42 -32t-57.5 -13q-60 0 -87.5 37t-27.5 97q0 89 62 183.5t159 139.5q-2 156 -3 241q-15 -67 -45 -109.5t-74 -42.5q-48 0 -77.5 68t-29.5 195q0 68 7 141q2 20 8.5 26.5t19.5 6.5
q27 0 27 -35q0 -5 -4.5 -65t-4.5 -103q0 -76 13.5 -127.5t42.5 -51.5q72 0 117 293v14q0 37 29 37q6 0 11.5 -4.5t5.5 -11.5q0 -16 4 -170.5t5 -282.5q16 4 24 5q16 3 28 3q43 0 43 -33q0 -12 -9 -23t-31 -11q-18 0 -27 17zM103 -397q0 -45 14.5 -67.5t49.5 -22.5
q28 0 48.5 22t30.5 51t15.5 74.5t6.5 75t1 69.5v60q-73 -41 -119.5 -117.5t-46.5 -144.5zM405 765q-1 -7 -25 -35q-42 -48 -71 -90q-29 -40 -66 -99l2 -17q0 -8 -12 -19q-17 -12 -31 -12q-23 0 -19 28q4 25 73 131q70 108 109 144q8 8 21 8q24 0 19 -39z" />
    <glyph glyph-name="thorn" unicode="&#xfe;" horiz-adv-x="348" 
d="M336 244q4 -38 -44 -100q-34 -45 -92 -97q-50 -43 -60 -45q-11 -3 -24 6t-16 19q-5 -40 -13 -226q-3 -175 4 -188q5 -12 5 -19q0 -14 -9.5 -22.5t-20.5 -5.5q-29 8 -29 41q0 11 4 18q1 1 1 10l-3 59q-3 56 -3 109q0 30 2 88q6 128 17 240l29 220q-28 10 -25 34
q5 17 32 30l18 231q11 89 35 98q15 5 22 5q19 0 19 -28q0 -17 -6 -45q-9 -43 -32 -252q61 -9 117 -53q64 -52 72 -127zM281 236q8 38 -40 84q-49 47 -100 50q-3 -38 -15 -136q-9 -57 -24 -184q44 22 80 51q84 66 99 135z" />
    <glyph glyph-name="ydieresis" unicode="&#xff;" horiz-adv-x="393" 
d="M348 -106q-18 -4 -27 -7v-88q0 -35 -0.5 -58.5t-4 -62t-9 -65t-17.5 -58t-28.5 -50.5t-42 -32t-57.5 -13q-60 0 -87.5 37t-27.5 97q0 89 62 183.5t159 139.5q-2 156 -3 241q-15 -67 -45 -109.5t-74 -42.5q-48 0 -77.5 68t-29.5 195q0 68 7 141q2 20 8.5 26.5t19.5 6.5
q27 0 27 -35q0 -5 -4.5 -65t-4.5 -103q0 -76 13.5 -127.5t42.5 -51.5q72 0 117 293v14q0 37 29 37q6 0 11.5 -4.5t5.5 -11.5q0 -16 4 -170.5t5 -282.5q16 4 24 5q16 3 28 3q43 0 43 -33q0 -12 -9 -23t-31 -11q-18 0 -27 17zM103 -397q0 -45 14.5 -67.5t49.5 -22.5
q28 0 48.5 22t30.5 51t15.5 74.5t6.5 75t1 69.5v60q-73 -41 -119.5 -117.5t-46.5 -144.5zM369 671q-2 -9 -10 -24q-23 -48 -28 -80q-2 -12 -8 -22q-11 -9 -19 -9q-18 0 -18 34q0 31 17 68q8 18 11 28l8 25q7 13 21 13q12 0 19.5 -9.5t6.5 -23.5zM218 675q-2 -4 -9 -25
q-9 -26 -9 -67q-2 -19 -6 -27q-7 -10 -26 -7q-14 3 -14 41q0 24 4 49q1 4 11 56q8 20 21 20q6 0 13 -3q22 -12 15 -37z" />
    <glyph glyph-name="dotlessi" unicode="&#x131;" horiz-adv-x="234" 
d="M154 365q-21 -193 -24 -243q-1 -23 2 -42.5t6 -30.5l4 -11q0 -8 -3 -18q-5 -15 -24 -15q-12 0 -24 9q-12 10 -12 65q0 13 10 216q5 76 5 77q6 35 27 37q15 1 25 -11.5t8 -32.5z" />
    <glyph glyph-name="Lslash" unicode="&#x141;" horiz-adv-x="570" 
d="M593 200l-208 -69q-195 -68 -268 -116q-41 -27 -53 -27q-11 0 -21 7q-19 10 -19 27q0 7 9 29.5t9 28.5q5 93 15 209q-56 -29 -72 -29q-24 0 -24 19q0 11 10 27q5 7 24 14q43 18 68 31q13 151 24 204q3 18 5 76q0 41 5 58q7 24 35 24q31 0 31 -65q0 -66 -22 -138
q-13 -40 -23 -128q39 21 55 37l5 14q4 10 20 14q5 1 14 1q31 0 31 -20q0 -8 -6 -17q-20 -27 -125 -90q-4 -49 -1 -71q1 -7 1 -24q0 -23 -4 -66q-4 -48 -3 -75q79 31 130 49q153 54 283 85q22 5 40 5q44 0 44 -15q0 -5 -9 -9z" />
    <glyph glyph-name="lslash" unicode="&#x142;" horiz-adv-x="213" 
d="M253 411q-17 -25 -113 -84q-19 -183 -10 -320q5 -65 -24 -65q-10 0 -23 9q-12 7 -12 89q0 92 13 255q-44 -25 -73 -34q-3 -1 -9 -1q-24 0 -24 19q0 11 10 27q3 6 25 15q38 15 76 35q4 53 12 137l14 158q6 63 15 70q11 8 20 8q13 0 28 -16q8 -10 8 -27q0 -19 -10 -89
q-20 -138 -29 -208q29 16 43 30l5 14q3 10 19 14q5 1 15 1q31 0 31 -20q0 -9 -7 -17z" />
    <glyph glyph-name="OE" unicode="&#x152;" horiz-adv-x="954" 
d="M970 262q-63 -15 -202 -70q-113 -47 -194 -85q-138 -66 -145 -65q-15 2 -21 5q-118 -67 -214 -67q-46 0 -83 17q-96 43 -96 169q0 144 110 304q109 160 213 162q32 2 57 -6q103 43 197 72q96 31 125 31q35 0 35 -22q0 -10 -9 -22q-13 -15 -40 -15q-13 0 -23 7
q-134 -37 -216 -77l-9 -4q174 -38 220 -130q75 29 99 35q116 36 149 36q6 0 12 -2q15 -9 15 -23q0 -18 -19 -25q-7 -3 -49 -6q-40 -1 -76 -15q-51 -19 -115 -45q4 -24 3 -52q-5 -84 -124 -199l177 66q189 69 224 69q8 0 15 -4q27 -11 27 -22q0 -3 -2 -5t-41 -12zM636 371
q0 10 -2 28q-127 -52 -170 -73q-104 -50 -126 -47q-28 4 -28 31q0 10 6 19q4 6 39 15q59 18 105 37q102 42 160 64q-74 112 -266 101q-6 -3 -25 -17q-20 -15 -34 -13q-20 3 -29 14l-7 8q-83 -68 -137 -177q-52 -103 -52 -191q0 -85 52 -113q35 -20 82 -20q86 0 192 63
q95 56 166 136q73 82 74 135z" />
    <glyph glyph-name="oe" unicode="&#x153;" horiz-adv-x="756" 
d="M748 219q15 -11 15 -27q0 -21 -23 -38l-114 -84q-112 -75 -182 -75q-44 0 -84 35q-35 32 -54 76q-34 -51 -85 -80q-51 -30 -95 -30q-21 0 -37 8q-29 15 -50 56t-21 88q0 40 17 79q77 173 166 180q34 2 67 -20q46 -28 64 -84q41 51 103 80q63 30 123 30q55 0 93 -26
q1 -1 1 -3q0 -11 -47 -46q-53 -39 -98 -65q-30 -17 -154 -57q-5 -15 -5 -34q0 -42 26 -83q34 -55 84 -53q52 2 146 66q80 55 95 75q21 37 35 37q6 0 14 -5zM292 220q7 42 -11 82q-11 23 -23 35q-17 14 -47 18l1 -5q-26 -6 -48 -24q-55 -44 -86 -138q-6 -16 -6 -39
q0 -35 14 -65q20 -36 51 -36q33 0 74 32q39 28 54 59q23 43 27 81zM564 367q-16 0 -32 -3q-85 -14 -155 -91q25 5 43 12q48 16 70 30q31 19 74 52z" />
    <glyph glyph-name="Scaron" unicode="&#x160;" horiz-adv-x="621" 
d="M595 207q2 -63 -75 -125q-51 -42 -141 -86q-76 -37 -78 -41q-5 -32 -46 -32q-37 0 -44 18q-3 7 -3 16q0 18 16 31q15 12 29 13q67 9 171 75q113 71 113 119q0 71 -132 108l-246 55q-132 34 -132 97q0 70 78 133q65 51 162 87q87 32 140 30q50 -2 72 -19q6 -6 32 -42
q2 -4 2 -7q0 -8 -10.5 -15t-23.5 -7q-12 0 -28 16t-30 16q-79 1 -200 -55q-129 -60 -129 -121q0 -46 130 -77q232 -55 241 -59q130 -46 132 -128zM443 879q0 -12 -20 -27l-12 -10q-12 -11 -40.5 -36.5t-61.5 -54.5q-10 -5 -20 -15q-1 -3 -12 -3q-31 0 -33 30q-6 68 -54 107
q-8 6 -8 20q0 31 26 23q22 -6 51 -56q27 -47 31 -51q6 -2 53 36q46 37 51 49q6 22 25 22q9 0 16.5 -11t7.5 -23z" />
    <glyph glyph-name="scaron" unicode="&#x161;" horiz-adv-x="342" 
d="M323 476q4 -22 -21 -22q-9 0 -23 6t-15 6q-24 -2 -45 -20l-79 -73q-37 -34 -55 -74t-14 -63q8 -41 45 -62l86 -33q67 -26 80 -33q34 -21 39 -60q3 -27 -84 -81q-82 -51 -96 -49q-36 2 -36 27q0 7 6 15l80 38q74 38 71 57q-3 17 -63 37q-81 25 -112 43q-62 35 -68 93
q-9 77 64 160q27 31 127 115q29 25 64 10q9 -5 29 -17q19 -13 20 -20zM358 701q0 -12 -20 -27l-12 -10q-12 -11 -40.5 -36.5t-61.5 -54.5q-10 -5 -20 -15q-2 -3 -12 -3q-32 0 -33 30q-6 68 -54 107q-8 6 -8 20q0 31 26 23q22 -6 51 -56q27 -47 31 -51q6 -2 53 36
q46 37 51 49q6 22 25 22q9 0 16.5 -11t7.5 -23z" />
    <glyph glyph-name="Ydieresis" unicode="&#x178;" horiz-adv-x="526" 
d="M568 680q0 -10 -18 -22q-21 -13 -22 -16q-24 -46 -269 -257q6 -46 3 -136q-5 -132 7 -228q0 -2 7 -21.5t7 -26.5q0 -15 -14 -24q-10 -5 -19 -5q-18 0 -29 14.5t-7 35.5q2 12 -4 59q-7 53 -15 271q-10 4 -26 17q-11 34 -25 85q-27 83 -64 142q-14 22 -38 33q-18 9 -18 24
q0 23 27 23q21 0 43 -13t34 -34q26 -46 80 -181l109 86q121 101 170 163l19 25q13 16 28 16q10 0 22 -10t12 -20zM399 831q-2 -9 -10 -24q-23 -48 -28 -80q-2 -12 -8 -22q-11 -9 -19 -9q-18 0 -18 34q0 31 17 68q8 18 11 28l8 25q7 13 21 13q12 0 19.5 -9.5t6.5 -23.5z
M248 835q-2 -4 -9 -25q-9 -26 -9 -67q-2 -19 -6 -27q-7 -10 -26 -7q-14 3 -14 41q0 24 4 49q1 4 11 56q8 20 21 20q6 0 13 -3q22 -12 15 -37z" />
    <glyph glyph-name="Zcaron" unicode="&#x17d;" horiz-adv-x="690" 
d="M783 39q-9 0 -23 6q-12 4 -17 7q-15 4 -108 4q-151 0 -285 -16q-92 -13 -175 -29q-99 -19 -130 -32q-19 -8 -33 -8q-39 0 -39 35q0 9 5 16q68 105 254 363q91 116 196 230q-65 -8 -127 -20q-135 -26 -166 -54q-28 -25 -42 -25q-13 0 -25 16q-5 7 -5 13q0 22 69 64
q21 14 187 49q167 35 207 35q7 0 9 -2q24 -15 15 -44l-75 -66q-97 -91 -219 -252q-36 -47 -104 -148q-72 -104 -85 -132q72 12 281 40q129 13 276 13q148 0 162 -12q21 -14 21 -27q0 -24 -24 -24zM543 880q0 -12 -20 -27l-12 -11q-12 -10 -40.5 -35.5t-61.5 -54.5
q-10 -5 -20 -15q-1 -3 -12 -3q-31 0 -33 30q-6 68 -54 107q-8 6 -8 20q0 31 26 23q22 -6 51 -56q27 -47 31 -51q6 -2 53 36q46 37 51 49q6 22 25 22q9 0 16.5 -11t7.5 -23z" />
    <glyph glyph-name="zcaron" unicode="&#x17e;" horiz-adv-x="462" 
d="M566 98q-5 -3 -23 -5h-27q-31 -3 -212 -48q-171 -43 -243 -43q-17 0 -49 22q-6 4 -6 10q0 9 58 58q91 77 157 151q56 62 56 85q0 3 -2 5q-6 6 -54 3q-40 -3 -62 -8q-1 -1 -43 -13q-27 -8 -39 -8q-24 0 -24 19t43 35q32 13 77 19q25 4 60 4q43 0 76.5 -6t35.5 -14
q2 -6 2 -11q0 -41 -62 -115q-28 -33 -105 -107q-68 -65 -68 -69t109 12q97 15 156 27l104 24q57 14 64 11t16 -14t9 -18q0 -5 -4 -6zM438 641q0 -12 -20 -27l-12 -10q-12 -11 -40.5 -36.5t-61.5 -54.5q-10 -5 -20 -15q-2 -3 -12 -3q-32 0 -33 30q-6 68 -54 107q-8 6 -8 20
q0 31 26 23q22 -6 51 -56q27 -47 31 -51q6 -2 53 36q46 37 51 49q6 22 25 22q9 0 16.5 -11t7.5 -23z" />
    <glyph glyph-name="florin" unicode="&#x192;" horiz-adv-x="576" 
d="M586 610q-3 -17 -23 -17q-6 0 -12 3q-12 7 -25 36q-11 27 -57 37q-14 2 -20 2q-118 0 -128 -352q3 0 88 6q18 2 32 9t19 7q28 0 30 -27q1 -13 -9.5 -21.5t-31.5 -11.5q-45 -7 -76 -8q-23 -1 -54 -4q-10 -357 -134 -500q-74 -86 -179 -86q-20 0 -50 5q-5 1 -16 -1t-12 -2
q-13 0 -24.5 10.5t-11.5 27.5q0 20 13.5 34t32.5 11q21 -4 30 -18t22 -15q128 -8 201 140q68 138 74 388q-24 -1 -51 -11t-28 -10q-27 0 -27 30q0 18 16 28q11 8 31 8q31 0 63 5q7 161 31 248q42 157 146 157q8 0 26 -2q54 -10 89 -45q30 -31 25 -61z" />
    <glyph glyph-name="circumflex" unicode="&#x2c6;" horiz-adv-x="360" 
d="M297 572q8 -6 8 -22q0 -25 -20 -25q-26 0 -49 44q-16 30 -23 45q-6 2 -53 -36q-46 -37 -49 -48q-8 -23 -27 -23q-9 0 -17.5 11.5t-8.5 23.5q0 13 13 23q42 42 135 116l12 9q6 3 19 -1q23 -6 24 -30q5 -61 36 -87z" />
    <glyph glyph-name="caron" unicode="&#x2c7;" horiz-adv-x="360" 
d="M318 641q0 -12 -20 -27l-12 -10q-12 -11 -40.5 -36.5t-61.5 -54.5q-10 -5 -20 -15q-2 -3 -12 -3q-32 0 -33 30q-6 68 -54 107q-8 6 -8 20q0 31 26 23q22 -6 51 -56q27 -47 31 -51q6 -2 53 36q46 37 51 49q6 22 25 22q9 0 16.5 -11t7.5 -23z" />
    <glyph glyph-name="breve" unicode="&#x2d8;" horiz-adv-x="360" 
d="M280 606q0 -50 -30 -90q-24 -32 -56 -32q-59 0 -107 121q-3 7 -3 14q0 25 30 35q6 2 8 2q13 0 19 -30q10 -40 19 -53q28 -40 47 -40q24 0 48 51q16 34 19 34q6 0 6 -12z" />
    <glyph glyph-name="dotaccent" unicode="&#x2d9;" horiz-adv-x="183" 
d="M140 669q-6 -12 -27 -62q-8 -21 -11 -42q-1 -15 -7 -21q-15 -18 -28 -6q-8 8 -8 30q0 30 17 67l2 5q2 6 6 18.5t9 25.5q6 17 22 17q28 0 25 -32z" />
    <glyph glyph-name="ring" unicode="&#x2da;" horiz-adv-x="360" 
d="M270 659q13 -10 13 -32q0 -31 -32 -68q-53 -59 -97 -59q-12 0 -24 4q-31 7 -31 51q0 28 14 61q30 64 92 64q40 0 65 -21zM211 636q-29 0 -47 -18q-6 -6 -13 -25t-7 -33q0 -21 18 -18q19 5 48 32q31 28 31 46q0 16 -30 16z" />
    <glyph glyph-name="ogonek" unicode="&#x2db;" horiz-adv-x="270" 
d="M193 13q10 -10 10 -26q0 -33 -24 -37q-4 -1 -21 -1h-11q-56 0 -63 -19t12 -56q17 -31 53 -48q31 -15 31 -25q0 -7 -6 -15q-10 -13 -43 3q-52 27 -79 79q-17 34 -17 61q0 12 1 18q5 21 39.5 33t77.5 8q10 -1 10 5l-2 13q0 6 4 7q18 10 28 0z" />
    <glyph glyph-name="tilde" unicode="&#x2dc;" horiz-adv-x="483" 
d="M451 611q-1 -2 -15 -7q-22 -8 -68 -53q-53 -53 -92 -53q-26 0 -33 19q-8 38 -13 57q-10 43 -30 46q-21 4 -62 -23q-38 -25 -58 -57q-18 -31 -28 -31q-22 0 -22 21q0 14 12 33q19 32 63 67q55 45 103 45q24 0 44 -32q19 -30 26 -71q4 -16 15 -16q18 0 55 40q55 58 77 56
q28 -3 28 -28q0 -3 -2 -13z" />
    <glyph glyph-name="hungarumlaut" unicode="&#x2dd;" horiz-adv-x="468" 
d="M259 695q-1 -7 -25 -35q-42 -48 -71 -90q-29 -40 -66 -99l2 -17q0 -8 -12 -19q-16 -12 -31 -12q-23 0 -19 28q4 25 73 131q70 108 109 144q8 8 21 8q24 0 19 -39zM431 695q-1 -7 -25 -35q-44 -52 -70 -90q-30 -40 -66 -99q1 0 1 -17q0 -8 -12 -19q-15 -12 -31 -12
q-23 0 -19 28q4 23 74 131q69 106 108 144q10 8 21 8q24 0 19 -39z" />
    <glyph glyph-name="increment" unicode="&#x394;" horiz-adv-x="366" 
d="M342 264q2 -22 2 -34q0 -99 -77 -171q-69 -63 -141 -63q-21 0 -37 8q-29 15 -50 56t-21 88q0 40 17 79q77 173 166 180q38 3 78 -28q53 -39 63 -115zM281 302q-11 23 -23 35q-17 14 -47 18l1 -5q-26 -6 -48 -24q-55 -44 -86 -138q-6 -16 -6 -39q0 -37 15 -65
q18 -36 50 -36q33 0 74 32q39 28 54 59q29 60 29 103q0 33 -13 60zM351 518q-7 -24 -32 -24q-19 0 -34.5 14.5t-15.5 33.5q0 21 19 31q15 9 22 9q10 0 25 -6q21 -9 21 -32q0 -8 -5 -26zM170 562q2 -56 -36 -56q-19 0 -34.5 15t-15.5 34q0 30 40 37q10 1 26 -5q20 -9 20 -25z
" />
    <glyph glyph-name="increment" unicode="&#x2206;" horiz-adv-x="366" 
d="M342 264q2 -22 2 -34q0 -99 -77 -171q-69 -63 -141 -63q-21 0 -37 8q-29 15 -50 56t-21 88q0 40 17 79q77 173 166 180q38 3 78 -28q53 -39 63 -115zM281 302q-11 23 -23 35q-17 14 -47 18l1 -5q-26 -6 -48 -24q-55 -44 -86 -138q-6 -16 -6 -39q0 -37 15 -65
q18 -36 50 -36q33 0 74 32q39 28 54 59q29 60 29 103q0 33 -13 60zM351 518q-7 -24 -32 -24q-19 0 -34.5 14.5t-15.5 33.5q0 21 19 31q15 9 22 9q10 0 25 -6q21 -9 21 -32q0 -8 -5 -26zM170 562q2 -56 -36 -56q-19 0 -34.5 15t-15.5 34q0 30 40 37q10 1 26 -5q20 -9 20 -25z
" />
    <glyph glyph-name="Omega" unicode="&#x3a9;" horiz-adv-x="1443" 
d="M1425 329q0 -8 -9 -11q-3 -1 -18 -1q-27 0 -122 4q-118 5 -177 5q-135 0 -205 -15q-40 -9 -184 -77q-130 -62 -180 -62q-29 0 -45 17t-16 47q0 20 7 49q8 34 8 43q0 27 -29 27q-61 0 -207 -78q-144 -77 -185 -135q-7 -12 -19 -12q-19 0 -25 25q-5 20 63 76q72 59 162 105
q153 78 238 78q21 0 34 -8q30 -20 30 -57q0 -16 -8 -50t-8 -43q0 -25 22 -25q26 0 134 52q125 59 193 75q47 11 152 11q104 0 253 -11q128 -9 134 -15q7 -6 7 -14z" />
    <glyph glyph-name="Omega" unicode="&#x2126;" horiz-adv-x="1443" 
d="M1425 329q0 -8 -9 -11q-3 -1 -18 -1q-27 0 -122 4q-118 5 -177 5q-135 0 -205 -15q-40 -9 -184 -77q-130 -62 -180 -62q-29 0 -45 17t-16 47q0 20 7 49q8 34 8 43q0 27 -29 27q-61 0 -207 -78q-144 -77 -185 -135q-7 -12 -19 -12q-19 0 -25 25q-5 20 63 76q72 59 162 105
q153 78 238 78q21 0 34 -8q30 -20 30 -57q0 -16 -8 -50t-8 -43q0 -25 22 -25q26 0 134 52q125 59 193 75q47 11 152 11q104 0 253 -11q128 -9 134 -15q7 -6 7 -14z" />
    <glyph glyph-name="pi" unicode="&#x3c0;" horiz-adv-x="798" 
d="M749 370q17 -3 17 -21q0 -14 -6 -20.5t-19 -5.5q-55 2 -245 12q-200 13 -375 12l190 -262q23 -34 23 -59t-20 -28q-19 -3 -27 11q-6 11 -11 40q-1 11 -107 151q-103 139 -113 144q-16 8 -17 9q-8 8 -9 19q-1 13 20 28q35 54 133 191q17 20 34 34l14 12t10.5 9.5t7.5 6.5
t7.5 4t7.5 1q11 0 19 -7.5t8 -17.5q0 -5 -3 -10q-16 -10 -81 -86q-33 -42 -88 -137q105 -1 308 -9q292 -16 322 -21z" />
    <glyph glyph-name="endash" unicode="&#x2013;" horiz-adv-x="684" 
d="M662 269q0 -21 -22 -21q-7 0 -46 11q-13 6 -105 10q-94 4 -139 3q-66 -3 -170 -20q-92 -16 -113 -16q-12 0 -20 3q-26 14 -26 32q0 12 14 18q15 6 128 18q114 14 184 15q70 2 140 -2q25 -1 51 -2.5t37 -2t13 -0.5q38 0 56.5 -11.5t17.5 -34.5z" />
    <glyph glyph-name="emdash" unicode="&#x2014;" horiz-adv-x="894" 
d="M879 275q1 -25 -23 -25q-14 0 -32 12q-18 13 -470 18q-97 1 -203 -16q-91 -15 -91 -16q-27 0 -27 33q0 23 16 27q110 30 251 27q204 -5 380 -16l152 -10q15 2 31 -8t16 -26z" />
    <glyph glyph-name="quoteleft" unicode="&#x2018;" horiz-adv-x="237" 
d="M160 713q-7 -11 -21 -35q-22 -39 -26 -78q-1 -8 -1 -24q0 -44 23 -79l18 -25q-1 -1 -6 -1q-24 0 -49 23q-34 34 -38 99q-2 34 22 90q21 50 30 58q7 4 16 4q14 0 25 -11t7 -21z" />
    <glyph glyph-name="quoteright" unicode="&#x2019;" horiz-adv-x="240" 
d="M163 516q-19 -19 -55 -33t-43 -10q-5 3 -5 5t33 24q58 37 58 72q0 15 -10 32q-2 3 -7.5 14.5t-9.5 18t-13.5 17.5t-22.5 22q-23 20 -23 27q0 8 10 17q16 13 31 13q16 0 28 -14q66 -79 66 -134q0 -37 -37 -71z" />
    <glyph glyph-name="quotesinglbase" unicode="&#x201a;" horiz-adv-x="234" 
d="M141 51q62 -80 62 -129q0 -59 -67 -66q-29 -3 -65 7q-36 9 -39 18q-4 7 2 8l38 -2q75 -7 75 31q0 17 -16 49q-7 16 -34 41q-23 21 -23 30q0 6 8 14q16 13 31 13q16 0 28 -14z" />
    <glyph glyph-name="quotedblleft" unicode="&#x201c;" horiz-adv-x="342" 
d="M285 473q-3 -20 -29 -20q-10 0 -22 3q-20 6 -39 33q-25 35 -27 81q-1 37 22 113q28 88 62 88q7 0 13.5 -11.5t6.5 -22.5q0 -9 -4 -13q-50 -68 -50 -156q0 -29 15 -53q16 -23 25 -22q10 2 19.5 -4.5t7.5 -15.5zM152 732q-9 -17 -56 -177q-8 -32 -8 -57q0 -34 10 -53
q9 -16 24 -31q18 -17 18 -20q1 -8 -4 -12.5t-18 -6.5q-17 -2 -48 35q-37 44 -34 97q5 55 35 148q27 85 37 98q6 7 15 7q12 0 21 -8.5t8 -19.5z" />
    <glyph glyph-name="quotedblright" unicode="&#x201d;" horiz-adv-x="300" 
d="M141 544q-4 -82 -38 -123q-24 -29 -49 -29q-5 0 -6 1l18 32q24 43 24 99q0 9 -2 29q-4 49 -25 98l-22 44q-4 12 7 26t26 14q9 0 16 -7q8 -8 29 -70q24 -72 22 -114zM256 526q0 -15 -5 -30t-11.5 -22t-11.5 -4q-2 2 -6 40q-8 58 -26 112q-15 49 -37 82q-18 26 -18 27
q-1 9 11.5 23t23.5 14q5 0 8 -4q4 -6 10 -13.5t9.5 -12t5.5 -8.5q15 -26 28 -71q21 -72 19 -133z" />
    <glyph glyph-name="quotedblbase" unicode="&#x201e;" horiz-adv-x="402" 
d="M327 -144q-37 -21 -87 -21q-23 0 -23 8q0 3 39 16q63 21 63 59q0 13 -20 59q-6 13 -34 41q-23 21 -23 30q0 7 7 14q16 13 31 13q16 0 28 -14q63 -75 63 -131q0 -48 -44 -74zM135 51q62 -80 62 -129q0 -59 -67 -66q-29 -3 -65 7q-36 9 -39 18q-4 7 2 8l38 -2q75 -7 75 31
q0 17 -16 49q-7 16 -34 41q-23 21 -23 30q0 6 8 14q16 13 31 13q16 0 28 -14z" />
    <glyph glyph-name="dagger" unicode="&#x2020;" horiz-adv-x="451" 
d="M318 601q-34 3 -61 -1q3 -121 7 -164q1 -68 10 -188q2 -6 2 -10q0 -25 -27 -25q-31 0 -31 29q0 7 1 11q4 18 1 118q-4 128 -4 150q0 46 -1 69l-40 -14q-25 -9 -29 -9q-10 0 -19 10t-9 19q0 11 16 21t79 22q-4 54 -5 81q0 22 8 27q14 8 28 -8q10 -9 10 -21v-23l2 -49
q59 9 80 4q17 -5 17 -26q0 -25 -35 -23z" />
    <glyph glyph-name="daggerdbl" unicode="&#x2021;" horiz-adv-x="336" 
d="M283 374q-3 -1 -41 -3q-20 -1 -45 -3q5 -112 8 -120q2 -6 2 -10q0 -25 -27 -25q-31 0 -31 30q0 7 1 11q4 18 1 108q-29 -4 -44 -11l-7 -11q-4 -7 -18 -4q-28 4 -28 27q0 11 10 18q17 12 86 27q-1 41 -3 113q0 47 -1 69q-1 0 -15.5 -4.5t-24.5 -8.5q-26 -9 -29 -9
q-10 0 -19 9.5t-9 19.5q0 11 16 21q17 11 79 21q-4 53 -5 82q0 21 8 26q14 8 28 -7q10 -10 10 -22v-23l2 -49q62 9 80 5q17 -5 17 -27q0 -27 -35 -22q-34 3 -61 -1q3 -122 7 -164q0 -12 1 -21q53 9 83 6q19 -1 19 -21q0 -13 -15 -27z" />
    <glyph glyph-name="bullet" unicode="&#x2022;" horiz-adv-x="387" 
d="M328 250q0 -36 -36 -61q-35 -25 -79 -25q-65 0 -104 19q-53 24 -49 73q5 47 40 69q32 20 78 17q73 -5 100 -16q50 -21 50 -76z" />
    <glyph glyph-name="ellipsis" unicode="&#x2026;" horiz-adv-x="792" 
d="M656 -20q-16 0 -29 14t-13 31t7 25q10 13 25 13q17 0 32.5 -14.5t15.5 -30.5q0 -14 -12 -26t-26 -12zM436 21q0 -37 -35 -37q-32 0 -32 36q0 17 13 27q8 9 19 10q15 3 25 -7.5t10 -28.5zM192 20q0 -36 -41 -36q-17 0 -28.5 11.5t-14.5 24.5q-2 17 10.5 28t31.5 11
q42 0 42 -39z" />
    <glyph glyph-name="perthousand" unicode="&#x2030;" horiz-adv-x="729" 
d="M573 665q-28 -14 -43 -23q-31 -23 -55 -75q-323 -681 -325 -772q0 -48 -39 -48q-12 0 -17 6q-11 24 -11 34q0 15 10 28l76 192q100 251 245 563q38 81 64 111q23 26 54 38q7 3 14 3q15 0 25 -12.5t10 -27.5q0 -12 -8 -17zM293 565q33 -18 33 -62q0 -45 -44 -89
q-28 -28 -69 -51q-46 -25 -84 -25q-35 0 -58 24q-11 13 -11 32q0 31 22 69q21 35 36 42l2 3q2 2 6 7.5t8 10.5q17 22 34 31q38 22 73 22q27 0 52 -14zM472 84q2 -14 2 -20q0 -58 -62 -117q-38 -36 -75 -36q-23 0 -40 13q-22 14 -22 45q0 50 40 112q15 23 43 56q27 30 36 30
q11 0 16 -23q15 -1 26 -8q29 -17 36 -52zM691 66q5 -15 5 -29q0 -49 -46 -95q-32 -33 -66 -33q-42 0 -56 32q-6 13 -6 33q0 40 27 90q43 81 60 81q13 0 20 -24q14 -2 25 -8q27 -14 37 -47zM241 531q-18 0 -40 -12.5t-31 -27.5q-10 -25 -22 -46q-6 2 -17 4q-20 -28 -20 -44
q0 -19 26 -19q38 0 96 49q43 36 43 61q0 15 -10.5 25t-24.5 10zM398 98q-28 0 -59 -64q-16 -33 -16 -56q0 -28 28 -18q23 7 48 34q28 29 28 59q0 16 -8.5 30.5t-20.5 14.5zM647 49q-10 25 -21 25q-18 0 -46 -61q-12 -25 -12 -42q0 -23 22 -16q21 7 39 27q22 23 22 48
q0 11 -4 19z" />
    <glyph glyph-name="guilsinglleft" unicode="&#x2039;" horiz-adv-x="321" 
d="M286 221q7 -4 7 -18q0 -28 -18 -28q-9 0 -40 22q-39 27 -75 43q-87 38 -90 39q-43 22 -43 42q0 7 3 11q4 9 83 36q123 41 128 43q7 3 15 3q19 0 19 -23q0 -21 -11 -24q-80 -19 -160 -51q18 -10 103 -50q60 -29 79 -45z" />
    <glyph glyph-name="guilsinglright" unicode="&#x203a;" horiz-adv-x="321" 
d="M293 332q3 -4 3 -11q0 -20 -43 -42q-3 -1 -90 -39q-36 -16 -75 -43q-31 -22 -40 -22q-18 0 -18 28q0 13 6 18q21 16 80 45q92 44 103 50q-37 15 -160 51q-11 3 -11 24q0 23 19 23q7 0 14 -3q5 -2 128 -43q79 -27 84 -36z" />
    <glyph glyph-name="fraction" unicode="&#x2044;" horiz-adv-x="234" 
d="M287 650q-35 -17 -57 -65q-243 -512 -243 -578q-2 -30 -22 -37q-19 -6 -26 4q-4 8 -8 20q-3 17 7 30q7 16 14.5 35t17 44t15.5 40l10 24q79 199 184 423q44 96 90 113q8 2 12 2q28 0 28 -33q0 -12 -22 -22z" />
    <glyph glyph-name="trademark" unicode="&#x2122;" horiz-adv-x="681" 
d="M631 438q11 -39 11 -42q0 -15 -16 -21q-10 -2 -13 -2q-12 0 -21 8.5t-9 17.5q0 6 -16 74q-11 62 -17 63q-4 1 -18 -18t-41 -60q-1 -2 -5 -9t-5.5 -9.5t-5.5 -7.5t-7 -7t-8 -4t-11 -2q-19 0 -37 39q-16 40 -19 40q-8 0 -13 -66q-2 -34 -3 -47q-1 -7 -14 -10q-5 -1 -15 -1
q-22 0 -27 32q-8 65 5 126l8 60q4 25 22 25q4 -4 24 -2q6 2 9 2q26 0 36 -25l16 -52q10 -34 17 -32q5 2 39 43q38 47 41 50q2 2 5.5 8t5.5 9t6 6.5t8.5 5t10.5 0.5q22 -4 27 -30q8 -49 21 -104q0 -15 9 -58zM531 661q0 -21 -24 -21q-9 0 -17 4q-25 11 -100 2
q-54 -7 -155 -29q-6 -35 -10 -76q-8 -101 -3 -134q3 -15 3 -17q0 -22 -25 -23q-20 -2 -26 15q-5 16 -1 34q4 16 4 127q0 12 5 62q-31 -7 -47 -9q-77 -9 -79 -9q-18 0 -24 14q-2 8 -2 11q0 16 45 19q23 0 111 11q8 57 10 58q12 12 21 12q13 0 27 -18q3 -4 -3 -41l12 3
q103 22 180 24h43l18 6q6 2 8 2q11 0 20 -9t9 -18z" />
    <glyph glyph-name="partialdiff" unicode="&#x2202;" horiz-adv-x="483" 
d="M500 280q0 -20 -19 -24q-3 -1 -10 -1q-15 0 -25 12q-14 17 -15 18q-4 3 -19 3q-11 -24 -32 -61q-45 -77 -98 -135q-37 -42 -88 -76q-64 -42 -109 -42q-31 0 -52 21.5t-21 56.5q0 46 35 102q31 51 78 90q102 84 251 97q19 45 19 106q0 21 -3 40q-7 69 -58 113
q-45 39 -97 39q-77 0 -130 -44q-4 -4 -14 -4q-13 0 -24 7.5t-11 16.5q0 30 71 53q58 19 95 18q75 -1 136 -47q69 -52 79 -137q7 -49 7 -77q0 -27 -15 -86q11 -1 47 -16q22 -13 22 -43zM356 286q-35 -4 -70 -15q-83 -26 -140 -77q-30 -27 -55 -67q-29 -46 -29 -73
q0 -29 24 -29q30 0 86 40q54 37 76 67l55 69q36 47 53 85z" />
    <glyph glyph-name="product" unicode="&#x220f;" horiz-adv-x="798" 
d="M768 372q-2 -15 -26 -28q-9 -4 -114 -144q-105 -141 -106 -151q-6 -31 -13 -42t-25 -9q-20 3 -20 28t23 59l190 262q-175 1 -375 -12q-76 -5 -245 -12q-13 -1 -19.5 6t-6.5 20q0 19 17 21q28 4 323 21q37 2 307 9q-24 41 -88 137q-26 36 -52 59q-17 15 -29 27q-3 5 -3 10
q0 9 8.5 17t18.5 8q11 0 20 -9q13 -9 62 -58q28 -35 84 -119q45 -68 49 -72q20 -15 20 -28z" />
    <glyph glyph-name="summation" unicode="&#x2211;" horiz-adv-x="1398" 
d="M1368 358q1 -10 -6 -16q-1 -1 -9.5 -5.5t-13.5 -7.5q-11 -7 -89 -8q-68 -1 -123 4q-155 17 -267 18q-136 2 -289 7q8 -23 23 -116q3 -33 3 -76q0 -133 -19 -140q-9 -4 -18 -4q-17 0 -32 21q-20 29 -21 30q-178 137 -335 236l-142 84q-5 23 2 26q3 1 28.5 13t85.5 40
t126 59q191 89 193 95q10 28 35 28q11 0 22 -11q24 -23 24 -34q0 -4 -6.5 -9.5t-6.5 -6.5q-5 -10 29 -186q104 3 357 -5q62 -2 125 -9q87 -9 104 -10q55 -3 143 -3q10 0 24.5 5.5t20.5 5.5q28 0 32 -25zM541 100q4 123 -8 180q-28 131 -53 284l-381 -169q55 -29 198 -120z
" />
    <glyph glyph-name="radical" unicode="&#x221a;" horiz-adv-x="819" 
d="M793 434q-18 -2 -34 -7l-37 -15q18 -22 13 -58q-10 -79 -98 -177q-82 -92 -194 -156q-118 -68 -207 -68q-105 0 -159 90q-48 77 -40 185q11 143 116 263q82 91 196 157q93 53 115 52q36 -2 36 -27q0 -7 -1 -12l-92 -48q-107 -56 -180 -128q-105 -102 -130 -224
q-5 -25 -5 -50q0 -81 35 -136q43 -72 134 -64q75 6 176 71q91 60 162 138q70 77 70 125q0 19 -14 30q-5 3 -14 3q-38 0 -176 -59q-135 -58 -138 -58q-13 2 -25 12t-12 20q0 7 6 11q22 17 168 80q177 74 340 123q9 2 19 -10t10 -27q0 -16 -13 -25.5t-27 -10.5z" />
    <glyph glyph-name="infinity" unicode="&#x221e;" horiz-adv-x="669" 
d="M747 434q0 -23 -29 -23q-8 0 -15 3q-15 7 -211 -19q-18 -228 -18 -279q0 -39 6 -48q2 -3 14.5 -9t12.5 -10q0 -2 -2 -6q-32 -65 -47 -65q-8 0 -20 9q-15 12 -15 137q0 113 10 262q-107 -17 -232 -44q-28 -203 -23 -324l1 -6q1 -5 2 -12t1 -11q0 -27 -28 -24q-18 2 -28 20
q-7 16 -6 35q4 86 24 308q-85 -23 -121 -41q-7 -3 -16.5 7t-9.5 22q0 7 5 15q14 20 148 51q31 275 44 297q8 12 18 12q13 0 28 -16q9 -11 9 -20q0 -6 -11 -69q-16 -88 -30 -192q91 18 228 38q10 129 12 155q6 47 14.5 70t19.5 22q36 -1 36 -37q0 -12 -8 -63q-8 -60 -12 -97
l-3 -42q218 30 234 23q19 -1 19 -23q0 -4 -1 -6z" />
    <glyph glyph-name="integral" unicode="&#x222b;" horiz-adv-x="1398" 
d="M1368 385l-142 -84q-157 -99 -335 -236q-1 -1 -21 -30q-15 -21 -32 -21q-9 0 -18 4q-19 7 -19 140q0 43 3 76q5 45 23 116q-47 -2 -290 -7q-112 -2 -266 -18q-55 -5 -123 -4q-77 1 -90 8q-2 1 -6.5 3.5t-6 3.5t-5.5 4t-5 4t-3.5 4t-1.5 4.5t0 5.5q4 25 32 25
q6 0 20.5 -5.5t24.5 -5.5q87 0 142 3q73 9 230 19q243 8 357 4q33 179 29 187q0 1 -6.5 6.5t-6.5 9.5q0 11 24 34q11 11 22 11q25 0 35 -28q2 -6 193 -95q66 -31 126 -59t85.5 -40t28.5 -13q7 -3 2 -26zM1299 395l-381 169l-58 -313q-6 -48 -3 -151l244 175q49 35 110 69
q71 39 88 51z" />
    <glyph glyph-name="approxequal" unicode="&#x2248;" 
d="M515 294q-17 -9 -39 -25q-77 -63 -134 -58q-51 5 -70 72q-4 22 -7 33q-3 8 -5.5 14t-4 9t-4 4.5t-3 2t-3.5 0t-4 -0.5q-26 0 -67 -47l-62 -79q-6 -6 -20 -6q-23 0 -23 20q0 7 5 19q14 30 61 77q63 61 113 63q35 0 51 -34q5 -8 20 -64q10 -34 26 -34q53 0 130 70
q16 14 20 14q10 1 20 -8.5t10 -20.5t-10 -21zM590 221q0 -18 -17 -21q-7 -1 -41 -22q-87 -54 -111 -66q-77 -42 -119 -42q-33 0 -45 29q-7 15 -10 57q-1 38 -9 45q-2 3 -7 3q-16 0 -54 -32q-37 -32 -38 -46q-1 -15 -19 -15q-30 0 -30 24q0 4 1 7q9 27 54 68q52 48 98 43
q29 -5 42 -37q6 -15 11 -60q3 -33 10 -34q22 -6 119 45q91 48 108 68t31 20q10 0 18 -10t8 -24z" />
    <glyph glyph-name="approxequal" unicode="&#x22f2;" 
d="M515 294q-17 -9 -39 -25q-77 -63 -134 -58q-51 5 -70 72q-4 22 -7 33q-3 8 -5.5 14t-4 9t-4 4.5t-3 2t-3.5 0t-4 -0.5q-26 0 -67 -47l-62 -79q-6 -6 -20 -6q-23 0 -23 20q0 7 5 19q14 30 61 77q63 61 113 63q35 0 51 -34q5 -8 20 -64q10 -34 26 -34q53 0 130 70
q16 14 20 14q10 1 20 -8.5t10 -20.5t-10 -21zM590 221q0 -18 -17 -21q-7 -1 -41 -22q-87 -54 -111 -66q-77 -42 -119 -42q-33 0 -45 29q-7 15 -10 57q-1 38 -9 45q-2 3 -7 3q-16 0 -54 -32q-37 -32 -38 -46q-1 -15 -19 -15q-30 0 -30 24q0 4 1 7q9 27 54 68q52 48 98 43
q29 -5 42 -37q6 -15 11 -60q3 -33 10 -34q22 -6 119 45q91 48 108 68t31 20q10 0 18 -10t8 -24z" />
    <glyph glyph-name="notequal" unicode="&#x2260;" 
d="M651 193q0 -27 -30 -25q-3 0 -14 4t-32 7t-51 3q-87 0 -298 -22q-80 -127 -74 -162q2 -5 5 -5t6 1h6q11 0 9 -17q0 -21 -20.5 -32t-50.5 -7q-28 3 -28 38q0 11 4 23q15 51 68 153q-11 0 -36 -4q-53 -10 -69 -10q-40 0 -44 21q-2 10 -2 13q0 31 37 31q12 0 147 9
q25 42 64 98q-175 -17 -190 -17q-22 0 -25 3q-10 10 -7 25q2 11 11 13q15 0 37 -1q33 -1 202 16q64 91 123 154l43 45q17 17 28 17t23 -12t12 -23q0 -14 -16 -30l-26 -24q-17 -18 -100 -120q167 4 196 1q8 -1 23 1l16 3q11 0 21 -11t10 -21q0 -26 -38 -28q-13 -1 -34.5 9.5
t-32.5 10.5q-100 5 -189 -3l-73 -102l327 10q1 0 25 2q37 4 37 -35z" />
    <glyph glyph-name="lessequal" unicode="&#x2264;" horiz-adv-x="342" 
d="M40 81q12 81 38 175q42 150 80 168q15 7 31 7q110 0 122 -391q1 -20 -6 -28.5t-19 -6.5q-32 6 -30 38q5 129 -18 230q-21 97 -49 97q-10 0 -21 -17q-32 -57 -53 -161q-13 -74 -15 -114q-1 -20 -8.5 -29t-23.5 -8q-24 1 -28 40zM331 518q-7 -24 -32 -24q-19 0 -34.5 14.5
t-15.5 33.5q0 21 19 31q15 9 22 9q10 0 25 -6q21 -9 21 -32q0 -8 -5 -26zM150 562q2 -56 -36 -56q-19 0 -34.5 15t-15.5 34q0 30 40 37q10 1 26 -5q20 -9 20 -25z" />
    <glyph glyph-name="greaterequal" unicode="&#x2265;" horiz-adv-x="342" 
d="M313 355q-12 -81 -38 -175q-42 -150 -80 -168q-18 -8 -31 -8q-110 0 -122 392q-1 20 6 28.5t19 6.5q32 -6 30 -38q-5 -129 18 -230q21 -97 50 -97q9 0 20 17q32 57 53 161q13 73 15 115q1 19 8.5 28t23.5 8q24 -1 28 -40zM331 518q-7 -24 -32 -24q-19 0 -34.5 14.5
t-15.5 33.5q0 21 19 31q15 9 22 9q10 0 25 -6q21 -9 21 -32q0 -8 -5 -26zM150 562q2 -56 -36 -56q-19 0 -34.5 15t-15.5 34q0 30 40 37q10 1 26 -5q20 -9 20 -25z" />
    <glyph glyph-name="lozenge" unicode="&#x25ca;" horiz-adv-x="243" 
d="M154 365q-21 -193 -24 -243q-1 -23 2 -42.5t6 -30.5l4 -11q0 -8 -3 -18q-5 -15 -24 -15q-12 0 -24 9q-12 10 -12 65q0 13 10 216q5 76 5 77q6 35 27 37q15 1 25 -11.5t8 -32.5zM278 518q-8 -24 -33 -24q-18 0 -33.5 14.5t-15.5 33.5q0 21 19 31q15 9 22 9q10 0 25 -6
q21 -9 21 -32q0 -8 -5 -26zM97 562q2 -56 -36 -56q-19 0 -34.5 15t-15.5 34q0 30 40 37q9 1 26 -5q20 -9 20 -25z" />
    <glyph glyph-name="apple" unicode="&#xf000;" horiz-adv-x="588" 
d="M554 380q-2 -139 -79 -225q-56 -62 -147 -95q-16 -4 -44.5 -11.5t-40.5 -10.5q-12 -5 -21 -5q-23 0 -30 16q-3 8 -3 14q0 14 12.5 23.5t26.5 9.5q5 0 9 -2q13 -7 70 11q73 24 121 78q64 73 69 193q5 106 -48 171q-46 56 -115 58q-100 1 -176 -93q-70 -85 -73 -181
q-2 -73 8 -93q12 -27 55 -27q52 0 92 39q46 44 50 114q2 28 -2 37q-7 15 -29 14q-25 -3 -45 -24q-16 -17 -18 -33q-2 -20 -19 -20q-9 0 -11 15q-3 34 24 67q32 38 82 38q65 0 65 -82q0 -76 -45 -140q-55 -79 -151 -76q-108 4 -111 135q-2 128 74 235q92 128 242 125
q94 -1 150 -71q59 -75 58 -204z" />
    <glyph glyph-name="fi" unicode="&#xf001;" horiz-adv-x="525" 
d="M447 699q-6 -12 -27 -62q-7 -18 -10 -42q-1 -16 -8 -21q-15 -18 -28 -6q-17 16 -1 73q-51 24 -76 24q-117 0 -116 -330q0 -13 1 -24v-25q126 34 128 34q67 19 68 28q6 36 16 51q7 10 19 10q15 0 24.5 -12t7.5 -32q-19 -169 -24 -243q-1 -23 2 -42.5t7 -30.5l3 -11
q0 -8 -3 -18q-4 -15 -24 -15q-12 0 -25 9q-12 10 -12 66q0 17 10 207q-55 -8 -196 -49q2 -245 1 -265q-1 -88 -20 -188q-15 -77 -13 -83q4 -14 -6 -27t-27 -13q-12 0 -21 4q-18 8 -18 31q0 15 9 26q7 7 22 90q15 82 20 157q5 98 1 252q-25 -9 -32 -15q-11 -7 -25 -27
q-9 -15 -25 -15q-13 0 -24 11t-11 24q0 38 114 72v64q-5 377 173 377q33 0 63 -11q18 -8 27 -18q8 24 12 35q5 12 19 12q28 0 25 -32z" />
    <glyph glyph-name="fl" unicode="&#xf002;" horiz-adv-x="480" 
d="M473 715q6 -7 6 -21q0 -15 -15 -93q-27 -132 -44 -237q-33 -200 -28 -357q3 -66 -27 -66q-11 0 -24 10q-7 4 -7 50q0 82 24 284q-76 -13 -186 -47q2 -245 1 -265q-1 -88 -20 -188q-14 -80 -13 -83q1 -2 1 -8q0 -32 -34 -32q-12 0 -21 4q-17 8 -17 31q0 15 8 26q6 7 21 90
q17 90 21 157q5 93 1 252q-25 -9 -32 -15q-11 -7 -25 -27q-11 -15 -25 -15q-13 0 -24 11t-11 24q0 38 114 72v64q-3 197 89 304q74 86 171 86q28 0 46 -7q11 12 23 12q15 0 27 -16zM412 675q-243 -2 -242 -340q0 -13 1 -24v-25l195 53l21 154q12 98 25 182z" />
    <glyph glyph-name="NULL" horiz-adv-x="0" 
 />
    <glyph glyph-name="CR" horiz-adv-x="390" 
 />
    </font>
</defs>
</svg>
