<?xml version="1.0" standalone="no"?>
<!DOCTYPE svg PUBLIC "-//W3C//DTD SVG 1.1//EN" "http://www.w3.org/Graphics/SVG/1.1/DTD/svg11.dtd" >
<svg xmlns="http://www.w3.org/2000/svg" xmlns:xlink="http://www.w3.org/1999/xlink" version="1.1">
<metadata>
Created by FontForge 20170731 at Fri Sep 10 11:24:04 2021
 By Aleksey,,,
Copyright (c) 2015 Monotype Imaging Inc.  All rights reserved.
</metadata>
<defs>
<font id="NeueHaasUnicaPro-UltLightIt" horiz-adv-x="1024" >
  <font-face 
    font-family="Neue Haas Unica Pro UltraLight"
    font-weight="250"
    font-style="italic"
    font-variant="small-caps"
    font-stretch="normal"
    units-per-em="2048"
    panose-1="2 11 2 4 3 2 6 9 2 3"
    ascent="1565"
    descent="-483"
    x-height="1040"
    cap-height="1458"
    bbox="-446 -563 2062 1915"
    underline-thickness="102"
    underline-position="-307"
    slope="-14"
    unicode-range="U+0020-FEFF"
  />
<missing-glyph horiz-adv-x="1187" 
d="M307 1591h574q114 0 179.5 -65.5t65.5 -179.5v-1233q0 -114 -65.5 -180t-179.5 -66h-574q-114 0 -180 66t-66 180v1233q0 114 66 179.5t180 65.5zM881 1559h-574q-98 0 -155.5 -57.5t-57.5 -155.5v-1233q0 -98 57.5 -155.5t155.5 -57.5h574q98 0 155.5 57.5t57.5 155.5
v1233q0 98 -57.5 155.5t-155.5 57.5zM588 1317q139 0 229 -79.5t90 -203.5q0 -86 -37 -147t-147 -156q-71 -61 -102.5 -104t-45.5 -102.5t-14 -164.5h-26v35q0 135 32 204t133 155q105 91 139.5 147t34.5 133q0 110 -80.5 180t-205.5 70q-130 0 -208 -72t-87 -206h-33
q10 149 97 230t231 81zM565 133h-37v117h37v-117z" />
    <glyph glyph-name="f_f" unicode="ff" horiz-adv-x="962" 
d="M1106 1464q33 0 57 -8l-8 -31q-25 7 -49 7q-170 0 -227 -224l-41 -168h219l-8 -32h-220l-251 -1008h-33l252 1008h-414l-252 -1008h-33l252 1008h-198l8 32h198l43 177q61 247 258 247q34 0 58 -8l-8 -31q-25 7 -50 7q-170 0 -227 -224l-41 -168h414l43 177
q61 247 258 247z" />
    <glyph glyph-name="f_f_i" unicode="ffi" horiz-adv-x="1368" 
d="M829 1008l-251 -1008h-33l252 1008h-414l-252 -1008h-33l252 1008h-198l8 32h198l43 177q61 247 258 247q34 0 58 -8l-8 -31q-25 7 -50 7q-170 0 -227 -224l-41 -168h414l43 177q61 247 258 247q33 0 57 -8l-8 -31q-25 7 -49 7q-170 0 -227 -224l-41 -168h219l-8 -32
h-220zM1415 1458l-39 -158h-33l39 158h33zM1278 1040h33l-258 -1040h-33z" />
    <glyph glyph-name="f_f_l" unicode="ffl" horiz-adv-x="1368" 
d="M829 1008l-251 -1008h-33l252 1008h-414l-252 -1008h-33l252 1008h-198l8 32h198l43 177q61 247 258 247q34 0 58 -8l-8 -31q-25 7 -50 7q-170 0 -227 -224l-41 -168h414l43 177q61 247 258 247q33 0 57 -8l-8 -31q-25 7 -49 7q-170 0 -227 -224l-41 -168h219l-8 -32
h-220zM1415 1458l-362 -1458h-33l362 1458h33z" />
    <glyph glyph-name="f_i" unicode="fi" horiz-adv-x="921" 
d="M383 1008l-252 -1008h-33l252 1008h-198l8 32h198l43 177q61 247 258 247q34 0 58 -8l-8 -31q-25 7 -50 7q-170 0 -227 -224l-41 -168h219l-8 -32h-219zM969 1458l-39 -158h-33l39 158h33zM831 1040h33l-258 -1040h-33z" />
    <glyph glyph-name="f_l" unicode="fl" horiz-adv-x="921" 
d="M383 1008l-252 -1008h-33l252 1008h-198l8 32h198l43 177q61 247 258 247q34 0 58 -8l-8 -31q-25 7 -50 7q-170 0 -227 -224l-41 -168h219l-8 -32h-219zM969 1458l-363 -1458h-33l363 1458h33z" />
    <glyph glyph-name=".notdef" horiz-adv-x="1187" 
d="M307 1591h574q114 0 179.5 -65.5t65.5 -179.5v-1233q0 -114 -65.5 -180t-179.5 -66h-574q-114 0 -180 66t-66 180v1233q0 114 66 179.5t180 65.5zM881 1559h-574q-98 0 -155.5 -57.5t-57.5 -155.5v-1233q0 -98 57.5 -155.5t155.5 -57.5h574q98 0 155.5 57.5t57.5 155.5
v1233q0 98 -57.5 155.5t-155.5 57.5zM588 1317q139 0 229 -79.5t90 -203.5q0 -86 -37 -147t-147 -156q-71 -61 -102.5 -104t-45.5 -102.5t-14 -164.5h-26v35q0 135 32 204t133 155q105 91 139.5 147t34.5 133q0 110 -80.5 180t-205.5 70q-130 0 -208 -72t-87 -206h-33
q10 149 97 230t231 81zM565 133h-37v117h37v-117z" />
    <glyph glyph-name=".null" horiz-adv-x="0" 
 />
    <glyph glyph-name="nonmarkingreturn" horiz-adv-x="682" 
 />
    <glyph glyph-name="space" unicode=" " horiz-adv-x="471" 
 />
    <glyph glyph-name="exclam" unicode="!" horiz-adv-x="413" 
d="M158 279h-21l285 1179h37zM96 0h-37l35 141h37z" />
    <glyph glyph-name="quotedbl" unicode="&#x22;" horiz-adv-x="569" 
d="M303 958h-24l118 500h37zM508 958h-25l119 500h37z" />
    <glyph glyph-name="numbersign" unicode="#" horiz-adv-x="1267" 
d="M997 911l-178 -436h293l-14 -33h-293l-180 -442h-35l180 442h-389l-180 -442h-35l180 442h-293l15 33h292l179 436h-295l14 33h293l178 436h35l-178 -436h389l178 436h35l-178 -436h293l-15 -33h-291zM963 911h-390l-178 -436h389z" />
    <glyph glyph-name="dollar" unicode="$" 
d="M786 1565l-41 -166q285 -27 285 -314q0 -63 -18 -143h-33q18 79 18 143q0 131 -64 200t-196 81l-162 -649q80 -28 131.5 -53.5t94.5 -63t62.5 -88.5t19.5 -121q0 -75 -29 -146.5t-84 -131.5t-145.5 -96.5t-202.5 -36.5h-31l-45 -183h-33l47 185q-299 27 -299 329
q0 63 21 152h33q-21 -89 -21 -152q0 -276 273 -297l170 682q-150 54 -218.5 123t-68.5 189q0 69 28 137t80 126t136 94t186 36h33l41 164h32zM705 1368h-25q-95 0 -173 -33.5t-125.5 -87t-73 -115.5t-25.5 -124q0 -107 63 -168.5t199 -110.5zM850 391q0 64 -18 110t-59 79.5
t-85.5 55t-120.5 48.5l-168 -672h23q105 0 189.5 34t135 90t77 121.5t26.5 133.5z" />
    <glyph glyph-name="percent" unicode="%" horiz-adv-x="1533" 
d="M258 -61h-41l1143 1503h41zM547 1401q198 0 198 -258q0 -57 -12.5 -120.5t-40.5 -127t-66.5 -114.5t-95 -83t-122.5 -32q-199 0 -199 258q0 72 21.5 152.5t61 154.5t107 122t148.5 48zM547 1368q-75 0 -136 -45.5t-96.5 -115t-54 -143.5t-18.5 -140q0 -114 40.5 -170
t125.5 -56q75 0 136 45.5t96.5 115.5t54 144t18.5 140q0 114 -40.5 169.5t-125.5 55.5zM1210 715q199 0 199 -258q0 -72 -21.5 -152.5t-61 -154.5t-107 -122t-148.5 -48q-199 0 -199 258q0 72 21.5 152.5t61 154.5t107 122t148.5 48zM1210 682q-75 0 -136 -45.5t-96.5 -115
t-54 -143.5t-18.5 -140q0 -114 40.5 -170t125.5 -56q75 0 136 45.5t96.5 115.5t54 144t18.5 140q0 114 -40.5 169.5t-125.5 55.5z" />
    <glyph glyph-name="ampersand" unicode="&#x26;" horiz-adv-x="1439" 
d="M1300 809h35q-83 -327 -270 -533l217 -276h-41l-199 254q-271 -274 -579 -274q-175 0 -269 81t-94 218q0 170 110.5 293.5t387.5 246.5q-70 97 -98.5 166.5t-28.5 151.5q0 79 38 156.5t114.5 131.5t171.5 54q111 0 175 -68.5t64 -177.5q0 -57 -18 -109t-59.5 -107
t-119 -109t-188.5 -103l395 -502q177 193 256 506zM795 1446q-86 0 -155 -50t-102.5 -119.5t-33.5 -139.5q0 -76 28.5 -144.5t96.5 -158.5q108 47 183.5 97.5t115.5 101.5t56.5 99t16.5 101q0 96 -55 154.5t-151 58.5zM463 12q298 0 559 267l-404 514q-145 -66 -240 -126
t-149 -122.5t-75 -124.5t-21 -141q0 -123 85 -195t245 -72z" />
    <glyph glyph-name="quotesingle" unicode="'" horiz-adv-x="364" 
d="M303 958h-24l118 500h37z" />
    <glyph glyph-name="parenleft" unicode="(" horiz-adv-x="471" 
d="M616 1518h41q-259 -282 -392.5 -617.5t-133.5 -646.5q0 -272 74 -555h-33q-74 280 -74 555q0 316 131 650t387 614z" />
    <glyph glyph-name="parenright" unicode=")" horiz-adv-x="471" 
d="M-102 -301h-41q259 282 392.5 617.5t133.5 646.5q0 272 -74 555h33q74 -280 74 -555q0 -316 -131 -650t-387 -614z" />
    <glyph glyph-name="asterisk" unicode="*" horiz-adv-x="757" 
d="M557 1186l287 26l4 -38l-289 -13l113 -266l-33 -14l-102 272l-220 -190l-22 26l225 182l-250 146l23 33l239 -158l66 281l35 -9z" />
    <glyph glyph-name="plus" unicode="+" horiz-adv-x="1159" 
d="M596 666h410v-33h-410v-410h-33v410h-409v33h409v409h33v-409z" />
    <glyph glyph-name="comma" unicode="," horiz-adv-x="278" 
d="M47 0l-137 -260h-29l133 260l37 147h33z" />
    <glyph glyph-name="hyphen" unicode="-" horiz-adv-x="561" 
d="M514 582h-438l8 32h438z" />
    <glyph glyph-name="period" unicode="." horiz-adv-x="278" 
d="M29 0h-37l37 147h37z" />
    <glyph glyph-name="slash" unicode="/" horiz-adv-x="808" 
d="M-76 -182h-39l1030 1708h39z" />
    <glyph glyph-name="zero" unicode="0" horiz-adv-x="1064" 
d="M715 1401q329 0 329 -453q0 -77 -11.5 -164t-36 -181t-60 -183t-86.5 -169t-111 -140t-139 -95.5t-166 -35.5q-328 0 -328 452q0 90 16.5 193.5t48 213t83.5 209.5t117 179.5t154 126.5t190 47zM715 1368q-82 0 -156.5 -34.5t-131.5 -93.5t-105 -137t-81.5 -164.5
t-56.5 -177.5t-34 -174t-11 -155q0 -212 73 -316t222 -104q114 0 212.5 66t164 169t112.5 230t68 247.5t21 223.5q0 213 -72.5 316.5t-224.5 103.5z" />
    <glyph glyph-name="one" unicode="1" horiz-adv-x="1064" 
d="M444 0h-32l315 1266h-2q-83 -148 -334 -148l8 33q145 0 226.5 51.5t130.5 177.5h32z" />
    <glyph glyph-name="two" unicode="2" horiz-adv-x="1064" 
d="M717 1401q154 0 243 -87t89 -231q0 -163 -107.5 -275t-396.5 -239q-112 -50 -196.5 -100.5t-140 -99t-94.5 -105t-61 -109.5t-39 -122h817l-8 -33h-848q40 213 163.5 346.5t391.5 251.5q191 84 295.5 156.5t147.5 148.5t43 180q0 131 -79 208t-220 77
q-159 0 -271.5 -94.5t-164.5 -261.5h-35q53 181 177 285t294 104z" />
    <glyph glyph-name="three" unicode="3" horiz-adv-x="1064" 
d="M680 1401q170 0 270.5 -87t100.5 -231q0 -130 -96.5 -238t-270.5 -140v-3q227 -68 227 -301q0 -57 -20.5 -116t-62.5 -113.5t-99.5 -97.5t-139 -68.5t-173.5 -25.5q-176 0 -269.5 80.5t-93.5 220.5q0 49 10 88h33q-10 -39 -10 -88q0 -126 84.5 -197.5t245.5 -71.5
q108 0 198.5 36.5t146.5 94t87 125t31 133.5q0 137 -86 212t-242 75h-94l8 33h86q96 0 176 23t132.5 60t89.5 85t53 97t16 97q0 130 -90.5 207.5t-247.5 77.5q-154 0 -265.5 -92.5t-152.5 -259.5h-33q44 181 165 283t286 102z" />
    <glyph glyph-name="four" unicode="4" horiz-adv-x="1064" 
d="M987 424h-285l-106 -424h-33l107 424h-652l11 41l860 915h51l-229 -923h284zM66 457h610l57 229l164 653h-2l-551 -585z" />
    <glyph glyph-name="five" unicode="5" horiz-adv-x="1064" 
d="M1085 1348h-643l-227 -652h2q64 88 157 137.5t208 49.5q163 0 251.5 -98t88.5 -271q0 -70 -21 -143.5t-65 -143.5t-104.5 -125t-147 -88.5t-185.5 -33.5q-153 0 -238 74t-85 208q0 49 10 90h33q-10 -41 -10 -90q0 -121 75.5 -185.5t214.5 -64.5q93 0 174.5 32t138 84
t97.5 118t60.5 134.5t19.5 133.5q0 160 -79 248t-228 88q-128 0 -232.5 -68t-175.5 -202l-31 2l279 798h672z" />
    <glyph glyph-name="six" unicode="6" horiz-adv-x="1064" 
d="M758 1401q157 0 237 -79t80 -222q0 -19 -2 -35h-33q2 16 2 35q0 129 -70.5 198.5t-213.5 69.5q-190 0 -353 -198t-249 -578h4q54 128 175.5 213.5t266.5 85.5q160 0 251 -106.5t91 -290.5q0 -81 -33.5 -169.5t-93 -166t-156 -128t-208.5 -50.5q-172 0 -260.5 97.5
t-88.5 289.5q0 96 19.5 207.5t56 227.5t94 223.5t127 191t162.5 134t195 50.5zM602 858q-86 0 -162 -30t-130.5 -79.5t-94 -113t-59 -132.5t-19.5 -136q0 -355 316 -355q106 0 196 48t145.5 121.5t86 155.5t30.5 157q0 170 -81 267t-228 97z" />
    <glyph glyph-name="seven" unicode="7" horiz-adv-x="1064" 
d="M1174 1380l-9 -32q-270 -293 -491.5 -609t-421.5 -739h-37q107 227 221.5 425t231.5 363t222.5 294t231.5 266h-831l8 32h875z" />
    <glyph glyph-name="eight" unicode="8" horiz-adv-x="1064" 
d="M719 1401q156 0 249 -86.5t93 -231.5q0 -132 -98 -240.5t-265 -135.5v-2q101 -34 163.5 -114t62.5 -194q0 -56 -19.5 -113.5t-60.5 -112t-98 -97t-137.5 -68.5t-172.5 -26q-170 0 -271.5 92t-101.5 247q0 89 46.5 173.5t140 148.5t215.5 80v2q-91 27 -146 101.5
t-55 179.5q0 67 31 136t86.5 127.5t144.5 96t193 37.5zM719 1368q-97 0 -179.5 -34.5t-134 -89t-80 -117.5t-28.5 -123q0 -125 82 -200t229 -75q103 0 186 33t132.5 86t75.5 113.5t26 121.5q0 131 -83.5 208t-225.5 77zM551 698q-104 0 -192.5 -35t-144.5 -90.5t-87 -121.5
t-31 -132q0 -141 91.5 -224t248.5 -83q87 0 162.5 24t128 63.5t90.5 90t56 103.5t18 104q0 132 -93.5 216.5t-246.5 84.5z" />
    <glyph glyph-name="nine" unicode="9" horiz-adv-x="1064" 
d="M393 -20q-157 0 -237 79t-80 222q0 18 2 34h33q-2 -16 -2 -34q0 -129 70.5 -199t213.5 -70q190 0 353 198t249 578h-4q-54 -128 -175.5 -213.5t-266.5 -85.5q-160 0 -251 107t-91 291q0 81 33.5 169.5t93 166t156 128t208.5 50.5q172 0 260.5 -97.5t88.5 -289.5
q0 -96 -19.5 -207.5t-56 -227.5t-94 -223.5t-127 -191t-162.5 -134t-195 -50.5zM549 522q86 0 162 30t130.5 79.5t94 113.5t59 133t19.5 136q0 354 -316 354q-85 0 -161 -31.5t-129 -82.5t-92 -114.5t-57.5 -128.5t-18.5 -124q0 -170 81 -267.5t228 -97.5z" />
    <glyph glyph-name="colon" unicode=":" horiz-adv-x="280" 
d="M252 893h-37l37 147h37zM31 0h-37l37 147h37z" />
    <glyph glyph-name="semicolon" unicode=";" horiz-adv-x="280" 
d="M272 893h-36l36 147h37zM47 0l-137 -260h-29l133 260l37 147h33z" />
    <glyph glyph-name="less" unicode="&#x3c;" horiz-adv-x="1159" 
d="M1006 1026l-820 -375v-4l820 -375v-36l-852 391v45l852 391v-37z" />
    <glyph glyph-name="equal" unicode="=" horiz-adv-x="1159" 
d="M1006 760h-852v33h852v-33zM1006 504h-852v33h852v-33z" />
    <glyph glyph-name="greater" unicode="&#x3e;" horiz-adv-x="1159" 
d="M1006 672v-45l-852 -391v36l819 375v4l-819 375v37z" />
    <glyph glyph-name="question" unicode="?" horiz-adv-x="958" 
d="M680 1479q157 0 250.5 -86.5t93.5 -227.5q0 -119 -68.5 -215t-259.5 -227q-105 -71 -157 -122t-88.5 -123.5t-67.5 -196.5h-27q24 102 44.5 161t59 113t85.5 94t135 101q125 87 193.5 156t93 127.5t24.5 131.5q0 127 -84 204t-227 77q-152 0 -264.5 -92.5t-163.5 -261.5
h-35q55 186 177 286.5t286 100.5zM317 0h-36l34 141h37z" />
    <glyph glyph-name="at" unicode="@" horiz-adv-x="1714" 
d="M1018 1376q284 0 444 -157.5t160 -432.5q0 -105 -29.5 -212t-82 -197t-135.5 -146.5t-181 -56.5q-207 0 -141 246h-2q-69 -123 -155 -184.5t-179 -61.5q-230 0 -230 272q0 71 21.5 153.5t63.5 164t98 148t133 108t160 41.5q122 0 175.5 -80t39.5 -205h2q55 138 112 264
h33q-256 -570 -256 -718q0 -59 30.5 -87t94.5 -28q91 0 168 54t125.5 139.5t75 186t26.5 199.5q0 261 -150.5 409t-420.5 148q-134 0 -255 -41.5t-211.5 -111.5t-164 -161t-120 -192.5t-71 -203t-24.5 -195.5q0 -276 147 -427.5t420 -151.5q260 0 475 127l15 -29
q-225 -131 -490 -131q-286 0 -443 161t-157 451q0 118 35.5 246t109.5 251.5t176 221.5t247.5 158.5t310.5 60.5zM963 1028q-96 0 -182 -60.5t-141.5 -150.5t-87.5 -189t-32 -182q0 -121 48.5 -180t148.5 -59q76 0 146 44t121 114t89.5 153t58 163.5t19.5 143.5
q0 97 -49 150t-139 53z" />
    <glyph glyph-name="A" unicode="A" horiz-adv-x="1298" 
d="M1028 545h-741l-365 -545h-39l975 1458h45l252 -1458h-33zM1022 578l-35 200q-95 562 -110 647h-3q-57 -86 -204.5 -306t-227.5 -341l-135 -200h715z" />
    <glyph glyph-name="B" unicode="B" horiz-adv-x="1204" 
d="M449 1458h374q190 0 284.5 -81.5t94.5 -225.5q0 -64 -25 -128t-72.5 -121.5t-125 -99t-172.5 -54.5v-3q115 -23 182.5 -102t67.5 -211q0 -75 -31 -149.5t-90 -138.5t-157 -104t-218 -40h-475zM473 1425l-164 -661h365q105 0 191 25.5t141.5 65.5t93 92.5t53.5 103.5
t16 100q0 131 -85 202.5t-261 71.5h-350zM301 731l-174 -698h434q113 0 205 37.5t146.5 97.5t83 128t28.5 136q0 138 -86 218.5t-264 80.5h-373z" />
    <glyph glyph-name="C" unicode="C" horiz-adv-x="1353" 
d="M897 1479q145 0 246.5 -61.5t148.5 -162t47 -229.5q0 -24 -4 -74h-32q4 50 4 74q0 186 -104.5 303t-303.5 117q-116 0 -220 -39.5t-182.5 -107.5t-142.5 -158t-104.5 -192t-62 -207.5t-21.5 -206.5q0 -240 117.5 -381.5t330.5 -141.5q202 0 360 120.5t224 311.5h35
q-70 -208 -237 -336t-382 -128q-227 0 -354 150.5t-127 406.5q0 127 31 258.5t95.5 254t153.5 218t215 153.5t269 58z" />
    <glyph glyph-name="D" unicode="D" horiz-adv-x="1449" 
d="M449 1458h311q318 0 482.5 -159t164.5 -459q0 -96 -22 -192.5t-66 -191.5t-116.5 -177t-165.5 -144.5t-222 -98.5t-278 -36h-451zM473 1425l-346 -1392h410q173 0 316 50t237.5 131.5t160 188t94.5 216.5t29 221q0 286 -155 435.5t-459 149.5h-287z" />
    <glyph glyph-name="E" unicode="E" horiz-adv-x="1200" 
d="M1274 1425h-801l-164 -659h766l-8 -33h-766l-174 -700h829l-8 -33h-862l363 1458h833z" />
    <glyph glyph-name="F" unicode="F" horiz-adv-x="1101" 
d="M1255 1425h-782l-162 -649h744l-8 -33h-744l-184 -743h-33l363 1458h815z" />
    <glyph glyph-name="G" unicode="G" horiz-adv-x="1429" 
d="M924 1479q216 0 332 -111t116 -299q0 -23 -4 -63h-33q4 36 4 63q0 174 -106.5 275.5t-308.5 101.5q-122 0 -230 -38.5t-190 -106t-147 -156t-106.5 -189.5t-63 -206.5t-21.5 -208.5q0 -242 116 -385.5t328 -143.5q76 0 148 19t147.5 65.5t139.5 118t119.5 185.5t90.5 259
h-485l8 33h518l-172 -692h-32l49 197q31 133 59 215h-2q-80 -202 -235 -317t-353 -115q-225 0 -351 152.5t-126 408.5q0 129 31.5 260t97.5 253t158 216.5t222.5 151.5t281.5 57z" />
    <glyph glyph-name="H" unicode="H" horiz-adv-x="1443" 
d="M1100 0h-33l184 741h-948l-184 -741h-33l363 1458h32l-170 -684h949l170 684h32z" />
    <glyph glyph-name="I" unicode="I" horiz-adv-x="462" 
d="M119 0h-33l363 1458h32z" />
    <glyph glyph-name="J" unicode="J" horiz-adv-x="620" 
d="M649 1458l-278 -1116q-42 -171 -142 -260.5t-241 -89.5q-46 0 -86 12l8 31q38 -10 78 -10q131 0 222 82t130 243l276 1108h33z" />
    <glyph glyph-name="K" unicode="K" horiz-adv-x="1089" 
d="M344 762l608 -762h-41l-604 754h-2l-186 -754h-33l363 1458h32l-170 -680h2l883 680h53z" />
    <glyph glyph-name="L" unicode="L" horiz-adv-x="1075" 
d="M127 33h817l-8 -33h-850l363 1458h32z" />
    <glyph glyph-name="M" unicode="M" horiz-adv-x="1738" 
d="M1395 0h-33l197 795q125 498 157 630h-2l-432 -649l-518 -776h-45l-133 776l-111 649h-2q-6 -26 -158 -630l-196 -795h-33l363 1458h53l143 -840l100 -585h3l391 585l559 840h59z" />
    <glyph glyph-name="N" unicode="N" horiz-adv-x="1470" 
d="M1126 0h-49l-286 682l-316 745h-2l-197 -790l-157 -637h-33l363 1458h49l286 -682q34 -81 144 -341t170 -404h2q34 132 99 395t99 395l158 637h33z" />
    <glyph glyph-name="O" unicode="O" horiz-adv-x="1437" 
d="M887 1479q244 0 381 -159t137 -421q0 -102 -22 -209t-63.5 -209.5t-107 -193t-146 -159t-187 -108.5t-224.5 -40q-244 0 -381 158.5t-137 420.5q0 102 22 209t63.5 210t107 193.5t146 159t187 108.5t224.5 40zM887 1446q-136 0 -254 -55t-201.5 -146t-143.5 -207
t-89 -238.5t-29 -240.5q0 -248 127.5 -397.5t357.5 -149.5q136 0 254 55t201.5 146t143.5 207t89 238.5t29 240.5q0 248 -127.5 397.5t-357.5 149.5z" />
    <glyph glyph-name="P" unicode="P" horiz-adv-x="1177" 
d="M449 1458h415q194 0 290.5 -92.5t96.5 -253.5q0 -57 -17.5 -115.5t-56 -114t-93.5 -98.5t-136.5 -69.5t-177.5 -26.5h-481l-170 -688h-33zM473 1425l-176 -704h473q90 0 166.5 24.5t127.5 64.5t87 92t52 105t16 105q0 147 -87.5 230t-267.5 83h-391z" />
    <glyph glyph-name="Q" unicode="Q" horiz-adv-x="1437" 
d="M1405 899q0 -216 -92.5 -433t-257.5 -347l129 -199l-27 -18l-127 196q-166 -118 -375 -118q-244 0 -381 158.5t-137 420.5q0 102 22 209t63.5 210t107 193.5t146 159t187 108.5t224.5 40q244 0 381 -159t137 -421zM655 12q200 0 357 115l-152 233l27 19l151 -234
q158 127 246 337t88 417q0 248 -127.5 397.5t-357.5 149.5q-136 0 -254 -55t-201.5 -146t-143.5 -207t-89 -238.5t-29 -240.5q0 -248 127.5 -397.5t357.5 -149.5z" />
    <glyph glyph-name="R" unicode="R" horiz-adv-x="1210" 
d="M449 1458h370q194 0 291.5 -84t97.5 -235q0 -70 -27 -138.5t-76.5 -127.5t-129 -101.5t-176.5 -56.5v-2q74 -24 110.5 -82t53.5 -191l53 -440h-33l-51 430q-18 154 -70 212t-190 58h-379l-174 -700h-33zM473 1425l-172 -692h371q105 0 192 26.5t143.5 68.5t95.5 96.5
t56 108.5t17 106q0 136 -88 211t-269 75h-346z" />
    <glyph glyph-name="S" unicode="S" horiz-adv-x="1179" 
d="M758 1479q401 0 401 -342q0 -65 -18 -144h-33q18 79 18 144q0 157 -90.5 233t-277.5 76q-89 0 -164 -23.5t-126 -62.5t-87.5 -88.5t-53 -101t-16.5 -101.5q0 -63 20 -110t64.5 -82.5t100.5 -62t143 -54.5q98 -32 157.5 -58.5t111.5 -67t75 -96t23 -132.5
q0 -62 -19.5 -122t-61 -115.5t-100.5 -97t-144.5 -66.5t-186.5 -25q-416 0 -416 356q0 70 20 151h33q-20 -81 -20 -151q0 -165 95.5 -244.5t287.5 -79.5q98 0 180 24t136 63.5t92 91.5t54.5 106t16.5 109q0 49 -10 88t-33 69.5t-49 52.5t-71.5 43.5t-85 36t-103.5 35.5
q-179 59 -260.5 133.5t-81.5 204.5q0 72 31.5 143t89 131.5t151.5 98t207 37.5z" />
    <glyph glyph-name="T" unicode="T" horiz-adv-x="1163" 
d="M1378 1425h-555l-354 -1425h-33l355 1425h-555l8 33h1142z" />
    <glyph glyph-name="U" unicode="U" horiz-adv-x="1372" 
d="M1403 1458l-244 -975q-62 -250 -209.5 -376.5t-369.5 -126.5q-394 0 -394 391q0 87 31 211l219 876h33l-221 -885q-29 -122 -29 -202q0 -181 89.5 -270t271.5 -89q209 0 349 120.5t199 359.5l242 966h33z" />
    <glyph glyph-name="V" unicode="V" horiz-adv-x="1239" 
d="M514 0h-47l-217 1458h33l104 -698q18 -121 54.5 -362.5t54.5 -362.5h2l469 725l450 698h39z" />
    <glyph glyph-name="W" unicode="W" horiz-adv-x="1763" 
d="M1200 0h-51l-21 694q-8 247 -20 731h-2l-383 -731l-363 -694h-51l-51 1458h33l24 -708l25 -715h2q35 66 375 719l368 704h56l18 -704q3 -119 10.5 -359.5t10.5 -359.5h2q221 414 379 715l374 708h37z" />
    <glyph glyph-name="X" unicode="X" horiz-adv-x="1214" 
d="M686 750l375 -750h-37l-360 723h-2l-719 -723h-47l747 750l-354 708h37l340 -682h2l680 682h45z" />
    <glyph glyph-name="Y" unicode="Y" horiz-adv-x="1167" 
d="M633 651l-162 -651h-33l162 651l-352 807h35l153 -350l185 -422h2q321 346 403 432l317 340h43z" />
    <glyph glyph-name="Z" unicode="Z" horiz-adv-x="1120" 
d="M1262 1409l-1311 -1374v-2h1014l-9 -33h-1050l12 49l1311 1374v2h-959l9 33h995z" />
    <glyph glyph-name="bracketleft" unicode="[" horiz-adv-x="487" 
d="M686 1485h-250l-436 -1755h250l-8 -33h-283l453 1821h282z" />
    <glyph glyph-name="backslash" unicode="\" horiz-adv-x="808" 
d="M344 1526l184 -1708h-32l-185 1708h33z" />
    <glyph glyph-name="bracketright" unicode="]" horiz-adv-x="487" 
d="M-156 -270h250l436 1755h-249l8 33h282l-452 -1821h-283z" />
    <glyph glyph-name="asciicircum" unicode="^" horiz-adv-x="786" 
d="M756 760h-37l-324 665h-4l-323 -665h-37l340 698h45z" />
    <glyph glyph-name="underscore" unicode="_" 
d="M860 -135h-1024l8 33h1024z" />
    <glyph glyph-name="grave" unicode="`" horiz-adv-x="442" 
d="M377 1458l127 -282h-31l-135 282h39z" />
    <glyph glyph-name="a" unicode="a" horiz-adv-x="1011" 
d="M584 1061q143 0 225 -74.5t82 -220.5q0 -50 -21 -135l-102 -408q-34 -139 -37 -223h-33q5 74 47 242h-2q-65 -124 -172.5 -193t-253.5 -69q-137 0 -215.5 69t-78.5 189q0 45 11.5 84.5t40 79t72.5 71t114.5 56.5t160.5 38q176 25 412 47l6 25q18 73 18 127
q0 132 -72.5 197t-201.5 65q-145 0 -242 -83t-127 -218h-35q34 152 142 243t262 91zM786 426l39 156q-214 -18 -401 -47q-369 -56 -369 -297q0 -106 69.5 -166t192.5 -60q176 0 297.5 108t171.5 306z" />
    <glyph glyph-name="b" unicode="b" horiz-adv-x="1116" 
d="M455 1458l-111 -442q-43 -172 -72 -264h2q72 149 182 229t242 80q159 0 246.5 -103.5t87.5 -287.5q0 -90 -21 -185t-65 -185.5t-105 -161.5t-148 -114.5t-187 -43.5q-166 0 -251.5 109.5t-74.5 285.5h-2q-13 -68 -59 -258l-29 -117h-33l365 1458h33zM698 1028
q-94 0 -176.5 -43.5t-139 -113.5t-97.5 -157.5t-60.5 -175t-19.5 -167.5q0 -172 77 -265.5t224 -93.5q95 0 177 42t139 110t97.5 155t60 176.5t19.5 174.5q0 170 -78 264t-223 94z" />
    <glyph glyph-name="c" unicode="c" horiz-adv-x="1009" 
d="M631 1061q151 0 238 -92t87 -250q0 -19 -2 -31h-32q2 12 2 31q0 143 -78 226t-215 83q-82 0 -156 -29.5t-129 -80.5t-99.5 -117t-72.5 -140t-42.5 -149t-14.5 -145q0 -171 80.5 -263t236.5 -92q139 0 251 85t159 225h35q-51 -155 -172.5 -248.5t-272.5 -93.5
q-170 0 -260 101t-90 286q0 90 22 185.5t68 186.5t109.5 162.5t154 115.5t193.5 44z" />
    <glyph glyph-name="d" unicode="d" horiz-adv-x="1112" 
d="M842 289h-2q-72 -149 -182 -229t-242 -80q-159 0 -246.5 103.5t-87.5 287.5q0 90 21 185t65 185.5t105 161.5t148 114.5t187 43.5q166 0 251.5 -109.5t74.5 -285.5h2q13 68 59 258l133 534h33l-364 -1458h-33l6 25q38 157 72 264zM608 1028q-95 0 -177 -42t-139 -110
t-97.5 -154.5t-60 -176t-19.5 -174.5q0 -170 78 -264.5t223 -94.5q94 0 176.5 43.5t139 113.5t97.5 158t60.5 175.5t19.5 167.5q0 172 -77 265t-224 93z" />
    <glyph glyph-name="e" unicode="e" horiz-adv-x="1054" 
d="M958 530h-825q-18 -88 -18 -165q0 -168 80.5 -260.5t232.5 -92.5q142 0 258.5 80.5t167.5 212.5h35q-55 -149 -181 -237t-280 -88q-166 0 -256 101.5t-90 283.5q0 91 22.5 187t69.5 187t112 163t157.5 115.5t197.5 43.5q159 0 251.5 -96t92.5 -271q0 -72 -27 -164z
M641 1028q-177 0 -311 -128.5t-189 -336.5h791q20 61 20 131q0 160 -83 247t-228 87z" />
    <glyph glyph-name="f" unicode="f" horiz-adv-x="516" 
d="M659 1464q34 0 58 -8l-8 -31q-25 7 -50 7q-170 0 -227 -224l-41 -168h219l-8 -32h-219l-252 -1008h-33l252 1008h-198l8 32h198l43 177q61 247 258 247z" />
    <glyph glyph-name="g" unicode="g" horiz-adv-x="1116" 
d="M627 1061q152 0 234.5 -98t78.5 -283h2q22 115 70 303l14 57h33l-246 -985q-111 -442 -491 -442q-157 0 -246.5 68.5t-89.5 191.5q0 31 6 61h33q-7 -40 -7 -61q0 -109 80.5 -168t223.5 -59q356 0 460 417q51 200 72 265h-2q-68 -150 -180.5 -233t-249.5 -83
q-161 0 -246.5 103t-85.5 291q0 85 21 174.5t66 175.5t107 154t151 109.5t192 41.5zM627 1028q-97 0 -181.5 -40t-142.5 -104.5t-99.5 -147t-61 -167t-19.5 -163.5q0 -174 75.5 -267.5t223.5 -93.5q95 0 177.5 43t139 111t97.5 152.5t60 168.5t19 158q0 167 -74.5 258.5
t-213.5 91.5z" />
    <glyph glyph-name="h" unicode="h" horiz-adv-x="1101" 
d="M690 1061q135 0 211 -74t76 -213q0 -68 -25 -166l-151 -608h-33l154 616q22 93 22 158q0 126 -66.5 190t-189.5 64q-146 0 -270.5 -106.5t-165.5 -270.5l-162 -651h-33l363 1458h33l-103 -418q-37 -152 -67 -243h2q69 127 177.5 195.5t227.5 68.5z" />
    <glyph glyph-name="i" unicode="i" horiz-adv-x="405" 
d="M414 1300h-33l39 158h33zM90 0h-33l258 1040h33z" />
    <glyph glyph-name="j" unicode="j" horiz-adv-x="428" 
d="M436 1300h-33l39 158h33zM371 1040l-283 -1138q-39 -156 -110.5 -220.5t-178.5 -64.5q-26 0 -41 6l9 31q12 -4 32 -4q96 0 159 57t99 203l281 1130h33z" />
    <glyph glyph-name="k" unicode="k" horiz-adv-x="899" 
d="M268 561l510 -561h-43l-506 555h-2l-137 -555h-33l363 1458h33l-220 -880h3l684 462h57z" />
    <glyph glyph-name="l" unicode="l" horiz-adv-x="405" 
d="M90 0h-33l363 1458h33z" />
    <glyph glyph-name="m" unicode="m" horiz-adv-x="1658" 
d="M1282 1061q123 0 189.5 -67t66.5 -197q0 -74 -25 -172l-155 -625h-33l158 633q22 96 22 164q0 231 -223 231q-133 0 -242.5 -98t-148.5 -256l-168 -674h-33l168 676q16 69 16 125q0 107 -57 167t-166 60q-136 0 -248 -106t-157 -289l-158 -633h-33l260 1040h33
q-32 -129 -65 -239h2q60 122 154.5 191t211.5 69q119 0 185.5 -68t66.5 -192l-2 -23q57 133 157 208t224 75z" />
    <glyph glyph-name="n" unicode="n" horiz-adv-x="1099" 
d="M688 1061q135 0 211 -74t76 -213q0 -68 -25 -166l-151 -608h-33l154 616q22 93 22 158q0 126 -66.5 190t-189.5 64q-146 0 -270.5 -106.5t-165.5 -270.5l-162 -651h-33l260 1040h33q-37 -152 -67 -243h2q69 127 177.5 195.5t227.5 68.5z" />
    <glyph glyph-name="o" unicode="o" horiz-adv-x="1081" 
d="M621 1061q177 0 273.5 -109.5t96.5 -304.5q0 -88 -21 -179.5t-66 -179t-106.5 -156t-150 -110.5t-190.5 -42q-178 0 -274.5 108t-96.5 303q0 88 21.5 180.5t66 180.5t106.5 156.5t150.5 110.5t190.5 42zM621 1028q-96 0 -180 -40.5t-141.5 -106t-99.5 -149.5t-61.5 -171
t-19.5 -170q0 -181 87.5 -280t250.5 -99q96 0 179.5 40.5t141.5 106t99.5 149t61 170.5t19.5 169q0 181 -87 281t-250 100z" />
    <glyph glyph-name="p" unicode="p" horiz-adv-x="1116" 
d="M272 752h2q72 149 182 229t242 80q159 0 246.5 -103.5t87.5 -287.5q0 -90 -21 -185t-65 -185.5t-105 -161.5t-148 -114.5t-187 -43.5q-166 0 -251.5 109.5t-74.5 285.5h-2q-13 -68 -59 -258l-123 -496h-33l354 1419h33l-6 -24q-38 -157 -72 -264zM506 12q95 0 177 42
t139 110t97.5 155t60 176.5t19.5 174.5q0 170 -78 264t-223 94q-94 0 -176.5 -43.5t-139 -113.5t-97.5 -157.5t-60.5 -175t-19.5 -167.5q0 -172 77 -265.5t224 -93.5z" />
    <glyph glyph-name="q" unicode="q" horiz-adv-x="1112" 
d="M842 289h-2q-72 -149 -182 -229t-242 -80q-159 0 -246.5 103.5t-87.5 287.5q0 90 21 185t65 185.5t105 161.5t148 114.5t187 43.5q166 0 251.5 -109.5t74.5 -285.5h2q13 68 59 258l29 116h33l-355 -1419h-32l100 404q38 157 72 264zM608 1028q-95 0 -177 -42t-139 -110
t-97.5 -154.5t-60 -176t-19.5 -174.5q0 -170 78 -264.5t223 -94.5q94 0 176.5 43.5t139 113.5t97.5 158t60.5 175.5t19.5 167.5q0 172 -77 265t-224 93z" />
    <glyph glyph-name="r" unicode="r" horiz-adv-x="653" 
d="M698 1044q28 0 56 -4l-9 -32q-28 4 -55 4q-158 0 -278.5 -104.5t-171.5 -307.5l-150 -600h-33l260 1040h33q-47 -184 -76 -270h2q146 274 422 274z" />
    <glyph glyph-name="s" unicode="s" horiz-adv-x="915" 
d="M535 1061q152 0 234.5 -67t82.5 -187q0 -50 -14 -102h-33q14 52 14 102q0 106 -72.5 163.5t-211.5 57.5q-148 0 -234 -77t-86 -185q0 -86 54.5 -129t183.5 -82q164 -47 233.5 -103t69.5 -163q0 -129 -103 -219t-282 -90q-164 0 -250 69.5t-86 198.5q0 53 14 108h33
q-14 -55 -14 -108q0 -115 76 -175.5t227 -60.5q164 0 258 81t94 196q0 94 -64 142.5t-221 94.5q-134 38 -195 90t-61 150q0 122 95 208.5t258 86.5z" />
    <glyph glyph-name="t" unicode="t" horiz-adv-x="552" 
d="M383 1008l-195 -775q-14 -57 -14 -100q0 -55 28.5 -79.5t90.5 -24.5q38 0 74 8l-9 -35q-24 -6 -65 -6q-152 0 -152 137q0 42 17 109l192 766h-200l8 32h200l60 240h33l-60 -240h215l-8 -32h-215z" />
    <glyph glyph-name="u" unicode="u" horiz-adv-x="1099" 
d="M412 -20q-135 0 -211 73.5t-76 212.5q0 68 25 166l151 608h33l-154 -616q-22 -93 -22 -158q0 -126 66.5 -190t189.5 -64q146 0 270.5 106.5t165.5 270.5l162 651h32l-260 -1040h-32l55 219h-2q-68 -114 -173 -176.5t-220 -62.5z" />
    <glyph glyph-name="v" unicode="v" horiz-adv-x="882" 
d="M336 0h-49l-154 1040h33l72 -489q70 -475 77 -520h2q192 300 336 520l318 489h39z" />
    <glyph glyph-name="w" unicode="w" horiz-adv-x="1527" 
d="M1030 0h-53l-47 541q-38 425 -41 469h-4q-47 -79 -138.5 -234.5t-138.5 -234.5l-315 -541h-53l-90 1040h32l45 -505l43 -502h4q107 185 299 512l291 495h54l45 -497q21 -255 45 -510h4l293 502l294 505h37z" />
    <glyph glyph-name="x" unicode="x" horiz-adv-x="901" 
d="M479 539l285 -539h-37l-272 514h-2l-527 -514h-47l555 543l-262 497h37l250 -473h2l479 473h47z" />
    <glyph glyph-name="y" unicode="y" horiz-adv-x="882" 
d="M1008 1040l-693 -1052q-76 -116 -133 -187.5t-109 -114t-97 -58t-101 -15.5t-88 14l8 33q28 -14 80 -14q66 0 119.5 26.5t123.5 104t167 223.5l-152 1040h33l145 -995h2l656 995h39z" />
    <glyph glyph-name="z" unicode="z" horiz-adv-x="903" 
d="M961 991l-1004 -954v-4h784l-8 -33h-821l12 49l1002 955v4h-742l9 32h780z" />
    <glyph glyph-name="braceleft" unicode="{" horiz-adv-x="571" 
d="M778 1518l-8 -33q-143 0 -222.5 -60t-113.5 -196l-96 -389q-25 -95 -70.5 -146t-134.5 -78l-2 -4q52 -26 75 -65t23 -101q0 -47 -14 -102l-82 -326q-16 -66 -16 -110q0 -92 52.5 -135t164.5 -43l-8 -33h-4q-120 0 -179 51.5t-59 159.5q0 52 18 119l82 325q13 60 13 94
q0 57 -22.5 90.5t-74.5 57.5l11 45q87 26 129 71t67 138l96 389q36 145 126 213t241 68h8z" />
    <glyph glyph-name="bar" unicode="|" horiz-adv-x="483" 
d="M258 -420h-33v1919h33v-1919z" />
    <glyph glyph-name="braceright" unicode="}" horiz-adv-x="571" 
d="M-164 -303l8 33q143 0 222.5 60t113.5 196l96 389q25 94 70.5 145t134.5 78l2 4q-52 26 -75 65t-23 101q0 47 14 102l82 326q17 70 17 111q0 92 -52.5 135t-164.5 43l8 33h4q119 0 178 -51.5t59 -159.5q0 -51 -18 -119l-82 -326q-12 -56 -12 -94q0 -58 22 -90.5t74 -56.5
l-10 -46q-87 -27 -130 -71t-67 -137l-96 -390q-36 -145 -126 -212.5t-241 -67.5h-8z" />
    <glyph glyph-name="asciitilde" unicode="~" horiz-adv-x="1159" 
d="M365 807q51 0 94.5 -15.5t73.5 -41t57.5 -56t54.5 -60.5t56 -55.5t69 -41t88 -15.5q100 0 177 70.5t106 187.5h33q-33 -135 -119 -213t-197 -78q-51 0 -94.5 15.5t-73.5 41t-57.5 56t-54.5 60.5t-56 55.5t-69 41t-88 15.5q-100 0 -176.5 -70.5t-104.5 -187.5h-33
q32 135 117.5 213t196.5 78z" />
    <glyph glyph-name="nbspace" unicode="&#xa0;" horiz-adv-x="471" 
 />
    <glyph glyph-name="exclamdown" unicode="&#xa1;" horiz-adv-x="413" 
d="M317 1040h37l-35 -141h-36zM256 762h20l-284 -1180h-37z" />
    <glyph glyph-name="cent" unicode="&#xa2;" 
d="M772 1401l-45 -180q129 -17 201.5 -107t72.5 -233q0 -19 -2 -31h-32q2 12 2 31q0 131 -66 212.5t-184 94.5l-252 -1014h12q139 0 251 84.5t159 224.5h35q-51 -155 -172.5 -248.5t-272.5 -93.5h-20l-45 -178h-33l45 180q-145 17 -221 116.5t-76 268.5q0 90 22 185.5
t68 186.5t109.5 163t154 116t193.5 44h18l45 178h33zM686 1190h-10q-98 0 -183.5 -42.5t-145 -111t-102 -156t-63 -177.5t-20.5 -175q0 -158 69 -248.5t203 -103.5z" />
    <glyph glyph-name="sterling" unicode="&#xa3;" 
d="M793 1401q137 0 209.5 -73.5t72.5 -207.5q0 -56 -14 -116h-33q14 60 14 116q0 121 -62.5 184.5t-186.5 63.5q-130 0 -223 -85.5t-134 -246.5l-88 -356h277l-9 -33h-276l-82 -323q-63 -247 -225 -295v-2q86 6 268 6h520l-8 -33h-893l8 33q109 0 186 75.5t113 223.5l80 315
h-227l8 33h227l91 364q42 173 144 265t243 92z" />
    <glyph glyph-name="currency" unicode="&#xa4;" 
d="M918 596q0 -187 -107 -303l162 -170l-25 -23l-160 170q-111 -100 -276 -100t-276 100l-160 -170l-25 23l162 170q-107 116 -107 303t107 303l-162 170l25 23l160 -170q111 100 276 100t276 -100l160 170l25 -23l-162 -170q107 -116 107 -303zM512 203q169 0 271 107.5
t102 285.5t-102 285.5t-271 107.5t-271 -107.5t-102 -285.5t102 -285.5t271 -107.5z" />
    <glyph glyph-name="yen" unicode="&#xa5;" 
d="M596 705h367l-9 -33h-389l-45 -185h389l-8 -32h-389l-113 -455h-32l112 455h-389l8 32h389l45 185h-389l9 33h366l-293 675h35l111 -252l182 -421h2l401 430l230 243h43z" />
    <glyph glyph-name="brokenbar" unicode="&#xa6;" horiz-adv-x="483" 
d="M258 782h-33v717h33v-717zM258 -420h-33v717h33v-717z" />
    <glyph glyph-name="section" unicode="&#xa7;" horiz-adv-x="1001" 
d="M690 1479q268 0 268 -246q0 -37 -8 -76h-32q8 39 8 76q0 109 -58 161t-178 52q-69 0 -126 -23.5t-91.5 -61t-53 -81t-18.5 -86.5q0 -34 9.5 -62.5t22 -50t47 -53t61.5 -53t88 -68.5q142 -108 193.5 -181.5t51.5 -158.5q0 -91 -65 -177t-199 -154v-3q70 -75 70 -188
q0 -59 -22.5 -116.5t-64.5 -107t-112 -80t-155 -30.5q-279 0 -279 246q0 45 14 100h33q-14 -55 -14 -100q0 -108 59.5 -160.5t186.5 -52.5q78 0 141.5 28t101.5 73t58 96.5t20 103.5q0 40 -10 73.5t-24 59t-48.5 58.5t-63.5 57t-89 69q-133 103 -182.5 169t-49.5 155
q0 93 63.5 179t194.5 157v2q-69 72 -69 170q0 50 21 99.5t60 91.5t101.5 68t138.5 26zM461 1001q-248 -145 -248 -315q0 -80 47 -142t172 -157q120 -93 158 -129q123 61 187.5 144t64.5 165q0 78 -50 146.5t-184 169.5q-100 74 -147 118z" />
    <glyph glyph-name="dieresis" unicode="&#xa8;" horiz-adv-x="616" 
d="M332 1300h-33l39 158h33zM709 1300h-33l39 158h33z" />
    <glyph glyph-name="copyright" unicode="&#xa9;" horiz-adv-x="1683" 
d="M842 1479q216 0 381.5 -93.5t256.5 -264t91 -392.5t-91 -392.5t-256.5 -263.5t-381.5 -93t-381.5 93t-256.5 263.5t-91 392.5t91 392.5t256.5 264t381.5 93.5zM842 1446q-314 0 -505.5 -197.5t-191.5 -519.5t191.5 -519.5t505.5 -197.5q313 0 504.5 197t191.5 520
t-191.5 520t-504.5 197zM844 1253q83 0 151.5 -27.5t114.5 -75t72.5 -109.5t31.5 -132h-32q-11 134 -99.5 223t-238.5 89q-181 0 -287 -133.5t-106 -362.5q0 -224 103 -355.5t280 -131.5q151 0 245.5 88t108.5 227h33q-18 -156 -120.5 -252t-266.5 -96q-190 0 -303 141
t-113 379q0 243 115.5 385.5t310.5 142.5z" />
    <glyph glyph-name="ordfeminine" unicode="&#xaa;" horiz-adv-x="733" 
d="M549 1419q106 0 166.5 -53t60.5 -156q0 -39 -14 -94l-70 -280q-23 -107 -26 -160h-33q3 54 31 158h-2q-99 -172 -300 -172q-100 0 -158.5 49t-58.5 133q0 191 291 233q142 21 291 31l4 16q12 50 12 86q0 176 -194 176q-103 0 -170 -54.5t-88 -145.5h-35q24 106 102 169.5
t191 63.5zM694 975l25 100q-105 -8 -279 -31q-262 -38 -262 -198q0 -72 49.5 -112t137.5 -40q124 0 210.5 73.5t118.5 207.5z" />
    <glyph glyph-name="guillemetleft" unicode="&#xab;" horiz-adv-x="737" 
d="M150 514l131 -403h-35l-133 409l331 410h41zM391 514l131 -403h-35l-133 409l332 410h41z" />
    <glyph glyph-name="logicalnot" unicode="&#xac;" horiz-adv-x="1159" 
d="M1006 326h-33v532h-819v33h852v-565z" />
    <glyph glyph-name="softhyphen" unicode="&#xad;" horiz-adv-x="561" 
d="M514 582h-438l8 32h438z" />
    <glyph glyph-name="registered" unicode="&#xae;" horiz-adv-x="1179" 
d="M700 1479q223 0 360.5 -141.5t137.5 -370.5t-137.5 -370.5t-360.5 -141.5t-360 141.5t-137 370.5t137 370.5t360 141.5zM700 1446q-209 0 -336.5 -132t-127.5 -347q0 -216 127.5 -348t336.5 -132t337 132.5t128 347.5t-128 347t-337 132zM502 1300h184q106 0 159.5 -46.5
t53.5 -127.5q0 -65 -37 -107.5t-98 -53.5v-2q36 -9 57 -34.5t43 -84.5l72 -199h-35l-67 189q-22 65 -52 89.5t-90 24.5h-157v-303h-33v655zM535 1268v-287h157q85 0 129.5 40.5t44.5 104.5q0 142 -180 142h-151z" />
    <glyph glyph-name="macron" unicode="&#xaf;" horiz-adv-x="669" 
d="M768 1327h-463l8 33h463z" />
    <glyph glyph-name="degree" unicode="&#xb0;" horiz-adv-x="593" 
d="M483 1479q85 0 145 -60t60 -145t-60 -145t-145 -60t-144.5 60t-59.5 145t59.5 145t144.5 60zM483 1446q-71 0 -121.5 -51t-50.5 -121t50.5 -121t121.5 -51t121.5 51t50.5 121t-50.5 121t-121.5 51z" />
    <glyph glyph-name="plusminus" unicode="&#xb1;" horiz-adv-x="1159" 
d="M596 645h410v-33h-410v-409h-33v409h-409v33h409v410h33v-410zM1006 0h-852v33h852v-33z" />
    <glyph glyph-name="twosuperior" unicode="&#xb2;" horiz-adv-x="778" 
d="M653 1657q112 0 178 -62t66 -165q0 -112 -78.5 -191.5t-281.5 -169.5q-99 -43 -166.5 -85t-108.5 -87t-63 -88t-37 -100h586l-9 -33h-616q28 151 116.5 245.5t284.5 178.5q194 85 266 155.5t72 171.5q0 92 -55 144.5t-154 52.5q-113 0 -192 -64.5t-115 -177.5h-35
q37 129 127 202t215 73z" />
    <glyph glyph-name="threesuperior" unicode="&#xb3;" horiz-adv-x="774" 
d="M614 1657q126 0 198.5 -61.5t72.5 -163.5q0 -91 -66 -165.5t-190 -99.5v-2q159 -48 159 -209q0 -50 -24 -101t-67 -94.5t-112.5 -71t-152.5 -27.5q-129 0 -197.5 57t-68.5 158q0 30 8 61h33q-6 -30 -6 -59q0 -88 58.5 -136.5t172.5 -48.5q76 0 139.5 24.5t102 63t59.5 84
t21 90.5q0 95 -60.5 146t-173.5 51h-63l8 33h59q83 0 148.5 23t103.5 60.5t57 79t19 83.5q0 88 -63 140t-175 52q-107 0 -185 -63t-107 -177h-33q30 128 117.5 200.5t207.5 72.5z" />
    <glyph glyph-name="acute" unicode="&#xb4;" horiz-adv-x="440" 
d="M305 1176h-39l258 282h47z" />
    <glyph glyph-name="micro" unicode="&#xb5;" horiz-adv-x="1120" 
d="M1053 1040l-203 -817q-21 -83 -21 -125q0 -39 17.5 -55t56.5 -16q27 0 51 8l-8 -35q-21 -6 -43 -6q-106 0 -106 104q0 51 30 146h-2q-58 -121 -164.5 -192.5t-228.5 -71.5q-136 0 -210 69t-75 207h-2q-26 -141 -57 -256l-94 -379h-33l354 1419h33l-153 -616
q-23 -97 -23 -158q0 -126 67.5 -190t192.5 -64q140 0 262.5 104.5t165.5 280.5l160 643h33z" />
    <glyph glyph-name="paragraph" unicode="&#xb6;" horiz-adv-x="1013" 
d="M1198 1425h-164l-416 -1671h-32l415 1671h-190l-416 -1671h-33l230 926q-179 8 -273 99.5t-94 262.5q0 71 26 143t73.5 133.5t125.5 100.5t173 39h583z" />
    <glyph glyph-name="periodcentered" unicode="&#xb7;" horiz-adv-x="278" 
d="M166 553h-37l37 147h37z" />
    <glyph glyph-name="cedilla" unicode="&#xb8;" horiz-adv-x="561" 
d="M219 0l-131 -139q16 4 33 4q67 0 103 -33t36 -92q0 -71 -55.5 -115.5t-143.5 -44.5q-101 0 -180 47l17 29q67 -43 163 -43q74 0 120 35t46 92q0 94 -106 94q-37 0 -70 -10l-20 22l143 154h45z" />
    <glyph glyph-name="onesuperior" unicode="&#xb9;" horiz-adv-x="442" 
d="M309 676h-33l218 868h-2q-64 -94 -238 -94l8 31q105 0 164 36.5t94 124.5h31z" />
    <glyph glyph-name="ordmasculine" unicode="&#xba;" horiz-adv-x="780" 
d="M573 1419q131 0 202 -78t71 -217q0 -62 -15 -125.5t-47 -124t-76 -108t-108 -76t-137 -28.5q-130 0 -201.5 77t-71.5 215q0 62 15 126t47 125t76 108.5t108 76.5t137 29zM573 1386q-68 0 -126.5 -27.5t-99 -72t-69 -101.5t-42 -116t-13.5 -115q0 -125 62 -192.5
t178 -67.5q68 0 126.5 27.5t99 71.5t69 101t42 115.5t13.5 114.5q0 126 -61.5 194t-178.5 68z" />
    <glyph glyph-name="guillemetright" unicode="&#xbb;" horiz-adv-x="737" 
d="M346 526l-131 404h35l133 -410l-332 -409h-41zM588 526l-131 404h35l133 -410l-332 -409h-41z" />
    <glyph glyph-name="onequarter" unicode="&#xbc;" horiz-adv-x="1196" 
d="M1126 1380l-1151 -1380h-36l1151 1380h36zM395 1284h-2q-61 -74 -203 -74l9 33q91 0 140.5 31t80.5 106h33l-207 -827h-33zM944 281h172l-8 -33h-172l-62 -248h-32l61 248h-399l8 39l520 540h49zM549 281h362l33 133q56 225 94 372h-2q-62 -66 -177.5 -186t-143.5 -149z
" />
    <glyph glyph-name="onehalf" unicode="&#xbd;" horiz-adv-x="1265" 
d="M-25 0h-36l1151 1380h36zM246 553h-33l182 731h-2q-61 -74 -203 -74l9 33q91 0 140.5 31t80.5 106h33zM989 842q99 0 156 -54t57 -143q0 -96 -68 -165.5t-241 -145.5q-84 -37 -141 -72t-91.5 -72.5t-52.5 -73t-30 -83.5h499l-8 -33h-532q23 130 99 210.5t245 154.5
q165 73 226.5 133t61.5 147q0 75 -47.5 119.5t-132.5 44.5q-92 0 -162.5 -56.5t-93.5 -148.5h-35q31 111 108.5 174.5t182.5 63.5z" />
    <glyph glyph-name="threequarters" unicode="&#xbe;" horiz-adv-x="1480" 
d="M655 793q0 -45 -20 -89t-57 -80.5t-96.5 -59.5t-131.5 -23q-112 0 -171.5 50t-59.5 138q0 25 6 49h33q-6 -24 -6 -49q0 -74 51 -115t147 -41q126 0 199.5 67.5t73.5 152.5q0 79 -52.5 122t-148.5 43h-53l8 33h49q71 0 127 19.5t88.5 51.5t49 67t16.5 71q0 74 -53.5 118
t-147.5 44t-161.5 -53t-88.5 -150h-33q26 115 101 175.5t182 60.5q108 0 170.5 -53t62.5 -142q0 -76 -57 -139.5t-162 -87.5v-2q135 -42 135 -178zM1411 1380l-1151 -1380h-37l1151 1380h37zM1229 281h172l-8 -33h-172l-62 -248h-33l62 248h-400l9 39l520 540h49zM834 281
h362l33 133q56 225 94 372h-2q-60 -64 -173 -180.5t-149 -154.5z" />
    <glyph glyph-name="questiondown" unicode="&#xbf;" horiz-adv-x="884" 
d="M641 1040h37l-35 -141h-37zM279 -438q-157 0 -251 86.5t-94 226.5q0 119 68.5 215t259.5 227q104 71 156.5 122.5t89 124t67.5 196.5h27q-32 -135 -65 -206.5t-87.5 -127t-170.5 -135.5q-183 -127 -247.5 -217t-64.5 -199q0 -127 84 -204t228 -77q152 0 264.5 93
t163.5 262h34q-55 -186 -176.5 -286.5t-285.5 -100.5z" />
    <glyph glyph-name="Agrave" unicode="&#xc0;" horiz-adv-x="1298" 
d="M987 1556l-164 259h41l158 -259h-35zM1028 545h-741l-365 -545h-39l975 1458h45l252 -1458h-33zM1022 578l-35 200q-95 562 -110 647h-3q-57 -86 -204.5 -306t-227.5 -341l-135 -200h715z" />
    <glyph glyph-name="Aacute" unicode="&#xc1;" horiz-adv-x="1298" 
d="M836 1556h-43l280 259h49zM1028 545h-741l-365 -545h-39l975 1458h45l252 -1458h-33zM1022 578l-35 200q-95 562 -110 647h-3q-57 -86 -204.5 -306t-227.5 -341l-135 -200h715z" />
    <glyph glyph-name="Acircumflex" unicode="&#xc2;" horiz-adv-x="1298" 
d="M696 1556h-51l311 259h33l180 -259h-39l-159 228zM903 1458l252 -1458h-33l-94 545h-741l-365 -545h-39l975 1458h45zM1022 578l-35 200q-95 562 -110 647h-3q-57 -86 -204.5 -306t-227.5 -341l-135 -200h715z" />
    <glyph glyph-name="Atilde" unicode="&#xc3;" horiz-adv-x="1298" 
d="M1229 1794h35q-26 -80 -73.5 -123t-107.5 -43q-42 0 -80 21t-62 45.5t-59 45.5t-73 21q-99 0 -143 -133h-35q26 81 73.5 123.5t106.5 42.5q42 0 80 -21t62 -45.5t59 -45.5t73 -21q100 0 144 133zM903 1458l252 -1458h-33l-94 545h-741l-365 -545h-39l975 1458h45z
M1022 578l-35 200q-95 562 -110 647h-3q-57 -86 -204.5 -306t-227.5 -341l-135 -200h715z" />
    <glyph glyph-name="Adieresis" unicode="&#xc4;" horiz-adv-x="1298" 
d="M745 1595h-32l41 158h32zM1122 1595h-32l40 158h33zM903 1458l252 -1458h-33l-94 545h-741l-365 -545h-39l975 1458h45zM1022 578l-35 200q-95 562 -110 647h-3q-57 -86 -204.5 -306t-227.5 -341l-135 -200h715z" />
    <glyph glyph-name="Aring" unicode="&#xc5;" horiz-adv-x="1298" 
d="M934 1571q-71 0 -121.5 50t-50.5 122q0 71 51 121.5t121 50.5t121 -50.5t51 -121.5q0 -72 -50.5 -122t-121.5 -50zM934 1882q-58 0 -98.5 -40t-40.5 -99t40.5 -99t98.5 -40t98.5 40t40.5 99t-40.5 99t-98.5 40zM1028 545h-741l-365 -545h-39l975 1458h45l252 -1458h-33z
M1022 578l-35 200q-95 562 -110 647h-3q-57 -86 -204.5 -306t-227.5 -341l-135 -200h715z" />
    <glyph glyph-name="AE" unicode="&#xc6;" horiz-adv-x="1853" 
d="M1092 1425l-60 -659h697l-9 -33h-692l-61 -700h643l-8 -33h-672l53 584h-625l-458 -584h-41l1147 1458h929l-8 -33h-835zM1059 1425h-39l-635 -809h602z" />
    <glyph glyph-name="Ccedilla" unicode="&#xc7;" horiz-adv-x="1353" 
d="M897 1479q145 0 246.5 -61.5t148.5 -162t47 -229.5q0 -24 -4 -74h-32q4 50 4 74q0 186 -104.5 303t-303.5 117q-116 0 -220 -39.5t-182.5 -107.5t-142.5 -158t-104.5 -192t-62 -207.5t-21.5 -206.5q0 -240 117.5 -381.5t330.5 -141.5q202 0 360 120.5t224 311.5h35
q-69 -202 -228.5 -329.5t-365.5 -134.5l-113 -119q16 4 33 4q67 0 103 -33t36 -92q0 -71 -55 -115.5t-143 -44.5q-102 0 -181 47l17 29q67 -43 164 -43q74 0 120 35t46 92q0 94 -107 94q-37 0 -70 -10l-20 22l125 134q-218 7 -339.5 157.5t-121.5 399.5q0 127 31 258.5
t95.5 254t153.5 218t215 153.5t269 58z" />
    <glyph glyph-name="Egrave" unicode="&#xc8;" horiz-adv-x="1200" 
d="M985 1556h-35l-164 259h41zM1274 1425h-801l-164 -659h766l-8 -33h-766l-174 -700h829l-8 -33h-862l363 1458h833z" />
    <glyph glyph-name="Eacute" unicode="&#xc9;" horiz-adv-x="1200" 
d="M799 1556h-43l280 259h49zM1274 1425h-801l-164 -659h766l-8 -33h-766l-174 -700h829l-8 -33h-862l363 1458h833z" />
    <glyph glyph-name="Ecircumflex" unicode="&#xca;" horiz-adv-x="1200" 
d="M920 1815h32l181 -259h-39l-160 228l-275 -228h-51zM1274 1425h-801l-164 -659h766l-8 -33h-766l-174 -700h829l-8 -33h-862l363 1458h833z" />
    <glyph glyph-name="Edieresis" unicode="&#xcb;" horiz-adv-x="1200" 
d="M709 1595h-33l41 158h33zM1085 1595h-32l41 158h32zM1274 1425h-801l-164 -659h766l-8 -33h-766l-174 -700h829l-8 -33h-862l363 1458h833z" />
    <glyph glyph-name="Igrave" unicode="&#xcc;" horiz-adv-x="462" 
d="M604 1556h-35l-163 259h40zM119 0h-33l363 1458h32z" />
    <glyph glyph-name="Iacute" unicode="&#xcd;" horiz-adv-x="462" 
d="M418 1556h-43l280 259h50zM119 0h-33l363 1458h32z" />
    <glyph glyph-name="Icircumflex" unicode="&#xce;" horiz-adv-x="462" 
d="M539 1815h32l181 -259h-39l-160 228l-274 -228h-52zM119 0h-33l363 1458h32z" />
    <glyph glyph-name="Idieresis" unicode="&#xcf;" horiz-adv-x="462" 
d="M328 1595h-33l41 158h33zM705 1595h-33l41 158h32zM119 0h-33l363 1458h32z" />
    <glyph glyph-name="Eth" unicode="&#xd0;" horiz-adv-x="1449" 
d="M449 1458h311q318 0 482.5 -159t164.5 -459q0 -96 -22 -192.5t-66 -191.5t-116.5 -177t-165.5 -144.5t-222 -98.5t-278 -36h-451l180 721h-125l9 33h122zM127 33h410q173 0 316 50t237.5 131.5t160 188t94.5 216.5t29 221q0 286 -155 435.5t-459 149.5h-287l-168 -671
h524l-8 -33h-522z" />
    <glyph glyph-name="Ntilde" unicode="&#xd1;" horiz-adv-x="1470" 
d="M1315 1794h35q-26 -80 -73.5 -123t-107.5 -43q-42 0 -80 21t-62 45.5t-59 45.5t-73 21q-99 0 -143 -133h-35q26 81 73.5 123.5t106.5 42.5q42 0 80 -21t62 -45.5t59 -45.5t73 -21q100 0 144 133zM1126 0h-49l-286 682l-316 745h-2l-197 -790l-157 -637h-33l363 1458h49
l286 -682q34 -81 144 -341t170 -404h2q34 132 99 395t99 395l158 637h33z" />
    <glyph glyph-name="Ograve" unicode="&#xd2;" horiz-adv-x="1437" 
d="M1042 1556h-34l-164 259h41zM887 1479q244 0 381 -159t137 -421q0 -102 -22 -209t-63.5 -209.5t-107 -193t-146 -159t-187 -108.5t-224.5 -40q-244 0 -381 158.5t-137 420.5q0 102 22 209t63.5 210t107 193.5t146 159t187 108.5t224.5 40zM887 1446q-136 0 -254 -55
t-201.5 -146t-143.5 -207t-89 -238.5t-29 -240.5q0 -248 127.5 -397.5t357.5 -149.5q136 0 254 55t201.5 146t143.5 207t89 238.5t29 240.5q0 248 -127.5 397.5t-357.5 149.5z" />
    <glyph glyph-name="Oacute" unicode="&#xd3;" horiz-adv-x="1437" 
d="M856 1556h-43l281 259h49zM887 1479q244 0 381 -159t137 -421q0 -102 -22 -209t-63.5 -209.5t-107 -193t-146 -159t-187 -108.5t-224.5 -40q-244 0 -381 158.5t-137 420.5q0 102 22 209t63.5 210t107 193.5t146 159t187 108.5t224.5 40zM887 1446q-136 0 -254 -55
t-201.5 -146t-143.5 -207t-89 -238.5t-29 -240.5q0 -248 127.5 -397.5t357.5 -149.5q136 0 254 55t201.5 146t143.5 207t89 238.5t29 240.5q0 248 -127.5 397.5t-357.5 149.5z" />
    <glyph glyph-name="Ocircumflex" unicode="&#xd4;" horiz-adv-x="1437" 
d="M977 1815h33l180 -259h-39l-160 228l-274 -228h-51zM887 1479q244 0 381 -159t137 -421q0 -102 -22 -209t-63.5 -209.5t-107 -193t-146 -159t-187 -108.5t-224.5 -40q-244 0 -381 158.5t-137 420.5q0 102 22 209t63.5 210t107 193.5t146 159t187 108.5t224.5 40z
M887 1446q-136 0 -254 -55t-201.5 -146t-143.5 -207t-89 -238.5t-29 -240.5q0 -248 127.5 -397.5t357.5 -149.5q136 0 254 55t201.5 146t143.5 207t89 238.5t29 240.5q0 248 -127.5 397.5t-357.5 149.5z" />
    <glyph glyph-name="Otilde" unicode="&#xd5;" horiz-adv-x="1437" 
d="M1249 1794h35q-26 -81 -73.5 -123.5t-106.5 -42.5q-42 0 -80.5 21t-62.5 45.5t-59 45.5t-73 21q-99 0 -143 -133h-35q26 81 73.5 123.5t106.5 42.5q42 0 80.5 -21t62.5 -45.5t59 -45.5t73 -21q99 0 143 133zM887 1479q244 0 381 -159t137 -421q0 -102 -22 -209
t-63.5 -209.5t-107 -193t-146 -159t-187 -108.5t-224.5 -40q-244 0 -381 158.5t-137 420.5q0 102 22 209t63.5 210t107 193.5t146 159t187 108.5t224.5 40zM887 1446q-136 0 -254 -55t-201.5 -146t-143.5 -207t-89 -238.5t-29 -240.5q0 -248 127.5 -397.5t357.5 -149.5
q136 0 254 55t201.5 146t143.5 207t89 238.5t29 240.5q0 248 -127.5 397.5t-357.5 149.5z" />
    <glyph glyph-name="Odieresis" unicode="&#xd6;" horiz-adv-x="1437" 
d="M766 1595h-33l41 158h33zM1143 1595h-33l41 158h33zM887 1479q244 0 381 -159t137 -421q0 -102 -22 -209t-63.5 -209.5t-107 -193t-146 -159t-187 -108.5t-224.5 -40q-244 0 -381 158.5t-137 420.5q0 102 22 209t63.5 210t107 193.5t146 159t187 108.5t224.5 40z
M887 1446q-136 0 -254 -55t-201.5 -146t-143.5 -207t-89 -238.5t-29 -240.5q0 -248 127.5 -397.5t357.5 -149.5q136 0 254 55t201.5 146t143.5 207t89 238.5t29 240.5q0 248 -127.5 397.5t-357.5 149.5z" />
    <glyph glyph-name="multiply" unicode="&#xd7;" horiz-adv-x="1159" 
d="M1032 1057l-430 -430l430 -430l-22 -23l-430 430l-428 -428l-23 23l428 428l-428 428l23 22l428 -428l430 430z" />
    <glyph glyph-name="Oslash" unicode="&#xd8;" horiz-adv-x="1437" 
d="M1470 1397l-151 -150q86 -142 86 -348q0 -102 -22 -209t-63.5 -209.5t-107 -193t-146 -159t-187 -108.5t-224.5 -40q-275 0 -415 202l-146 -143l-22 22l151 150q-86 142 -86 348q0 102 22 209t63.5 210t107 193.5t146 159t187 108.5t224.5 40q137 0 243 -53t173 -150
l145 143zM170 559q0 -190 76 -326l1032 1018q-127 195 -391 195q-136 0 -254 -55t-201.5 -146t-143.5 -207t-89 -238.5t-29 -240.5zM1372 899q0 195 -76 326l-1032 -1018q130 -195 391 -195q136 0 254 55t201.5 146t143.5 207t89 238.5t29 240.5z" />
    <glyph glyph-name="Ugrave" unicode="&#xd9;" horiz-adv-x="1372" 
d="M1038 1556h-34l-164 259h41zM1403 1458l-244 -975q-62 -250 -209.5 -376.5t-369.5 -126.5q-394 0 -394 391q0 87 31 211l219 876h33l-221 -885q-29 -122 -29 -202q0 -181 89.5 -270t271.5 -89q209 0 349 120.5t199 359.5l242 966h33z" />
    <glyph glyph-name="Uacute" unicode="&#xda;" horiz-adv-x="1372" 
d="M852 1556h-43l281 259h49zM1403 1458l-244 -975q-62 -250 -209.5 -376.5t-369.5 -126.5q-394 0 -394 391q0 87 31 211l219 876h33l-221 -885q-29 -122 -29 -202q0 -181 89.5 -270t271.5 -89q209 0 349 120.5t199 359.5l242 966h33z" />
    <glyph glyph-name="Ucircumflex" unicode="&#xdb;" horiz-adv-x="1372" 
d="M973 1815h33l180 -259h-39l-160 228l-274 -228h-51zM1403 1458l-244 -975q-62 -250 -209.5 -376.5t-369.5 -126.5q-394 0 -394 391q0 87 31 211l219 876h33l-221 -885q-29 -122 -29 -202q0 -181 89.5 -270t271.5 -89q209 0 349 120.5t199 359.5l242 966h33z" />
    <glyph glyph-name="Udieresis" unicode="&#xdc;" horiz-adv-x="1372" 
d="M762 1595h-33l41 158h33zM1139 1595h-33l41 158h33zM1403 1458l-244 -975q-62 -250 -209.5 -376.5t-369.5 -126.5q-394 0 -394 391q0 87 31 211l219 876h33l-221 -885q-29 -122 -29 -202q0 -181 89.5 -270t271.5 -89q209 0 349 120.5t199 359.5l242 966h33z" />
    <glyph glyph-name="Yacute" unicode="&#xdd;" horiz-adv-x="1167" 
d="M750 1556h-43l280 259h49zM633 651l-162 -651h-33l162 651l-352 807h35l153 -350l185 -422h2q321 346 403 432l317 340h43z" />
    <glyph glyph-name="Thorn" unicode="&#xde;" horiz-adv-x="1179" 
d="M403 1141h383q195 0 291.5 -92.5t96.5 -253.5q0 -57 -17.5 -115.5t-56.5 -114t-94 -98.5t-136.5 -69.5t-177.5 -26.5h-481l-92 -371h-33l363 1458h32zM395 1108l-176 -705h473q90 0 166.5 24.5t127.5 65t87 92t52 105t16 105.5q0 147 -87.5 230t-267.5 83h-391z" />
    <glyph glyph-name="germandbls" unicode="&#xdf;" horiz-adv-x="1083" 
d="M766 1479q147 0 228 -75t81 -202q0 -65 -21 -125t-61.5 -111.5t-108.5 -88.5t-155 -50v-2q108 -27 173 -110.5t65 -227.5q0 -72 -20.5 -141.5t-65.5 -134.5t-109 -114.5t-157.5 -79t-204.5 -29.5q-80 0 -144 18l8 33q65 -19 136 -19q106 0 194.5 28t148 74.5t101.5 107.5
t61 126t19 131q0 154 -85.5 239t-234.5 85h-12l8 33q114 0 201 33t135.5 87.5t72 114.5t23.5 123q0 112 -71.5 178t-204.5 66q-155 0 -262.5 -106t-155.5 -300l-258 -1040h-33l260 1049q51 206 167 318t282 112z" />
    <glyph glyph-name="agrave" unicode="&#xe0;" horiz-adv-x="1011" 
d="M600 1458l127 -282h-31l-135 282h39zM584 1061q143 0 225 -74.5t82 -220.5q0 -50 -21 -135l-102 -408q-34 -139 -37 -223h-33q5 74 47 242h-2q-65 -124 -172.5 -193t-253.5 -69q-137 0 -215.5 69t-78.5 189q0 45 11.5 84.5t40 79t72.5 71t114.5 56.5t160.5 38
q176 25 412 47l6 25q18 73 18 127q0 132 -72.5 197t-201.5 65q-145 0 -242 -83t-127 -218h-35q34 152 142 243t262 91zM786 426l39 156q-214 -18 -401 -47q-369 -56 -369 -297q0 -106 69.5 -166t192.5 -60q176 0 297.5 108t171.5 306z" />
    <glyph glyph-name="aacute" unicode="&#xe1;" horiz-adv-x="1011" 
d="M567 1176h-39l258 282h48zM584 1061q143 0 225 -74.5t82 -220.5q0 -50 -21 -135l-102 -408q-34 -139 -37 -223h-33q5 74 47 242h-2q-65 -124 -172.5 -193t-253.5 -69q-137 0 -215.5 69t-78.5 189q0 45 11.5 84.5t40 79t72.5 71t114.5 56.5t160.5 38q176 25 412 47l6 25
q18 73 18 127q0 132 -72.5 197t-201.5 65q-145 0 -242 -83t-127 -218h-35q34 152 142 243t262 91zM786 426l39 156q-214 -18 -401 -47q-369 -56 -369 -297q0 -106 69.5 -166t192.5 -60q176 0 297.5 108t171.5 306z" />
    <glyph glyph-name="acircumflex" unicode="&#xe2;" horiz-adv-x="1011" 
d="M887 1176h-39l-154 251l-278 -251h-49l313 282h33zM584 1061q143 0 225 -74.5t82 -220.5q0 -50 -21 -135l-102 -408q-34 -139 -37 -223h-33q5 74 47 242h-2q-65 -124 -172.5 -193t-253.5 -69q-137 0 -215.5 69t-78.5 189q0 45 11.5 84.5t40 79t72.5 71t114.5 56.5
t160.5 38q176 25 412 47l6 25q18 73 18 127q0 132 -72.5 197t-201.5 65q-145 0 -242 -83t-127 -218h-35q34 152 142 243t262 91zM786 426l39 156q-214 -18 -401 -47q-369 -56 -369 -297q0 -106 69.5 -166t192.5 -60q176 0 297.5 108t171.5 306z" />
    <glyph glyph-name="atilde" unicode="&#xe3;" horiz-adv-x="1011" 
d="M952 1438h35q-26 -81 -73.5 -123.5t-106.5 -42.5q-42 0 -80 21t-61.5 45.5t-58 45.5t-72.5 21q-100 0 -144 -133h-35q26 80 73.5 123t107.5 43q42 0 80 -21t61.5 -45.5t58 -45.5t72.5 -21q99 0 143 133zM584 1061q143 0 225 -74.5t82 -220.5q0 -50 -21 -135l-102 -408
q-34 -139 -37 -223h-33q5 74 47 242h-2q-65 -124 -172.5 -193t-253.5 -69q-137 0 -215.5 69t-78.5 189q0 45 11.5 84.5t40 79t72.5 71t114.5 56.5t160.5 38q176 25 412 47l6 25q18 73 18 127q0 132 -72.5 197t-201.5 65q-145 0 -242 -83t-127 -218h-35q34 152 142 243
t262 91zM786 426l39 156q-214 -18 -401 -47q-369 -56 -369 -297q0 -106 69.5 -166t192.5 -60q176 0 297.5 108t171.5 306z" />
    <glyph glyph-name="adieresis" unicode="&#xe4;" horiz-adv-x="1011" 
d="M485 1300h-32l39 158h32zM862 1300h-33l39 158h33zM584 1061q143 0 225 -74.5t82 -220.5q0 -50 -21 -135l-102 -408q-34 -139 -37 -223h-33q5 74 47 242h-2q-65 -124 -172.5 -193t-253.5 -69q-137 0 -215.5 69t-78.5 189q0 45 11.5 84.5t40 79t72.5 71t114.5 56.5
t160.5 38q176 25 412 47l6 25q18 73 18 127q0 132 -72.5 197t-201.5 65q-145 0 -242 -83t-127 -218h-35q34 152 142 243t262 91zM786 426l39 156q-214 -18 -401 -47q-369 -56 -369 -297q0 -106 69.5 -166t192.5 -60q176 0 297.5 108t171.5 306z" />
    <glyph glyph-name="aring" unicode="&#xe5;" horiz-adv-x="1011" 
d="M657 1559q70 0 121 -51t51 -122q0 -72 -50.5 -122t-121.5 -50t-121.5 50t-50.5 122q0 71 51 122t121 51zM657 1526q-58 0 -98.5 -40.5t-40.5 -99.5q0 -58 40 -98.5t99 -40.5t99.5 40.5t40.5 98.5t-40.5 99t-99.5 41zM584 1061q143 0 225 -74.5t82 -220.5q0 -50 -21 -135
l-102 -408q-34 -139 -37 -223h-33q5 74 47 242h-2q-65 -124 -172.5 -193t-253.5 -69q-137 0 -215.5 69t-78.5 189q0 45 11.5 84.5t40 79t72.5 71t114.5 56.5t160.5 38q176 25 412 47l6 25q18 73 18 127q0 132 -72.5 197t-201.5 65q-145 0 -242 -83t-127 -218h-35
q34 152 142 243t262 91zM786 426l39 156q-214 -18 -401 -47q-369 -56 -369 -297q0 -106 69.5 -166t192.5 -60q176 0 297.5 108t171.5 306z" />
    <glyph glyph-name="ae" unicode="&#xe6;" horiz-adv-x="1669" 
d="M1573 530h-746q-18 -88 -18 -165q0 -167 71.5 -260t202.5 -93q130 0 235.5 80.5t149.5 212.5h35q-49 -149 -163.5 -237t-256.5 -88q-146 0 -223.5 99t-79.5 279h-2q-49 -175 -175.5 -276.5t-272.5 -101.5q-143 0 -225 69t-82 191q0 49 13.5 93t47.5 87t86 74t133.5 50
t185.5 19h314l20 82q17 70 17 111q0 272 -256 272q-145 0 -242 -83t-127 -218h-35q34 152 142 243t262 91q135 0 209.5 -75t74.5 -230v-6h2q69 140 177.5 225.5t248.5 85.5t221.5 -96t81.5 -271q0 -76 -26 -164zM1296 1028q-161 0 -284.5 -128.5t-175.5 -336.5h710
q21 64 21 131q0 161 -72.5 247.5t-198.5 86.5zM330 12q167 0 283.5 115.5t160.5 321.5l21 81h-306q-98 0 -175 -17.5t-125 -45.5t-79 -67t-43 -78t-12 -82q0 -108 72.5 -168t202.5 -60z" />
    <glyph glyph-name="ccedilla" unicode="&#xe7;" horiz-adv-x="1009" 
d="M631 1061q151 0 238 -92t87 -250q0 -19 -2 -31h-32q2 12 2 31q0 143 -78 226t-215 83q-82 0 -156 -29.5t-129 -80.5t-99.5 -117t-72.5 -140t-42.5 -149t-14.5 -145q0 -171 80.5 -263t236.5 -92q139 0 251 85t159 225h35q-47 -144 -157 -236t-249 -104l-113 -121
q16 4 33 4q67 0 103 -33t36 -92q0 -71 -55 -115.5t-143 -44.5q-101 0 -180 47l16 29q67 -43 164 -43q74 0 120 35t46 92q0 94 -107 94q-36 0 -69 -10l-21 22l125 134q-167 1 -255.5 102.5t-88.5 284.5q0 90 22 185.5t68 186.5t109.5 162.5t154 115.5t193.5 44z" />
    <glyph glyph-name="egrave" unicode="&#xe8;" horiz-adv-x="1054" 
d="M719 1176l-135 282h39l127 -282h-31zM958 530h-825q-18 -88 -18 -165q0 -168 80.5 -260.5t232.5 -92.5q142 0 258.5 80.5t167.5 212.5h35q-55 -149 -181 -237t-280 -88q-166 0 -256 101.5t-90 283.5q0 91 22.5 187t69.5 187t112 163t157.5 115.5t197.5 43.5
q159 0 251.5 -96t92.5 -271q0 -72 -27 -164zM641 1028q-177 0 -311 -128.5t-189 -336.5h791q20 61 20 131q0 160 -83 247t-228 87z" />
    <glyph glyph-name="eacute" unicode="&#xe9;" horiz-adv-x="1054" 
d="M590 1176h-39l258 282h47zM958 530h-825q-18 -88 -18 -165q0 -168 80.5 -260.5t232.5 -92.5q142 0 258.5 80.5t167.5 212.5h35q-55 -149 -181 -237t-280 -88q-166 0 -256 101.5t-90 283.5q0 91 22.5 187t69.5 187t112 163t157.5 115.5t197.5 43.5q159 0 251.5 -96
t92.5 -271q0 -72 -27 -164zM641 1028q-177 0 -311 -128.5t-189 -336.5h791q20 61 20 131q0 160 -83 247t-228 87z" />
    <glyph glyph-name="ecircumflex" unicode="&#xea;" horiz-adv-x="1054" 
d="M438 1176h-49l313 282h33l174 -282h-39l-153 251zM958 530h-825q-18 -88 -18 -165q0 -168 80.5 -260.5t232.5 -92.5q142 0 258.5 80.5t167.5 212.5h35q-55 -149 -181 -237t-280 -88q-166 0 -256 101.5t-90 283.5q0 91 22.5 187t69.5 187t112 163t157.5 115.5t197.5 43.5
q159 0 251.5 -96t92.5 -271q0 -72 -27 -164zM641 1028q-177 0 -311 -128.5t-189 -336.5h791q20 61 20 131q0 160 -83 247t-228 87z" />
    <glyph glyph-name="edieresis" unicode="&#xeb;" horiz-adv-x="1054" 
d="M508 1300h-33l39 158h33zM885 1300h-33l39 158h33zM958 530h-825q-18 -88 -18 -165q0 -168 80.5 -260.5t232.5 -92.5q142 0 258.5 80.5t167.5 212.5h35q-55 -149 -181 -237t-280 -88q-166 0 -256 101.5t-90 283.5q0 91 22.5 187t69.5 187t112 163t157.5 115.5t197.5 43.5
q159 0 251.5 -96t92.5 -271q0 -72 -27 -164zM641 1028q-177 0 -311 -128.5t-189 -336.5h791q20 61 20 131q0 160 -83 247t-228 87z" />
    <glyph glyph-name="igrave" unicode="&#xec;" horiz-adv-x="405" 
d="M340 1458l127 -282h-31l-135 282h39zM90 0h-33l258 1040h33z" />
    <glyph glyph-name="iacute" unicode="&#xed;" horiz-adv-x="405" 
d="M307 1176h-39l258 282h47zM90 0h-33l258 1040h33z" />
    <glyph glyph-name="icircumflex" unicode="&#xee;" horiz-adv-x="405" 
d="M582 1178h-37l-113 247l-237 -247h-45l268 280h35zM90 0h-33l258 1040h33z" />
    <glyph glyph-name="idieresis" unicode="&#xef;" horiz-adv-x="405" 
d="M270 1317h-32l34 141h33zM565 1317h-33l35 141h33zM90 0h-33l258 1040h33z" />
    <glyph glyph-name="eth" unicode="&#xf0;" horiz-adv-x="1081" 
d="M1016 1444l-279 -131q254 -314 254 -662q0 -90 -21 -182.5t-65.5 -180.5t-106.5 -156.5t-151.5 -110t-193.5 -41.5q-174 0 -269.5 106.5t-95.5 300.5q0 88 21.5 181t67 181t108 157.5t151 112t189.5 42.5q105 0 182.5 -42t118.5 -120l2 2q-67 207 -221 397l-285 -135
l-14 29l278 131q-49 56 -127 131l23 25q65 -62 135 -142l284 136zM453 12q99 0 183.5 40.5t142.5 106t99.5 150t60.5 171.5t19 171q0 181 -86 279t-247 98q-80 0 -152 -28.5t-126.5 -77.5t-98 -113t-71 -136t-42 -145t-14.5 -141q0 -181 85.5 -278t246.5 -97z" />
    <glyph glyph-name="ntilde" unicode="&#xf1;" horiz-adv-x="1099" 
d="M1038 1438h35q-26 -81 -73.5 -123.5t-106.5 -42.5q-42 0 -80 21t-61.5 45.5t-58 45.5t-72.5 21q-100 0 -144 -133h-35q26 80 73.5 123t107.5 43q42 0 80 -21t61.5 -45.5t58 -45.5t72.5 -21q99 0 143 133zM688 1061q135 0 211 -74t76 -213q0 -68 -25 -166l-151 -608h-33
l154 616q22 93 22 158q0 126 -66.5 190t-189.5 64q-146 0 -270.5 -106.5t-165.5 -270.5l-162 -651h-33l260 1040h33q-37 -152 -67 -243h2q69 127 177.5 195.5t227.5 68.5z" />
    <glyph glyph-name="ograve" unicode="&#xf2;" horiz-adv-x="1081" 
d="M637 1458l127 -282h-31l-135 282h39zM621 1061q177 0 273.5 -109.5t96.5 -304.5q0 -88 -21 -179.5t-66 -179t-106.5 -156t-150 -110.5t-190.5 -42q-178 0 -274.5 108t-96.5 303q0 88 21.5 180.5t66 180.5t106.5 156.5t150.5 110.5t190.5 42zM621 1028q-96 0 -180 -40.5
t-141.5 -106t-99.5 -149.5t-61.5 -171t-19.5 -170q0 -181 87.5 -280t250.5 -99q96 0 179.5 40.5t141.5 106t99.5 149t61 170.5t19.5 169q0 181 -87 281t-250 100z" />
    <glyph glyph-name="oacute" unicode="&#xf3;" horiz-adv-x="1081" 
d="M604 1176h-39l258 282h47zM621 1061q177 0 273.5 -109.5t96.5 -304.5q0 -88 -21 -179.5t-66 -179t-106.5 -156t-150 -110.5t-190.5 -42q-178 0 -274.5 108t-96.5 303q0 88 21.5 180.5t66 180.5t106.5 156.5t150.5 110.5t190.5 42zM621 1028q-96 0 -180 -40.5t-141.5 -106
t-99.5 -149.5t-61.5 -171t-19.5 -170q0 -181 87.5 -280t250.5 -99q96 0 179.5 40.5t141.5 106t99.5 149t61 170.5t19.5 169q0 181 -87 281t-250 100z" />
    <glyph glyph-name="ocircumflex" unicode="&#xf4;" horiz-adv-x="1081" 
d="M924 1176h-39l-154 251l-278 -251h-50l314 282h33zM621 1061q177 0 273.5 -109.5t96.5 -304.5q0 -88 -21 -179.5t-66 -179t-106.5 -156t-150 -110.5t-190.5 -42q-178 0 -274.5 108t-96.5 303q0 88 21.5 180.5t66 180.5t106.5 156.5t150.5 110.5t190.5 42zM621 1028
q-96 0 -180 -40.5t-141.5 -106t-99.5 -149.5t-61.5 -171t-19.5 -170q0 -181 87.5 -280t250.5 -99q96 0 179.5 40.5t141.5 106t99.5 149t61 170.5t19.5 169q0 181 -87 281t-250 100z" />
    <glyph glyph-name="otilde" unicode="&#xf5;" horiz-adv-x="1081" 
d="M989 1438h35q-26 -81 -73.5 -123.5t-106.5 -42.5q-42 0 -80 21t-61.5 45.5t-58.5 45.5t-73 21q-99 0 -143 -133h-35q26 81 73.5 123.5t106.5 42.5q42 0 80 -21t61.5 -45.5t58.5 -45.5t73 -21q99 0 143 133zM621 1061q177 0 273.5 -109.5t96.5 -304.5q0 -88 -21 -179.5
t-66 -179t-106.5 -156t-150 -110.5t-190.5 -42q-178 0 -274.5 108t-96.5 303q0 88 21.5 180.5t66 180.5t106.5 156.5t150.5 110.5t190.5 42zM621 1028q-96 0 -180 -40.5t-141.5 -106t-99.5 -149.5t-61.5 -171t-19.5 -170q0 -181 87.5 -280t250.5 -99q96 0 179.5 40.5
t141.5 106t99.5 149t61 170.5t19.5 169q0 181 -87 281t-250 100z" />
    <glyph glyph-name="odieresis" unicode="&#xf6;" horiz-adv-x="1081" 
d="M522 1300h-33l39 158h33zM899 1300h-33l39 158h33zM621 1061q177 0 273.5 -109.5t96.5 -304.5q0 -88 -21 -179.5t-66 -179t-106.5 -156t-150 -110.5t-190.5 -42q-178 0 -274.5 108t-96.5 303q0 88 21.5 180.5t66 180.5t106.5 156.5t150.5 110.5t190.5 42zM621 1028
q-96 0 -180 -40.5t-141.5 -106t-99.5 -149.5t-61.5 -171t-19.5 -170q0 -181 87.5 -280t250.5 -99q96 0 179.5 40.5t141.5 106t99.5 149t61 170.5t19.5 169q0 181 -87 281t-250 100z" />
    <glyph glyph-name="divide" unicode="&#xf7;" horiz-adv-x="1159" 
d="M596 891h-33v123h33v-123zM1006 633h-852v33h852v-33zM596 285h-33v123h33v-123z" />
    <glyph glyph-name="oslash" unicode="&#xf8;" horiz-adv-x="1081" 
d="M1075 1018l-133 -131q49 -98 49 -240q0 -88 -22 -179.5t-67.5 -179t-109 -156t-154 -110.5t-194.5 -42q-193 0 -284 135l-127 -125l-23 22l131 129q-55 98 -55 250q0 88 22 180.5t67.5 180.5t109 156.5t154 110.5t194.5 42q196 0 293 -146l127 125zM633 1028
q-99 0 -184.5 -40.5t-144.5 -106t-102 -149.5t-63 -171t-20 -170q0 -136 47 -225l735 725q-83 137 -268 137zM444 12q99 0 184.5 40.5t144.5 106t102 149t63 170.5t20 169q0 128 -43 215l-733 -725q86 -125 262 -125z" />
    <glyph glyph-name="ugrave" unicode="&#xf9;" horiz-adv-x="1099" 
d="M668 1458l127 -282h-31l-135 282h39zM412 -20q-135 0 -211 73.5t-76 212.5q0 68 25 166l151 608h33l-154 -616q-22 -93 -22 -158q0 -126 66.5 -190t189.5 -64q146 0 270.5 106.5t165.5 270.5l162 651h32l-260 -1040h-32l55 219h-2q-68 -114 -173 -176.5t-220 -62.5z" />
    <glyph glyph-name="uacute" unicode="&#xfa;" horiz-adv-x="1099" 
d="M635 1176h-39l258 282h47zM412 -20q-135 0 -211 73.5t-76 212.5q0 68 25 166l151 608h33l-154 -616q-22 -93 -22 -158q0 -126 66.5 -190t189.5 -64q146 0 270.5 106.5t165.5 270.5l162 651h32l-260 -1040h-32l55 219h-2q-68 -114 -173 -176.5t-220 -62.5z" />
    <glyph glyph-name="ucircumflex" unicode="&#xfb;" horiz-adv-x="1099" 
d="M954 1176h-39l-153 251l-279 -251h-49l314 282h32zM412 -20q-135 0 -211 73.5t-76 212.5q0 68 25 166l151 608h33l-154 -616q-22 -93 -22 -158q0 -126 66.5 -190t189.5 -64q146 0 270.5 106.5t165.5 270.5l162 651h32l-260 -1040h-32l55 219h-2q-68 -114 -173 -176.5
t-220 -62.5z" />
    <glyph glyph-name="udieresis" unicode="&#xfc;" horiz-adv-x="1099" 
d="M553 1300h-33l39 158h33zM930 1300h-33l39 158h33zM412 -20q-135 0 -211 73.5t-76 212.5q0 68 25 166l151 608h33l-154 -616q-22 -93 -22 -158q0 -126 66.5 -190t189.5 -64q146 0 270.5 106.5t165.5 270.5l162 651h32l-260 -1040h-32l55 219h-2q-68 -114 -173 -176.5
t-220 -62.5z" />
    <glyph glyph-name="yacute" unicode="&#xfd;" horiz-adv-x="882" 
d="M506 1176h-39l258 282h47zM1008 1040l-693 -1052q-76 -116 -133 -187.5t-109 -114t-97 -58t-101 -15.5t-88 14l8 33q28 -14 80 -14q66 0 119.5 26.5t123.5 104t167 223.5l-152 1040h33l145 -995h2l656 995h39z" />
    <glyph glyph-name="thorn" unicode="&#xfe;" horiz-adv-x="1116" 
d="M270 752h2q72 149 182 229t242 80q159 0 246.5 -103.5t87.5 -287.5q0 -90 -21 -185t-65 -185.5t-105 -161.5t-148 -114.5t-187 -43.5q-166 0 -251.5 109.5t-74.5 285.5h-2q-13 -68 -59 -258l-123 -496h-33l459 1837h33l-111 -442q-38 -157 -72 -264zM504 12q95 0 177 42
t139 110t97.5 155t60 176.5t19.5 174.5q0 170 -78 264t-223 94q-94 0 -176.5 -43.5t-139 -113.5t-97.5 -157.5t-60.5 -175t-19.5 -167.5q0 -172 77 -265.5t224 -93.5z" />
    <glyph glyph-name="ydieresis" unicode="&#xff;" horiz-adv-x="882" 
d="M424 1300h-33l39 158h33zM801 1300h-33l39 158h33zM1008 1040l-693 -1052q-76 -116 -133 -187.5t-109 -114t-97 -58t-101 -15.5t-88 14l8 33q28 -14 80 -14q66 0 119.5 26.5t123.5 104t167 223.5l-152 1040h33l145 -995h2l656 995h39z" />
    <glyph glyph-name="Amacron" unicode="&#x100;" horiz-adv-x="1298" 
d="M1167 1675l-8 -33h-463l9 33h462zM903 1458l252 -1458h-33l-94 545h-741l-365 -545h-39l975 1458h45zM1022 578l-35 200q-95 562 -110 647h-3q-57 -86 -204.5 -306t-227.5 -341l-135 -200h715z" />
    <glyph glyph-name="amacron" unicode="&#x101;" horiz-adv-x="1011" 
d="M895 1327h-463l8 33h463zM584 1061q143 0 225 -74.5t82 -220.5q0 -50 -21 -135l-102 -408q-34 -139 -37 -223h-33q5 74 47 242h-2q-65 -124 -172.5 -193t-253.5 -69q-137 0 -215.5 69t-78.5 189q0 45 11.5 84.5t40 79t72.5 71t114.5 56.5t160.5 38q176 25 412 47l6 25
q18 73 18 127q0 132 -72.5 197t-201.5 65q-145 0 -242 -83t-127 -218h-35q34 152 142 243t262 91zM786 426l39 156q-214 -18 -401 -47q-369 -56 -369 -297q0 -106 69.5 -166t192.5 -60q176 0 297.5 108t171.5 306z" />
    <glyph glyph-name="Abreve" unicode="&#x102;" horiz-adv-x="1298" 
d="M1233 1815h35q-42 -126 -131.5 -193.5t-218.5 -67.5q-119 0 -180.5 57.5t-61.5 164.5q0 25 2 39h33q-2 -14 -2 -39q0 -189 209 -189q233 0 315 228zM903 1458l252 -1458h-33l-94 545h-741l-365 -545h-39l975 1458h45zM1022 578l-35 200q-95 562 -110 647h-3
q-57 -86 -204.5 -306t-227.5 -341l-135 -200h715z" />
    <glyph glyph-name="abreve" unicode="&#x103;" horiz-adv-x="1011" 
d="M956 1458h35q-42 -126 -131.5 -193t-218.5 -67q-119 0 -180.5 57t-61.5 164q0 25 2 39h33q-2 -14 -2 -39q0 -188 209 -188q233 0 315 227zM584 1061q143 0 225 -74.5t82 -220.5q0 -50 -21 -135l-102 -408q-34 -139 -37 -223h-33q5 74 47 242h-2q-65 -124 -172.5 -193
t-253.5 -69q-137 0 -215.5 69t-78.5 189q0 45 11.5 84.5t40 79t72.5 71t114.5 56.5t160.5 38q176 25 412 47l6 25q18 73 18 127q0 132 -72.5 197t-201.5 65q-145 0 -242 -83t-127 -218h-35q34 152 142 243t262 91zM786 426l39 156q-214 -18 -401 -47q-369 -56 -369 -297
q0 -106 69.5 -166t192.5 -60q176 0 297.5 108t171.5 306z" />
    <glyph glyph-name="Aogonek" unicode="&#x104;" horiz-adv-x="1298" 
d="M920 -274q0 -41 21 -60.5t67 -19.5q37 0 67 10l-8 -35q-32 -8 -59 -8q-121 0 -121 113q0 68 52 133.5t181 152.5l-92 533h-741l-365 -545h-39l975 1458h45l252 -1458q-136 -90 -185.5 -152.5t-49.5 -121.5zM1022 578l-35 200q-95 562 -110 647h-3q-57 -86 -204.5 -306
t-227.5 -341l-135 -200h715z" />
    <glyph glyph-name="aogonek" unicode="&#x105;" horiz-adv-x="1011" 
d="M584 1061q143 0 225 -74.5t82 -220.5q0 -50 -21 -135l-102 -408q-34 -139 -37 -223q-136 -90 -185.5 -152.5t-49.5 -121.5q0 -41 21 -60.5t67 -19.5q37 0 67 10l-8 -35q-32 -8 -59 -8q-121 0 -121 113q0 69 53 134.5t184 153.5q7 68 45 228h-2q-65 -124 -172.5 -193
t-253.5 -69q-137 0 -215.5 69t-78.5 189q0 45 11.5 84.5t40 79t72.5 71t114.5 56.5t160.5 38q176 25 412 47l6 25q18 73 18 127q0 132 -72.5 197t-201.5 65q-145 0 -242 -83t-127 -218h-35q34 152 142 243t262 91zM786 426l39 156q-214 -18 -401 -47q-369 -56 -369 -297
q0 -106 69.5 -166t192.5 -60q176 0 297.5 108t171.5 306z" />
    <glyph glyph-name="Cacute" unicode="&#x106;" horiz-adv-x="1353" 
d="M872 1556h-43l281 259h49zM897 1479q145 0 246.5 -61.5t148.5 -162t47 -229.5q0 -24 -4 -74h-32q4 50 4 74q0 186 -104.5 303t-303.5 117q-116 0 -220 -39.5t-182.5 -107.5t-142.5 -158t-104.5 -192t-62 -207.5t-21.5 -206.5q0 -240 117.5 -381.5t330.5 -141.5
q202 0 360 120.5t224 311.5h35q-70 -208 -237 -336t-382 -128q-227 0 -354 150.5t-127 406.5q0 127 31 258.5t95.5 254t153.5 218t215 153.5t269 58z" />
    <glyph glyph-name="cacute" unicode="&#x107;" horiz-adv-x="1009" 
d="M596 1176h-39l258 282h47zM631 1061q151 0 238 -92t87 -250q0 -19 -2 -31h-32q2 12 2 31q0 143 -78 226t-215 83q-82 0 -156 -29.5t-129 -80.5t-99.5 -117t-72.5 -140t-42.5 -149t-14.5 -145q0 -171 80.5 -263t236.5 -92q139 0 251 85t159 225h35q-51 -155 -172.5 -248.5
t-272.5 -93.5q-170 0 -260 101t-90 286q0 90 22 185.5t68 186.5t109.5 162.5t154 115.5t193.5 44z" />
    <glyph glyph-name="Ccircumflex" unicode="&#x108;" horiz-adv-x="1353" 
d="M993 1815h33l180 -259h-39l-159 228l-275 -228h-51zM897 1479q145 0 246.5 -61.5t148.5 -162t47 -229.5q0 -24 -4 -74h-32q4 50 4 74q0 186 -104.5 303t-303.5 117q-116 0 -220 -39.5t-182.5 -107.5t-142.5 -158t-104.5 -192t-62 -207.5t-21.5 -206.5
q0 -240 117.5 -381.5t330.5 -141.5q202 0 360 120.5t224 311.5h35q-70 -208 -237 -336t-382 -128q-227 0 -354 150.5t-127 406.5q0 127 31 258.5t95.5 254t153.5 218t215 153.5t269 58z" />
    <glyph glyph-name="ccircumflex" unicode="&#x109;" horiz-adv-x="1009" 
d="M915 1176h-38l-154 251l-279 -251h-49l314 282h32zM631 1061q151 0 238 -92t87 -250q0 -19 -2 -31h-32q2 12 2 31q0 143 -78 226t-215 83q-82 0 -156 -29.5t-129 -80.5t-99.5 -117t-72.5 -140t-42.5 -149t-14.5 -145q0 -171 80.5 -263t236.5 -92q139 0 251 85t159 225h35
q-51 -155 -172.5 -248.5t-272.5 -93.5q-170 0 -260 101t-90 286q0 90 22 185.5t68 186.5t109.5 162.5t154 115.5t193.5 44z" />
    <glyph glyph-name="Cdotaccent" unicode="&#x10a;" horiz-adv-x="1353" 
d="M971 1595h-33l41 158h33zM897 1479q145 0 246.5 -61.5t148.5 -162t47 -229.5q0 -24 -4 -74h-32q4 50 4 74q0 186 -104.5 303t-303.5 117q-116 0 -220 -39.5t-182.5 -107.5t-142.5 -158t-104.5 -192t-62 -207.5t-21.5 -206.5q0 -240 117.5 -381.5t330.5 -141.5
q202 0 360 120.5t224 311.5h35q-70 -208 -237 -336t-382 -128q-227 0 -354 150.5t-127 406.5q0 127 31 258.5t95.5 254t153.5 218t215 153.5t269 58z" />
    <glyph glyph-name="cdotaccent" unicode="&#x10b;" horiz-adv-x="1009" 
d="M702 1300h-32l39 158h32zM631 1061q151 0 238 -92t87 -250q0 -19 -2 -31h-32q2 12 2 31q0 143 -78 226t-215 83q-82 0 -156 -29.5t-129 -80.5t-99.5 -117t-72.5 -140t-42.5 -149t-14.5 -145q0 -171 80.5 -263t236.5 -92q139 0 251 85t159 225h35q-51 -155 -172.5 -248.5
t-272.5 -93.5q-170 0 -260 101t-90 286q0 90 22 185.5t68 186.5t109.5 162.5t154 115.5t193.5 44z" />
    <glyph glyph-name="Ccaron" unicode="&#x10c;" horiz-adv-x="1353" 
d="M961 1556h-33l-180 259h38l160 -228l275 228h51zM897 1479q145 0 246.5 -61.5t148.5 -162t47 -229.5q0 -24 -4 -74h-32q4 50 4 74q0 186 -104.5 303t-303.5 117q-116 0 -220 -39.5t-182.5 -107.5t-142.5 -158t-104.5 -192t-62 -207.5t-21.5 -206.5q0 -240 117.5 -381.5
t330.5 -141.5q202 0 360 120.5t224 311.5h35q-70 -208 -237 -336t-382 -128q-227 0 -354 150.5t-127 406.5q0 127 31 258.5t95.5 254t153.5 218t215 153.5t269 58z" />
    <glyph glyph-name="ccaron" unicode="&#x10d;" horiz-adv-x="1009" 
d="M672 1176h-33l-174 282h39l153 -252l279 252h49zM631 1061q151 0 238 -92t87 -250q0 -19 -2 -31h-32q2 12 2 31q0 143 -78 226t-215 83q-82 0 -156 -29.5t-129 -80.5t-99.5 -117t-72.5 -140t-42.5 -149t-14.5 -145q0 -171 80.5 -263t236.5 -92q139 0 251 85t159 225h35
q-51 -155 -172.5 -248.5t-272.5 -93.5q-170 0 -260 101t-90 286q0 90 22 185.5t68 186.5t109.5 162.5t154 115.5t193.5 44z" />
    <glyph glyph-name="Dcaron" unicode="&#x10e;" horiz-adv-x="1449" 
d="M930 1556h-33l-180 259h39l159 -228l275 228h51zM449 1458h311q318 0 482.5 -159t164.5 -459q0 -96 -22 -192.5t-66 -191.5t-116.5 -177t-165.5 -144.5t-222 -98.5t-278 -36h-451zM473 1425l-346 -1392h410q173 0 316 50t237.5 131.5t160 188t94.5 216.5t29 221
q0 286 -155 435.5t-459 149.5h-287z" />
    <glyph glyph-name="dcaron" unicode="&#x10f;" horiz-adv-x="1112" 
d="M842 289h-2q-72 -149 -182 -229t-242 -80q-159 0 -246.5 103.5t-87.5 287.5q0 90 21 185t65 185.5t105 161.5t148 114.5t187 43.5q166 0 251.5 -109.5t74.5 -285.5h2q13 68 59 258l133 534h33l-364 -1458h-33l6 25q38 157 72 264zM1225 1102h-31l170 356h37zM608 1028
q-95 0 -177 -42t-139 -110t-97.5 -154.5t-60 -176t-19.5 -174.5q0 -170 78 -264.5t223 -94.5q94 0 176.5 43.5t139 113.5t97.5 158t60.5 175.5t19.5 167.5q0 172 -77 265t-224 93z" />
    <glyph glyph-name="Dcroat" unicode="&#x110;" horiz-adv-x="1449" 
d="M449 1458h311q318 0 482.5 -159t164.5 -459q0 -96 -22 -192.5t-66 -191.5t-116.5 -177t-165.5 -144.5t-222 -98.5t-278 -36h-451l180 721h-125l9 33h122zM127 33h410q173 0 316 50t237.5 131.5t160 188t94.5 216.5t29 221q0 286 -155 435.5t-459 149.5h-287l-168 -671
h524l-8 -33h-522z" />
    <glyph glyph-name="dcroat" unicode="&#x111;" horiz-adv-x="1114" 
d="M1217 1221h-115l-305 -1221h-33l6 25q38 157 72 264h-2q-72 -149 -182 -229t-242 -80q-159 0 -246.5 103.5t-87.5 287.5q0 90 21 185t65 185.5t105 161.5t148 114.5t187 43.5q166 0 251.5 -109.5t74.5 -285.5h2q13 68 59 258l74 297h-315l8 32h315l51 205h33l-51 -205
h115zM416 12q94 0 176.5 43.5t139 113.5t97.5 158t60.5 175.5t19.5 167.5q0 172 -77 265t-224 93q-95 0 -177 -42t-139 -110t-97.5 -154.5t-60 -176t-19.5 -174.5q0 -170 78 -264.5t223 -94.5z" />
    <glyph glyph-name="Emacron" unicode="&#x112;" horiz-adv-x="1200" 
d="M1122 1642h-463l9 33h462zM1274 1425h-801l-164 -659h766l-8 -33h-766l-174 -700h829l-8 -33h-862l363 1458h833z" />
    <glyph glyph-name="emacron" unicode="&#x113;" horiz-adv-x="1054" 
d="M918 1327h-463l8 33h463zM958 530h-825q-18 -88 -18 -165q0 -168 80.5 -260.5t232.5 -92.5q142 0 258.5 80.5t167.5 212.5h35q-55 -149 -181 -237t-280 -88q-166 0 -256 101.5t-90 283.5q0 91 22.5 187t69.5 187t112 163t157.5 115.5t197.5 43.5q159 0 251.5 -96
t92.5 -271q0 -72 -27 -164zM641 1028q-177 0 -311 -128.5t-189 -336.5h791q20 61 20 131q0 160 -83 247t-228 87z" />
    <glyph glyph-name="Ebreve" unicode="&#x114;" horiz-adv-x="1200" 
d="M1196 1815h35q-42 -126 -131.5 -193.5t-218.5 -67.5q-119 0 -180.5 57.5t-61.5 164.5q0 25 2 39h33q-2 -14 -2 -39q0 -189 209 -189q233 0 315 228zM1274 1425h-801l-164 -659h766l-8 -33h-766l-174 -700h829l-8 -33h-862l363 1458h833z" />
    <glyph glyph-name="ebreve" unicode="&#x115;" horiz-adv-x="1054" 
d="M664 1198q-119 0 -180.5 57t-61.5 164q0 25 2 39h33q-2 -14 -2 -39q0 -188 209 -188q233 0 315 227h35q-42 -126 -131.5 -193t-218.5 -67zM641 1061q159 0 251.5 -96t92.5 -271q0 -72 -27 -164h-825q-18 -88 -18 -165q0 -168 80.5 -260.5t232.5 -92.5q142 0 258.5 80.5
t167.5 212.5h35q-55 -149 -181 -237t-280 -88q-166 0 -256 101.5t-90 283.5q0 91 22.5 187t69.5 187t112 163t157.5 115.5t197.5 43.5zM141 563h791q20 61 20 131q0 160 -83 247t-228 87q-177 0 -311 -128.5t-189 -336.5z" />
    <glyph glyph-name="Edotaccent" unicode="&#x116;" horiz-adv-x="1200" 
d="M897 1595h-33l41 158h33zM1274 1425h-801l-164 -659h766l-8 -33h-766l-174 -700h829l-8 -33h-862l363 1458h833z" />
    <glyph glyph-name="edotaccent" unicode="&#x117;" horiz-adv-x="1054" 
d="M696 1300h-32l38 158h33zM958 530h-825q-18 -88 -18 -165q0 -168 80.5 -260.5t232.5 -92.5q142 0 258.5 80.5t167.5 212.5h35q-55 -149 -181 -237t-280 -88q-166 0 -256 101.5t-90 283.5q0 91 22.5 187t69.5 187t112 163t157.5 115.5t197.5 43.5q159 0 251.5 -96
t92.5 -271q0 -72 -27 -164zM641 1028q-177 0 -311 -128.5t-189 -336.5h791q20 61 20 131q0 160 -83 247t-228 87z" />
    <glyph glyph-name="Eogonek" unicode="&#x118;" horiz-adv-x="1200" 
d="M473 1425l-164 -659h766l-8 -33h-766l-174 -700h829l-8 -33q-136 -90 -185.5 -152.5t-49.5 -121.5q0 -41 21 -60.5t67 -19.5q37 0 67 10l-8 -35q-32 -8 -59 -8q-121 0 -121 113q0 66 48 128.5t167 145.5h-809l363 1458h833l-8 -33h-801z" />
    <glyph glyph-name="eogonek" unicode="&#x119;" horiz-adv-x="1052" 
d="M956 530h-825q-18 -88 -18 -165q0 -168 80.5 -260.5t232.5 -92.5q142 0 258.5 80.5t167.5 212.5h35q-30 -87 -90.5 -155t-163.5 -138q-242 -163 -242 -286q0 -41 21 -60.5t67 -19.5q38 0 68 10l-8 -35q-32 -8 -60 -8q-121 0 -121 113q0 66 50 130t174 152v2
q-74 -30 -156 -30q-166 0 -256 101.5t-90 283.5q0 91 22.5 187t69.5 187t112 163t157.5 115.5t197.5 43.5q159 0 251.5 -96t92.5 -271q0 -72 -27 -164zM639 1028q-177 0 -311 -128.5t-189 -336.5h791q20 61 20 131q0 160 -83 247t-228 87z" />
    <glyph glyph-name="Ecaron" unicode="&#x11a;" horiz-adv-x="1200" 
d="M887 1556h-33l-180 259h39l159 -228l275 228h51zM1274 1425h-801l-164 -659h766l-8 -33h-766l-174 -700h829l-8 -33h-862l363 1458h833z" />
    <glyph glyph-name="ecaron" unicode="&#x11b;" horiz-adv-x="1054" 
d="M633 1176l-174 282h39l153 -252l279 252h49l-313 -282h-33zM958 530h-825q-18 -88 -18 -165q0 -168 80.5 -260.5t232.5 -92.5q142 0 258.5 80.5t167.5 212.5h35q-55 -149 -181 -237t-280 -88q-166 0 -256 101.5t-90 283.5q0 91 22.5 187t69.5 187t112 163t157.5 115.5
t197.5 43.5q159 0 251.5 -96t92.5 -271q0 -72 -27 -164zM641 1028q-177 0 -311 -128.5t-189 -336.5h791q20 61 20 131q0 160 -83 247t-228 87z" />
    <glyph glyph-name="Gcircumflex" unicode="&#x11c;" horiz-adv-x="1429" 
d="M989 1815h33l180 -259h-39l-159 228l-275 -228h-51zM924 1479q216 0 332 -111t116 -299q0 -23 -4 -63h-33q4 36 4 63q0 174 -106.5 275.5t-308.5 101.5q-122 0 -230 -38.5t-190 -106t-147 -156t-106.5 -189.5t-63 -206.5t-21.5 -208.5q0 -242 116 -385.5t328 -143.5
q76 0 148 19t147.5 65.5t139.5 118t119.5 185.5t90.5 259h-485l8 33h518l-172 -692h-32l49 197q31 133 59 215h-2q-80 -202 -235 -317t-353 -115q-225 0 -351 152.5t-126 408.5q0 129 31.5 260t97.5 253t158 216.5t222.5 151.5t281.5 57z" />
    <glyph glyph-name="gcircumflex" unicode="&#x11d;" horiz-adv-x="1116" 
d="M958 1176h-38l-154 251l-279 -251h-49l314 282h32zM627 1061q152 0 234.5 -98t78.5 -283h2q22 115 70 303l14 57h33l-246 -985q-111 -442 -491 -442q-157 0 -246.5 68.5t-89.5 191.5q0 31 6 61h33q-7 -40 -7 -61q0 -109 80.5 -168t223.5 -59q356 0 460 417q51 200 72 265
h-2q-68 -150 -180.5 -233t-249.5 -83q-161 0 -246.5 103t-85.5 291q0 85 21 174.5t66 175.5t107 154t151 109.5t192 41.5zM627 1028q-97 0 -181.5 -40t-142.5 -104.5t-99.5 -147t-61 -167t-19.5 -163.5q0 -174 75.5 -267.5t223.5 -93.5q95 0 177.5 43t139 111t97.5 152.5
t60 168.5t19 158q0 167 -74.5 258.5t-213.5 91.5z" />
    <glyph glyph-name="Gbreve" unicode="&#x11e;" horiz-adv-x="1429" 
d="M1266 1815h34q-42 -126 -131.5 -193.5t-218.5 -67.5q-119 0 -180 57.5t-61 164.5q0 25 2 39h32q-2 -14 -2 -39q0 -189 209 -189q234 0 316 228zM924 1479q216 0 332 -111t116 -299q0 -23 -4 -63h-33q4 36 4 63q0 174 -106.5 275.5t-308.5 101.5q-122 0 -230 -38.5
t-190 -106t-147 -156t-106.5 -189.5t-63 -206.5t-21.5 -208.5q0 -242 116 -385.5t328 -143.5q76 0 148 19t147.5 65.5t139.5 118t119.5 185.5t90.5 259h-485l8 33h518l-172 -692h-32l49 197q31 133 59 215h-2q-80 -202 -235 -317t-353 -115q-225 0 -351 152.5t-126 408.5
q0 129 31.5 260t97.5 253t158 216.5t222.5 151.5t281.5 57z" />
    <glyph glyph-name="gbreve" unicode="&#x11f;" horiz-adv-x="1116" 
d="M1028 1458h35q-42 -126 -131.5 -193t-218.5 -67q-119 0 -180.5 57t-61.5 164q0 25 2 39h33q-2 -14 -2 -39q0 -188 209 -188q233 0 315 227zM627 1061q152 0 234.5 -98t78.5 -283h2q22 115 70 303l14 57h33l-246 -985q-111 -442 -491 -442q-157 0 -246.5 68.5t-89.5 191.5
q0 31 6 61h33q-7 -40 -7 -61q0 -109 80.5 -168t223.5 -59q356 0 460 417q51 200 72 265h-2q-68 -150 -180.5 -233t-249.5 -83q-161 0 -246.5 103t-85.5 291q0 85 21 174.5t66 175.5t107 154t151 109.5t192 41.5zM627 1028q-97 0 -181.5 -40t-142.5 -104.5t-99.5 -147
t-61 -167t-19.5 -163.5q0 -174 75.5 -267.5t223.5 -93.5q95 0 177.5 43t139 111t97.5 152.5t60 168.5t19 158q0 167 -74.5 258.5t-213.5 91.5z" />
    <glyph glyph-name="Gdotaccent" unicode="&#x120;" horiz-adv-x="1429" 
d="M967 1595h-33l41 158h33zM924 1479q216 0 332 -111t116 -299q0 -23 -4 -63h-33q4 36 4 63q0 174 -106.5 275.5t-308.5 101.5q-122 0 -230 -38.5t-190 -106t-147 -156t-106.5 -189.5t-63 -206.5t-21.5 -208.5q0 -242 116 -385.5t328 -143.5q76 0 148 19t147.5 65.5
t139.5 118t119.5 185.5t90.5 259h-485l8 33h518l-172 -692h-32l49 197q31 133 59 215h-2q-80 -202 -235 -317t-353 -115q-225 0 -351 152.5t-126 408.5q0 129 31.5 260t97.5 253t158 216.5t222.5 151.5t281.5 57z" />
    <glyph glyph-name="gdotaccent" unicode="&#x121;" horiz-adv-x="1116" 
d="M745 1300h-32l39 158h32zM627 1061q152 0 234.5 -98t78.5 -283h2q22 115 70 303l14 57h33l-246 -985q-111 -442 -491 -442q-157 0 -246.5 68.5t-89.5 191.5q0 31 6 61h33q-7 -40 -7 -61q0 -109 80.5 -168t223.5 -59q356 0 460 417q51 200 72 265h-2q-68 -150 -180.5 -233
t-249.5 -83q-161 0 -246.5 103t-85.5 291q0 85 21 174.5t66 175.5t107 154t151 109.5t192 41.5zM627 1028q-97 0 -181.5 -40t-142.5 -104.5t-99.5 -147t-61 -167t-19.5 -163.5q0 -174 75.5 -267.5t223.5 -93.5q95 0 177.5 43t139 111t97.5 152.5t60 168.5t19 158
q0 167 -74.5 258.5t-213.5 91.5z" />
    <glyph glyph-name="Gcommaaccent" unicode="&#x122;" horiz-adv-x="1429" 
d="M924 1479q216 0 332 -111t116 -299q0 -23 -4 -63h-33q4 36 4 63q0 174 -106.5 275.5t-308.5 101.5q-122 0 -230 -38.5t-190 -106t-147 -156t-106.5 -189.5t-63 -206.5t-21.5 -208.5q0 -242 116 -385.5t328 -143.5q76 0 148 19t147.5 65.5t139.5 118t119.5 185.5t90.5 259
h-485l8 33h518l-172 -692h-32l49 197q31 133 59 215h-2q-80 -202 -235 -317t-353 -115q-225 0 -351 152.5t-126 408.5q0 129 31.5 260t97.5 253t158 216.5t222.5 151.5t281.5 57zM557 -297l-111 -192h-28l106 192l33 135h33z" />
    <glyph glyph-name="gcommaaccent" unicode="&#x123;" horiz-adv-x="1116" 
d="M725 1337l-33 -135h-33l33 135l109 193h30zM627 1061q152 0 234.5 -98t78.5 -283h2q22 115 70 303l14 57h33l-246 -985q-111 -442 -491 -442q-157 0 -246.5 68.5t-89.5 191.5q0 31 6 61h33q-7 -40 -7 -61q0 -109 80.5 -168t223.5 -59q356 0 460 417q51 200 72 265h-2
q-68 -150 -180.5 -233t-249.5 -83q-161 0 -246.5 103t-85.5 291q0 85 21 174.5t66 175.5t107 154t151 109.5t192 41.5zM627 1028q-97 0 -181.5 -40t-142.5 -104.5t-99.5 -147t-61 -167t-19.5 -163.5q0 -174 75.5 -267.5t223.5 -93.5q95 0 177.5 43t139 111t97.5 152.5
t60 168.5t19 158q0 167 -74.5 258.5t-213.5 91.5z" />
    <glyph glyph-name="Hcircumflex" unicode="&#x124;" horiz-adv-x="1443" 
d="M1030 1815h33l180 -259h-39l-160 228l-274 -228h-51zM1100 0h-33l184 741h-948l-184 -741h-33l363 1458h32l-170 -684h949l170 684h32z" />
    <glyph glyph-name="hcircumflex" unicode="&#x125;" horiz-adv-x="1101" 
d="M858 1815h33l180 -259h-39l-160 228l-274 -228h-51zM690 1061q135 0 211 -74t76 -213q0 -68 -25 -166l-151 -608h-33l154 616q22 93 22 158q0 126 -66.5 190t-189.5 64q-146 0 -270.5 -106.5t-165.5 -270.5l-162 -651h-33l363 1458h33l-103 -418q-37 -152 -67 -243h2
q69 127 177.5 195.5t227.5 68.5z" />
    <glyph glyph-name="Hbar" unicode="&#x126;" horiz-adv-x="1443" 
d="M1526 1221h-123l-303 -1221h-33l184 741h-948l-184 -741h-33l303 1221h-123l8 32h123l52 205h32l-51 -205h948l52 205h32l-51 -205h123zM1370 1221h-948l-111 -447h949z" />
    <glyph glyph-name="hbar" unicode="&#x127;" horiz-adv-x="1101" 
d="M690 1061q135 0 211 -74t76 -213q0 -68 -25 -166l-151 -608h-33l154 616q22 93 22 158q0 126 -66.5 190t-189.5 64q-146 0 -270.5 -106.5t-165.5 -270.5l-162 -651h-33l303 1221h-114l8 32h115l51 205h33l-52 -205h316l-8 -32h-314l-45 -181q-37 -152 -67 -243h2
q69 127 177.5 195.5t227.5 68.5z" />
    <glyph glyph-name="Itilde" unicode="&#x128;" horiz-adv-x="462" 
d="M811 1794h35q-26 -81 -73.5 -123.5t-106.5 -42.5q-42 0 -80.5 21t-62.5 45.5t-59 45.5t-73 21q-99 0 -143 -133h-35q26 81 73.5 123.5t106.5 42.5q42 0 80.5 -21t62.5 -45.5t59 -45.5t73 -21q99 0 143 133zM119 0h-33l363 1458h32z" />
    <glyph glyph-name="itilde" unicode="&#x129;" horiz-adv-x="405" 
d="M653 1438h35q-24 -80 -67 -123t-95 -43q-31 0 -57 13.5t-45 33t-37.5 39.5t-42 33.5t-49.5 13.5q-82 0 -123 -133h-37q26 80 69 123t95 43q36 0 68 -21t51.5 -45.5t48.5 -45.5t61 -21q84 0 125 133zM90 0h-33l258 1040h33z" />
    <glyph glyph-name="Imacron" unicode="&#x12a;" horiz-adv-x="462" 
d="M741 1642h-462l8 33h463zM119 0h-33l363 1458h32z" />
    <glyph glyph-name="imacron" unicode="&#x12b;" horiz-adv-x="405" 
d="M594 1327h-381l8 33h381zM90 0h-33l258 1040h33z" />
    <glyph glyph-name="Ibreve" unicode="&#x12c;" horiz-adv-x="462" 
d="M815 1815h35q-42 -126 -131.5 -193.5t-218.5 -67.5q-119 0 -180.5 57.5t-61.5 164.5q0 25 2 39h33q-2 -14 -2 -39q0 -189 209 -189q233 0 315 228zM119 0h-33l363 1458h32z" />
    <glyph glyph-name="ibreve" unicode="&#x12d;" horiz-adv-x="405" 
d="M645 1458h33q-39 -125 -115 -192.5t-182 -67.5q-93 0 -142 54t-49 153q0 18 5 53h30q-4 -28 -4 -53q0 -85 40.5 -129.5t119.5 -44.5q188 0 264 227zM90 0h-33l258 1040h33z" />
    <glyph glyph-name="Iogonek" unicode="&#x12e;" horiz-adv-x="462" 
d="M481 1458l-362 -1458q-136 -90 -186 -153t-50 -121q0 -41 21 -60.5t67 -19.5q38 0 68 10l-8 -35q-32 -8 -60 -8q-121 0 -121 113q0 69 53.5 135t186.5 155l359 1442h32z" />
    <glyph glyph-name="iogonek" unicode="&#x12f;" horiz-adv-x="405" 
d="M453 1458l-39 -158h-33l39 158h33zM315 1040h33l-258 -1040q-136 -90 -185.5 -152.5t-49.5 -121.5q0 -41 21 -60.5t67 -19.5q37 0 67 10l-8 -35q-32 -8 -59 -8q-121 0 -121 113q0 69 53.5 135t185.5 155z" />
    <glyph glyph-name="Idotaccent" unicode="&#x130;" horiz-adv-x="462" 
d="M516 1595h-33l41 158h33zM119 0h-33l363 1458h32z" />
    <glyph glyph-name="dotlessi" unicode="&#x131;" horiz-adv-x="405" 
d="M90 0h-33l258 1040h33z" />
    <glyph glyph-name="IJ" unicode="&#x132;" horiz-adv-x="1083" 
d="M119 0h-33l363 1458h32zM1112 1458l-278 -1116q-42 -171 -142 -260.5t-241 -89.5q-46 0 -86 12l8 31q38 -10 78 -10q131 0 222 82t130 243l276 1108h33z" />
    <glyph glyph-name="ij" unicode="&#x133;" horiz-adv-x="833" 
d="M414 1300h-33l39 158h33zM842 1300h-33l39 158h33zM90 0h-33l258 1040h33zM776 1040l-282 -1138q-39 -156 -110.5 -220.5t-178.5 -64.5q-26 0 -41 6l8 31q12 -4 33 -4q96 0 159 57t99 203l280 1130h33z" />
    <glyph glyph-name="Jcircumflex" unicode="&#x134;" horiz-adv-x="620" 
d="M707 1815h32l181 -259h-39l-160 228l-275 -228h-51zM649 1458l-278 -1116q-42 -171 -142 -260.5t-241 -89.5q-46 0 -86 12l8 31q38 -10 78 -10q131 0 222 82t130 243l276 1108h33z" />
    <glyph glyph-name="jcircumflex" unicode="&#x135;" horiz-adv-x="428" 
d="M604 1178h-37l-112 247l-238 -247h-45l268 280h35zM371 1040l-283 -1138q-39 -156 -110.5 -220.5t-178.5 -64.5q-26 0 -41 6l9 31q12 -4 32 -4q96 0 159 57t99 203l281 1130h33z" />
    <glyph glyph-name="Kcommaaccent" unicode="&#x136;" horiz-adv-x="1089" 
d="M344 762l608 -762h-41l-604 754h-2l-186 -754h-33l363 1458h32l-170 -680h2l883 680h53zM444 -162h33l-33 -135l-110 -192h-29l107 192z" />
    <glyph glyph-name="kcommaaccent" unicode="&#x137;" horiz-adv-x="899" 
d="M268 561l510 -561h-43l-506 555h-2l-137 -555h-33l363 1458h33l-220 -880h3l684 462h57zM342 -162h33l-33 -135l-111 -192h-28l106 192z" />
    <glyph glyph-name="kgreenlandic" unicode="&#x138;" horiz-adv-x="927" 
d="M268 561l510 -561h-43l-506 555h-2l-137 -555h-33l258 1040h33l-115 -462h3l684 462h57z" />
    <glyph glyph-name="Lacute" unicode="&#x139;" horiz-adv-x="1075" 
d="M500 1556h-43l280 259h49zM127 33h817l-8 -33h-850l363 1458h32z" />
    <glyph glyph-name="lacute" unicode="&#x13a;" horiz-adv-x="405" 
d="M489 1593h-38l258 283h47zM90 0h-33l363 1458h33z" />
    <glyph glyph-name="Lcommaaccent" unicode="&#x13b;" horiz-adv-x="1075" 
d="M127 33h817l-8 -33h-850l363 1458h32zM455 -297l-111 -192h-29l107 192l33 135h32z" />
    <glyph glyph-name="lcommaaccent" unicode="&#x13c;" horiz-adv-x="405" 
d="M90 0h-33l363 1458h33zM27 -297l-111 -192h-29l107 192l33 135h32z" />
    <glyph glyph-name="Lcaron" unicode="&#x13d;" horiz-adv-x="1075" 
d="M127 33h817l-8 -33h-850l363 1458h32zM565 1020h-28l192 438h35z" />
    <glyph glyph-name="lcaron" unicode="&#x13e;" horiz-adv-x="405" 
d="M90 0h-33l363 1458h33zM518 1102h-31l170 356h37z" />
    <glyph glyph-name="Ldot" unicode="&#x13f;" horiz-adv-x="1239" 
d="M127 33h817l-8 -33h-850l363 1458h32zM922 727h-37l37 147h36z" />
    <glyph glyph-name="ldot" unicode="&#x140;" horiz-adv-x="622" 
d="M90 0h-33l363 1458h33zM565 651h-37l37 148h37z" />
    <glyph glyph-name="Lslash" unicode="&#x141;" horiz-adv-x="1075" 
d="M944 33l-8 -33h-850l162 649l-189 -98l11 41l188 98l191 768h32l-186 -749l387 200l-8 -41l-389 -202l-158 -633h817z" />
    <glyph glyph-name="lslash" unicode="&#x142;" horiz-adv-x="483" 
d="M569 950l-233 -123l-207 -827h-33l201 811l-236 -123l11 41l235 123l152 606h33l-148 -590l236 123z" />
    <glyph glyph-name="Nacute" unicode="&#x143;" horiz-adv-x="1470" 
d="M922 1556h-43l280 259h49zM1126 0h-49l-286 682l-316 745h-2l-197 -790l-157 -637h-33l363 1458h49l286 -682q34 -81 144 -341t170 -404h2q34 132 99 395t99 395l158 637h33z" />
    <glyph glyph-name="nacute" unicode="&#x144;" horiz-adv-x="1099" 
d="M653 1176h-39l258 282h48zM688 1061q135 0 211 -74t76 -213q0 -68 -25 -166l-151 -608h-33l154 616q22 93 22 158q0 126 -66.5 190t-189.5 64q-146 0 -270.5 -106.5t-165.5 -270.5l-162 -651h-33l260 1040h33q-37 -152 -67 -243h2q69 127 177.5 195.5t227.5 68.5z" />
    <glyph glyph-name="Ncommaaccent" unicode="&#x145;" horiz-adv-x="1470" 
d="M1126 0h-49l-286 682l-316 745h-2l-197 -790l-157 -637h-33l363 1458h49l286 -682q34 -81 144 -341t170 -404h2q34 132 99 395t99 395l158 637h33zM549 -297l-111 -192h-28l106 192l33 135h33z" />
    <glyph glyph-name="ncommaaccent" unicode="&#x146;" horiz-adv-x="1099" 
d="M688 1061q135 0 211 -74t76 -213q0 -68 -25 -166l-151 -608h-33l154 616q22 93 22 158q0 126 -66.5 190t-189.5 64q-146 0 -270.5 -106.5t-165.5 -270.5l-162 -651h-33l260 1040h33q-37 -152 -67 -243h2q69 127 177.5 195.5t227.5 68.5zM362 -297l-110 -192h-29l107 192
l32 135h33z" />
    <glyph glyph-name="Ncaron" unicode="&#x147;" horiz-adv-x="1470" 
d="M1010 1556h-33l-180 259h39l159 -228l275 228h51zM1126 0h-49l-286 682l-316 745h-2l-197 -790l-157 -637h-33l363 1458h49l286 -682q34 -81 144 -341t170 -404h2q34 132 99 395t99 395l158 637h33z" />
    <glyph glyph-name="ncaron" unicode="&#x148;" horiz-adv-x="1099" 
d="M729 1176h-33l-174 282h39l154 -252l278 252h49zM688 1061q135 0 211 -74t76 -213q0 -68 -25 -166l-151 -608h-33l154 616q22 93 22 158q0 126 -66.5 190t-189.5 64q-146 0 -270.5 -106.5t-165.5 -270.5l-162 -651h-33l260 1040h33q-37 -152 -67 -243h2
q69 127 177.5 195.5t227.5 68.5z" />
    <glyph glyph-name="napostrophe" unicode="&#x149;" horiz-adv-x="1181" 
d="M393 1313l-135 -260h-29l131 260l37 145h33zM770 1061q135 0 211 -74t76 -213q0 -68 -25 -166l-151 -608h-33l153 616q23 97 23 158q0 126 -66.5 190t-189.5 64q-146 0 -270.5 -106.5t-165.5 -270.5l-162 -651h-33l260 1040h33q-34 -141 -68 -243h3q69 127 177.5 195.5
t227.5 68.5z" />
    <glyph glyph-name="Eng" unicode="&#x14a;" horiz-adv-x="1470" 
d="M1489 1458l-387 -1556q-38 -155 -109.5 -220t-177.5 -65q-25 0 -43 6l8 31q16 -4 35 -4q96 0 158 58t98 206l21 84l-314 729q-50 116 -150.5 350.5t-150.5 349.5h-2l-188 -753l-168 -674h-33l363 1458h51l299 -696l305 -707h2q35 143 102 410t88 352l160 641h33z" />
    <glyph glyph-name="eng" unicode="&#x14b;" horiz-adv-x="1099" 
d="M688 1061q135 0 211 -74t76 -213q0 -71 -25 -166l-178 -714q-38 -152 -108.5 -214.5t-176.5 -62.5q-28 0 -43 6l9 31q12 -4 34 -4q96 0 157.5 55t96.5 197l179 714q22 93 22 158q0 126 -66.5 190t-189.5 64q-146 0 -270.5 -106.5t-165.5 -270.5l-162 -651h-33l260 1040
h33q-37 -152 -67 -243h2q69 127 177.5 195.5t227.5 68.5z" />
    <glyph glyph-name="Omacron" unicode="&#x14c;" horiz-adv-x="1437" 
d="M1180 1642h-463l8 33h463zM887 1479q244 0 381 -159t137 -421q0 -102 -22 -209t-63.5 -209.5t-107 -193t-146 -159t-187 -108.5t-224.5 -40q-244 0 -381 158.5t-137 420.5q0 102 22 209t63.5 210t107 193.5t146 159t187 108.5t224.5 40zM887 1446q-136 0 -254 -55
t-201.5 -146t-143.5 -207t-89 -238.5t-29 -240.5q0 -248 127.5 -397.5t357.5 -149.5q136 0 254 55t201.5 146t143.5 207t89 238.5t29 240.5q0 248 -127.5 397.5t-357.5 149.5z" />
    <glyph glyph-name="omacron" unicode="&#x14d;" horiz-adv-x="1081" 
d="M932 1327h-463l8 33h463zM621 1061q177 0 273.5 -109.5t96.5 -304.5q0 -88 -21 -179.5t-66 -179t-106.5 -156t-150 -110.5t-190.5 -42q-178 0 -274.5 108t-96.5 303q0 88 21.5 180.5t66 180.5t106.5 156.5t150.5 110.5t190.5 42zM621 1028q-96 0 -180 -40.5t-141.5 -106
t-99.5 -149.5t-61.5 -171t-19.5 -170q0 -181 87.5 -280t250.5 -99q96 0 179.5 40.5t141.5 106t99.5 149t61 170.5t19.5 169q0 181 -87 281t-250 100z" />
    <glyph glyph-name="Obreve" unicode="&#x14e;" horiz-adv-x="1437" 
d="M1253 1815h35q-42 -126 -131.5 -193.5t-218.5 -67.5q-119 0 -180.5 57.5t-61.5 164.5q0 25 2 39h33q-2 -14 -2 -39q0 -189 209 -189q233 0 315 228zM887 1479q244 0 381 -159t137 -421q0 -102 -22 -209t-63.5 -209.5t-107 -193t-146 -159t-187 -108.5t-224.5 -40
q-244 0 -381 158.5t-137 420.5q0 102 22 209t63.5 210t107 193.5t146 159t187 108.5t224.5 40zM887 1446q-136 0 -254 -55t-201.5 -146t-143.5 -207t-89 -238.5t-29 -240.5q0 -248 127.5 -397.5t357.5 -149.5q136 0 254 55t201.5 146t143.5 207t89 238.5t29 240.5
q0 248 -127.5 397.5t-357.5 149.5z" />
    <glyph glyph-name="obreve" unicode="&#x14f;" horiz-adv-x="1081" 
d="M993 1458h35q-42 -126 -131.5 -193t-218.5 -67q-119 0 -180.5 57t-61.5 164q0 25 2 39h33q-2 -14 -2 -39q0 -188 209 -188q233 0 315 227zM621 1061q177 0 273.5 -109.5t96.5 -304.5q0 -88 -21 -179.5t-66 -179t-106.5 -156t-150 -110.5t-190.5 -42q-178 0 -274.5 108
t-96.5 303q0 88 21.5 180.5t66 180.5t106.5 156.5t150.5 110.5t190.5 42zM621 1028q-96 0 -180 -40.5t-141.5 -106t-99.5 -149.5t-61.5 -171t-19.5 -170q0 -181 87.5 -280t250.5 -99q96 0 179.5 40.5t141.5 106t99.5 149t61 170.5t19.5 169q0 181 -87 281t-250 100z" />
    <glyph glyph-name="Ohungarumlaut" unicode="&#x150;" horiz-adv-x="1437" 
d="M797 1556h-43l311 259h53zM999 1556h-43l312 259h53zM887 1479q244 0 381 -159t137 -421q0 -102 -22 -209t-63.5 -209.5t-107 -193t-146 -159t-187 -108.5t-224.5 -40q-244 0 -381 158.5t-137 420.5q0 102 22 209t63.5 210t107 193.5t146 159t187 108.5t224.5 40z
M887 1446q-136 0 -254 -55t-201.5 -146t-143.5 -207t-89 -238.5t-29 -240.5q0 -248 127.5 -397.5t357.5 -149.5q136 0 254 55t201.5 146t143.5 207t89 238.5t29 240.5q0 248 -127.5 397.5t-357.5 149.5z" />
    <glyph glyph-name="ohungarumlaut" unicode="&#x151;" horiz-adv-x="1081" 
d="M532 1176h-43l316 282h53zM735 1176h-43l316 282h53zM621 1061q177 0 273.5 -109.5t96.5 -304.5q0 -88 -21 -179.5t-66 -179t-106.5 -156t-150 -110.5t-190.5 -42q-178 0 -274.5 108t-96.5 303q0 88 21.5 180.5t66 180.5t106.5 156.5t150.5 110.5t190.5 42zM621 1028
q-96 0 -180 -40.5t-141.5 -106t-99.5 -149.5t-61.5 -171t-19.5 -170q0 -181 87.5 -280t250.5 -99q96 0 179.5 40.5t141.5 106t99.5 149t61 170.5t19.5 169q0 181 -87 281t-250 100z" />
    <glyph glyph-name="OE" unicode="&#x152;" horiz-adv-x="1972" 
d="M2046 1425h-801l-164 -659h766l-8 -33h-766l-174 -700h830l-9 -33h-997q-281 0 -428.5 159.5t-147.5 458.5q0 116 29.5 231.5t96 226t161.5 195t238 136t315 51.5h1067zM1212 1425h-225q-166 0 -304 -50t-229 -131.5t-154.5 -188t-91.5 -216.5t-28 -221q0 -285 138 -435
t405 -150h143z" />
    <glyph glyph-name="oe" unicode="&#x153;" horiz-adv-x="1746" 
d="M1651 530h-748q-20 -110 -20 -180q0 -161 70 -249.5t204 -88.5q128 0 234.5 80t156.5 213h35q-54 -149 -169 -237t-257 -88q-146 0 -225 94.5t-84 265.5q-65 -159 -179.5 -259.5t-267.5 -100.5t-235 104t-82 291q0 90 20.5 184.5t64 184.5t102.5 160.5t144 113.5t181 43
q148 0 230 -100.5t87 -280.5h2q67 167 185.5 274t273.5 107q141 0 223 -93t82 -261q0 -74 -28 -177zM401 12q112 0 206 63t152 161t90 209.5t32 216.5q0 174 -74 270t-211 96q-91 0 -170.5 -41.5t-135 -109t-95.5 -153t-59 -174.5t-19 -173q0 -175 73 -270t211 -95z
M1374 1028q-160 0 -284 -128t-179 -337h713q23 68 23 144q0 155 -72.5 238t-200.5 83z" />
    <glyph glyph-name="Racute" unicode="&#x154;" horiz-adv-x="1210" 
d="M743 1556h-43l281 259h49zM449 1458h370q194 0 291.5 -84t97.5 -235q0 -70 -27 -138.5t-76.5 -127.5t-129 -101.5t-176.5 -56.5v-2q74 -24 110.5 -82t53.5 -191l53 -440h-33l-51 430q-18 154 -70 212t-190 58h-379l-174 -700h-33zM473 1425l-172 -692h371q105 0 192 26.5
t143.5 68.5t95.5 96.5t56 108.5t17 106q0 136 -88 211t-269 75h-346z" />
    <glyph glyph-name="racute" unicode="&#x155;" horiz-adv-x="653" 
d="M496 1176h-39l258 282h47zM698 1044q28 0 56 -4l-9 -32q-28 4 -55 4q-158 0 -278.5 -104.5t-171.5 -307.5l-150 -600h-33l260 1040h33q-47 -184 -76 -270h2q146 274 422 274z" />
    <glyph glyph-name="Rcommaaccent" unicode="&#x156;" horiz-adv-x="1210" 
d="M449 1458h370q194 0 291.5 -84t97.5 -235q0 -70 -27 -138.5t-76.5 -127.5t-129 -101.5t-176.5 -56.5v-2q74 -24 110.5 -82t53.5 -191l53 -440h-33l-51 430q-18 154 -70 212t-190 58h-379l-174 -700h-33zM473 1425l-172 -692h371q105 0 192 26.5t143.5 68.5t95.5 96.5
t56 108.5t17 106q0 136 -88 211t-269 75h-346zM494 -297l-111 -192h-29l107 192l33 135h32z" />
    <glyph glyph-name="rcommaaccent" unicode="&#x157;" horiz-adv-x="653" 
d="M698 1044q28 0 56 -4l-9 -32q-28 4 -55 4q-158 0 -278.5 -104.5t-171.5 -307.5l-150 -600h-33l260 1040h33q-47 -184 -76 -270h2q146 274 422 274zM16 -297l-110 -192h-29l107 192l32 135h33z" />
    <glyph glyph-name="Rcaron" unicode="&#x158;" horiz-adv-x="1210" 
d="M831 1556h-32l-181 259h39l160 -228l275 228h51zM449 1458h370q194 0 291.5 -84t97.5 -235q0 -70 -27 -138.5t-76.5 -127.5t-129 -101.5t-176.5 -56.5v-2q74 -24 110.5 -82t53.5 -191l53 -440h-33l-51 430q-18 154 -70 212t-190 58h-379l-174 -700h-33zM473 1425
l-172 -692h371q105 0 192 26.5t143.5 68.5t95.5 96.5t56 108.5t17 106q0 136 -88 211t-269 75h-346z" />
    <glyph glyph-name="rcaron" unicode="&#x159;" horiz-adv-x="653" 
d="M571 1176h-32l-174 282h38l154 -252l279 252h49zM698 1044q28 0 56 -4l-9 -32q-28 4 -55 4q-158 0 -278.5 -104.5t-171.5 -307.5l-150 -600h-33l260 1040h33q-47 -184 -76 -270h2q146 274 422 274z" />
    <glyph glyph-name="Sacute" unicode="&#x15a;" horiz-adv-x="1179" 
d="M711 1556h-43l280 259h49zM758 1479q401 0 401 -342q0 -65 -18 -144h-33q18 79 18 144q0 157 -90.5 233t-277.5 76q-89 0 -164 -23.5t-126 -62.5t-87.5 -88.5t-53 -101t-16.5 -101.5q0 -63 20 -110t64.5 -82.5t100.5 -62t143 -54.5q98 -32 157.5 -58.5t111.5 -67t75 -96
t23 -132.5q0 -62 -19.5 -122t-61 -115.5t-100.5 -97t-144.5 -66.5t-186.5 -25q-416 0 -416 356q0 70 20 151h33q-20 -81 -20 -151q0 -165 95.5 -244.5t287.5 -79.5q98 0 180 24t136 63.5t92 91.5t54.5 106t16.5 109q0 49 -10 88t-33 69.5t-49 52.5t-71.5 43.5t-85 36
t-103.5 35.5q-179 59 -260.5 133.5t-81.5 204.5q0 72 31.5 143t89 131.5t151.5 98t207 37.5z" />
    <glyph glyph-name="sacute" unicode="&#x15b;" horiz-adv-x="915" 
d="M524 1176h-39l258 282h48zM535 1061q152 0 234.5 -67t82.5 -187q0 -50 -14 -102h-33q14 52 14 102q0 106 -72.5 163.5t-211.5 57.5q-148 0 -234 -77t-86 -185q0 -86 54.5 -129t183.5 -82q164 -47 233.5 -103t69.5 -163q0 -129 -103 -219t-282 -90q-164 0 -250 69.5
t-86 198.5q0 53 14 108h33q-14 -55 -14 -108q0 -115 76 -175.5t227 -60.5q164 0 258 81t94 196q0 94 -64 142.5t-221 94.5q-134 38 -195 90t-61 150q0 122 95 208.5t258 86.5z" />
    <glyph glyph-name="Scircumflex" unicode="&#x15c;" horiz-adv-x="1179" 
d="M831 1815h33l180 -259h-38l-160 228l-275 -228h-51zM758 1479q401 0 401 -342q0 -65 -18 -144h-33q18 79 18 144q0 157 -90.5 233t-277.5 76q-89 0 -164 -23.5t-126 -62.5t-87.5 -88.5t-53 -101t-16.5 -101.5q0 -63 20 -110t64.5 -82.5t100.5 -62t143 -54.5
q98 -32 157.5 -58.5t111.5 -67t75 -96t23 -132.5q0 -62 -19.5 -122t-61 -115.5t-100.5 -97t-144.5 -66.5t-186.5 -25q-416 0 -416 356q0 70 20 151h33q-20 -81 -20 -151q0 -165 95.5 -244.5t287.5 -79.5q98 0 180 24t136 63.5t92 91.5t54.5 106t16.5 109q0 49 -10 88
t-33 69.5t-49 52.5t-71.5 43.5t-85 36t-103.5 35.5q-179 59 -260.5 133.5t-81.5 204.5q0 72 31.5 143t89 131.5t151.5 98t207 37.5z" />
    <glyph glyph-name="scircumflex" unicode="&#x15d;" horiz-adv-x="915" 
d="M844 1176h-39l-154 251l-278 -251h-49l313 282h33zM535 1061q152 0 234.5 -67t82.5 -187q0 -50 -14 -102h-33q14 52 14 102q0 106 -72.5 163.5t-211.5 57.5q-148 0 -234 -77t-86 -185q0 -86 54.5 -129t183.5 -82q164 -47 233.5 -103t69.5 -163q0 -129 -103 -219t-282 -90
q-164 0 -250 69.5t-86 198.5q0 53 14 108h33q-14 -55 -14 -108q0 -115 76 -175.5t227 -60.5q164 0 258 81t94 196q0 94 -64 142.5t-221 94.5q-134 38 -195 90t-61 150q0 122 95 208.5t258 86.5z" />
    <glyph glyph-name="Scedilla" unicode="&#x15e;" horiz-adv-x="1179" 
d="M758 1479q401 0 401 -342q0 -65 -18 -144h-33q18 79 18 144q0 157 -90.5 233t-277.5 76q-89 0 -164 -23.5t-126 -62.5t-87.5 -88.5t-53 -101t-16.5 -101.5q0 -63 20 -110t64.5 -82.5t100.5 -62t143 -54.5q98 -32 157.5 -58.5t111.5 -67t75 -96t23 -132.5q0 -60 -18 -118
t-56.5 -111.5t-93.5 -95.5t-134.5 -69t-173.5 -32l-112 -119q16 4 33 4q67 0 103 -33t36 -92q0 -71 -55.5 -115.5t-143.5 -44.5q-101 0 -180 47l16 29q67 -43 164 -43q74 0 120 35t46 92q0 94 -106 94q-37 0 -70 -10l-21 22l125 134q-407 3 -407 356q0 70 20 151h33
q-20 -81 -20 -151q0 -165 95.5 -244.5t287.5 -79.5q98 0 180 24t136 63.5t92 91.5t54.5 106t16.5 109q0 49 -10 88t-33 69.5t-49 52.5t-71.5 43.5t-85 36t-103.5 35.5q-179 59 -260.5 133.5t-81.5 204.5q0 72 31.5 143t89 131.5t151.5 98t207 37.5z" />
    <glyph glyph-name="scedilla" unicode="&#x15f;" horiz-adv-x="915" 
d="M535 1061q152 0 234.5 -67t82.5 -187q0 -50 -14 -102h-33q14 52 14 102q0 106 -72.5 163.5t-211.5 57.5q-148 0 -234 -77t-86 -185q0 -86 54.5 -129t183.5 -82q164 -47 233.5 -103t69.5 -163q0 -124 -96 -213t-263 -96l-112 -119q16 4 32 4q67 0 103.5 -33t36.5 -92
q0 -71 -55.5 -115.5t-143.5 -44.5q-101 0 -180 47l16 29q67 -43 164 -43q74 0 120 35t46 92q0 94 -107 94q-36 0 -69 -10l-21 22l125 134q-156 4 -236.5 73.5t-80.5 194.5q0 53 14 108h33q-14 -55 -14 -108q0 -115 76 -175.5t227 -60.5q164 0 258 81t94 196q0 94 -64 142.5
t-221 94.5q-134 38 -195 90t-61 150q0 122 95 208.5t258 86.5z" />
    <glyph glyph-name="Scaron" unicode="&#x160;" horiz-adv-x="1179" 
d="M799 1556h-33l-180 259h39l159 -228l275 228h51zM758 1479q401 0 401 -342q0 -65 -18 -144h-33q18 79 18 144q0 157 -90.5 233t-277.5 76q-89 0 -164 -23.5t-126 -62.5t-87.5 -88.5t-53 -101t-16.5 -101.5q0 -63 20 -110t64.5 -82.5t100.5 -62t143 -54.5
q98 -32 157.5 -58.5t111.5 -67t75 -96t23 -132.5q0 -62 -19.5 -122t-61 -115.5t-100.5 -97t-144.5 -66.5t-186.5 -25q-416 0 -416 356q0 70 20 151h33q-20 -81 -20 -151q0 -165 95.5 -244.5t287.5 -79.5q98 0 180 24t136 63.5t92 91.5t54.5 106t16.5 109q0 49 -10 88
t-33 69.5t-49 52.5t-71.5 43.5t-85 36t-103.5 35.5q-179 59 -260.5 133.5t-81.5 204.5q0 72 31.5 143t89 131.5t151.5 98t207 37.5z" />
    <glyph glyph-name="scaron" unicode="&#x161;" horiz-adv-x="915" 
d="M600 1176h-33l-174 282h39l154 -252l278 252h49zM535 1061q152 0 234.5 -67t82.5 -187q0 -50 -14 -102h-33q14 52 14 102q0 106 -72.5 163.5t-211.5 57.5q-148 0 -234 -77t-86 -185q0 -86 54.5 -129t183.5 -82q164 -47 233.5 -103t69.5 -163q0 -129 -103 -219t-282 -90
q-164 0 -250 69.5t-86 198.5q0 53 14 108h33q-14 -55 -14 -108q0 -115 76 -175.5t227 -60.5q164 0 258 81t94 196q0 94 -64 142.5t-221 94.5q-134 38 -195 90t-61 150q0 122 95 208.5t258 86.5z" />
    <glyph glyph-name="Tcedilla" unicode="&#x162;" horiz-adv-x="1163" 
d="M1378 1425h-555l-354 -1425h-33l355 1425h-555l8 33h1142zM406 -297l-111 -192h-29l107 192l33 135h32z" />
    <glyph glyph-name="tcedilla" unicode="&#x163;" horiz-adv-x="552" 
d="M383 1008l-195 -775q-14 -57 -14 -100q0 -55 28.5 -79.5t90.5 -24.5q38 0 74 8l-9 -35q-24 -6 -65 -6q-152 0 -152 137q0 42 17 109l192 766h-200l8 32h200l60 240h33l-60 -240h215l-8 -32h-215zM147 -162h33l-33 -135l-110 -192h-29l107 192z" />
    <glyph glyph-name="Tcaron" unicode="&#x164;" horiz-adv-x="1163" 
d="M836 1556h-33l-180 259h39l159 -228l275 228h51zM1378 1425h-555l-354 -1425h-33l355 1425h-555l8 33h1142z" />
    <glyph glyph-name="tcaron" unicode="&#x165;" horiz-adv-x="552" 
d="M559 1102h-31l170 356h37zM391 1040h215l-8 -32h-215l-195 -775q-14 -57 -14 -100q0 -55 28.5 -79.5t90.5 -24.5q38 0 74 8l-9 -35q-24 -6 -65 -6q-152 0 -152 137q0 42 17 109l192 766h-200l8 32h200l60 240h33z" />
    <glyph glyph-name="Tbar" unicode="&#x166;" horiz-adv-x="1163" 
d="M823 1425l-141 -569h324l-9 -33h-323l-205 -823h-33l205 823h-324l9 33h323l142 569h-555l8 33h1142l-8 -33h-555z" />
    <glyph glyph-name="tbar" unicode="&#x167;" horiz-adv-x="552" 
d="M383 1008l-104 -418h210l-8 -33h-211l-82 -324q-14 -57 -14 -100q0 -55 28.5 -79.5t90.5 -24.5q38 0 74 8l-9 -35q-24 -6 -65 -6q-152 0 -152 137q0 42 17 109l80 315h-197l8 33h197l104 418h-200l8 32h200l60 240h33l-60 -240h215l-8 -32h-215z" />
    <glyph glyph-name="Utilde" unicode="&#x168;" horiz-adv-x="1372" 
d="M1245 1794h35q-26 -81 -73.5 -123.5t-106.5 -42.5q-42 0 -80.5 21t-62.5 45.5t-59 45.5t-73 21q-99 0 -143 -133h-35q26 81 73.5 123.5t106.5 42.5q42 0 80.5 -21t62.5 -45.5t59 -45.5t73 -21q99 0 143 133zM1403 1458l-244 -975q-62 -250 -209.5 -376.5t-369.5 -126.5
q-394 0 -394 391q0 87 31 211l219 876h33l-221 -885q-29 -122 -29 -202q0 -181 89.5 -270t271.5 -89q209 0 349 120.5t199 359.5l242 966h33z" />
    <glyph glyph-name="utilde" unicode="&#x169;" horiz-adv-x="1099" 
d="M1020 1438h35q-26 -80 -73.5 -123t-107.5 -43q-42 0 -80 21t-61.5 45.5t-58 45.5t-72.5 21q-99 0 -143 -133h-35q26 81 73.5 123.5t106.5 42.5q42 0 80 -21t61.5 -45.5t58.5 -45.5t73 -21q99 0 143 133zM412 -20q-135 0 -211 73.5t-76 212.5q0 68 25 166l151 608h33
l-154 -616q-22 -93 -22 -158q0 -126 66.5 -190t189.5 -64q146 0 270.5 106.5t165.5 270.5l162 651h32l-260 -1040h-32l55 219h-2q-68 -114 -173 -176.5t-220 -62.5z" />
    <glyph glyph-name="Umacron" unicode="&#x16a;" horiz-adv-x="1372" 
d="M1176 1642h-463l8 33h463zM1403 1458l-244 -975q-62 -250 -209.5 -376.5t-369.5 -126.5q-394 0 -394 391q0 87 31 211l219 876h33l-221 -885q-29 -122 -29 -202q0 -181 89.5 -270t271.5 -89q209 0 349 120.5t199 359.5l242 966h33z" />
    <glyph glyph-name="umacron" unicode="&#x16b;" horiz-adv-x="1099" 
d="M963 1327h-463l8 33h463zM412 -20q-135 0 -211 73.5t-76 212.5q0 68 25 166l151 608h33l-154 -616q-22 -93 -22 -158q0 -126 66.5 -190t189.5 -64q146 0 270.5 106.5t165.5 270.5l162 651h32l-260 -1040h-32l55 219h-2q-68 -114 -173 -176.5t-220 -62.5z" />
    <glyph glyph-name="Ubreve" unicode="&#x16c;" horiz-adv-x="1372" 
d="M1249 1815h35q-42 -126 -131.5 -193.5t-218.5 -67.5q-119 0 -180.5 57.5t-61.5 164.5q0 25 2 39h33q-2 -14 -2 -39q0 -189 209 -189q233 0 315 228zM1403 1458l-244 -975q-62 -250 -209.5 -376.5t-369.5 -126.5q-394 0 -394 391q0 87 31 211l219 876h33l-221 -885
q-29 -122 -29 -202q0 -181 89.5 -270t271.5 -89q209 0 349 120.5t199 359.5l242 966h33z" />
    <glyph glyph-name="ubreve" unicode="&#x16d;" horiz-adv-x="1099" 
d="M1024 1458h35q-42 -126 -131.5 -193t-218.5 -67q-119 0 -180.5 57t-61.5 164q0 25 2 39h33q-2 -14 -2 -39q0 -188 209 -188q233 0 315 227zM412 -20q-135 0 -211 73.5t-76 212.5q0 68 25 166l151 608h33l-154 -616q-22 -93 -22 -158q0 -126 66.5 -190t189.5 -64
q146 0 270.5 106.5t165.5 270.5l162 651h32l-260 -1040h-32l55 219h-2q-68 -114 -173 -176.5t-220 -62.5z" />
    <glyph glyph-name="Uring" unicode="&#x16e;" horiz-adv-x="1372" 
d="M950 1915q70 0 121 -50.5t51 -121.5q0 -72 -50.5 -122t-121.5 -50t-121.5 50t-50.5 122q0 71 51 121.5t121 50.5zM950 1882q-58 0 -98.5 -40t-40.5 -99t40.5 -99t98.5 -40q59 0 99.5 40.5t40.5 98.5t-40.5 98.5t-99.5 40.5zM1403 1458l-244 -975q-62 -250 -209.5 -376.5
t-369.5 -126.5q-394 0 -394 391q0 87 31 211l219 876h33l-221 -885q-29 -122 -29 -202q0 -181 89.5 -270t271.5 -89q209 0 349 120.5t199 359.5l242 966h33z" />
    <glyph glyph-name="uring" unicode="&#x16f;" horiz-adv-x="1099" 
d="M725 1559q70 0 121 -51t51 -122q0 -72 -50.5 -122t-121.5 -50t-121.5 50t-50.5 122q0 71 51 122t121 51zM725 1526q-58 0 -98.5 -40.5t-40.5 -99.5q0 -58 40 -98.5t99 -40.5t99 40.5t40 98.5q0 59 -40.5 99.5t-98.5 40.5zM412 -20q-135 0 -211 73.5t-76 212.5
q0 68 25 166l151 608h33l-154 -616q-22 -93 -22 -158q0 -126 66.5 -190t189.5 -64q146 0 270.5 106.5t165.5 270.5l162 651h32l-260 -1040h-32l55 219h-2q-68 -114 -173 -176.5t-220 -62.5z" />
    <glyph glyph-name="Uhungarumlaut" unicode="&#x170;" horiz-adv-x="1372" 
d="M793 1556h-43l311 259h53zM995 1556h-43l312 259h53zM1403 1458l-244 -975q-62 -250 -209.5 -376.5t-369.5 -126.5q-394 0 -394 391q0 87 31 211l219 876h33l-221 -885q-29 -122 -29 -202q0 -181 89.5 -270t271.5 -89q209 0 349 120.5t199 359.5l242 966h33z" />
    <glyph glyph-name="uhungarumlaut" unicode="&#x171;" horiz-adv-x="1099" 
d="M563 1176h-43l316 282h53zM766 1176h-43l315 282h54zM412 -20q-135 0 -211 73.5t-76 212.5q0 68 25 166l151 608h33l-154 -616q-22 -93 -22 -158q0 -126 66.5 -190t189.5 -64q146 0 270.5 106.5t165.5 270.5l162 651h32l-260 -1040h-32l55 219h-2q-68 -114 -173 -176.5
t-220 -62.5z" />
    <glyph glyph-name="Uogonek" unicode="&#x172;" horiz-adv-x="1372" 
d="M1403 1458l-240 -958q-75 -306 -274 -437q-131 -87 -202 -148.5t-94.5 -102.5t-23.5 -86q0 -41 21 -60.5t67 -19.5q38 0 68 10l-8 -35q-32 -8 -60 -8q-120 0 -120 113q0 66 48 128.5t167 145.5v2q-83 -22 -172 -22q-398 0 -398 374q0 87 31 211l223 893h33l-225 -901
q-29 -122 -29 -203q0 -173 91 -257.5t274 -84.5q211 0 350.5 124.5t202.5 371.5l237 950h33z" />
    <glyph glyph-name="uogonek" unicode="&#x173;" horiz-adv-x="1099" 
d="M1044 1040l-260 -1040q-136 -90 -185.5 -152.5t-49.5 -121.5q0 -41 21 -60.5t67 -19.5q38 0 68 10l-9 -35q-32 -8 -59 -8q-121 0 -121 113q0 69 53.5 135t186.5 155l51 203h-2q-68 -114 -173 -176.5t-220 -62.5q-135 0 -211 73.5t-76 212.5q0 68 25 166l151 608h33
l-154 -616q-22 -93 -22 -158q0 -126 66.5 -190t189.5 -64q146 0 270.5 106.5t165.5 270.5l162 651h32z" />
    <glyph glyph-name="Wcircumflex" unicode="&#x174;" horiz-adv-x="1763" 
d="M1188 1815h33l180 -259h-39l-160 228l-274 -228h-51zM1200 0h-51l-21 694q-8 247 -20 731h-2l-383 -731l-363 -694h-51l-51 1458h33l24 -708l25 -715h2q35 66 375 719l368 704h56l18 -704q3 -119 10.5 -359.5t10.5 -359.5h2q221 414 379 715l374 708h37z" />
    <glyph glyph-name="wcircumflex" unicode="&#x175;" horiz-adv-x="1527" 
d="M1186 1176h-39l-154 251l-278 -251h-49l313 282h33zM1030 0h-53l-47 541q-38 425 -41 469h-4q-47 -79 -138.5 -234.5t-138.5 -234.5l-315 -541h-53l-90 1040h32l45 -505l43 -502h4q107 185 299 512l291 495h54l45 -497q21 -255 45 -510h4l293 502l294 505h37z" />
    <glyph glyph-name="Ycircumflex" unicode="&#x176;" horiz-adv-x="1167" 
d="M870 1815h33l180 -259h-39l-159 228l-275 -228h-51zM633 651l-162 -651h-33l162 651l-352 807h35l153 -350l185 -422h2q321 346 403 432l317 340h43z" />
    <glyph glyph-name="ycircumflex" unicode="&#x177;" horiz-adv-x="882" 
d="M825 1176h-39l-153 251l-279 -251h-49l313 282h33zM1008 1040l-693 -1052q-76 -116 -133 -187.5t-109 -114t-97 -58t-101 -15.5t-88 14l8 33q28 -14 80 -14q66 0 119.5 26.5t123.5 104t167 223.5l-152 1040h33l145 -995h2l656 995h39z" />
    <glyph glyph-name="Ydieresis" unicode="&#x178;" horiz-adv-x="1167" 
d="M659 1595h-32l41 158h32zM1036 1595h-32l40 158h33zM633 651l-162 -651h-33l162 651l-352 807h35l153 -350l185 -422h2q321 346 403 432l317 340h43z" />
    <glyph glyph-name="Zacute" unicode="&#x179;" horiz-adv-x="1120" 
d="M709 1556h-43l280 259h49zM1262 1409l-1311 -1374v-2h1014l-9 -33h-1050l12 49l1311 1374v2h-959l9 33h995z" />
    <glyph glyph-name="zacute" unicode="&#x17a;" horiz-adv-x="903" 
d="M537 1176h-39l258 282h47zM961 991l-1004 -954v-4h784l-8 -33h-821l12 49l1002 955v4h-742l9 32h780z" />
    <glyph glyph-name="Zdotaccent" unicode="&#x17b;" horiz-adv-x="1120" 
d="M807 1595h-33l41 158h33zM1262 1409l-1311 -1374v-2h1014l-9 -33h-1050l12 49l1311 1374v2h-959l9 33h995z" />
    <glyph glyph-name="zdotaccent" unicode="&#x17c;" horiz-adv-x="903" 
d="M643 1300h-33l39 158h33zM961 991l-1004 -954v-4h784l-8 -33h-821l12 49l1002 955v4h-742l9 32h780z" />
    <glyph glyph-name="Zcaron" unicode="&#x17d;" horiz-adv-x="1120" 
d="M797 1556h-33l-180 259h39l159 -228l275 228h51zM1262 1409l-1311 -1374v-2h1014l-9 -33h-1050l12 49l1311 1374v2h-959l9 33h995z" />
    <glyph glyph-name="zcaron" unicode="&#x17e;" horiz-adv-x="903" 
d="M612 1176h-32l-174 282h38l154 -252l279 252h49zM961 991l-1004 -954v-4h784l-8 -33h-821l12 49l1002 955v4h-742l9 32h780z" />
    <glyph glyph-name="longs" unicode="&#x17f;" horiz-adv-x="516" 
d="M659 1464q34 0 58 -8l-8 -31q-25 7 -50 7q-170 0 -227 -224l-301 -1208h-33l252 1008h-198l8 32h198l43 177q61 247 258 247z" />
    <glyph glyph-name="florin" unicode="&#x192;" 
d="M1151 1460q30 0 51 -6l-8 -33q-18 6 -43 6q-99 0 -160 -55.5t-139 -210.5l-104 -203h202l-8 -32h-211l-491 -979q-94 -187 -174.5 -257.5t-186.5 -70.5q-27 0 -47 4l8 33q16 -4 39 -4q96 0 168.5 65t163.5 246l483 963h-205l9 32h213l108 211q85 165 155 228t177 63z" />
    <glyph glyph-name="Scommaaccent" unicode="&#x218;" horiz-adv-x="1179" 
d="M758 1479q401 0 401 -342q0 -65 -18 -144h-33q18 79 18 144q0 157 -90.5 233t-277.5 76q-89 0 -164 -23.5t-126 -62.5t-87.5 -88.5t-53 -101t-16.5 -101.5q0 -63 20 -110t64.5 -82.5t100.5 -62t143 -54.5q98 -32 157.5 -58.5t111.5 -67t75 -96t23 -132.5
q0 -62 -19.5 -122t-61 -115.5t-100.5 -97t-144.5 -66.5t-186.5 -25q-416 0 -416 356q0 70 20 151h33q-20 -81 -20 -151q0 -165 95.5 -244.5t287.5 -79.5q98 0 180 24t136 63.5t92 91.5t54.5 106t16.5 109q0 49 -10 88t-33 69.5t-49 52.5t-71.5 43.5t-85 36t-103.5 35.5
q-179 59 -260.5 133.5t-81.5 204.5q0 72 31.5 143t89 131.5t151.5 98t207 37.5zM424 -297l-111 -192h-28l106 192l33 135h33z" />
    <glyph glyph-name="scommaaccent" unicode="&#x219;" horiz-adv-x="915" 
d="M535 1061q152 0 234.5 -67t82.5 -187q0 -50 -14 -102h-33q14 52 14 102q0 106 -72.5 163.5t-211.5 57.5q-148 0 -234 -77t-86 -185q0 -86 54.5 -129t183.5 -82q164 -47 233.5 -103t69.5 -163q0 -129 -103 -219t-282 -90q-164 0 -250 69.5t-86 198.5q0 53 14 108h33
q-14 -55 -14 -108q0 -115 76 -175.5t227 -60.5q164 0 258 81t94 196q0 94 -64 142.5t-221 94.5q-134 38 -195 90t-61 150q0 122 95 208.5t258 86.5zM291 -297l-111 -192h-28l106 192l33 135h33z" />
    <glyph glyph-name="Tcommaaccent" unicode="&#x21a;" horiz-adv-x="1163" 
d="M1378 1425h-555l-354 -1425h-33l355 1425h-555l8 33h1142zM406 -297l-111 -192h-29l107 192l33 135h32z" />
    <glyph glyph-name="tcommaaccent" unicode="&#x21b;" horiz-adv-x="552" 
d="M383 1008l-195 -775q-14 -57 -14 -100q0 -55 28.5 -79.5t90.5 -24.5q38 0 74 8l-9 -35q-24 -6 -65 -6q-152 0 -152 137q0 42 17 109l192 766h-200l8 32h200l60 240h33l-60 -240h215l-8 -32h-215zM147 -162h33l-33 -135l-110 -192h-29l107 192z" />
    <glyph glyph-name="dotlessj" unicode="&#x237;" horiz-adv-x="428" 
d="M371 1040l-283 -1138q-39 -156 -110.5 -220.5t-178.5 -64.5q-26 0 -41 6l9 31q12 -4 32 -4q96 0 159 57t99 203l281 1130h33z" />
    <glyph glyph-name="apostrophemod" unicode="&#x2bc;" horiz-adv-x="317" 
d="M393 1313l-135 -260h-29l131 260l37 145h33z" />
    <glyph glyph-name="circumflex" unicode="&#x2c6;" horiz-adv-x="724" 
d="M786 1176h-38l-154 251l-279 -251h-49l314 282h32z" />
    <glyph glyph-name="caron" unicode="&#x2c7;" horiz-adv-x="727" 
d="M545 1176h-33l-174 282h39l153 -252l279 252h49z" />
    <glyph glyph-name="firsttonechinese" unicode="&#x2c9;" horiz-adv-x="669" 
d="M768 1327h-463l8 33h463z" />
    <glyph glyph-name="breve" unicode="&#x2d8;" horiz-adv-x="794" 
d="M891 1458h35q-42 -125 -131.5 -192.5t-219.5 -67.5q-119 0 -180 57t-61 164q0 25 2 39h33q-2 -14 -2 -39q0 -188 208 -188q234 0 316 227z" />
    <glyph glyph-name="dotaccent" unicode="&#x2d9;" horiz-adv-x="239" 
d="M332 1300h-33l39 158h33z" />
    <glyph glyph-name="ring" unicode="&#x2da;" horiz-adv-x="559" 
d="M496 1559q70 0 121 -51t51 -122q0 -72 -50.5 -122t-121.5 -50t-121.5 50t-50.5 122q0 71 51 122t121 51zM496 1526q-58 0 -99 -41t-41 -99t40.5 -98.5t99.5 -40.5q58 0 98.5 40.5t40.5 98.5q0 59 -40.5 99.5t-98.5 40.5z" />
    <glyph glyph-name="ogonek" unicode="&#x2db;" horiz-adv-x="417" 
d="M152 16l28 -16q-136 -90 -185.5 -152.5t-49.5 -121.5q0 -41 21 -60.5t67 -19.5q37 0 67 10l-8 -35q-32 -8 -59 -8q-121 0 -121 113q0 69 53.5 135t186.5 155z" />
    <glyph glyph-name="tilde" unicode="&#x2dc;" horiz-adv-x="794" 
d="M887 1438h35q-26 -80 -73.5 -123t-107.5 -43q-42 0 -80 21t-61.5 45.5t-58 45.5t-72.5 21q-99 0 -143 -133h-35q26 81 73.5 123.5t106.5 42.5q42 0 80 -21t61.5 -45.5t58 -45.5t72.5 -21q100 0 144 133z" />
    <glyph glyph-name="hungarumlaut" unicode="&#x2dd;" horiz-adv-x="706" 
d="M309 1176h-43l316 282h53zM512 1176h-43l315 282h54z" />
    <glyph glyph-name="commaturnedabovecomb" unicode="&#x312;" horiz-adv-x="0" 
d="M338 1337l-33 -135h-33l33 135l109 193h30z" />
    <glyph glyph-name="commaaccent" unicode="&#x326;" horiz-adv-x="0" 
d="M-8 -297l-111 -192h-28l106 192l33 135h33z" />
    <glyph glyph-name="Delta" unicode="&#x394;" horiz-adv-x="1296" 
d="M1155 0h-1272l977 1458h45zM1116 33l-127 745q-95 562 -110 647h-2q-81 -121 -238 -354.5t-197 -292.5l-499 -745h1173z" />
    <glyph glyph-name="Omega" unicode="&#x3a9;" horiz-adv-x="1462" 
d="M913 1479q241 0 379 -122.5t138 -359.5q0 -173 -73 -338.5t-203 -314t-331 -309.5v-2h422l-8 -33h-471l8 33q318 257 470.5 485t152.5 479q0 223 -128 336t-356 113q-136 0 -253 -46t-198.5 -123.5t-139.5 -178.5t-85.5 -210t-27.5 -220q0 -169 57 -318.5t164 -316.5
l-8 -33h-455l8 33h418v2q-105 161 -161 312.5t-56 320.5q0 116 29 230.5t90 219.5t146.5 185t207.5 128t264 48z" />
    <glyph glyph-name="mu" unicode="&#x3bc;" horiz-adv-x="1120" 
d="M1053 1040l-203 -817q-21 -83 -21 -125q0 -39 17.5 -55t56.5 -16q27 0 51 8l-8 -35q-21 -6 -43 -6q-106 0 -106 104q0 51 30 146h-2q-58 -121 -164.5 -192.5t-228.5 -71.5q-136 0 -210 69t-75 207h-2q-26 -141 -57 -256l-94 -379h-33l354 1419h33l-153 -616
q-23 -97 -23 -158q0 -126 67.5 -190t192.5 -64q140 0 262.5 104.5t165.5 280.5l160 643h33z" />
    <glyph glyph-name="pi" unicode="&#x3c0;" horiz-adv-x="1280" 
d="M1360 1008h-287l-180 -727q-16 -63 -16 -115q0 -78 34 -108.5t103 -30.5q34 0 55 8l-8 -35q-21 -6 -47 -6q-82 0 -126 40.5t-44 131.5q0 50 18 123l178 719h-614l-250 -1008h-33l250 1008h-241l8 32h1208z" />
    <glyph glyph-name="Wgrave" unicode="&#x1e80;" horiz-adv-x="1763" 
d="M1253 1556h-34l-164 259h41zM1200 0h-51l-21 694q-8 247 -20 731h-2l-383 -731l-363 -694h-51l-51 1458h33l24 -708l25 -715h2q35 66 375 719l368 704h56l18 -704q3 -119 10.5 -359.5t10.5 -359.5h2q221 414 379 715l374 708h37z" />
    <glyph glyph-name="wgrave" unicode="&#x1e81;" horiz-adv-x="1527" 
d="M899 1458l127 -282h-31l-135 282h39zM1030 0h-53l-47 541q-38 425 -41 469h-4q-47 -79 -138.5 -234.5t-138.5 -234.5l-315 -541h-53l-90 1040h32l45 -505l43 -502h4q107 185 299 512l291 495h54l45 -497q21 -255 45 -510h4l293 502l294 505h37z" />
    <glyph glyph-name="Wacute" unicode="&#x1e82;" horiz-adv-x="1763" 
d="M1067 1556h-43l281 259h49zM1200 0h-51l-21 694q-8 247 -20 731h-2l-383 -731l-363 -694h-51l-51 1458h33l24 -708l25 -715h2q35 66 375 719l368 704h56l18 -704q3 -119 10.5 -359.5t10.5 -359.5h2q221 414 379 715l374 708h37z" />
    <glyph glyph-name="wacute" unicode="&#x1e83;" horiz-adv-x="1527" 
d="M866 1176h-39l258 282h48zM1030 0h-53l-47 541q-38 425 -41 469h-4q-47 -79 -138.5 -234.5t-138.5 -234.5l-315 -541h-53l-90 1040h32l45 -505l43 -502h4q107 185 299 512l291 495h54l45 -497q21 -255 45 -510h4l293 502l294 505h37z" />
    <glyph glyph-name="Wdieresis" unicode="&#x1e84;" horiz-adv-x="1763" 
d="M977 1595h-33l41 158h33zM1354 1595h-33l41 158h33zM1200 0h-51l-21 694q-8 247 -20 731h-2l-383 -731l-363 -694h-51l-51 1458h33l24 -708l25 -715h2q35 66 375 719l368 704h56l18 -704q3 -119 10.5 -359.5t10.5 -359.5h2q221 414 379 715l374 708h37z" />
    <glyph glyph-name="wdieresis" unicode="&#x1e85;" horiz-adv-x="1527" 
d="M784 1300h-32l39 158h32zM1161 1300h-33l39 158h33zM1030 0h-53l-47 541q-38 425 -41 469h-4q-47 -79 -138.5 -234.5t-138.5 -234.5l-315 -541h-53l-90 1040h32l45 -505l43 -502h4q107 185 299 512l291 495h54l45 -497q21 -255 45 -510h4l293 502l294 505h37z" />
    <glyph glyph-name="Germandbls" unicode="&#x1e9e;" horiz-adv-x="1468" 
d="M1427 1262l-520 -424q205 -30 311.5 -128.5t106.5 -277.5q0 -82 -33 -161t-94 -144.5t-161.5 -106t-223.5 -40.5q-175 0 -265.5 70t-90.5 200q0 38 8 74h33q-9 -40 -9 -74q0 -117 81.5 -177.5t244.5 -60.5q120 0 214.5 38.5t150 101.5t84 134.5t28.5 145.5
q0 174 -107.5 264t-328.5 115l8 33l520 424q-59 85 -164.5 131.5t-244.5 46.5q-255 0 -419.5 -136.5t-231.5 -404.5l-226 -905h-32l227 913q69 279 242.5 422.5t439.5 143.5q158 0 274.5 -58.5t177.5 -158.5z" />
    <glyph glyph-name="Ygrave" unicode="&#x1ef2;" horiz-adv-x="1167" 
d="M936 1556h-35l-164 259h41zM633 651l-162 -651h-33l162 651l-352 807h35l153 -350l185 -422h2q321 346 403 432l317 340h43z" />
    <glyph glyph-name="ygrave" unicode="&#x1ef3;" horiz-adv-x="882" 
d="M539 1458l127 -282h-31l-135 282h39zM1008 1040l-693 -1052q-76 -116 -133 -187.5t-109 -114t-97 -58t-101 -15.5t-88 14l8 33q28 -14 80 -14q66 0 119.5 26.5t123.5 104t167 223.5l-152 1040h33l145 -995h2l656 995h39z" />
    <glyph glyph-name="hyphentwo" unicode="&#x2010;" horiz-adv-x="561" 
d="M514 582h-438l8 32h438z" />
    <glyph glyph-name="endash" unicode="&#x2013;" 
d="M997 582h-942l8 32h943z" />
    <glyph glyph-name="emdash" unicode="&#x2014;" horiz-adv-x="2048" 
d="M2021 582h-1966l8 32h1967z" />
    <glyph glyph-name="horizontalbar" unicode="&#x2015;" horiz-adv-x="2048" 
d="M1892 582h-1966l8 32h1967z" />
    <glyph glyph-name="underscoredbl" unicode="&#x2017;" 
d="M860 -135h-1024l8 33h1024zM799 -381h-1024l8 33h1024z" />
    <glyph glyph-name="quoteleft" unicode="&#x2018;" horiz-adv-x="319" 
d="M293 1198l135 260h29l-131 -260l-37 -145h-33z" />
    <glyph glyph-name="quoteright" unicode="&#x2019;" horiz-adv-x="319" 
d="M393 1313l-135 -260h-29l131 260l37 145h33z" />
    <glyph glyph-name="quotesinglbase" unicode="&#x201a;" horiz-adv-x="319" 
d="M57 -35l-135 -260h-28l131 260l36 146h33z" />
    <glyph glyph-name="quotedblleft" unicode="&#x201c;" horiz-adv-x="528" 
d="M293 1198l135 260h29l-131 -260l-37 -145h-33zM502 1198l135 260h29l-131 -260l-37 -145h-33z" />
    <glyph glyph-name="quotedblright" unicode="&#x201d;" horiz-adv-x="528" 
d="M393 1313l-135 -260h-29l131 260l37 145h33zM602 1313l-135 -260h-29l131 260l37 145h33z" />
    <glyph glyph-name="quotedblbase" unicode="&#x201e;" horiz-adv-x="528" 
d="M57 -35l-135 -260h-28l131 260l36 146h33zM266 -35l-135 -260h-29l131 260l37 146h33z" />
    <glyph glyph-name="dagger" unicode="&#x2020;" 
d="M653 1018h385l-8 -33h-385l-307 -1231h-33l307 1231h-385l9 33h385l108 440h33z" />
    <glyph glyph-name="daggerdbl" unicode="&#x2021;" 
d="M653 1018h385l-8 -33h-385l-147 -586h385l-9 -32h-385l-151 -613h-33l152 613h-385l8 32h385l147 586h-385l9 33h385l108 440h33z" />
    <glyph glyph-name="bullet" unicode="&#x2022;" horiz-adv-x="614" 
d="M307 545q-75 0 -129.5 54t-54.5 130q0 75 54.5 129.5t129.5 54.5q76 0 130.5 -54.5t54.5 -129.5q0 -76 -54 -130t-131 -54z" />
    <glyph glyph-name="ellipsis" unicode="&#x2026;" horiz-adv-x="974" 
d="M29 0h-37l37 147h37zM377 0h-37l37 147h37zM725 0h-37l37 147h37z" />
    <glyph glyph-name="perthousand" unicode="&#x2030;" horiz-adv-x="1728" 
d="M18 -61h-43l1237 1503h43zM489 1405q87 0 131 -57.5t44 -167.5q0 -51 -11 -107.5t-35.5 -113t-58 -101t-84 -72.5t-108.5 -28q-174 0 -174 225q0 65 18.5 136t53.5 136t94 107.5t130 42.5zM489 1372q-65 0 -117.5 -39.5t-83 -100.5t-47 -126t-16.5 -123q0 -195 144 -195
q52 0 96.5 26.5t74 69t51 95t31 104t9.5 97.5q0 192 -142 192zM866 627q174 0 174 -226q0 -65 -18.5 -136t-53 -136t-94 -107t-131.5 -42q-174 0 -174 225q0 65 19 136t53.5 136t94 107.5t130.5 42.5zM1448 627q174 0 174 -226q0 -65 -18.5 -136t-53 -136t-94 -107
t-131.5 -42q-174 0 -174 225q0 65 19 136t53.5 136t94 107.5t130.5 42.5zM866 594q-65 0 -117.5 -39.5t-83 -100.5t-47 -126t-16.5 -123q0 -195 143 -195q64 0 116.5 40t83 101t47 126.5t16.5 123.5q0 193 -142 193zM1448 594q-65 0 -117.5 -39.5t-83 -100.5t-47 -126
t-16.5 -123q0 -195 143 -195q64 0 116.5 40t83 101t46.5 126.5t16 123.5q0 193 -141 193z" />
    <glyph glyph-name="guilsinglleft" unicode="&#x2039;" horiz-adv-x="495" 
d="M150 514l131 -403h-35l-133 409l331 410h41z" />
    <glyph glyph-name="guilsinglright" unicode="&#x203a;" horiz-adv-x="495" 
d="M346 526l-131 404h35l133 -410l-332 -409h-41z" />
    <glyph glyph-name="interrobang" unicode="&#x203d;" horiz-adv-x="958" 
d="M727 1458l-43 -166q137 -14 218 -95.5t81 -207.5q0 -104 -65 -194t-236 -199q-55 -34 -85.5 -55.5t-60 -48t-46 -55t-31 -65.5t-27.5 -91h-26l237 981h-6q-156 0 -268.5 -86.5t-159.5 -247.5h-33q54 182 173.5 274t287.5 92h14l39 164h37zM668 625q162 102 222 186.5
t60 177.5q0 114 -74 187.5t-200 83.5l-203 -801h2q24 41 64.5 76.5t128.5 89.5zM373 141h37l-35 -141h-37z" />
    <glyph glyph-name="overline" unicode="&#x203e;" 
d="M1305 1642h-1024l8 33h1024z" />
    <glyph glyph-name="fraction" unicode="&#x2044;" horiz-adv-x="208" 
d="M-410 0h-36l1151 1380h36z" />
    <glyph glyph-name="zerosuperior" unicode="&#x2070;" horiz-adv-x="802" 
d="M657 1657q242 0 242 -322q0 -77 -16 -165t-51.5 -179t-84.5 -163.5t-123.5 -119t-160.5 -46.5q-120 0 -181 81.5t-61 239.5q0 77 16 165t51.5 179t84.5 164t123.5 119.5t160.5 46.5zM655 1624q-79 0 -147 -45t-113 -115.5t-77.5 -157.5t-47 -169.5t-14.5 -153.5
q0 -291 207 -291q80 0 148.5 45t114 115.5t78.5 158t47.5 170.5t14.5 154q0 146 -51.5 217.5t-159.5 71.5z" />
    <glyph glyph-name="foursuperior" unicode="&#x2074;" horiz-adv-x="747" 
d="M836 967h-199l-74 -291h-33l74 291h-471l10 41l611 634h51l-160 -643h199zM180 999h432l39 158l111 445h-2l-385 -400z" />
    <glyph glyph-name="fivesuperior" unicode="&#x2075;" horiz-adv-x="770" 
d="M911 1610h-460l-152 -432h2q90 118 248 118q118 0 184 -70t66 -192q0 -49 -15 -100.5t-46.5 -100.5t-74.5 -87t-105 -61t-132 -23q-114 0 -178 53.5t-64 148.5q0 30 9 60h32q-8 -27 -8 -60q0 -82 54.5 -126t154.5 -44q80 0 147 32.5t108 84t63 110t22 113.5
q0 108 -56.5 169t-160.5 61q-185 0 -287 -185l-31 2l197 561h492z" />
    <glyph glyph-name="sixsuperior" unicode="&#x2076;" horiz-adv-x="778" 
d="M676 1657q116 0 175.5 -56.5t59.5 -158.5v-25h-34v23q0 184 -199 184q-134 0 -247 -132t-171 -386h2q41 84 124.5 139t182.5 55q119 0 185.5 -75t66.5 -205q0 -57 -24 -118.5t-66.5 -115.5t-112 -89t-151.5 -35q-256 0 -256 280q0 67 14 144t39.5 157.5t66.5 154.5
t90.5 132t116 92.5t138.5 34.5zM567 1268q-74 0 -137 -31t-102.5 -80t-61.5 -107t-22 -114q0 -242 223 -242q75 0 138 32t101 82t59 105.5t21 106.5q0 115 -58 181.5t-161 66.5z" />
    <glyph glyph-name="sevensuperior" unicode="&#x2077;" horiz-adv-x="679" 
d="M936 1642l-8 -32q-188 -199 -346 -420.5t-299 -513.5h-37q147 302 303 523t336 411h-592l8 32h635z" />
    <glyph glyph-name="eightsuperior" unicode="&#x2078;" horiz-adv-x="782" 
d="M649 1657q114 0 183 -62t69 -163q0 -93 -68.5 -167.5t-187.5 -95.5v-2q74 -26 117 -81t43 -134q0 -50 -23 -100t-65 -93t-110.5 -70t-149.5 -27q-127 0 -201 65t-74 176q0 98 75.5 179t205.5 100v2q-66 21 -105 72.5t-39 123.5q0 46 22.5 94.5t63 89.5t104.5 67t140 26z
M649 1624q-69 0 -127 -23.5t-93.5 -60t-55 -79t-19.5 -83.5q0 -86 59 -137t165 -51q71 0 128.5 22.5t91.5 59t52 78t18 82.5q0 88 -59.5 140t-159.5 52zM532 1159q-74 0 -135.5 -23.5t-100.5 -61t-60 -82t-21 -89.5q0 -97 65 -153t177 -56q75 0 137 24.5t99.5 63.5t58 83.5
t20.5 88.5q0 90 -66 147.5t-174 57.5z" />
    <glyph glyph-name="ninesuperior" unicode="&#x2079;" horiz-adv-x="778" 
d="M422 662q-116 0 -176 56.5t-60 158.5v24h35v-22q0 -185 199 -185q134 0 247 132t171 386h-2q-41 -84 -125 -139t-183 -55q-119 0 -185.5 75t-66.5 205q0 57 24 118.5t67 116t112.5 89.5t151.5 35q126 0 191 -71t65 -210q0 -67 -14 -144t-39.5 -157.5t-66.5 -154
t-90.5 -131.5t-116 -92.5t-138.5 -34.5zM530 1051q74 0 137.5 31t103 79.5t61.5 106.5t22 114q0 242 -223 242q-61 0 -114 -21.5t-90 -55.5t-64 -77.5t-39.5 -87.5t-12.5 -84q0 -115 58 -181t161 -66z" />
    <glyph glyph-name="plussuperior" unicode="&#x207a;" horiz-adv-x="831" 
d="M432 1147h291v-33h-291v-283h-33v283h-290v33h290v283h33v-283z" />
    <glyph glyph-name="minussuperior" unicode="&#x207b;" horiz-adv-x="831" 
d="M723 1114h-614v33h614v-33z" />
    <glyph glyph-name="equalsuperior" unicode="&#x207c;" horiz-adv-x="829" 
d="M723 1206h-614v33h614v-33zM723 1022h-614v33h614v-33z" />
    <glyph glyph-name="parenleftsuperior" unicode="&#x207d;" horiz-adv-x="344" 
d="M565 1739h39q-185 -202 -280 -436t-95 -451q0 -188 58 -387h-31q-59 186 -59 387q0 222 93 456t275 431z" />
    <glyph glyph-name="parenrightsuperior" unicode="&#x207e;" horiz-adv-x="344" 
d="M70 465h-39q185 202 280 436t95 451q0 188 -58 387h31q59 -186 59 -387q0 -222 -93 -456t-275 -431z" />
    <glyph glyph-name="zeroinferior" unicode="&#x2080;" horiz-adv-x="802" 
d="M401 629q242 0 242 -322q0 -77 -16 -165t-51.5 -179t-84.5 -164t-123.5 -119.5t-160.5 -46.5q-120 0 -181 81.5t-61 240.5q0 77 16 165t51.5 179t84.5 164t123.5 119.5t160.5 46.5zM399 596q-79 0 -147 -45t-113 -115.5t-77.5 -157.5t-47 -169.5t-14.5 -153.5
q0 -291 207 -291q80 0 148.5 45t114 115.5t78.5 158t47.5 170.5t14.5 154q0 146 -51.5 217.5t-159.5 71.5z" />
    <glyph glyph-name="oneinferior" unicode="&#x2081;" horiz-adv-x="442" 
d="M53 -352h-33l218 868h-2q-64 -94 -238 -94l8 31q105 0 164 36.5t94 124.5h31z" />
    <glyph glyph-name="twoinferior" unicode="&#x2082;" horiz-adv-x="778" 
d="M397 629q112 0 178 -62.5t66 -165.5q0 -111 -78.5 -190.5t-281.5 -169.5q-99 -43 -166.5 -85t-108.5 -87t-63 -88t-37 -100h586l-9 -33h-616q28 151 116.5 245.5t284.5 178.5q194 85 266 155.5t72 171.5q0 92 -55 144.5t-154 52.5q-113 0 -192 -64.5t-115 -177.5h-35
q37 129 127 202t215 73z" />
    <glyph glyph-name="threeinferior" unicode="&#x2083;" horiz-adv-x="776" 
d="M358 629q126 0 198.5 -62t72.5 -164q0 -91 -66 -165t-190 -99v-2q159 -48 159 -209q0 -50 -24 -101.5t-67 -95t-112.5 -71t-152.5 -27.5q-129 0 -197.5 57t-68.5 158q0 31 8 62h33q-6 -30 -6 -60q0 -88 58.5 -136t172.5 -48q76 0 139.5 24.5t102 63t59.5 84t21 90.5
q0 95 -60.5 146t-173.5 51h-63l8 33h59q83 0 148.5 23t103.5 60t57 78.5t19 83.5q0 89 -63.5 141t-174.5 52q-107 0 -185 -63t-107 -177h-33q30 128 117.5 200.5t207.5 72.5z" />
    <glyph glyph-name="fourinferior" unicode="&#x2084;" horiz-adv-x="745" 
d="M578 -61h-199l-74 -291h-33l74 291h-471l10 41l611 634h51l-160 -643h199zM-78 -29h432l39 158l111 444h-2l-385 -399z" />
    <glyph glyph-name="fiveinferior" unicode="&#x2085;" horiz-adv-x="768" 
d="M653 582h-460l-152 -432h2q90 118 248 118q118 0 184 -70t66 -192q0 -49 -15 -101t-46.5 -100.5t-74.5 -87t-105 -61.5t-132 -23q-114 0 -178 54t-64 149q0 33 8 60h33q-8 -27 -8 -60q0 -82 54.5 -126t154.5 -44q80 0 147 32.5t108 84t63 110t22 113.5q0 108 -56.5 169
t-160.5 61q-185 0 -287 -185l-31 2l197 561h492z" />
    <glyph glyph-name="sixinferior" unicode="&#x2086;" horiz-adv-x="776" 
d="M418 629q116 0 175.5 -56.5t59.5 -158.5v-25h-35v23q0 184 -198 184q-134 0 -247 -132t-171 -386h2q41 84 124.5 139t182.5 55q119 0 185.5 -75t66.5 -205q0 -45 -14.5 -94t-44.5 -96t-71 -85t-99.5 -61t-124.5 -23q-126 0 -191 71t-65 210q0 67 14 144t39.5 157.5
t66.5 154.5t90.5 132t116 92.5t138.5 34.5zM309 240q-74 0 -137 -31t-102.5 -80t-61.5 -107t-22 -114q0 -242 223 -242q75 0 138 32t101 82t59 105.5t21 106.5q0 115 -58 181.5t-161 66.5z" />
    <glyph glyph-name="seveninferior" unicode="&#x2087;" horiz-adv-x="677" 
d="M678 614l-8 -32q-188 -199 -346 -420.5t-299 -513.5h-37q147 302 303 523t336 411h-592l8 32h635z" />
    <glyph glyph-name="eightinferior" unicode="&#x2088;" horiz-adv-x="784" 
d="M393 629q114 0 183 -62.5t69 -163.5q0 -93 -68.5 -167t-187.5 -95v-2q74 -26 117 -81t43 -134q0 -50 -23 -100.5t-65 -93.5t-110.5 -70t-149.5 -27q-127 0 -201 65.5t-74 176.5q0 98 75.5 179t205.5 100v2q-66 21 -105 72.5t-39 123.5q0 46 22.5 94.5t63 89.5t104.5 67
t140 26zM393 596q-69 0 -127 -23.5t-93.5 -60t-55 -79t-19.5 -83.5q0 -86 59 -137t165 -51q71 0 128.5 22.5t91.5 58.5t52 77.5t18 82.5q0 88 -59.5 140.5t-159.5 52.5zM276 131q-74 0 -135.5 -23.5t-100.5 -61t-60 -82t-21 -89.5q0 -97 65 -153t177 -56q75 0 137 24.5
t99.5 63.5t58 83.5t20.5 88.5q0 90 -66 147.5t-174 57.5z" />
    <glyph glyph-name="nineinferior" unicode="&#x2089;" horiz-adv-x="778" 
d="M166 -367q-116 0 -176 56.5t-60 158.5v25h35v-23q0 -184 199 -184q134 0 247 132t171 386h-2q-41 -84 -125 -139t-183 -55q-119 0 -185.5 75t-66.5 205q0 57 24 118.5t67 116t112.5 89.5t151.5 35q126 0 191 -71t65 -210q0 -67 -14 -144t-39.5 -157.5t-66.5 -154.5
t-90.5 -132t-116 -92.5t-138.5 -34.5zM274 23q74 0 137.5 31t103 79.5t61.5 106.5t22 114q0 242 -223 242q-61 0 -114 -21.5t-90 -55.5t-64 -77.5t-39.5 -87.5t-12.5 -84q0 -115 58 -181t161 -66z" />
    <glyph glyph-name="plusinferior" unicode="&#x208a;" horiz-adv-x="831" 
d="M432 119h291v-33h-291v-283h-33v283h-290v33h290v282h33v-282z" />
    <glyph glyph-name="minusinferior" unicode="&#x208b;" horiz-adv-x="831" 
d="M723 86h-614v33h614v-33z" />
    <glyph glyph-name="equalinferior" unicode="&#x208c;" horiz-adv-x="831" 
d="M723 178h-614v33h614v-33zM723 -6h-614v33h614v-33z" />
    <glyph glyph-name="parenleftinferior" unicode="&#x208d;" horiz-adv-x="344" 
d="M309 711h39q-185 -202 -280 -436t-95 -451q0 -188 58 -387h-31q-59 186 -59 387q0 222 93 456t275 431z" />
    <glyph glyph-name="parenrightinferior" unicode="&#x208e;" horiz-adv-x="344" 
d="M-188 -563h-39q185 201 279.5 435.5t94.5 451.5q0 191 -57 387h31q59 -186 59 -387q0 -222 -93 -456t-275 -431z" />
    <glyph glyph-name="franc" unicode="&#x20a3;" 
d="M455 1348l-142 -570h666l-8 -33h-666l-94 -378h375l-8 -33h-375l-84 -334h-33l84 334h-152l9 33h151l252 1013h737l-8 -32h-704z" />
    <glyph glyph-name="lira" unicode="&#x20a4;" 
d="M793 1401q137 0 209.5 -73.5t72.5 -207.5q0 -56 -14 -116h-33q14 60 14 116q0 121 -62.5 184.5t-186.5 63.5q-130 0 -223 -85.5t-134 -246.5l-88 -356h277l-9 -33h-276l-82 -323q-63 -247 -225 -295v-2q86 6 268 6h520l-8 -33h-893l8 33q109 0 186 75.5t113 223.5l80 315
h-227l8 33h227l91 364q42 173 144 265t243 92z" />
    <glyph glyph-name="peseta" unicode="&#x20a7;" horiz-adv-x="1525" 
d="M1356 1008l-195 -775q-14 -57 -14 -100q0 -55 28.5 -79.5t90.5 -24.5q37 0 73 8l-8 -35q-24 -6 -65 -6q-152 0 -152 137q0 46 16 109l193 766h-190q-4 -56 -24.5 -111t-60.5 -107.5t-94 -92t-132.5 -63.5t-170.5 -24h-383l-149 -610h-33l342 1380h317q193 0 289.5 -91
t98.5 -249h198l60 240h32l-59 -240h215l-8 -32h-215zM276 643h375q90 0 166.5 24.5t127.5 64.5t87 92t52 105t16 105q0 147 -87.5 230.5t-267.5 83.5h-292z" />
    <glyph glyph-name="euro" unicode="&#x20ac;" 
d="M760 1401q165 0 249.5 -89t84.5 -263q0 -26 -4 -76h-33q4 50 4 76q0 319 -301 319q-109 0 -203 -48t-162 -131t-116 -180t-80 -210h583l-14 -33h-578q-18 -70 -32 -164h540l-14 -33h-530q-7 -75 -7 -120q0 -220 79 -328.5t241 -108.5q313 0 453 367h32
q-73 -198 -196 -298.5t-289 -100.5q-352 0 -352 469q0 55 6 120h-107l15 33h96q13 84 33 164h-95l15 33h88q26 94 62.5 178.5t90 163t117 135.5t147.5 91t177 34z" />
    <glyph glyph-name="rupeeIndian" unicode="&#x20b9;" 
d="M1163 1348h-237q-185 0 -269 6v-2q98 -24 151.5 -85.5t61.5 -152.5h246l-20 -33h-224v-4q0 -67 -30.5 -131t-89 -119.5t-156 -92.5t-219.5 -44v-2q82 -29 128.5 -94.5t76.5 -187.5l100 -406h-33l-96 389q-38 155 -104 223t-179 68h-49l8 33h62q140 0 249.5 34t172.5 88.5
t95 116.5t32 125v4h-645l20 33h623q-24 234 -349 234h-227l21 32h901z" />
    <glyph glyph-name="liraTurkish" unicode="&#x20ba;" 
d="M950 631h33q-61 -312 -273 -473.5t-546 -161.5h-41l176 702l-231 -110l10 41l231 110l56 226l-232 -111l10 41l232 111l94 374h33l-90 -360l395 188l-10 -41l-396 -188l-57 -225l395 188l-10 -41l-395 -188l-170 -684q319 0 524.5 154t261.5 448z" />
    <glyph glyph-name="uni20BC" unicode="&#x20bc;" horiz-adv-x="1187" 
d="M844 1458l-68 -270q181 -12 267.5 -102.5t86.5 -284.5q0 -105 -43 -279l-131 -522h-32l133 530q41 161 41 271q0 182 -79 262.5t-251 91.5l-287 -1155h-32l286 1157h-22h-2q-160 -2 -260.5 -51t-168.5 -163t-120 -322l-156 -621h-33l158 629q40 161 88.5 266t118.5 171.5
t158.5 94t214.5 29.5h2h30l68 268h33z" />
    <glyph glyph-name="ruble" unicode="&#x20bd;" 
d="M408 1380h311q184 0 275 -86.5t91 -238.5q0 -70 -27.5 -139t-80.5 -130t-144 -99t-204 -38h-371l-57 -227h438l-8 -33h-438l-97 -389h-33l97 389h-170l8 33h170l57 227h-170l8 33h170zM432 1348l-166 -666h363q107 1 191.5 36.5t133.5 91.5t74 119t25 126
q0 138 -81.5 215.5t-252.5 77.5h-287z" />
    <glyph glyph-name="literSign" unicode="&#x2113;" horiz-adv-x="886" 
d="M285 424l-41 -162q-17 -79 -17 -106q0 -76 34 -108t110 -32q41 0 92 15l-8 -37q-42 -10 -84 -10q-89 0 -132.5 42t-43.5 130q0 40 18 114l37 152l-31 -2q-53 0 -98 10l8 33q45 -10 90 -10q27 0 39 2l154 612q46 188 100 261t135 73q69 0 110.5 -58t41.5 -178
q0 -109 -34.5 -229t-97 -228.5t-163 -187t-219.5 -96.5zM442 1059l-149 -600q110 20 202.5 96t150 180t89 216.5t31.5 213.5q0 203 -119 203q-69 0 -115.5 -67t-89.5 -242z" />
    <glyph glyph-name="published" unicode="&#x2117;" horiz-adv-x="1683" 
d="M842 1479q216 0 381.5 -93.5t256.5 -264t91 -392.5t-91 -392.5t-256.5 -263.5t-381.5 -93t-381.5 93t-256.5 263.5t-91 392.5t91 392.5t256.5 264t381.5 93.5zM842 1446q-314 0 -505.5 -197.5t-191.5 -519.5t191.5 -519.5t505.5 -197.5q313 0 504.5 197t191.5 520
t-191.5 520t-504.5 197zM575 1225h336q156 0 238 -75.5t82 -199.5q0 -123 -82 -198.5t-238 -75.5h-303v-471h-33v1020zM608 1192v-483h303q142 0 214.5 66t72.5 175t-72.5 175.5t-214.5 66.5h-303z" />
    <glyph glyph-name="trademark" unicode="&#x2122;" horiz-adv-x="1484" 
d="M809 1425h-270l-174 -696h-33l174 696h-270l8 33h573zM1427 729h-32l98 389l74 301h-2l-97.5 -149.5t-105.5 -159.5l-252 -381h-43l-59 381q-17 112 -52 309h-2l-73 -301l-99 -389h-32l182 729h51l64 -401q15 -104 47 -291h2l190 291l264 401h60z" />
    <glyph glyph-name="Ohm" unicode="&#x2126;" horiz-adv-x="1462" 
d="M913 1479q241 0 379 -122.5t138 -359.5q0 -173 -73 -338.5t-203 -314t-331 -309.5v-2h422l-8 -33h-471l8 33q318 257 470.5 485t152.5 479q0 223 -128 336t-356 113q-136 0 -253 -46t-198.5 -123.5t-139.5 -178.5t-85.5 -210t-27.5 -220q0 -169 57 -318.5t164 -316.5
l-8 -33h-455l8 33h418v2q-105 161 -161 312.5t-56 320.5q0 116 29 230.5t90 219.5t146.5 185t207.5 128t264 48z" />
    <glyph glyph-name="estimated" unicode="&#x212e;" horiz-adv-x="1753" 
d="M877 1401q180 0 329 -59t246 -160.5t150 -234t53 -281.5h-1243q-12 0 -19.5 -8t-7.5 -17v-340q0 -59 31 -88q189 -186 461 -186q147 0 274.5 60.5t212.5 162.5h139q-37 -52 -91.5 -98t-130.5 -87.5t-180.5 -65.5t-223.5 -24q-174 0 -321 53.5t-247.5 147t-156.5 224.5
t-56 284q0 151 54.5 282t153.5 227.5t247 152t326 55.5zM877 1348q-270 0 -461 -191q-31 -29 -31 -82v-340q0 -24 27 -24h925q27 0 27 24v340q0 30 -6 48t-25 34q-194 191 -456 191z" />
    <glyph glyph-name="oneeighth" unicode="&#x215b;" horiz-adv-x="1271" 
d="M-25 0h-36l1151 1380h36zM246 553h-33l182 731h-2q-61 -74 -203 -74l9 33q91 0 140.5 31t80.5 106h33zM989 842q99 0 159 -53.5t60 -141.5q0 -80 -57 -142.5t-158 -82.5v-2q62 -21 97.5 -68t35.5 -116q0 -43 -19.5 -86t-55.5 -79.5t-94.5 -59.5t-129.5 -23
q-109 0 -174 57t-65 152q0 82 64 150.5t175 86.5v2q-55 19 -87.5 62.5t-32.5 105.5q0 87 78 162.5t204 75.5zM989 809q-113 0 -180.5 -65.5t-67.5 -141.5q0 -72 49.5 -115t137.5 -43q118 0 183 63t65 138t-50.5 119.5t-136.5 44.5zM889 412q-121 0 -194.5 -67t-73.5 -148
q0 -82 55.5 -129.5t150.5 -47.5q123 0 195 69t72 149q0 77 -56 125.5t-149 48.5z" />
    <glyph glyph-name="threeeighths" unicode="&#x215c;" horiz-adv-x="1556" 
d="M506 1395q108 0 170.5 -53t62.5 -142q0 -76 -57 -139.5t-162 -87.5v-2q135 -42 135 -178q0 -45 -20 -89t-57 -80.5t-96.5 -59.5t-131.5 -23q-112 0 -171.5 50t-59.5 138q0 25 6 49h33q-6 -24 -6 -49q0 -74 51 -115t147 -41q126 0 199.5 67.5t73.5 152.5q0 79 -52.5 122
t-148.5 43h-53l8 33h49q71 0 127 19.5t88.5 51.5t49 67t16.5 71q0 74 -53.5 118t-147.5 44t-161.5 -53t-88.5 -150h-33q26 115 101 175.5t182 60.5zM260 0h-37l1151 1380h37zM1274 842q99 0 159 -53.5t60 -141.5q0 -80 -57 -142.5t-158 -82.5v-2q62 -21 97.5 -68t35.5 -116
q0 -43 -19.5 -86t-55.5 -79.5t-94.5 -59.5t-129.5 -23q-109 0 -174.5 57t-65.5 152q0 82 64.5 150.5t175.5 86.5v2q-56 19 -88.5 63t-32.5 105q0 87 78.5 162.5t204.5 75.5zM1274 809q-113 0 -180.5 -65.5t-67.5 -141.5q0 -72 49 -115t137 -43q118 0 183 63t65 138
t-50 119.5t-136 44.5zM1174 412q-121 0 -195 -67t-74 -148q0 -82 56 -129.5t151 -47.5q123 0 194.5 69t71.5 149q0 77 -55.5 125.5t-148.5 48.5z" />
    <glyph glyph-name="fiveeighths" unicode="&#x215d;" horiz-adv-x="1550" 
d="M756 1348h-396l-124 -359h2q76 96 206 96q103 0 161.5 -60.5t58.5 -164.5q0 -54 -21.5 -109t-60.5 -102.5t-102.5 -77.5t-139.5 -30q-98 0 -153.5 46.5t-55.5 129.5q0 22 6 49h33q-6 -27 -6 -49q0 -69 45.5 -106.5t130.5 -37.5q69 0 126.5 27.5t92 71t53.5 92.5t19 96
q0 90 -49 141.5t-138 51.5q-158 0 -241 -156l-31 2l168 481h424zM254 0h-37l1151 1380h37zM1268 842q99 0 159 -53.5t60 -141.5q0 -80 -57 -142.5t-158 -82.5v-2q62 -21 97.5 -68t35.5 -116q0 -43 -19.5 -86t-55.5 -79.5t-94.5 -59.5t-129.5 -23q-109 0 -174.5 57t-65.5 152
q0 82 64.5 150.5t175.5 86.5v2q-56 19 -88.5 63t-32.5 105q0 87 78.5 162.5t204.5 75.5zM1268 809q-113 0 -180.5 -65.5t-67.5 -141.5q0 -72 49 -115t137 -43q118 0 183 63t65 138t-50 119.5t-136 44.5zM1167 412q-121 0 -194.5 -67t-73.5 -148q0 -82 56 -129.5t151 -47.5
q123 0 194.5 69t71.5 149q0 77 -56 125.5t-149 48.5z" />
    <glyph glyph-name="seveneighths" unicode="&#x215e;" horiz-adv-x="1370" 
d="M74 0h-37l1151 1380h37zM778 1380l-8 -30q-342 -365 -549 -797h-37q125 257 257.5 445.5t283.5 349.5h-502l8 32h547zM1087 842q100 0 160 -53.5t60 -141.5q0 -80 -57 -142.5t-158 -82.5v-2q62 -21 97.5 -68t35.5 -116q0 -43 -19.5 -86t-55.5 -79.5t-94.5 -59.5
t-129.5 -23q-109 0 -174.5 57t-65.5 152q0 82 64.5 150.5t175.5 86.5v2q-56 19 -88.5 63t-32.5 105q0 87 78 162.5t204 75.5zM1087 809q-113 0 -180 -65.5t-67 -141.5q0 -72 49 -115t137 -43q118 0 183 63t65 138t-50.5 119.5t-136.5 44.5zM987 412q-121 0 -194.5 -67
t-73.5 -148q0 -82 56 -129.5t151 -47.5q123 0 194.5 69t71.5 149q0 77 -56 125.5t-149 48.5z" />
    <glyph glyph-name="partialdiff" unicode="&#x2202;" horiz-adv-x="1159" 
d="M700 1479q183 0 276 -128t93 -362q0 -99 -17.5 -209t-51.5 -223.5t-89 -216.5t-124 -183.5t-163 -128.5t-200 -48q-166 0 -250 92.5t-84 259.5q0 73 18.5 155t60.5 167.5t101 153.5t148 111.5t194 43.5q76 0 137.5 -24t100.5 -64t65 -90.5t35.5 -105.5t8 -107t-14.5 -97
h2q39 121 64.5 264.5t25.5 249.5q0 220 -84 338.5t-252 118.5q-132 0 -219 -79.5t-127 -221.5h-32q43 155 139 244.5t239 89.5zM614 930q-84 0 -157 -29t-125.5 -78.5t-93.5 -111t-65.5 -129t-37 -131t-12.5 -119.5q0 -152 75 -236t226 -84q80 0 153 29.5t127.5 77.5
t98.5 108t71.5 123.5t42.5 120.5t15 102q0 163 -85 260t-233 97z" />
    <glyph glyph-name="increment" unicode="&#x2206;" horiz-adv-x="1296" 
d="M1155 0h-1272l977 1458h45zM1116 33l-127 745q-95 562 -110 647h-2q-81 -121 -238 -354.5t-197 -292.5l-499 -745h1173z" />
    <glyph glyph-name="product" unicode="&#x220f;" horiz-adv-x="1280" 
d="M1065 -246h-33v1671h-784v-1671h-33v1704h850v-1704z" />
    <glyph glyph-name="summation" unicode="&#x2211;" horiz-adv-x="911" 
d="M840 1425h-731l491 -829l-491 -809h731v-33h-768v33l491 809l-491 829v33h768v-33z" />
    <glyph glyph-name="minus" unicode="&#x2212;" horiz-adv-x="1159" 
d="M1006 633h-852v33h852v-33z" />
    <glyph glyph-name="divisionslash" unicode="&#x2215;" horiz-adv-x="808" 
d="M-205 -182h-39l1030 1708h39z" />
    <glyph glyph-name="bulletoperator" unicode="&#x2219;" horiz-adv-x="520" 
d="M279 553h-37v147h37v-147z" />
    <glyph glyph-name="radical" unicode="&#x221a;" horiz-adv-x="989" 
d="M461 -246h-33l-213 901h-164v33h189l204 -860h5l464 1630h35z" />
    <glyph glyph-name="infinity" unicode="&#x221e;" horiz-adv-x="1122" 
d="M866 874q100 0 163 -67.5t63 -175.5q0 -109 -63 -176.5t-163 -67.5q-43 0 -82.5 13t-67.5 30.5t-58.5 50t-49.5 57.5t-47 66q-28 -41 -47 -66t-49.5 -57.5t-58.5 -50t-67.5 -30.5t-82.5 -13q-100 0 -162.5 67.5t-62.5 176.5t62.5 176t162.5 67q43 0 82.5 -13t67.5 -30.5
t58.5 -50t49.5 -57.5t47 -66q28 41 47 66t49.5 57.5t58.5 50t67.5 30.5t82.5 13zM256 420q49 0 90.5 16t78 50t60.5 64.5t58 80.5q-34 50 -58 80.5t-60.5 64.5t-78 50t-90.5 16q-86 0 -139.5 -58t-53.5 -153t53.5 -153t139.5 -58zM866 420q86 0 139.5 58t53.5 153t-53.5 153
t-139.5 58q-40 0 -76 -12.5t-62 -29.5t-55 -48.5t-47.5 -56t-45.5 -64.5q27 -40 45.5 -64.5t47.5 -56t55 -48.5t62 -29.5t76 -12.5z" />
    <glyph glyph-name="integral" unicode="&#x222b;" horiz-adv-x="540" 
d="M457 1464q29 0 53 -6v-33q-24 7 -53 7q-170 0 -170 -215v-1354q0 -123 -52 -185.5t-151 -62.5q-29 0 -53 6v33q21 -6 53 -6q170 0 170 215v1354q0 247 203 247z" />
    <glyph glyph-name="approxequal" unicode="&#x2248;" horiz-adv-x="1159" 
d="M362 946q54 0 102.5 -24t85.5 -58t73 -67.5t80.5 -57.5t93.5 -24q81 0 128.5 56t47.5 149h33q0 -106 -57 -172t-152 -66q-54 0 -102 24t-85 58t-73 67.5t-81 57.5t-94 24q-81 0 -128.5 -55.5t-47.5 -148.5h-32q0 106 56.5 171.5t151.5 65.5zM362 616q54 0 102.5 -24
t85.5 -58t73 -67.5t80.5 -57.5t93.5 -24q81 0 128.5 56t47.5 149h33q0 -106 -57 -172t-152 -66q-54 0 -102 24t-85 58t-73 68t-81 58t-94 24q-81 0 -128.5 -56t-47.5 -149h-32q0 106 56.5 171.5t151.5 65.5z" />
    <glyph glyph-name="notequal" unicode="&#x2260;" horiz-adv-x="1159" 
d="M682 760l-164 -223h488v-33h-510l-222 -303h-38l219 303h-301v33h325l162 223h-487v33h512l219 303h41l-221 -303h301v-33h-324z" />
    <glyph glyph-name="lessequal" unicode="&#x2264;" horiz-adv-x="1159" 
d="M1006 1026l-820 -375v-4l820 -375v-36l-852 391v45l852 391v-37zM1006 33v-33h-852v33h852z" />
    <glyph glyph-name="greaterequal" unicode="&#x2265;" horiz-adv-x="1159" 
d="M1006 672v-45l-852 -391v36l819 375v4l-819 375v37zM1006 0h-852v33h852v-33z" />
    <glyph glyph-name="lozenge" unicode="&#x25ca;" horiz-adv-x="1089" 
d="M1008 729l-445 -729h-37l-444 729l444 729h37zM119 729l426 -698l426 698l-426 698z" />
    <glyph glyph-name="apple" unicode="&#xf8ff;" horiz-adv-x="1228" 
d="M307 1591h574q114 0 179.5 -65.5t65.5 -179.5v-1233q0 -114 -65.5 -180t-179.5 -66h-574q-114 0 -180 66t-66 180v1233q0 114 66 179.5t180 65.5zM881 1559h-574q-98 0 -155.5 -57.5t-57.5 -155.5v-1233q0 -98 57.5 -155.5t155.5 -57.5h574q98 0 155.5 57.5t57.5 155.5
v1233q0 98 -57.5 155.5t-155.5 57.5zM588 1317q139 0 229 -79.5t90 -203.5q0 -86 -37 -147t-147 -156q-71 -61 -102.5 -104t-45.5 -102.5t-14 -164.5h-26v35q0 135 32 204t133 155q105 91 139.5 147t34.5 133q0 110 -80.5 180t-205.5 70q-130 0 -208 -72t-87 -206h-33
q10 149 97 230t231 81zM565 133h-37v117h37v-117z" />
    <glyph glyph-name="ff" unicode="&#xfb00;" horiz-adv-x="962" 
d="M1106 1464q33 0 57 -8l-8 -31q-25 7 -49 7q-170 0 -227 -224l-41 -168h219l-8 -32h-220l-251 -1008h-33l252 1008h-414l-252 -1008h-33l252 1008h-198l8 32h198l43 177q61 247 258 247q34 0 58 -8l-8 -31q-25 7 -50 7q-170 0 -227 -224l-41 -168h414l43 177
q61 247 258 247z" />
    <glyph glyph-name="fi" unicode="&#xfb01;" horiz-adv-x="921" 
d="M383 1008l-252 -1008h-33l252 1008h-198l8 32h198l43 177q61 247 258 247q34 0 58 -8l-8 -31q-25 7 -50 7q-170 0 -227 -224l-41 -168h219l-8 -32h-219zM969 1458l-39 -158h-33l39 158h33zM831 1040h33l-258 -1040h-33z" />
    <glyph glyph-name="fl" unicode="&#xfb02;" horiz-adv-x="921" 
d="M383 1008l-252 -1008h-33l252 1008h-198l8 32h198l43 177q61 247 258 247q34 0 58 -8l-8 -31q-25 7 -50 7q-170 0 -227 -224l-41 -168h219l-8 -32h-219zM969 1458l-363 -1458h-33l363 1458h33z" />
    <glyph glyph-name="ffi" unicode="&#xfb03;" horiz-adv-x="1368" 
d="M829 1008l-251 -1008h-33l252 1008h-414l-252 -1008h-33l252 1008h-198l8 32h198l43 177q61 247 258 247q34 0 58 -8l-8 -31q-25 7 -50 7q-170 0 -227 -224l-41 -168h414l43 177q61 247 258 247q33 0 57 -8l-8 -31q-25 7 -49 7q-170 0 -227 -224l-41 -168h219l-8 -32
h-220zM1415 1458l-39 -158h-33l39 158h33zM1278 1040h33l-258 -1040h-33z" />
    <glyph glyph-name="ffl" unicode="&#xfb04;" horiz-adv-x="1368" 
d="M829 1008l-251 -1008h-33l252 1008h-414l-252 -1008h-33l252 1008h-198l8 32h198l43 177q61 247 258 247q34 0 58 -8l-8 -31q-25 7 -50 7q-170 0 -227 -224l-41 -168h414l43 177q61 247 258 247q33 0 57 -8l-8 -31q-25 7 -49 7q-170 0 -227 -224l-41 -168h219l-8 -32
h-220zM1415 1458l-362 -1458h-33l362 1458h33z" />
    <glyph glyph-name="uniFEFF" unicode="&#xfeff;" horiz-adv-x="0" 
 />
    <glyph glyph-name="NULL" horiz-adv-x="0" 
 />
    <glyph glyph-name="J.acute.loclNLD" horiz-adv-x="620" 
d="M608 1593h-39l258 283h47zM649 1458l-278 -1116q-42 -171 -142 -260.5t-241 -89.5q-46 0 -86 12l8 31q38 -10 78 -10q131 0 222 82t130 243l276 1108h33z" />
    <glyph glyph-name="Ccedilla.ss01" horiz-adv-x="1353" 
d="M897 1479q145 0 246.5 -61.5t148.5 -162t47 -229.5q0 -24 -4 -74h-32q4 50 4 74q0 186 -104.5 303t-303.5 117q-116 0 -220 -39.5t-182.5 -107.5t-142.5 -158t-104.5 -192t-62 -207.5t-21.5 -206.5q0 -240 117.5 -381.5t330.5 -141.5q202 0 360 120.5t224 311.5h35
q-70 -208 -237 -336t-382 -128q-227 0 -354 150.5t-127 406.5q0 127 31 258.5t95.5 254t153.5 218t215 153.5t269 58zM305 -424h-49l334 324h41z" />
    <glyph glyph-name="Scedilla.ss01" horiz-adv-x="1179" 
d="M758 1479q401 0 401 -342q0 -65 -18 -144h-33q18 79 18 144q0 157 -90.5 233t-277.5 76q-89 0 -164 -23.5t-126 -62.5t-87.5 -88.5t-53 -101t-16.5 -101.5q0 -63 20 -110t64.5 -82.5t100.5 -62t143 -54.5q98 -32 157.5 -58.5t111.5 -67t75 -96t23 -132.5
q0 -62 -19.5 -122t-61 -115.5t-100.5 -97t-144.5 -66.5t-186.5 -25q-416 0 -416 356q0 70 20 151h33q-20 -81 -20 -151q0 -165 95.5 -244.5t287.5 -79.5q98 0 180 24t136 63.5t92 91.5t54.5 106t16.5 109q0 49 -10 88t-33 69.5t-49 52.5t-71.5 43.5t-85 36t-103.5 35.5
q-179 59 -260.5 133.5t-81.5 204.5q0 72 31.5 143t89 131.5t151.5 98t207 37.5zM197 -424h-50l334 324h41z" />
    <glyph glyph-name="Tcedilla.ss01" horiz-adv-x="1163" 
d="M1378 1425h-555l-354 -1425h-33l355 1425h-555l8 33h1142zM178 -424h-49l334 324h41z" />
    <glyph glyph-name="idotaccent" horiz-adv-x="405" 
d="M414 1300h-33l39 158h33zM90 0h-33l258 1040h33z" />
    <glyph glyph-name="j.acute.loclNLD" horiz-adv-x="428" 
d="M330 1176h-39l258 282h47zM371 1040l-283 -1138q-39 -156 -110.5 -220.5t-178.5 -64.5q-26 0 -41 6l9 31q12 -4 32 -4q96 0 159 57t99 203l281 1130h33z" />
    <glyph glyph-name="ccedilla.ss01" horiz-adv-x="1009" 
d="M631 1061q151 0 238 -92t87 -250q0 -19 -2 -31h-32q2 12 2 31q0 143 -78 226t-215 83q-82 0 -156 -29.5t-129 -80.5t-99.5 -117t-72.5 -140t-42.5 -149t-14.5 -145q0 -171 80.5 -263t236.5 -92q139 0 251 85t159 225h35q-51 -155 -172.5 -248.5t-272.5 -93.5
q-170 0 -260 101t-90 286q0 90 22 185.5t68 186.5t109.5 162.5t154 115.5t193.5 44zM139 -424h-49l334 324h41z" />
    <glyph glyph-name="scedilla.ss01" horiz-adv-x="915" 
d="M535 1061q152 0 234.5 -67t82.5 -187q0 -50 -14 -102h-33q14 52 14 102q0 106 -72.5 163.5t-211.5 57.5q-148 0 -234 -77t-86 -185q0 -86 54.5 -129t183.5 -82q164 -47 233.5 -103t69.5 -163q0 -129 -103 -219t-282 -90q-164 0 -250 69.5t-86 198.5q0 53 14 108h33
q-14 -55 -14 -108q0 -115 76 -175.5t227 -60.5q164 0 258 81t94 196q0 94 -64 142.5t-221 94.5q-134 38 -195 90t-61 150q0 122 95 208.5t258 86.5zM63 -424h-49l334 324h41z" />
    <glyph glyph-name="tcedilla.ss01" horiz-adv-x="552" 
d="M383 1008l-195 -775q-14 -57 -14 -100q0 -55 28.5 -79.5t90.5 -24.5q38 0 74 8l-9 -35q-24 -6 -65 -6q-152 0 -152 137q0 42 17 109l192 766h-200l8 32h200l60 240h33l-60 -240h215l-8 -32h-215zM205 -100h41l-326 -324h-49z" />
    <glyph glyph-name="a.sups" horiz-adv-x="733" 
d="M549 1419q106 0 166.5 -53t60.5 -156q0 -39 -14 -94l-70 -280q-23 -107 -26 -160h-33q3 54 31 158h-2q-99 -172 -300 -172q-100 0 -158.5 49t-58.5 133q0 191 291 233q142 21 291 31l4 16q12 50 12 86q0 176 -194 176q-103 0 -170 -54.5t-88 -145.5h-35q24 106 102 169.5
t191 63.5zM694 975l25 100q-105 -8 -279 -31q-262 -38 -262 -198q0 -72 49.5 -112t137.5 -40q124 0 210.5 73.5t118.5 207.5z" />
    <glyph glyph-name="b.sups" horiz-adv-x="804" 
d="M459 1696l-74 -291q-29 -122 -53 -186h2q110 200 297 200q116 0 179.5 -73.5t63.5 -204.5q0 -63 -15 -128.5t-46.5 -128.5t-75 -112.5t-105.5 -79.5t-134 -30q-112 0 -173.5 65.5t-66.5 187.5h-2q-10 -62 -53 -239h-33l256 1020h33zM631 1386q-82 0 -151 -44t-110.5 -112
t-64 -144t-22.5 -146q0 -119 55 -182.5t160 -63.5q82 0 150 43.5t109 111t63 144t22 148.5q0 118 -54.5 181.5t-156.5 63.5z" />
    <glyph glyph-name="c.sups" horiz-adv-x="729" 
d="M580 1419q114 0 179.5 -66t65.5 -177v-21h-32v19q0 99 -56 155.5t-157 56.5q-86 0 -157.5 -43.5t-114.5 -111.5t-66 -144.5t-23 -148.5q0 -118 57 -181t166 -63q96 0 173.5 57.5t109.5 151.5h35q-35 -109 -122 -175t-196 -66q-124 0 -190 72.5t-66 203.5q0 79 26 162
t73 155t124.5 118t170.5 46z" />
    <glyph glyph-name="d.sups" horiz-adv-x="802" 
d="M711 676h-33q29 122 53 186h-2q-110 -200 -297 -200q-116 0 -180 73t-64 203q0 80 25 163t70.5 155t120 117.5t163.5 45.5q110 0 171.5 -66t66.5 -188h2q10 64 53 240l74 291h33zM567 1386q-83 0 -151 -43t-109 -111t-63.5 -144.5t-22.5 -149.5q0 -116 54.5 -180
t156.5 -64q66 0 124 29t98 76t69 106t43 119t14 115q0 119 -54.5 183t-158.5 64z" />
    <glyph glyph-name="e.sups" horiz-adv-x="761" 
d="M821 1042h-592q-10 -65 -10 -106q0 -116 57.5 -179t165.5 -63q101 0 181.5 53.5t115.5 143.5h35q-39 -103 -129 -166t-203 -63q-124 0 -190 72t-66 202q0 80 26.5 163t75 155.5t127.5 118.5t173 46q118 0 185 -68t67 -192q0 -56 -19 -117zM588 1386q-124 0 -218.5 -85.5
t-131.5 -225.5h557q12 43 12 84q0 109 -57.5 168t-161.5 59z" />
    <glyph glyph-name="egrave.sups" horiz-adv-x="761" 
d="M633 1499l-121 197h41l113 -197h-33zM821 1042h-592q-10 -65 -10 -106q0 -116 57.5 -179t165.5 -63q101 0 181.5 53.5t115.5 143.5h35q-39 -103 -129 -166t-203 -63q-124 0 -190 72t-66 202q0 80 26.5 163t75 155.5t127.5 118.5t173 46q118 0 185 -68t67 -192
q0 -56 -19 -117zM588 1386q-124 0 -218.5 -85.5t-131.5 -225.5h557q12 43 12 84q0 109 -57.5 168t-161.5 59z" />
    <glyph glyph-name="f.sups" horiz-adv-x="374" 
d="M602 1702q24 0 45 -6l-8 -33q-15 6 -37 6q-122 0 -160 -151l-28 -113h157l-8 -33h-157l-173 -696h-32l172 696h-140l9 33h139l31 121q47 176 190 176z" />
    <glyph glyph-name="g.sups" horiz-adv-x="802" 
d="M578 1419q104 0 166 -64t63 -181h2q15 81 51 231h33l-172 -694q-37 -151 -126.5 -229.5t-227.5 -78.5q-115 0 -180.5 49t-65.5 136q0 15 4 43h33q-4 -32 -4 -43q0 -73 56.5 -113.5t156.5 -40.5q251 0 323 287q26 101 47 166h-2q-51 -97 -128.5 -150t-172.5 -53
q-117 0 -179 73.5t-62 205.5q0 76 25 154t71 146.5t121.5 112t167.5 43.5zM578 1386q-69 0 -128 -27t-99.5 -71t-69.5 -100t-42.5 -113.5t-13.5 -111.5q0 -118 53 -182t156 -64q67 0 125.5 29t98.5 75t69.5 103t43 114.5t13.5 108.5q0 114 -53.5 176.5t-152.5 62.5z" />
    <glyph glyph-name="h.sups" horiz-adv-x="794" 
d="M348 1262h2q49 74 123 115.5t154 41.5q98 0 153.5 -52.5t55.5 -152.5q0 -39 -17 -112l-106 -426h-33l108 430q15 77 15 108q0 86 -45.5 129t-130.5 43q-106 0 -194.5 -72t-117.5 -186l-112 -452h-33l254 1020h33z" />
    <glyph glyph-name="i.sups" horiz-adv-x="294" 
d="M428 1583h-33l29 113h33zM203 676h-33l180 729h33z" />
    <glyph glyph-name="j.sups" horiz-adv-x="313" 
d="M449 1583h-33l28 113h33zM403 1405l-198 -799q-28 -109 -79.5 -153.5t-129.5 -44.5q-15 0 -35 4l8 30q12 -4 27 -4q67 0 110 39t68 137l197 791h32z" />
    <glyph glyph-name="k.sups" horiz-adv-x="653" 
d="M342 1069l356 -393h-45l-352 387h-2l-96 -387h-33l254 1020h33l-154 -613h2l475 322h58z" />
    <glyph glyph-name="l.sups" horiz-adv-x="294" 
d="M203 676h-33l254 1020h33z" />
    <glyph glyph-name="m.sups" horiz-adv-x="1200" 
d="M1055 1419q91 0 139.5 -48t48.5 -142q0 -48 -16 -117l-109 -436h-33l109 442q16 66 16 111q0 157 -155 157q-96 0 -173.5 -67.5t-105.5 -177.5l-117 -465h-32l116 469q13 67 13 84q0 74 -40 115.5t-116 41.5q-97 0 -177 -72.5t-112 -197.5l-108 -440h-33l182 729h33
q-20 -85 -45 -156h2q42 79 109.5 124.5t148.5 45.5q86 0 135 -49t49 -137q43 88 113.5 137t157.5 49z" />
    <glyph glyph-name="n.sups" horiz-adv-x="794" 
d="M627 1419q98 0 153.5 -52.5t55.5 -152.5q0 -39 -17 -112l-106 -426h-33l108 430q15 77 15 108q0 86 -45.5 129t-130.5 43q-106 0 -194.5 -72t-117.5 -186l-112 -452h-33l182 729h33q-20 -83 -45 -158h2q50 83 125 127.5t160 44.5z" />
    <glyph glyph-name="o.sups" horiz-adv-x="780" 
d="M573 1419q131 0 202 -78t71 -217q0 -62 -15 -125.5t-47 -124t-76 -108t-108 -76t-137 -28.5q-130 0 -201.5 77t-71.5 215q0 62 15 126t47 125t76 108.5t108 76.5t137 29zM573 1386q-68 0 -126.5 -27.5t-99 -72t-69 -101.5t-42 -116t-13.5 -115q0 -125 62 -192.5
t178 -67.5q68 0 126.5 27.5t99 71.5t69 101t42 115.5t13.5 114.5q0 126 -61.5 194t-178.5 68z" />
    <glyph glyph-name="p.sups" horiz-adv-x="802" 
d="M629 1419q116 0 179.5 -73.5t63.5 -204.5q0 -63 -15 -128.5t-46.5 -128.5t-75 -112.5t-105.5 -79.5t-134 -30q-112 0 -173.5 65.5t-66.5 187.5h-2q-10 -62 -53 -239l-66 -264h-33l248 993h33q-29 -122 -53 -186h2q110 200 297 200zM629 1386q-82 0 -151 -44t-110.5 -112
t-64 -144t-22.5 -146q0 -119 55 -182.5t160 -63.5q82 0 150 43.5t109 111t63 144t22 148.5q0 118 -54.5 181.5t-156.5 63.5z" />
    <glyph glyph-name="q.sups" horiz-adv-x="802" 
d="M567 1419q110 0 171.5 -66t66.5 -188h2q10 64 53 240h33l-248 -993h-33l66 264q29 122 53 186h-2q-110 -200 -297 -200q-116 0 -180 73t-64 203q0 80 25 163t70.5 155t120 117.5t163.5 45.5zM567 1386q-83 0 -151 -43t-109 -111t-63.5 -144.5t-22.5 -149.5
q0 -116 54.5 -180t156.5 -64q66 0 124 29t98 76t69 106t43 119t14 115q0 119 -54.5 183t-158.5 64z" />
    <glyph glyph-name="r.sups" horiz-adv-x="473" 
d="M633 1407q31 0 41 -2l-8 -33q-10 2 -41 2q-113 0 -198.5 -72t-121.5 -212l-102 -414h-33l182 729h33q-26 -108 -49 -172h2q102 174 295 174z" />
    <glyph glyph-name="s.sups" horiz-adv-x="661" 
d="M514 1419q112 0 171.5 -47.5t59.5 -134.5q0 -35 -8 -68h-32q8 33 8 68q0 72 -50.5 110.5t-148.5 38.5q-105 0 -165 -51.5t-60 -122.5q0 -59 38 -87.5t132 -55.5q118 -34 169.5 -74t51.5 -118q0 -91 -74.5 -153t-204.5 -62q-121 0 -184 49.5t-63 140.5q0 41 10 72h33
q-11 -34 -11 -72q0 -77 54.5 -117.5t160.5 -40.5q116 0 181 53t65 130q0 65 -45.5 98t-157.5 65q-98 28 -143 63.5t-45 108.5q0 85 69.5 146t188.5 61z" />
    <glyph glyph-name="t.sups" horiz-adv-x="401" 
d="M408 1372l-134 -528q-10 -45 -10 -66q0 -38 20 -55.5t66 -17.5q35 0 53 6l-8 -33q-18 -6 -47 -6q-117 0 -117 106q0 20 13 74l131 520h-144l9 33h143l41 168h33l-41 -168h153l-8 -33h-153z" />
    <glyph glyph-name="u.sups" horiz-adv-x="794" 
d="M428 662q-98 0 -153.5 52t-55.5 152q0 40 17 113l106 426h33l-109 -430q-14 -72 -14 -109q0 -86 45.5 -129t130.5 -43q106 0 194 72t117 186l113 453h33l-183 -729h-32l37 143h-2q-49 -74 -123 -115.5t-154 -41.5z" />
    <glyph glyph-name="v.sups" horiz-adv-x="641" 
d="M383 676h-47l-113 729h33l53 -340q19 -142 56 -356h2q165 254 233 356l221 340h39z" />
    <glyph glyph-name="w.sups" horiz-adv-x="1099" 
d="M879 676h-52l-32 371l-31 327h-2l-195 -327l-217 -371h-51l-66 729h33l33 -348l31 -348h2q122 210 207 352l202 344h52l32 -346q17 -164 33 -350h2l205 348l203 348h37z" />
    <glyph glyph-name="x.sups" horiz-adv-x="657" 
d="M483 1053l207 -377h-37l-194 352h-2l-365 -352h-47l395 381l-188 348h37l176 -324h2l332 324h45z" />
    <glyph glyph-name="y.sups" horiz-adv-x="643" 
d="M860 1405l-493 -741q-102 -154 -168 -206t-150 -52q-42 0 -63 8l8 32q23 -10 55 -10q73 0 132.5 47.5t156.5 192.5l-115 729h33l109 -684h2l456 684h37z" />
    <glyph glyph-name="z.sups" horiz-adv-x="649" 
d="M817 1362l-702 -651v-2h553l-9 -33h-591l10 43l702 651v2h-524l8 33h563z" />
    <glyph glyph-name="a.smcp" horiz-adv-x="1073" 
d="M815 414h-606l-287 -414h-39l776 1122h48l223 -1122h-33zM809 446l-31 150q-12 62 -46.5 234t-51.5 262h-2q-189 -275 -342 -494l-105 -152h578z" />
    <glyph glyph-name="aacute.smcp" horiz-adv-x="1073" 
d="M649 1257h-39l258 283h47zM815 414h-606l-287 -414h-39l776 1122h48l223 -1122h-33zM809 446l-31 150q-12 62 -46.5 234t-51.5 262h-2q-189 -275 -342 -494l-105 -152h578z" />
    <glyph glyph-name="abreve.smcp" horiz-adv-x="1073" 
d="M1038 1540h35q-42 -126 -131.5 -193t-218.5 -67q-119 0 -180.5 57t-61.5 164q0 25 2 39h33q-2 -14 -2 -39q0 -188 209 -188q233 0 315 227zM707 1122l223 -1122h-33l-82 414h-606l-287 -414h-39l776 1122h48zM809 446l-31 150q-12 62 -46.5 234t-51.5 262h-2
q-189 -275 -342 -494l-105 -152h578z" />
    <glyph glyph-name="acircumflex.smcp" horiz-adv-x="1073" 
d="M969 1257h-39l-154 252l-278 -252h-49l313 283h33zM707 1122l223 -1122h-33l-82 414h-606l-287 -414h-39l776 1122h48zM809 446l-31 150q-12 62 -46.5 234t-51.5 262h-2q-189 -275 -342 -494l-105 -152h578z" />
    <glyph glyph-name="adieresis.smcp" horiz-adv-x="1073" 
d="M567 1382h-32l38 158h33zM983 1540l-39 -158h-33l39 158h33zM707 1122l223 -1122h-33l-82 414h-606l-287 -414h-39l776 1122h48zM809 446l-31 150q-12 62 -46.5 234t-51.5 262h-2q-189 -275 -342 -494l-105 -152h578z" />
    <glyph glyph-name="agrave.smcp" horiz-adv-x="1073" 
d="M778 1257l-135 283h39l127 -283h-31zM815 414h-606l-287 -414h-39l776 1122h48l223 -1122h-33zM809 446l-31 150q-12 62 -46.5 234t-51.5 262h-2q-189 -275 -342 -494l-105 -152h578z" />
    <glyph glyph-name="amacron.smcp" horiz-adv-x="1073" 
d="M985 1442l-8 -33h-463l8 33h463zM707 1122l223 -1122h-33l-82 414h-606l-287 -414h-39l776 1122h48zM809 446l-31 150q-12 62 -46.5 234t-51.5 262h-2q-189 -275 -342 -494l-105 -152h578z" />
    <glyph glyph-name="aogonek.smcp" horiz-adv-x="1073" 
d="M694 -274q0 -41 21 -60.5t67 -19.5q38 0 68 10l-8 -35q-32 -8 -60 -8q-120 0 -120 113q0 68 52 133.5t181 152.5l-80 402h-606l-287 -414h-39l776 1122h48l223 -1122q-136 -90 -186 -153t-50 -121zM809 446l-31 150q-12 62 -46.5 234t-51.5 262h-2q-189 -275 -342 -494
l-105 -152h578z" />
    <glyph glyph-name="aring.smcp" horiz-adv-x="1073" 
d="M739 1296q-71 0 -121.5 50t-50.5 122q0 70 50.5 121t121.5 51t121.5 -51t50.5 -121q0 -72 -50.5 -122t-121.5 -50zM739 1608q-58 0 -98.5 -40.5t-40.5 -99.5q0 -58 40 -98.5t99 -40.5t99.5 40.5t40.5 98.5t-40.5 99t-99.5 41zM815 414h-606l-287 -414h-39l776 1122h48
l223 -1122h-33zM809 446l-31 150q-12 62 -46.5 234t-51.5 262h-2q-189 -275 -342 -494l-105 -152h578z" />
    <glyph glyph-name="atilde.smcp" horiz-adv-x="1073" 
d="M1034 1520h35q-26 -81 -73.5 -123.5t-106.5 -42.5q-42 0 -80 21t-61.5 45.5t-58.5 45.5t-73 21q-99 0 -143 -133h-35q26 81 73.5 123.5t106.5 42.5q35 0 65.5 -14t53.5 -33.5t45 -39t50 -33.5t59 -14q99 0 143 134zM707 1122l223 -1122h-33l-82 414h-606l-287 -414h-39
l776 1122h48zM809 446l-31 150q-12 62 -46.5 234t-51.5 262h-2q-189 -275 -342 -494l-105 -152h578z" />
    <glyph glyph-name="ae.smcp" horiz-adv-x="1536" 
d="M862 1090l-39 -496h570l-9 -33h-565l-39 -528h525l-9 -33h-553l35 442h-512l-362 -442h-43l919 1122h772l-8 -32h-682zM829 1090h-32l-504 -615h487z" />
    <glyph glyph-name="b.smcp" horiz-adv-x="1036" 
d="M332 1122h346q141 0 210.5 -65t69.5 -183q0 -47 -19 -95t-55.5 -91t-98.5 -74t-140 -39v-2q95 -15 150 -78t55 -163q0 -57 -23 -114t-67.5 -106.5t-120.5 -80.5t-170 -31h-416zM356 1090l-123 -498h297q107 0 188.5 28t124 72t63 90t20.5 92q0 216 -248 216h-322z
M225 559l-131 -526h375q88 0 157.5 28t109.5 73.5t60.5 96t20.5 101.5q0 105 -71 166t-216 61h-305z" />
    <glyph glyph-name="c.smcp" horiz-adv-x="1132" 
d="M709 1143q179 0 273.5 -93.5t94.5 -242.5q0 -35 -6 -70h-33q6 37 6 70q0 136 -85 219.5t-250 83.5q-111 0 -208.5 -43.5t-166 -114.5t-118 -161t-73.5 -183.5t-24 -181.5q0 -195 93.5 -304.5t266.5 -109.5q168 0 298 91.5t184 236.5h34q-58 -162 -196.5 -261t-319.5 -99
q-187 0 -290 118.5t-103 327.5q0 77 18.5 159t53 162.5t89 151.5t121.5 125.5t155 86.5t186 32z" />
    <glyph glyph-name="cacute.smcp" horiz-adv-x="1132" 
d="M674 1257h-39l258 283h47zM709 1143q179 0 273.5 -93.5t94.5 -242.5q0 -35 -6 -70h-33q6 37 6 70q0 136 -85 219.5t-250 83.5q-111 0 -208.5 -43.5t-166 -114.5t-118 -161t-73.5 -183.5t-24 -181.5q0 -195 93.5 -304.5t266.5 -109.5q168 0 298 91.5t184 236.5h34
q-58 -162 -196.5 -261t-319.5 -99q-187 0 -290 118.5t-103 327.5q0 77 18.5 159t53 162.5t89 151.5t121.5 125.5t155 86.5t186 32z" />
    <glyph glyph-name="ccaron.smcp" horiz-adv-x="1132" 
d="M750 1257h-33l-174 283h39l153 -252l279 252h49zM709 1143q179 0 273.5 -93.5t94.5 -242.5q0 -35 -6 -70h-33q6 37 6 70q0 136 -85 219.5t-250 83.5q-111 0 -208.5 -43.5t-166 -114.5t-118 -161t-73.5 -183.5t-24 -181.5q0 -195 93.5 -304.5t266.5 -109.5q168 0 298 91.5
t184 236.5h34q-58 -162 -196.5 -261t-319.5 -99q-187 0 -290 118.5t-103 327.5q0 77 18.5 159t53 162.5t89 151.5t121.5 125.5t155 86.5t186 32z" />
    <glyph glyph-name="ccedilla.smcp" horiz-adv-x="1132" 
d="M709 1143q179 0 273.5 -93.5t94.5 -242.5q0 -35 -6 -70h-33q6 37 6 70q0 136 -85 219.5t-250 83.5q-111 0 -208.5 -43.5t-166 -114.5t-118 -161t-73.5 -183.5t-24 -181.5q0 -195 93.5 -304.5t266.5 -109.5q168 0 298 91.5t184 236.5h34q-53 -147 -173.5 -243t-280.5 -113
l-115 -123q16 4 33 4q67 0 103 -33t36 -92q0 -71 -55.5 -115.5t-143.5 -44.5q-101 0 -180 47l17 29q67 -43 163 -43q74 0 120 35t46 92q0 94 -106 94q-37 0 -70 -10l-20 22l125 134h-15q-187 0 -290 118.5t-103 327.5q0 77 18.5 159t53 162.5t89 151.5t121.5 125.5t155 86.5
t186 32z" />
    <glyph glyph-name="ccircumflex.smcp" horiz-adv-x="1132" 
d="M993 1257h-39l-153 252l-279 -252h-49l313 283h33zM709 1143q179 0 273.5 -93.5t94.5 -242.5q0 -35 -6 -70h-33q6 37 6 70q0 136 -85 219.5t-250 83.5q-111 0 -208.5 -43.5t-166 -114.5t-118 -161t-73.5 -183.5t-24 -181.5q0 -195 93.5 -304.5t266.5 -109.5
q168 0 298 91.5t184 236.5h34q-58 -162 -196.5 -261t-319.5 -99q-187 0 -290 118.5t-103 327.5q0 77 18.5 159t53 162.5t89 151.5t121.5 125.5t155 86.5t186 32z" />
    <glyph glyph-name="cdotaccent.smcp" horiz-adv-x="1132" 
d="M780 1382h-32l38 158h33zM709 1143q179 0 273.5 -93.5t94.5 -242.5q0 -35 -6 -70h-33q6 37 6 70q0 136 -85 219.5t-250 83.5q-111 0 -208.5 -43.5t-166 -114.5t-118 -161t-73.5 -183.5t-24 -181.5q0 -195 93.5 -304.5t266.5 -109.5q168 0 298 91.5t184 236.5h34
q-58 -162 -196.5 -261t-319.5 -99q-187 0 -290 118.5t-103 327.5q0 77 18.5 159t53 162.5t89 151.5t121.5 125.5t155 86.5t186 32z" />
    <glyph glyph-name="d.smcp" horiz-adv-x="1214" 
d="M332 1122h280q254 0 385 -124t131 -355q0 -90 -23 -178t-75.5 -173t-128.5 -149t-192 -103.5t-256 -39.5h-400zM356 1090l-262 -1057h359q135 0 245.5 37.5t183 99t122 142.5t71 164t21.5 167q0 218 -121.5 332.5t-362.5 114.5h-256z" />
    <glyph glyph-name="eth.smcp" horiz-adv-x="1216" 
d="M342 1122h281q254 0 385 -124t131 -355q0 -90 -23 -178t-76 -173t-129 -149t-192 -103.5t-256 -39.5h-400l138 551h-117l8 33h117zM104 33h359q135 0 245.5 37.5t183 99t122 142.5t71 164t21.5 167q0 218 -121.5 332.5t-361.5 114.5h-256l-125 -506h411l-8 -33h-412z" />
    <glyph glyph-name="dcaron.smcp" horiz-adv-x="1214" 
d="M725 1257h-33l-174 283h39l154 -252l278 252h49zM332 1122h280q254 0 385 -124t131 -355q0 -90 -23 -178t-75.5 -173t-128.5 -149t-192 -103.5t-256 -39.5h-400zM356 1090l-262 -1057h359q135 0 245.5 37.5t183 99t122 142.5t71 164t21.5 167q0 218 -121.5 332.5
t-362.5 114.5h-256z" />
    <glyph glyph-name="dcroat.smcp" horiz-adv-x="1216" 
d="M342 1122h281q254 0 385 -124t131 -355q0 -90 -23 -178t-76 -173t-129 -149t-192 -103.5t-256 -39.5h-400l138 551h-117l8 33h117zM104 33h359q135 0 245.5 37.5t183 99t122 142.5t71 164t21.5 167q0 218 -121.5 332.5t-361.5 114.5h-256l-125 -506h411l-8 -33h-412z" />
    <glyph glyph-name="e.smcp" horiz-adv-x="1015" 
d="M1024 1090h-655l-123 -496h626l-8 -33h-626l-132 -528h678l-8 -33h-710l278 1122h688z" />
    <glyph glyph-name="eacute.smcp" horiz-adv-x="1015" 
d="M664 1257h-39l258 283h47zM1024 1090h-655l-123 -496h626l-8 -33h-626l-132 -528h678l-8 -33h-710l278 1122h688z" />
    <glyph glyph-name="ebreve.smcp" horiz-adv-x="1015" 
d="M1053 1540h34q-42 -126 -131.5 -193t-218.5 -67q-119 0 -180 57t-61 164q0 25 2 39h32q-2 -14 -2 -39q0 -188 209 -188q234 0 316 227zM1024 1090h-655l-123 -496h626l-8 -33h-626l-132 -528h678l-8 -33h-710l278 1122h688z" />
    <glyph glyph-name="ecaron.smcp" horiz-adv-x="1015" 
d="M739 1257h-32l-175 283h39l154 -252l279 252h49zM1024 1090h-655l-123 -496h626l-8 -33h-626l-132 -528h678l-8 -33h-710l278 1122h688z" />
    <glyph glyph-name="ecircumflex.smcp" horiz-adv-x="1015" 
d="M983 1257h-39l-153 252l-279 -252h-49l313 283h33zM1024 1090h-655l-123 -496h626l-8 -33h-626l-132 -528h678l-8 -33h-710l278 1122h688z" />
    <glyph glyph-name="edieresis.smcp" horiz-adv-x="1015" 
d="M582 1382h-33l39 158h33zM958 1382h-32l39 158h32zM1024 1090h-655l-123 -496h626l-8 -33h-626l-132 -528h678l-8 -33h-710l278 1122h688z" />
    <glyph glyph-name="edotaccent.smcp" horiz-adv-x="1015" 
d="M770 1382h-33l39 158h33zM1024 1090h-655l-123 -496h626l-8 -33h-626l-132 -528h678l-8 -33h-710l278 1122h688z" />
    <glyph glyph-name="egrave.smcp" horiz-adv-x="1015" 
d="M696 1540l127 -283h-30l-136 283h39zM1024 1090h-655l-123 -496h626l-8 -33h-626l-132 -528h678l-8 -33h-710l278 1122h688z" />
    <glyph glyph-name="emacron.smcp" horiz-adv-x="1015" 
d="M991 1409h-463l9 33h462zM1024 1090h-655l-123 -496h626l-8 -33h-626l-132 -528h678l-8 -33h-710l278 1122h688z" />
    <glyph glyph-name="eogonek.smcp" horiz-adv-x="1015" 
d="M369 1090l-123 -496h626l-8 -33h-626l-132 -528h678l-8 -33q-136 -90 -185.5 -152.5t-49.5 -121.5q0 -41 21 -60.5t67 -19.5q37 0 67 10l-8 -35q-32 -8 -59 -8q-121 0 -121 113q0 66 48 128.5t167 145.5h-657l278 1122h688l-8 -32h-655z" />
    <glyph glyph-name="f.smcp" horiz-adv-x="931" 
d="M1010 1090h-641l-123 -492h608l-8 -33h-608l-140 -565h-32l278 1122h674z" />
    <glyph glyph-name="fi.smcp" horiz-adv-x="1353" 
d="M1010 1090h-641l-123 -492h608l-8 -33h-608l-140 -565h-32l278 1122h674zM1030 0h-33l279 1122h33z" />
    <glyph glyph-name="fl.smcp" horiz-adv-x="1839" 
d="M1010 1090h-641l-123 -492h608l-8 -33h-608l-140 -565h-32l278 1122h674zM1038 33h668l-8 -33h-701l279 1122h33z" />
    <glyph glyph-name="g.smcp" horiz-adv-x="1198" 
d="M739 1143q177 0 271 -85t94 -229q0 -33 -4 -51h-33q4 36 4 51q0 130 -85 205.5t-247 75.5q-118 0 -220.5 -43t-174.5 -113.5t-124 -160t-76.5 -183t-24.5 -182.5q0 -199 91.5 -305.5t264.5 -106.5q84 0 160 25t148.5 79.5t130.5 152.5t90 231h-396l8 33h428l-133 -537
h-32q60 237 84 313h-2q-63 -155 -192 -242t-294 -87q-187 0 -288 115.5t-101 328.5q0 94 26.5 193t81.5 192.5t130.5 167t183.5 118t231 44.5z" />
    <glyph glyph-name="gbreve.smcp" horiz-adv-x="1198" 
d="M1081 1540h35q-42 -126 -131.5 -193t-218.5 -67q-119 0 -180.5 57t-61.5 164q0 25 2 39h33q-2 -14 -2 -39q0 -188 209 -188q233 0 315 227zM739 1143q177 0 271 -85t94 -229q0 -33 -4 -51h-33q4 36 4 51q0 130 -85 205.5t-247 75.5q-118 0 -220.5 -43t-174.5 -113.5
t-124 -160t-76.5 -183t-24.5 -182.5q0 -199 91.5 -305.5t264.5 -106.5q84 0 160 25t148.5 79.5t130.5 152.5t90 231h-396l8 33h428l-133 -537h-32q60 237 84 313h-2q-63 -155 -192 -242t-294 -87q-187 0 -288 115.5t-101 328.5q0 94 26.5 193t81.5 192.5t130.5 167
t183.5 118t231 44.5z" />
    <glyph glyph-name="gcircumflex.smcp" horiz-adv-x="1198" 
d="M1012 1257h-39l-154 252l-278 -252h-49l313 283h33zM739 1143q177 0 271 -85t94 -229q0 -33 -4 -51h-33q4 36 4 51q0 130 -85 205.5t-247 75.5q-118 0 -220.5 -43t-174.5 -113.5t-124 -160t-76.5 -183t-24.5 -182.5q0 -199 91.5 -305.5t264.5 -106.5q84 0 160 25
t148.5 79.5t130.5 152.5t90 231h-396l8 33h428l-133 -537h-32q60 237 84 313h-2q-63 -155 -192 -242t-294 -87q-187 0 -288 115.5t-101 328.5q0 94 26.5 193t81.5 192.5t130.5 167t183.5 118t231 44.5z" />
    <glyph glyph-name="gcommaaccent.smcp" horiz-adv-x="1198" 
d="M739 1143q177 0 271 -85t94 -229q0 -33 -4 -51h-33q4 36 4 51q0 130 -85 205.5t-247 75.5q-118 0 -220.5 -43t-174.5 -113.5t-124 -160t-76.5 -183t-24.5 -182.5q0 -199 91.5 -305.5t264.5 -106.5q84 0 160 25t148.5 79.5t130.5 152.5t90 231h-396l8 33h428l-133 -537
h-32q60 237 84 313h-2q-63 -155 -192 -242t-294 -87q-187 0 -288 115.5t-101 328.5q0 94 26.5 193t81.5 192.5t130.5 167t183.5 118t231 44.5zM442 -297l-110 -192h-29l107 192l32 135h33z" />
    <glyph glyph-name="gdotaccent.smcp" horiz-adv-x="1198" 
d="M799 1382h-33l39 158h33zM739 1143q177 0 271 -85t94 -229q0 -33 -4 -51h-33q4 36 4 51q0 130 -85 205.5t-247 75.5q-118 0 -220.5 -43t-174.5 -113.5t-124 -160t-76.5 -183t-24.5 -182.5q0 -199 91.5 -305.5t264.5 -106.5q84 0 160 25t148.5 79.5t130.5 152.5t90 231
h-396l8 33h428l-133 -537h-32q60 237 84 313h-2q-63 -155 -192 -242t-294 -87q-187 0 -288 115.5t-101 328.5q0 94 26.5 193t81.5 192.5t130.5 167t183.5 118t231 44.5z" />
    <glyph glyph-name="h.smcp" horiz-adv-x="1224" 
d="M901 0h-33l142 567h-770l-142 -567h-32l278 1122h33l-129 -522h770l129 522h33z" />
    <glyph glyph-name="hbar.smcp" horiz-adv-x="1222" 
d="M1233 936h-100l-232 -936h-33l142 567h-770l-142 -567h-32l231 936h-100l8 33h100l39 153h33l-39 -153h770l39 153h33l-39 -153h100zM1102 936h-770l-84 -336h770z" />
    <glyph glyph-name="hcircumflex.smcp" horiz-adv-x="1224" 
d="M1057 1257h-39l-154 252l-278 -252h-49l313 283h33zM901 0h-33l142 567h-770l-142 -567h-32l278 1122h33l-129 -522h770l129 522h33z" />
    <glyph glyph-name="i.smcp" horiz-adv-x="421" 
d="M98 0h-32l278 1122h33z" />
    <glyph glyph-name="iacute.smcp" horiz-adv-x="421" 
d="M336 1257h-39l258 283h47zM98 0h-32l278 1122h33z" />
    <glyph glyph-name="ibreve.smcp" horiz-adv-x="421" 
d="M674 1540h33q-39 -125 -115 -192.5t-182 -67.5q-93 0 -142 54t-49 153q0 25 4 53h31q-4 -28 -4 -53q0 -85 40.5 -129.5t119.5 -44.5q188 0 264 227zM98 0h-32l278 1122h33z" />
    <glyph glyph-name="icircumflex.smcp" horiz-adv-x="421" 
d="M610 1260h-37l-112 247l-238 -247h-45l268 280h35zM98 0h-32l278 1122h33z" />
    <glyph glyph-name="idieresis.smcp" horiz-adv-x="421" 
d="M299 1399h-33l35 141h33zM594 1399h-33l35 141h33zM98 0h-32l278 1122h33z" />
    <glyph glyph-name="idotaccent.smcp" horiz-adv-x="421" 
d="M442 1382h-32l39 158h32zM98 0h-32l278 1122h33z" />
    <glyph glyph-name="igrave.smcp" horiz-adv-x="421" 
d="M369 1540l127 -283h-31l-135 283h39zM98 0h-32l278 1122h33z" />
    <glyph glyph-name="ij.smcp" horiz-adv-x="954" 
d="M98 0h-32l278 1122h33zM920 1122l-213 -858q-32 -131 -114.5 -200.5t-201.5 -69.5q-48 0 -72 8l9 33q24 -8 63 -8q107 0 181 62t104 183l211 850h33z" />
    <glyph glyph-name="imacron.smcp" horiz-adv-x="421" 
d="M623 1409h-381l8 33h381zM98 0h-32l278 1122h33z" />
    <glyph glyph-name="iogonek.smcp" horiz-adv-x="421" 
d="M377 1122l-279 -1122q-136 -90 -185.5 -152.5t-49.5 -121.5q0 -41 21 -60.5t67 -19.5q37 0 67 10l-8 -35q-32 -8 -59 -8q-121 0 -121 113q0 69 53.5 135t186.5 155l274 1106h33z" />
    <glyph glyph-name="itilde.smcp" horiz-adv-x="421" 
d="M682 1520h35q-24 -80 -67 -123t-95 -43q-31 0 -57 13.5t-45 33t-37.5 39.5t-42 33.5t-49.5 13.5q-82 0 -123 -133h-37q26 80 69 123t95 43q36 0 68 -21t51.5 -46t48.5 -46t61 -21q84 0 125 134zM98 0h-32l278 1122h33z" />
    <glyph glyph-name="j.smcp" horiz-adv-x="532" 
d="M498 1122l-213 -858q-32 -131 -114.5 -200.5t-201.5 -69.5q-47 0 -71 8l8 33q24 -8 63 -8q107 0 181 62t104 183l211 850h33z" />
    <glyph glyph-name="jcircumflex.smcp" horiz-adv-x="532" 
d="M731 1260h-37l-112 247l-238 -247h-45l268 280h35zM498 1122l-213 -858q-32 -131 -114.5 -200.5t-201.5 -69.5q-47 0 -71 8l8 33q24 -8 63 -8q107 0 181 62t104 183l211 850h33z" />
    <glyph glyph-name="k.smcp" horiz-adv-x="923" 
d="M272 584l504 -584h-43l-500 578h-2l-143 -578h-33l279 1122h33l-129 -522h2l706 522h55z" />
    <glyph glyph-name="kcommaaccent.smcp" horiz-adv-x="923" 
d="M272 584l504 -584h-43l-500 578h-2l-143 -578h-33l279 1122h33l-129 -522h2l706 522h55zM362 -297l-110 -192h-29l107 192l32 135h33z" />
    <glyph glyph-name="l.smcp" horiz-adv-x="907" 
d="M106 33h668l-8 -33h-700l278 1122h33z" />
    <glyph glyph-name="lacute.smcp" horiz-adv-x="907" 
d="M422 1257h-39l258 283h47zM106 33h668l-8 -33h-700l278 1122h33z" />
    <glyph glyph-name="lcaron.smcp" horiz-adv-x="907" 
d="M106 33h668l-8 -33h-700l278 1122h33zM459 766h-31l170 356h37z" />
    <glyph glyph-name="lcommaaccent.smcp" horiz-adv-x="907" 
d="M106 33h668l-8 -33h-700l278 1122h33zM358 -297l-110 -192h-29l107 192l32 135h33z" />
    <glyph glyph-name="ldot.smcp" horiz-adv-x="1026" 
d="M106 33h668l-8 -33h-700l278 1122h33zM750 553h-37l37 147h36z" />
    <glyph glyph-name="j.acute.loclNLD.smcp" horiz-adv-x="532" 
d="M457 1257h-39l258 283h47zM498 1122l-213 -858q-32 -131 -114.5 -200.5t-201.5 -69.5q-47 0 -71 8l8 33q24 -8 63 -8q107 0 181 62t104 183l211 850h33z" />
    <glyph glyph-name="lslash.smcp" horiz-adv-x="890" 
d="M760 33l-8 -33h-701l125 502l-151 -76l10 41l151 76l144 579h32l-139 -563l318 156l-11 -41l-317 -156l-121 -485h668z" />
    <glyph glyph-name="m.smcp" horiz-adv-x="1472" 
d="M1149 0h-33l152 608q19 80 59 239.5t59 239.5h-2q-57 -82 -170.5 -246.5t-171.5 -246.5l-411 -594h-45l-117 594l-98 493h-2q-19 -80 -59 -239.5t-60 -239.5l-152 -608h-32l278 1122h53l127 -639l88 -448h2l314 450l440 637h59z" />
    <glyph glyph-name="n.smcp" horiz-adv-x="1247" 
d="M913 0h-47l-241 522l-265 568h-2q-26 -109 -76.5 -311.5t-72.5 -291.5l-121 -487h-33l279 1122h47l244 -522q51 -109 144 -311t118 -256h2q25 101 75 301t74 301l121 487h33z" />
    <glyph glyph-name="nacute.smcp" horiz-adv-x="1247" 
d="M719 1257h-39l258 283h47zM913 0h-47l-241 522l-265 568h-2q-26 -109 -76.5 -311.5t-72.5 -291.5l-121 -487h-33l279 1122h47l244 -522q51 -109 144 -311t118 -256h2q25 101 75 301t74 301l121 487h33z" />
    <glyph glyph-name="ncaron.smcp" horiz-adv-x="1247" 
d="M795 1257h-33l-174 283h39l153 -252l279 252h49zM913 0h-47l-241 522l-265 568h-2q-26 -109 -76.5 -311.5t-72.5 -291.5l-121 -487h-33l279 1122h47l244 -522q51 -109 144 -311t118 -256h2q25 101 75 301t74 301l121 487h33z" />
    <glyph glyph-name="ncommaaccent.smcp" horiz-adv-x="1247" 
d="M913 0h-47l-241 522l-265 568h-2q-26 -109 -76.5 -311.5t-72.5 -291.5l-121 -487h-33l279 1122h47l244 -522q51 -109 144 -311t118 -256h2q25 101 75 301t74 301l121 487h33zM449 -297l-111 -192h-29l107 192l33 135h32z" />
    <glyph glyph-name="eng.smcp" horiz-adv-x="1247" 
d="M1192 1122l-301 -1206q-29 -115 -86 -164t-141 -49q-28 0 -43 6l8 31q16 -4 35 -4q74 0 122 42t74 146l21 78l-265 553l-254 537h-2q-24 -97 -72 -289.5t-73 -288.5l-127 -514h-33l279 1122h49l250 -526q240 -503 258 -541h2l145 582l121 485h33z" />
    <glyph glyph-name="ntilde.smcp" horiz-adv-x="1247" 
d="M1104 1520h35q-26 -80 -73.5 -123t-107.5 -43q-42 0 -80 21t-61.5 45.5t-58 45.5t-72.5 21q-99 0 -143 -133h-35q26 81 73.5 123.5t106.5 42.5q35 0 65.5 -14t53.5 -33.5t45 -39t50 -33.5t59 -14q99 0 143 134zM913 0h-47l-241 522l-265 568h-2q-26 -109 -76.5 -311.5
t-72.5 -291.5l-121 -487h-33l279 1122h47l244 -522q51 -109 144 -311t118 -256h2q25 101 75 301t74 301l121 487h33z" />
    <glyph glyph-name="o.smcp" horiz-adv-x="1196" 
d="M713 1143q197 0 306 -123t109 -338q0 -93 -25.5 -190t-78 -189t-125 -164t-175.5 -115.5t-220 -43.5q-195 0 -304.5 123.5t-109.5 338.5q0 93 25.5 190t78.5 188.5t125.5 163.5t175 115.5t218.5 43.5zM713 1110q-111 0 -208 -42t-165.5 -110.5t-118.5 -156t-74 -179.5
t-24 -180q0 -202 99 -316t282 -114q93 0 177 29.5t148 80.5t115.5 117.5t84 141.5t50 151.5t17.5 149.5q0 200 -99.5 314t-283.5 114z" />
    <glyph glyph-name="oacute.smcp" horiz-adv-x="1196" 
d="M684 1257h-39l258 283h47zM713 1143q197 0 306 -123t109 -338q0 -93 -25.5 -190t-78 -189t-125 -164t-175.5 -115.5t-220 -43.5q-195 0 -304.5 123.5t-109.5 338.5q0 93 25.5 190t78.5 188.5t125.5 163.5t175 115.5t218.5 43.5zM713 1110q-111 0 -208 -42t-165.5 -110.5
t-118.5 -156t-74 -179.5t-24 -180q0 -202 99 -316t282 -114q93 0 177 29.5t148 80.5t115.5 117.5t84 141.5t50 151.5t17.5 149.5q0 200 -99.5 314t-283.5 114z" />
    <glyph glyph-name="obreve.smcp" horiz-adv-x="1196" 
d="M1073 1540h35q-42 -126 -131.5 -193t-218.5 -67q-119 0 -180.5 57t-61.5 164q0 25 2 39h33q-2 -14 -2 -39q0 -188 209 -188q233 0 315 227zM713 1143q197 0 306 -123t109 -338q0 -93 -25.5 -190t-78 -189t-125 -164t-175.5 -115.5t-220 -43.5q-195 0 -304.5 123.5
t-109.5 338.5q0 93 25.5 190t78.5 188.5t125.5 163.5t175 115.5t218.5 43.5zM713 1110q-111 0 -208 -42t-165.5 -110.5t-118.5 -156t-74 -179.5t-24 -180q0 -202 99 -316t282 -114q93 0 177 29.5t148 80.5t115.5 117.5t84 141.5t50 151.5t17.5 149.5q0 200 -99.5 314
t-283.5 114z" />
    <glyph glyph-name="ocircumflex.smcp" horiz-adv-x="1196" 
d="M1004 1257h-39l-154 252l-279 -252h-49l314 283h32zM713 1143q197 0 306 -123t109 -338q0 -93 -25.5 -190t-78 -189t-125 -164t-175.5 -115.5t-220 -43.5q-195 0 -304.5 123.5t-109.5 338.5q0 93 25.5 190t78.5 188.5t125.5 163.5t175 115.5t218.5 43.5zM713 1110
q-111 0 -208 -42t-165.5 -110.5t-118.5 -156t-74 -179.5t-24 -180q0 -202 99 -316t282 -114q93 0 177 29.5t148 80.5t115.5 117.5t84 141.5t50 151.5t17.5 149.5q0 200 -99.5 314t-283.5 114z" />
    <glyph glyph-name="odieresis.smcp" horiz-adv-x="1196" 
d="M602 1382h-33l39 158h33zM979 1382h-33l39 158h33zM713 1143q197 0 306 -123t109 -338q0 -93 -25.5 -190t-78 -189t-125 -164t-175.5 -115.5t-220 -43.5q-195 0 -304.5 123.5t-109.5 338.5q0 93 25.5 190t78.5 188.5t125.5 163.5t175 115.5t218.5 43.5zM713 1110
q-111 0 -208 -42t-165.5 -110.5t-118.5 -156t-74 -179.5t-24 -180q0 -202 99 -316t282 -114q93 0 177 29.5t148 80.5t115.5 117.5t84 141.5t50 151.5t17.5 149.5q0 200 -99.5 314t-283.5 114z" />
    <glyph glyph-name="ograve.smcp" horiz-adv-x="1196" 
d="M717 1540l127 -283h-31l-135 283h39zM713 1143q197 0 306 -123t109 -338q0 -93 -25.5 -190t-78 -189t-125 -164t-175.5 -115.5t-220 -43.5q-195 0 -304.5 123.5t-109.5 338.5q0 93 25.5 190t78.5 188.5t125.5 163.5t175 115.5t218.5 43.5zM713 1110q-111 0 -208 -42
t-165.5 -110.5t-118.5 -156t-74 -179.5t-24 -180q0 -202 99 -316t282 -114q93 0 177 29.5t148 80.5t115.5 117.5t84 141.5t50 151.5t17.5 149.5q0 200 -99.5 314t-283.5 114z" />
    <glyph glyph-name="ohungarumlaut.smcp" horiz-adv-x="1196" 
d="M612 1257h-43l316 283h53zM815 1257h-43l315 283h54zM713 1143q197 0 306 -123t109 -338q0 -93 -25.5 -190t-78 -189t-125 -164t-175.5 -115.5t-220 -43.5q-195 0 -304.5 123.5t-109.5 338.5q0 93 25.5 190t78.5 188.5t125.5 163.5t175 115.5t218.5 43.5zM713 1110
q-111 0 -208 -42t-165.5 -110.5t-118.5 -156t-74 -179.5t-24 -180q0 -202 99 -316t282 -114q93 0 177 29.5t148 80.5t115.5 117.5t84 141.5t50 151.5t17.5 149.5q0 200 -99.5 314t-283.5 114z" />
    <glyph glyph-name="omacron.smcp" horiz-adv-x="1196" 
d="M1012 1409h-463l8 33h463zM713 1143q197 0 306 -123t109 -338q0 -93 -25.5 -190t-78 -189t-125 -164t-175.5 -115.5t-220 -43.5q-195 0 -304.5 123.5t-109.5 338.5q0 93 25.5 190t78.5 188.5t125.5 163.5t175 115.5t218.5 43.5zM713 1110q-111 0 -208 -42t-165.5 -110.5
t-118.5 -156t-74 -179.5t-24 -180q0 -202 99 -316t282 -114q93 0 177 29.5t148 80.5t115.5 117.5t84 141.5t50 151.5t17.5 149.5q0 200 -99.5 314t-283.5 114z" />
    <glyph glyph-name="oslash.smcp" horiz-adv-x="1198" 
d="M1184 1083l-125 -116q69 -117 69 -285q0 -93 -25.5 -190t-78 -189t-125 -164t-175.5 -115.5t-220 -43.5q-219 0 -328 153l-123 -113l-20 25l125 117q-68 112 -68 280q0 93 25.5 190t78.5 188.5t125.5 163.5t175 115.5t218.5 43.5q214 0 327 -148l121 113zM713 1110
q-111 0 -208 -42t-165.5 -110.5t-118.5 -156t-74 -179.5t-24 -180q0 -150 57 -258l836 787q-97 139 -303 139zM504 12q93 0 177 29.5t148 80.5t115.5 117.5t84 141.5t50 151.5t17.5 149.5q0 151 -62 262l-835 -788q99 -144 305 -144z" />
    <glyph glyph-name="otilde.smcp" horiz-adv-x="1196" 
d="M1069 1520h35q-26 -81 -73.5 -123.5t-106.5 -42.5q-42 0 -80 21t-61.5 45.5t-58.5 45.5t-73 21q-99 0 -143 -133h-35q26 81 73.5 123.5t106.5 42.5q35 0 65.5 -14t53.5 -33.5t45 -39t50 -33.5t59 -14q99 0 143 134zM713 1143q197 0 306 -123t109 -338q0 -93 -25.5 -190
t-78 -189t-125 -164t-175.5 -115.5t-220 -43.5q-195 0 -304.5 123.5t-109.5 338.5q0 93 25.5 190t78.5 188.5t125.5 163.5t175 115.5t218.5 43.5zM713 1110q-111 0 -208 -42t-165.5 -110.5t-118.5 -156t-74 -179.5t-24 -180q0 -202 99 -316t282 -114q93 0 177 29.5t148 80.5
t115.5 117.5t84 141.5t50 151.5t17.5 149.5q0 200 -99.5 314t-283.5 114z" />
    <glyph glyph-name="oe.smcp" horiz-adv-x="1636" 
d="M1645 1090h-656l-123 -496h627l-8 -33h-627l-131 -528h678l-8 -33h-807q-242 0 -367 124t-125 355q0 90 22 178t73 173t124.5 149t185.5 103.5t247 39.5h903zM956 1090h-206q-130 0 -237 -38t-176.5 -99t-117 -142.5t-68 -164.5t-20.5 -167q0 -217 115.5 -331.5
t343.5 -114.5h104z" />
    <glyph glyph-name="p.smcp" horiz-adv-x="1001" 
d="M334 1122h344q161 0 242 -72t81 -196q0 -58 -22 -114t-65.5 -105.5t-118.5 -80t-170 -30.5h-406l-131 -524h-33zM358 1090l-131 -533h398q89 0 158 28t108 73t58.5 95t19.5 101q0 110 -71.5 173t-219.5 63h-320z" />
    <glyph glyph-name="thorn.smcp" horiz-adv-x="1001" 
d="M305 879h311q161 0 242.5 -72.5t81.5 -196.5q0 -58 -22.5 -114t-65.5 -105t-118.5 -79.5t-170.5 -30.5h-405l-70 -281h-33l279 1122h33zM297 846l-131 -533h397q89 0 158 28t108 73t58.5 95t19.5 101q0 110 -71.5 173t-219.5 63h-319z" />
    <glyph glyph-name="q.smcp" horiz-adv-x="1196" 
d="M1128 682q0 -159 -72.5 -321t-203.5 -263l109 -153l-27 -19l-107 154q-148 -100 -323 -100q-195 0 -304.5 123.5t-109.5 338.5q0 93 25.5 190t78.5 188.5t125.5 163.5t175 115.5t218.5 43.5q197 0 306 -123t109 -338zM123 442q0 -202 99 -316t282 -114q164 0 303 94
l-119 173l27 18l119 -170q124 97 193 251.5t69 303.5q0 200 -99.5 314t-283.5 114q-111 0 -208 -42t-165.5 -110.5t-118.5 -156t-74 -179.5t-24 -180z" />
    <glyph glyph-name="r.smcp" horiz-adv-x="1021" 
d="M344 1122h305q163 0 244.5 -67t81.5 -191q0 -53 -20.5 -104t-59.5 -95.5t-103 -76t-145 -41.5v-2q60 -15 91 -60.5t46 -146.5l50 -338h-33l-47 330q-8 59 -20.5 95.5t-37 62.5t-62 36.5t-95.5 10.5h-308l-133 -535h-32zM369 1090l-129 -523h307q85 0 154.5 19.5t113 50.5
t73.5 71t42 79t12 77q0 108 -73 167t-220 59h-280z" />
    <glyph glyph-name="racute.smcp" horiz-adv-x="1021" 
d="M637 1257h-39l258 283h47zM344 1122h305q163 0 244.5 -67t81.5 -191q0 -53 -20.5 -104t-59.5 -95.5t-103 -76t-145 -41.5v-2q60 -15 91 -60.5t46 -146.5l50 -338h-33l-47 330q-8 59 -20.5 95.5t-37 62.5t-62 36.5t-95.5 10.5h-308l-133 -535h-32zM369 1090l-129 -523h307
q85 0 154.5 19.5t113 50.5t73.5 71t42 79t12 77q0 108 -73 167t-220 59h-280z" />
    <glyph glyph-name="rcaron.smcp" horiz-adv-x="1021" 
d="M713 1257h-33l-174 283h39l153 -252l279 252h49zM344 1122h305q163 0 244.5 -67t81.5 -191q0 -53 -20.5 -104t-59.5 -95.5t-103 -76t-145 -41.5v-2q60 -15 91 -60.5t46 -146.5l50 -338h-33l-47 330q-8 59 -20.5 95.5t-37 62.5t-62 36.5t-95.5 10.5h-308l-133 -535h-32z
M369 1090l-129 -523h307q85 0 154.5 19.5t113 50.5t73.5 71t42 79t12 77q0 108 -73 167t-220 59h-280z" />
    <glyph glyph-name="rcommaaccent.smcp" horiz-adv-x="1021" 
d="M344 1122h305q163 0 244.5 -67t81.5 -191q0 -53 -20.5 -104t-59.5 -95.5t-103 -76t-145 -41.5v-2q60 -15 91 -60.5t46 -146.5l50 -338h-33l-47 330q-8 59 -20.5 95.5t-37 62.5t-62 36.5t-95.5 10.5h-308l-133 -535h-32zM369 1090l-129 -523h307q85 0 154.5 19.5t113 50.5
t73.5 71t42 79t12 77q0 108 -73 167t-220 59h-280zM375 -297l-111 -192h-28l106 192l33 135h33z" />
    <glyph glyph-name="s.smcp" horiz-adv-x="989" 
d="M580 1143q331 0 331 -271q0 -48 -12 -106h-33q13 63 13 106q0 122 -73 180t-226 58q-86 0 -156 -25.5t-112 -66.5t-64.5 -88t-22.5 -94q0 -97 61 -149.5t201 -98.5q66 -22 105.5 -37.5t83 -40.5t66.5 -52t38 -67t15 -92q0 -56 -25.5 -110.5t-74.5 -102t-132.5 -77
t-187.5 -29.5q-340 0 -340 282q0 56 14 113h33q-14 -57 -14 -113q0 -129 76 -189.5t231 -60.5q97 0 174.5 27t122 70t67.5 92t23 98q0 39 -8 69.5t-28 55t-40 41.5t-58.5 34.5t-68.5 28.5t-84 29q-149 49 -215.5 109.5t-66.5 169.5q0 54 25 107t71 98.5t122 73.5t169 28z
" />
    <glyph glyph-name="sacute.smcp" horiz-adv-x="989" 
d="M557 1257h-39l258 283h47zM580 1143q331 0 331 -271q0 -48 -12 -106h-33q13 63 13 106q0 122 -73 180t-226 58q-86 0 -156 -25.5t-112 -66.5t-64.5 -88t-22.5 -94q0 -97 61 -149.5t201 -98.5q66 -22 105.5 -37.5t83 -40.5t66.5 -52t38 -67t15 -92q0 -56 -25.5 -110.5
t-74.5 -102t-132.5 -77t-187.5 -29.5q-340 0 -340 282q0 56 14 113h33q-14 -57 -14 -113q0 -129 76 -189.5t231 -60.5q97 0 174.5 27t122 70t67.5 92t23 98q0 39 -8 69.5t-28 55t-40 41.5t-58.5 34.5t-68.5 28.5t-84 29q-149 49 -215.5 109.5t-66.5 169.5q0 54 25 107
t71 98.5t122 73.5t169 28z" />
    <glyph glyph-name="scaron.smcp" horiz-adv-x="989" 
d="M633 1257h-33l-174 283h39l153 -252l279 252h49zM580 1143q331 0 331 -271q0 -48 -12 -106h-33q13 63 13 106q0 122 -73 180t-226 58q-86 0 -156 -25.5t-112 -66.5t-64.5 -88t-22.5 -94q0 -97 61 -149.5t201 -98.5q66 -22 105.5 -37.5t83 -40.5t66.5 -52t38 -67t15 -92
q0 -56 -25.5 -110.5t-74.5 -102t-132.5 -77t-187.5 -29.5q-340 0 -340 282q0 56 14 113h33q-14 -57 -14 -113q0 -129 76 -189.5t231 -60.5q97 0 174.5 27t122 70t67.5 92t23 98q0 39 -8 69.5t-28 55t-40 41.5t-58.5 34.5t-68.5 28.5t-84 29q-149 49 -215.5 109.5
t-66.5 169.5q0 54 25 107t71 98.5t122 73.5t169 28z" />
    <glyph glyph-name="scedilla.smcp" horiz-adv-x="989" 
d="M580 1143q331 0 331 -271q0 -48 -12 -106h-33q13 63 13 106q0 122 -73 180t-226 58q-86 0 -156 -25.5t-112 -66.5t-64.5 -88t-22.5 -94q0 -97 61 -149.5t201 -98.5q66 -22 105.5 -37.5t83 -40.5t66.5 -52t38 -67t15 -92q0 -53 -22.5 -104.5t-66.5 -97.5t-117.5 -77.5
t-166.5 -37.5l-113 -121q16 4 33 4q67 0 103 -33t36 -92q0 -71 -55 -115.5t-143 -44.5q-102 0 -181 47l17 29q67 -43 164 -43q74 0 120 35t46 92q0 94 -107 94q-37 0 -70 -10l-20 22l123 134q-340 0 -340 282q0 56 14 113h33q-14 -57 -14 -113q0 -129 76 -189.5t231 -60.5
q97 0 174.5 27t122 70t67.5 92t23 98q0 39 -8 69.5t-28 55t-40 41.5t-58.5 34.5t-68.5 28.5t-84 29q-149 49 -215.5 109.5t-66.5 169.5q0 54 25 107t71 98.5t122 73.5t169 28z" />
    <glyph glyph-name="scircumflex.smcp" horiz-adv-x="989" 
d="M877 1257h-39l-154 252l-278 -252h-50l314 283h32zM580 1143q331 0 331 -271q0 -48 -12 -106h-33q13 63 13 106q0 122 -73 180t-226 58q-86 0 -156 -25.5t-112 -66.5t-64.5 -88t-22.5 -94q0 -97 61 -149.5t201 -98.5q66 -22 105.5 -37.5t83 -40.5t66.5 -52t38 -67t15 -92
q0 -56 -25.5 -110.5t-74.5 -102t-132.5 -77t-187.5 -29.5q-340 0 -340 282q0 56 14 113h33q-14 -57 -14 -113q0 -129 76 -189.5t231 -60.5q97 0 174.5 27t122 70t67.5 92t23 98q0 39 -8 69.5t-28 55t-40 41.5t-58.5 34.5t-68.5 28.5t-84 29q-149 49 -215.5 109.5
t-66.5 169.5q0 54 25 107t71 98.5t122 73.5t169 28z" />
    <glyph glyph-name="scommaaccent.smcp" horiz-adv-x="989" 
d="M580 1143q331 0 331 -271q0 -48 -12 -106h-33q13 63 13 106q0 122 -73 180t-226 58q-86 0 -156 -25.5t-112 -66.5t-64.5 -88t-22.5 -94q0 -97 61 -149.5t201 -98.5q66 -22 105.5 -37.5t83 -40.5t66.5 -52t38 -67t15 -92q0 -56 -25.5 -110.5t-74.5 -102t-132.5 -77
t-187.5 -29.5q-340 0 -340 282q0 56 14 113h33q-14 -57 -14 -113q0 -129 76 -189.5t231 -60.5q97 0 174.5 27t122 70t67.5 92t23 98q0 39 -8 69.5t-28 55t-40 41.5t-58.5 34.5t-68.5 28.5t-84 29q-149 49 -215.5 109.5t-66.5 169.5q0 54 25 107t71 98.5t122 73.5t169 28z
M315 -297l-110 -192h-29l107 192l32 135h33z" />
    <glyph glyph-name="germandbls.smcp" horiz-adv-x="1265" 
d="M1153 969l-416 -322q340 -53 340 -323q0 -61 -26.5 -120.5t-75.5 -110t-129 -82t-178 -31.5q-147 0 -223 58t-76 165q0 31 4 49h33q-5 -22 -5 -49q0 -191 267 -191q91 0 165 28.5t119 75t68.5 100t23.5 108.5q0 135 -91 206.5t-269 90.5l8 32l416 322q-109 135 -334 135
q-207 0 -339 -103t-183 -307l-174 -700h-33l176 709q54 214 194.5 324t358.5 110q130 0 228 -47t151 -127z" />
    <glyph glyph-name="t.smcp" horiz-adv-x="958" 
d="M1090 1090h-453l-270 -1090h-33l270 1090h-452l8 32h938z" />
    <glyph glyph-name="tbar.smcp" horiz-adv-x="958" 
d="M637 1090l-109 -437h263l-9 -32h-262l-153 -621h-33l153 621h-262l8 32h263l108 437h-452l8 32h938l-8 -32h-453z" />
    <glyph glyph-name="tcaron.smcp" horiz-adv-x="958" 
d="M680 1257h-33l-174 283h39l154 -252l278 252h49zM1090 1090h-453l-270 -1090h-33l270 1090h-452l8 32h938z" />
    <glyph glyph-name="tcedilla.smcp" horiz-adv-x="958" 
d="M1090 1090h-453l-270 -1090h-33l270 1090h-452l8 32h938zM293 -297l-111 -192h-28l106 192l33 135h33z" />
    <glyph glyph-name="tcommaaccent.smcp" horiz-adv-x="958" 
d="M1090 1090h-453l-270 -1090h-33l270 1090h-452l8 32h938zM293 -297l-111 -192h-28l106 192l33 135h33z" />
    <glyph glyph-name="u.smcp" horiz-adv-x="1163" 
d="M1130 1122l-186 -747q-49 -194 -169.5 -294.5t-299.5 -100.5q-336 0 -336 307q0 59 23 153l170 682h33l-172 -690q-21 -80 -21 -145q0 -139 75 -207t228 -68q167 0 280 94t158 277l185 739h32z" />
    <glyph glyph-name="uacute.smcp" horiz-adv-x="1163" 
d="M686 1257h-39l258 283h47zM1130 1122l-186 -747q-49 -194 -169.5 -294.5t-299.5 -100.5q-336 0 -336 307q0 59 23 153l170 682h33l-172 -690q-21 -80 -21 -145q0 -139 75 -207t228 -68q167 0 280 94t158 277l185 739h32z" />
    <glyph glyph-name="ubreve.smcp" horiz-adv-x="1163" 
d="M1075 1540h35q-42 -126 -131.5 -193t-218.5 -67q-119 0 -180.5 57t-61.5 164q0 25 2 39h33q-2 -14 -2 -39q0 -188 209 -188q233 0 315 227zM1130 1122l-186 -747q-49 -194 -169.5 -294.5t-299.5 -100.5q-336 0 -336 307q0 59 23 153l170 682h33l-172 -690
q-21 -80 -21 -145q0 -139 75 -207t228 -68q167 0 280 94t158 277l185 739h32z" />
    <glyph glyph-name="ucircumflex.smcp" horiz-adv-x="1163" 
d="M1006 1257h-39l-154 252l-278 -252h-50l314 283h32zM1130 1122l-186 -747q-49 -194 -169.5 -294.5t-299.5 -100.5q-336 0 -336 307q0 59 23 153l170 682h33l-172 -690q-21 -80 -21 -145q0 -139 75 -207t228 -68q167 0 280 94t158 277l185 739h32z" />
    <glyph glyph-name="udieresis.smcp" horiz-adv-x="1163" 
d="M604 1382h-33l39 158h33zM981 1382h-33l39 158h33zM1130 1122l-186 -747q-49 -194 -169.5 -294.5t-299.5 -100.5q-336 0 -336 307q0 59 23 153l170 682h33l-172 -690q-21 -80 -21 -145q0 -139 75 -207t228 -68q167 0 280 94t158 277l185 739h32z" />
    <glyph glyph-name="ugrave.smcp" horiz-adv-x="1163" 
d="M719 1540l127 -283h-31l-135 283h39zM1130 1122l-186 -747q-49 -194 -169.5 -294.5t-299.5 -100.5q-336 0 -336 307q0 59 23 153l170 682h33l-172 -690q-21 -80 -21 -145q0 -139 75 -207t228 -68q167 0 280 94t158 277l185 739h32z" />
    <glyph glyph-name="uhungarumlaut.smcp" horiz-adv-x="1163" 
d="M614 1257h-43l316 283h53zM817 1257h-43l316 283h53zM1130 1122l-186 -747q-49 -194 -169.5 -294.5t-299.5 -100.5q-336 0 -336 307q0 59 23 153l170 682h33l-172 -690q-21 -80 -21 -145q0 -139 75 -207t228 -68q167 0 280 94t158 277l185 739h32z" />
    <glyph glyph-name="umacron.smcp" horiz-adv-x="1163" 
d="M1014 1409h-463l8 33h463zM1130 1122l-186 -747q-49 -194 -169.5 -294.5t-299.5 -100.5q-336 0 -336 307q0 59 23 153l170 682h33l-172 -690q-21 -80 -21 -145q0 -139 75 -207t228 -68q167 0 280 94t158 277l185 739h32z" />
    <glyph glyph-name="uogonek.smcp" horiz-adv-x="1163" 
d="M1130 1122l-186 -747q-34 -134 -98.5 -218.5t-169.5 -150.5q-146 -92 -199 -156t-53 -124q0 -41 21 -60.5t67 -19.5q38 0 68 10l-9 -35q-32 -8 -59 -8q-121 0 -121 113q0 67 50.5 131.5t174.5 140.5v2q-64 -20 -141 -20q-336 0 -336 307q0 59 23 153l170 682h33
l-172 -690q-21 -80 -21 -145q0 -139 75 -207t228 -68q167 0 280 94t158 277l185 739h32z" />
    <glyph glyph-name="uring.smcp" horiz-adv-x="1163" 
d="M776 1640q70 0 121 -51t51 -121q0 -72 -50.5 -122t-121.5 -50t-121.5 50t-50.5 122q0 70 51 121t121 51zM776 1608q-58 0 -98.5 -40.5t-40.5 -99.5q0 -58 40.5 -98.5t98.5 -40.5t98.5 40.5t40.5 98.5q0 59 -40.5 99.5t-98.5 40.5zM1130 1122l-186 -747
q-49 -194 -169.5 -294.5t-299.5 -100.5q-336 0 -336 307q0 59 23 153l170 682h33l-172 -690q-21 -80 -21 -145q0 -139 75 -207t228 -68q167 0 280 94t158 277l185 739h32z" />
    <glyph glyph-name="utilde.smcp" horiz-adv-x="1163" 
d="M1071 1520h35q-26 -81 -73.5 -123.5t-106.5 -42.5q-42 0 -80 21t-61.5 45.5t-58.5 45.5t-73 21q-99 0 -143 -133h-35q26 81 73.5 123.5t106.5 42.5q35 0 65.5 -14t53.5 -33.5t45 -39t50 -33.5t59 -14q99 0 143 134zM1130 1122l-186 -747q-49 -194 -169.5 -294.5
t-299.5 -100.5q-336 0 -336 307q0 59 23 153l170 682h33l-172 -690q-21 -80 -21 -145q0 -139 75 -207t228 -68q167 0 280 94t158 277l185 739h32z" />
    <glyph glyph-name="v.smcp" horiz-adv-x="1017" 
d="M401 0h-43l-194 1122h33l94 -540q19 -109 94 -547h2q118 179 367 549l360 538h39z" />
    <glyph glyph-name="w.smcp" horiz-adv-x="1456" 
d="M967 0h-47l-25 530l-25 560h-2q-190 -355 -303 -560l-286 -530h-48l-59 1122h33l28 -538q14 -248 27 -549h2l299 553l291 534h47l25 -534l24 -553h2l301 549l295 538h37z" />
    <glyph glyph-name="wacute.smcp" horiz-adv-x="1456" 
d="M844 1257h-39l258 283h47zM967 0h-47l-25 530l-25 560h-2q-190 -355 -303 -560l-286 -530h-48l-59 1122h33l28 -538q14 -248 27 -549h2l299 553l291 534h47l25 -534l24 -553h2l301 549l295 538h37z" />
    <glyph glyph-name="wcircumflex.smcp" horiz-adv-x="1456" 
d="M1163 1257h-39l-153 252l-279 -252h-49l313 283h33zM967 0h-47l-25 530l-25 560h-2q-190 -355 -303 -560l-286 -530h-48l-59 1122h33l28 -538q14 -248 27 -549h2l299 553l291 534h47l25 -534l24 -553h2l301 549l295 538h37z" />
    <glyph glyph-name="wdieresis.smcp" horiz-adv-x="1456" 
d="M762 1382h-33l39 158h33zM1139 1382h-33l39 158h33zM967 0h-47l-25 530l-25 560h-2q-190 -355 -303 -560l-286 -530h-48l-59 1122h33l28 -538q14 -248 27 -549h2l299 553l291 534h47l25 -534l24 -553h2l301 549l295 538h37z" />
    <glyph glyph-name="wgrave.smcp" horiz-adv-x="1456" 
d="M877 1540l127 -283h-31l-135 283h39zM967 0h-47l-25 530l-25 560h-2q-190 -355 -303 -560l-286 -530h-48l-59 1122h33l28 -538q14 -248 27 -549h2l299 553l291 534h47l25 -534l24 -553h2l301 549l295 538h37z" />
    <glyph glyph-name="x.smcp" horiz-adv-x="1003" 
d="M541 575l311 -575h-37l-299 553h-2l-573 -553h-47l600 580l-297 542h36l285 -520h2l539 520h47z" />
    <glyph glyph-name="y.smcp" horiz-adv-x="964" 
d="M485 500l-125 -500h-32l125 500l-301 622h36l127 -266l156 -321h2l315 323l259 264h45z" />
    <glyph glyph-name="yacute.smcp" horiz-adv-x="964" 
d="M557 1257h-39l258 283h47zM485 500l-125 -500h-32l125 500l-301 622h36l127 -266l156 -321h2l315 323l259 264h45z" />
    <glyph glyph-name="ycircumflex.smcp" horiz-adv-x="964" 
d="M877 1257h-39l-154 252l-278 -252h-50l314 283h32zM485 500l-125 -500h-32l125 500l-301 622h36l127 -266l156 -321h2l315 323l259 264h45z" />
    <glyph glyph-name="ydieresis.smcp" horiz-adv-x="964" 
d="M475 1382h-33l39 158h33zM852 1382h-33l39 158h33zM485 500l-125 -500h-32l125 500l-301 622h36l127 -266l156 -321h2l315 323l259 264h45z" />
    <glyph glyph-name="ygrave.smcp" horiz-adv-x="964" 
d="M590 1540l127 -283h-31l-135 283h39zM485 500l-125 -500h-32l125 500l-301 622h36l127 -266l156 -321h2l315 323l259 264h45z" />
    <glyph glyph-name="z.smcp" horiz-adv-x="923" 
d="M995 1081l-1042 -1046v-2h819l-8 -33h-862l10 41l1042 1046v3h-774l8 32h818z" />
    <glyph glyph-name="zacute.smcp" horiz-adv-x="923" 
d="M532 1257h-38l258 283h47zM995 1081l-1042 -1046v-2h819l-8 -33h-862l10 41l1042 1046v3h-774l8 32h818z" />
    <glyph glyph-name="zcaron.smcp" horiz-adv-x="923" 
d="M608 1257h-33l-174 283h39l154 -252l278 252h50zM995 1081l-1042 -1046v-2h819l-8 -33h-862l10 41l1042 1046v3h-774l8 32h818z" />
    <glyph glyph-name="zdotaccent.smcp" horiz-adv-x="923" 
d="M639 1382h-33l39 158h33zM995 1081l-1042 -1046v-2h819l-8 -33h-862l10 41l1042 1046v3h-774l8 32h818z" />
    <glyph glyph-name="ccedilla.smcp.ss01" horiz-adv-x="1132" 
d="M709 1143q179 0 273.5 -93.5t94.5 -242.5q0 -35 -6 -70h-33q6 37 6 70q0 136 -85 219.5t-250 83.5q-111 0 -208.5 -43.5t-166 -114.5t-118 -161t-73.5 -183.5t-24 -181.5q0 -195 93.5 -304.5t266.5 -109.5q168 0 298 91.5t184 236.5h34q-58 -162 -196.5 -261t-319.5 -99
q-187 0 -290 118.5t-103 327.5q0 77 18.5 159t53 162.5t89 151.5t121.5 125.5t155 86.5t186 32zM205 -424h-49l333 324h41z" />
    <glyph glyph-name="scedilla.smcp.ss01" horiz-adv-x="989" 
d="M580 1143q331 0 331 -271q0 -48 -12 -106h-33q13 63 13 106q0 122 -73 180t-226 58q-86 0 -156 -25.5t-112 -66.5t-64.5 -88t-22.5 -94q0 -97 61 -149.5t201 -98.5q66 -22 105.5 -37.5t83 -40.5t66.5 -52t38 -67t15 -92q0 -56 -25.5 -110.5t-74.5 -102t-132.5 -77
t-187.5 -29.5q-340 0 -340 282q0 56 14 113h33q-14 -57 -14 -113q0 -129 76 -189.5t231 -60.5q97 0 174.5 27t122 70t67.5 92t23 98q0 39 -8 69.5t-28 55t-40 41.5t-58.5 34.5t-68.5 28.5t-84 29q-149 49 -215.5 109.5t-66.5 169.5q0 54 25 107t71 98.5t122 73.5t169 28z
M88 -424h-49l334 324h41z" />
    <glyph glyph-name="tcedilla.smcp.ss01" horiz-adv-x="958" 
d="M1090 1090h-453l-270 -1090h-33l270 1090h-452l8 32h938zM66 -424h-50l334 324h41z" />
    <glyph glyph-name="zero.lf" horiz-adv-x="1116" 
d="M739 1401q330 0 330 -453q0 -77 -11.5 -164t-36 -181t-60 -183t-86.5 -169t-111 -140t-139 -95.5t-166 -35.5q-328 0 -328 452q0 109 22.5 235t72 257t118.5 236.5t172 173t223 67.5zM739 1368q-95 0 -180 -46.5t-146 -124t-110 -174.5t-78.5 -203t-45 -204.5
t-15.5 -183.5q0 -212 73 -316t222 -104q114 0 212.5 66t163.5 169t112 230t68 247.5t21 223.5q0 213 -72.5 316.5t-224.5 103.5z" />
    <glyph glyph-name="one.lf" horiz-adv-x="608" 
d="M233 0h-32l315 1266h-2q-83 -148 -334 -148l8 33q145 0 226.5 51.5t130.5 177.5h33z" />
    <glyph glyph-name="two.lf" horiz-adv-x="1079" 
d="M731 1401q154 0 243 -87t89 -231q0 -163 -107.5 -275t-396.5 -239q-140 -62 -235.5 -123.5t-153.5 -129t-88.5 -132t-52.5 -151.5h817l-8 -33h-848q40 213 163.5 346.5t391.5 251.5q191 84 295.5 156.5t147 148.5t42.5 180q0 131 -79 208t-220 77q-159 0 -271.5 -94.5
t-164.5 -261.5h-35q53 181 177 285t294 104z" />
    <glyph glyph-name="three.lf" horiz-adv-x="1077" 
d="M680 1401q170 0 270.5 -87t100.5 -231q0 -130 -96.5 -238t-270.5 -140v-3q227 -68 227 -301q0 -57 -20.5 -116t-62.5 -113.5t-99.5 -97.5t-139 -68.5t-173.5 -25.5q-176 0 -269.5 80.5t-93.5 220.5q0 49 10 88h33q-10 -39 -10 -88q0 -126 84.5 -197.5t245.5 -71.5
q108 0 198.5 36.5t146.5 94t87 125t31 133.5q0 137 -86 212t-242 75h-94l8 33h86q96 0 176 23t132.5 60t89.5 85t53 97t16 97q0 130 -90.5 207.5t-247.5 77.5q-154 0 -265.5 -92.5t-152.5 -259.5h-33q44 181 165 283t286 102z" />
    <glyph glyph-name="four.lf" horiz-adv-x="1032" 
d="M975 424h-285l-106 -424h-33l106 424h-651l10 41l861 915h51l-230 -923h285zM53 457h611l57 229l164 653h-2l-551 -585z" />
    <glyph glyph-name="five.lf" horiz-adv-x="1064" 
d="M1085 1348h-643l-227 -652h2q64 88 157 137.5t208 49.5q163 0 251.5 -98t88.5 -271q0 -70 -21 -143.5t-65 -143.5t-104.5 -125t-147 -88.5t-185.5 -33.5q-153 0 -238 74t-85 208q0 49 10 90h33q-10 -41 -10 -90q0 -121 75.5 -185.5t214.5 -64.5q93 0 174.5 32t138 84
t97.5 118t60.5 134.5t19.5 133.5q0 160 -79 248t-228 88q-128 0 -232.5 -68t-175.5 -202l-31 2l279 798h672z" />
    <glyph glyph-name="six.lf" horiz-adv-x="1075" 
d="M766 1401q157 0 237 -79t80 -222q0 -19 -2 -35h-32q2 16 2 35q0 129 -71 198.5t-214 69.5q-190 0 -353 -198t-249 -578h4q54 128 175.5 213.5t266.5 85.5q160 0 251 -106.5t91 -290.5q0 -81 -33.5 -169.5t-93 -166t-156 -128t-208.5 -50.5q-172 0 -260 97.5t-88 289.5
q0 96 19.5 207.5t55.5 227.5t93.5 223.5t127.5 191.5t162.5 134t194.5 50zM610 858q-86 0 -162 -30t-130.5 -79.5t-94 -113t-59 -132.5t-19.5 -136q0 -355 316 -355q106 0 196 48t145.5 121.5t86.5 155.5t31 157q0 170 -81.5 267t-228.5 97z" />
    <glyph glyph-name="seven.lf" horiz-adv-x="937" 
d="M1118 1380l-8 -32q-129 -140 -237 -271.5t-227 -297t-233 -362t-218 -417.5h-35q108 227 223 425t233 363t224.5 294t232.5 266h-837l8 32h874z" />
    <glyph glyph-name="eight.lf" horiz-adv-x="1087" 
d="M729 1401q156 0 249 -86.5t93 -231.5q0 -132 -98 -240.5t-264 -135.5v-2q101 -34 163 -114t62 -194q0 -56 -19.5 -113.5t-60.5 -112t-98 -97t-137.5 -68.5t-172.5 -26q-170 0 -271 92t-101 247q0 139 110 258.5t291 143.5v2q-91 27 -146 101.5t-55 179.5q0 67 31 136
t86.5 127.5t144.5 96t193 37.5zM729 1368q-97 0 -179.5 -34.5t-134 -89t-80 -117.5t-28.5 -123q0 -125 82 -200t229 -75q103 0 186 33t132.5 86t75.5 113.5t26 121.5q0 131 -83.5 208t-225.5 77zM561 698q-104 0 -192.5 -35t-144.5 -90.5t-87 -121.5t-31 -132
q0 -141 91.5 -224t248.5 -83q87 0 162.5 24t128 63.5t90.5 90t56 103.5t18 104q0 132 -93.5 216.5t-246.5 84.5z" />
    <glyph glyph-name="nine.lf" horiz-adv-x="1075" 
d="M395 -20q-157 0 -237 79t-80 222q0 18 2 34h33q-2 -16 -2 -34q0 -129 70.5 -199t213.5 -70q190 0 353 198t249 578h-4q-54 -128 -175.5 -213.5t-266.5 -85.5q-160 0 -251 107t-91 291q0 81 33.5 169.5t93 166t156 128t208.5 50.5q172 0 260.5 -97.5t88.5 -289.5
q0 -96 -19.5 -207.5t-56 -227.5t-94 -223.5t-127 -191t-162.5 -134t-195 -50.5zM551 522q86 0 162 30t130.5 79.5t94 113.5t59 133t19.5 136q0 354 -316 354q-85 0 -161 -31.5t-129 -82.5t-92 -114.5t-57.5 -128.5t-18.5 -124q0 -170 81 -267.5t228 -97.5z" />
    <glyph glyph-name="zero.dnom" horiz-adv-x="692" 
d="M403 842q209 0 209 -279q0 -84 -23 -179.5t-66.5 -186t-118.5 -150t-166 -59.5q-211 0 -211 276q0 54 10 116t29.5 127.5t51.5 125t72 106.5t95 75t118 28zM403 809q-85 0 -154 -57.5t-108.5 -144.5t-60.5 -177t-21 -166q0 -124 43.5 -184t135.5 -60q68 0 126 38.5
t96.5 98t66.5 133.5t40.5 143.5t12.5 129.5q0 246 -177 246z" />
    <glyph glyph-name="one.dnom" horiz-adv-x="385" 
d="M109 0h-33l182 731h-2q-61 -74 -203 -74l8 33q91 0 141 31t81 106h32z" />
    <glyph glyph-name="two.dnom" horiz-adv-x="671" 
d="M395 842q99 0 156 -54t57 -143q0 -96 -68 -165.5t-241 -145.5q-84 -37 -141 -72t-91.5 -72.5t-52.5 -73t-30 -83.5h499l-8 -33h-532q23 130 99 210.5t245 154.5q165 73 226.5 133t61.5 147q0 75 -47.5 119.5t-132.5 44.5q-92 0 -162.5 -56.5t-93.5 -148.5h-35
q31 111 108.5 174.5t182.5 63.5z" />
    <glyph glyph-name="three.dnom" horiz-adv-x="669" 
d="M369 842q108 0 170.5 -53t62.5 -142q0 -76 -57 -139.5t-162 -87.5v-2q135 -42 135 -178q0 -45 -20 -89t-57 -80.5t-96.5 -59.5t-131.5 -23q-112 0 -171.5 50t-59.5 138q0 25 6 49h32q-6 -24 -6 -49q0 -74 51.5 -115t147.5 -41q126 0 199 67.5t73 152.5q0 79 -52.5 122.5
t-147.5 43.5h-54l9 32h49q71 0 127 19.5t88 51.5t48.5 67t16.5 71q0 74 -53 118t-147 44t-161.5 -53t-88.5 -150h-33q26 115 101 175.5t182 60.5z" />
    <glyph glyph-name="four.dnom" horiz-adv-x="643" 
d="M555 248h-172l-61 -248h-33l61 248h-399l8 39l520 540h49l-137 -546h172zM-4 281h362l33 133q56 225 94 372h-2q-62 -66 -177.5 -186t-143.5 -149z" />
    <glyph glyph-name="five.dnom" horiz-adv-x="663" 
d="M618 795h-395l-125 -359h2q35 44 89 70t118 26q102 0 160.5 -60t58.5 -165q0 -54 -21.5 -109t-60.5 -102.5t-102 -77.5t-139 -30q-98 0 -153.5 46.5t-55.5 129.5q0 22 6 49h33q-6 -27 -6 -49q0 -69 45.5 -106.5t130.5 -37.5q69 0 126.5 27.5t92 71t53.5 92.5t19 96
q0 90 -49 141.5t-138 51.5q-76 0 -138 -39.5t-103 -116.5l-31 2l168 481h424z" />
    <glyph glyph-name="six.dnom" horiz-adv-x="669" 
d="M426 842q92 0 143.5 -50t51.5 -137v-20h-33v16q0 75 -42.5 116.5t-119.5 41.5q-120 0 -214.5 -109t-145.5 -323h2q36 70 107 115t153 45q100 0 157.5 -66t57.5 -176q0 -50 -20 -102.5t-57 -99t-96.5 -76t-129.5 -29.5q-108 0 -165 61t-57 180q0 70 15.5 150.5t49.5 162.5
t80.5 149t115 109t147.5 42zM324 504q-63 0 -116.5 -25t-86.5 -65.5t-51.5 -88.5t-18.5 -96q0 -209 189 -209q63 0 116.5 27t86 69t50 89t17.5 90q0 96 -49 152.5t-137 56.5z" />
    <glyph glyph-name="seven.dnom" horiz-adv-x="585" 
d="M641 827l-8 -30q-342 -365 -549 -797h-37q125 257 257.5 445.5t283.5 349.5h-502l8 32h547z" />
    </font>
</defs>
</svg>
