<?xml version="1.0" standalone="no"?>
<!DOCTYPE svg PUBLIC "-//W3C//DTD SVG 1.1//EN" "http://www.w3.org/Graphics/SVG/1.1/DTD/svg11.dtd" >
<svg xmlns="http://www.w3.org/2000/svg" xmlns:xlink="http://www.w3.org/1999/xlink" version="1.1">
<metadata>
Created by FontForge 20170731 at Fri Sep 10 11:24:10 2021
 By Aleksey,,,
Copyright (c) 2015 Monotype Imaging Inc.  All rights reserved.
</metadata>
<defs>
<font id="NeueHaasUnicaPro-Italic" horiz-adv-x="1179" >
  <font-face 
    font-family="Neue Haas Unica Pro"
    font-weight="400"
    font-style="italic"
    font-variant="small-caps"
    font-stretch="normal"
    units-per-em="2048"
    panose-1="2 11 5 4 3 2 6 9 2 3"
    ascent="1565"
    descent="-483"
    x-height="1040"
    cap-height="1458"
    bbox="-446 -563 2148 1952"
    underline-thickness="102"
    underline-position="-307"
    slope="-14"
    unicode-range="U+0020-FEFF"
  />
<missing-glyph horiz-adv-x="1275" 
d="M309 1591h658q125 0 196.5 -71.5t71.5 -196.5v-1188q0 -125 -71.5 -196.5t-196.5 -71.5h-658q-123 0 -195.5 72t-72.5 196v1188q0 124 72.5 196t195.5 72zM967 1491h-658q-77 0 -122.5 -45t-45.5 -123v-1188q0 -78 45.5 -123t122.5 -45h658q77 0 122.5 45t45.5 123v1188
q0 78 -45.5 123t-122.5 45zM633 1323q158 0 254 -82.5t96 -218.5q0 -87 -32.5 -146.5t-131.5 -146.5q-89 -77 -114 -133.5t-25 -181.5h-148v55q0 123 30 188.5t126 155.5q74 70 95.5 109.5t21.5 97.5q0 72 -46.5 114t-125.5 42q-184 0 -193 -201h-172q7 170 101.5 259
t263.5 89zM702 133h-192v186h192v-186z" />
    <glyph glyph-name="f_f" unicode="ff" horiz-adv-x="1183" 
d="M1278 1468q59 0 113 -12l-35 -137q-18 6 -56 6q-78 0 -126 -43.5t-74 -144.5l-25 -97h207l-37 -143h-205l-223 -897h-178l223 897h-379l-225 -897h-178l223 897h-182l35 143h184l35 144q71 284 344 284q58 0 112 -12l-32 -137q-21 6 -58 6q-77 0 -125.5 -44t-72.5 -144
l-25 -97h381l35 144q71 284 344 284z" />
    <glyph glyph-name="f_f_i" unicode="ffi" horiz-adv-x="1683" 
d="M1040 897l-223 -897h-178l223 897h-379l-225 -897h-178l223 897h-182l35 143h184l35 144q71 284 344 284q58 0 112 -12l-32 -137q-21 6 -58 6q-77 0 -125.5 -44t-72.5 -144l-25 -97h381l35 144q71 284 344 284q59 0 113 -12l-35 -137q-18 6 -56 6q-78 0 -126 -43.5
t-74 -144.5l-25 -97h207l-37 -143h-205zM1757 1458l-49 -203h-180l49 203h180zM1473 1040h180l-258 -1040h-181z" />
    <glyph glyph-name="f_f_l" unicode="ffl" horiz-adv-x="1683" 
d="M1040 897l-223 -897h-178l223 897h-379l-225 -897h-178l223 897h-182l35 143h184l35 144q71 284 344 284q58 0 112 -12l-32 -137q-21 6 -58 6q-77 0 -125.5 -44t-72.5 -144l-25 -97h381l35 144q71 284 344 284q59 0 113 -12l-35 -137q-18 6 -56 6q-78 0 -126 -43.5
t-74 -144.5l-25 -97h207l-37 -143h-205zM1757 1458l-362 -1458h-181l363 1458h180z" />
    <glyph glyph-name="f_i" unicode="fi" horiz-adv-x="1124" 
d="M483 897l-225 -897h-178l223 897h-182l35 143h184l35 144q71 284 344 284q58 0 112 -12l-32 -137q-21 6 -58 6q-77 0 -125.5 -44t-72.5 -144l-25 -97h205l-35 -143h-205zM1198 1458l-49 -203h-180l49 203h180zM913 1040h181l-258 -1040h-181z" />
    <glyph glyph-name="f_l" unicode="fl" horiz-adv-x="1124" 
d="M483 897l-225 -897h-178l223 897h-182l35 143h184l35 144q71 284 344 284q58 0 112 -12l-32 -137q-21 6 -58 6q-77 0 -125.5 -44t-72.5 -144l-25 -97h205l-35 -143h-205zM1198 1458l-362 -1458h-181l363 1458h180z" />
    <glyph glyph-name=".notdef" horiz-adv-x="1275" 
d="M309 1591h658q125 0 196.5 -71.5t71.5 -196.5v-1188q0 -125 -71.5 -196.5t-196.5 -71.5h-658q-123 0 -195.5 72t-72.5 196v1188q0 124 72.5 196t195.5 72zM967 1491h-658q-77 0 -122.5 -45t-45.5 -123v-1188q0 -78 45.5 -123t122.5 -45h658q77 0 122.5 45t45.5 123v1188
q0 78 -45.5 123t-122.5 45zM633 1323q158 0 254 -82.5t96 -218.5q0 -87 -32.5 -146.5t-131.5 -146.5q-89 -77 -114 -133.5t-25 -181.5h-148v55q0 123 30 188.5t126 155.5q74 70 95.5 109.5t21.5 97.5q0 72 -46.5 114t-125.5 42q-184 0 -193 -201h-172q7 170 101.5 259
t263.5 89zM702 133h-192v186h192v-186z" />
    <glyph glyph-name=".null" horiz-adv-x="0" 
 />
    <glyph glyph-name="nonmarkingreturn" horiz-adv-x="682" 
 />
    <glyph glyph-name="space" unicode=" " horiz-adv-x="471" 
 />
    <glyph glyph-name="exclam" unicode="!" horiz-adv-x="563" 
d="M313 358h-143l229 1100h232zM260 0h-213l53 217h213z" />
    <glyph glyph-name="quotedbl" unicode="&#x22;" horiz-adv-x="761" 
d="M393 920h-133l113 538h176zM700 920h-133l113 538h178z" />
    <glyph glyph-name="numbersign" unicode="#" horiz-adv-x="1329" 
d="M1079 860l-137 -336h242l-56 -133h-239l-160 -391h-156l160 391h-295l-159 -391h-156l160 391h-244l55 133h242l137 336h-244l56 135h243l158 385h156l-158 -385h295l158 385h155l-157 -385h239l-55 -135h-240zM924 860h-295l-137 -336h294z" />
    <glyph glyph-name="dollar" unicode="$" horiz-adv-x="1150" 
d="M1147 954h-174q10 52 10 88q0 168 -162 207l-119 -473q62 -23 104.5 -42t88.5 -50.5t73 -67.5t44.5 -89t17.5 -119q0 -60 -20.5 -120t-64 -116.5t-104.5 -100t-149 -70.5t-190 -28l-43 -176h-127l45 185q-155 23 -237.5 112.5t-82.5 239.5q0 52 13 125h178
q-12 -59 -12 -105q0 -184 180 -223l127 514q-59 23 -98.5 42.5t-81.5 49.5t-66.5 64t-40.5 83.5t-16 110.5q0 70 30.5 140.5t89 132.5t156 101t217.5 40l39 156h127l-41 -164q303 -46 303 -334q0 -58 -14 -113zM418 1020q0 -74 40.5 -120t127.5 -81l110 441
q-127 -7 -202.5 -77t-75.5 -163zM850 387q0 82 -45.5 128.5t-145.5 86.5l-118 -479q80 4 142.5 30.5t97 65.5t52 82t17.5 86z" />
    <glyph glyph-name="percent" unicode="%" horiz-adv-x="1769" 
d="M422 -61h-139l1149 1503h139zM594 1409q128 0 194 -71.5t66 -207.5q0 -82 -24.5 -167.5t-70 -160.5t-121.5 -123t-169 -48q-129 0 -195.5 71.5t-66.5 208.5q0 65 14.5 133t46.5 133.5t76.5 117t109 83t140.5 31.5zM588 1282q-54 0 -98 -39t-69 -97.5t-38.5 -119.5
t-13.5 -113q0 -155 104 -155q54 0 98.5 39t70 98t39 120t13.5 113q0 154 -106 154zM1386 750q130 0 196.5 -71.5t66.5 -207.5q0 -82 -24.5 -167.5t-70 -161t-121.5 -123.5t-169 -48q-129 0 -197 72t-68 209q0 65 15 133t47 133.5t76.5 117t109 83t139.5 31.5zM1382 623
q-54 0 -98.5 -39t-70 -98t-39 -119.5t-13.5 -112.5q0 -156 107 -156q54 0 98.5 39t70 98.5t39 120.5t13.5 113q0 154 -107 154z" />
    <glyph glyph-name="ampersand" unicode="&#x26;" horiz-adv-x="1503" 
d="M1237 817h182q-76 -308 -274 -528l219 -289h-225l-129 170q-105 -95 -236.5 -148t-263.5 -53q-207 0 -320.5 96t-113.5 261q0 151 106.5 284.5t337.5 223.5q-52 83 -74 146.5t-22 131.5q0 67 26.5 132.5t75.5 120t128 88.5t175 34q148 0 232 -77.5t84 -209.5
q0 -123 -85.5 -227.5t-287.5 -194.5l272 -358q135 163 193 397zM813 1331q-71 0 -121.5 -35t-72 -83t-21.5 -99q0 -50 20 -101t70 -128q285 131 285 303q0 67 -42 105t-118 38zM541 131q200 0 377 160l-320 422q-328 -144 -328 -367q0 -97 72 -156t199 -59z" />
    <glyph glyph-name="quotesingle" unicode="'" horiz-adv-x="454" 
d="M393 920h-133l113 538h176z" />
    <glyph glyph-name="parenleft" unicode="(" horiz-adv-x="598" 
d="M621 1518h163q-254 -315 -379.5 -648t-125.5 -643q0 -255 53 -528h-148q-94 290 -94 588q0 306 134.5 629.5t396.5 601.5z" />
    <glyph glyph-name="parenright" unicode=")" horiz-adv-x="598" 
d="M23 -301h-166q255 315 381.5 647.5t126.5 642.5q0 241 -56 529h150q92 -284 92 -588q0 -307 -133.5 -630t-394.5 -601z" />
    <glyph glyph-name="asterisk" unicode="*" horiz-adv-x="833" 
d="M629 1171l274 52l12 -164l-276 18l133 -241l-151 -62l-74 270l-189 -204l-106 127l231 149l-254 113l88 139l220 -172l34 279l158 -39z" />
    <glyph glyph-name="plus" unicode="+" horiz-adv-x="1159" 
d="M653 723h361v-150h-361v-358h-147v358h-361v150h361v360h147v-360z" />
    <glyph glyph-name="comma" unicode="," horiz-adv-x="462" 
d="M213 0l-180 -295h-119l152 295h-74l57 240h223z" />
    <glyph glyph-name="hyphen" unicode="-" horiz-adv-x="614" 
d="M553 518h-492l39 160h492z" />
    <glyph glyph-name="period" unicode="." horiz-adv-x="462" 
d="M213 0h-221l57 240h223z" />
    <glyph glyph-name="slash" unicode="/" horiz-adv-x="946" 
d="M61 -182h-176l1030 1708h177z" />
    <glyph glyph-name="zero" unicode="0" horiz-adv-x="1150" 
d="M752 1409q193 0 291 -124t98 -361q0 -79 -12.5 -167t-39.5 -180.5t-65.5 -179.5t-93.5 -164.5t-120 -135.5t-148.5 -92t-176.5 -34q-192 0 -289.5 124t-97.5 362q0 93 18 196.5t52 211t90 204.5t126 173.5t165.5 121.5t202.5 45zM739 1243q-63 0 -120.5 -30t-102 -81
t-82.5 -117.5t-64 -140t-45 -149t-27.5 -143t-8.5 -123.5q0 -160 53 -243t156 -83q87 0 163.5 57.5t127.5 146t88 195.5t54 206.5t17 179.5q0 159 -52.5 242t-156.5 83z" />
    <glyph glyph-name="one" unicode="1" horiz-adv-x="1150" 
d="M582 0h-187l250 1006h-309l35 143q163 0 253.5 52.5t141.5 178.5h160z" />
    <glyph glyph-name="two" unicode="2" horiz-adv-x="1150" 
d="M750 1409q180 0 284.5 -93.5t104.5 -248.5q0 -164 -113.5 -286.5t-376.5 -252.5q-153 -77 -240.5 -138t-125.5 -111t-58 -117h731l-38 -162h-949q30 162 95 274.5t177 200t304 182.5q225 111 310 194.5t85 195.5q0 95 -52.5 146.5t-150.5 51.5q-118 0 -196.5 -70.5
t-114.5 -199.5h-199q56 210 194 322t329 112z" />
    <glyph glyph-name="three" unicode="3" horiz-adv-x="1150" 
d="M735 1409q195 0 302.5 -91t107.5 -249q0 -124 -79 -225t-245 -152v-4q183 -77 183 -278q0 -75 -33.5 -151t-96.5 -141t-165.5 -106t-227.5 -41q-206 0 -315 89t-109 253q0 46 13 103h188q-10 -41 -10 -86q0 -97 60.5 -147t178.5 -50q77 0 141.5 25.5t104.5 66t62 88.5
t22 95q0 104 -68.5 157t-201.5 53h-55l40 158h52q76 0 139.5 17.5t105.5 45.5t71.5 65t42.5 75t13 76q0 89 -62 140.5t-171 51.5q-120 0 -201 -69t-114 -205h-191q47 205 185.5 320.5t332.5 115.5z" />
    <glyph glyph-name="four" unicode="4" horiz-adv-x="1150" 
d="M1061 356h-225l-88 -356h-187l88 356h-651l45 183l786 841h263l-218 -868h226zM225 512h467l45 190q11 43 58 223.5t73 274.5h-4q-237 -263 -424 -461z" />
    <glyph glyph-name="five" unicode="5" horiz-adv-x="1150" 
d="M1153 1221h-625l-137 -400h4q106 86 256 86q179 0 278 -104t99 -285q0 -72 -22.5 -147.5t-69.5 -147t-112.5 -128t-159 -90.5t-201.5 -34q-186 0 -293 83t-107 229q0 31 11 84h190q-6 -30 -6 -56q0 -84 60.5 -130t162.5 -46q70 0 130 24t100 62.5t68.5 88t41.5 99.5
t13 97q0 115 -61.5 178.5t-172.5 63.5q-92 0 -166.5 -50.5t-118.5 -144.5l-184 12l281 815h782z" />
    <glyph glyph-name="six" unicode="6" horiz-adv-x="1150" 
d="M782 1409q184 0 283.5 -89t99.5 -243q0 -31 -4 -51h-190q2 10 2 25q0 194 -199 194q-136 0 -252 -122t-184 -363h4q142 139 332 139q171 0 268.5 -108t97.5 -293q0 -67 -22 -139.5t-67 -141.5t-106.5 -124t-148.5 -88.5t-186 -33.5q-196 0 -297.5 114t-101.5 339
q0 96 19 203.5t55.5 218.5t94.5 211.5t129.5 179.5t168.5 125.5t204 46.5zM627 745q-79 0 -145.5 -34.5t-107 -88.5t-63 -115.5t-22.5 -119.5q0 -118 59 -185t168 -67q78 0 143 35t104 88.5t60 113t21 113.5q0 121 -57 190.5t-160 69.5z" />
    <glyph glyph-name="seven" unicode="7" horiz-adv-x="1150" 
d="M1255 1380l-41 -166q-221 -238 -422 -547t-356 -667h-223q180 388 386.5 695t408.5 522h-748l41 163h954z" />
    <glyph glyph-name="eight" unicode="8" horiz-adv-x="1150" 
d="M748 1409q187 0 298 -93t111 -249q0 -128 -83 -228t-238 -145v-4q88 -40 135 -116.5t47 -180.5q0 -75 -34.5 -148.5t-97.5 -135.5t-165 -100t-225 -38q-202 0 -318.5 101t-116.5 276q0 133 90.5 238t264.5 147v4q-78 42 -121 112.5t-43 162.5q0 68 33.5 137t94 127.5
t157.5 95.5t211 37zM733 1247q-141 0 -221 -79.5t-80 -176.5q0 -94 62 -147t174 -53q76 0 136 24t95 62.5t52.5 82t17.5 87.5q0 93 -63.5 146.5t-172.5 53.5zM578 631q-78 0 -142.5 -25.5t-103.5 -67t-59.5 -89t-20.5 -95.5q0 -103 68 -161t188 -58q80 0 144.5 26.5t103 68
t58.5 89.5t20 95q0 100 -68.5 158.5t-187.5 58.5z" />
    <glyph glyph-name="nine" unicode="9" horiz-adv-x="1150" 
d="M440 -29q-184 0 -283.5 89t-99.5 243q0 31 2 51h191q0 -6 -1 -14t-1 -10q0 -195 198 -195q137 0 254 122.5t183 363.5h-4q-140 -140 -332 -140q-170 0 -268.5 108.5t-98.5 293.5q0 67 22 139.5t67.5 141.5t107.5 123.5t149.5 88t186.5 33.5q196 0 296.5 -114t100.5 -339
q0 -116 -26.5 -246.5t-82.5 -262t-133 -237.5t-189 -172.5t-239 -66.5zM594 635q64 0 120.5 23t95.5 60t67 84t41.5 96t13.5 95q0 119 -58 185.5t-167 66.5q-64 0 -119 -23t-93 -60t-65 -83.5t-40 -93.5t-13 -90q0 -121 57 -190.5t160 -69.5z" />
    <glyph glyph-name="colon" unicode=":" horiz-adv-x="462" 
d="M414 801h-224l60 239h221zM213 0h-221l57 240h223z" />
    <glyph glyph-name="semicolon" unicode=";" horiz-adv-x="462" 
d="M414 801h-224l60 239h221zM213 0l-180 -295h-119l152 295h-74l57 240h223z" />
    <glyph glyph-name="less" unicode="&#x3c;" horiz-adv-x="1159" 
d="M1014 942l-701 -291v-4l701 -291v-163l-869 364v184l869 365v-164z" />
    <glyph glyph-name="equal" unicode="=" horiz-adv-x="1159" 
d="M1014 741h-869v152h869v-152zM1014 403h-869v152h869v-152z" />
    <glyph glyph-name="greater" unicode="&#x3e;" horiz-adv-x="1159" 
d="M1014 741v-184l-869 -364v163l701 291v4l-701 291v164z" />
    <glyph glyph-name="question" unicode="?" horiz-adv-x="1056" 
d="M715 1487q189 0 297 -93.5t108 -252.5q0 -114 -65 -209.5t-242 -212.5q-97 -64 -146 -111t-79.5 -106.5t-59.5 -163.5h-159q29 134 63 210t89 133.5t165 133.5q80 56 130 101t74.5 83t32 67t7.5 67q0 89 -58.5 139.5t-162.5 50.5q-120 0 -202 -66.5t-118 -197.5h-186
q53 209 186.5 318.5t325.5 109.5zM471 0h-213l53 217h213z" />
    <glyph glyph-name="at" unicode="@" horiz-adv-x="1777" 
d="M1026 1419q328 0 512 -167.5t184 -458.5q0 -93 -21.5 -184.5t-64.5 -173.5t-102 -144.5t-140.5 -99.5t-174.5 -37q-97 0 -144 49t-39 135h-4q-129 -184 -313 -184q-119 0 -181.5 77t-62.5 224q0 73 22 155t65.5 162t101.5 144.5t137.5 104.5t165.5 40q193 0 219 -182h4
q20 51 70 161h155q-101 -217 -173.5 -408.5t-72.5 -258.5q0 -84 88 -84q77 0 142.5 50t105.5 127t62 162.5t22 162.5q0 232 -151 365.5t-418 133.5q-109 0 -208 -28.5t-176 -78t-142 -116t-111 -142.5t-78 -157.5t-47.5 -161t-15.5 -153.5q0 -258 134.5 -399.5t377.5 -141.5
q260 0 473 115l45 -115q-228 -129 -510 -129q-310 0 -483 174t-173 487q0 102 27 212t77.5 219t131 207t179 173.5t229.5 119.5t276 44zM975 918q-73 0 -137.5 -47t-105 -116.5t-64 -145t-23.5 -136.5q0 -174 135 -174q70 0 134 50t105 122.5t65 150.5t24 138q0 76 -34 117
t-99 41z" />
    <glyph glyph-name="A" unicode="A" horiz-adv-x="1382" 
d="M1006 434h-644l-268 -434h-213l916 1458h256l192 -1458h-188zM987 600l-16 133q-37 304 -66 594h-4q-176 -300 -354 -594l-82 -133h522z" />
    <glyph glyph-name="B" unicode="B" horiz-adv-x="1284" 
d="M428 1458h438q220 0 329.5 -84t109.5 -235q0 -59 -19 -117.5t-57.5 -113.5t-104.5 -100.5t-153 -70.5v-4q96 -27 145 -101t49 -183q0 -78 -34 -155.5t-98.5 -144t-173 -108t-243.5 -41.5h-550zM578 1298l-119 -477h274q105 0 182.5 26t118.5 69.5t59.5 90.5t18.5 99
q0 97 -66.5 144.5t-209.5 47.5h-258zM420 664l-127 -504h319q98 0 171 26t113 70.5t58.5 93.5t18.5 103q0 105 -67 158t-210 53h-276z" />
    <glyph glyph-name="C" unicode="C" horiz-adv-x="1413" 
d="M915 1487q229 0 362.5 -128.5t133.5 -336.5q0 -45 -6 -88h-195q4 50 4 70q0 145 -85.5 228t-233.5 83q-110 0 -205 -47.5t-161 -125t-113 -176.5t-69.5 -201.5t-22.5 -199.5q0 -194 90 -308t254 -114q147 0 268 89t178 239h197q-75 -231 -252 -365.5t-408 -134.5
q-248 0 -386 156t-138 422q0 126 30.5 255t95.5 252t156 219t222.5 154t283.5 58z" />
    <glyph glyph-name="D" unicode="D" horiz-adv-x="1480" 
d="M428 1458h350q330 0 500 -159t170 -463q0 -117 -31.5 -232.5t-101.5 -225t-170.5 -193.5t-249 -134.5t-326.5 -50.5h-503zM573 1290l-280 -1122h285q117 0 217.5 28.5t172.5 78.5t127 114t88 138.5t49.5 148.5t16.5 147q0 230 -120.5 348.5t-358.5 118.5h-197z" />
    <glyph glyph-name="E" unicode="E" horiz-adv-x="1265" 
d="M1327 1290h-752l-114 -461h708l-41 -165h-710l-123 -496h774l-41 -168h-962l362 1458h940z" />
    <glyph glyph-name="F" unicode="F" horiz-adv-x="1173" 
d="M1300 1290h-725l-124 -497h679l-40 -168h-680l-156 -625h-188l362 1458h913z" />
    <glyph glyph-name="G" unicode="G" horiz-adv-x="1497" 
d="M948 1487q234 0 367 -117t133 -317q0 -26 -4 -66h-201q2 12 2 35q0 139 -83 216t-232 77q-117 0 -218.5 -47.5t-171.5 -125.5t-120.5 -178t-74 -205.5t-23.5 -207.5q0 -194 88 -305t256 -111q79 0 153 26t141 78t120 139.5t81 201.5h-401l41 161h581l-184 -741h-168
l41 168h-4q-74 -89 -196 -142t-255 -53q-228 0 -357.5 156.5t-129.5 417.5q0 108 23.5 218t68 215.5t115 197t158.5 160.5t205 109t249 40z" />
    <glyph glyph-name="H" unicode="H" horiz-adv-x="1509" 
d="M1188 0h-191l168 674h-743l-168 -674h-188l362 1458h188l-153 -618h745l152 618h190z" />
    <glyph glyph-name="I" unicode="I" horiz-adv-x="577" 
d="M254 0h-188l362 1458h188z" />
    <glyph glyph-name="J" unicode="J" horiz-adv-x="729" 
d="M778 1458l-266 -1067q-98 -401 -489 -401q-76 0 -119 18l39 162q42 -10 77 -10q126 0 202.5 67.5t115.5 227.5l252 1003h188z" />
    <glyph glyph-name="K" unicode="K" horiz-adv-x="1280" 
d="M637 752l506 -752h-230l-473 731h-4l-182 -731h-188l362 1458h188l-159 -643h4l725 643h260z" />
    <glyph glyph-name="L" unicode="L" horiz-adv-x="1148" 
d="M295 168h743l-39 -168h-933l362 1458h188z" />
    <glyph glyph-name="M" unicode="M" horiz-adv-x="1912" 
d="M1589 0h-184l184 741q87 342 144 557h-4q-16 -26 -143 -236.5t-195 -320.5l-455 -741h-217l-88 741q-50 469 -58 557h-4l-135 -557l-184 -741h-184l362 1458h291l84 -719q32 -294 55 -559h4q205 355 332 559l440 719h318z" />
    <glyph glyph-name="N" unicode="N" horiz-adv-x="1546" 
d="M1225 0h-262l-199 629q-81 260 -201 653h-4q-95 -417 -166 -698l-143 -584h-184l362 1458h260l199 -629q24 -75 200 -653h5q103 452 163 698l148 584h184z" />
    <glyph glyph-name="O" unicode="O" horiz-adv-x="1499" 
d="M909 1487q263 0 412 -165t149 -439q0 -104 -23 -211t-66.5 -208.5t-111 -191t-151.5 -156.5t-194 -106t-232 -39q-263 0 -411 164.5t-148 439.5q0 104 23 210.5t66 208.5t110.5 191.5t151 156.5t193.5 106t232 39zM903 1315q-108 0 -203 -46t-162.5 -121.5t-116.5 -172
t-73 -199t-24 -201.5q0 -197 98.5 -314.5t275.5 -117.5q107 0 202 45.5t163 120.5t117.5 171t73.5 199t24 202q0 198 -99 316t-276 118z" />
    <glyph glyph-name="P" unicode="P" horiz-adv-x="1261" 
d="M428 1458h424q235 0 355 -104.5t120 -292.5q0 -67 -20 -133.5t-64.5 -130t-108 -112t-158 -78t-206.5 -29.5h-373l-143 -578h-188zM575 1294l-137 -553h334q76 0 138.5 19t103 50t68 72t39.5 83t12 84q0 119 -73.5 182t-221.5 63h-263z" />
    <glyph glyph-name="Q" unicode="Q" horiz-adv-x="1497" 
d="M1473 893q0 -204 -84.5 -408t-237.5 -338l119 -180l-133 -88l-117 176q-155 -84 -338 -84q-260 0 -406.5 162t-146.5 432q0 127 32 256t99 248.5t158.5 212.5t221.5 149t278 56q260 0 407.5 -162t147.5 -432zM700 137q121 0 228 58l-152 227l133 88l146 -219
q109 111 169 270.5t60 317.5q0 200 -100 318t-279 118q-108 0 -203.5 -46t-163.5 -122.5t-117 -173.5t-73 -199.5t-24 -200.5q0 -200 98.5 -318t277.5 -118z" />
    <glyph glyph-name="R" unicode="R" horiz-adv-x="1310" 
d="M428 1458h442q220 0 327.5 -89t107.5 -257q0 -142 -100 -266.5t-273 -159.5v-4q64 -24 96 -83t51 -191l51 -408h-192l-43 385q-13 130 -63.5 179.5t-169.5 49.5h-254l-154 -614h-188zM575 1296l-129 -522h293q79 0 143 19.5t105 50.5t68.5 71.5t39 80t11.5 77.5
q0 223 -262 223h-269z" />
    <glyph glyph-name="S" unicode="S" horiz-adv-x="1247" 
d="M786 1487q463 0 463 -365q0 -57 -14 -114h-191q11 60 11 88q0 229 -287 229q-153 0 -238.5 -76t-85.5 -172q0 -94 66 -145t221 -101q52 -18 88 -32t79.5 -34.5t72.5 -41.5t58.5 -51.5t46.5 -64.5t27.5 -79.5t10.5 -99.5q0 -63 -22.5 -127t-70 -123.5t-114 -105.5
t-162.5 -73.5t-208 -27.5q-231 0 -355.5 99t-124.5 288q0 58 15 125h192q-12 -58 -12 -104q0 -246 303 -246q94 0 167 26t113 68t60 87.5t20 91.5q0 52 -17.5 90.5t-58.5 68t-87 50t-123 47.5q-63 22 -103 38t-89 41t-78.5 52.5t-56.5 65t-39.5 86.5t-12.5 110
q0 58 20.5 117.5t64.5 116.5t105.5 101t151 70.5t194.5 26.5z" />
    <glyph glyph-name="T" unicode="T" horiz-adv-x="1226" 
d="M1399 1290h-498l-321 -1290h-191l322 1290h-498l41 168h1186z" />
    <glyph glyph-name="U" unicode="U" horiz-adv-x="1443" 
d="M1497 1458l-248 -989q-61 -243 -220 -370.5t-396 -127.5q-221 0 -339 114t-118 325q0 90 27 204l213 844h188l-219 -883q-23 -85 -23 -153q0 -138 74.5 -208.5t212.5 -70.5q159 0 268 94.5t156 278.5l234 942h190z" />
    <glyph glyph-name="V" unicode="V" horiz-adv-x="1277" 
d="M633 0h-246l-139 1458h184l60 -649q30 -308 51 -625h4q192 350 356 625l385 649h211z" />
    <glyph glyph-name="W" unicode="W" horiz-adv-x="1875" 
d="M1386 0h-270l4 637q0 183 13 653h-5q-101 -216 -315 -653l-311 -637h-271l23 1458h180l-10 -590q-6 -347 -18 -686h4q150 321 331 688l289 588h264l-4 -588q0 -234 -8 -688h4q116 254 322 686l282 590h199z" />
    <glyph glyph-name="X" unicode="X" horiz-adv-x="1271" 
d="M807 737l321 -737h-204l-250 600h-4l-537 -600h-248l695 758l-304 700h201l236 -567h4l502 567h243z" />
    <glyph glyph-name="Y" unicode="Y" horiz-adv-x="1257" 
d="M745 604l-151 -604h-188l149 604l-313 854h196l105 -301q80 -237 125 -385h4q123 153 317 385l254 301h240z" />
    <glyph glyph-name="Z" unicode="Z" horiz-adv-x="1159" 
d="M1268 1266l-1086 -1096v-4h850l-39 -166h-1085l47 193l1087 1095v4h-790l41 166h1024z" />
    <glyph glyph-name="bracketleft" unicode="[" horiz-adv-x="608" 
d="M791 1397h-244l-393 -1579h241l-28 -121h-416l452 1821h416z" />
    <glyph glyph-name="backslash" unicode="\" horiz-adv-x="935" 
d="M465 1526l190 -1708h-151l-193 1708h154z" />
    <glyph glyph-name="bracketright" unicode="]" horiz-adv-x="608" 
d="M-139 -182h243l394 1579h-242l29 121h415l-452 -1821h-416z" />
    <glyph glyph-name="asciicircum" unicode="^" horiz-adv-x="919" 
d="M897 760h-168l-266 553h-4l-266 -553h-170l339 698h195z" />
    <glyph glyph-name="underscore" unicode="_" horiz-adv-x="1024" 
d="M842 -207h-1024l26 105h1024z" />
    <glyph glyph-name="grave" unicode="`" horiz-adv-x="614" 
d="M559 1458l113 -293h-146l-190 293h223z" />
    <glyph glyph-name="a" unicode="a" horiz-adv-x="1087" 
d="M623 1069q175 0 268.5 -78t93.5 -235q0 -62 -18 -138l-88 -352q-43 -171 -43 -266h-164q0 54 18 131h-4q-142 -154 -360 -154q-150 0 -233 73.5t-83 195.5q0 297 459 366q191 27 328 33l6 19q12 62 12 92q0 88 -53.5 131t-149.5 43q-106 0 -176.5 -56.5t-91.5 -150.5
h-180q33 153 155.5 249.5t303.5 96.5zM741 420l23 88q-118 -6 -281 -29q-84 -13 -141 -35t-87 -50.5t-42 -58.5t-12 -67q0 -70 48 -110.5t136 -40.5q131 0 225 79.5t131 223.5z" />
    <glyph glyph-name="b" unicode="b" 
d="M444 930h5q59 64 139.5 100.5t165.5 36.5q169 0 262.5 -106t93.5 -295q0 -74 -16.5 -153t-47 -156.5t-78.5 -146t-108 -121.5t-138.5 -83.5t-166.5 -30.5q-113 0 -192.5 56.5t-104.5 152.5h-4l-45 -184h-178l364 1458h180zM700 922q-89 0 -163.5 -49.5t-120 -127.5
t-70 -167t-24.5 -175q0 -134 56.5 -208t160.5 -74q89 0 164 49.5t121 127t71 167t25 174.5q0 134 -57.5 208.5t-162.5 74.5z" />
    <glyph glyph-name="c" unicode="c" horiz-adv-x="1093" 
d="M659 1069q183 0 286.5 -100t103.5 -267q0 -33 -2 -51h-187q2 14 2 41q0 106 -56 168t-157 62q-90 0 -166 -51t-122.5 -130t-72.5 -167.5t-26 -170.5q0 -133 60.5 -208.5t166.5 -75.5q103 0 187.5 68.5t120.5 174.5h190q-60 -175 -196.5 -283t-313.5 -108
q-186 0 -293.5 114.5t-107.5 313.5q0 87 22.5 178.5t70.5 179.5t114.5 157.5t164.5 112t211 42.5z" />
    <glyph glyph-name="d" unicode="d" horiz-adv-x="1177" 
d="M889 0h-178l28 113h-4q-61 -64 -142.5 -102t-166.5 -38q-170 0 -263 106.5t-93 295.5q0 90 22.5 184.5t69 185t111 162t156.5 115t196 43.5q111 0 189.5 -55t105.5 -148h4l147 596h180zM639 920q-72 0 -134.5 -32.5t-106.5 -86.5t-76 -122t-47 -139t-15 -139
q0 -134 57 -208t162 -74q72 0 134.5 32.5t106.5 86t76 121.5t47 139t15 139q0 134 -57 208.5t-162 74.5z" />
    <glyph glyph-name="e" unicode="e" horiz-adv-x="1128" 
d="M1034 483h-776q-12 -61 -12 -108q0 -132 66.5 -198t179.5 -66q103 0 184 55t119 145h184q-58 -146 -190 -243t-308 -97q-199 0 -303 111t-104 309q0 89 23.5 182t73 182t118 159t166.5 112.5t211 42.5q192 0 293.5 -105.5t101.5 -291.5q0 -66 -27 -189zM657 930
q-125 0 -223 -81t-143 -228h596q6 35 6 67q0 118 -62.5 180t-173.5 62z" />
    <glyph glyph-name="f" unicode="f" horiz-adv-x="624" 
d="M719 1468q58 0 112 -12l-32 -137q-21 6 -58 6q-77 0 -125.5 -44t-72.5 -144l-25 -97h205l-35 -143h-205l-225 -897h-178l223 897h-182l35 143h184l35 144q71 284 344 284z" />
    <glyph glyph-name="g" unicode="g" horiz-adv-x="1173" 
d="M621 1067q114 0 191 -55t108 -154h4l45 182h174l-254 -1028q-50 -200 -187.5 -303.5t-341.5 -103.5q-186 0 -284.5 71.5t-98.5 200.5q0 22 7 57h178q-4 -14 -4 -43q0 -71 55 -109t156 -38q139 0 225.5 75t128.5 240l22 93h-4q-142 -142 -323 -142q-161 0 -250.5 108.5
t-89.5 299.5q0 84 22.5 173.5t68.5 174.5t109 152t152.5 108t190.5 41zM625 918q-83 0 -153.5 -48.5t-114 -122.5t-67.5 -156t-24 -155q0 -129 55.5 -201.5t157.5 -72.5q72 0 135 31t107 81t75.5 113.5t46.5 129t15 126.5q0 130 -60.5 202.5t-172.5 72.5z" />
    <glyph glyph-name="h" unicode="h" 
d="M440 924h4q64 66 147.5 102.5t174.5 36.5q147 0 227 -77t80 -224q0 -73 -20 -154l-152 -608h-180l149 608q19 81 19 131q0 176 -180 176q-114 0 -212.5 -84t-136.5 -235l-149 -596h-180l362 1458h180z" />
    <glyph glyph-name="i" unicode="i" horiz-adv-x="499" 
d="M524 1255h-180l49 203h180zM211 0h-180l258 1040h180z" />
    <glyph glyph-name="j" unicode="j" horiz-adv-x="509" 
d="M535 1255h-181l49 203h181zM479 1040l-280 -1122q-76 -305 -353 -305q-65 0 -114 14l35 140q32 -7 55 -7q82 0 132.5 47t78.5 162l266 1071h180z" />
    <glyph glyph-name="k" unicode="k" horiz-adv-x="1024" 
d="M530 555l383 -555h-211l-356 530h-4l-131 -530h-180l362 1458h180l-208 -840h4l499 422h248z" />
    <glyph glyph-name="l" unicode="l" horiz-adv-x="499" 
d="M211 0h-180l362 1458h180z" />
    <glyph glyph-name="m" unicode="m" horiz-adv-x="1767" 
d="M1372 1063q142 0 216.5 -73t74.5 -218q0 -64 -23 -164l-151 -608h-180l153 618q19 84 19 134q0 163 -164 163q-112 0 -198.5 -87.5t-123.5 -237.5l-145 -590h-180l157 639q15 55 15 100q0 85 -41.5 130.5t-120.5 45.5q-113 0 -200.5 -90.5t-125.5 -246.5l-143 -578h-180
l258 1040h174l-27 -112h4q132 135 293 135q109 0 180.5 -51.5t94.5 -149.5q152 201 364 201z" />
    <glyph glyph-name="n" unicode="n" 
d="M766 1063q147 0 227 -77t80 -224q0 -73 -20 -154l-152 -608h-180l149 608q19 81 19 131q0 176 -180 176q-114 0 -212.5 -84t-136.5 -235l-149 -596h-180l260 1040h174l-33 -122h4q66 68 152 106.5t178 38.5z" />
    <glyph glyph-name="o" unicode="o" horiz-adv-x="1157" 
d="M657 1069q203 0 311.5 -115t108.5 -323q0 -88 -22.5 -179.5t-71 -178t-115.5 -153.5t-163.5 -108t-208.5 -41q-201 0 -308.5 115t-107.5 324q0 89 22.5 180t70 177t114.5 153t163 108t207 41zM643 922q-74 0 -137.5 -33t-107 -87t-74.5 -121.5t-45.5 -137t-14.5 -133.5
q0 -139 62.5 -215t183.5 -76q74 0 138.5 33t108.5 87t75.5 121.5t46 137t14.5 133.5q0 139 -63.5 215t-186.5 76z" />
    <glyph glyph-name="p" unicode="p" 
d="M754 1067q169 0 262.5 -106t93.5 -295q0 -74 -16.5 -153t-47 -156.5t-78.5 -146t-108 -121.5t-138.5 -83.5t-166.5 -30.5q-111 0 -189.5 55t-105.5 148h-4l-139 -557h-180l354 1419h178l-29 -112h4q61 64 142.5 101.5t167.5 37.5zM700 922q-89 0 -163.5 -49.5
t-120 -127.5t-70 -167t-24.5 -175q0 -134 56.5 -208t160.5 -74q89 0 164 49.5t121 127t71 167t25 174.5q0 134 -57.5 208.5t-162.5 74.5z" />
    <glyph glyph-name="q" unicode="q" horiz-adv-x="1177" 
d="M627 1067q111 0 189.5 -57.5t105.5 -153.5h4l45 184h178l-354 -1419h-181l121 490h-4q-59 -64 -138.5 -100t-166.5 -36q-169 0 -262.5 106.5t-93.5 295.5q0 90 22.5 185t69 185.5t111 161.5t157 114.5t197.5 43.5zM641 922q-72 0 -135 -32.5t-107 -86.5t-75.5 -122
t-46.5 -139t-15 -139q0 -134 56.5 -208t160.5 -74q72 0 135 32.5t107 86t75.5 121.5t46.5 139t15 139q0 135 -56 209t-161 74z" />
    <glyph glyph-name="r" unicode="r" horiz-adv-x="741" 
d="M774 1051q42 0 76 -9l-41 -161q-69 6 -72 6q-148 0 -250 -92.5t-145 -264.5l-131 -530h-180l258 1040h172l-37 -145h4q150 156 346 156z" />
    <glyph glyph-name="s" unicode="s" horiz-adv-x="1011" 
d="M588 1069q178 0 270 -70t92 -204q0 -44 -8 -80h-174q6 54 6 63q0 74 -52.5 113t-150.5 39q-101 0 -161 -43.5t-60 -116.5q0 -64 42.5 -93t164.5 -69q37 -12 51 -16.5t48.5 -17.5t49 -20.5t42 -23.5t40.5 -30t31 -35t26 -44t14.5 -52.5t6.5 -63.5q0 -63 -28 -121.5
t-81.5 -106.5t-141.5 -77t-197 -29q-187 0 -289 74.5t-102 214.5q0 52 10 86h182q-8 -31 -8 -70q0 -78 56.5 -119.5t164.5 -41.5q118 0 182 46.5t64 127.5q0 30 -10.5 53t-26.5 39.5t-49 32.5t-64 27.5t-86 29.5q-119 39 -163 66q-107 73 -109 215q0 60 27.5 116t78.5 101.5
t132 72.5t180 27z" />
    <glyph glyph-name="t" unicode="t" horiz-adv-x="655" 
d="M477 897l-143 -575q-12 -46 -12 -78q0 -54 27 -78.5t87 -24.5q32 0 72 9l-39 -148q-38 -10 -86 -10q-127 0 -186.5 51t-59.5 164q0 49 19 127l141 563h-182l37 143h180l63 252h180l-63 -252h207l-37 -143h-205z" />
    <glyph glyph-name="u" unicode="u" 
d="M412 -23q-145 0 -226.5 77.5t-81.5 224.5q0 59 23 153l152 608h180l-152 -608q-16 -68 -16 -131q0 -88 46 -132t132 -44q116 0 214 84t136 235l150 596h180l-260 -1040h-174l30 123h-4q-65 -68 -150.5 -107t-178.5 -39z" />
    <glyph glyph-name="v" unicode="v" horiz-adv-x="962" 
d="M467 0h-234l-116 1040h180l39 -436q27 -304 37 -463h4q123 221 264 463l258 436h205z" />
    <glyph glyph-name="w" unicode="w" horiz-adv-x="1576" 
d="M1157 0h-258l-10 451l-6 450h-4q-128 -263 -224 -450l-235 -451h-258l-19 1040h174l2 -434q3 -234 0 -467h5q187 379 227 457l227 444h260l9 -444q4 -306 2 -457h4q176 367 227 467l219 434h193z" />
    <glyph glyph-name="x" unicode="x" horiz-adv-x="983" 
d="M606 532l254 -532h-196l-183 416h-4l-375 -416h-235l522 549l-231 491h192l164 -370h4l334 370h233z" />
    <glyph glyph-name="y" unicode="y" horiz-adv-x="966" 
d="M1108 1040l-682 -1087q-123 -197 -231 -268.5t-273 -71.5q-65 0 -106 14l37 148q37 -13 81 -13q103 0 167.5 48.5t152.5 185.5l-137 1044h180l96 -827h4l506 827h205z" />
    <glyph glyph-name="z" unicode="z" horiz-adv-x="960" 
d="M977 874l-784 -722v-5h620l-35 -147h-854l41 166l783 723v4h-580l37 147h813z" />
    <glyph glyph-name="braceleft" unicode="{" horiz-adv-x="616" 
d="M815 1518l-27 -115q-98 -3 -150.5 -46t-78.5 -145l-90 -366q-25 -98 -78 -151t-153 -81l-2 -6q63 -25 91.5 -66.5t28.5 -107.5q0 -45 -14 -100l-76 -303q-14 -52 -14 -92q0 -68 33 -97.5t106 -31.5l-29 -115h-26q-132 0 -193 54t-61 171q0 58 22 141l72 287q12 52 12 86
q0 52 -22 81t-74 48l31 125q80 20 120 60t62 122l88 353q38 156 122.5 225.5t234.5 69.5h65z" />
    <glyph glyph-name="bar" unicode="|" horiz-adv-x="559" 
d="M362 -420h-165v1919h165v-1919z" />
    <glyph glyph-name="braceright" unicode="}" horiz-adv-x="616" 
d="M-158 -305l29 115q97 2 150 44.5t77 143.5l92 369q25 98 77.5 150.5t152.5 78.5l2 6q-62 26 -90.5 67.5t-28.5 106.5q0 48 14 103l76 301q15 56 15 94q0 68 -33 96.5t-107 30.5l29 117h25q131 0 192 -55t61 -171q0 -51 -20 -143l-72 -285q-12 -53 -12 -88
q0 -51 22.5 -80.5t73.5 -46.5l-32 -125q-80 -22 -120.5 -62t-60.5 -120l-88 -352q-40 -156 -123 -225.5t-233 -69.5h-68z" />
    <glyph glyph-name="asciitilde" unicode="~" horiz-adv-x="1193" 
d="M410 840q55 0 103.5 -17t80.5 -42.5t66 -55.5t61.5 -55.5t65 -42.5t77.5 -17q78 0 140.5 57t85.5 150h129q-42 -170 -142 -264t-229 -94q-55 0 -102.5 17t-80 42.5t-67 55t-62 55t-65.5 42.5t-78 17q-78 0 -139.5 -57.5t-83.5 -151.5h-129q40 171 140 266t229 95z" />
    <glyph glyph-name="nbspace" unicode="&#xa0;" horiz-adv-x="471" 
 />
    <glyph glyph-name="exclamdown" unicode="&#xa1;" horiz-adv-x="565" 
d="M305 1040h213l-55 -217h-211zM250 682h143l-229 -1100h-232z" />
    <glyph glyph-name="cent" unicode="&#xa2;" horiz-adv-x="1150" 
d="M1110 815h-186q4 24 4 39q0 80 -34 136.5t-95 78.5l-195 -784q88 17 156.5 82t99.5 157h193q-58 -169 -188.5 -276.5t-299.5 -114.5l-45 -182h-129l49 192q-141 29 -220 138.5t-79 279.5q0 86 22 176t69 178t112.5 157t161 113t205.5 46l45 178h127l-47 -188
q133 -29 205.5 -123.5t72.5 -233.5q0 -33 -4 -49zM328 567q0 -108 39 -178.5t110 -95.5l197 788q-80 -12 -148 -66t-110 -130t-65 -159t-23 -159z" />
    <glyph glyph-name="sterling" unicode="&#xa3;" horiz-adv-x="1150" 
d="M846 1409q170 0 262 -83t92 -234q0 -50 -12 -105h-180q10 48 10 78q0 89 -49 134.5t-140 45.5q-106 0 -176.5 -66t-101.5 -192l-57 -229h256l-39 -158h-258l-41 -166q-26 -109 -66.5 -171.5t-109.5 -102.5v-4h737l-39 -156h-1014l39 158q200 0 266 274l43 168h-198
l39 158h198l66 264q49 192 170 289.5t303 97.5z" />
    <glyph glyph-name="currency" unicode="&#xa4;" horiz-adv-x="1150" 
d="M1010 596q0 -152 -76 -264l156 -166l-121 -113l-154 164q-104 -63 -240 -63q-135 0 -239 63l-154 -164l-121 113l156 164q-76 112 -76 266t76 266l-156 164l121 113l154 -164q104 63 239 63q136 0 240 -63l154 164l121 -113l-156 -166q76 -112 76 -264zM575 307
q125 0 200 78.5t75 210.5t-75 210.5t-200 78.5q-124 0 -198 -78.5t-74 -210.5t74 -210.5t198 -78.5z" />
    <glyph glyph-name="yen" unicode="&#xa5;" horiz-adv-x="1150" 
d="M797 737h280l-28 -121h-355l-28 -114h354l-31 -121h-352l-94 -381h-191l94 381h-354l31 121h352l29 114h-352l28 121h281l-228 643h197l70 -211q104 -322 123 -385h4q135 174 311 385l174 211h236z" />
    <glyph glyph-name="brokenbar" unicode="&#xa6;" horiz-adv-x="559" 
d="M362 782h-165v717h165v-717zM362 -420h-165v717h165v-717z" />
    <glyph glyph-name="section" unicode="&#xa7;" horiz-adv-x="1183" 
d="M786 1487q165 0 250.5 -72t85.5 -211q0 -42 -4 -67h-180q4 32 4 49q0 149 -174 149q-98 0 -154.5 -56.5t-56.5 -131.5q0 -56 40.5 -91.5t170.5 -111.5q160 -93 225.5 -165t65.5 -183q0 -109 -62 -207.5t-194 -165.5v-4q53 -59 53 -156q0 -64 -27.5 -127.5t-79.5 -118.5
t-139 -89.5t-194 -34.5q-177 0 -270 70.5t-93 209.5q0 45 10 84h181q-6 -34 -6 -59q0 -154 188 -154q113 0 177.5 62t64.5 141q0 65 -48 110.5t-186 129.5q-72 44 -115 75.5t-80.5 72t-54 86t-16.5 102.5q0 102 63 200t187 162v4q-51 60 -51 141q0 62 27.5 124.5t78.5 114.5
t133 85t180 33zM520 893q-174 -97 -174 -231q0 -66 44.5 -119.5t152.5 -118.5q104 -62 162 -105q79 40 127.5 105t48.5 133q0 67 -42.5 119.5t-148.5 114.5q-120 70 -170 102z" />
    <glyph glyph-name="dieresis" unicode="&#xa8;" horiz-adv-x="772" 
d="M455 1255h-168l49 203h168zM854 1255h-168l49 203h168z" />
    <glyph glyph-name="copyright" unicode="&#xa9;" horiz-adv-x="1658" 
d="M829 1483q330 0 533 -207.5t203 -546.5t-203 -546.5t-533 -207.5t-531.5 207t-201.5 547t201.5 547t531.5 207zM829 1386q-289 0 -465 -180.5t-176 -476.5t176 -476.5t465 -180.5t465 180.5t176 476.5t-176 476.5t-465 180.5zM831 1227q173 0 276.5 -96t111.5 -250h-154
q-8 97 -70.5 155t-163.5 58q-123 0 -193.5 -98t-70.5 -267t70.5 -266.5t191.5 -97.5q99 0 163.5 59.5t76.5 161.5h156q-15 -164 -121 -259.5t-275 -95.5q-194 0 -305.5 133t-111.5 365t112 365t307 133z" />
    <glyph glyph-name="ordfeminine" unicode="&#xaa;" horiz-adv-x="804" 
d="M586 1425q132 0 202 -56t70 -169q0 -44 -12 -94l-60 -238q-31 -132 -28 -192h-144q0 34 11 76h-4q-104 -93 -252 -93q-108 0 -170 53t-62 138q0 211 338 260q118 16 225 20l5 13q8 27 8 59q0 111 -138 111q-71 0 -116.5 -35t-59.5 -96h-155q24 106 115 174.5t227 68.5z
M664 971l12 53q-96 -7 -187 -20q-109 -16 -149.5 -50t-40.5 -86q0 -44 32.5 -69t92.5 -25q88 0 151.5 52t88.5 145z" />
    <glyph glyph-name="guillemetleft" unicode="&#xab;" horiz-adv-x="950" 
d="M270 512l127 -401h-157l-140 417l324 402h178zM623 512l127 -401h-160l-139 417l325 402h178z" />
    <glyph glyph-name="logicalnot" unicode="&#xac;" horiz-adv-x="1159" 
d="M1014 287h-150v491h-719v152h869v-643z" />
    <glyph glyph-name="softhyphen" unicode="&#xad;" horiz-adv-x="614" 
d="M553 518h-492l39 160h492z" />
    <glyph glyph-name="registered" unicode="&#xae;" horiz-adv-x="1202" 
d="M711 1487q229 0 369.5 -143.5t140.5 -378.5t-140.5 -380t-369.5 -145q-228 0 -368 145t-140 380t139.5 378.5t368.5 143.5zM711 1419q-198 0 -319.5 -125t-121.5 -329t121.5 -329.5t319.5 -125.5t319 125.5t121 329.5t-121 329t-319 125zM481 1298h240q108 0 164.5 -49
t56.5 -137q0 -57 -32 -102.5t-85 -55.5v-4q33 -9 52 -31.5t38 -74.5l68 -199h-119l-55 168q-15 52 -43 73t-78 21h-96v-262h-111v653zM592 1204v-203h102q68 0 101.5 28t33.5 77q0 98 -129 98h-108z" />
    <glyph glyph-name="macron" unicode="&#xaf;" horiz-adv-x="788" 
d="M870 1262h-581l30 131h584z" />
    <glyph glyph-name="degree" unicode="&#xb0;" horiz-adv-x="653" 
d="M502 1479q103 0 175.5 -72.5t72.5 -175.5q0 -101 -72.5 -173.5t-175.5 -72.5q-101 0 -173.5 72.5t-72.5 173.5q0 103 72.5 175.5t173.5 72.5zM502 1370q-57 0 -96 -41t-39 -98q0 -56 39 -95.5t96 -39.5t98 40t41 95q0 57 -41 98t-98 41z" />
    <glyph glyph-name="plusminus" unicode="&#xb1;" horiz-adv-x="1159" 
d="M653 780h361v-151h-361v-350h-147v350h-361v151h361v353h147v-353zM1014 0h-869v152h869v-152z" />
    <glyph glyph-name="twosuperior" unicode="&#xb2;" horiz-adv-x="858" 
d="M682 1663q136 0 214.5 -68t78.5 -178q0 -116 -81.5 -201.5t-268.5 -173.5q-157 -74 -215 -122t-74 -109h518l-31 -135h-706q32 174 121 273t292 196q157 76 217 129.5t60 124.5q0 129 -135 129q-152 0 -205 -176h-170q39 150 140.5 230.5t244.5 80.5z" />
    <glyph glyph-name="threesuperior" unicode="&#xb3;" horiz-adv-x="847" 
d="M664 1663q148 0 228.5 -64t80.5 -178q0 -85 -56 -154.5t-174 -107.5v-2q131 -58 131 -194q0 -52 -24.5 -105t-70.5 -99t-121 -75t-166 -29q-157 0 -239.5 63t-82.5 181q0 43 10 74h162q-6 -30 -6 -55q0 -130 160 -130q100 0 159.5 54.5t59.5 120.5q0 67 -48 102t-139 35
h-34l30 129h37q121 0 185.5 54t64.5 124q0 57 -41.5 89t-114.5 32q-168 0 -211 -178h-163q33 148 136 230.5t247 82.5z" />
    <glyph glyph-name="acute" unicode="&#xb4;" horiz-adv-x="612" 
d="M430 1165h-166l238 293h241z" />
    <glyph glyph-name="micro" unicode="&#xb5;" horiz-adv-x="1193" 
d="M1151 1040l-184 -743q-15 -61 -15 -94q0 -36 17 -51t53 -15q24 0 51 6l-35 -143q-35 -12 -94 -12q-83 0 -121 41.5t-35 126.5h-4q-53 -78 -141 -124t-186 -46q-167 0 -221 118l-121 -483h-181l355 1419h180l-152 -602q-18 -92 -18 -129q0 -180 193 -180q109 0 202 83
t131 234l146 594h180z" />
    <glyph glyph-name="paragraph" unicode="&#xb6;" horiz-adv-x="1204" 
d="M1362 1331h-164l-393 -1577h-135l391 1577h-176l-393 -1577h-136l217 877q-356 37 -356 379q0 62 17.5 124.5t54 121t86.5 103.5t120.5 72t151.5 27h746z" />
    <glyph glyph-name="periodcentered" unicode="&#xb7;" horiz-adv-x="462" 
d="M338 506h-221l59 239h221z" />
    <glyph glyph-name="cedilla" unicode="&#xb8;" horiz-adv-x="641" 
d="M283 0l-115 -127q16 4 39 4q60 0 96.5 -36t36.5 -101q0 -79 -74 -135t-188 -56q-116 0 -203 56l43 76q71 -43 156 -43q62 0 98.5 26.5t36.5 69.5q0 34 -22.5 53.5t-63.5 19.5q-38 0 -68 -12l-35 33l158 172h105z" />
    <glyph glyph-name="onesuperior" unicode="&#xb9;" horiz-adv-x="555" 
d="M446 676h-161l168 680h-222l31 123q119 0 185.5 37t103.5 126h137z" />
    <glyph glyph-name="ordmasculine" unicode="&#xba;" horiz-adv-x="849" 
d="M604 1425q152 0 236 -83t84 -234q0 -61 -16.5 -123.5t-51.5 -122t-83.5 -105.5t-119 -74t-151.5 -28q-152 0 -234 83.5t-82 234.5q0 61 16.5 123.5t51 121.5t82.5 105t117.5 74t150.5 28zM596 1298q-61 0 -110.5 -32t-79 -82.5t-45 -106.5t-15.5 -110q0 -90 41 -138.5
t123 -48.5q81 0 141 56t86.5 129.5t26.5 146.5q0 90 -42 138t-126 48z" />
    <glyph glyph-name="guillemetright" unicode="&#xbb;" horiz-adv-x="950" 
d="M328 528l-127 402h159l138 -418l-324 -401h-178zM680 528l-129 402h160l139 -418l-324 -401h-180z" />
    <glyph glyph-name="onequarter" unicode="&#xbc;" horiz-adv-x="1480" 
d="M1327 1380l-1132 -1380h-150l1131 1380h151zM362 1122h-192l29 119q103 0 161 32t89 107h131l-207 -827h-154zM1378 197h-137l-49 -197h-152l50 197h-400l37 143l463 487h209l-127 -508h137zM870 319h254l25 101q20 91 68 258h-5q-126 -137 -221 -234z" />
    <glyph glyph-name="onehalf" unicode="&#xbd;" horiz-adv-x="1544" 
d="M195 0h-150l1131 1380h151zM373 553h-154l143 569h-192l29 119q103 0 161 32t89 107h131zM1221 846q120 0 190 -59t70 -154q0 -99 -71 -174t-230 -150q-131 -62 -179.5 -98t-62.5 -80h444l-30 -131h-621q27 153 103.5 239t252.5 171q133 66 182.5 107.5t49.5 100.5
q0 99 -107 99q-122 0 -165 -144h-164q35 133 123.5 203t214.5 70z" />
    <glyph glyph-name="threequarters" unicode="&#xbe;" horiz-adv-x="1730" 
d="M739 801q0 -45 -21 -91t-60.5 -85.5t-104.5 -64.5t-145 -25q-139 0 -212 55.5t-73 157.5q0 28 6 65h158q-4 -36 -4 -49q0 -102 129 -102q82 0 129 42.5t47 96.5q0 106 -156 106h-26l30 127h31q97 0 150 43.5t53 100.5q0 44 -32.5 69t-92.5 25q-135 0 -172 -144h-156
q28 127 118 199t220 72t200 -55t70 -154q0 -153 -190 -219v-4q104 -50 104 -166zM1577 1380l-1133 -1380h-149l1130 1380h152zM1630 197h-137l-49 -197h-152l49 197h-399l37 143l463 487h209l-127 -508h137zM1122 319h254l25 101q23 106 67 258h-4q-126 -137 -221 -234z" />
    <glyph glyph-name="questiondown" unicode="&#xbf;" horiz-adv-x="989" 
d="M588 1040h213l-56 -217h-210zM344 -446q-189 0 -298 93.5t-109 252.5q0 114 65.5 209.5t243.5 212.5q140 93 191.5 162t90.5 218h160q-29 -134 -63 -210t-89 -133.5t-165 -133.5q-80 -56 -130 -101t-74.5 -82.5t-32 -66.5t-7.5 -67q0 -90 59 -140.5t164 -50.5
q120 0 201.5 67t116.5 198h188q-55 -209 -188 -318.5t-324 -109.5z" />
    <glyph glyph-name="Agrave" unicode="&#xc0;" horiz-adv-x="1382" 
d="M940 1556l-190 283h223l114 -283h-147zM1006 434h-644l-268 -434h-213l916 1458h256l192 -1458h-188zM987 600l-16 133q-37 304 -66 594h-4q-176 -300 -354 -594l-82 -133h522z" />
    <glyph glyph-name="Aacute" unicode="&#xc1;" horiz-adv-x="1382" 
d="M979 1556h-166l238 283h241zM1053 1458l192 -1458h-188l-51 434h-644l-268 -434h-213l916 1458h256zM987 600l-16 133q-37 304 -66 594h-4q-176 -300 -354 -594l-82 -133h522z" />
    <glyph glyph-name="Acircumflex" unicode="&#xc2;" horiz-adv-x="1382" 
d="M817 1556h-201l306 283h198l162 -283h-162l-106 183zM1053 1458l192 -1458h-188l-51 434h-644l-268 -434h-213l916 1458h256zM987 600l-16 133q-37 304 -66 594h-4q-176 -300 -354 -594l-82 -133h522z" />
    <glyph glyph-name="Atilde" unicode="&#xc3;" horiz-adv-x="1382" 
d="M1253 1827h119q-34 -112 -100 -174t-152 -62q-43 0 -83.5 16.5t-66.5 36t-59 36t-63 16.5q-85 0 -119 -105h-123q31 112 97 174t153 62q55 0 104.5 -26.5t90.5 -52.5t77 -26q86 0 125 105zM1053 1458l192 -1458h-188l-51 434h-644l-268 -434h-213l916 1458h256zM987 600
l-16 133q-37 304 -66 594h-4q-176 -300 -354 -594l-82 -133h522z" />
    <glyph glyph-name="Adieresis" unicode="&#xc4;" horiz-adv-x="1382" 
d="M842 1587h-168l51 203h168zM1241 1587h-168l51 203h168zM1053 1458l192 -1458h-188l-51 434h-644l-268 -434h-213l916 1458h256zM987 600l-16 133q-37 304 -66 594h-4q-176 -300 -354 -594l-82 -133h522z" />
    <glyph glyph-name="Aring" unicode="&#xc5;" horiz-adv-x="1382" 
d="M975 1540q-85 0 -145 60t-60 145q0 86 60 146.5t145 60.5q86 0 146.5 -60.5t60.5 -146.5q0 -85 -60.5 -145t-146.5 -60zM975 1864q-49 0 -84 -35t-35 -84t34.5 -83t84.5 -34q51 0 85 33.5t34 83.5t-34 84.5t-85 34.5zM1006 434h-644l-268 -434h-213l916 1458h256
l192 -1458h-188zM987 600l-16 133q-37 304 -66 594h-4q-176 -300 -354 -594l-82 -133h522z" />
    <glyph glyph-name="AE" unicode="&#xc6;" horiz-adv-x="1918" 
d="M1235 1290l-45 -461h635l-43 -165h-611l-49 -496h600l-41 -168h-751l45 459h-559l-334 -459h-223l1077 1458h1085l-41 -168h-745zM1059 1298h-33l-489 -673h456z" />
    <glyph glyph-name="Ccedilla" unicode="&#xc7;" horiz-adv-x="1413" 
d="M1405 934h-195q4 50 4 70q0 145 -85.5 228t-233.5 83q-110 0 -205 -47.5t-161 -125t-113 -176.5t-69.5 -201.5t-22.5 -199.5q0 -194 90 -308t254 -114q147 0 268 89t178 239h197q-72 -221 -237 -354.5t-382 -143.5l-90 -100q16 4 39 4q60 0 96.5 -36t36.5 -101
q0 -79 -74 -135t-188 -56q-116 0 -203 56l43 76q71 -43 156 -43q62 0 98.5 26.5t36.5 69.5q0 34 -22.5 53.5t-63.5 19.5q-38 0 -68 -12l-34 33l133 145q-219 22 -340 175t-121 401q0 126 30.5 255t95.5 252t156 219t222.5 154t283.5 58q229 0 362.5 -128.5t133.5 -336.5
q0 -45 -6 -88z" />
    <glyph glyph-name="Egrave" unicode="&#xc8;" horiz-adv-x="1265" 
d="M1038 1556h-147l-191 283h224zM1327 1290h-752l-114 -461h708l-41 -165h-710l-123 -496h774l-41 -168h-962l362 1458h940z" />
    <glyph glyph-name="Eacute" unicode="&#xc9;" horiz-adv-x="1265" 
d="M930 1556h-166l237 283h242zM1327 1290h-752l-114 -461h708l-41 -165h-710l-123 -496h774l-41 -168h-962l362 1458h940z" />
    <glyph glyph-name="Ecircumflex" unicode="&#xca;" horiz-adv-x="1265" 
d="M874 1839h199l162 -283h-162l-106 183l-197 -183h-201zM1327 1290h-752l-114 -461h708l-41 -165h-710l-123 -496h774l-41 -168h-962l362 1458h940z" />
    <glyph glyph-name="Edieresis" unicode="&#xcb;" horiz-adv-x="1265" 
d="M795 1587h-168l51 203h168zM1194 1587h-168l51 203h168zM1327 1290h-752l-114 -461h708l-41 -165h-710l-123 -496h774l-41 -168h-962l362 1458h940z" />
    <glyph glyph-name="Igrave" unicode="&#xcc;" horiz-adv-x="577" 
d="M684 1556h-147l-191 283h223zM254 0h-188l362 1458h188z" />
    <glyph glyph-name="Iacute" unicode="&#xcd;" horiz-adv-x="577" 
d="M575 1556h-165l237 283h242zM254 0h-188l362 1458h188z" />
    <glyph glyph-name="Icircumflex" unicode="&#xce;" horiz-adv-x="577" 
d="M518 1839h199l162 -283h-162l-107 183l-196 -183h-201zM254 0h-188l362 1458h188z" />
    <glyph glyph-name="Idieresis" unicode="&#xcf;" horiz-adv-x="577" 
d="M438 1587h-168l52 203h167zM838 1587h-168l51 203h168zM254 0h-188l362 1458h188z" />
    <glyph glyph-name="Eth" unicode="&#xd0;" horiz-adv-x="1482" 
d="M428 1458h350q330 0 500 -159t170 -463q0 -117 -31.5 -232.5t-101.5 -225t-170.5 -193.5t-249 -134.5t-326.5 -50.5h-503l165 666h-135l37 145h133zM293 168h285q117 0 217.5 28.5t172.5 78.5t127 114t88 138.5t49.5 148.5t16.5 147q0 230 -120.5 348.5t-358.5 118.5
h-197l-118 -479h415l-39 -145h-413z" />
    <glyph glyph-name="Ntilde" unicode="&#xd1;" horiz-adv-x="1546" 
d="M1337 1827h119q-34 -112 -100 -174t-152 -62q-43 0 -83.5 16.5t-66.5 36t-59 36t-63 16.5q-85 0 -119 -105h-123q31 112 97 174t153 62q55 0 104.5 -26.5t90.5 -52.5t77 -26q86 0 125 105zM1225 0h-262l-199 629q-81 260 -201 653h-4q-95 -417 -166 -698l-143 -584h-184
l362 1458h260l199 -629q24 -75 200 -653h5q103 452 163 698l148 584h184z" />
    <glyph glyph-name="Ograve" unicode="&#xd2;" horiz-adv-x="1499" 
d="M1096 1556h-148l-190 283h223zM909 1487q263 0 412 -165t149 -439q0 -104 -23 -211t-66.5 -208.5t-111 -191t-151.5 -156.5t-194 -106t-232 -39q-263 0 -411 164.5t-148 439.5q0 104 23 210.5t66 208.5t110.5 191.5t151 156.5t193.5 106t232 39zM903 1315
q-108 0 -203 -46t-162.5 -121.5t-116.5 -172t-73 -199t-24 -201.5q0 -197 98.5 -314.5t275.5 -117.5q107 0 202 45.5t163 120.5t117.5 171t73.5 199t24 202q0 198 -99 316t-276 118z" />
    <glyph glyph-name="Oacute" unicode="&#xd3;" horiz-adv-x="1499" 
d="M987 1556h-166l238 283h241zM909 1487q263 0 412 -165t149 -439q0 -104 -23 -211t-66.5 -208.5t-111 -191t-151.5 -156.5t-194 -106t-232 -39q-263 0 -411 164.5t-148 439.5q0 104 23 210.5t66 208.5t110.5 191.5t151 156.5t193.5 106t232 39zM903 1315q-108 0 -203 -46
t-162.5 -121.5t-116.5 -172t-73 -199t-24 -201.5q0 -197 98.5 -314.5t275.5 -117.5q107 0 202 45.5t163 120.5t117.5 171t73.5 199t24 202q0 198 -99 316t-276 118z" />
    <glyph glyph-name="Ocircumflex" unicode="&#xd4;" horiz-adv-x="1499" 
d="M930 1839h198l162 -283h-162l-106 183l-197 -183h-200zM909 1487q263 0 412 -165t149 -439q0 -104 -23 -211t-66.5 -208.5t-111 -191t-151.5 -156.5t-194 -106t-232 -39q-263 0 -411 164.5t-148 439.5q0 104 23 210.5t66 208.5t110.5 191.5t151 156.5t193.5 106t232 39z
M903 1315q-108 0 -203 -46t-162.5 -121.5t-116.5 -172t-73 -199t-24 -201.5q0 -197 98.5 -314.5t275.5 -117.5q107 0 202 45.5t163 120.5t117.5 171t73.5 199t24 202q0 198 -99 316t-276 118z" />
    <glyph glyph-name="Otilde" unicode="&#xd5;" horiz-adv-x="1499" 
d="M1264 1827h118q-34 -112 -100 -174t-152 -62q-43 0 -83.5 16.5t-66.5 36t-59 36t-63 16.5q-84 0 -119 -105h-123q31 112 97 174t153 62q43 0 84.5 -16.5t67.5 -36t59 -36t62 -16.5q86 0 125 105zM909 1487q263 0 412 -165t149 -439q0 -104 -23 -211t-66.5 -208.5
t-111 -191t-151.5 -156.5t-194 -106t-232 -39q-263 0 -411 164.5t-148 439.5q0 104 23 210.5t66 208.5t110.5 191.5t151 156.5t193.5 106t232 39zM903 1315q-108 0 -203 -46t-162.5 -121.5t-116.5 -172t-73 -199t-24 -201.5q0 -197 98.5 -314.5t275.5 -117.5q107 0 202 45.5
t163 120.5t117.5 171t73.5 199t24 202q0 198 -99 316t-276 118z" />
    <glyph glyph-name="Odieresis" unicode="&#xd6;" horiz-adv-x="1499" 
d="M850 1587h-168l51 203h168zM1249 1587h-168l52 203h167zM909 1487q263 0 412 -165t149 -439q0 -104 -23 -211t-66.5 -208.5t-111 -191t-151.5 -156.5t-194 -106t-232 -39q-263 0 -411 164.5t-148 439.5q0 104 23 210.5t66 208.5t110.5 191.5t151 156.5t193.5 106t232 39z
M903 1315q-108 0 -203 -46t-162.5 -121.5t-116.5 -172t-73 -199t-24 -201.5q0 -197 98.5 -314.5t275.5 -117.5q107 0 202 45.5t163 120.5t117.5 171t73.5 199t24 202q0 198 -99 316t-276 118z" />
    <glyph glyph-name="multiply" unicode="&#xd7;" horiz-adv-x="1159" 
d="M1079 1022l-395 -395l395 -394l-104 -104l-395 393l-394 -393l-106 104l395 394l-395 395l106 104l394 -393l395 393z" />
    <glyph glyph-name="Oslash" unicode="&#xd8;" horiz-adv-x="1499" 
d="M1546 1382l-153 -153q80 -147 80 -342q0 -104 -23.5 -211t-67 -209.5t-112 -192t-153 -157.5t-195.5 -107t-234 -39q-253 0 -403 156l-142 -141l-88 90l156 153q-80 142 -80 342q0 125 32 253t98 247.5t157 212t219.5 148t275.5 55.5q254 0 402 -154l141 140zM319 575
q0 -105 33 -202l832 827q-102 121 -281 121q-108 0 -204 -46.5t-164 -123t-118 -174t-74 -200.5t-24 -202zM1284 881q0 116 -35 206l-831 -829q105 -121 280 -121q108 0 203.5 46t164 122t119 173t75 200.5t24.5 202.5z" />
    <glyph glyph-name="Ugrave" unicode="&#xd9;" horiz-adv-x="1443" 
d="M1098 1556h-148l-190 283h223zM1497 1458l-248 -989q-61 -243 -220 -370.5t-396 -127.5q-221 0 -339 114t-118 325q0 90 27 204l213 844h188l-219 -883q-23 -85 -23 -153q0 -138 74.5 -208.5t212.5 -70.5q159 0 268 94.5t156 278.5l234 942h190z" />
    <glyph glyph-name="Uacute" unicode="&#xda;" horiz-adv-x="1443" 
d="M989 1556h-166l238 283h242zM1497 1458l-248 -989q-61 -243 -220 -370.5t-396 -127.5q-221 0 -339 114t-118 325q0 90 27 204l213 844h188l-219 -883q-23 -85 -23 -153q0 -138 74.5 -208.5t212.5 -70.5q159 0 268 94.5t156 278.5l234 942h190z" />
    <glyph glyph-name="Ucircumflex" unicode="&#xdb;" horiz-adv-x="1443" 
d="M932 1839h198l162 -283h-162l-106 183l-197 -183h-200zM1497 1458l-248 -989q-61 -243 -220 -370.5t-396 -127.5q-221 0 -339 114t-118 325q0 90 27 204l213 844h188l-219 -883q-23 -85 -23 -153q0 -138 74.5 -208.5t212.5 -70.5q159 0 268 94.5t156 278.5l234 942h190z
" />
    <glyph glyph-name="Udieresis" unicode="&#xdc;" horiz-adv-x="1443" 
d="M852 1587h-168l51 203h168zM1251 1587h-168l52 203h168zM1497 1458l-248 -989q-61 -243 -220 -370.5t-396 -127.5q-221 0 -339 114t-118 325q0 90 27 204l213 844h188l-219 -883q-23 -85 -23 -153q0 -138 74.5 -208.5t212.5 -70.5q159 0 268 94.5t156 278.5l234 942h190z
" />
    <glyph glyph-name="Yacute" unicode="&#xdd;" horiz-adv-x="1257" 
d="M872 1556h-165l237 283h242zM745 604l-151 -604h-188l149 604l-313 854h196l105 -301q80 -237 125 -385h4q123 153 317 385l254 301h240z" />
    <glyph glyph-name="Thorn" unicode="&#xde;" horiz-adv-x="1255" 
d="M551 1192h242q232 0 350.5 -102.5t118.5 -286.5q0 -68 -20 -136t-65 -132t-108.5 -113t-158.5 -79t-208 -30h-372l-76 -313h-188l362 1458h188zM510 1028l-139 -551h336q94 0 166 28.5t113 75t61 98t20 105.5q0 118 -73.5 181t-221.5 63h-262z" />
    <glyph glyph-name="germandbls" unicode="&#xdf;" horiz-adv-x="1140" 
d="M784 1487q169 0 266 -80t97 -217q0 -80 -32.5 -153.5t-107.5 -136t-182 -89.5v-4q213 -65 213 -315q0 -71 -21.5 -141.5t-67.5 -136.5t-111 -116t-159 -80t-204 -30q-66 0 -119 18l37 148q37 -11 78 -11q97 0 173.5 33t121 86t67.5 113.5t23 122.5q0 111 -65.5 172
t-188.5 61h-10l39 160q73 0 132 17t96 44.5t61.5 63.5t34.5 71.5t10 71.5q0 86 -50 131t-145 45q-227 0 -303 -303l-256 -1032h-180l262 1055q51 206 178.5 319t312.5 113z" />
    <glyph glyph-name="agrave" unicode="&#xe0;" horiz-adv-x="1087" 
d="M682 1458l113 -293h-146l-190 293h223zM623 1069q175 0 268.5 -78t93.5 -235q0 -62 -18 -138l-88 -352q-43 -171 -43 -266h-164q0 54 18 131h-4q-142 -154 -360 -154q-150 0 -233 73.5t-83 195.5q0 297 459 366q191 27 328 33l6 19q12 62 12 92q0 88 -53.5 131t-149.5 43
q-106 0 -176.5 -56.5t-91.5 -150.5h-180q33 153 155.5 249.5t303.5 96.5zM741 420l23 88q-118 -6 -281 -29q-84 -13 -141 -35t-87 -50.5t-42 -58.5t-12 -67q0 -70 48 -110.5t136 -40.5q131 0 225 79.5t131 223.5z" />
    <glyph glyph-name="aacute" unicode="&#xe1;" horiz-adv-x="1087" 
d="M688 1165h-166l238 293h241zM623 1069q175 0 268.5 -78t93.5 -235q0 -62 -18 -138l-88 -352q-43 -171 -43 -266h-164q0 54 18 131h-4q-142 -154 -360 -154q-150 0 -233 73.5t-83 195.5q0 297 459 366q191 27 328 33l6 19q12 62 12 92q0 88 -53.5 131t-149.5 43
q-106 0 -176.5 -56.5t-91.5 -150.5h-180q33 153 155.5 249.5t303.5 96.5zM741 420l23 88q-118 -6 -281 -29q-84 -13 -141 -35t-87 -50.5t-42 -58.5t-12 -67q0 -70 48 -110.5t136 -40.5q131 0 225 79.5t131 223.5z" />
    <glyph glyph-name="acircumflex" unicode="&#xe2;" horiz-adv-x="1087" 
d="M991 1165h-166l-106 191l-197 -191h-196l305 293h198zM623 1069q175 0 268.5 -78t93.5 -235q0 -62 -18 -138l-88 -352q-43 -171 -43 -266h-164q0 54 18 131h-4q-142 -154 -360 -154q-150 0 -233 73.5t-83 195.5q0 297 459 366q191 27 328 33l6 19q12 62 12 92
q0 88 -53.5 131t-149.5 43q-106 0 -176.5 -56.5t-91.5 -150.5h-180q33 153 155.5 249.5t303.5 96.5zM741 420l23 88q-118 -6 -281 -29q-84 -13 -141 -35t-87 -50.5t-42 -58.5t-12 -67q0 -70 48 -110.5t136 -40.5q131 0 225 79.5t131 223.5z" />
    <glyph glyph-name="atilde" unicode="&#xe3;" horiz-adv-x="1087" 
d="M963 1446h118q-32 -112 -98 -174t-152 -62q-43 0 -83.5 16.5t-65.5 36t-58 36t-63 16.5q-83 0 -119 -105h-123q31 112 97 174t153 62q43 0 84 -16.5t67 -36t58.5 -36t61.5 -16.5q85 0 123 105zM623 1069q175 0 268.5 -78t93.5 -235q0 -62 -18 -138l-88 -352
q-43 -171 -43 -266h-164q0 54 18 131h-4q-142 -154 -360 -154q-150 0 -233 73.5t-83 195.5q0 297 459 366q191 27 328 33l6 19q12 62 12 92q0 88 -53.5 131t-149.5 43q-106 0 -176.5 -56.5t-91.5 -150.5h-180q33 153 155.5 249.5t303.5 96.5zM741 420l23 88
q-118 -6 -281 -29q-84 -13 -141 -35t-87 -50.5t-42 -58.5t-12 -67q0 -70 48 -110.5t136 -40.5q131 0 225 79.5t131 223.5z" />
    <glyph glyph-name="adieresis" unicode="&#xe4;" horiz-adv-x="1087" 
d="M565 1255h-168l49 203h168zM965 1255h-168l49 203h168zM623 1069q175 0 268.5 -78t93.5 -235q0 -62 -18 -138l-88 -352q-43 -171 -43 -266h-164q0 54 18 131h-4q-142 -154 -360 -154q-150 0 -233 73.5t-83 195.5q0 297 459 366q191 27 328 33l6 19q12 62 12 92
q0 88 -53.5 131t-149.5 43q-106 0 -176.5 -56.5t-91.5 -150.5h-180q33 153 155.5 249.5t303.5 96.5zM741 420l23 88q-118 -6 -281 -29q-84 -13 -141 -35t-87 -50.5t-42 -58.5t-12 -67q0 -70 48 -110.5t136 -40.5q131 0 225 79.5t131 223.5z" />
    <glyph glyph-name="aring" unicode="&#xe5;" horiz-adv-x="1087" 
d="M686 1569q86 0 146.5 -60t60.5 -145q0 -86 -60.5 -146.5t-146.5 -60.5q-85 0 -145 60.5t-60 146.5q0 85 60 145t145 60zM686 1483q-48 0 -82.5 -35t-34.5 -84q0 -50 34.5 -84.5t82.5 -34.5q51 0 85 34t34 85q0 50 -34 84.5t-85 34.5zM623 1069q175 0 268.5 -78t93.5 -235
q0 -62 -18 -138l-88 -352q-43 -171 -43 -266h-164q0 54 18 131h-4q-142 -154 -360 -154q-150 0 -233 73.5t-83 195.5q0 297 459 366q191 27 328 33l6 19q12 62 12 92q0 88 -53.5 131t-149.5 43q-106 0 -176.5 -56.5t-91.5 -150.5h-180q33 153 155.5 249.5t303.5 96.5z
M741 420l23 88q-118 -6 -281 -29q-84 -13 -141 -35t-87 -50.5t-42 -58.5t-12 -67q0 -70 48 -110.5t136 -40.5q131 0 225 79.5t131 223.5z" />
    <glyph glyph-name="ae" unicode="&#xe6;" horiz-adv-x="1765" 
d="M1669 477h-741q-10 -46 -10 -102q0 -132 61.5 -198t167.5 -66q98 0 174.5 55t112.5 145h184q-56 -146 -183.5 -243t-297.5 -97q-135 0 -221.5 61t-122.5 175q-75 -113 -187.5 -174.5t-243.5 -61.5q-167 0 -259.5 75.5t-92.5 201.5q0 52 15 100.5t53 98t97 85.5t154.5 59
t217.5 23h248l12 41q10 55 10 86q0 189 -203 189q-107 0 -177.5 -56t-92.5 -151h-180q33 153 155.5 249.5t301.5 96.5q259 0 327 -176q156 176 375 176q183 0 280 -105.5t97 -291.5q0 -82 -31 -195zM1313 930q-120 0 -214 -83t-138 -233h565q6 41 6 74q0 118 -58 180
t-161 62zM762 477h-223q-338 0 -342 -205q2 -77 49 -119t139 -42q136 0 233.5 86t133.5 243z" />
    <glyph glyph-name="ccedilla" unicode="&#xe7;" horiz-adv-x="1093" 
d="M1047 651h-187q2 14 2 41q0 106 -56 168t-157 62q-90 0 -166 -51t-122.5 -130t-72.5 -167.5t-26 -170.5q0 -133 60.5 -208.5t166.5 -75.5q103 0 187.5 68.5t120.5 174.5h190q-53 -159 -171 -263t-273 -124l-92 -102q16 4 38 4q60 0 97 -36t37 -101q0 -79 -74.5 -135
t-188.5 -56q-115 0 -202 56l43 76q71 -43 155 -43q62 0 99 26.5t37 69.5q0 34 -22.5 53.5t-63.5 19.5q-38 0 -68 -12l-35 33l133 145q-168 12 -264 125t-96 301q0 87 22.5 178.5t70.5 179.5t114.5 157.5t164.5 112t211 42.5q183 0 286.5 -100t103.5 -267q0 -33 -2 -51z" />
    <glyph glyph-name="egrave" unicode="&#xe8;" horiz-adv-x="1128" 
d="M674 1165l-191 293h224l112 -293h-145zM1034 483h-776q-12 -61 -12 -108q0 -132 66.5 -198t179.5 -66q103 0 184 55t119 145h184q-58 -146 -190 -243t-308 -97q-199 0 -303 111t-104 309q0 89 23.5 182t73 182t118 159t166.5 112.5t211 42.5q192 0 293.5 -105.5
t101.5 -291.5q0 -66 -27 -189zM657 930q-125 0 -223 -81t-143 -228h596q6 35 6 67q0 118 -62.5 180t-173.5 62z" />
    <glyph glyph-name="eacute" unicode="&#xe9;" horiz-adv-x="1128" 
d="M713 1165h-166l237 293h242zM1034 483h-776q-12 -61 -12 -108q0 -132 66.5 -198t179.5 -66q103 0 184 55t119 145h184q-58 -146 -190 -243t-308 -97q-199 0 -303 111t-104 309q0 89 23.5 182t73 182t118 159t166.5 112.5t211 42.5q192 0 293.5 -105.5t101.5 -291.5
q0 -66 -27 -189zM657 930q-125 0 -223 -81t-143 -228h596q6 35 6 67q0 118 -62.5 180t-173.5 62z" />
    <glyph glyph-name="ecircumflex" unicode="&#xea;" horiz-adv-x="1128" 
d="M547 1165h-197l305 293h199l162 -293h-166l-107 191zM1034 483h-776q-12 -61 -12 -108q0 -132 66.5 -198t179.5 -66q103 0 184 55t119 145h184q-58 -146 -190 -243t-308 -97q-199 0 -303 111t-104 309q0 89 23.5 182t73 182t118 159t166.5 112.5t211 42.5
q192 0 293.5 -105.5t101.5 -291.5q0 -66 -27 -189zM657 930q-125 0 -223 -81t-143 -228h596q6 35 6 67q0 118 -62.5 180t-173.5 62z" />
    <glyph glyph-name="edieresis" unicode="&#xeb;" horiz-adv-x="1128" 
d="M590 1255h-168l49 203h168zM989 1255h-168l49 203h168zM1034 483h-776q-12 -61 -12 -108q0 -132 66.5 -198t179.5 -66q103 0 184 55t119 145h184q-58 -146 -190 -243t-308 -97q-199 0 -303 111t-104 309q0 89 23.5 182t73 182t118 159t166.5 112.5t211 42.5
q192 0 293.5 -105.5t101.5 -291.5q0 -66 -27 -189zM657 930q-125 0 -223 -81t-143 -228h596q6 35 6 67q0 118 -62.5 180t-173.5 62z" />
    <glyph glyph-name="igrave" unicode="&#xec;" horiz-adv-x="499" 
d="M436 1458l113 -293h-146l-190 293h223zM211 0h-180l258 1040h180z" />
    <glyph glyph-name="iacute" unicode="&#xed;" horiz-adv-x="499" 
d="M442 1165h-166l238 293h242zM211 0h-180l258 1040h180z" />
    <glyph glyph-name="icircumflex" unicode="&#xee;" horiz-adv-x="499" 
d="M713 1167h-158l-80 191l-176 -191h-190l276 291h197zM211 0h-180l258 1040h180z" />
    <glyph glyph-name="idieresis" unicode="&#xef;" horiz-adv-x="499" 
d="M360 1255h-167l49 203h168zM674 1255h-166l49 203h168zM211 0h-180l258 1040h180z" />
    <glyph glyph-name="eth" unicode="&#xf0;" horiz-adv-x="1159" 
d="M1096 1380l-248 -100q237 -298 237 -623q0 -93 -23.5 -188.5t-73 -185t-119 -159t-168.5 -111.5t-214 -42q-196 0 -303.5 115.5t-107.5 319.5q0 85 23 173.5t71 172.5t114.5 149.5t161.5 105.5t203 40q125 0 195 -64l2 4q-59 121 -150 232l-301 -121l-39 98l265 107
q-29 30 -105 98l137 86q75 -68 123 -121l279 113zM498 119q76 0 143 34t113.5 88.5t79.5 122.5t49 136.5t16 130.5q0 135 -63 209.5t-181 74.5q-94 0 -172 -52t-124.5 -131.5t-72 -167t-26.5 -167.5q2 -133 62.5 -205.5t175.5 -72.5z" />
    <glyph glyph-name="ntilde" unicode="&#xf1;" 
d="M1059 1446h119q-32 -112 -98 -174t-152 -62q-43 0 -83.5 16.5t-66 36t-58.5 36t-63 16.5q-82 0 -118 -105h-123q31 112 97 174t153 62q43 0 84 -16.5t66.5 -36t58 -36t61.5 -16.5q86 0 123 105zM766 1063q147 0 227 -77t80 -224q0 -73 -20 -154l-152 -608h-180l149 608
q19 81 19 131q0 176 -180 176q-114 0 -212.5 -84t-136.5 -235l-149 -596h-180l260 1040h174l-33 -122h4q66 68 152 106.5t178 38.5z" />
    <glyph glyph-name="ograve" unicode="&#xf2;" horiz-adv-x="1157" 
d="M723 1458l113 -293h-146l-190 293h223zM657 1069q203 0 311.5 -115t108.5 -323q0 -88 -22.5 -179.5t-71 -178t-115.5 -153.5t-163.5 -108t-208.5 -41q-201 0 -308.5 115t-107.5 324q0 89 22.5 180t70 177t114.5 153t163 108t207 41zM643 922q-74 0 -137.5 -33t-107 -87
t-74.5 -121.5t-45.5 -137t-14.5 -133.5q0 -139 62.5 -215t183.5 -76q74 0 138.5 33t108.5 87t75.5 121.5t46 137t14.5 133.5q0 139 -63.5 215t-186.5 76z" />
    <glyph glyph-name="oacute" unicode="&#xf3;" horiz-adv-x="1157" 
d="M729 1165h-166l238 293h241zM657 1069q203 0 311.5 -115t108.5 -323q0 -88 -22.5 -179.5t-71 -178t-115.5 -153.5t-163.5 -108t-208.5 -41q-201 0 -308.5 115t-107.5 324q0 89 22.5 180t70 177t114.5 153t163 108t207 41zM643 922q-74 0 -137.5 -33t-107 -87
t-74.5 -121.5t-45.5 -137t-14.5 -133.5q0 -139 62.5 -215t183.5 -76q74 0 138.5 33t108.5 87t75.5 121.5t46 137t14.5 133.5q0 139 -63.5 215t-186.5 76z" />
    <glyph glyph-name="ocircumflex" unicode="&#xf4;" horiz-adv-x="1157" 
d="M1032 1165h-166l-106 191l-197 -191h-196l305 293h198zM657 1069q203 0 311.5 -115t108.5 -323q0 -88 -22.5 -179.5t-71 -178t-115.5 -153.5t-163.5 -108t-208.5 -41q-201 0 -308.5 115t-107.5 324q0 89 22.5 180t70 177t114.5 153t163 108t207 41zM643 922
q-74 0 -137.5 -33t-107 -87t-74.5 -121.5t-45.5 -137t-14.5 -133.5q0 -139 62.5 -215t183.5 -76q74 0 138.5 33t108.5 87t75.5 121.5t46 137t14.5 133.5q0 139 -63.5 215t-186.5 76z" />
    <glyph glyph-name="otilde" unicode="&#xf5;" horiz-adv-x="1157" 
d="M1001 1446h119q-32 -112 -98 -174t-152 -62q-43 0 -83.5 16.5t-65.5 36t-58 36t-63 16.5q-83 0 -119 -105h-123q31 112 97 174t153 62q43 0 84 -16.5t67 -36t58.5 -36t61.5 -16.5q85 0 122 105zM657 1069q203 0 311.5 -115t108.5 -323q0 -88 -22.5 -179.5t-71 -178
t-115.5 -153.5t-163.5 -108t-208.5 -41q-201 0 -308.5 115t-107.5 324q0 89 22.5 180t70 177t114.5 153t163 108t207 41zM643 922q-74 0 -137.5 -33t-107 -87t-74.5 -121.5t-45.5 -137t-14.5 -133.5q0 -139 62.5 -215t183.5 -76q74 0 138.5 33t108.5 87t75.5 121.5t46 137
t14.5 133.5q0 139 -63.5 215t-186.5 76z" />
    <glyph glyph-name="odieresis" unicode="&#xf6;" horiz-adv-x="1157" 
d="M604 1255h-168l49 203h168zM1004 1255h-168l49 203h168zM657 1069q203 0 311.5 -115t108.5 -323q0 -88 -22.5 -179.5t-71 -178t-115.5 -153.5t-163.5 -108t-208.5 -41q-201 0 -308.5 115t-107.5 324q0 89 22.5 180t70 177t114.5 153t163 108t207 41zM643 922
q-74 0 -137.5 -33t-107 -87t-74.5 -121.5t-45.5 -137t-14.5 -133.5q0 -139 62.5 -215t183.5 -76q74 0 138.5 33t108.5 87t75.5 121.5t46 137t14.5 133.5q0 139 -63.5 215t-186.5 76z" />
    <glyph glyph-name="divide" unicode="&#xf7;" horiz-adv-x="1159" 
d="M664 903h-168v174h168v-174zM1014 573h-869v150h869v-150zM664 221h-168v174h168v-174z" />
    <glyph glyph-name="oslash" unicode="&#xf8;" horiz-adv-x="1159" 
d="M1151 1014l-129 -127q57 -108 57 -256q0 -88 -23.5 -179.5t-72.5 -178t-117 -153.5t-166 -108t-211 -41q-178 0 -288 99l-121 -119l-78 78l131 131q-55 101 -55 250q0 88 23.5 179.5t72 177.5t116.5 153t166 108t210 41q179 0 286 -96l119 119zM651 926q-77 0 -143 -33.5
t-111.5 -88t-78 -123t-47.5 -138t-15 -133.5q0 -62 12 -115l563 559q-69 72 -180 72zM504 115q95 0 173.5 50.5t125 129.5t71.5 166.5t25 169.5q0 58 -14 119l-563 -562q64 -73 182 -73z" />
    <glyph glyph-name="ugrave" unicode="&#xf9;" 
d="M754 1458l112 -293h-145l-191 293h224zM412 -23q-145 0 -226.5 77.5t-81.5 224.5q0 59 23 153l152 608h180l-152 -608q-16 -68 -16 -131q0 -88 46 -132t132 -44q116 0 214 84t136 235l150 596h180l-260 -1040h-174l30 123h-4q-65 -68 -150.5 -107t-178.5 -39z" />
    <glyph glyph-name="uacute" unicode="&#xfa;" 
d="M760 1165h-166l237 293h242zM412 -23q-145 0 -226.5 77.5t-81.5 224.5q0 59 23 153l152 608h180l-152 -608q-16 -68 -16 -131q0 -88 46 -132t132 -44q116 0 214 84t136 235l150 596h180l-260 -1040h-174l30 123h-4q-65 -68 -150.5 -107t-178.5 -39z" />
    <glyph glyph-name="ucircumflex" unicode="&#xfb;" 
d="M1063 1165h-166l-106 191l-197 -191h-197l305 293h199zM412 -23q-145 0 -226.5 77.5t-81.5 224.5q0 59 23 153l152 608h180l-152 -608q-16 -68 -16 -131q0 -88 46 -132t132 -44q116 0 214 84t136 235l150 596h180l-260 -1040h-174l30 123h-4q-65 -68 -150.5 -107
t-178.5 -39z" />
    <glyph glyph-name="udieresis" unicode="&#xfc;" 
d="M637 1255h-168l49 203h168zM1036 1255h-168l50 203h167zM412 -23q-145 0 -226.5 77.5t-81.5 224.5q0 59 23 153l152 608h180l-152 -608q-16 -68 -16 -131q0 -88 46 -132t132 -44q116 0 214 84t136 235l150 596h180l-260 -1040h-174l30 123h-4q-65 -68 -150.5 -107
t-178.5 -39z" />
    <glyph glyph-name="yacute" unicode="&#xfd;" horiz-adv-x="966" 
d="M635 1165h-166l238 293h241zM1108 1040l-682 -1087q-123 -197 -231 -268.5t-273 -71.5q-65 0 -106 14l37 148q37 -13 81 -13q103 0 167.5 48.5t152.5 185.5l-137 1044h180l96 -827h4l506 827h205z" />
    <glyph glyph-name="thorn" unicode="&#xfe;" horiz-adv-x="1181" 
d="M444 930h5q59 64 139.5 100.5t165.5 36.5q169 0 262.5 -106t93.5 -295q0 -74 -16.5 -153t-47 -156.5t-78.5 -146t-108 -121.5t-138.5 -83.5t-166.5 -30.5q-111 0 -189.5 55t-105.5 148h-4l-139 -557h-180l456 1837h180zM700 922q-89 0 -163.5 -49.5t-120 -127.5t-70 -167
t-24.5 -175q0 -134 56.5 -208t160.5 -74q89 0 164 49.5t121 127t71 167t25 174.5q0 134 -57.5 208.5t-162.5 74.5z" />
    <glyph glyph-name="ydieresis" unicode="&#xff;" horiz-adv-x="966" 
d="M510 1255h-168l49 203h168zM909 1255h-168l50 203h167zM1108 1040l-682 -1087q-123 -197 -231 -268.5t-273 -71.5q-65 0 -106 14l37 148q37 -13 81 -13q103 0 167.5 48.5t152.5 185.5l-137 1044h180l96 -827h4l506 827h205z" />
    <glyph glyph-name="Amacron" unicode="&#x100;" horiz-adv-x="1382" 
d="M1286 1747l-31 -133h-581l31 133h581zM1053 1458l192 -1458h-188l-51 434h-644l-268 -434h-213l916 1458h256zM987 600l-16 133q-37 304 -66 594h-4q-176 -300 -354 -594l-82 -133h522z" />
    <glyph glyph-name="amacron" unicode="&#x101;" horiz-adv-x="1087" 
d="M973 1262h-582l31 131h584zM623 1069q175 0 268.5 -78t93.5 -235q0 -62 -18 -138l-88 -352q-43 -171 -43 -266h-164q0 54 18 131h-4q-142 -154 -360 -154q-150 0 -233 73.5t-83 195.5q0 297 459 366q191 27 328 33l6 19q12 62 12 92q0 88 -53.5 131t-149.5 43
q-106 0 -176.5 -56.5t-91.5 -150.5h-180q33 153 155.5 249.5t303.5 96.5zM741 420l23 88q-118 -6 -281 -29q-84 -13 -141 -35t-87 -50.5t-42 -58.5t-12 -67q0 -70 48 -110.5t136 -40.5q131 0 225 79.5t131 223.5z" />
    <glyph glyph-name="Abreve" unicode="&#x102;" horiz-adv-x="1382" 
d="M963 1548q-127 0 -196 63t-69 177q0 33 4 51h121q-2 -10 -2 -29q0 -65 38 -100t108 -35q83 0 141 42.5t84 121.5h147q-38 -138 -136.5 -214.5t-239.5 -76.5zM1053 1458l192 -1458h-188l-51 434h-644l-268 -434h-213l916 1458h256zM987 600l-16 133q-37 304 -66 594h-4
q-176 -300 -354 -594l-82 -133h522z" />
    <glyph glyph-name="abreve" unicode="&#x103;" horiz-adv-x="1087" 
d="M901 1458h148q-38 -138 -138 -215.5t-239 -77.5q-128 0 -196 63t-68 179q0 33 4 51h120q-2 -10 -2 -31q0 -66 37.5 -100.5t108.5 -34.5q83 0 141 43t84 123zM623 1069q175 0 268.5 -78t93.5 -235q0 -62 -18 -138l-88 -352q-43 -171 -43 -266h-164q0 54 18 131h-4
q-142 -154 -360 -154q-150 0 -233 73.5t-83 195.5q0 297 459 366q191 27 328 33l6 19q12 62 12 92q0 88 -53.5 131t-149.5 43q-106 0 -176.5 -56.5t-91.5 -150.5h-180q33 153 155.5 249.5t303.5 96.5zM741 420l23 88q-118 -6 -281 -29q-84 -13 -141 -35t-87 -50.5t-42 -58.5
t-12 -67q0 -70 48 -110.5t136 -40.5q131 0 225 79.5t131 223.5z" />
    <glyph glyph-name="Aogonek" unicode="&#x104;" horiz-adv-x="1382" 
d="M1036 -227q0 -56 66 -56q42 0 80 15l-29 -115q-47 -14 -106 -14q-90 0 -135.5 37.5t-45.5 107.5q0 66 52 126t165 126h-26l-51 434h-644l-268 -434h-213l916 1458h256l192 -1458q-119 -72 -164 -126t-45 -101zM987 600l-16 133q-37 304 -66 594h-4q-176 -300 -354 -594
l-82 -133h522z" />
    <glyph glyph-name="aogonek" unicode="&#x105;" horiz-adv-x="1087" 
d="M623 1069q175 0 268.5 -78t93.5 -235q0 -62 -18 -138l-88 -352q-43 -171 -43 -266q-119 -72 -164 -126t-45 -101q0 -56 65 -56q42 0 80 15l-29 -115q-47 -14 -106 -14q-90 0 -135 37.5t-45 107.5q0 65 51.5 125t163.5 127q0 54 18 131h-4q-142 -154 -360 -154
q-150 0 -233 73.5t-83 195.5q0 297 459 366q191 27 328 33l6 19q12 62 12 92q0 88 -53.5 131t-149.5 43q-106 0 -176.5 -56.5t-91.5 -150.5h-180q33 153 155.5 249.5t303.5 96.5zM385 117q131 0 225 79.5t131 223.5l23 88q-118 -6 -281 -29q-84 -13 -141 -35t-87 -50.5
t-42 -58.5t-12 -67q0 -70 48 -110.5t136 -40.5z" />
    <glyph glyph-name="Cacute" unicode="&#x106;" horiz-adv-x="1413" 
d="M981 1556h-166l238 283h241zM915 1487q229 0 362.5 -128.5t133.5 -336.5q0 -45 -6 -88h-195q4 50 4 70q0 145 -85.5 228t-233.5 83q-110 0 -205 -47.5t-161 -125t-113 -176.5t-69.5 -201.5t-22.5 -199.5q0 -194 90 -308t254 -114q147 0 268 89t178 239h197
q-75 -231 -252 -365.5t-408 -134.5q-248 0 -386 156t-138 422q0 126 30.5 255t95.5 252t156 219t222.5 154t283.5 58z" />
    <glyph glyph-name="cacute" unicode="&#x107;" horiz-adv-x="1093" 
d="M723 1165h-166l238 293h241zM659 1069q183 0 286.5 -100t103.5 -267q0 -33 -2 -51h-187q2 14 2 41q0 106 -56 168t-157 62q-90 0 -166 -51t-122.5 -130t-72.5 -167.5t-26 -170.5q0 -133 60.5 -208.5t166.5 -75.5q103 0 187.5 68.5t120.5 174.5h190q-60 -175 -196.5 -283
t-313.5 -108q-186 0 -293.5 114.5t-107.5 313.5q0 87 22.5 178.5t70.5 179.5t114.5 157.5t164.5 112t211 42.5z" />
    <glyph glyph-name="Ccircumflex" unicode="&#x108;" horiz-adv-x="1413" 
d="M924 1839h198l162 -283h-162l-106 183l-197 -183h-201zM915 1487q229 0 362.5 -128.5t133.5 -336.5q0 -45 -6 -88h-195q4 50 4 70q0 145 -85.5 228t-233.5 83q-110 0 -205 -47.5t-161 -125t-113 -176.5t-69.5 -201.5t-22.5 -199.5q0 -194 90 -308t254 -114q147 0 268 89
t178 239h197q-75 -231 -252 -365.5t-408 -134.5q-248 0 -386 156t-138 422q0 126 30.5 255t95.5 252t156 219t222.5 154t283.5 58z" />
    <glyph glyph-name="ccircumflex" unicode="&#x109;" horiz-adv-x="1093" 
d="M1026 1165h-166l-106 191l-197 -191h-197l306 293h198zM659 1069q183 0 286.5 -100t103.5 -267q0 -33 -2 -51h-187q2 14 2 41q0 106 -56 168t-157 62q-90 0 -166 -51t-122.5 -130t-72.5 -167.5t-26 -170.5q0 -133 60.5 -208.5t166.5 -75.5q103 0 187.5 68.5t120.5 174.5
h190q-60 -175 -196.5 -283t-313.5 -108q-186 0 -293.5 114.5t-107.5 313.5q0 87 22.5 178.5t70.5 179.5t114.5 157.5t164.5 112t211 42.5z" />
    <glyph glyph-name="Cdotaccent" unicode="&#x10a;" horiz-adv-x="1413" 
d="M1049 1587h-181l52 203h180zM915 1487q229 0 362.5 -128.5t133.5 -336.5q0 -45 -6 -88h-195q4 50 4 70q0 145 -85.5 228t-233.5 83q-110 0 -205 -47.5t-161 -125t-113 -176.5t-69.5 -201.5t-22.5 -199.5q0 -194 90 -308t254 -114q147 0 268 89t178 239h197
q-75 -231 -252 -365.5t-408 -134.5q-248 0 -386 156t-138 422q0 126 30.5 255t95.5 252t156 219t222.5 154t283.5 58z" />
    <glyph glyph-name="cdotaccent" unicode="&#x10b;" horiz-adv-x="1093" 
d="M805 1255h-180l49 203h180zM659 1069q183 0 286.5 -100t103.5 -267q0 -33 -2 -51h-187q2 14 2 41q0 106 -56 168t-157 62q-90 0 -166 -51t-122.5 -130t-72.5 -167.5t-26 -170.5q0 -133 60.5 -208.5t166.5 -75.5q103 0 187.5 68.5t120.5 174.5h190q-60 -175 -196.5 -283
t-313.5 -108q-186 0 -293.5 114.5t-107.5 313.5q0 87 22.5 178.5t70.5 179.5t114.5 157.5t164.5 112t211 42.5z" />
    <glyph glyph-name="Ccaron" unicode="&#x10c;" horiz-adv-x="1413" 
d="M1049 1556h-199l-162 283h162l106 -180l197 180h201zM915 1487q229 0 362.5 -128.5t133.5 -336.5q0 -45 -6 -88h-195q4 50 4 70q0 145 -85.5 228t-233.5 83q-110 0 -205 -47.5t-161 -125t-113 -176.5t-69.5 -201.5t-22.5 -199.5q0 -194 90 -308t254 -114q147 0 268 89
t178 239h197q-75 -231 -252 -365.5t-408 -134.5q-248 0 -386 156t-138 422q0 126 30.5 255t95.5 252t156 219t222.5 154t283.5 58z" />
    <glyph glyph-name="ccaron" unicode="&#x10d;" horiz-adv-x="1093" 
d="M793 1165h-199l-162 293h166l107 -190l196 190h197zM659 1069q183 0 286.5 -100t103.5 -267q0 -33 -2 -51h-187q2 14 2 41q0 106 -56 168t-157 62q-90 0 -166 -51t-122.5 -130t-72.5 -167.5t-26 -170.5q0 -133 60.5 -208.5t166.5 -75.5q103 0 187.5 68.5t120.5 174.5h190
q-60 -175 -196.5 -283t-313.5 -108q-186 0 -293.5 114.5t-107.5 313.5q0 87 22.5 178.5t70.5 179.5t114.5 157.5t164.5 112t211 42.5z" />
    <glyph glyph-name="Dcaron" unicode="&#x10e;" horiz-adv-x="1480" 
d="M1030 1556h-199l-161 283h161l107 -180l197 180h200zM428 1458h350q330 0 500 -159t170 -463q0 -117 -31.5 -232.5t-101.5 -225t-170.5 -193.5t-249 -134.5t-326.5 -50.5h-503zM573 1290l-280 -1122h285q117 0 217.5 28.5t172.5 78.5t127 114t88 138.5t49.5 148.5
t16.5 147q0 230 -120.5 348.5t-358.5 118.5h-197z" />
    <glyph glyph-name="dcaron" unicode="&#x10f;" horiz-adv-x="1177" 
d="M889 0h-178l28 113h-4q-61 -64 -142.5 -102t-166.5 -38q-170 0 -263 106.5t-93 295.5q0 90 22.5 184.5t69 185t111 162t156.5 115t196 43.5q111 0 189.5 -55t105.5 -148h4l147 596h180zM1343 1098h-110l149 360h162zM639 920q-72 0 -134.5 -32.5t-106.5 -86.5t-76 -122
t-47 -139t-15 -139q0 -134 57 -208t162 -74q72 0 134.5 32.5t106.5 86t76 121.5t47 139t15 139q0 134 -57 208.5t-162 74.5z" />
    <glyph glyph-name="Dcroat" unicode="&#x110;" horiz-adv-x="1482" 
d="M428 1458h350q330 0 500 -159t170 -463q0 -117 -31.5 -232.5t-101.5 -225t-170.5 -193.5t-249 -134.5t-326.5 -50.5h-503l165 666h-135l37 145h133zM293 168h285q117 0 217.5 28.5t172.5 78.5t127 114t88 138.5t49.5 148.5t16.5 147q0 230 -120.5 348.5t-358.5 118.5
h-197l-118 -479h415l-39 -145h-413z" />
    <glyph glyph-name="dcroat" unicode="&#x111;" horiz-adv-x="1167" 
d="M1319 1188h-135l-295 -1188h-178l28 113h-4q-61 -64 -142.5 -102t-166.5 -38q-170 0 -263 106.5t-93 295.5q0 90 22.5 184.5t69 185t111 162t156.5 115t196 43.5q111 0 189.5 -55t105.5 -148h4l80 326h-267l29 112h266l39 158h180l-39 -158h136zM479 119q72 0 134.5 32.5
t106.5 86t76 121.5t47 139t15 139q0 134 -57 208.5t-162 74.5q-72 0 -134.5 -32.5t-106.5 -86.5t-76 -122t-47 -139t-15 -139q0 -134 57 -208t162 -74z" />
    <glyph glyph-name="Emacron" unicode="&#x112;" horiz-adv-x="1265" 
d="M1208 1614h-581l30 133h582zM1327 1290h-752l-114 -461h708l-41 -165h-710l-123 -496h774l-41 -168h-962l362 1458h940z" />
    <glyph glyph-name="emacron" unicode="&#x113;" horiz-adv-x="1128" 
d="M997 1262h-581l30 131h584zM1034 483h-776q-12 -61 -12 -108q0 -132 66.5 -198t179.5 -66q103 0 184 55t119 145h184q-58 -146 -190 -243t-308 -97q-199 0 -303 111t-104 309q0 89 23.5 182t73 182t118 159t166.5 112.5t211 42.5q192 0 293.5 -105.5t101.5 -291.5
q0 -66 -27 -189zM657 930q-125 0 -223 -81t-143 -228h596q6 35 6 67q0 118 -62.5 180t-173.5 62z" />
    <glyph glyph-name="Ebreve" unicode="&#x114;" horiz-adv-x="1265" 
d="M1145 1839h147q-38 -138 -137 -214.5t-240 -76.5q-127 0 -195.5 63t-68.5 177q0 33 4 51h121q-2 -10 -2 -29q0 -65 38 -100t108 -35q83 0 141 42.5t84 121.5zM1327 1290h-752l-114 -461h708l-41 -165h-710l-123 -496h774l-41 -168h-962l362 1458h940z" />
    <glyph glyph-name="ebreve" unicode="&#x115;" horiz-adv-x="1128" 
d="M696 1165q-128 0 -196 63t-68 179q0 33 4 51h121q-2 -10 -2 -31q0 -66 37 -100.5t108 -34.5q83 0 141.5 43t84.5 123h147q-38 -138 -138 -215.5t-239 -77.5zM666 1069q192 0 293.5 -105.5t101.5 -291.5q0 -66 -27 -189h-776q-12 -61 -12 -108q0 -132 66.5 -198t179.5 -66
q103 0 184 55t119 145h184q-58 -146 -190 -243t-308 -97q-199 0 -303 111t-104 309q0 89 23.5 182t73 182t118 159t166.5 112.5t211 42.5zM657 930q-125 0 -223 -81t-143 -228h596q6 35 6 67q0 118 -62.5 180t-173.5 62z" />
    <glyph glyph-name="Edotaccent" unicode="&#x116;" horiz-adv-x="1265" 
d="M999 1587h-180l51 203h181zM1327 1290h-752l-114 -461h708l-41 -165h-710l-123 -496h774l-41 -168h-962l362 1458h940z" />
    <glyph glyph-name="edotaccent" unicode="&#x117;" horiz-adv-x="1128" 
d="M795 1255h-181l50 203h180zM1034 483h-776q-12 -61 -12 -108q0 -132 66.5 -198t179.5 -66q103 0 184 55t119 145h184q-58 -146 -190 -243t-308 -97q-199 0 -303 111t-104 309q0 89 23.5 182t73 182t118 159t166.5 112.5t211 42.5q192 0 293.5 -105.5t101.5 -291.5
q0 -66 -27 -189zM657 930q-125 0 -223 -81t-143 -228h596q6 35 6 67q0 118 -62.5 180t-173.5 62z" />
    <glyph glyph-name="Eogonek" unicode="&#x118;" horiz-adv-x="1265" 
d="M575 1290l-114 -461h708l-41 -165h-710l-123 -496h774l-41 -168q-119 -72 -164 -126t-45 -101q0 -56 66 -56q43 0 80 15l-29 -115q-47 -14 -107 -14q-90 0 -135 37.5t-45 107.5q0 66 52 126t165 126h-800l362 1458h940l-41 -168h-752z" />
    <glyph glyph-name="eogonek" unicode="&#x119;" horiz-adv-x="1124" 
d="M1030 483h-776q-10 -68 -10 -108q0 -132 66 -198t179 -66q104 0 185 55t119 145h184q-61 -153 -234 -280q-124 -88 -170.5 -147t-46.5 -111q0 -56 68 -56q40 0 80 15l-29 -115q-47 -14 -106 -14q-90 0 -135.5 37.5t-45.5 107.5q0 58 38.5 111t121.5 110v4q-4 0 -17.5 -1
t-21.5 -1q-199 0 -303 111t-104 309q0 89 23.5 182t73 182t118 159t166.5 112.5t211 42.5q192 0 293.5 -105.5t101.5 -291.5q0 -70 -29 -189zM653 930q-124 0 -221.5 -81t-142.5 -228h596q6 35 6 67q0 118 -63 180t-175 62z" />
    <glyph glyph-name="Ecaron" unicode="&#x11a;" horiz-adv-x="1265" 
d="M999 1556h-198l-162 283h162l106 -180l197 180h201zM1327 1290h-752l-114 -461h708l-41 -165h-710l-123 -496h774l-41 -168h-962l362 1458h940z" />
    <glyph glyph-name="ecaron" unicode="&#x11b;" horiz-adv-x="1128" 
d="M584 1165l-162 293h166l106 -190l197 190h196l-305 -293h-198zM666 1069q192 0 293.5 -105.5t101.5 -291.5q0 -66 -27 -189h-776q-12 -61 -12 -108q0 -132 66.5 -198t179.5 -66q103 0 184 55t119 145h184q-58 -146 -190 -243t-308 -97q-199 0 -303 111t-104 309
q0 89 23.5 182t73 182t118 159t166.5 112.5t211 42.5zM657 930q-125 0 -223 -81t-143 -228h596q6 35 6 67q0 118 -62.5 180t-173.5 62z" />
    <glyph glyph-name="Gcircumflex" unicode="&#x11c;" horiz-adv-x="1497" 
d="M932 1839h198l162 -283h-162l-106 183l-197 -183h-200zM948 1487q234 0 367 -117t133 -317q0 -26 -4 -66h-201q2 12 2 35q0 139 -83 216t-232 77q-117 0 -218.5 -47.5t-171.5 -125.5t-120.5 -178t-74 -205.5t-23.5 -207.5q0 -194 88 -305t256 -111q79 0 153 26t141 78
t120 139.5t81 201.5h-401l41 161h581l-184 -741h-168l41 168h-4q-74 -89 -196 -142t-255 -53q-228 0 -357.5 156.5t-129.5 417.5q0 108 23.5 218t68 215.5t115 197t158.5 160.5t205 109t249 40z" />
    <glyph glyph-name="gcircumflex" unicode="&#x11d;" horiz-adv-x="1173" 
d="M1057 1165h-166l-107 191l-196 -191h-197l305 293h199zM621 1067q114 0 191 -55t108 -154h4l45 182h174l-254 -1028q-50 -200 -187.5 -303.5t-341.5 -103.5q-186 0 -284.5 71.5t-98.5 200.5q0 22 7 57h178q-4 -14 -4 -43q0 -71 55 -109t156 -38q139 0 225.5 75t128.5 240
l22 93h-4q-142 -142 -323 -142q-161 0 -250.5 108.5t-89.5 299.5q0 84 22.5 173.5t68.5 174.5t109 152t152.5 108t190.5 41zM625 918q-83 0 -153.5 -48.5t-114 -122.5t-67.5 -156t-24 -155q0 -129 55.5 -201.5t157.5 -72.5q72 0 135 31t107 81t75.5 113.5t46.5 129t15 126.5
q0 130 -60.5 202.5t-172.5 72.5z" />
    <glyph glyph-name="Gbreve" unicode="&#x11e;" horiz-adv-x="1497" 
d="M1202 1839h148q-38 -138 -137 -214.5t-240 -76.5q-127 0 -195.5 63t-68.5 177q0 33 4 51h121q-3 -15 -3 -29q0 -65 38 -100t108 -35q83 0 141 42.5t84 121.5zM948 1487q234 0 367 -117t133 -317q0 -26 -4 -66h-201q2 12 2 35q0 139 -83 216t-232 77q-117 0 -218.5 -47.5
t-171.5 -125.5t-120.5 -178t-74 -205.5t-23.5 -207.5q0 -194 88 -305t256 -111q79 0 153 26t141 78t120 139.5t81 201.5h-401l41 161h581l-184 -741h-168l41 168h-4q-74 -89 -196 -142t-255 -53q-228 0 -357.5 156.5t-129.5 417.5q0 108 23.5 218t68 215.5t115 197
t158.5 160.5t205 109t249 40z" />
    <glyph glyph-name="gbreve" unicode="&#x11f;" horiz-adv-x="1173" 
d="M967 1458h147q-38 -138 -138 -215.5t-239 -77.5q-128 0 -196 63t-68 179q0 33 4 51h121q-2 -10 -2 -31q0 -66 37 -100.5t108 -34.5q83 0 141.5 43t84.5 123zM621 1067q114 0 191 -55t108 -154h4l45 182h174l-254 -1028q-50 -200 -187.5 -303.5t-341.5 -103.5
q-186 0 -284.5 71.5t-98.5 200.5q0 22 7 57h178q-4 -14 -4 -43q0 -71 55 -109t156 -38q139 0 225.5 75t128.5 240l22 93h-4q-142 -142 -323 -142q-161 0 -250.5 108.5t-89.5 299.5q0 84 22.5 173.5t68.5 174.5t109 152t152.5 108t190.5 41zM625 918q-83 0 -153.5 -48.5
t-114 -122.5t-67.5 -156t-24 -155q0 -129 55.5 -201.5t157.5 -72.5q72 0 135 31t107 81t75.5 113.5t46.5 129t15 126.5q0 130 -60.5 202.5t-172.5 72.5z" />
    <glyph glyph-name="Gdotaccent" unicode="&#x120;" horiz-adv-x="1497" 
d="M1057 1587h-180l51 203h180zM948 1487q234 0 367 -117t133 -317q0 -26 -4 -66h-201q2 12 2 35q0 139 -83 216t-232 77q-117 0 -218.5 -47.5t-171.5 -125.5t-120.5 -178t-74 -205.5t-23.5 -207.5q0 -194 88 -305t256 -111q79 0 153 26t141 78t120 139.5t81 201.5h-401
l41 161h581l-184 -741h-168l41 168h-4q-74 -89 -196 -142t-255 -53q-228 0 -357.5 156.5t-129.5 417.5q0 108 23.5 218t68 215.5t115 197t158.5 160.5t205 109t249 40z" />
    <glyph glyph-name="gdotaccent" unicode="&#x121;" horiz-adv-x="1173" 
d="M836 1255h-181l50 203h180zM621 1067q114 0 191 -55t108 -154h4l45 182h174l-254 -1028q-50 -200 -187.5 -303.5t-341.5 -103.5q-186 0 -284.5 71.5t-98.5 200.5q0 22 7 57h178q-4 -14 -4 -43q0 -71 55 -109t156 -38q139 0 225.5 75t128.5 240l22 93h-4
q-142 -142 -323 -142q-161 0 -250.5 108.5t-89.5 299.5q0 84 22.5 173.5t68.5 174.5t109 152t152.5 108t190.5 41zM625 918q-83 0 -153.5 -48.5t-114 -122.5t-67.5 -156t-24 -155q0 -129 55.5 -201.5t157.5 -72.5q72 0 135 31t107 81t75.5 113.5t46.5 129t15 126.5
q0 130 -60.5 202.5t-172.5 72.5z" />
    <glyph glyph-name="Gcommaaccent" unicode="&#x122;" horiz-adv-x="1497" 
d="M948 1487q234 0 367 -117t133 -317q0 -26 -4 -66h-201q2 12 2 35q0 139 -83 216t-232 77q-117 0 -218.5 -47.5t-171.5 -125.5t-120.5 -178t-74 -205.5t-23.5 -207.5q0 -194 88 -305t256 -111q79 0 153 26t141 78t120 139.5t81 201.5h-401l41 161h581l-184 -741h-168
l41 168h-4q-74 -89 -196 -142t-255 -53q-228 0 -357.5 156.5t-129.5 417.5q0 108 23.5 218t68 215.5t115 197t158.5 160.5t205 109t249 40zM631 -315l-166 -211h-78l131 211h-67l43 182h182z" />
    <glyph glyph-name="gcommaaccent" unicode="&#x123;" horiz-adv-x="1173" 
d="M793 1376h67l-43 -182h-182l43 182l168 211h78zM621 1067q114 0 191 -55t108 -154h4l45 182h174l-254 -1028q-50 -200 -187.5 -303.5t-341.5 -103.5q-186 0 -284.5 71.5t-98.5 200.5q0 22 7 57h178q-4 -14 -4 -43q0 -71 55 -109t156 -38q139 0 225.5 75t128.5 240l22 93
h-4q-142 -142 -323 -142q-161 0 -250.5 108.5t-89.5 299.5q0 84 22.5 173.5t68.5 174.5t109 152t152.5 108t190.5 41zM625 918q-83 0 -153.5 -48.5t-114 -122.5t-67.5 -156t-24 -155q0 -129 55.5 -201.5t157.5 -72.5q72 0 135 31t107 81t75.5 113.5t46.5 129t15 126.5
q0 130 -60.5 202.5t-172.5 72.5z" />
    <glyph glyph-name="Hcircumflex" unicode="&#x124;" horiz-adv-x="1509" 
d="M985 1839h199l162 -283h-162l-107 183l-196 -183h-201zM1188 0h-191l168 674h-743l-168 -674h-188l362 1458h188l-153 -618h745l152 618h190z" />
    <glyph glyph-name="hcircumflex" unicode="&#x125;" 
d="M819 1839h199l162 -283h-162l-107 183l-196 -183h-201zM440 924h4q64 66 147.5 102.5t174.5 36.5q147 0 227 -77t80 -224q0 -73 -20 -154l-152 -608h-180l149 608q19 81 19 131q0 176 -180 176q-114 0 -212.5 -84t-136.5 -235l-149 -596h-180l362 1458h180z" />
    <glyph glyph-name="Hbar" unicode="&#x126;" horiz-adv-x="1509" 
d="M1599 1176h-118l-293 -1176h-191l168 674h-743l-168 -674h-188l292 1176h-120l30 118h119l41 164h188l-41 -164h744l41 164h190l-41 -164h119zM1290 1176h-743l-84 -336h745z" />
    <glyph glyph-name="hbar" unicode="&#x127;" 
d="M766 1063q147 0 227 -77t80 -224q0 -73 -20 -154l-152 -608h-180l149 608q19 81 19 131q0 176 -180 176q-114 0 -212.5 -84t-136.5 -235l-149 -596h-180l295 1188h-146l27 106h145l41 164h180l-41 -164h256l-26 -106h-256l-66 -264h4q64 66 147.5 102.5t174.5 36.5z" />
    <glyph glyph-name="Itilde" unicode="&#x128;" horiz-adv-x="577" 
d="M852 1827h119q-34 -112 -100 -174t-152 -62q-43 0 -84 16.5t-66.5 36t-59 36t-63.5 16.5q-84 0 -118 -105h-123q31 112 97 174t153 62q55 0 104.5 -26.5t90.5 -52.5t77 -26q86 0 125 105zM254 0h-188l362 1458h188z" />
    <glyph glyph-name="itilde" unicode="&#x129;" horiz-adv-x="499" 
d="M682 1446h115q-32 -112 -94 -174t-142 -62q-37 0 -72 16.5t-57 36t-50 36t-54 16.5q-72 0 -103 -105h-121q34 112 96 174t140 62q38 0 73.5 -16.5t58 -36t50 -36t51.5 -16.5q71 0 109 105zM211 0h-180l258 1040h180z" />
    <glyph glyph-name="Imacron" unicode="&#x12a;" horiz-adv-x="577" 
d="M854 1614h-582l31 133h582zM254 0h-188l362 1458h188z" />
    <glyph glyph-name="imacron" unicode="&#x12b;" horiz-adv-x="499" 
d="M696 1262h-526l33 131h526zM211 0h-180l258 1040h180z" />
    <glyph glyph-name="Ibreve" unicode="&#x12c;" horiz-adv-x="577" 
d="M788 1839h148q-38 -138 -137 -214.5t-240 -76.5q-127 0 -195.5 63t-68.5 177q0 33 4 51h121q-2 -10 -2 -29q0 -66 38 -100.5t107 -34.5q83 0 141 42.5t84 121.5zM254 0h-188l362 1458h188z" />
    <glyph glyph-name="ibreve" unicode="&#x12d;" horiz-adv-x="499" 
d="M627 1458h141q-37 -138 -127.5 -215.5t-216.5 -77.5q-111 0 -171 61t-60 171q0 34 6 61h118q-2 -10 -2 -37q0 -62 31.5 -95.5t89.5 -33.5q67 0 116.5 43t74.5 123zM211 0h-180l258 1040h180z" />
    <glyph glyph-name="Iogonek" unicode="&#x12e;" horiz-adv-x="577" 
d="M616 1458l-362 -1458q-119 -72 -164 -126t-45 -101q0 -56 66 -56q41 0 79 15l-28 -115q-47 -14 -107 -14q-90 0 -135 37.5t-45 107.5q0 66 52 126t165 126h-26l362 1458h188z" />
    <glyph glyph-name="iogonek" unicode="&#x12f;" horiz-adv-x="499" 
d="M573 1458l-49 -203h-180l49 203h180zM289 1040h180l-258 -1040q-119 -72 -164 -126t-45 -101q0 -56 66 -56q42 0 79 15l-28 -115q-47 -14 -107 -14q-90 0 -135 37.5t-45 107.5q0 66 52 126t165 126h-18z" />
    <glyph glyph-name="Idotaccent" unicode="&#x130;" horiz-adv-x="577" 
d="M645 1587h-180l51 203h180zM254 0h-188l362 1458h188z" />
    <glyph glyph-name="dotlessi" unicode="&#x131;" horiz-adv-x="499" 
d="M211 0h-180l258 1040h180z" />
    <glyph glyph-name="IJ" unicode="&#x132;" horiz-adv-x="1304" 
d="M254 0h-188l362 1458h188zM1356 1458l-266 -1067q-98 -401 -490 -401q-76 0 -119 18l39 162q42 -10 78 -10q126 0 202 67.5t115 227.5l252 1003h189z" />
    <glyph glyph-name="ij" unicode="&#x133;" horiz-adv-x="1009" 
d="M524 1255h-180l49 203h180zM1034 1255h-180l49 203h180zM211 0h-180l258 1040h180zM979 1040l-281 -1122q-76 -305 -352 -305q-66 0 -115 14l35 140q32 -7 56 -7q82 0 132 47t78 162l267 1071h180z" />
    <glyph glyph-name="Jcircumflex" unicode="&#x134;" horiz-adv-x="729" 
d="M680 1839h199l161 -283h-161l-107 183l-197 -183h-200zM778 1458l-266 -1067q-98 -401 -489 -401q-76 0 -119 18l39 162q42 -10 77 -10q126 0 202.5 67.5t115.5 227.5l252 1003h188z" />
    <glyph glyph-name="jcircumflex" unicode="&#x135;" horiz-adv-x="509" 
d="M723 1167h-158l-80 191l-176 -191h-190l276 291h197zM479 1040l-280 -1122q-76 -305 -353 -305q-65 0 -114 14l35 140q32 -7 55 -7q82 0 132.5 47t78.5 162l266 1071h180z" />
    <glyph glyph-name="Kcommaaccent" unicode="&#x136;" horiz-adv-x="1280" 
d="M637 752l506 -752h-230l-473 731h-4l-182 -731h-188l362 1458h188l-159 -643h4l725 643h260zM416 -133h182l-45 -182l-166 -211h-78l131 211h-67z" />
    <glyph glyph-name="kcommaaccent" unicode="&#x137;" horiz-adv-x="1024" 
d="M530 555l383 -555h-211l-356 530h-4l-131 -530h-180l362 1458h180l-208 -840h4l499 422h248zM328 -133h182l-45 -182l-166 -211h-78l131 211h-67z" />
    <glyph glyph-name="kgreenlandic" unicode="&#x138;" horiz-adv-x="1058" 
d="M530 555l383 -555h-211l-356 530h-4l-131 -530h-180l258 1040h180l-104 -422h4l499 422h248z" />
    <glyph glyph-name="Lacute" unicode="&#x139;" horiz-adv-x="1148" 
d="M641 1556h-166l238 283h241zM295 168h743l-39 -168h-933l362 1458h188z" />
    <glyph glyph-name="lacute" unicode="&#x13a;" horiz-adv-x="499" 
d="M586 1583h-166l237 293h242zM211 0h-180l362 1458h180z" />
    <glyph glyph-name="Lcommaaccent" unicode="&#x13b;" horiz-adv-x="1148" 
d="M295 168h743l-39 -168h-933l362 1458h188zM543 -315l-166 -211h-78l131 211h-68l44 182h182z" />
    <glyph glyph-name="lcommaaccent" unicode="&#x13c;" horiz-adv-x="499" 
d="M211 0h-180l362 1458h180zM143 -315l-166 -211h-77l131 211h-68l43 182h182z" />
    <glyph glyph-name="Lcaron" unicode="&#x13d;" horiz-adv-x="1148" 
d="M295 168h743l-39 -168h-933l362 1458h188zM737 1012h-110l170 446h164z" />
    <glyph glyph-name="lcaron" unicode="&#x13e;" horiz-adv-x="499" 
d="M211 0h-180l362 1458h180zM668 1098h-111l150 360h161z" />
    <glyph glyph-name="Ldot" unicode="&#x13f;" horiz-adv-x="1312" 
d="M295 168h743l-39 -168h-933l362 1458h188zM1102 725h-221l57 240h223z" />
    <glyph glyph-name="ldot" unicode="&#x140;" horiz-adv-x="831" 
d="M211 0h-180l362 1458h180zM797 608h-222l58 240h223z" />
    <glyph glyph-name="Lslash" unicode="&#x141;" horiz-adv-x="1148" 
d="M1038 168l-39 -168h-933l153 614l-188 -96l47 187l186 98l164 655h188l-139 -559l348 180l-47 -188l-348 -180l-135 -543h743z" />
    <glyph glyph-name="lslash" unicode="&#x142;" horiz-adv-x="583" 
d="M651 872l-207 -108l-190 -764h-180l168 676l-209 -107l45 181l209 106l149 602h180l-127 -514l207 109z" />
    <glyph glyph-name="Nacute" unicode="&#x143;" horiz-adv-x="1546" 
d="M1061 1556h-166l238 283h241zM1225 0h-262l-199 629q-81 260 -201 653h-4q-95 -417 -166 -698l-143 -584h-184l362 1458h260l199 -629q24 -75 200 -653h5q103 452 163 698l148 584h184z" />
    <glyph glyph-name="nacute" unicode="&#x144;" 
d="M786 1165h-165l237 293h242zM766 1063q147 0 227 -77t80 -224q0 -73 -20 -154l-152 -608h-180l149 608q19 81 19 131q0 176 -180 176q-114 0 -212.5 -84t-136.5 -235l-149 -596h-180l260 1040h174l-33 -122h4q66 68 152 106.5t178 38.5z" />
    <glyph glyph-name="Ncommaaccent" unicode="&#x145;" horiz-adv-x="1546" 
d="M1225 0h-262l-199 629q-81 260 -201 653h-4q-95 -417 -166 -698l-143 -584h-184l362 1458h260l199 -629q24 -75 200 -653h5q103 452 163 698l148 584h184zM657 -315l-165 -211h-78l131 211h-68l43 182h182z" />
    <glyph glyph-name="ncommaaccent" unicode="&#x146;" 
d="M766 1063q147 0 227 -77t80 -224q0 -73 -20 -154l-152 -608h-180l149 608q19 81 19 131q0 176 -180 176q-114 0 -212.5 -84t-136.5 -235l-149 -596h-180l260 1040h174l-33 -122h4q66 68 152 106.5t178 38.5zM477 -315l-166 -211h-78l132 211h-68l43 182h182z" />
    <glyph glyph-name="Ncaron" unicode="&#x147;" horiz-adv-x="1546" 
d="M1130 1556h-198l-162 283h162l106 -180l197 180h201zM1225 0h-262l-199 629q-81 260 -201 653h-4q-95 -417 -166 -698l-143 -584h-184l362 1458h260l199 -629q24 -75 200 -653h5q103 452 163 698l148 584h184z" />
    <glyph glyph-name="ncaron" unicode="&#x148;" 
d="M854 1165h-199l-161 293h165l107 -190l197 190h196zM766 1063q147 0 227 -77t80 -224q0 -73 -20 -154l-152 -608h-180l149 608q19 81 19 131q0 176 -180 176q-114 0 -212.5 -84t-136.5 -235l-149 -596h-180l260 1040h174l-33 -122h4q66 68 152 106.5t178 38.5z" />
    <glyph glyph-name="napostrophe" unicode="&#x149;" horiz-adv-x="1421" 
d="M524 1237l-166 -274h-108l141 274h-69l53 221h205zM1010 1063q147 0 227 -77t80 -224q0 -60 -23 -154l-151 -608h-180l151 608q19 81 19 131q0 88 -46.5 132t-134.5 44q-116 0 -213.5 -84t-134.5 -235l-149 -596h-181l261 1040h172l-31 -122h4q66 68 151.5 106.5
t178.5 38.5z" />
    <glyph glyph-name="Eng" unicode="&#x14a;" horiz-adv-x="1523" 
d="M1565 1458l-387 -1544q-75 -303 -363 -303q-63 0 -106 14l32 139q30 -6 62 -6q78 0 127 44t74 149l14 51l-250 670q-74 198 -209 588h-4q-41 -188 -154 -646l-151 -614h-184l362 1458h240l213 -584q64 -174 211 -587h4q69 314 151 645l131 526h187z" />
    <glyph glyph-name="eng" unicode="&#x14b;" 
d="M766 1063q147 0 227 -77t80 -224q0 -73 -20 -154l-174 -690q-76 -305 -353 -305q-67 0 -116 14l34 140q35 -7 58 -7q81 0 131 47t78 162l159 639q19 81 19 131q0 176 -180 176q-114 0 -212.5 -84t-136.5 -235l-149 -596h-180l260 1040h174l-33 -122h4q66 68 151.5 106.5
t178.5 38.5z" />
    <glyph glyph-name="Omacron" unicode="&#x14c;" horiz-adv-x="1499" 
d="M1266 1614h-582l31 133h581zM909 1487q263 0 412 -165t149 -439q0 -104 -23 -211t-66.5 -208.5t-111 -191t-151.5 -156.5t-194 -106t-232 -39q-263 0 -411 164.5t-148 439.5q0 104 23 210.5t66 208.5t110.5 191.5t151 156.5t193.5 106t232 39zM903 1315q-108 0 -203 -46
t-162.5 -121.5t-116.5 -172t-73 -199t-24 -201.5q0 -197 98.5 -314.5t275.5 -117.5q107 0 202 45.5t163 120.5t117.5 171t73.5 199t24 202q0 198 -99 316t-276 118z" />
    <glyph glyph-name="omacron" unicode="&#x14d;" horiz-adv-x="1157" 
d="M1014 1262h-582l31 131h584zM657 1069q203 0 311.5 -115t108.5 -323q0 -88 -22.5 -179.5t-71 -178t-115.5 -153.5t-163.5 -108t-208.5 -41q-201 0 -308.5 115t-107.5 324q0 89 22.5 180t70 177t114.5 153t163 108t207 41zM643 922q-74 0 -137.5 -33t-107 -87
t-74.5 -121.5t-45.5 -137t-14.5 -133.5q0 -139 62.5 -215t183.5 -76q74 0 138.5 33t108.5 87t75.5 121.5t46 137t14.5 133.5q0 139 -63.5 215t-186.5 76z" />
    <glyph glyph-name="Obreve" unicode="&#x14e;" horiz-adv-x="1499" 
d="M1200 1839h148q-38 -138 -137 -214.5t-240 -76.5q-127 0 -195.5 63t-68.5 177q0 33 4 51h120q-2 -10 -2 -29q0 -65 38 -100t108 -35q83 0 141 42.5t84 121.5zM909 1487q263 0 412 -165t149 -439q0 -104 -23 -211t-66.5 -208.5t-111 -191t-151.5 -156.5t-194 -106
t-232 -39q-263 0 -411 164.5t-148 439.5q0 104 23 210.5t66 208.5t110.5 191.5t151 156.5t193.5 106t232 39zM903 1315q-108 0 -203 -46t-162.5 -121.5t-116.5 -172t-73 -199t-24 -201.5q0 -197 98.5 -314.5t275.5 -117.5q107 0 202 45.5t163 120.5t117.5 171t73.5 199
t24 202q0 198 -99 316t-276 118z" />
    <glyph glyph-name="obreve" unicode="&#x14f;" horiz-adv-x="1157" 
d="M942 1458h148q-38 -138 -138 -215.5t-239 -77.5q-128 0 -196 63t-68 179q0 33 4 51h120q-2 -10 -2 -31q0 -66 37.5 -100.5t108.5 -34.5q83 0 141 43t84 123zM657 1069q203 0 311.5 -115t108.5 -323q0 -88 -22.5 -179.5t-71 -178t-115.5 -153.5t-163.5 -108t-208.5 -41
q-201 0 -308.5 115t-107.5 324q0 89 22.5 180t70 177t114.5 153t163 108t207 41zM643 922q-74 0 -137.5 -33t-107 -87t-74.5 -121.5t-45.5 -137t-14.5 -133.5q0 -139 62.5 -215t183.5 -76q74 0 138.5 33t108.5 87t75.5 121.5t46 137t14.5 133.5q0 139 -63.5 215t-186.5 76z
" />
    <glyph glyph-name="Ohungarumlaut" unicode="&#x150;" horiz-adv-x="1499" 
d="M817 1548h-162l283 291h223zM1145 1548h-162l283 291h223zM909 1487q263 0 412 -165t149 -439q0 -104 -23 -211t-66.5 -208.5t-111 -191t-151.5 -156.5t-194 -106t-232 -39q-263 0 -411 164.5t-148 439.5q0 104 23 210.5t66 208.5t110.5 191.5t151 156.5t193.5 106
t232 39zM903 1315q-108 0 -203 -46t-162.5 -121.5t-116.5 -172t-73 -199t-24 -201.5q0 -197 98.5 -314.5t275.5 -117.5q107 0 202 45.5t163 120.5t117.5 171t73.5 199t24 202q0 198 -99 316t-276 118z" />
    <glyph glyph-name="ohungarumlaut" unicode="&#x151;" horiz-adv-x="1157" 
d="M578 1165h-162l278 293h224zM905 1165h-162l279 293h223zM657 1069q203 0 311.5 -115t108.5 -323q0 -88 -22.5 -179.5t-71 -178t-115.5 -153.5t-163.5 -108t-208.5 -41q-201 0 -308.5 115t-107.5 324q0 89 22.5 180t70 177t114.5 153t163 108t207 41zM643 922
q-74 0 -137.5 -33t-107 -87t-74.5 -121.5t-45.5 -137t-14.5 -133.5q0 -139 62.5 -215t183.5 -76q74 0 138.5 33t108.5 87t75.5 121.5t46 137t14.5 133.5q0 139 -63.5 215t-186.5 76z" />
    <glyph glyph-name="OE" unicode="&#x152;" horiz-adv-x="2045" 
d="M2107 1290h-751l-115 -461h711l-43 -165h-709l-125 -496h774l-41 -168h-1046q-307 0 -465 159.5t-158 463.5q0 117 31 232.5t100.5 225t168.5 193t246 134t323 50.5h1140zM1167 1290h-168q-139 0 -253 -41t-188.5 -107.5t-126 -154t-73.5 -175.5t-22 -177
q0 -230 110.5 -348.5t329.5 -118.5h111z" />
    <glyph glyph-name="oe" unicode="&#x153;" horiz-adv-x="1837" 
d="M1745 483h-737q-13 -67 -13 -112q0 -129 61 -194.5t163 -65.5q97 0 173.5 55t114.5 145h185q-58 -146 -187 -243t-299 -97q-125 0 -209 56t-123 161q-73 -101 -176.5 -159t-232.5 -58q-186 0 -286.5 113.5t-100.5 318.5q0 89 22.5 181t69.5 179t112.5 155t159 109.5
t201.5 41.5q130 0 218 -59t128 -170q73 105 178 167t234 62q182 0 276.5 -103t94.5 -288q0 -82 -27 -195zM1382 930q-115 0 -206.5 -81t-135.5 -228h559q7 44 7 71q0 117 -59 177.5t-165 60.5zM489 119q72 0 134.5 33.5t105 88t73.5 123t45.5 138.5t14.5 135
q0 136 -56 210.5t-167 74.5q-90 0 -164.5 -51t-119.5 -130t-69 -167.5t-24 -170.5q0 -135 58 -209.5t169 -74.5z" />
    <glyph glyph-name="Racute" unicode="&#x154;" horiz-adv-x="1310" 
d="M893 1556h-166l238 283h241zM428 1458h442q220 0 327.5 -89t107.5 -257q0 -142 -100 -266.5t-273 -159.5v-4q64 -24 96 -83t51 -191l51 -408h-192l-43 385q-13 130 -63.5 179.5t-169.5 49.5h-254l-154 -614h-188zM575 1296l-129 -522h293q79 0 143 19.5t105 50.5
t68.5 71.5t39 80t11.5 77.5q0 223 -262 223h-269z" />
    <glyph glyph-name="racute" unicode="&#x155;" horiz-adv-x="741" 
d="M614 1165h-165l237 293h242zM774 1051q42 0 76 -9l-41 -161q-69 6 -72 6q-148 0 -250 -92.5t-145 -264.5l-131 -530h-180l258 1040h172l-37 -145h4q150 156 346 156z" />
    <glyph glyph-name="Rcommaaccent" unicode="&#x156;" horiz-adv-x="1310" 
d="M428 1458h442q220 0 327.5 -89t107.5 -257q0 -142 -100 -266.5t-273 -159.5v-4q64 -24 96 -83t51 -191l51 -408h-192l-43 385q-13 130 -63.5 179.5t-169.5 49.5h-254l-154 -614h-188zM575 1296l-129 -522h293q79 0 143 19.5t105 50.5t68.5 71.5t39 80t11.5 77.5
q0 223 -262 223h-269zM604 -315l-166 -211h-78l132 211h-68l43 182h182z" />
    <glyph glyph-name="rcommaaccent" unicode="&#x157;" horiz-adv-x="741" 
d="M774 1051q42 0 76 -9l-41 -161q-69 6 -72 6q-148 0 -250 -92.5t-145 -264.5l-131 -530h-180l258 1040h172l-37 -145h4q150 156 346 156zM143 -315l-166 -211h-77l131 211h-68l43 182h182z" />
    <glyph glyph-name="Rcaron" unicode="&#x158;" horiz-adv-x="1310" 
d="M963 1556h-199l-162 283h162l106 -180l197 180h201zM428 1458h442q220 0 327.5 -89t107.5 -257q0 -142 -100 -266.5t-273 -159.5v-4q64 -24 96 -83t51 -191l51 -408h-192l-43 385q-13 130 -63.5 179.5t-169.5 49.5h-254l-154 -614h-188zM575 1296l-129 -522h293
q79 0 143 19.5t105 50.5t68.5 71.5t39 80t11.5 77.5q0 223 -262 223h-269z" />
    <glyph glyph-name="rcaron" unicode="&#x159;" horiz-adv-x="741" 
d="M684 1165h-199l-161 293h165l107 -190l197 190h196zM774 1051q42 0 76 -9l-41 -161q-69 6 -72 6q-148 0 -250 -92.5t-145 -264.5l-131 -530h-180l258 1040h172l-37 -145h4q150 156 346 156z" />
    <glyph glyph-name="Sacute" unicode="&#x15a;" horiz-adv-x="1247" 
d="M844 1556h-166l237 283h242zM786 1487q463 0 463 -365q0 -57 -14 -114h-191q11 60 11 88q0 229 -287 229q-153 0 -238.5 -76t-85.5 -172q0 -94 66 -145t221 -101q52 -18 88 -32t79.5 -34.5t72.5 -41.5t58.5 -51.5t46.5 -64.5t27.5 -79.5t10.5 -99.5q0 -63 -22.5 -127
t-70 -123.5t-114 -105.5t-162.5 -73.5t-208 -27.5q-231 0 -355.5 99t-124.5 288q0 58 15 125h192q-12 -58 -12 -104q0 -246 303 -246q94 0 167 26t113 68t60 87.5t20 91.5q0 52 -17.5 90.5t-58.5 68t-87 50t-123 47.5q-63 22 -103 38t-89 41t-78.5 52.5t-56.5 65t-39.5 86.5
t-12.5 110q0 58 20.5 117.5t64.5 116.5t105.5 101t151 70.5t194.5 26.5z" />
    <glyph glyph-name="sacute" unicode="&#x15b;" horiz-adv-x="1011" 
d="M659 1165h-165l237 293h242zM588 1069q178 0 270 -70t92 -204q0 -44 -8 -80h-174q6 54 6 63q0 74 -52.5 113t-150.5 39q-101 0 -161 -43.5t-60 -116.5q0 -64 42.5 -93t164.5 -69q37 -12 51 -16.5t48.5 -17.5t49 -20.5t42 -23.5t40.5 -30t31 -35t26 -44t14.5 -52.5
t6.5 -63.5q0 -63 -28 -121.5t-81.5 -106.5t-141.5 -77t-197 -29q-187 0 -289 74.5t-102 214.5q0 52 10 86h182q-8 -31 -8 -70q0 -78 56.5 -119.5t164.5 -41.5q118 0 182 46.5t64 127.5q0 30 -10.5 53t-26.5 39.5t-49 32.5t-64 27.5t-86 29.5q-119 39 -163 66
q-107 73 -109 215q0 60 27.5 116t78.5 101.5t132 72.5t180 27z" />
    <glyph glyph-name="Scircumflex" unicode="&#x15c;" horiz-adv-x="1247" 
d="M786 1839h199l162 -283h-162l-106 183l-197 -183h-201zM786 1487q463 0 463 -365q0 -57 -14 -114h-191q11 60 11 88q0 229 -287 229q-153 0 -238.5 -76t-85.5 -172q0 -94 66 -145t221 -101q52 -18 88 -32t79.5 -34.5t72.5 -41.5t58.5 -51.5t46.5 -64.5t27.5 -79.5
t10.5 -99.5q0 -63 -22.5 -127t-70 -123.5t-114 -105.5t-162.5 -73.5t-208 -27.5q-231 0 -355.5 99t-124.5 288q0 58 15 125h192q-12 -58 -12 -104q0 -246 303 -246q94 0 167 26t113 68t60 87.5t20 91.5q0 52 -17.5 90.5t-58.5 68t-87 50t-123 47.5q-63 22 -103 38t-89 41
t-78.5 52.5t-56.5 65t-39.5 86.5t-12.5 110q0 58 20.5 117.5t64.5 116.5t105.5 101t151 70.5t194.5 26.5z" />
    <glyph glyph-name="scircumflex" unicode="&#x15d;" horiz-adv-x="1011" 
d="M963 1165h-166l-107 191l-196 -191h-197l305 293h199zM588 1069q178 0 270 -70t92 -204q0 -44 -8 -80h-174q6 54 6 63q0 74 -52.5 113t-150.5 39q-101 0 -161 -43.5t-60 -116.5q0 -64 42.5 -93t164.5 -69q37 -12 51 -16.5t48.5 -17.5t49 -20.5t42 -23.5t40.5 -30t31 -35
t26 -44t14.5 -52.5t6.5 -63.5q0 -63 -28 -121.5t-81.5 -106.5t-141.5 -77t-197 -29q-187 0 -289 74.5t-102 214.5q0 52 10 86h182q-8 -31 -8 -70q0 -78 56.5 -119.5t164.5 -41.5q118 0 182 46.5t64 127.5q0 30 -10.5 53t-26.5 39.5t-49 32.5t-64 27.5t-86 29.5
q-119 39 -163 66q-107 73 -109 215q0 60 27.5 116t78.5 101.5t132 72.5t180 27z" />
    <glyph glyph-name="Scedilla" unicode="&#x15e;" horiz-adv-x="1247" 
d="M1235 1008h-191q11 60 11 88q0 229 -287 229q-153 0 -238.5 -76t-85.5 -172q0 -94 66 -145t221 -101q52 -18 88 -32t79.5 -34.5t72.5 -41.5t58.5 -51.5t46.5 -64.5t27.5 -79.5t10.5 -99.5q0 -76 -33 -151.5t-95.5 -141t-164.5 -110t-227 -52.5l-90 -100q16 4 39 4
q60 0 96.5 -36t36.5 -101q0 -79 -74 -135t-188 -56q-116 0 -203 56l43 76q71 -43 156 -43q62 0 98.5 26.5t36.5 69.5q0 34 -22.5 53.5t-63.5 19.5q-38 0 -68 -12l-35 33l133 145q-208 9 -320 107.5t-112 277.5q0 58 15 125h192q-12 -58 -12 -104q0 -246 303 -246
q94 0 167 26t113 68t60 87.5t20 91.5q0 52 -17.5 90.5t-58.5 68t-87 50t-123 47.5q-63 22 -103 38t-89 41t-78.5 52.5t-56.5 65t-39.5 86.5t-12.5 110q0 58 20.5 117.5t64.5 116.5t105.5 101t151 70.5t194.5 26.5q463 0 463 -365q0 -57 -14 -114z" />
    <glyph glyph-name="scedilla" unicode="&#x15f;" horiz-adv-x="1011" 
d="M942 715h-174q6 54 6 63q0 74 -52.5 113t-150.5 39q-101 0 -161 -43.5t-60 -116.5q0 -64 42.5 -93t164.5 -69q37 -12 51 -16.5t48.5 -17.5t49 -20.5t42 -23.5t40.5 -30t31 -35t26 -44t14.5 -52.5t6.5 -63.5q0 -59 -24.5 -114.5t-71.5 -101.5t-123 -77.5t-172 -38.5
l-90 -100q16 4 39 4q60 0 96.5 -36t36.5 -101q0 -79 -74 -135t-188 -56q-116 0 -203 56l43 76q71 -43 156 -43q62 0 98.5 26.5t36.5 69.5q0 34 -22.5 53.5t-63.5 19.5q-38 0 -68 -12l-34 33l133 145q-166 9 -255 82.5t-89 204.5q0 52 10 86h182q-8 -31 -8 -70
q0 -78 56.5 -119.5t164.5 -41.5q118 0 182 46.5t64 127.5q0 30 -10.5 53t-26.5 39.5t-49 32.5t-64 27.5t-86 29.5q-119 39 -163 66q-107 73 -109 215q0 60 27.5 116t78.5 101.5t132 72.5t180 27q178 0 270 -70t92 -204q0 -44 -8 -80z" />
    <glyph glyph-name="Scaron" unicode="&#x160;" horiz-adv-x="1247" 
d="M913 1556h-198l-162 283h162l106 -180l197 180h201zM786 1487q463 0 463 -365q0 -57 -14 -114h-191q11 60 11 88q0 229 -287 229q-153 0 -238.5 -76t-85.5 -172q0 -94 66 -145t221 -101q52 -18 88 -32t79.5 -34.5t72.5 -41.5t58.5 -51.5t46.5 -64.5t27.5 -79.5
t10.5 -99.5q0 -63 -22.5 -127t-70 -123.5t-114 -105.5t-162.5 -73.5t-208 -27.5q-231 0 -355.5 99t-124.5 288q0 58 15 125h192q-12 -58 -12 -104q0 -246 303 -246q94 0 167 26t113 68t60 87.5t20 91.5q0 52 -17.5 90.5t-58.5 68t-87 50t-123 47.5q-63 22 -103 38t-89 41
t-78.5 52.5t-56.5 65t-39.5 86.5t-12.5 110q0 58 20.5 117.5t64.5 116.5t105.5 101t151 70.5t194.5 26.5z" />
    <glyph glyph-name="scaron" unicode="&#x161;" horiz-adv-x="1011" 
d="M729 1165h-199l-161 293h166l106 -190l197 190h196zM588 1069q178 0 270 -70t92 -204q0 -44 -8 -80h-174q6 54 6 63q0 74 -52.5 113t-150.5 39q-101 0 -161 -43.5t-60 -116.5q0 -64 42.5 -93t164.5 -69q37 -12 51 -16.5t48.5 -17.5t49 -20.5t42 -23.5t40.5 -30t31 -35
t26 -44t14.5 -52.5t6.5 -63.5q0 -63 -28 -121.5t-81.5 -106.5t-141.5 -77t-197 -29q-187 0 -289 74.5t-102 214.5q0 52 10 86h182q-8 -31 -8 -70q0 -78 56.5 -119.5t164.5 -41.5q118 0 182 46.5t64 127.5q0 30 -10.5 53t-26.5 39.5t-49 32.5t-64 27.5t-86 29.5
q-119 39 -163 66q-107 73 -109 215q0 60 27.5 116t78.5 101.5t132 72.5t180 27z" />
    <glyph glyph-name="Tcedilla" unicode="&#x162;" horiz-adv-x="1226" 
d="M1399 1290h-498l-321 -1290h-191l322 1290h-498l41 168h1186zM506 -315l-166 -211h-78l131 211h-67l43 182h182z" />
    <glyph glyph-name="tcedilla" unicode="&#x163;" horiz-adv-x="655" 
d="M477 897l-143 -575q-12 -46 -12 -78q0 -54 27 -78.5t87 -24.5q32 0 72 9l-39 -148q-38 -10 -86 -10q-127 0 -186.5 51t-59.5 164q0 49 19 127l141 563h-182l37 143h180l63 252h180l-63 -252h207l-37 -143h-205zM131 -133h182l-45 -182l-166 -211h-77l131 211h-68z" />
    <glyph glyph-name="Tcaron" unicode="&#x164;" horiz-adv-x="1226" 
d="M952 1556h-198l-162 283h162l106 -180l197 180h200zM1399 1290h-498l-321 -1290h-191l322 1290h-498l41 168h1186z" />
    <glyph glyph-name="tcaron" unicode="&#x165;" horiz-adv-x="655" 
d="M707 1098h-111l149 360h162zM512 1040h207l-37 -143h-205l-143 -575q-12 -46 -12 -78q0 -54 27 -78.5t87 -24.5q32 0 72 9l-39 -148q-38 -10 -86 -10q-127 0 -186.5 51t-59.5 164q0 49 19 127l141 563h-182l37 143h180l63 252h180z" />
    <glyph glyph-name="Tbar" unicode="&#x166;" horiz-adv-x="1226" 
d="M901 1290l-113 -452h289l-37 -148h-288l-172 -690h-191l172 690h-289l37 148h289l113 452h-498l41 168h1186l-41 -168h-498z" />
    <glyph glyph-name="tbar" unicode="&#x167;" horiz-adv-x="651" 
d="M477 897l-69 -279h198l-28 -120h-201l-43 -176q-12 -46 -12 -78q0 -54 27 -78.5t87 -24.5q32 0 72 9l-39 -148q-38 -10 -86 -10q-127 0 -185.5 51t-58.5 164q0 61 19 127l41 164h-176l28 120h176l70 279h-182l37 143h182l61 252h180l-63 -252h207l-37 -143h-205z" />
    <glyph glyph-name="Utilde" unicode="&#x168;" horiz-adv-x="1443" 
d="M1264 1827h118q-34 -112 -100 -174t-152 -62q-43 0 -83.5 16.5t-66.5 36t-59 36t-63 16.5q-84 0 -119 -105h-123q31 112 97 174t153 62q43 0 84.5 -16.5t67.5 -36t59 -36t62 -16.5q86 0 125 105zM1497 1458l-248 -989q-61 -243 -220 -370.5t-396 -127.5q-221 0 -339 114
t-118 325q0 90 27 204l213 844h188l-219 -883q-23 -85 -23 -153q0 -138 74.5 -208.5t212.5 -70.5q159 0 268 94.5t156 278.5l234 942h190z" />
    <glyph glyph-name="utilde" unicode="&#x169;" 
d="M1034 1446h119q-32 -112 -98 -174t-152 -62q-43 0 -83.5 16.5t-65.5 36t-58 36t-63 16.5q-83 0 -119 -105h-123q31 112 97 174t153 62q43 0 84 -16.5t66.5 -36t58 -36t61.5 -16.5q85 0 123 105zM412 -23q-145 0 -226.5 77.5t-81.5 224.5q0 59 23 153l152 608h180
l-152 -608q-16 -68 -16 -131q0 -88 46 -132t132 -44q116 0 214 84t136 235l150 596h180l-260 -1040h-174l30 123h-4q-65 -68 -150.5 -107t-178.5 -39z" />
    <glyph glyph-name="Umacron" unicode="&#x16a;" horiz-adv-x="1443" 
d="M1266 1614h-582l31 133h581zM1497 1458l-248 -989q-61 -243 -220 -370.5t-396 -127.5q-221 0 -339 114t-118 325q0 90 27 204l213 844h188l-219 -883q-23 -85 -23 -153q0 -138 74.5 -208.5t212.5 -70.5q159 0 268 94.5t156 278.5l234 942h190z" />
    <glyph glyph-name="umacron" unicode="&#x16b;" 
d="M1044 1262h-581l31 131h583zM412 -23q-145 0 -226.5 77.5t-81.5 224.5q0 59 23 153l152 608h180l-152 -608q-16 -68 -16 -131q0 -88 46 -132t132 -44q116 0 214 84t136 235l150 596h180l-260 -1040h-174l30 123h-4q-65 -68 -150.5 -107t-178.5 -39z" />
    <glyph glyph-name="Ubreve" unicode="&#x16c;" horiz-adv-x="1443" 
d="M1202 1839h148q-38 -138 -137 -214.5t-240 -76.5q-127 0 -195.5 63t-68.5 177q0 33 4 51h121q-3 -15 -3 -29q0 -65 38 -100t108 -35q83 0 141 42.5t84 121.5zM1497 1458l-248 -989q-61 -243 -220 -370.5t-396 -127.5q-221 0 -339 114t-118 325q0 90 27 204l213 844h188
l-219 -883q-23 -85 -23 -153q0 -138 74.5 -208.5t212.5 -70.5q159 0 268 94.5t156 278.5l234 942h190z" />
    <glyph glyph-name="ubreve" unicode="&#x16d;" 
d="M975 1458h147q-38 -138 -138 -215.5t-239 -77.5q-128 0 -196 63t-68 179q0 33 4 51h121q-2 -10 -2 -31q0 -66 37.5 -100.5t108.5 -34.5q83 0 141 43t84 123zM412 -23q-145 0 -226.5 77.5t-81.5 224.5q0 59 23 153l152 608h180l-152 -608q-16 -68 -16 -131q0 -88 46 -132
t132 -44q116 0 214 84t136 235l150 596h180l-260 -1040h-174l30 123h-4q-65 -68 -150.5 -107t-178.5 -39z" />
    <glyph glyph-name="Uring" unicode="&#x16e;" horiz-adv-x="1443" 
d="M985 1952q86 0 146.5 -60.5t60.5 -146.5q0 -85 -60.5 -145t-146.5 -60q-85 0 -145 60t-60 145q0 86 60 146.5t145 60.5zM985 1864q-49 0 -84 -35t-35 -84t34.5 -83t84.5 -34q51 0 85 33.5t34 83.5t-34 84.5t-85 34.5zM1497 1458l-248 -989q-61 -243 -220 -370.5
t-396 -127.5q-221 0 -339 114t-118 325q0 90 27 204l213 844h188l-219 -883q-23 -85 -23 -153q0 -138 74.5 -208.5t212.5 -70.5q159 0 268 94.5t156 278.5l234 942h190z" />
    <glyph glyph-name="uring" unicode="&#x16f;" 
d="M758 1569q86 0 146.5 -60t60.5 -145q0 -86 -60.5 -146.5t-146.5 -60.5q-85 0 -145 60.5t-60 146.5q0 85 60 145t145 60zM758 1483q-48 0 -82.5 -35t-34.5 -84q0 -50 34.5 -84.5t82.5 -34.5q51 0 85 34t34 85q0 50 -34 84.5t-85 34.5zM412 -23q-145 0 -226.5 77.5
t-81.5 224.5q0 59 23 153l152 608h180l-152 -608q-16 -68 -16 -131q0 -88 46 -132t132 -44q116 0 214 84t136 235l150 596h180l-260 -1040h-174l30 123h-4q-65 -68 -150.5 -107t-178.5 -39z" />
    <glyph glyph-name="Uhungarumlaut" unicode="&#x170;" horiz-adv-x="1443" 
d="M819 1548h-162l283 291h223zM1147 1548h-162l283 291h223zM1497 1458l-248 -989q-61 -243 -220 -370.5t-396 -127.5q-221 0 -339 114t-118 325q0 90 27 204l213 844h188l-219 -883q-23 -85 -23 -153q0 -138 74.5 -208.5t212.5 -70.5q159 0 268 94.5t156 278.5l234 942
h190z" />
    <glyph glyph-name="uhungarumlaut" unicode="&#x171;" 
d="M610 1165h-161l278 293h223zM938 1165h-162l279 293h223zM412 -23q-145 0 -226.5 77.5t-81.5 224.5q0 59 23 153l152 608h180l-152 -608q-16 -68 -16 -131q0 -88 46 -132t132 -44q116 0 214 84t136 235l150 596h180l-260 -1040h-174l30 123h-4q-65 -68 -150.5 -107
t-178.5 -39z" />
    <glyph glyph-name="Uogonek" unicode="&#x172;" horiz-adv-x="1443" 
d="M1497 1458l-244 -979q-72 -281 -268 -413q-169 -112 -229 -175.5t-60 -117.5q0 -56 66 -56q41 0 82 15l-29 -115q-51 -14 -106 -14q-90 0 -135.5 37.5t-45.5 107.5q0 114 168 223v4q-20 -4 -63 -4q-225 0 -341 111.5t-116 327.5q0 90 27 204l213 844h188l-219 -883
q-23 -85 -23 -153q0 -138 74.5 -208.5t212.5 -70.5q159 0 269 97t157 286l232 932h190z" />
    <glyph glyph-name="uogonek" unicode="&#x173;" 
d="M1149 1040l-260 -1040q-119 -72 -164 -126t-45 -101q0 -56 65 -56q43 0 80 15l-28 -115q-47 -14 -107 -14q-90 0 -135 37.5t-45 107.5q0 66 52 126t165 126h-12l30 123h-4q-65 -68 -150.5 -107t-178.5 -39q-145 0 -226.5 77.5t-81.5 224.5q0 59 23 153l152 608h180
l-152 -608q-16 -68 -16 -131q0 -88 46 -132t132 -44q116 0 214 84t136 235l150 596h180z" />
    <glyph glyph-name="Wcircumflex" unicode="&#x174;" horiz-adv-x="1875" 
d="M1159 1839h199l162 -283h-162l-107 183l-196 -183h-201zM1386 0h-270l4 637q0 183 13 653h-5q-101 -216 -315 -653l-311 -637h-271l23 1458h180l-10 -590q-6 -347 -18 -686h4q150 321 331 688l289 588h264l-4 -588q0 -234 -8 -688h4q116 254 322 686l282 590h199z" />
    <glyph glyph-name="wcircumflex" unicode="&#x175;" horiz-adv-x="1576" 
d="M1274 1165h-166l-107 191l-196 -191h-197l305 293h199zM1157 0h-258l-10 451l-6 450h-4q-128 -263 -224 -450l-235 -451h-258l-19 1040h174l2 -434q3 -234 0 -467h5q187 379 227 457l227 444h260l9 -444q4 -306 2 -457h4q176 367 227 467l219 434h193z" />
    <glyph glyph-name="Ycircumflex" unicode="&#x176;" horiz-adv-x="1257" 
d="M815 1839h199l162 -283h-162l-107 183l-196 -183h-201zM745 604l-151 -604h-188l149 604l-313 854h196l105 -301q80 -237 125 -385h4q123 153 317 385l254 301h240z" />
    <glyph glyph-name="ycircumflex" unicode="&#x177;" horiz-adv-x="966" 
d="M938 1165h-166l-106 191l-197 -191h-197l306 293h198zM1108 1040l-682 -1087q-123 -197 -231 -268.5t-273 -71.5q-65 0 -106 14l37 148q37 -13 81 -13q103 0 167.5 48.5t152.5 185.5l-137 1044h180l96 -827h4l506 827h205z" />
    <glyph glyph-name="Ydieresis" unicode="&#x178;" horiz-adv-x="1257" 
d="M735 1587h-168l51 203h168zM1135 1587h-168l51 203h168zM745 604l-151 -604h-188l149 604l-313 854h196l105 -301q80 -237 125 -385h4q123 153 317 385l254 301h240z" />
    <glyph glyph-name="Zacute" unicode="&#x179;" horiz-adv-x="1159" 
d="M838 1556h-166l237 283h242zM1268 1266l-1086 -1096v-4h850l-39 -166h-1085l47 193l1087 1095v4h-790l41 166h1024z" />
    <glyph glyph-name="zacute" unicode="&#x17a;" horiz-adv-x="960" 
d="M633 1165h-166l238 293h241zM977 874l-784 -722v-5h620l-35 -147h-854l41 166l783 723v4h-580l37 147h813z" />
    <glyph glyph-name="Zdotaccent" unicode="&#x17b;" horiz-adv-x="1159" 
d="M907 1587h-180l51 203h180zM1268 1266l-1086 -1096v-4h850l-39 -166h-1085l47 193l1087 1095v4h-790l41 166h1024z" />
    <glyph glyph-name="zdotaccent" unicode="&#x17c;" horiz-adv-x="960" 
d="M715 1255h-180l49 203h180zM977 874l-784 -722v-5h620l-35 -147h-854l41 166l783 723v4h-580l37 147h813z" />
    <glyph glyph-name="Zcaron" unicode="&#x17d;" horiz-adv-x="1159" 
d="M907 1556h-198l-162 283h162l106 -180l197 180h200zM1268 1266l-1086 -1096v-4h850l-39 -166h-1085l47 193l1087 1095v4h-790l41 166h1024z" />
    <glyph glyph-name="zcaron" unicode="&#x17e;" horiz-adv-x="960" 
d="M702 1165h-198l-162 293h166l106 -190l197 190h197zM977 874l-784 -722v-5h620l-35 -147h-854l41 166l783 723v4h-580l37 147h813z" />
    <glyph glyph-name="longs" unicode="&#x17f;" horiz-adv-x="624" 
d="M719 1468q58 0 112 -12l-32 -137q-21 6 -58 6q-77 0 -125.5 -44t-72.5 -144l-285 -1137h-178l223 897h-182l35 143h184l35 144q71 284 344 284z" />
    <glyph glyph-name="florin" unicode="&#x192;" horiz-adv-x="1150" 
d="M1225 1473q60 0 116 -17l-36 -145q-27 8 -80 8q-90 0 -152.5 -48t-120.5 -165l-73 -148h219l-35 -139h-252l-420 -833q-104 -207 -207 -291t-260 -84q-61 0 -102 14l37 150q37 -11 73 -11q84 0 144.5 49.5t132.5 192.5l407 813h-200l35 139h233l84 166q94 189 198.5 269
t258.5 80z" />
    <glyph glyph-name="Scommaaccent" unicode="&#x218;" horiz-adv-x="1247" 
d="M786 1487q463 0 463 -365q0 -57 -14 -114h-191q11 60 11 88q0 229 -287 229q-153 0 -238.5 -76t-85.5 -172q0 -94 66 -145t221 -101q52 -18 88 -32t79.5 -34.5t72.5 -41.5t58.5 -51.5t46.5 -64.5t27.5 -79.5t10.5 -99.5q0 -63 -22.5 -127t-70 -123.5t-114 -105.5
t-162.5 -73.5t-208 -27.5q-231 0 -355.5 99t-124.5 288q0 58 15 125h192q-12 -58 -12 -104q0 -246 303 -246q94 0 167 26t113 68t60 87.5t20 91.5q0 52 -17.5 90.5t-58.5 68t-87 50t-123 47.5q-63 22 -103 38t-89 41t-78.5 52.5t-56.5 65t-39.5 86.5t-12.5 110
q0 58 20.5 117.5t64.5 116.5t105.5 101t151 70.5t194.5 26.5zM537 -315l-166 -211h-78l131 211h-68l43 182h183z" />
    <glyph glyph-name="scommaaccent" unicode="&#x219;" horiz-adv-x="1011" 
d="M588 1069q178 0 270 -70t92 -204q0 -44 -8 -80h-174q6 54 6 63q0 74 -52.5 113t-150.5 39q-101 0 -161 -43.5t-60 -116.5q0 -64 42.5 -93t164.5 -69q37 -12 51 -16.5t48.5 -17.5t49 -20.5t42 -23.5t40.5 -30t31 -35t26 -44t14.5 -52.5t6.5 -63.5q0 -63 -28 -121.5
t-81.5 -106.5t-141.5 -77t-197 -29q-187 0 -289 74.5t-102 214.5q0 52 10 86h182q-8 -31 -8 -70q0 -78 56.5 -119.5t164.5 -41.5q118 0 182 46.5t64 127.5q0 30 -10.5 53t-26.5 39.5t-49 32.5t-64 27.5t-86 29.5q-119 39 -163 66q-107 73 -109 215q0 60 27.5 116t78.5 101.5
t132 72.5t180 27zM418 -315l-166 -211h-78l131 211h-67l43 182h182z" />
    <glyph glyph-name="Tcommaaccent" unicode="&#x21a;" horiz-adv-x="1226" 
d="M1399 1290h-498l-321 -1290h-191l322 1290h-498l41 168h1186zM506 -315l-166 -211h-78l131 211h-67l43 182h182z" />
    <glyph glyph-name="tcommaaccent" unicode="&#x21b;" horiz-adv-x="655" 
d="M477 897l-143 -575q-12 -46 -12 -78q0 -54 27 -78.5t87 -24.5q32 0 72 9l-39 -148q-38 -10 -86 -10q-127 0 -186.5 51t-59.5 164q0 49 19 127l141 563h-182l37 143h180l63 252h180l-63 -252h207l-37 -143h-205zM131 -133h182l-45 -182l-166 -211h-77l131 211h-68z" />
    <glyph glyph-name="dotlessj" unicode="&#x237;" horiz-adv-x="509" 
d="M479 1040l-280 -1122q-76 -305 -353 -305q-65 0 -114 14l35 140q32 -7 55 -7q82 0 132.5 47t78.5 162l266 1071h180z" />
    <glyph glyph-name="apostrophemod" unicode="&#x2bc;" horiz-adv-x="485" 
d="M526 1237l-168 -274h-108l141 274h-69l53 221h205z" />
    <glyph glyph-name="circumflex" unicode="&#x2c6;" horiz-adv-x="870" 
d="M930 1165h-166l-107 191l-196 -191h-197l305 293h199z" />
    <glyph glyph-name="caron" unicode="&#x2c7;" horiz-adv-x="870" 
d="M696 1165h-198l-162 293h166l106 -190l197 190h196z" />
    <glyph glyph-name="firsttonechinese" unicode="&#x2c9;" horiz-adv-x="788" 
d="M870 1262h-581l30 131h584z" />
    <glyph glyph-name="breve" unicode="&#x2d8;" horiz-adv-x="841" 
d="M825 1458h148q-38 -138 -138 -215.5t-239 -77.5q-128 0 -196 63t-68 179q0 33 4 51h121q-2 -10 -2 -31q0 -66 37 -100.5t108 -34.5q83 0 141 43t84 123z" />
    <glyph glyph-name="dotaccent" unicode="&#x2d9;" horiz-adv-x="387" 
d="M467 1255h-180l49 203h180z" />
    <glyph glyph-name="ring" unicode="&#x2da;" horiz-adv-x="630" 
d="M524 1569q86 0 146.5 -60t60.5 -145q0 -86 -60.5 -146.5t-146.5 -60.5q-85 0 -145 60.5t-60 146.5q0 85 60 145t145 60zM524 1483q-47 0 -81.5 -35t-34.5 -84q0 -50 34 -84.5t82 -34.5q51 0 85 34t34 85q0 50 -34 84.5t-85 34.5z" />
    <glyph glyph-name="ogonek" unicode="&#x2db;" horiz-adv-x="530" 
d="M137 4l156 -4q-119 -72 -164 -126t-45 -101q0 -56 66 -56q42 0 79 15l-28 -115q-47 -14 -107 -14q-90 0 -135 37.5t-45 107.5q0 67 53 127.5t170 128.5z" />
    <glyph glyph-name="tilde" unicode="&#x2dc;" horiz-adv-x="911" 
d="M920 1446h118q-32 -112 -98 -174t-152 -62q-43 0 -83.5 16.5t-65.5 36t-58 36t-63 16.5q-83 0 -119 -105h-123q31 112 97 174t153 62q43 0 84 -16.5t67 -36t58.5 -36t61.5 -16.5q85 0 123 105z" />
    <glyph glyph-name="hungarumlaut" unicode="&#x2dd;" horiz-adv-x="962" 
d="M426 1165h-162l279 293h223zM754 1165h-162l278 293h224z" />
    <glyph glyph-name="commaturnedabovecomb" unicode="&#x312;" horiz-adv-x="0" 
d="M430 1376h68l-43 -182h-183l43 182l168 211h78z" />
    <glyph glyph-name="commaaccent" unicode="&#x326;" horiz-adv-x="0" 
d="M86 -315l-166 -211h-78l131 211h-67l43 182h182z" />
    <glyph glyph-name="Delta" unicode="&#x394;" horiz-adv-x="1382" 
d="M1245 0h-1364l918 1458h256zM1040 168l-67 565q-37 304 -66 594h-4q-176 -300 -354 -594l-348 -565h839z" />
    <glyph glyph-name="Omega" unicode="&#x3a9;" horiz-adv-x="1492" 
d="M930 1487q256 0 400.5 -125.5t144.5 -372.5q0 -225 -124 -423t-368 -396v-4h344l-41 -166h-551l41 172q251 200 372.5 388t121.5 390q0 180 -96.5 272.5t-266.5 92.5q-91 0 -171.5 -27t-140.5 -74.5t-108 -109.5t-78 -133t-45.5 -145t-15.5 -146q0 -138 44 -256t128 -252
l-43 -172h-528l41 166h352v4q-86 136 -133 263.5t-47 273.5q0 108 29 216.5t91.5 210.5t151 180t217 125.5t279.5 47.5z" />
    <glyph glyph-name="mu" unicode="&#x3bc;" horiz-adv-x="1193" 
d="M1151 1040l-184 -743q-15 -61 -15 -94q0 -36 17 -51t53 -15q24 0 51 6l-35 -143q-35 -12 -94 -12q-83 0 -121 41.5t-35 126.5h-4q-53 -78 -141 -124t-186 -46q-167 0 -221 118l-121 -483h-181l355 1419h180l-152 -602q-18 -92 -18 -129q0 -180 193 -180q109 0 202 83
t131 234l146 594h180z" />
    <glyph glyph-name="pi" unicode="&#x3c0;" horiz-adv-x="1335" 
d="M1391 897h-240l-137 -557q-17 -66 -17 -98q0 -60 29 -84.5t88 -24.5q31 0 49 6l-35 -141q-38 -10 -88 -10q-115 0 -172 48t-57 161q0 47 23 147l137 553h-461l-223 -897h-181l224 897h-213l37 143h1271z" />
    <glyph glyph-name="Wgrave" unicode="&#x1e80;" horiz-adv-x="1875" 
d="M1325 1556h-147l-191 283h223zM1386 0h-270l4 637q0 183 13 653h-5q-101 -216 -315 -653l-311 -637h-271l23 1458h180l-10 -590q-6 -347 -18 -686h4q150 321 331 688l289 588h264l-4 -588q0 -234 -8 -688h4q116 254 322 686l282 590h199z" />
    <glyph glyph-name="wgrave" unicode="&#x1e81;" horiz-adv-x="1576" 
d="M965 1458l112 -293h-145l-191 293h224zM1157 0h-258l-10 451l-6 450h-4q-128 -263 -224 -450l-235 -451h-258l-19 1040h174l2 -434q3 -234 0 -467h5q187 379 227 457l227 444h260l9 -444q4 -306 2 -457h4q176 367 227 467l219 434h193z" />
    <glyph glyph-name="Wacute" unicode="&#x1e82;" horiz-adv-x="1875" 
d="M1217 1556h-166l237 283h242zM1386 0h-270l4 637q0 183 13 653h-5q-101 -216 -315 -653l-311 -637h-271l23 1458h180l-10 -590q-6 -347 -18 -686h4q150 321 331 688l289 588h264l-4 -588q0 -234 -8 -688h4q116 254 322 686l282 590h199z" />
    <glyph glyph-name="wacute" unicode="&#x1e83;" horiz-adv-x="1576" 
d="M971 1165h-166l237 293h242zM1157 0h-258l-10 451l-6 450h-4q-128 -263 -224 -450l-235 -451h-258l-19 1040h174l2 -434q3 -234 0 -467h5q187 379 227 457l227 444h260l9 -444q4 -306 2 -457h4q176 367 227 467l219 434h193z" />
    <glyph glyph-name="Wdieresis" unicode="&#x1e84;" horiz-adv-x="1875" 
d="M1079 1587h-168l52 203h167zM1479 1587h-168l51 203h168zM1386 0h-270l4 637q0 183 13 653h-5q-101 -216 -315 -653l-311 -637h-271l23 1458h180l-10 -590q-6 -347 -18 -686h4q150 321 331 688l289 588h264l-4 -588q0 -234 -8 -688h4q116 254 322 686l282 590h199z" />
    <glyph glyph-name="wdieresis" unicode="&#x1e85;" horiz-adv-x="1576" 
d="M848 1255h-168l49 203h168zM1247 1255h-168l49 203h168zM1157 0h-258l-10 451l-6 450h-4q-128 -263 -224 -450l-235 -451h-258l-19 1040h174l2 -434q3 -234 0 -467h5q187 379 227 457l227 444h260l9 -444q4 -306 2 -457h4q176 367 227 467l219 434h193z" />
    <glyph glyph-name="Germandbls" unicode="&#x1e9e;" horiz-adv-x="1572" 
d="M1528 1214l-422 -362q342 -98 342 -406q0 -69 -21 -135.5t-65 -127.5t-106.5 -107t-152 -73.5t-194.5 -27.5q-197 0 -298 77t-101 227q0 48 8 92h189q-9 -35 -9 -66q0 -166 228 -166q83 0 148 26.5t102.5 70t56 93t18.5 101.5q0 137 -96.5 210.5t-286.5 92.5l33 139
l389 334q-45 54 -122 84.5t-175 30.5q-427 0 -544 -453l-216 -868h-188l219 885q74 290 267 445t483 155q181 0 314 -73.5t200 -197.5z" />
    <glyph glyph-name="Ygrave" unicode="&#x1ef2;" horiz-adv-x="1257" 
d="M981 1556h-147l-191 283h223zM745 604l-151 -604h-188l149 604l-313 854h196l105 -301q80 -237 125 -385h4q123 153 317 385l254 301h240z" />
    <glyph glyph-name="ygrave" unicode="&#x1ef3;" horiz-adv-x="966" 
d="M629 1458l112 -293h-145l-190 293h223zM1108 1040l-682 -1087q-123 -197 -231 -268.5t-273 -71.5q-65 0 -106 14l37 148q37 -13 81 -13q103 0 167.5 48.5t152.5 185.5l-137 1044h180l96 -827h4l506 827h205z" />
    <glyph glyph-name="hyphentwo" unicode="&#x2010;" horiz-adv-x="614" 
d="M553 518h-492l39 160h492z" />
    <glyph glyph-name="endash" unicode="&#x2013;" horiz-adv-x="1024" 
d="M983 518h-942l39 160h942z" />
    <glyph glyph-name="emdash" unicode="&#x2014;" horiz-adv-x="2048" 
d="M2007 518h-1966l39 160h1966z" />
    <glyph glyph-name="horizontalbar" unicode="&#x2015;" horiz-adv-x="2048" 
d="M1878 518h-1966l39 160h1966z" />
    <glyph glyph-name="underscoredbl" unicode="&#x2017;" horiz-adv-x="1024" 
d="M844 -203h-1024l24 101h1024zM776 -467h-1024l27 100h1024z" />
    <glyph glyph-name="quoteleft" unicode="&#x2018;" horiz-adv-x="485" 
d="M305 1184l168 274h109l-142 -274h70l-55 -221h-203z" />
    <glyph glyph-name="quoteright" unicode="&#x2019;" horiz-adv-x="485" 
d="M524 1237l-166 -274h-108l141 274h-69l53 221h205z" />
    <glyph glyph-name="quotesinglbase" unicode="&#x201a;" horiz-adv-x="485" 
d="M217 0l-168 -274h-108l141 274h-70l54 221h204z" />
    <glyph glyph-name="quotedblleft" unicode="&#x201c;" horiz-adv-x="815" 
d="M305 1184l168 274h109l-142 -274h70l-55 -221h-203zM635 1184l168 274h106l-141 -274h70l-54 -221h-204z" />
    <glyph glyph-name="quotedblright" unicode="&#x201d;" horiz-adv-x="815" 
d="M524 1237l-166 -274h-108l141 274h-69l53 221h205zM854 1237l-168 -274h-108l141 274h-70l56 221h202z" />
    <glyph glyph-name="quotedblbase" unicode="&#x201e;" horiz-adv-x="815" 
d="M215 0l-166 -274h-108l141 274h-70l54 221h204zM545 0l-166 -274h-109l142 274h-70l53 221h205z" />
    <glyph glyph-name="dagger" unicode="&#x2020;" horiz-adv-x="1097" 
d="M778 1069h346l-37 -151h-346l-290 -1164h-185l291 1164h-346l37 151h346l96 389h184z" />
    <glyph glyph-name="daggerdbl" unicode="&#x2021;" horiz-adv-x="1097" 
d="M778 1071h346l-37 -151h-346l-135 -541h346l-37 -152h-348l-116 -473h-185l117 473h-346l37 152h348l135 541h-346l37 151h346l96 387h184z" />
    <glyph glyph-name="bullet" unicode="&#x2022;" horiz-adv-x="686" 
d="M342 494q-97 0 -165 69t-68 166q0 98 68 167t165 69q98 0 167 -69t69 -167q0 -97 -69 -166t-167 -69z" />
    <glyph glyph-name="ellipsis" unicode="&#x2026;" horiz-adv-x="1542" 
d="M213 0h-221l57 240h223zM754 0h-222l58 240h221zM1292 0h-221l59 240h222z" />
    <glyph glyph-name="perthousand" unicode="&#x2030;" horiz-adv-x="2076" 
d="M197 -61h-144l1239 1503h144zM530 1409q113 0 171.5 -62t58.5 -180q0 -58 -13 -117.5t-40.5 -117t-66 -102t-94.5 -72t-122 -27.5q-112 0 -171.5 62.5t-59.5 181.5q0 72 21.5 146t61.5 139.5t106.5 107t147.5 41.5zM524 1288q-60 0 -105 -57t-64 -125.5t-19 -126.5
q0 -125 92 -125q45 0 82 33t59 83t33.5 101.5t11.5 95.5q0 121 -90 121zM1069 649q113 0 171 -61.5t58 -179.5q0 -72 -21 -146.5t-60.5 -140t-106 -107t-147.5 -41.5q-113 0 -172.5 62t-59.5 180q0 57 13 116t41 116t66.5 102t95.5 72.5t122 27.5zM1741 649q113 0 171 -61.5
t58 -179.5q0 -72 -21 -146.5t-61 -140t-106.5 -107t-147.5 -41.5q-113 0 -172 62t-59 180q0 57 13 116t41 116t66.5 102t95.5 72.5t122 27.5zM1063 528q-46 0 -83.5 -33t-59.5 -82.5t-34 -100.5t-12 -93q0 -125 93 -125q46 0 83 33.5t58.5 83.5t33 101.5t11.5 95.5
q0 120 -90 120zM1735 528q-46 0 -83.5 -33t-59.5 -82.5t-34 -100.5t-12 -93q0 -125 92 -125q46 0 83.5 33.5t59 83.5t33 101.5t11.5 95.5q0 120 -90 120z" />
    <glyph glyph-name="guilsinglleft" unicode="&#x2039;" horiz-adv-x="598" 
d="M270 512l127 -401h-157l-140 417l324 402h178z" />
    <glyph glyph-name="guilsinglright" unicode="&#x203a;" horiz-adv-x="598" 
d="M328 528l-127 402h159l138 -418l-324 -401h-178z" />
    <glyph glyph-name="interrobang" unicode="&#x203d;" horiz-adv-x="1056" 
d="M844 1458l-39 -137q134 -28 208 -112.5t74 -211.5q0 -100 -65 -188t-231 -186q-128 -74 -172.5 -124.5t-73.5 -160.5h-150l178 819q-164 -46 -215 -237h-188q49 181 162.5 284.5t277.5 122.5l29 131h205zM719 752q101 68 138.5 122t37.5 113q0 63 -35.5 107t-101.5 61
l-135 -473h4q32 30 92 70zM340 217h213l-55 -217h-211z" />
    <glyph glyph-name="overline" unicode="&#x203e;" horiz-adv-x="1024" 
d="M1298 1614h-1024l31 133h1024z" />
    <glyph glyph-name="fraction" unicode="&#x2044;" horiz-adv-x="301" 
d="M-297 0h-149l1130 1380h152z" />
    <glyph glyph-name="zerosuperior" unicode="&#x2070;" horiz-adv-x="886" 
d="M692 1663q146 0 220.5 -89.5t74.5 -260.5q0 -79 -18 -166t-57 -175t-93.5 -158.5t-135 -114.5t-173.5 -44q-145 0 -219 89t-74 260q0 66 13 138t38 146.5t65.5 141.5t91 119t120 83t147.5 31zM684 1528q-72 0 -133 -58t-96 -143t-54.5 -170.5t-19.5 -152.5
q0 -105 36 -161.5t103 -56.5q59 0 110 38.5t85.5 98t59.5 131.5t36.5 138t11.5 119q0 105 -35.5 161t-103.5 56z" />
    <glyph glyph-name="foursuperior" unicode="&#x2074;" horiz-adv-x="831" 
d="M907 911h-162l-59 -235h-158l60 235h-469l37 152l551 579h221l-150 -600h160zM309 1042h314l30 125q62 244 86 324h-4l-280 -297z" />
    <glyph glyph-name="fivesuperior" unicode="&#x2075;" horiz-adv-x="849" 
d="M969 1507h-445l-86 -245h4q71 53 172 53q131 0 204 -74t73 -203q0 -64 -27 -130t-76.5 -123.5t-131 -93.5t-179.5 -36q-141 0 -222 60t-81 166q0 27 6 57h166q-4 -14 -4 -35q0 -54 41.5 -84.5t110.5 -30.5q58 0 104 23.5t72.5 60t40.5 76.5t14 78q0 75 -42 117.5
t-114 42.5q-62 0 -111 -33.5t-77 -93.5l-158 8l199 575h582z" />
    <glyph glyph-name="sixsuperior" unicode="&#x2076;" horiz-adv-x="854" 
d="M702 1663q135 0 211 -64.5t76 -173.5q0 -25 -2 -39h-164v15q0 129 -131 129q-91 0 -168 -77.5t-121 -229.5h5q97 84 221 84q127 0 200.5 -76.5t73.5 -206.5q0 -60 -26 -123.5t-73 -119t-123 -91t-165 -35.5q-147 0 -224 83.5t-77 248.5q0 80 18.5 170t59 180.5t96 162.5
t137.5 117.5t176 45.5zM592 1180q-100 0 -160.5 -71.5t-60.5 -156.5q0 -74 39.5 -119t109.5 -45q68 0 119.5 38.5t74.5 89t23 98.5q0 76 -38.5 121t-106.5 45z" />
    <glyph glyph-name="sevensuperior" unicode="&#x2077;" horiz-adv-x="749" 
d="M1004 1642l-33 -137q-152 -161 -293 -375t-246 -454h-190q121 259 265.5 469t285.5 358h-529l37 139h703z" />
    <glyph glyph-name="eightsuperior" unicode="&#x2078;" horiz-adv-x="858" 
d="M676 1663q142 0 225.5 -67.5t83.5 -178.5q0 -88 -60.5 -160.5t-168.5 -97.5v-4q61 -22 97 -77.5t36 -129.5q0 -53 -25 -104t-71.5 -93.5t-121 -69t-165.5 -26.5q-152 0 -239 72.5t-87 198.5q0 89 67 165.5t187 98.5v4q-121 62 -121 192q0 48 24.5 96.5t69 89t115 66
t154.5 25.5zM666 1530q-95 0 -147 -49.5t-52 -114.5q0 -61 41 -95t117 -34q96 0 148 51.5t52 114.5q0 60 -42.5 93.5t-116.5 33.5zM557 1106q-102 0 -157.5 -53t-55.5 -121q0 -67 46 -105.5t126 -38.5q102 0 158.5 54.5t56.5 124.5q0 65 -45.5 102t-128.5 37z" />
    <glyph glyph-name="ninesuperior" unicode="&#x2079;" horiz-adv-x="854" 
d="M469 655q-133 0 -209 64.5t-76 173.5q0 25 2 39h162v-14q0 -130 131 -130q91 0 168 78t123 230h-4q-100 -84 -223 -84q-127 0 -201 76.5t-74 205.5q0 60 26 123.5t73 119t123 91t165 35.5q149 0 226 -83.5t77 -248.5q0 -80 -19 -170t-59.5 -180.5t-96.5 -162.5
t-138 -117.5t-176 -45.5zM582 1139q99 0 160 71.5t61 155.5q0 75 -40.5 119.5t-111.5 44.5q-51 0 -93.5 -22.5t-68 -56.5t-39.5 -72.5t-14 -73.5q0 -76 39 -121t107 -45z" />
    <glyph glyph-name="plussuperior" unicode="&#x207a;" horiz-adv-x="833" 
d="M481 1194h252v-129h-252v-242h-129v242h-252v129h252v244h129v-244z" />
    <glyph glyph-name="minussuperior" unicode="&#x207b;" horiz-adv-x="837" 
d="M733 1065h-633v129h633v-129z" />
    <glyph glyph-name="equalsuperior" unicode="&#x207c;" horiz-adv-x="833" 
d="M731 1192h-631v127h631v-127zM731 940h-631v127h631v-127z" />
    <glyph glyph-name="parenleftsuperior" unicode="&#x207d;" horiz-adv-x="450" 
d="M573 1739h138q-183 -228 -273 -460.5t-90 -449.5q0 -167 45 -364h-125q-75 207 -75 418t96 435.5t284 420.5z" />
    <glyph glyph-name="parenrightsuperior" unicode="&#x207e;" horiz-adv-x="450" 
d="M168 465h-137q182 228 272 460.5t90 448.5q0 153 -45 365h123q76 -201 76 -418q0 -211 -95.5 -436t-283.5 -420z" />
    <glyph glyph-name="zeroinferior" unicode="&#x2080;" horiz-adv-x="886" 
d="M436 635q146 0 220.5 -89.5t74.5 -260.5q0 -79 -18 -166t-57 -175t-93.5 -158.5t-135 -114.5t-173.5 -44q-146 0 -219.5 88.5t-73.5 259.5q0 66 13 138t38 146.5t65.5 141.5t91 119.5t120 83.5t147.5 31zM428 500q-72 0 -133 -58t-96 -143t-54.5 -171t-19.5 -153
q0 -105 36 -161t103 -56q59 0 110 38.5t85.5 98t59.5 131.5t36.5 138t11.5 119q0 105 -35.5 161t-103.5 56z" />
    <glyph glyph-name="oneinferior" unicode="&#x2081;" horiz-adv-x="552" 
d="M188 -352h-159l168 680h-224l31 123q119 0 185.5 37t103.5 126h137z" />
    <glyph glyph-name="twoinferior" unicode="&#x2082;" horiz-adv-x="858" 
d="M426 635q136 0 214.5 -68t78.5 -178q0 -116 -81.5 -201.5t-268.5 -173.5q-157 -74 -215 -122t-74 -109h518l-31 -135h-706q32 174 121 273t292 196q157 76 217 129.5t60 124.5q0 129 -135 129q-152 0 -205 -176h-170q39 150 140.5 230.5t244.5 80.5z" />
    <glyph glyph-name="threeinferior" unicode="&#x2083;" horiz-adv-x="847" 
d="M408 635q148 0 228.5 -64t80.5 -178q0 -85 -56 -154.5t-174 -107.5v-2q131 -58 131 -195q0 -52 -24.5 -105t-70.5 -99t-121 -74.5t-166 -28.5q-157 0 -239.5 63t-82.5 181q0 43 10 74h162q-6 -30 -6 -56q0 -129 160 -129q100 0 159.5 54t59.5 120q0 67 -48 102.5
t-139 35.5h-34l30 129h37q121 0 185.5 54t64.5 124q0 57 -41.5 89t-114.5 32q-168 0 -211 -178h-163q33 148 136 230.5t247 82.5z" />
    <glyph glyph-name="fourinferior" unicode="&#x2084;" horiz-adv-x="831" 
d="M649 -117h-162l-59 -235h-158l60 235h-467l37 152l551 579h219l-150 -600h162zM53 14h314l30 125q62 244 86 324h-4q-147 -156 -282 -297z" />
    <glyph glyph-name="fiveinferior" unicode="&#x2085;" horiz-adv-x="851" 
d="M715 479h-445l-86 -246h4q73 54 172 54q131 0 205 -74.5t74 -202.5q0 -51 -16.5 -103.5t-51 -103t-82.5 -89.5t-116.5 -63t-147.5 -24q-142 0 -222.5 60t-80.5 166q0 37 6 57h164q-2 -14 -2 -35q0 -55 40.5 -85t109.5 -30q58 0 104 23.5t72.5 60t40.5 76.5t14 78
q0 75 -41 117.5t-113 42.5q-127 0 -190 -127l-158 8l199 575h582z" />
    <glyph glyph-name="sixinferior" unicode="&#x2086;" horiz-adv-x="851" 
d="M446 635q133 0 209 -64.5t76 -173.5q0 -25 -2 -39h-162v15q0 129 -133 129q-91 0 -167 -77.5t-122 -229.5h5q100 84 223 84q127 0 200.5 -76.5t73.5 -206.5q0 -60 -26 -123.5t-73 -119t-123 -91t-165 -35.5q-149 0 -226 83.5t-77 248.5q0 80 19 170t59.5 180.5
t96.5 162.5t138 117.5t176 45.5zM334 152q-99 0 -160 -72t-61 -156q0 -75 40 -119.5t111 -44.5q67 0 118 38.5t74 89t23 98.5q0 76 -38.5 121t-106.5 45z" />
    <glyph glyph-name="seveninferior" unicode="&#x2087;" horiz-adv-x="749" 
d="M748 614l-33 -137q-152 -161 -293 -375t-246 -454h-190q121 259 265.5 469t285.5 358h-529l37 139h703z" />
    <glyph glyph-name="eightinferior" unicode="&#x2088;" horiz-adv-x="856" 
d="M418 635q142 0 225.5 -67.5t83.5 -178.5q0 -88 -60.5 -160.5t-168.5 -97.5v-4q61 -22 97 -77.5t36 -129.5q0 -53 -25 -104t-71.5 -93.5t-121 -69t-165.5 -26.5q-152 0 -239 72.5t-87 198.5q0 89 67 165.5t187 98.5v4q-121 62 -121 192q0 48 24.5 96.5t69 89t115 66
t154.5 25.5zM408 502q-95 0 -147 -49.5t-52 -114.5q0 -61 41 -95t117 -34q96 0 148 51.5t52 114.5q0 60 -42.5 93.5t-116.5 33.5zM299 78q-102 0 -157.5 -53t-55.5 -121q0 -67 46 -105.5t126 -38.5q102 0 158.5 54.5t56.5 124.5q0 65 -45.5 102t-128.5 37z" />
    <glyph glyph-name="nineinferior" unicode="&#x2089;" horiz-adv-x="854" 
d="M213 -373q-133 0 -209 64.5t-76 173.5q0 25 2 39h162v-15q0 -129 131 -129q91 0 168 78t123 230h-4q-100 -84 -223 -84q-127 0 -201 76.5t-74 205.5q0 60 26 123.5t73 119t123 91t165 35.5q149 0 226 -83.5t77 -248.5q0 -80 -19 -170t-59.5 -180.5t-96.5 -162.5
t-138 -117.5t-176 -45.5zM326 111q99 0 160 71.5t61 155.5q0 75 -40.5 119.5t-111.5 44.5q-67 0 -118 -38.5t-74 -89t-23 -98.5q0 -76 39 -120.5t107 -44.5z" />
    <glyph glyph-name="plusinferior" unicode="&#x208a;" horiz-adv-x="835" 
d="M481 166h252v-129h-252v-242h-129v242h-252v129h252v244h129v-244z" />
    <glyph glyph-name="minusinferior" unicode="&#x208b;" horiz-adv-x="835" 
d="M733 37h-633v129h633v-129z" />
    <glyph glyph-name="equalinferior" unicode="&#x208c;" horiz-adv-x="835" 
d="M731 164h-631v127h631v-127zM731 -88h-631v127h631v-127z" />
    <glyph glyph-name="parenleftinferior" unicode="&#x208d;" horiz-adv-x="450" 
d="M317 711h138q-183 -228 -273 -460.5t-90 -449.5q0 -167 45 -364h-125q-75 207 -75 418t96 435.5t284 420.5z" />
    <glyph glyph-name="parenrightinferior" unicode="&#x208e;" horiz-adv-x="450" 
d="M-90 -563h-137q182 228 272 460.5t90 448.5q0 153 -45 365h123q76 -201 76 -418q0 -211 -95.5 -436t-283.5 -420z" />
    <glyph glyph-name="franc" unicode="&#x20a3;" horiz-adv-x="1150" 
d="M584 1212l-97 -385h631l-43 -165h-629l-59 -242h354l-39 -150h-352l-67 -270h-191l68 270h-172l37 150h172l239 960h864l-40 -168h-676z" />
    <glyph glyph-name="lira" unicode="&#x20a4;" horiz-adv-x="1150" 
d="M846 1409q170 0 262 -83t92 -234q0 -50 -12 -105h-180q10 48 10 78q0 89 -49 134.5t-140 45.5q-106 0 -176.5 -66t-101.5 -192l-35 -139h256l-29 -119h-258l-28 -117h256l-29 -118h-258l-14 -60q-26 -109 -66.5 -171.5t-109.5 -102.5v-4h737l-39 -156h-1014l39 158
q200 0 266 274l17 62h-199l29 118h198l29 117h-197l29 119h199l43 174q49 192 170 289.5t303 97.5z" />
    <glyph glyph-name="peseta" unicode="&#x20a7;" horiz-adv-x="1718" 
d="M1540 897l-143 -575q-13 -50 -13 -78q0 -54 27.5 -78.5t87.5 -24.5q31 0 72 9l-39 -148q-38 -10 -86 -10q-127 0 -186.5 51t-59.5 164q0 49 19 127l141 563h-137q-15 -76 -55 -144.5t-105 -126.5t-165 -92t-222 -34h-299l-123 -500h-188l342 1380h348q216 0 335 -89
t138 -251h166l63 252h180l-63 -252h207l-35 -143h-207zM418 664h260q94 0 166 28.5t113 75t61 98t20 105.5q0 119 -73.5 182.5t-221.5 63.5h-188z" />
    <glyph glyph-name="euro" unicode="&#x20ac;" horiz-adv-x="1150" 
d="M1223 965h-187q4 36 4 49q0 113 -59 172t-174 59q-75 0 -141.5 -31t-118 -86t-90.5 -121.5t-68 -146.5h526l-51 -119h-512q-9 -34 -22 -116h483l-53 -119h-438q0 -371 260 -371q109 0 193 73t130 206h189q-69 -211 -209 -327t-324 -116q-210 0 -318 135.5t-108 397.5v2
h-137l53 119h92q5 47 19 116h-105l52 119h86q29 89 70 167.5t98.5 149.5t125 121.5t154 80.5t182.5 30q195 0 299.5 -93.5t104.5 -268.5q0 -39 -6 -82z" />
    <glyph glyph-name="rupeeIndian" unicode="&#x20b9;" horiz-adv-x="1150" 
d="M868 1247v-4q107 -50 121 -172h242l-68 -133h-186q-36 -108 -147.5 -191t-290.5 -112v-4q65 -28 105.5 -85t68.5 -161l102 -385h-203l-90 360q-32 127 -93.5 181.5t-170.5 54.5h-33l35 137h111q161 0 261 58.5t138 146.5h-608l67 133h555q-29 176 -309 176h-235l69 133
h1002l-70 -133h-373z" />
    <glyph glyph-name="liraTurkish" unicode="&#x20ba;" horiz-adv-x="1150" 
d="M934 651h196q-60 -326 -271 -493.5t-554 -167.5q-79 0 -205 12l142 563l-217 -104l36 145l215 103l46 176l-218 -103l37 146l215 102l88 350h189l-66 -264l389 187l-36 -146l-388 -184l-45 -178l390 188l-37 -145l-387 -187l-123 -491q241 0 400.5 127.5t203.5 363.5z
" />
    <glyph glyph-name="uni20BC" unicode="&#x20bc;" horiz-adv-x="1343" 
d="M993 1458l-57 -233q180 -26 267 -133t87 -308q0 -97 -35 -231l-135 -553h-178l141 571q29 122 29 199q0 131 -53 198.5t-166 84.5l-262 -1053h-178l262 1059q-175 -6 -266.5 -103.5t-149.5 -326.5l-156 -629h-178l166 666q74 297 219 430t406 137h4l55 225h178z" />
    <glyph glyph-name="ruble" unicode="&#x20bd;" horiz-adv-x="1150" 
d="M406 1380h364q215 0 325.5 -98t110.5 -272q0 -63 -18.5 -126t-59.5 -122.5t-100 -105.5t-146 -73.5t-190 -27.5h-307l-35 -137h406l-39 -150h-404l-65 -268h-187l66 268h-166l37 150h168l33 137h-166l37 154h168zM553 1229l-129 -520h262q86 0 152 27t103 71t55 92.5
t18 99.5q0 110 -67 170t-199 60h-195z" />
    <glyph glyph-name="literSign" unicode="&#x2113;" horiz-adv-x="901" 
d="M369 414l-23 -90q-12 -49 -12 -86q0 -59 29 -87t90 -28q57 0 100 14l-35 -143q-56 -12 -112 -12q-130 0 -192 55.5t-62 173.5q0 58 20 131l12 51q-23 1 -110 17l26 108q66 -12 105 -12h8l131 526q35 143 83 227t105 117t136 33q101 0 158 -70.5t57 -220.5
q0 -103 -33 -211.5t-94.5 -208t-162 -176.5t-224.5 -108zM528 1053l-127 -510q90 36 162 104.5t115 149.5t65.5 164.5t22.5 160.5q0 158 -86 158q-51 0 -86 -49.5t-66 -177.5z" />
    <glyph glyph-name="published" unicode="&#x2117;" horiz-adv-x="1658" 
d="M829 1483q330 0 533 -207.5t203 -546.5t-203 -546.5t-533 -207.5t-531.5 207t-201.5 547t201.5 547t531.5 207zM829 1386q-289 0 -465 -180.5t-176 -476.5t176 -476.5t465 -180.5t465 180.5t176 476.5t-176 476.5t-465 180.5zM547 1198h344q175 0 268.5 -80t93.5 -223
q0 -142 -93.5 -222.5t-268.5 -80.5h-193v-356h-151v962zM698 1065v-340h183q217 0 217 170q0 83 -55.5 126.5t-161.5 43.5h-183z" />
    <glyph glyph-name="trademark" unicode="&#x2122;" horiz-adv-x="1640" 
d="M825 1337h-237l-152 -608h-137l152 608h-238l31 121h612zM1595 729h-131l88 348q26 113 66 258h-4q-142 -250 -146 -256l-204 -350h-158l-27 350l-18 256h-4q-10 -47 -32.5 -137t-29.5 -121l-88 -348h-131l182 729h209l27 -319q12 -182 16 -275h4q76 140 154 275l186 319
h224z" />
    <glyph glyph-name="Ohm" unicode="&#x2126;" horiz-adv-x="1492" 
d="M930 1487q256 0 400.5 -125.5t144.5 -372.5q0 -225 -124 -423t-368 -396v-4h344l-41 -166h-551l41 172q251 200 372.5 388t121.5 390q0 180 -96.5 272.5t-266.5 92.5q-91 0 -171.5 -27t-140.5 -74.5t-108 -109.5t-78 -133t-45.5 -145t-15.5 -146q0 -138 44 -256t128 -252
l-43 -172h-528l41 166h352v4q-86 136 -133 263.5t-47 273.5q0 108 29 216.5t91.5 210.5t151 180t217 125.5t279.5 47.5z" />
    <glyph glyph-name="estimated" unicode="&#x212e;" horiz-adv-x="1761" 
d="M883 1409q181 0 330.5 -59.5t247 -161t151 -235t53.5 -283.5h-1251q-12 0 -19.5 -8t-7.5 -19v-340q0 -34 6 -54t25 -36q189 -186 465 -186q147 0 276 61t211 162h141q-37 -52 -91.5 -98t-131 -87.5t-181.5 -65.5t-224 -24q-234 0 -414 92t-276.5 253.5t-96.5 367.5
q0 153 54.5 285t154 228.5t248.5 152t330 55.5zM883 1356q-274 0 -465 -191q-19 -18 -25 -35.5t-6 -48.5v-342q0 -11 7.5 -17.5t19.5 -6.5h932q26 0 26 24v342q0 31 -6 48.5t-25 35.5q-194 191 -458 191z" />
    <glyph glyph-name="oneeighth" unicode="&#x215b;" horiz-adv-x="1540" 
d="M195 0h-150l1131 1380h151zM373 553h-154l143 569h-192l29 119q103 0 161 32t89 107h131zM1212 846q125 0 200 -58t75 -155q0 -77 -53.5 -137.5t-149.5 -81.5v-4q58 -19 88.5 -64t30.5 -110q0 -99 -88.5 -176.5t-241.5 -77.5q-137 0 -214 62.5t-77 170.5q0 80 58.5 144
t160.5 81v4q-48 21 -77 65.5t-29 100.5q0 88 86 162t231 74zM1202 719q-78 0 -119 -38.5t-41 -90.5q0 -48 35 -76.5t97 -28.5q78 0 118.5 39.5t40.5 91.5q0 47 -34 75t-97 28zM1112 362q-85 0 -128.5 -43t-43.5 -98q0 -54 36.5 -83t102.5 -29q83 0 127.5 43.5t44.5 99.5
q0 52 -36.5 81t-102.5 29z" />
    <glyph glyph-name="threeeighths" unicode="&#x215c;" horiz-adv-x="1789" 
d="M555 1399q130 0 200 -55t70 -154q0 -153 -190 -219v-4q104 -50 104 -166q0 -45 -21 -91t-60.5 -85.5t-104.5 -64.5t-145 -25q-139 0 -212 55.5t-73 157.5q0 28 6 65h158q-4 -36 -4 -49q0 -102 129 -102q82 0 129 42.5t47 96.5q0 106 -156 106h-26l30 127h31
q97 0 150 43.5t53 100.5q0 44 -32.5 69t-92.5 25q-135 0 -172 -144h-156q28 127 118 199t220 72zM444 0h-149l1130 1380h152zM1462 846q125 0 200 -58t75 -155q0 -77 -53.5 -137.5t-149.5 -81.5v-4q58 -19 88.5 -64t30.5 -110q0 -99 -88.5 -176.5t-241.5 -77.5
q-137 0 -214 62.5t-77 170.5q0 80 58.5 144t160.5 81v4q-48 21 -77 65.5t-29 100.5q0 88 86 162t231 74zM1452 719q-78 0 -119 -38.5t-41 -90.5q0 -48 34.5 -76.5t96.5 -28.5q78 0 119 39.5t41 91.5q0 47 -34 75t-97 28zM1362 362q-85 0 -128.5 -43t-43.5 -98
q0 -54 36.5 -83t102.5 -29q83 0 127.5 43.5t44.5 99.5q0 52 -36.5 81t-102.5 29z" />
    <glyph glyph-name="fiveeighths" unicode="&#x215d;" horiz-adv-x="1792" 
d="M819 1249h-381l-69 -190h4q56 45 141 45q115 0 179.5 -64.5t64.5 -175.5q0 -55 -23.5 -112t-66.5 -106t-114 -80t-157 -31q-126 0 -198 52t-72 144q0 22 6 49h158q-2 -10 -2 -26q0 -43 34 -67.5t89 -24.5q88 0 137 61t49 129q0 61 -33.5 95t-93.5 34q-104 0 -152 -104
l-151 10l170 493h514zM446 0h-149l1130 1380h152zM1466 846q125 0 200 -58t75 -155q0 -77 -53.5 -137.5t-149.5 -81.5v-4q58 -19 88.5 -64t30.5 -110q0 -99 -88.5 -176.5t-241.5 -77.5q-137 0 -214 62.5t-77 170.5q0 80 58.5 144t160.5 81v4q-48 21 -77 65.5t-29 100.5
q0 88 86 162t231 74zM1456 719q-78 0 -119 -38.5t-41 -90.5q0 -48 34.5 -76.5t96.5 -28.5q78 0 119 39.5t41 91.5q0 47 -34 75t-97 28zM1366 362q-85 0 -128.5 -43t-43.5 -98q0 -54 36.5 -83t102.5 -29q83 0 127.5 43.5t44.5 99.5q0 52 -36.5 81t-102.5 29z" />
    <glyph glyph-name="seveneighths" unicode="&#x215e;" horiz-adv-x="1599" 
d="M254 0h-150l1131 1380h151zM850 1380l-33 -131q-125 -129 -243 -311.5t-207 -384.5h-185q103 216 226.5 396t236.5 298h-444l32 133h617zM1274 846q124 0 199 -58t75 -155q0 -77 -53 -137.5t-149 -81.5v-4q118 -38 118 -174q0 -99 -88 -176.5t-241 -77.5
q-137 0 -214 62.5t-77 170.5q0 80 58.5 144t160.5 81v4q-48 21 -77.5 65.5t-29.5 100.5q0 88 86.5 162t231.5 74zM1264 719q-78 0 -119 -38.5t-41 -90.5q0 -48 34.5 -76.5t96.5 -28.5q78 0 119 39.5t41 91.5q0 47 -34 75t-97 28zM1174 362q-85 0 -129 -43.5t-44 -97.5
t37 -83t103 -29q83 0 127.5 43.5t44.5 99.5q0 52 -36.5 81t-102.5 29z" />
    <glyph glyph-name="partialdiff" unicode="&#x2202;" horiz-adv-x="1230" 
d="M731 1487q215 0 325.5 -131.5t110.5 -372.5q0 -99 -18.5 -209t-54.5 -224.5t-95.5 -217.5t-134 -184t-177.5 -129t-220 -48q-194 0 -294.5 107t-100.5 299q0 68 20.5 146t65.5 159.5t108.5 147t159.5 107.5t207 42q135 0 217 -55.5t113 -141.5h4q28 100 28 213
q0 159 -65.5 244.5t-194.5 85.5q-95 0 -159.5 -54.5t-94.5 -154.5h-190q43 171 156.5 271t283.5 100zM645 825q-75 0 -139.5 -31t-108 -80t-75 -110t-46 -120.5t-14.5 -112.5q0 -113 54.5 -175.5t164.5 -62.5q78 0 146 32t112.5 81.5t76.5 110t46.5 117.5t14.5 104
q0 116 -60 181.5t-172 65.5z" />
    <glyph glyph-name="increment" unicode="&#x2206;" horiz-adv-x="1382" 
d="M1245 0h-1364l918 1458h256zM1040 168l-67 565q-37 304 -66 594h-4q-176 -300 -354 -594l-348 -565h839z" />
    <glyph glyph-name="product" unicode="&#x220f;" horiz-adv-x="1353" 
d="M1159 -246h-188v1536h-588v-1536h-188v1704h964v-1704z" />
    <glyph glyph-name="summation" unicode="&#x2211;" horiz-adv-x="995" 
d="M924 1292h-643l409 -692l-409 -680h643v-166h-852v166l415 680l-415 692v166h852v-166z" />
    <glyph glyph-name="minus" unicode="&#x2212;" horiz-adv-x="1159" 
d="M1014 573h-869v150h869v-150z" />
    <glyph glyph-name="divisionslash" unicode="&#x2215;" horiz-adv-x="935" 
d="M-68 -182h-176l1030 1708h177z" />
    <glyph glyph-name="bulletoperator" unicode="&#x2219;" horiz-adv-x="704" 
d="M463 506h-221v239h221v-239z" />
    <glyph glyph-name="radical" unicode="&#x221a;" horiz-adv-x="1177" 
d="M649 -246h-233l-197 836h-168v147h289l195 -813h4l436 1534h162z" />
    <glyph glyph-name="infinity" unicode="&#x221e;" horiz-adv-x="1288" 
d="M971 942q128 0 207 -86t79 -225t-79 -225.5t-207 -86.5q-75 0 -139 29.5t-104 68.5t-85 99q-67 -92 -143 -144.5t-183 -52.5q-129 0 -207.5 86t-78.5 226t78.5 225.5t207.5 85.5q107 0 183 -52.5t143 -144.5q45 60 85 99t104 68.5t139 29.5zM334 465q68 0 118 41.5
t111 124.5q-61 83 -111 124.5t-118 41.5q-73 0 -113.5 -44.5t-40.5 -121.5t40.5 -121.5t113.5 -44.5zM954 465q72 0 113 44.5t41 121.5t-41 121.5t-113 44.5q-68 0 -120.5 -43t-108.5 -123q56 -80 108.5 -123t120.5 -43z" />
    <glyph glyph-name="integral" unicode="&#x222b;" horiz-adv-x="643" 
d="M516 1468q63 0 105 -10v-139q-18 6 -60 6q-77 0 -113 -40.5t-36 -135.5v-1239q0 -149 -73 -224t-214 -75q-60 0 -102 10v139q18 -6 59 -6q77 0 113 40.5t36 135.5v1239q0 149 73 224t212 75z" />
    <glyph glyph-name="approxequal" unicode="&#x2248;" horiz-adv-x="1159" 
d="M385 1010q50 0 96.5 -19t82 -46t68.5 -54.5t69 -46.5t71 -19q56 0 89.5 43.5t33.5 114.5h129q0 -136 -67.5 -218.5t-182.5 -82.5q-49 0 -95.5 18.5t-82 45.5t-69 54t-69.5 45.5t-71 18.5q-57 0 -90 -42t-33 -113h-129q0 135 68 218t182 83zM385 616q50 0 96.5 -18.5
t82 -45.5t68.5 -54t69 -45.5t71 -18.5q57 0 90 42.5t33 113.5h129q0 -135 -68 -218t-182 -83q-49 0 -95.5 19t-82 46t-69 54t-69.5 46t-71 19q-56 0 -89.5 -43.5t-33.5 -114.5h-129q0 136 67.5 218.5t182.5 82.5z" />
    <glyph glyph-name="notequal" unicode="&#x2260;" horiz-adv-x="1159" 
d="M717 741l-119 -186h416v-152h-510l-164 -260h-154l164 260h-205v152h299l117 186h-416v152h510l164 260h156l-164 -260h203v-152h-297z" />
    <glyph glyph-name="lessequal" unicode="&#x2264;" horiz-adv-x="1159" 
d="M1014 948l-701 -276v-4l701 -277v-158l-869 340v195l869 338v-158zM1014 147v-147h-869v147h869z" />
    <glyph glyph-name="greaterequal" unicode="&#x2265;" horiz-adv-x="1159" 
d="M1014 768v-195l-869 -340v158l701 277v4l-701 276v158zM1014 0h-869v147h869v-147z" />
    <glyph glyph-name="lozenge" unicode="&#x25ca;" horiz-adv-x="1222" 
d="M1141 729l-412 -729h-235l-412 729l412 729h235zM268 729l344 -598l342 598l-342 598z" />
    <glyph glyph-name="apple" unicode="&#xf8ff;" horiz-adv-x="1228" 
d="M309 1591h658q125 0 196.5 -71.5t71.5 -196.5v-1188q0 -125 -71.5 -196.5t-196.5 -71.5h-658q-123 0 -195.5 72t-72.5 196v1188q0 124 72.5 196t195.5 72zM967 1491h-658q-77 0 -122.5 -45t-45.5 -123v-1188q0 -78 45.5 -123t122.5 -45h658q77 0 122.5 45t45.5 123v1188
q0 78 -45.5 123t-122.5 45zM633 1323q158 0 254 -82.5t96 -218.5q0 -87 -32.5 -146.5t-131.5 -146.5q-89 -77 -114 -133.5t-25 -181.5h-148v55q0 123 30 188.5t126 155.5q74 70 95.5 109.5t21.5 97.5q0 72 -46.5 114t-125.5 42q-184 0 -193 -201h-172q7 170 101.5 259
t263.5 89zM702 133h-192v186h192v-186z" />
    <glyph glyph-name="ff" unicode="&#xfb00;" horiz-adv-x="1183" 
d="M1278 1468q59 0 113 -12l-35 -137q-18 6 -56 6q-78 0 -126 -43.5t-74 -144.5l-25 -97h207l-37 -143h-205l-223 -897h-178l223 897h-379l-225 -897h-178l223 897h-182l35 143h184l35 144q71 284 344 284q58 0 112 -12l-32 -137q-21 6 -58 6q-77 0 -125.5 -44t-72.5 -144
l-25 -97h381l35 144q71 284 344 284z" />
    <glyph glyph-name="fi" unicode="&#xfb01;" horiz-adv-x="1124" 
d="M483 897l-225 -897h-178l223 897h-182l35 143h184l35 144q71 284 344 284q58 0 112 -12l-32 -137q-21 6 -58 6q-77 0 -125.5 -44t-72.5 -144l-25 -97h205l-35 -143h-205zM1198 1458l-49 -203h-180l49 203h180zM913 1040h181l-258 -1040h-181z" />
    <glyph glyph-name="fl" unicode="&#xfb02;" horiz-adv-x="1124" 
d="M483 897l-225 -897h-178l223 897h-182l35 143h184l35 144q71 284 344 284q58 0 112 -12l-32 -137q-21 6 -58 6q-77 0 -125.5 -44t-72.5 -144l-25 -97h205l-35 -143h-205zM1198 1458l-362 -1458h-181l363 1458h180z" />
    <glyph glyph-name="ffi" unicode="&#xfb03;" horiz-adv-x="1683" 
d="M1040 897l-223 -897h-178l223 897h-379l-225 -897h-178l223 897h-182l35 143h184l35 144q71 284 344 284q58 0 112 -12l-32 -137q-21 6 -58 6q-77 0 -125.5 -44t-72.5 -144l-25 -97h381l35 144q71 284 344 284q59 0 113 -12l-35 -137q-18 6 -56 6q-78 0 -126 -43.5
t-74 -144.5l-25 -97h207l-37 -143h-205zM1757 1458l-49 -203h-180l49 203h180zM1473 1040h180l-258 -1040h-181z" />
    <glyph glyph-name="ffl" unicode="&#xfb04;" horiz-adv-x="1683" 
d="M1040 897l-223 -897h-178l223 897h-379l-225 -897h-178l223 897h-182l35 143h184l35 144q71 284 344 284q58 0 112 -12l-32 -137q-21 6 -58 6q-77 0 -125.5 -44t-72.5 -144l-25 -97h381l35 144q71 284 344 284q59 0 113 -12l-35 -137q-18 6 -56 6q-78 0 -126 -43.5
t-74 -144.5l-25 -97h207l-37 -143h-205zM1757 1458l-362 -1458h-181l363 1458h180z" />
    <glyph glyph-name="uniFEFF" unicode="&#xfeff;" horiz-adv-x="0" 
 />
    <glyph glyph-name="NULL" horiz-adv-x="1228" 
 />
    <glyph glyph-name="J.acute.loclNLD" horiz-adv-x="729" 
d="M745 1583h-165l237 293h242zM778 1458l-266 -1067q-98 -401 -489 -401q-76 0 -119 18l39 162q42 -10 77 -10q126 0 202.5 67.5t115.5 227.5l252 1003h188z" />
    <glyph glyph-name="Ccedilla.ss01" horiz-adv-x="1413" 
d="M915 1487q229 0 362.5 -128.5t133.5 -336.5q0 -45 -6 -88h-195q4 50 4 70q0 145 -85.5 228t-233.5 83q-110 0 -205 -47.5t-161 -125t-113 -176.5t-69.5 -201.5t-22.5 -199.5q0 -194 90 -308t254 -114q147 0 268 89t178 239h197q-75 -231 -252 -365.5t-408 -134.5
q-248 0 -386 156t-138 422q0 126 30.5 255t95.5 252t156 219t222.5 154t283.5 58zM430 -432h-235l337 332h173z" />
    <glyph glyph-name="Scedilla.ss01" horiz-adv-x="1247" 
d="M786 1487q463 0 463 -365q0 -57 -14 -114h-191q11 60 11 88q0 229 -287 229q-153 0 -238.5 -76t-85.5 -172q0 -94 66 -145t221 -101q52 -18 88 -32t79.5 -34.5t72.5 -41.5t58.5 -51.5t46.5 -64.5t27.5 -79.5t10.5 -99.5q0 -63 -22.5 -127t-70 -123.5t-114 -105.5
t-162.5 -73.5t-208 -27.5q-231 0 -355.5 99t-124.5 288q0 58 15 125h192q-12 -58 -12 -104q0 -246 303 -246q94 0 167 26t113 68t60 87.5t20 91.5q0 52 -17.5 90.5t-58.5 68t-87 50t-123 47.5q-63 22 -103 38t-89 41t-78.5 52.5t-56.5 65t-39.5 86.5t-12.5 110
q0 58 20.5 117.5t64.5 116.5t105.5 101t151 70.5t194.5 26.5zM332 -432h-236l338 332h172z" />
    <glyph glyph-name="Tcedilla.ss01" horiz-adv-x="1226" 
d="M1399 1290h-498l-321 -1290h-191l322 1290h-498l41 168h1186zM303 -432h-235l338 332h172z" />
    <glyph glyph-name="idotaccent" horiz-adv-x="499" 
d="M524 1255h-180l49 203h180zM211 0h-180l258 1040h180z" />
    <glyph glyph-name="j.acute.loclNLD" horiz-adv-x="509" 
d="M453 1165h-166l237 293h242zM479 1040l-280 -1122q-76 -305 -353 -305q-65 0 -114 14l35 140q32 -7 55 -7q82 0 132.5 47t78.5 162l266 1071h180z" />
    <glyph glyph-name="ccedilla.ss01" horiz-adv-x="1093" 
d="M659 1069q183 0 286.5 -100t103.5 -267q0 -33 -2 -51h-187q2 14 2 41q0 106 -56 168t-157 62q-90 0 -166 -51t-122.5 -130t-72.5 -167.5t-26 -170.5q0 -133 60.5 -208.5t166.5 -75.5q103 0 187.5 68.5t120.5 174.5h190q-60 -175 -196.5 -283t-313.5 -108
q-186 0 -293.5 114.5t-107.5 313.5q0 87 22.5 178.5t70.5 179.5t114.5 157.5t164.5 112t211 42.5zM279 -432h-236l338 332h172z" />
    <glyph glyph-name="scedilla.ss01" horiz-adv-x="1011" 
d="M588 1069q178 0 270 -70t92 -204q0 -44 -8 -80h-174q6 54 6 63q0 74 -52.5 113t-150.5 39q-101 0 -161 -43.5t-60 -116.5q0 -64 42.5 -93t164.5 -69q37 -12 51 -16.5t48.5 -17.5t49 -20.5t42 -23.5t40.5 -30t31 -35t26 -44t14.5 -52.5t6.5 -63.5q0 -63 -28 -121.5
t-81.5 -106.5t-141.5 -77t-197 -29q-187 0 -289 74.5t-102 214.5q0 52 10 86h182q-8 -31 -8 -70q0 -78 56.5 -119.5t164.5 -41.5q118 0 182 46.5t64 127.5q0 30 -10.5 53t-26.5 39.5t-49 32.5t-64 27.5t-86 29.5q-119 39 -163 66q-107 73 -109 215q0 60 27.5 116t78.5 101.5
t132 72.5t180 27zM213 -432h-236l338 332h172z" />
    <glyph glyph-name="tcedilla.ss01" horiz-adv-x="655" 
d="M477 897l-143 -575q-12 -46 -12 -78q0 -54 27 -78.5t87 -24.5q32 0 72 9l-39 -148q-38 -10 -86 -10q-127 0 -186.5 51t-59.5 164q0 49 19 127l141 563h-182l37 143h180l63 252h180l-63 -252h207l-37 -143h-205zM168 -100h172l-274 -332h-236z" />
    <glyph glyph-name="a.sups" horiz-adv-x="804" 
d="M586 1425q132 0 202 -56t70 -169q0 -44 -12 -94l-60 -238q-31 -132 -28 -192h-144q0 34 11 76h-4q-104 -93 -252 -93q-108 0 -170 53t-62 138q0 211 338 260q118 16 225 20l5 13q8 27 8 59q0 111 -138 111q-71 0 -116.5 -35t-59.5 -96h-155q24 106 115 174.5t227 68.5z
M664 971l12 53q-96 -7 -187 -20q-109 -16 -149.5 -50t-40.5 -86q0 -44 32.5 -69t92.5 -25q88 0 151.5 52t88.5 145z" />
    <glyph glyph-name="b.sups" horiz-adv-x="868" 
d="M471 1339h4q40 39 96 61.5t115 22.5q124 0 192 -75t68 -209q0 -80 -26.5 -163t-75 -155t-127 -118t-172.5 -46q-76 0 -132.5 36t-78.5 95h-2l-29 -112h-151l256 1020h153zM635 1303q-59 0 -108.5 -32t-80.5 -82t-48 -108t-17 -114q0 -87 38 -136t107 -49q60 0 110 32
t80.5 82t47 107.5t16.5 112.5q0 89 -37.5 138t-107.5 49z" />
    <glyph glyph-name="c.sups" horiz-adv-x="804" 
d="M610 1425q139 0 218 -72.5t79 -195.5q0 -11 -4 -31h-160q5 15 5 27q0 67 -40 107t-110 40q-59 0 -109 -33t-80.5 -84t-47.5 -108.5t-17 -109.5q0 -86 40.5 -135.5t109.5 -49.5q67 0 120 45.5t76 112.5h166q-44 -127 -144 -205t-231 -78q-137 0 -218 83t-81 227
q0 60 16 122.5t51 123.5t84 108.5t121 76.5t156 29z" />
    <glyph glyph-name="d.sups" horiz-adv-x="866" 
d="M795 676h-152l19 67h-5q-42 -39 -99.5 -62.5t-115.5 -23.5q-125 0 -193.5 75.5t-68.5 209.5q0 63 16.5 129.5t50.5 129.5t81 112.5t113.5 79.5t142.5 30q73 0 129 -35t78 -92h4l98 400h156zM600 1298q-59 0 -109 -31.5t-80.5 -81.5t-47.5 -107.5t-17 -112.5
q0 -88 38.5 -137.5t107.5 -49.5q59 0 109 32t80.5 82t47 108t16.5 114q0 87 -37.5 135.5t-107.5 48.5z" />
    <glyph glyph-name="e.sups" horiz-adv-x="827" 
d="M889 1008h-551q-8 -33 -8 -68q0 -86 45 -128t121 -42q68 0 121 34.5t79 90.5h158q-41 -102 -137.5 -171t-224.5 -69q-152 0 -230 81t-78 225q0 61 16.5 124.5t52 124.5t84.5 109t120.5 77t154.5 29q145 0 221 -75.5t76 -210.5q0 -50 -20 -131zM606 1311q-84 0 -150 -52
t-96 -149h400q4 32 4 47q0 76 -41 115t-117 39z" />
    <glyph glyph-name="egrave.sups" horiz-adv-x="827" 
d="M596 1493l-162 203h199l100 -203h-137zM889 1008h-551q-8 -33 -8 -68q0 -86 45 -128t121 -42q68 0 121 34.5t79 90.5h158q-41 -102 -137.5 -171t-224.5 -69q-152 0 -230 81t-78 225q0 61 16.5 124.5t52 124.5t84.5 109t120.5 77t154.5 29q145 0 221 -75.5t76 -210.5
q0 -50 -20 -131zM606 1311q-84 0 -150 -52t-96 -149h400q4 32 4 47q0 76 -41 115t-117 39z" />
    <glyph glyph-name="f.sups" horiz-adv-x="471" 
d="M653 1704q42 0 92 -8l-28 -117q-30 6 -43 6q-55 0 -87.5 -29t-51.5 -96l-15 -55h146l-29 -121h-145l-152 -608h-154l152 608h-129l31 121h129l22 94q54 205 262 205z" />
    <glyph glyph-name="g.sups" horiz-adv-x="862" 
d="M575 1423q78 0 134 -33.5t82 -95.5h2l28 111h148l-178 -725q-35 -140 -136 -211.5t-256 -71.5q-136 0 -209 51.5t-73 143.5q0 25 4 39h149q-2 -10 -2 -29q0 -44 36.5 -68t103.5 -24q95 0 152.5 49t86.5 158l10 47h-2q-97 -82 -221 -82q-117 0 -182.5 78.5t-65.5 214.5
q0 59 16 120.5t49 120.5t78 105t109 74t137 28zM584 1300q-55 0 -102 -31.5t-75.5 -80t-44.5 -101.5t-16 -100q0 -83 37 -130.5t104 -47.5q49 0 91.5 20t72 52.5t51 73.5t31.5 83t10 82q0 85 -41.5 132.5t-117.5 47.5z" />
    <glyph glyph-name="h.sups" horiz-adv-x="864" 
d="M469 1327h2q94 94 223 94q107 0 166.5 -55t59.5 -160q0 -48 -15 -104l-106 -426h-156l107 424q12 50 12 84q0 55 -31 83.5t-88 28.5q-78 0 -144 -55.5t-91 -157.5l-103 -407h-153l254 1020h153z" />
    <glyph glyph-name="i.sups" horiz-adv-x="378" 
d="M522 1544h-153l37 152h153zM305 676h-153l180 729h153z" />
    <glyph glyph-name="j.sups" horiz-adv-x="389" 
d="M532 1544h-155l37 152h155zM498 1405l-197 -780q-28 -114 -96.5 -168t-165.5 -54q-49 0 -96 13l28 119q16 -7 41 -7q58 0 93 32t55 110l182 735h156z" />
    <glyph glyph-name="k.sups" horiz-adv-x="761" 
d="M555 1061l258 -385h-180l-232 368h-4l-92 -368h-153l254 1020h153l-143 -578h4l328 287h210z" />
    <glyph glyph-name="l.sups" horiz-adv-x="378" 
d="M305 676h-153l254 1020h153z" />
    <glyph glyph-name="m.sups" horiz-adv-x="1292" 
d="M1133 1421q105 0 160 -53.5t55 -157.5q0 -39 -17 -112l-106 -422h-154l107 430q14 61 14 88q0 54 -27.5 78t-83.5 24q-74 0 -132 -58t-83 -159l-100 -403h-156l111 438q8 36 8 68q0 55 -27 84.5t-79 29.5q-75 0 -133.5 -60t-83.5 -163l-101 -397h-153l182 729h147
l-18 -80h2q86 96 207 96q77 0 128 -35t70 -102q109 137 263 137z" />
    <glyph glyph-name="n.sups" horiz-adv-x="862" 
d="M694 1421q107 0 166.5 -55t59.5 -160q0 -41 -17 -104l-106 -426h-154l105 424q12 40 12 84q0 55 -30.5 83.5t-86.5 28.5q-79 0 -144.5 -55t-90.5 -158l-103 -407h-153l182 729h147l-22 -84h4q97 100 231 100z" />
    <glyph glyph-name="o.sups" horiz-adv-x="849" 
d="M604 1425q152 0 236 -83t84 -234q0 -61 -16.5 -123.5t-51.5 -122t-83.5 -105.5t-119 -74t-151.5 -28q-152 0 -234 83.5t-82 234.5q0 61 16.5 123.5t51 121.5t82.5 105t117.5 74t150.5 28zM596 1298q-61 0 -110.5 -32t-79 -82.5t-45 -106.5t-15.5 -110q0 -90 41 -138.5
t123 -48.5q81 0 141 56t86.5 129.5t26.5 146.5q0 90 -42 138t-126 48z" />
    <glyph glyph-name="p.sups" horiz-adv-x="866" 
d="M684 1423q124 0 192 -75t68 -209q0 -80 -26.5 -163t-75 -155t-127 -118t-172.5 -46q-74 0 -129.5 34.5t-77.5 92.5h-4l-94 -374h-154l248 995h151l-18 -70h4q42 40 99 64t116 24zM633 1303q-59 0 -108 -32t-79.5 -82t-47.5 -108t-17 -114q0 -87 37.5 -136t107.5 -49
q59 0 109 32t80.5 82t47.5 107.5t17 112.5q0 88 -38.5 137.5t-108.5 49.5z" />
    <glyph glyph-name="q.sups" horiz-adv-x="868" 
d="M584 1423q74 0 130.5 -36.5t78.5 -96.5h4l28 115h152l-250 -995h-154l82 331h-2q-91 -84 -211 -84q-125 0 -193.5 75.5t-68.5 209.5q0 63 16.5 129.5t50.5 129.5t81 112.5t113.5 79.5t142.5 30zM600 1298q-59 0 -109 -31.5t-80.5 -81.5t-47.5 -107.5t-17 -112.5
q0 -88 38.5 -137.5t107.5 -49.5q59 0 109 32t80.5 82t47 108t16.5 114q0 87 -37.5 135.5t-107.5 48.5z" />
    <glyph glyph-name="r.sups" horiz-adv-x="559" 
d="M707 1413q30 0 57 -6l-33 -141q-24 6 -59 6q-105 0 -177 -64t-100 -180l-88 -352h-153l180 729h147l-24 -100h2q102 108 248 108z" />
    <glyph glyph-name="s.sups" horiz-adv-x="749" 
d="M561 1425q134 0 204.5 -49.5t70.5 -144.5q0 -32 -7 -53h-149q4 24 4 39q0 96 -135 96q-67 0 -106.5 -24t-39.5 -72q0 -40 26.5 -57.5t101.5 -42.5q11 -3 16 -5q105 -35 143 -59q86 -55 86 -160q0 -96 -86 -167t-246 -71q-142 0 -219.5 53t-77.5 152q0 31 9 58h155
q-6 -21 -6 -44q0 -51 39 -77.5t113 -26.5q79 0 120 28t41 79q0 46 -34 67t-133 53q-95 30 -129 53q-71 49 -72 150q0 91 82.5 158t228.5 67z" />
    <glyph glyph-name="t.sups" horiz-adv-x="491" 
d="M489 1284l-92 -366q-8 -24 -8 -50q0 -37 19.5 -54t62.5 -17q9 0 51 6l-30 -125q-27 -8 -70 -8q-99 0 -145 39t-46 125q0 47 13 90l90 360h-127l29 121h126l46 178h155l-45 -178h148l-31 -121h-146z" />
    <glyph glyph-name="u.sups" horiz-adv-x="862" 
d="M428 659q-107 0 -166 55t-59 160q0 46 16 105l107 426h153l-104 -424q-13 -54 -13 -84q0 -55 30.5 -84t86.5 -29q79 0 145 55t91 158l102 408h156l-182 -729h-150l23 84h-5q-98 -101 -231 -101z" />
    <glyph glyph-name="v.sups" horiz-adv-x="714" 
d="M498 676h-205l-80 729h156l24 -291q16 -220 21 -315h4q24 43 178 315l172 291h176z" />
    <glyph glyph-name="w.sups" horiz-adv-x="1157" 
d="M993 676h-217l-4 299q0 52 -1 156t-1 157h-4q-73 -159 -152 -313l-155 -299h-215l-15 729h148v-293q0 -111 -4 -319h4q105 219 153 311l154 301h215l4 -301q4 -207 2 -311h4q83 183 152 319l143 293h164z" />
    <glyph glyph-name="x.sups" horiz-adv-x="731" 
d="M594 1049l180 -373h-168l-121 278h-2l-247 -278h-199l369 385l-166 344h166l106 -250h4l217 250h197z" />
    <glyph glyph-name="y.sups" horiz-adv-x="722" 
d="M952 1405l-473 -752q-90 -144 -170 -197t-205 -53q-39 0 -81 11l28 121q32 -7 55 -7q73 0 116 30.5t100 117.5l-109 729h156l67 -563h4l338 563h174z" />
    <glyph glyph-name="z.sups" horiz-adv-x="700" 
d="M838 1270l-531 -465v-4h426l-31 -125h-624l33 135l528 465v4h-397l30 125h600z" />
    <glyph glyph-name="a.smcp" horiz-adv-x="1157" 
d="M795 299h-512l-187 -299h-215l721 1122h252l164 -1122h-187zM774 461l-12 92q-52 426 -53 434h-4q-116 -196 -265 -434l-57 -92h391z" />
    <glyph glyph-name="aacute.smcp" horiz-adv-x="1157" 
d="M770 1247h-166l238 293h241zM854 1122l164 -1122h-187l-36 299h-512l-187 -299h-215l721 1122h252zM774 461l-12 92q-52 426 -53 434h-4q-116 -196 -265 -434l-57 -92h391z" />
    <glyph glyph-name="abreve.smcp" horiz-adv-x="1157" 
d="M983 1540h147q-38 -138 -137.5 -215.5t-238.5 -77.5q-128 0 -196.5 63t-68.5 179q0 29 5 51h120q-2 -10 -2 -31q0 -66 37.5 -100.5t108.5 -34.5q83 0 141 43t84 123zM854 1122l164 -1122h-187l-36 299h-512l-187 -299h-215l721 1122h252zM774 461l-12 92q-52 426 -53 434
h-4q-116 -196 -265 -434l-57 -92h391z" />
    <glyph glyph-name="acircumflex.smcp" horiz-adv-x="1157" 
d="M604 1247h-196l305 293h198l162 -293h-166l-106 191zM854 1122l164 -1122h-187l-36 299h-512l-187 -299h-215l721 1122h252zM774 461l-12 92q-52 426 -53 434h-4q-116 -196 -265 -434l-57 -92h391z" />
    <glyph glyph-name="adieresis.smcp" horiz-adv-x="1157" 
d="M645 1337h-168l49 203h168zM1094 1540l-50 -203h-167l49 203h168zM854 1122l164 -1122h-187l-36 299h-512l-187 -299h-215l721 1122h252zM774 461l-12 92q-52 426 -53 434h-4q-116 -196 -265 -434l-57 -92h391z" />
    <glyph glyph-name="agrave.smcp" horiz-adv-x="1157" 
d="M731 1247l-190 293h223l113 -293h-146zM795 299h-512l-187 -299h-215l721 1122h252l164 -1122h-187zM774 461l-12 92q-52 426 -53 434h-4q-116 -196 -265 -434l-57 -92h391z" />
    <glyph glyph-name="amacron.smcp" horiz-adv-x="1157" 
d="M1087 1475l-32 -132h-582l31 132h583zM854 1122l164 -1122h-187l-36 299h-512l-187 -299h-215l721 1122h252zM774 461l-12 92q-52 426 -53 434h-4q-116 -196 -265 -434l-57 -92h391z" />
    <glyph glyph-name="aogonek.smcp" horiz-adv-x="1157" 
d="M809 -227q0 -56 65 -56q42 0 80 15l-28 -115q-47 -14 -107 -14q-90 0 -135 37.5t-45 107.5q0 66 52 126t165 126h-25l-36 299h-512l-187 -299h-215l721 1122h252l164 -1122q-119 -72 -164 -126t-45 -101zM774 461l-12 92q-52 426 -53 434h-4q-116 -196 -265 -434l-57 -92
h391z" />
    <glyph glyph-name="aring.smcp" horiz-adv-x="1157" 
d="M766 1239q-85 0 -145 60.5t-60 146.5q0 85 60 145t145 60q86 0 146.5 -60t60.5 -145q0 -86 -60.5 -146.5t-146.5 -60.5zM766 1565q-48 0 -82.5 -35t-34.5 -84q0 -50 34.5 -84.5t82.5 -34.5q51 0 85 34t34 85q0 50 -34 84.5t-85 34.5zM795 299h-512l-187 -299h-215
l721 1122h252l164 -1122h-187zM774 461l-12 92q-52 426 -53 434h-4q-116 -196 -265 -434l-57 -92h391z" />
    <glyph glyph-name="atilde.smcp" horiz-adv-x="1157" 
d="M1042 1528h119q-32 -112 -98 -174t-152 -62q-43 0 -83.5 16.5t-65.5 36t-58 36t-63 16.5q-83 0 -119 -105h-123q31 112 97 174t153 62q43 0 84 -16.5t67 -36t58.5 -36t61.5 -16.5q84 0 122 105zM854 1122l164 -1122h-187l-36 299h-512l-187 -299h-215l721 1122h252z
M774 461l-12 92q-52 426 -53 434h-4q-116 -196 -265 -434l-57 -92h391z" />
    <glyph glyph-name="ae.smcp" horiz-adv-x="1611" 
d="M1014 961l-27 -308h508l-41 -159h-481l-29 -332h479l-39 -162h-639l29 322h-446l-240 -322h-227l846 1122h940l-39 -161h-594zM788 483l43 480h-26l-356 -480h339z" />
    <glyph glyph-name="b.smcp" horiz-adv-x="1120" 
d="M313 1122h400q172 0 258 -69t86 -191q0 -94 -68.5 -176t-195.5 -117v-4q78 -23 119.5 -77.5t41.5 -133.5q0 -61 -27 -122t-79 -114t-138.5 -85.5t-193.5 -32.5h-481zM461 969l-80 -324h215q75 0 129.5 15.5t83.5 43.5t42 60t13 70q0 68 -48.5 101.5t-153.5 33.5h-201z
M344 496l-86 -342h240q140 0 201 56t61 140q0 75 -50 110.5t-161 35.5h-205z" />
    <glyph glyph-name="c.smcp" 
d="M717 1151q199 0 307.5 -99t108.5 -268q0 -27 -7 -71h-194q2 16 2 47q1 106 -61.5 164.5t-172.5 58.5q-85 0 -158.5 -35.5t-123.5 -92.5t-85.5 -129.5t-52 -145t-16.5 -140.5q0 -145 66 -223t192 -78q116 0 207.5 60.5t132.5 167.5h199q-62 -185 -210 -290.5t-347 -105.5
q-208 0 -321 119.5t-113 337.5q0 95 25 194t78.5 194t128 169.5t182.5 120t233 45.5z" />
    <glyph glyph-name="cacute.smcp" 
d="M768 1247h-166l238 293h241zM717 1151q199 0 307.5 -99t108.5 -268q0 -27 -7 -71h-194q2 16 2 47q1 106 -61.5 164.5t-172.5 58.5q-85 0 -158.5 -35.5t-123.5 -92.5t-85.5 -129.5t-52 -145t-16.5 -140.5q0 -145 66 -223t192 -78q116 0 207.5 60.5t132.5 167.5h199
q-62 -185 -210 -290.5t-347 -105.5q-208 0 -321 119.5t-113 337.5q0 95 25 194t78.5 194t128 169.5t182.5 120t233 45.5z" />
    <glyph glyph-name="ccaron.smcp" 
d="M838 1247h-199l-162 293h166l107 -190l196 190h197zM717 1151q199 0 307.5 -99t108.5 -268q0 -27 -7 -71h-194q2 16 2 47q1 106 -61.5 164.5t-172.5 58.5q-85 0 -158.5 -35.5t-123.5 -92.5t-85.5 -129.5t-52 -145t-16.5 -140.5q0 -145 66 -223t192 -78q116 0 207.5 60.5
t132.5 167.5h199q-62 -185 -210 -290.5t-347 -105.5q-208 0 -321 119.5t-113 337.5q0 95 25 194t78.5 194t128 169.5t182.5 120t233 45.5z" />
    <glyph glyph-name="ccedilla.smcp" 
d="M1126 713h-194q2 16 2 47q1 106 -61.5 164.5t-172.5 58.5q-85 0 -158.5 -35.5t-123.5 -92.5t-85.5 -129.5t-52 -145t-16.5 -140.5q0 -145 66 -223t192 -78q116 0 207.5 60.5t132.5 167.5h199q-55 -165 -182 -268.5t-299 -123.5l-93 -102q16 4 39 4q60 0 96.5 -36
t36.5 -101q0 -79 -74 -135t-188 -56q-115 0 -202 56l43 76q71 -43 155 -43q62 0 98.5 26.5t36.5 69.5q0 34 -22.5 53.5t-63.5 19.5q-37 0 -67 -12l-35 33l133 143q-194 9 -298.5 128t-104.5 329q0 95 25 194t78.5 194t128 169.5t182.5 120t233 45.5q199 0 307.5 -99
t108.5 -268q0 -27 -7 -71z" />
    <glyph glyph-name="ccircumflex.smcp" 
d="M1071 1247h-166l-106 191l-197 -191h-196l305 293h198zM717 1151q199 0 307.5 -99t108.5 -268q0 -27 -7 -71h-194q2 16 2 47q1 106 -61.5 164.5t-172.5 58.5q-85 0 -158.5 -35.5t-123.5 -92.5t-85.5 -129.5t-52 -145t-16.5 -140.5q0 -145 66 -223t192 -78
q116 0 207.5 60.5t132.5 167.5h199q-62 -185 -210 -290.5t-347 -105.5q-208 0 -321 119.5t-113 337.5q0 95 25 194t78.5 194t128 169.5t182.5 120t233 45.5z" />
    <glyph glyph-name="cdotaccent.smcp" 
d="M850 1337h-180l49 203h180zM717 1151q199 0 307.5 -99t108.5 -268q0 -27 -7 -71h-194q2 16 2 47q1 106 -61.5 164.5t-172.5 58.5q-85 0 -158.5 -35.5t-123.5 -92.5t-85.5 -129.5t-52 -145t-16.5 -140.5q0 -145 66 -223t192 -78q116 0 207.5 60.5t132.5 167.5h199
q-62 -185 -210 -290.5t-347 -105.5q-208 0 -321 119.5t-113 337.5q0 95 25 194t78.5 194t128 169.5t182.5 120t233 45.5z" />
    <glyph glyph-name="d.smcp" horiz-adv-x="1247" 
d="M313 1122h310q266 0 406 -125.5t140 -361.5q0 -89 -23 -176t-75.5 -170.5t-128.5 -147t-190 -102.5t-252 -39h-465zM461 958l-201 -794h250q97 0 176.5 28.5t132.5 75t89.5 108t52.5 125.5t16 130q0 159 -92 243t-271 84h-153z" />
    <glyph glyph-name="eth.smcp" horiz-adv-x="1261" 
d="M326 1122h311q265 0 405 -126t140 -361q0 -89 -23 -176t-75.5 -170.5t-128 -147t-189.5 -102.5t-252 -39h-467l125 500h-129l33 135h129zM274 164h248q97 0 176.5 28.5t132.5 75t89.5 108t52.5 125.5t16 130q0 159 -91.5 243t-270.5 84h-154l-80 -323h299l-33 -135h-301z
" />
    <glyph glyph-name="dcaron.smcp" horiz-adv-x="1247" 
d="M823 1247h-198l-162 293h166l106 -190l197 190h196zM313 1122h310q266 0 406 -125.5t140 -361.5q0 -89 -23 -176t-75.5 -170.5t-128.5 -147t-190 -102.5t-252 -39h-465zM461 958l-201 -794h250q97 0 176.5 28.5t132.5 75t89.5 108t52.5 125.5t16 130q0 159 -92 243
t-271 84h-153z" />
    <glyph glyph-name="dcroat.smcp" horiz-adv-x="1261" 
d="M326 1122h311q265 0 405 -126t140 -361q0 -89 -23 -176t-75.5 -170.5t-128 -147t-189.5 -102.5t-252 -39h-467l125 500h-129l33 135h129zM274 164h248q97 0 176.5 28.5t132.5 75t89.5 108t52.5 125.5t16 130q0 159 -91.5 243t-270.5 84h-154l-80 -323h299l-33 -135h-301z
" />
    <glyph glyph-name="e.smcp" horiz-adv-x="1077" 
d="M1073 961h-602l-76 -308h566l-41 -159h-566l-82 -332h617l-39 -162h-805l279 1122h788z" />
    <glyph glyph-name="eacute.smcp" horiz-adv-x="1077" 
d="M780 1247h-166l238 293h242zM1073 961h-602l-76 -308h566l-41 -159h-566l-82 -332h617l-39 -162h-805l279 1122h788z" />
    <glyph glyph-name="ebreve.smcp" horiz-adv-x="1077" 
d="M995 1540h148q-38 -138 -138 -215.5t-239 -77.5q-128 0 -196 63t-68 179q0 33 4 51h121q-2 -10 -2 -31q0 -66 37 -100.5t108 -34.5q83 0 141 43t84 123zM1073 961h-602l-76 -308h566l-41 -159h-566l-82 -332h617l-39 -162h-805l279 1122h788z" />
    <glyph glyph-name="ecaron.smcp" horiz-adv-x="1077" 
d="M850 1247h-199l-162 293h166l107 -190l196 190h197zM1073 961h-602l-76 -308h566l-41 -159h-566l-82 -332h617l-39 -162h-805l279 1122h788z" />
    <glyph glyph-name="ecircumflex.smcp" horiz-adv-x="1077" 
d="M1083 1247h-165l-107 191l-197 -191h-196l305 293h199zM1073 961h-602l-76 -308h566l-41 -159h-566l-82 -332h617l-39 -162h-805l279 1122h788z" />
    <glyph glyph-name="edieresis.smcp" horiz-adv-x="1077" 
d="M657 1337h-168l50 203h168zM1057 1337h-168l49 203h168zM1073 961h-602l-76 -308h566l-41 -159h-566l-82 -332h617l-39 -162h-805l279 1122h788z" />
    <glyph glyph-name="edotaccent.smcp" horiz-adv-x="1077" 
d="M862 1337h-180l49 203h180zM1073 961h-602l-76 -308h566l-41 -159h-566l-82 -332h617l-39 -162h-805l279 1122h788z" />
    <glyph glyph-name="egrave.smcp" horiz-adv-x="1077" 
d="M774 1540l113 -293h-146l-190 293h223zM1073 961h-602l-76 -308h566l-41 -159h-566l-82 -332h617l-39 -162h-805l279 1122h788z" />
    <glyph glyph-name="emacron.smcp" horiz-adv-x="1077" 
d="M1065 1343h-582l31 132h584zM1073 961h-602l-76 -308h566l-41 -159h-566l-82 -332h617l-39 -162h-805l279 1122h788z" />
    <glyph glyph-name="eogonek.smcp" horiz-adv-x="1077" 
d="M471 961l-76 -308h566l-41 -159h-566l-82 -332h617l-39 -162q-119 -72 -164 -126t-45 -101q0 -56 66 -56q41 0 79 15l-28 -115q-47 -14 -107 -14q-90 0 -135 37.5t-45 107.5q0 66 52 126t165 126h-643l279 1122h788l-39 -161h-602z" />
    <glyph glyph-name="f.smcp" horiz-adv-x="1001" 
d="M1053 958h-582l-84 -340h543l-41 -163h-543l-113 -455h-188l279 1122h768z" />
    <glyph glyph-name="fi.smcp" horiz-adv-x="1538" 
d="M1053 958h-582l-84 -340h543l-41 -163h-543l-113 -455h-188l279 1122h768zM1235 0h-188l278 1122h188z" />
    <glyph glyph-name="fl.smcp" horiz-adv-x="1976" 
d="M1053 958h-582l-84 -340h543l-41 -163h-543l-113 -455h-188l279 1122h768zM1274 164h592l-39 -164h-780l278 1122h188z" />
    <glyph glyph-name="g.smcp" horiz-adv-x="1253" 
d="M748 1151q194 0 304.5 -94.5t110.5 -259.5q0 -25 -2 -37h-198v14q0 104 -63.5 157.5t-180.5 53.5q-87 0 -163.5 -35.5t-129 -93t-90.5 -130.5t-56 -148.5t-18 -145.5q0 -141 69.5 -219t196.5 -78q137 0 235 73t138 224h-309l37 154h487l-145 -586h-166l26 113h-4
q-61 -64 -155 -100t-197 -36q-194 0 -300.5 117t-106.5 328q0 97 26.5 197.5t82.5 196t134.5 170t192 120t244.5 45.5z" />
    <glyph glyph-name="gbreve.smcp" horiz-adv-x="1253" 
d="M995 1540h148q-38 -138 -138 -215.5t-239 -77.5q-128 0 -196 63t-68 179q0 33 4 51h121q-2 -10 -2 -31q0 -66 37 -100.5t108 -34.5q83 0 141 43t84 123zM748 1151q194 0 304.5 -94.5t110.5 -259.5q0 -25 -2 -37h-198v14q0 104 -63.5 157.5t-180.5 53.5
q-87 0 -163.5 -35.5t-129 -93t-90.5 -130.5t-56 -148.5t-18 -145.5q0 -141 69.5 -219t196.5 -78q137 0 235 73t138 224h-309l37 154h487l-145 -586h-166l26 113h-4q-61 -64 -155 -100t-197 -36q-194 0 -300.5 117t-106.5 328q0 97 26.5 197.5t82.5 196t134.5 170t192 120
t244.5 45.5z" />
    <glyph glyph-name="gcircumflex.smcp" horiz-adv-x="1253" 
d="M1085 1247h-165l-107 191l-197 -191h-196l305 293h199zM748 1151q194 0 304.5 -94.5t110.5 -259.5q0 -25 -2 -37h-198v14q0 104 -63.5 157.5t-180.5 53.5q-87 0 -163.5 -35.5t-129 -93t-90.5 -130.5t-56 -148.5t-18 -145.5q0 -141 69.5 -219t196.5 -78q137 0 235 73
t138 224h-309l37 154h487l-145 -586h-166l26 113h-4q-61 -64 -155 -100t-197 -36q-194 0 -300.5 117t-106.5 328q0 97 26.5 197.5t82.5 196t134.5 170t192 120t244.5 45.5z" />
    <glyph glyph-name="gcommaaccent.smcp" horiz-adv-x="1253" 
d="M748 1151q194 0 304.5 -94.5t110.5 -259.5q0 -25 -2 -37h-198v14q0 104 -63.5 157.5t-180.5 53.5q-87 0 -163.5 -35.5t-129 -93t-90.5 -130.5t-56 -148.5t-18 -145.5q0 -141 69.5 -219t196.5 -78q137 0 235 73t138 224h-309l37 154h487l-145 -586h-166l26 113h-4
q-61 -64 -155 -100t-197 -36q-194 0 -300.5 117t-106.5 328q0 97 26.5 197.5t82.5 196t134.5 170t192 120t244.5 45.5zM532 -315l-165 -211h-78l131 211h-68l43 182h183z" />
    <glyph glyph-name="gdotaccent.smcp" horiz-adv-x="1253" 
d="M864 1337h-180l49 203h180zM748 1151q194 0 304.5 -94.5t110.5 -259.5q0 -25 -2 -37h-198v14q0 104 -63.5 157.5t-180.5 53.5q-87 0 -163.5 -35.5t-129 -93t-90.5 -130.5t-56 -148.5t-18 -145.5q0 -141 69.5 -219t196.5 -78q137 0 235 73t138 224h-309l37 154h487
l-145 -586h-166l26 113h-4q-61 -64 -155 -100t-197 -36q-194 0 -300.5 117t-106.5 328q0 97 26.5 197.5t82.5 196t134.5 170t192 120t244.5 45.5z" />
    <glyph glyph-name="h.smcp" horiz-adv-x="1290" 
d="M987 0h-188l125 500h-568l-123 -500h-188l279 1122h188l-115 -458h566l114 458h189z" />
    <glyph glyph-name="hbar.smcp" horiz-adv-x="1290" 
d="M1300 895h-92l-221 -895h-188l125 500h-568l-123 -500h-188l221 895h-92l27 113h94l29 114h188l-29 -114h566l28 114h189l-29 -114h92zM1020 895h-565l-58 -231h566z" />
    <glyph glyph-name="hcircumflex.smcp" horiz-adv-x="1290" 
d="M1161 1247h-166l-106 191l-197 -191h-196l305 293h198zM987 0h-188l125 500h-568l-123 -500h-188l279 1122h188l-115 -458h566l114 458h189z" />
    <glyph glyph-name="i.smcp" horiz-adv-x="536" 
d="M233 0h-188l279 1122h188z" />
    <glyph glyph-name="iacute.smcp" horiz-adv-x="536" 
d="M479 1247h-166l238 293h242zM233 0h-188l279 1122h188z" />
    <glyph glyph-name="ibreve.smcp" horiz-adv-x="536" 
d="M666 1540h141q-37 -138 -127.5 -215.5t-216.5 -77.5q-112 0 -172 61t-60 171q0 29 7 61h118q-2 -10 -2 -37q0 -62 31.5 -95.5t89.5 -33.5q67 0 116.5 43t74.5 123zM233 0h-188l279 1122h188z" />
    <glyph glyph-name="icircumflex.smcp" horiz-adv-x="536" 
d="M752 1249h-158l-80 191l-176 -191h-191l277 291h197zM233 0h-188l279 1122h188z" />
    <glyph glyph-name="idieresis.smcp" horiz-adv-x="536" 
d="M399 1337h-168l50 203h168zM713 1337h-166l49 203h168zM233 0h-188l279 1122h188z" />
    <glyph glyph-name="idotaccent.smcp" horiz-adv-x="536" 
d="M561 1337h-180l49 203h180zM233 0h-188l279 1122h188z" />
    <glyph glyph-name="igrave.smcp" horiz-adv-x="536" 
d="M473 1540l113 -293h-146l-190 293h223zM233 0h-188l279 1122h188z" />
    <glyph glyph-name="ij.smcp" horiz-adv-x="1171" 
d="M233 0h-188l279 1122h188zM1157 1122l-199 -798q-81 -332 -417 -332q-58 0 -105 14l39 158q30 -6 62 -6q101 0 160 51t89 174l185 739h186z" />
    <glyph glyph-name="imacron.smcp" horiz-adv-x="536" 
d="M735 1343h-526l33 132h526zM233 0h-188l279 1122h188z" />
    <glyph glyph-name="iogonek.smcp" horiz-adv-x="536" 
d="M512 1122l-279 -1122q-119 -72 -163.5 -126t-44.5 -101q0 -56 65 -56q42 0 80 15l-29 -115q-47 -14 -106 -14q-90 0 -135 37.5t-45 107.5q0 66 52 126t165 126h-27l279 1122h188z" />
    <glyph glyph-name="itilde.smcp" horiz-adv-x="536" 
d="M721 1528h115q-32 -112 -94 -174t-142 -62q-37 0 -72 16.5t-57 36t-50 36t-54 16.5q-72 0 -103 -105h-121q34 112 96 174t140 62q38 0 73.5 -16.5t58 -36t50 -36t51.5 -16.5q72 0 109 105zM233 0h-188l279 1122h188z" />
    <glyph glyph-name="j.smcp" horiz-adv-x="636" 
d="M621 1122l-199 -798q-81 -332 -418 -332q-57 0 -104 14l39 158q30 -6 61 -6q101 0 160.5 51t89.5 174l184 739h187z" />
    <glyph glyph-name="jcircumflex.smcp" horiz-adv-x="636" 
d="M860 1249h-158l-79 191l-177 -191h-190l276 291h197zM621 1122l-199 -798q-81 -332 -418 -332q-57 0 -104 14l39 158q30 -6 61 -6q101 0 160.5 51t89.5 174l184 739h187z" />
    <glyph glyph-name="k.smcp" horiz-adv-x="1105" 
d="M557 573l401 -573h-223l-370 551h-5l-137 -551h-188l278 1122h189l-121 -487h4l541 487h264z" />
    <glyph glyph-name="kcommaaccent.smcp" horiz-adv-x="1105" 
d="M557 573l401 -573h-223l-370 551h-5l-137 -551h-188l278 1122h189l-121 -487h4l541 487h264zM473 -315l-166 -211h-78l131 211h-67l43 182h182z" />
    <glyph glyph-name="l.smcp" horiz-adv-x="974" 
d="M272 164h592l-39 -164h-780l279 1122h188z" />
    <glyph glyph-name="lacute.smcp" horiz-adv-x="974" 
d="M545 1247h-166l237 293h242zM272 164h592l-39 -164h-780l279 1122h188z" />
    <glyph glyph-name="lcaron.smcp" horiz-adv-x="974" 
d="M272 164h592l-39 -164h-780l279 1122h188zM639 762h-111l150 360h162z" />
    <glyph glyph-name="lcommaaccent.smcp" horiz-adv-x="974" 
d="M272 164h592l-39 -164h-780l279 1122h188zM440 -315l-166 -211h-77l131 211h-68l43 182h182z" />
    <glyph glyph-name="ldot.smcp" horiz-adv-x="1097" 
d="M272 164h592l-39 -164h-780l279 1122h188zM942 580h-221l59 239h221z" />
    <glyph glyph-name="j.acute.loclNLD.smcp" horiz-adv-x="636" 
d="M588 1247h-166l237 293h242zM621 1122l-199 -798q-81 -332 -418 -332q-57 0 -104 14l39 158q30 -6 61 -6q101 0 160.5 51t89.5 174l184 739h187z" />
    <glyph glyph-name="lslash.smcp" horiz-adv-x="966" 
d="M856 164l-39 -164h-780l119 481l-158 -78l39 154l158 78l120 487h189l-98 -397l270 135l-39 -153l-270 -134l-103 -409h592z" />
    <glyph glyph-name="m.smcp" horiz-adv-x="1642" 
d="M1339 0h-182l137 555q49 193 109 414h-4q-147 -246 -252 -414l-344 -555h-221l-68 555q-26 223 -45 414h-4q-60 -266 -98 -414l-140 -555h-182l279 1122h292l64 -526q35 -302 45 -424h4q78 139 250 424l326 526h313z" />
    <glyph glyph-name="n.smcp" horiz-adv-x="1327" 
d="M1014 0h-260l-152 471q-72 219 -149 479h-4q-59 -258 -123 -516l-109 -434h-182l278 1122h260l154 -471q58 -178 147 -479h5q68 301 122 516l109 434h182z" />
    <glyph glyph-name="nacute.smcp" horiz-adv-x="1327" 
d="M844 1247h-166l237 293h242zM1014 0h-260l-152 471q-72 219 -149 479h-4q-59 -258 -123 -516l-109 -434h-182l278 1122h260l154 -471q58 -178 147 -479h5q68 301 122 516l109 434h182z" />
    <glyph glyph-name="ncaron.smcp" horiz-adv-x="1327" 
d="M913 1247h-198l-162 293h166l106 -190l197 190h197zM1014 0h-260l-152 471q-72 219 -149 479h-4q-59 -258 -123 -516l-109 -434h-182l278 1122h260l154 -471q58 -178 147 -479h5q68 301 122 516l109 434h182z" />
    <glyph glyph-name="ncommaaccent.smcp" horiz-adv-x="1327" 
d="M1014 0h-260l-152 471q-72 219 -149 479h-4q-59 -258 -123 -516l-109 -434h-182l278 1122h260l154 -471q58 -178 147 -479h5q68 301 122 516l109 434h182zM557 -315l-166 -211h-78l131 211h-67l43 182h182z" />
    <glyph glyph-name="eng.smcp" horiz-adv-x="1310" 
d="M1274 1122l-297 -1196q-32 -129 -113 -190.5t-196 -61.5q-62 0 -109 15l33 131q32 -4 53 -4q120 0 152 131l14 53l-199 500q-70 167 -166 430h-4q-44 -202 -112 -486l-113 -444h-182l278 1122h236l170 -420q140 -360 166 -430h4q47 216 112 484l91 366h182z" />
    <glyph glyph-name="ntilde.smcp" horiz-adv-x="1327" 
d="M1118 1528h119q-32 -112 -98 -174t-152 -62q-43 0 -83.5 16.5t-65.5 36t-58 36t-63 16.5q-83 0 -119 -105h-123q31 112 97 174t153 62q43 0 84 -16.5t66.5 -36t58 -36t61.5 -16.5q85 0 123 105zM1014 0h-260l-152 471q-72 219 -149 479h-4q-59 -258 -123 -516l-109 -434
h-182l278 1122h260l154 -471q58 -178 147 -479h5q68 301 122 516l109 434h182z" />
    <glyph glyph-name="o.smcp" horiz-adv-x="1257" 
d="M713 1151q223 0 346 -131t123 -363q0 -91 -25 -185.5t-78 -184.5t-126.5 -160t-179 -113t-226.5 -43q-224 0 -347.5 131t-123.5 363q0 91 25.5 185.5t78.5 184.5t126.5 160t179.5 113t227 43zM702 983q-84 0 -157 -33.5t-123 -88.5t-85.5 -124.5t-52 -141t-16.5 -138.5
q0 -149 75 -233.5t212 -84.5q84 0 157 34t123.5 88.5t86 124.5t52.5 141.5t17 138.5q0 149 -75.5 233t-213.5 84z" />
    <glyph glyph-name="oacute.smcp" horiz-adv-x="1257" 
d="M788 1247h-165l237 293h242zM713 1151q223 0 346 -131t123 -363q0 -91 -25 -185.5t-78 -184.5t-126.5 -160t-179 -113t-226.5 -43q-224 0 -347.5 131t-123.5 363q0 91 25.5 185.5t78.5 184.5t126.5 160t179.5 113t227 43zM702 983q-84 0 -157 -33.5t-123 -88.5
t-85.5 -124.5t-52 -141t-16.5 -138.5q0 -149 75 -233.5t212 -84.5q84 0 157 34t123.5 88.5t86 124.5t52.5 141.5t17 138.5q0 149 -75.5 233t-213.5 84z" />
    <glyph glyph-name="obreve.smcp" horiz-adv-x="1257" 
d="M1004 1540h147q-38 -138 -138 -215.5t-239 -77.5q-128 0 -196 63t-68 179q0 33 4 51h121q-2 -10 -2 -31q0 -66 37 -100.5t108 -34.5q83 0 141.5 43t84.5 123zM713 1151q223 0 346 -131t123 -363q0 -91 -25 -185.5t-78 -184.5t-126.5 -160t-179 -113t-226.5 -43
q-224 0 -347.5 131t-123.5 363q0 91 25.5 185.5t78.5 184.5t126.5 160t179.5 113t227 43zM702 983q-84 0 -157 -33.5t-123 -88.5t-85.5 -124.5t-52 -141t-16.5 -138.5q0 -149 75 -233.5t212 -84.5q84 0 157 34t123.5 88.5t86 124.5t52.5 141.5t17 138.5q0 149 -75.5 233
t-213.5 84z" />
    <glyph glyph-name="ocircumflex.smcp" horiz-adv-x="1257" 
d="M1092 1247h-166l-107 191l-196 -191h-197l305 293h199zM713 1151q223 0 346 -131t123 -363q0 -91 -25 -185.5t-78 -184.5t-126.5 -160t-179 -113t-226.5 -43q-224 0 -347.5 131t-123.5 363q0 91 25.5 185.5t78.5 184.5t126.5 160t179.5 113t227 43zM702 983
q-84 0 -157 -33.5t-123 -88.5t-85.5 -124.5t-52 -141t-16.5 -138.5q0 -149 75 -233.5t212 -84.5q84 0 157 34t123.5 88.5t86 124.5t52.5 141.5t17 138.5q0 149 -75.5 233t-213.5 84z" />
    <glyph glyph-name="odieresis.smcp" horiz-adv-x="1257" 
d="M666 1337h-168l49 203h168zM1065 1337h-168l49 203h168zM713 1151q223 0 346 -131t123 -363q0 -91 -25 -185.5t-78 -184.5t-126.5 -160t-179 -113t-226.5 -43q-224 0 -347.5 131t-123.5 363q0 91 25.5 185.5t78.5 184.5t126.5 160t179.5 113t227 43zM702 983
q-84 0 -157 -33.5t-123 -88.5t-85.5 -124.5t-52 -141t-16.5 -138.5q0 -149 75 -233.5t212 -84.5q84 0 157 34t123.5 88.5t86 124.5t52.5 141.5t17 138.5q0 149 -75.5 233t-213.5 84z" />
    <glyph glyph-name="ograve.smcp" horiz-adv-x="1257" 
d="M782 1540l113 -293h-145l-191 293h223zM713 1151q223 0 346 -131t123 -363q0 -91 -25 -185.5t-78 -184.5t-126.5 -160t-179 -113t-226.5 -43q-224 0 -347.5 131t-123.5 363q0 91 25.5 185.5t78.5 184.5t126.5 160t179.5 113t227 43zM702 983q-84 0 -157 -33.5t-123 -88.5
t-85.5 -124.5t-52 -141t-16.5 -138.5q0 -149 75 -233.5t212 -84.5q84 0 157 34t123.5 88.5t86 124.5t52.5 141.5t17 138.5q0 149 -75.5 233t-213.5 84z" />
    <glyph glyph-name="ohungarumlaut.smcp" horiz-adv-x="1257" 
d="M639 1247h-162l279 293h223zM967 1247h-162l278 293h224zM713 1151q223 0 346 -131t123 -363q0 -91 -25 -185.5t-78 -184.5t-126.5 -160t-179 -113t-226.5 -43q-224 0 -347.5 131t-123.5 363q0 91 25.5 185.5t78.5 184.5t126.5 160t179.5 113t227 43zM702 983
q-84 0 -157 -33.5t-123 -88.5t-85.5 -124.5t-52 -141t-16.5 -138.5q0 -149 75 -233.5t212 -84.5q84 0 157 34t123.5 88.5t86 124.5t52.5 141.5t17 138.5q0 149 -75.5 233t-213.5 84z" />
    <glyph glyph-name="omacron.smcp" horiz-adv-x="1257" 
d="M1073 1343h-581l30 132h584zM713 1151q223 0 346 -131t123 -363q0 -91 -25 -185.5t-78 -184.5t-126.5 -160t-179 -113t-226.5 -43q-224 0 -347.5 131t-123.5 363q0 91 25.5 185.5t78.5 184.5t126.5 160t179.5 113t227 43zM702 983q-84 0 -157 -33.5t-123 -88.5
t-85.5 -124.5t-52 -141t-16.5 -138.5q0 -149 75 -233.5t212 -84.5q84 0 157 34t123.5 88.5t86 124.5t52.5 141.5t17 138.5q0 149 -75.5 233t-213.5 84z" />
    <glyph glyph-name="oslash.smcp" horiz-adv-x="1257" 
d="M1241 1059l-125 -119q66 -117 66 -283q0 -91 -25 -185.5t-78 -184.5t-126.5 -160t-179 -113t-226.5 -43q-205 0 -328 111l-115 -111l-88 92l125 119q-65 115 -65 283q0 91 25.5 185.5t78.5 184.5t126.5 160t179.5 113t227 43q202 0 325 -111l115 111zM702 989
q-106 0 -193 -52t-139 -132.5t-80 -171t-28 -176.5q0 -80 21 -138l624 599q-80 71 -205 71zM555 133q86 0 160.5 34.5t125 90t86.5 126t53 142.5t17 140q0 75 -22 139l-625 -598q77 -74 205 -74z" />
    <glyph glyph-name="otilde.smcp" horiz-adv-x="1257" 
d="M1063 1528h119q-32 -112 -98 -174t-152 -62q-43 0 -83.5 16.5t-65.5 36t-58 36t-63 16.5q-83 0 -119 -105h-123q31 112 97 174t153 62q43 0 84 -16.5t66.5 -36t58 -36t61.5 -16.5q86 0 123 105zM713 1151q223 0 346 -131t123 -363q0 -91 -25 -185.5t-78 -184.5
t-126.5 -160t-179 -113t-226.5 -43q-224 0 -347.5 131t-123.5 363q0 91 25.5 185.5t78.5 184.5t126.5 160t179.5 113t227 43zM702 983q-84 0 -157 -33.5t-123 -88.5t-85.5 -124.5t-52 -141t-16.5 -138.5q0 -149 75 -233.5t212 -84.5q84 0 157 34t123.5 88.5t86 124.5
t52.5 141.5t17 138.5q0 149 -75.5 233t-213.5 84z" />
    <glyph glyph-name="oe.smcp" horiz-adv-x="1695" 
d="M1692 961h-600l-78 -308h567l-41 -159h-565l-84 -332h618l-41 -162h-843q-265 0 -405 126t-140 361q0 88 23.5 175.5t75.5 171t128 147t190 102.5t251 39h985zM905 961h-166q-96 0 -175.5 -28.5t-132 -75.5t-89 -109t-52.5 -126t-16 -130q0 -161 91 -245.5t268 -84.5h72z
" />
    <glyph glyph-name="p.smcp" horiz-adv-x="1077" 
d="M313 1122h369q192 0 290.5 -85.5t98.5 -243.5q0 -54 -15 -106.5t-49 -102.5t-82.5 -88t-122 -61t-161.5 -23h-315l-103 -412h-188zM463 963l-98 -392h274q65 0 114.5 20t76.5 53t40 69.5t13 74.5q0 85 -54 130t-159 45h-207z" />
    <glyph glyph-name="thorn.smcp" horiz-adv-x="1077" 
d="M453 928h180q192 0 290.5 -86.5t98.5 -243.5q0 -54 -15 -106.5t-49 -102.5t-82.5 -88t-122 -61t-161.5 -23h-316l-53 -217h-188l278 1122h189zM414 768l-99 -391h277q64 0 113 19.5t76 52.5t40 69.5t13 75.5q0 85 -53.5 129.5t-157.5 44.5h-209z" />
    <glyph glyph-name="q.smcp" horiz-adv-x="1257" 
d="M1182 657q0 -143 -63 -290.5t-179 -249.5l100 -140l-125 -90l-104 144q-123 -60 -264 -60q-224 0 -347.5 131t-123.5 363q0 91 25.5 185.5t78.5 184.5t126.5 160t179.5 113t227 43q223 0 346 -131t123 -363zM268 455q0 -151 75.5 -236.5t213.5 -85.5q78 0 156 33
l-125 172l127 92l125 -172q75 80 115 191t40 215q0 150 -75.5 234.5t-214.5 84.5q-84 0 -157.5 -34t-123.5 -89t-86 -124.5t-53 -141.5t-17 -139z" />
    <glyph glyph-name="r.smcp" horiz-adv-x="1118" 
d="M324 1122h360q387 0 387 -272q0 -69 -32 -135.5t-100.5 -120.5t-160.5 -72v-4q53 -20 75.5 -61.5t37.5 -141.5l51 -315h-188l-39 285q-13 96 -54 132t-131 36h-184l-113 -453h-188zM473 967l-90 -363h223q74 0 129.5 20.5t85 54t43 67.5t13.5 69q0 80 -57 116t-167 36
h-180z" />
    <glyph glyph-name="racute.smcp" horiz-adv-x="1118" 
d="M770 1247h-166l238 293h241zM324 1122h360q387 0 387 -272q0 -69 -32 -135.5t-100.5 -120.5t-160.5 -72v-4q53 -20 75.5 -61.5t37.5 -141.5l51 -315h-188l-39 285q-13 96 -54 132t-131 36h-184l-113 -453h-188zM473 967l-90 -363h223q74 0 129.5 20.5t85 54t43 67.5
t13.5 69q0 80 -57 116t-167 36h-180z" />
    <glyph glyph-name="rcaron.smcp" horiz-adv-x="1118" 
d="M840 1247h-199l-162 293h166l107 -190l196 190h197zM324 1122h360q387 0 387 -272q0 -69 -32 -135.5t-100.5 -120.5t-160.5 -72v-4q53 -20 75.5 -61.5t37.5 -141.5l51 -315h-188l-39 285q-13 96 -54 132t-131 36h-184l-113 -453h-188zM473 967l-90 -363h223
q74 0 129.5 20.5t85 54t43 67.5t13.5 69q0 80 -57 116t-167 36h-180z" />
    <glyph glyph-name="rcommaaccent.smcp" horiz-adv-x="1118" 
d="M324 1122h360q387 0 387 -272q0 -69 -32 -135.5t-100.5 -120.5t-160.5 -72v-4q53 -20 75.5 -61.5t37.5 -141.5l51 -315h-188l-39 285q-13 96 -54 132t-131 36h-184l-113 -453h-188zM473 967l-90 -363h223q74 0 129.5 20.5t85 54t43 67.5t13.5 69q0 80 -57 116t-167 36
h-180zM479 -315l-166 -211h-77l131 211h-68l43 182h182z" />
    <glyph glyph-name="s.smcp" horiz-adv-x="1071" 
d="M612 1151q394 0 394 -293q0 -36 -9 -80h-186q8 27 8 53q0 166 -221 166q-117 0 -181.5 -53.5t-64.5 -120.5q0 -65 51.5 -98.5t180.5 -73.5q60 -18 100.5 -34t86 -42.5t72 -58t44.5 -78.5t18 -106q0 -63 -30.5 -125t-87.5 -115.5t-152 -87t-211 -33.5q-196 0 -301 80
t-105 232q0 43 11 88h186q-8 -36 -8 -74q0 -170 237 -170q132 0 201.5 57t69.5 131q0 68 -54.5 107t-175.5 76q-52 17 -85 29.5t-74.5 32t-66.5 41.5t-48.5 51t-34 67.5t-10.5 85.5q0 60 28 119.5t81 111t141 83.5t196 32z" />
    <glyph glyph-name="sacute.smcp" horiz-adv-x="1071" 
d="M672 1247h-166l237 293h242zM612 1151q394 0 394 -293q0 -36 -9 -80h-186q8 27 8 53q0 166 -221 166q-117 0 -181.5 -53.5t-64.5 -120.5q0 -65 51.5 -98.5t180.5 -73.5q60 -18 100.5 -34t86 -42.5t72 -58t44.5 -78.5t18 -106q0 -63 -30.5 -125t-87.5 -115.5t-152 -87
t-211 -33.5q-196 0 -301 80t-105 232q0 43 11 88h186q-8 -36 -8 -74q0 -170 237 -170q132 0 201.5 57t69.5 131q0 68 -54.5 107t-175.5 76q-52 17 -85 29.5t-74.5 32t-66.5 41.5t-48.5 51t-34 67.5t-10.5 85.5q0 60 28 119.5t81 111t141 83.5t196 32z" />
    <glyph glyph-name="scaron.smcp" horiz-adv-x="1071" 
d="M741 1247h-198l-162 293h166l106 -190l197 190h197zM612 1151q394 0 394 -293q0 -36 -9 -80h-186q8 27 8 53q0 166 -221 166q-117 0 -181.5 -53.5t-64.5 -120.5q0 -65 51.5 -98.5t180.5 -73.5q60 -18 100.5 -34t86 -42.5t72 -58t44.5 -78.5t18 -106q0 -63 -30.5 -125
t-87.5 -115.5t-152 -87t-211 -33.5q-196 0 -301 80t-105 232q0 43 11 88h186q-8 -36 -8 -74q0 -170 237 -170q132 0 201.5 57t69.5 131q0 68 -54.5 107t-175.5 76q-52 17 -85 29.5t-74.5 32t-66.5 41.5t-48.5 51t-34 67.5t-10.5 85.5q0 60 28 119.5t81 111t141 83.5t196 32z
" />
    <glyph glyph-name="scedilla.smcp" horiz-adv-x="1071" 
d="M997 778h-186q8 27 8 53q0 166 -221 166q-117 0 -181.5 -53.5t-64.5 -120.5q0 -65 51.5 -98.5t180.5 -73.5q60 -18 100.5 -34t86 -42.5t72 -58t44.5 -78.5t18 -106q0 -58 -26 -115.5t-74.5 -108.5t-128 -87t-178.5 -46l-92 -102q16 4 38 4q60 0 97 -36t37 -101
q0 -79 -74.5 -135t-188.5 -56q-115 0 -202 56l43 76q71 -43 155 -43q62 0 98.5 26.5t36.5 69.5q0 34 -22.5 53.5t-63.5 19.5q-37 0 -67 -12l-35 33l131 143q-180 8 -275.5 87.5t-95.5 224.5q0 43 11 88h186q-8 -36 -8 -74q0 -170 237 -170q132 0 201.5 57t69.5 131
q0 68 -54.5 107t-175.5 76q-52 17 -85 29.5t-74.5 32t-66.5 41.5t-48.5 51t-34 67.5t-10.5 85.5q0 60 28 119.5t81 111t141 83.5t196 32q394 0 394 -293q0 -36 -9 -80z" />
    <glyph glyph-name="scircumflex.smcp" horiz-adv-x="1071" 
d="M975 1247h-166l-107 191l-196 -191h-197l305 293h199zM612 1151q394 0 394 -293q0 -36 -9 -80h-186q8 27 8 53q0 166 -221 166q-117 0 -181.5 -53.5t-64.5 -120.5q0 -65 51.5 -98.5t180.5 -73.5q60 -18 100.5 -34t86 -42.5t72 -58t44.5 -78.5t18 -106q0 -63 -30.5 -125
t-87.5 -115.5t-152 -87t-211 -33.5q-196 0 -301 80t-105 232q0 43 11 88h186q-8 -36 -8 -74q0 -170 237 -170q132 0 201.5 57t69.5 131q0 68 -54.5 107t-175.5 76q-52 17 -85 29.5t-74.5 32t-66.5 41.5t-48.5 51t-34 67.5t-10.5 85.5q0 60 28 119.5t81 111t141 83.5t196 32z
" />
    <glyph glyph-name="scommaaccent.smcp" horiz-adv-x="1071" 
d="M612 1151q394 0 394 -293q0 -36 -9 -80h-186q8 27 8 53q0 166 -221 166q-117 0 -181.5 -53.5t-64.5 -120.5q0 -65 51.5 -98.5t180.5 -73.5q60 -18 100.5 -34t86 -42.5t72 -58t44.5 -78.5t18 -106q0 -63 -30.5 -125t-87.5 -115.5t-152 -87t-211 -33.5q-196 0 -301 80
t-105 232q0 43 11 88h186q-8 -36 -8 -74q0 -170 237 -170q132 0 201.5 57t69.5 131q0 68 -54.5 107t-175.5 76q-52 17 -85 29.5t-74.5 32t-66.5 41.5t-48.5 51t-34 67.5t-10.5 85.5q0 60 28 119.5t81 111t141 83.5t196 32zM438 -315l-166 -211h-77l131 211h-68l43 182h182z
" />
    <glyph glyph-name="germandbls.smcp" horiz-adv-x="1363" 
d="M1249 926l-317 -267q262 -80 262 -319q0 -68 -28 -133t-80.5 -118t-138 -85.5t-191.5 -32.5q-165 0 -250.5 64.5t-85.5 189.5q0 40 10 74h178q-4 -14 -4 -43q0 -127 170 -127q111 0 169 61t58 140q0 98 -76 148.5t-229 66.5l33 135l279 233q-85 78 -234 78
q-316 0 -401 -340l-160 -651h-188l168 676q57 229 213 352t391 123q158 0 274.5 -61t177.5 -164z" />
    <glyph glyph-name="t.smcp" horiz-adv-x="1024" 
d="M1112 958h-397l-238 -958h-188l239 958h-397l39 164h983z" />
    <glyph glyph-name="tbar.smcp" horiz-adv-x="1024" 
d="M715 958l-80 -321h223l-31 -135h-225l-125 -502h-188l125 502h-224l33 135h226l79 321h-397l39 164h983l-41 -164h-397z" />
    <glyph glyph-name="tcaron.smcp" horiz-adv-x="1024" 
d="M793 1247h-199l-162 293h166l107 -190l196 190h197zM1112 958h-397l-238 -958h-188l239 958h-397l39 164h983z" />
    <glyph glyph-name="tcedilla.smcp" horiz-adv-x="1024" 
d="M1112 958h-397l-238 -958h-188l239 958h-397l39 164h983zM393 -315l-166 -211h-77l131 211h-68l43 182h182z" />
    <glyph glyph-name="tcommaaccent.smcp" horiz-adv-x="1024" 
d="M1112 958h-397l-238 -958h-188l239 958h-397l39 164h983zM393 -315l-166 -211h-77l131 211h-68l43 182h182z" />
    <glyph glyph-name="u.smcp" horiz-adv-x="1232" 
d="M1221 1122l-189 -749q-47 -195 -178.5 -298.5t-331.5 -103.5q-190 0 -289.5 93.5t-99.5 267.5q0 68 21 151l157 639h189l-168 -673q-15 -55 -15 -101q0 -103 57 -156t163 -53q121 0 203 68t114 201l178 714h189z" />
    <glyph glyph-name="uacute.smcp" horiz-adv-x="1232" 
d="M807 1247h-166l238 293h241zM1221 1122l-189 -749q-47 -195 -178.5 -298.5t-331.5 -103.5q-190 0 -289.5 93.5t-99.5 267.5q0 68 21 151l157 639h189l-168 -673q-15 -55 -15 -101q0 -103 57 -156t163 -53q121 0 203 68t114 201l178 714h189z" />
    <glyph glyph-name="ubreve.smcp" horiz-adv-x="1232" 
d="M1020 1540h147q-38 -138 -137.5 -215.5t-238.5 -77.5q-128 0 -196.5 63t-68.5 179q0 33 4 51h121q-2 -10 -2 -31q0 -66 37.5 -100.5t108.5 -34.5q83 0 141 43t84 123zM1221 1122l-189 -749q-47 -195 -178.5 -298.5t-331.5 -103.5q-190 0 -289.5 93.5t-99.5 267.5
q0 68 21 151l157 639h189l-168 -673q-15 -55 -15 -101q0 -103 57 -156t163 -53q121 0 203 68t114 201l178 714h189z" />
    <glyph glyph-name="ucircumflex.smcp" horiz-adv-x="1232" 
d="M1110 1247h-166l-106 191l-197 -191h-197l306 293h198zM1221 1122l-189 -749q-47 -195 -178.5 -298.5t-331.5 -103.5q-190 0 -289.5 93.5t-99.5 267.5q0 68 21 151l157 639h189l-168 -673q-15 -55 -15 -101q0 -103 57 -156t163 -53q121 0 203 68t114 201l178 714h189z
" />
    <glyph glyph-name="udieresis.smcp" horiz-adv-x="1232" 
d="M684 1337h-168l49 203h168zM1083 1337h-168l50 203h168zM1221 1122l-189 -749q-47 -195 -178.5 -298.5t-331.5 -103.5q-190 0 -289.5 93.5t-99.5 267.5q0 68 21 151l157 639h189l-168 -673q-15 -55 -15 -101q0 -103 57 -156t163 -53q121 0 203 68t114 201l178 714h189z
" />
    <glyph glyph-name="ugrave.smcp" horiz-adv-x="1232" 
d="M801 1540l112 -293h-145l-190 293h223zM1221 1122l-189 -749q-47 -195 -178.5 -298.5t-331.5 -103.5q-190 0 -289.5 93.5t-99.5 267.5q0 68 21 151l157 639h189l-168 -673q-15 -55 -15 -101q0 -103 57 -156t163 -53q121 0 203 68t114 201l178 714h189z" />
    <glyph glyph-name="uhungarumlaut.smcp" horiz-adv-x="1232" 
d="M655 1247h-161l278 293h223zM983 1247h-162l279 293h223zM1221 1122l-189 -749q-47 -195 -178.5 -298.5t-331.5 -103.5q-190 0 -289.5 93.5t-99.5 267.5q0 68 21 151l157 639h189l-168 -673q-15 -55 -15 -101q0 -103 57 -156t163 -53q121 0 203 68t114 201l178 714h189z
" />
    <glyph glyph-name="umacron.smcp" horiz-adv-x="1232" 
d="M1092 1343h-582l31 132h583zM1221 1122l-189 -749q-47 -195 -178.5 -298.5t-331.5 -103.5q-190 0 -289.5 93.5t-99.5 267.5q0 68 21 151l157 639h189l-168 -673q-15 -55 -15 -101q0 -103 57 -156t163 -53q121 0 203 68t114 201l178 714h189z" />
    <glyph glyph-name="uogonek.smcp" horiz-adv-x="1232" 
d="M1221 1122l-189 -749q-56 -237 -260 -367q-119 -77 -164 -132t-45 -101q0 -56 66 -56q41 0 82 15l-29 -115q-51 -14 -107 -14q-90 0 -135 37.5t-45 107.5q0 58 41 111t129 110v4q-14 -2 -43 -2q-190 0 -289.5 93.5t-99.5 267.5q0 68 21 151l157 639h189l-168 -673
q-15 -55 -15 -101q0 -103 57 -156t163 -53q121 0 203 68t114 201l178 714h189z" />
    <glyph glyph-name="uring.smcp" horiz-adv-x="1232" 
d="M805 1651q86 0 146.5 -60t60.5 -145q0 -86 -60.5 -146.5t-146.5 -60.5q-85 0 -145 60.5t-60 146.5q0 85 60 145t145 60zM805 1565q-48 0 -82.5 -35t-34.5 -84q0 -50 34.5 -84.5t82.5 -34.5q51 0 85 34t34 85q0 50 -34 84.5t-85 34.5zM1221 1122l-189 -749
q-47 -195 -178.5 -298.5t-331.5 -103.5q-190 0 -289.5 93.5t-99.5 267.5q0 68 21 151l157 639h189l-168 -673q-15 -55 -15 -101q0 -103 57 -156t163 -53q121 0 203 68t114 201l178 714h189z" />
    <glyph glyph-name="utilde.smcp" horiz-adv-x="1232" 
d="M1081 1528h119q-32 -112 -98 -174t-152 -62q-43 0 -83.5 16.5t-65.5 36t-58 36t-63 16.5q-83 0 -119 -105h-123q31 112 97 174t153 62q43 0 84 -16.5t66.5 -36t58 -36t61.5 -16.5q86 0 123 105zM1221 1122l-189 -749q-47 -195 -178.5 -298.5t-331.5 -103.5
q-190 0 -289.5 93.5t-99.5 267.5q0 68 21 151l157 639h189l-168 -673q-15 -55 -15 -101q0 -103 57 -156t163 -53q121 0 203 68t114 201l178 714h189z" />
    <glyph glyph-name="v.smcp" horiz-adv-x="1067" 
d="M530 0h-251l-117 1122h184l49 -493q24 -225 39 -455h4q129 231 262 455l293 493h211z" />
    <glyph glyph-name="w.smcp" horiz-adv-x="1574" 
d="M1163 0h-272l2 485q0 162 4 478h-4q-123 -271 -227 -478l-240 -485h-272l14 1122h178l-8 -434q-3 -262 -12 -516h4q144 301 252 518l215 432h264v-432q0 -174 -4 -518h4q155 338 242 516l208 434h195z" />
    <glyph glyph-name="wacute.smcp" horiz-adv-x="1574" 
d="M975 1247h-166l238 293h241zM1163 0h-272l2 485q0 162 4 478h-4q-123 -271 -227 -478l-240 -485h-272l14 1122h178l-8 -434q-3 -262 -12 -516h4q144 301 252 518l215 432h264v-432q0 -174 -4 -518h4q155 338 242 516l208 434h195z" />
    <glyph glyph-name="wcircumflex.smcp" horiz-adv-x="1574" 
d="M1278 1247h-166l-106 191l-197 -191h-197l306 293h198zM1163 0h-272l2 485q0 162 4 478h-4q-123 -271 -227 -478l-240 -485h-272l14 1122h178l-8 -434q-3 -262 -12 -516h4q144 301 252 518l215 432h264v-432q0 -174 -4 -518h4q155 338 242 516l208 434h195z" />
    <glyph glyph-name="wdieresis.smcp" horiz-adv-x="1574" 
d="M852 1337h-168l49 203h168zM1251 1337h-168l50 203h167zM1163 0h-272l2 485q0 162 4 478h-4q-123 -271 -227 -478l-240 -485h-272l14 1122h178l-8 -434q-3 -262 -12 -516h4q144 301 252 518l215 432h264v-432q0 -174 -4 -518h4q155 338 242 516l208 434h195z" />
    <glyph glyph-name="wgrave.smcp" horiz-adv-x="1574" 
d="M969 1540l112 -293h-145l-191 293h224zM1163 0h-272l2 485q0 162 4 478h-4q-123 -271 -227 -478l-240 -485h-272l14 1122h178l-8 -434q-3 -262 -12 -516h4q144 301 252 518l215 432h264v-432q0 -174 -4 -518h4q155 338 242 516l208 434h195z" />
    <glyph glyph-name="x.smcp" horiz-adv-x="1073" 
d="M668 569l264 -569h-201l-196 442h-5l-397 -442h-248l549 592l-248 530h197l182 -411h4l373 411h246z" />
    <glyph glyph-name="y.smcp" horiz-adv-x="1056" 
d="M596 455l-115 -455h-186l113 455l-263 667h193l82 -221q47 -128 98 -287h4q91 114 238 287l190 221h238z" />
    <glyph glyph-name="yacute.smcp" horiz-adv-x="1056" 
d="M688 1247h-166l238 293h241zM596 455l-115 -455h-186l113 455l-263 667h193l82 -221q47 -128 98 -287h4q91 114 238 287l190 221h238z" />
    <glyph glyph-name="ycircumflex.smcp" horiz-adv-x="1056" 
d="M991 1247h-166l-106 191l-197 -191h-196l305 293h198zM596 455l-115 -455h-186l113 455l-263 667h193l82 -221q47 -128 98 -287h4q91 114 238 287l190 221h238z" />
    <glyph glyph-name="ydieresis.smcp" horiz-adv-x="1056" 
d="M563 1337h-168l49 203h168zM963 1337h-168l49 203h168zM596 455l-115 -455h-186l113 455l-263 667h193l82 -221q47 -128 98 -287h4q91 114 238 287l190 221h238z" />
    <glyph glyph-name="ygrave.smcp" horiz-adv-x="1056" 
d="M682 1540l113 -293h-146l-190 293h223zM596 455l-115 -455h-186l113 455l-263 667h193l82 -221q47 -128 98 -287h4q91 114 238 287l190 221h238z" />
    <glyph glyph-name="z.smcp" horiz-adv-x="964" 
d="M1006 946l-822 -780v-4h658l-41 -162h-895l43 176l823 780v5h-608l39 161h846z" />
    <glyph glyph-name="zacute.smcp" horiz-adv-x="964" 
d="M649 1247h-166l238 293h242zM1006 946l-822 -780v-4h658l-41 -162h-895l43 176l823 780v5h-608l39 161h846z" />
    <glyph glyph-name="zcaron.smcp" horiz-adv-x="964" 
d="M717 1247h-199l-162 293h166l107 -190l196 190h197zM1006 946l-822 -780v-4h658l-41 -162h-895l43 176l823 780v5h-608l39 161h846z" />
    <glyph glyph-name="zdotaccent.smcp" horiz-adv-x="964" 
d="M731 1337h-180l49 203h180zM1006 946l-822 -780v-4h658l-41 -162h-895l43 176l823 780v5h-608l39 161h846z" />
    <glyph glyph-name="ccedilla.smcp.ss01" 
d="M717 1151q199 0 307.5 -99t108.5 -268q0 -27 -7 -71h-194q2 16 2 47q1 106 -61.5 164.5t-172.5 58.5q-85 0 -158.5 -35.5t-123.5 -92.5t-85.5 -129.5t-52 -145t-16.5 -140.5q0 -145 66 -223t192 -78q116 0 207.5 60.5t132.5 167.5h199q-62 -185 -210 -290.5t-347 -105.5
q-208 0 -321 119.5t-113 337.5q0 95 25 194t78.5 194t128 169.5t182.5 120t233 45.5zM315 -432h-235l338 332h172z" />
    <glyph glyph-name="scedilla.smcp.ss01" horiz-adv-x="1071" 
d="M612 1151q394 0 394 -293q0 -36 -9 -80h-186q8 27 8 53q0 166 -221 166q-117 0 -181.5 -53.5t-64.5 -120.5q0 -65 51.5 -98.5t180.5 -73.5q60 -18 100.5 -34t86 -42.5t72 -58t44.5 -78.5t18 -106q0 -63 -30.5 -125t-87.5 -115.5t-152 -87t-211 -33.5q-196 0 -301 80
t-105 232q0 43 11 88h186q-8 -36 -8 -74q0 -170 237 -170q132 0 201.5 57t69.5 131q0 68 -54.5 107t-175.5 76q-52 17 -85 29.5t-74.5 32t-66.5 41.5t-48.5 51t-34 67.5t-10.5 85.5q0 60 28 119.5t81 111t141 83.5t196 32zM233 -432h-235l338 332h172z" />
    <glyph glyph-name="tcedilla.smcp.ss01" horiz-adv-x="1024" 
d="M1112 958h-397l-238 -958h-188l239 958h-397l39 164h983zM190 -432h-235l338 332h172z" />
    <glyph glyph-name="zero.lf" horiz-adv-x="1208" 
d="M778 1409q194 0 292.5 -123.5t98.5 -361.5q0 -79 -12.5 -167t-39.5 -180.5t-65.5 -179.5t-94 -164.5t-120 -135.5t-148.5 -92t-177 -34q-192 0 -289.5 124t-97.5 362q0 93 18 196.5t52.5 211t90 204.5t125.5 173.5t165 121.5t202 45zM766 1243q-87 0 -163 -57
t-127 -145.5t-88.5 -195.5t-55 -206.5t-17.5 -179.5q0 -160 53 -243t156 -83q87 0 163.5 57.5t127.5 146t88.5 195.5t54.5 206.5t17 179.5q0 159 -52.5 242t-156.5 83z" />
    <glyph glyph-name="one.lf" horiz-adv-x="737" 
d="M397 0h-186l250 1006h-309l36 143q162 0 252.5 53t141.5 178h159z" />
    <glyph glyph-name="two.lf" horiz-adv-x="1165" 
d="M764 1409q179 0 283 -93.5t104 -248.5q0 -165 -112.5 -287.5t-374.5 -251.5q-154 -77 -241.5 -137.5t-125.5 -111.5t-57 -117h729l-37 -162h-948q42 238 166 377.5t407 279.5q226 111 311.5 194.5t85.5 195.5q0 96 -52.5 147t-151.5 51q-116 0 -195 -70.5t-117 -199.5
h-196q56 210 193.5 322t328.5 112z" />
    <glyph glyph-name="three.lf" horiz-adv-x="1153" 
d="M735 1409q195 0 302.5 -91t107.5 -249q0 -124 -79 -225t-245 -152v-4q183 -77 183 -278q0 -75 -33.5 -151t-96.5 -141t-165.5 -106t-227.5 -41q-206 0 -315 89t-109 253q0 46 13 103h188q-10 -41 -10 -86q0 -97 60.5 -147t178.5 -50q77 0 141.5 25.5t104.5 66t62 88.5
t22 95q0 104 -68.5 157t-201.5 53h-55l40 158h52q76 0 139.5 17.5t105.5 45.5t71.5 65t42.5 75t13 76q0 89 -62 140.5t-171 51.5q-120 0 -201 -69t-114 -205h-191q47 205 185.5 320.5t332.5 115.5z" />
    <glyph glyph-name="four.lf" horiz-adv-x="1126" 
d="M1053 356h-226l-88 -356h-186l88 356h-651l45 183l786 841h262l-217 -868h226zM217 512h467l45 190q11 43 58 223.5t73 274.5h-4q-237 -263 -424 -461z" />
    <glyph glyph-name="five.lf" horiz-adv-x="1150" 
d="M1153 1221h-625l-137 -400h4q106 86 256 86q179 0 278 -104t99 -285q0 -72 -22.5 -147.5t-69.5 -147t-112.5 -128t-159 -90.5t-201.5 -34q-186 0 -293 83t-107 229q0 31 11 84h190q-6 -30 -6 -56q0 -84 60.5 -130t162.5 -46q70 0 130 24t100 62.5t68.5 88t41.5 99.5
t13 97q0 115 -61.5 178.5t-172.5 63.5q-92 0 -166.5 -50.5t-118.5 -144.5l-184 12l281 815h782z" />
    <glyph glyph-name="six.lf" horiz-adv-x="1161" 
d="M786 1409q184 0 283.5 -89t99.5 -243q0 -31 -2 -51h-190q0 6 1 14t1 11q0 194 -199 194q-136 0 -253 -122.5t-183 -362.5h4q142 139 332 139q170 0 268.5 -108t98.5 -293q0 -67 -22 -139.5t-67.5 -141.5t-107.5 -124t-149 -88.5t-185 -33.5q-197 0 -298 114t-101 339
q0 82 13.5 173t41.5 186.5t68 185.5t96.5 170t122.5 140t150.5 95t176.5 35zM633 745q-64 0 -120.5 -23t-95.5 -60t-67 -84t-41.5 -96t-13.5 -95q0 -118 58.5 -185t166.5 -67q64 0 119 23t93 60t65 83.5t40 93.5t13 90q0 121 -57 190.5t-160 69.5z" />
    <glyph glyph-name="seven.lf" horiz-adv-x="962" 
d="M1143 1380l-41 -166q-222 -239 -424.5 -548t-358.5 -666h-208q341 727 800 1217h-708l43 163h897z" />
    <glyph glyph-name="eight.lf" horiz-adv-x="1163" 
d="M754 1409q187 0 299 -93.5t112 -248.5q0 -128 -83.5 -228t-239.5 -145v-4q88 -40 135 -116.5t47 -180.5q0 -75 -34.5 -148.5t-97.5 -135.5t-165 -100t-225 -38q-202 0 -318 101t-116 276q0 133 90 238t264 147v4q-77 42 -120.5 112.5t-43.5 162.5q0 68 33.5 137t94 127.5
t157.5 95.5t211 37zM739 1247q-141 0 -221 -79.5t-80 -176.5q0 -94 62 -147t174 -53q76 0 136 24t95 62.5t52.5 82t17.5 87.5q0 93 -63.5 146.5t-172.5 53.5zM584 631q-78 0 -142.5 -25.5t-103.5 -67t-59.5 -89t-20.5 -95.5q0 -103 68 -161t188 -58q80 0 145 26.5t103.5 68
t59 89.5t20.5 95q0 100 -68.5 158.5t-189.5 58.5z" />
    <glyph glyph-name="nine.lf" horiz-adv-x="1161" 
d="M459 -29q-184 0 -283.5 89t-99.5 243q0 31 2 51h190q0 -6 -1 -14t-1 -10q0 -195 199 -195q137 0 253.5 122.5t182.5 363.5h-4q-140 -140 -332 -140q-170 0 -268 108.5t-98 293.5q0 67 22 139.5t67.5 141.5t107 123.5t149 88t186.5 33.5q196 0 296.5 -114t100.5 -339
q0 -82 -13.5 -173t-41.5 -186.5t-68 -185.5t-96.5 -170t-122.5 -140t-150.5 -95t-176.5 -35zM612 635q64 0 120.5 23t95.5 60t67 84t41.5 96t13.5 95q0 119 -58 185.5t-167 66.5q-64 0 -119 -23t-93 -60t-65 -83.5t-40 -93.5t-13 -90q0 -121 57 -190.5t160 -69.5z" />
    <glyph glyph-name="zero.dnom" horiz-adv-x="774" 
d="M438 846q128 0 193 -77t65 -224q0 -68 -15.5 -143t-50 -150.5t-82 -135t-117 -97t-150.5 -37.5q-256 0 -256 303q0 68 15.5 142.5t49 149.5t80.5 134.5t117 97t151 37.5zM426 717q-47 0 -89 -32t-70.5 -81.5t-49 -109t-30 -114.5t-9.5 -97q0 -85 29.5 -131t83.5 -46
q59 0 108.5 48t78 119t44 142.5t15.5 127.5q0 174 -111 174z" />
    <glyph glyph-name="one.dnom" horiz-adv-x="491" 
d="M236 0h-154l143 569h-192l28 119q103 0 161 32t89 107h131z" />
    <glyph glyph-name="two.dnom" horiz-adv-x="751" 
d="M428 846q120 0 190 -59t70 -154q0 -99 -71 -174t-230 -150q-131 -62 -179.5 -98t-62.5 -80h445l-31 -131h-620q27 153 103.5 239t252.5 171q132 65 181.5 107t49.5 101q0 99 -106 99q-123 0 -166 -144h-164q35 133 123.5 203t214.5 70z" />
    <glyph glyph-name="three.dnom" horiz-adv-x="741" 
d="M418 846q130 0 200 -55t70 -154q0 -153 -190 -219v-4q104 -50 104 -166q0 -45 -21 -91t-60.5 -85.5t-105 -64.5t-145.5 -25q-138 0 -211 55.5t-73 157.5q0 27 6 65h158q-5 -45 -5 -49q0 -102 129 -102q82 0 129.5 42.5t47.5 96.5q0 106 -156 106h-27l31 127h31
q97 0 149.5 43.5t52.5 100.5q0 45 -32 69.5t-92 24.5q-134 0 -172 -144h-156q28 127 118 199t220 72z" />
    <glyph glyph-name="four.dnom" horiz-adv-x="727" 
d="M627 197h-138l-49 -197h-151l49 197h-399l36 143l463 487h209l-127 -508h137zM119 319h254l24 101q20 91 68 258h-4q-126 -137 -221 -234z" />
    <glyph glyph-name="five.dnom" horiz-adv-x="743" 
d="M680 696h-381l-70 -190h4q56 45 142 45q115 0 179 -64.5t64 -175.5q0 -55 -23 -112t-66 -106t-114 -80t-157 -31q-126 0 -198 52t-72 144q0 22 6 49h158q-2 -10 -2 -26q0 -43 33.5 -67.5t88.5 -24.5q88 0 137.5 61t49.5 129q0 61 -33.5 95t-93.5 34q-104 0 -152 -104
l-151 10l170 493h514z" />
    <glyph glyph-name="six.dnom" horiz-adv-x="747" 
d="M440 846q123 0 190.5 -55t67.5 -150q0 -25 -2 -37h-155v12q0 103 -107 103q-74 0 -136 -61t-97 -181h4q79 66 188 66q107 0 170.5 -66t63.5 -178q0 -52 -22.5 -106.5t-63.5 -102t-106.5 -78t-143.5 -30.5q-268 0 -268 290q0 69 16 145.5t50.5 153t82 137.5t117.5 99.5
t151 38.5zM350 420q-80 0 -129 -56.5t-49 -125.5q0 -57 33 -92t90 -35q79 0 125.5 58t46.5 122q0 57 -30 93t-87 36z" />
    <glyph glyph-name="seven.dnom" horiz-adv-x="653" 
d="M711 827l-33 -131q-125 -130 -243.5 -312.5t-207.5 -383.5h-184q103 216 226.5 396t236.5 298h-445l33 133h617z" />
    <glyph glyph-name="eight.dnom" horiz-adv-x="747" 
d="M420 846q124 0 199 -58t75 -155q0 -77 -53 -137.5t-149 -81.5v-4q118 -38 118 -174q0 -99 -88 -176.5t-241 -77.5q-137 0 -214 62.5t-77 170.5q0 80 58.5 144t160.5 81v4q-48 21 -77.5 65.5t-29.5 100.5q0 88 86.5 162t231.5 74zM410 719q-78 0 -119 -38.5t-41 -90.5
q0 -48 34.5 -76.5t96.5 -28.5q78 0 119 39.5t41 91.5q0 47 -34 75t-97 28zM319 362q-85 0 -128.5 -43t-43.5 -98q0 -54 37 -83t103 -29q83 0 127.5 43.5t44.5 99.5q0 52 -37 81t-103 29z" />
    <glyph glyph-name="nine.dnom" horiz-adv-x="747" 
d="M252 -18q-122 0 -189 54.5t-67 149.5q0 25 2 37h156v-12q0 -102 104 -102q75 0 137 60.5t99 180.5h-5q-80 -65 -188 -65q-107 0 -170 65.5t-63 177.5q0 52 22.5 107t63 102.5t106 78t143.5 30.5q132 0 200.5 -73.5t68.5 -217.5q0 -57 -12 -120t-34.5 -127.5t-58.5 -122.5
t-81 -103.5t-105.5 -72.5t-128.5 -27zM342 408q80 0 130 56.5t50 125.5q0 56 -33.5 91.5t-89.5 35.5q-79 0 -126.5 -58t-47.5 -122q0 -57 30.5 -93t86.5 -36z" />
    <glyph glyph-name="zero.numr" horiz-adv-x="774" 
d="M578 1399q128 0 193 -77t65 -224q0 -68 -16 -143.5t-50 -150.5t-81.5 -134.5t-117.5 -97t-151 -37.5q-256 0 -256 303q0 68 15.5 142.5t49 149.5t81 134.5t117.5 97t151 37.5zM565 1270q-47 0 -89 -32t-70.5 -81.5t-49 -109t-30 -114.5t-9.5 -97q0 -85 29.5 -131
t83.5 -46q59 0 108.5 48t78 119t44 142.5t15.5 127.5q0 174 -111 174z" />
    <glyph glyph-name="one.numr" horiz-adv-x="491" 
d="M373 553h-154l143 569h-192l29 119q103 0 161 32t89 107h131z" />
    <glyph glyph-name="two.numr" horiz-adv-x="751" 
d="M565 1399q120 0 190 -59t70 -154q0 -99 -71 -174t-230 -150q-131 -62 -179 -98t-62 -80h444l-31 -131h-620q27 153 103.5 239t252.5 171q133 66 182.5 107.5t49.5 100.5q0 99 -107 99q-123 0 -166 -144h-164q35 133 123.5 203t214.5 70z" />
    <glyph glyph-name="three.numr" horiz-adv-x="741" 
d="M555 1399q130 0 200 -55t70 -154q0 -153 -190 -219v-4q104 -50 104 -166q0 -45 -21 -91t-60.5 -85.5t-104.5 -64.5t-145 -25q-139 0 -212 55.5t-73 157.5q0 28 6 65h158q-4 -36 -4 -49q0 -102 129 -102q82 0 129 42.5t47 96.5q0 106 -156 106h-26l30 127h31
q97 0 150 43.5t53 100.5q0 44 -32.5 69t-92.5 25q-135 0 -172 -144h-156q28 127 118 199t220 72z" />
    </font>
</defs>
</svg>
